G04 (created by PCBNEW (2013-07-05 BZR 4237)-testing) date Sat 03 Aug 2013 11:53:29 BST*
%MOIN*%
G04 Gerber Fmt 3.4, Leading zero omitted, Abs format*
%FSLAX34Y34*%
G01*
G70*
G90*
G04 APERTURE LIST*
%ADD10C,0.005906*%
%ADD11C,0.015000*%
%ADD12C,0.080000*%
%ADD13R,0.065000X0.090000*%
%ADD14R,0.060000X0.090000*%
%ADD15R,0.055000X0.090000*%
%ADD16C,0.059400*%
%ADD17R,0.070000X0.120000*%
%ADD18R,0.040000X0.050000*%
%ADD19R,0.050000X0.040000*%
%ADD20R,0.080000X0.100000*%
%ADD21R,0.055000X0.075000*%
%ADD22R,0.075000X0.055000*%
%ADD23R,0.074300X0.037700*%
%ADD24R,0.094800X0.066300*%
%ADD25R,0.094800X0.113500*%
%ADD26R,0.102700X0.078100*%
%ADD27R,0.031800X0.067000*%
%ADD28R,0.067000X0.031800*%
%ADD29R,0.090000X0.090000*%
%ADD30C,0.090000*%
%ADD31R,0.031800X0.063300*%
%ADD32R,0.110600X0.142000*%
%ADD33R,0.059000X0.048000*%
%ADD34R,0.098700X0.120400*%
%ADD35R,0.120400X0.098700*%
%ADD36C,0.060000*%
%ADD37C,0.055400*%
%ADD38R,0.071200X0.094800*%
%ADD39R,0.075100X0.079100*%
%ADD40C,0.036200*%
%ADD41R,0.043600X0.055400*%
%ADD42R,0.055400X0.043600*%
%ADD43R,0.079100X0.079100*%
%ADD44C,0.079100*%
%ADD45R,0.041654X0.043622*%
%ADD46R,0.043622X0.041654*%
%ADD47R,0.067244X0.090866*%
%ADD48R,0.049134X0.130039*%
%ADD49O,0.098700X0.075100*%
%ADD50R,0.090900X0.075100*%
G04 APERTURE END LIST*
G54D10*
G54D11*
X39369Y16733D02*
X39370Y16733D01*
X36417Y19685D02*
X39369Y16733D01*
X984Y19685D02*
X0Y18701D01*
X36417Y19685D02*
X984Y19685D01*
X36417Y0D02*
X39370Y2953D01*
X0Y984D02*
X0Y985D01*
X984Y0D02*
X0Y984D01*
X36417Y0D02*
X984Y0D01*
X0Y18701D02*
X0Y985D01*
X39370Y16733D02*
X39370Y2953D01*
G54D12*
X21524Y19292D03*
X25461Y19292D03*
X10366Y19292D03*
X6429Y19292D03*
G54D13*
X33809Y11595D03*
X32825Y11595D03*
X31840Y11595D03*
X30856Y11595D03*
X29872Y11595D03*
X28888Y11595D03*
X27903Y11595D03*
X26919Y11595D03*
G54D14*
X26279Y11595D03*
G54D15*
X25768Y11595D03*
X25295Y11595D03*
G54D16*
X25589Y10532D03*
G54D12*
X33858Y10532D03*
G54D17*
X24606Y1977D03*
X24606Y10977D03*
X35630Y1977D03*
X34764Y10977D03*
X24606Y5284D03*
X35630Y5284D03*
G54D18*
X9725Y14476D03*
X8975Y14476D03*
X9725Y13476D03*
X9350Y14476D03*
X8975Y13476D03*
X9861Y17315D03*
X10611Y17315D03*
X9861Y18315D03*
X10236Y17315D03*
X10611Y18315D03*
G54D19*
X25303Y15570D03*
X25303Y16320D03*
X24303Y15570D03*
X25303Y15945D03*
X24303Y16320D03*
G54D20*
X28484Y13583D03*
X29784Y13583D03*
X29784Y12599D03*
X28484Y12599D03*
G54D21*
X24428Y17027D03*
X25178Y17027D03*
X25178Y14862D03*
X24428Y14862D03*
G54D22*
X17323Y18289D03*
X17323Y17539D03*
X9153Y18780D03*
X9153Y18030D03*
X10433Y13601D03*
X10433Y14351D03*
X20079Y17539D03*
X20079Y18289D03*
X19095Y18289D03*
X19095Y17539D03*
X18307Y18289D03*
X18307Y17539D03*
G54D23*
X37752Y10355D03*
X37752Y9587D03*
X37752Y10099D03*
X37752Y9843D03*
G54D24*
X38799Y9513D03*
G54D25*
X38799Y10990D03*
X38799Y8696D03*
G54D24*
X38799Y10173D03*
G54D23*
X37752Y9331D03*
G54D26*
X37894Y8873D03*
X37894Y10813D03*
G54D27*
X15846Y4725D03*
X16042Y4725D03*
X16239Y4725D03*
X16436Y4725D03*
X16633Y4725D03*
X16830Y4725D03*
X17027Y4725D03*
X17224Y4725D03*
X17420Y4725D03*
X17617Y4725D03*
X17814Y4725D03*
X18011Y4725D03*
X18208Y4725D03*
X18405Y4725D03*
X18602Y4725D03*
X18798Y4725D03*
X18798Y9253D03*
X18602Y9253D03*
X18405Y9253D03*
X18208Y9253D03*
X18011Y9253D03*
X17814Y9253D03*
X17617Y9253D03*
X17420Y9253D03*
X17224Y9253D03*
X17027Y9253D03*
X16830Y9253D03*
X16633Y9253D03*
X16436Y9253D03*
X16239Y9253D03*
X16042Y9253D03*
X15846Y9253D03*
G54D28*
X19586Y5513D03*
X19586Y5709D03*
X19586Y5906D03*
X19586Y6103D03*
X19586Y6300D03*
X19586Y6497D03*
X19586Y6694D03*
X19586Y6891D03*
X19586Y7087D03*
X19586Y7284D03*
X19586Y7481D03*
X19586Y7678D03*
X19586Y7875D03*
X19586Y8072D03*
X19586Y8269D03*
X19586Y8465D03*
X15058Y8465D03*
X15058Y8269D03*
X15058Y8072D03*
X15058Y7875D03*
X15058Y7678D03*
X15058Y7481D03*
X15058Y7284D03*
X15058Y7087D03*
X15058Y6891D03*
X15058Y6694D03*
X15058Y6497D03*
X15058Y6300D03*
X15058Y6103D03*
X15058Y5906D03*
X15058Y5709D03*
X15058Y5513D03*
G54D27*
X3838Y8072D03*
X4035Y8072D03*
X4232Y8072D03*
X4429Y8072D03*
X4626Y8072D03*
X4823Y8072D03*
X5019Y8072D03*
X5216Y8072D03*
X5413Y8072D03*
X5610Y8072D03*
X5807Y8072D03*
X6004Y8072D03*
X6004Y11418D03*
X5807Y11418D03*
X5610Y11418D03*
X5413Y11418D03*
X5216Y11418D03*
X5019Y11418D03*
X4823Y11418D03*
X4626Y11418D03*
X4429Y11418D03*
X4232Y11418D03*
X4035Y11418D03*
X3838Y11418D03*
G54D28*
X6594Y8662D03*
X6594Y8859D03*
X6594Y9056D03*
X6594Y9253D03*
X6594Y9450D03*
X6594Y9647D03*
X6594Y9843D03*
X6594Y10040D03*
X6594Y10237D03*
X6594Y10434D03*
X6594Y10631D03*
X6594Y10828D03*
X3248Y10828D03*
X3248Y10631D03*
X3248Y10434D03*
X3248Y10237D03*
X3248Y10040D03*
X3248Y9843D03*
X3248Y9647D03*
X3248Y9450D03*
X3248Y9253D03*
X3248Y9056D03*
X3248Y8859D03*
X3248Y8662D03*
G54D29*
X27815Y18800D03*
G54D30*
X28815Y18800D03*
X29815Y18800D03*
X30815Y18800D03*
X31815Y18800D03*
X32815Y18800D03*
G54D31*
X16734Y12107D03*
X16930Y12107D03*
X17324Y12107D03*
X17521Y12107D03*
X17718Y12107D03*
X17915Y12107D03*
X18112Y12107D03*
X18309Y12107D03*
X18505Y12107D03*
X18702Y12107D03*
X18899Y12107D03*
X19096Y12107D03*
X19293Y12107D03*
X19490Y12107D03*
X16537Y12107D03*
X14174Y12107D03*
X14371Y12107D03*
X14568Y12107D03*
X14765Y12107D03*
X14962Y12107D03*
X15159Y12107D03*
X15355Y12107D03*
X15552Y12107D03*
X15749Y12107D03*
X15946Y12107D03*
X16143Y12107D03*
X17127Y12107D03*
X16340Y12107D03*
G54D32*
X20147Y12776D03*
X13517Y12776D03*
G54D33*
X29704Y15945D03*
X28760Y16319D03*
X28760Y15571D03*
G54D34*
X1358Y1565D03*
X1358Y4735D03*
G54D35*
X5098Y3150D03*
G54D34*
X5098Y4538D03*
X5098Y1762D03*
G54D36*
X886Y3839D03*
X886Y2461D03*
G54D34*
X1358Y14951D03*
X1358Y18121D03*
G54D35*
X5098Y16536D03*
G54D34*
X5098Y17924D03*
X5098Y15148D03*
G54D36*
X886Y17225D03*
X886Y15847D03*
G54D37*
X22637Y591D03*
X23819Y591D03*
G54D38*
X14370Y3287D03*
X14370Y2027D03*
X12204Y2027D03*
X12204Y3287D03*
G54D22*
X12795Y5591D03*
X12795Y4841D03*
G54D39*
X36930Y5178D03*
X38268Y5178D03*
X36930Y2894D03*
X38268Y2894D03*
G54D40*
X37008Y4036D03*
X38190Y4036D03*
X10630Y1773D03*
X10630Y591D03*
X7382Y1773D03*
X7382Y591D03*
G54D41*
X9547Y7972D03*
X8957Y7972D03*
X8957Y11122D03*
X9547Y11122D03*
X2264Y591D03*
X1674Y591D03*
G54D42*
X6004Y2263D03*
X6004Y1673D03*
G54D41*
X5019Y591D03*
X4429Y591D03*
X1083Y5709D03*
X1673Y5709D03*
X1869Y9153D03*
X1279Y9153D03*
X1772Y10728D03*
X2362Y10728D03*
X1280Y9744D03*
X1870Y9744D03*
X1279Y8563D03*
X1869Y8563D03*
G54D42*
X4822Y6299D03*
X4822Y6889D03*
X7579Y9055D03*
X7579Y8465D03*
X7579Y10630D03*
X7579Y10040D03*
X4232Y6299D03*
X4232Y6889D03*
G54D10*
G36*
X6464Y6132D02*
X6072Y5741D01*
X5764Y6049D01*
X6155Y6441D01*
X6464Y6132D01*
X6464Y6132D01*
G37*
G36*
X6047Y6549D02*
X5655Y6158D01*
X5346Y6466D01*
X5738Y6858D01*
X6047Y6549D01*
X6047Y6549D01*
G37*
G54D41*
X7382Y12008D03*
X6792Y12008D03*
G54D42*
X4921Y13484D03*
X4921Y12894D03*
G54D41*
X6594Y17716D03*
X6004Y17716D03*
X6594Y18307D03*
X6004Y18307D03*
X3544Y19095D03*
X4134Y19095D03*
X12795Y1279D03*
X13385Y1279D03*
X12795Y4035D03*
X13385Y4035D03*
X37991Y6102D03*
X37401Y6102D03*
G54D42*
X18602Y886D03*
X18602Y1476D03*
X15255Y1476D03*
X15255Y886D03*
G54D41*
X20275Y4626D03*
X19685Y4626D03*
G54D42*
X13976Y17815D03*
X13976Y18405D03*
X14567Y17815D03*
X14567Y18405D03*
X15157Y17815D03*
X15157Y18405D03*
X15748Y17815D03*
X15748Y18405D03*
X16338Y17815D03*
X16338Y18405D03*
G54D41*
X21456Y17815D03*
X20866Y17815D03*
G54D42*
X8267Y14468D03*
X8267Y13878D03*
X9153Y16929D03*
X9153Y17519D03*
G54D41*
X20275Y4035D03*
X19685Y4035D03*
G54D10*
G36*
X20737Y9712D02*
X21129Y9320D01*
X20821Y9012D01*
X20429Y9404D01*
X20737Y9712D01*
X20737Y9712D01*
G37*
G36*
X20320Y9295D02*
X20712Y8903D01*
X20404Y8595D01*
X20012Y8987D01*
X20320Y9295D01*
X20320Y9295D01*
G37*
G54D41*
X14370Y9252D03*
X14960Y9252D03*
G54D42*
X13484Y5511D03*
X13484Y4921D03*
G54D10*
G36*
X21720Y4951D02*
X21328Y4559D01*
X21020Y4868D01*
X21411Y5259D01*
X21720Y4951D01*
X21720Y4951D01*
G37*
G36*
X21302Y5368D02*
X20911Y4977D01*
X20602Y5285D01*
X20994Y5677D01*
X21302Y5368D01*
X21302Y5368D01*
G37*
G54D41*
X14174Y4528D03*
X14764Y4528D03*
G54D42*
X28149Y15551D03*
X28149Y14961D03*
X6102Y4232D03*
X6102Y3642D03*
X10728Y4626D03*
X10728Y4036D03*
G54D21*
X27442Y14862D03*
X26692Y14862D03*
X26692Y17027D03*
X27442Y17027D03*
G54D19*
X27567Y15570D03*
X27567Y16320D03*
X26567Y15570D03*
X27567Y15945D03*
X26567Y16320D03*
G54D43*
X36515Y14961D03*
G54D44*
X36515Y15945D03*
X36515Y16929D03*
G54D45*
X37273Y13287D03*
X36545Y13031D03*
X36545Y13543D03*
X36781Y11516D03*
X36053Y11260D03*
X36053Y11772D03*
G54D46*
X22441Y18868D03*
X22696Y18140D03*
X22185Y18140D03*
G54D41*
X5315Y5512D03*
X5905Y5512D03*
G54D42*
X35531Y13484D03*
X35531Y12894D03*
X4232Y12894D03*
X4232Y13484D03*
X3641Y12894D03*
X3641Y13484D03*
G54D41*
X7579Y5512D03*
X8169Y5512D03*
X7579Y6102D03*
X8169Y6102D03*
G54D42*
X3051Y12894D03*
X3051Y13484D03*
G54D41*
X6791Y12598D03*
X7381Y12598D03*
G54D42*
X8169Y8464D03*
X8169Y7874D03*
X8169Y9252D03*
X8169Y9842D03*
X34744Y13484D03*
X34744Y12894D03*
G54D41*
X38385Y13287D03*
X37795Y13287D03*
X36220Y12401D03*
X36810Y12401D03*
X36712Y10630D03*
X36122Y10630D03*
X3642Y591D03*
X3052Y591D03*
X2461Y5709D03*
X3051Y5709D03*
G54D42*
X36516Y7776D03*
X36516Y8366D03*
G54D41*
X36712Y9449D03*
X36122Y9449D03*
X36712Y10039D03*
X36122Y10039D03*
G54D42*
X36515Y6693D03*
X36515Y7283D03*
X26476Y12500D03*
X26476Y13090D03*
X27067Y12500D03*
X27067Y13090D03*
X33858Y12599D03*
X33858Y13189D03*
G54D41*
X7381Y13189D03*
X6791Y13189D03*
X6004Y17126D03*
X6594Y17126D03*
G54D42*
X7185Y17126D03*
X7185Y17716D03*
G54D41*
X2166Y19095D03*
X2756Y19095D03*
G54D42*
X25885Y13090D03*
X25885Y12500D03*
X25295Y13090D03*
X25295Y12500D03*
G54D41*
X7579Y6693D03*
X8169Y6693D03*
X36516Y1870D03*
X37106Y1870D03*
X16536Y2363D03*
X17126Y2363D03*
X7579Y7283D03*
X8169Y7283D03*
X6004Y16535D03*
X6594Y16535D03*
G54D42*
X21456Y9547D03*
X21456Y8957D03*
G54D41*
X22146Y17618D03*
X22736Y17618D03*
X25492Y18504D03*
X26082Y18504D03*
G54D42*
X11713Y18701D03*
X11713Y18111D03*
X21260Y12501D03*
X21260Y13091D03*
X7283Y4232D03*
X7283Y3642D03*
X11318Y4036D03*
X11318Y4626D03*
X6692Y4232D03*
X6692Y3642D03*
X11909Y4036D03*
X11909Y4626D03*
X11712Y17028D03*
X11712Y17618D03*
G54D47*
X9724Y8760D03*
X9724Y10335D03*
X8779Y10335D03*
X8779Y8760D03*
G54D48*
X7956Y1168D03*
X7956Y2768D03*
X8456Y1168D03*
X8456Y2768D03*
X8956Y1168D03*
X8956Y2768D03*
X9456Y1168D03*
X9456Y2768D03*
X9956Y1168D03*
X9956Y2768D03*
G54D42*
X11023Y5610D03*
X11023Y6200D03*
G54D49*
X16063Y709D03*
G54D50*
X17795Y709D03*
X17795Y1653D03*
X16063Y1653D03*
M02*
