G04 (created by PCBNEW (2013-07-05 BZR 4237)-testing) date Sat 03 Aug 2013 11:53:29 BST*
%MOIN*%
G04 Gerber Fmt 3.4, Leading zero omitted, Abs format*
%FSLAX34Y34*%
G01*
G70*
G90*
G04 APERTURE LIST*
%ADD10C,0.005906*%
%ADD11C,0.015000*%
%ADD12C,0.060000*%
%ADD13C,0.039400*%
%ADD14R,0.070000X0.070000*%
%ADD15C,0.070000*%
%ADD16C,0.040000*%
%ADD17C,0.035400*%
%ADD18R,0.059100X0.059100*%
%ADD19C,0.059100*%
%ADD20C,0.027600*%
%ADD21C,0.021654*%
%ADD22C,0.035000*%
%ADD23C,0.019700*%
%ADD24C,0.010000*%
G04 APERTURE END LIST*
G54D10*
G54D11*
X39369Y16733D02*
X39370Y16733D01*
X36417Y19685D02*
X39369Y16733D01*
X984Y19685D02*
X0Y18701D01*
X36417Y19685D02*
X984Y19685D01*
X36417Y0D02*
X39370Y2953D01*
X0Y984D02*
X0Y985D01*
X984Y0D02*
X0Y984D01*
X36417Y0D02*
X984Y0D01*
X0Y18701D02*
X0Y985D01*
X39370Y16733D02*
X39370Y2953D01*
G54D12*
X21524Y19292D03*
X25461Y19292D03*
X10366Y19292D03*
X6429Y19292D03*
G54D13*
X25589Y10532D03*
G54D12*
X33858Y10532D03*
G54D14*
X27815Y18800D03*
G54D15*
X28815Y18800D03*
X29815Y18800D03*
X30815Y18800D03*
X31815Y18800D03*
X32815Y18800D03*
G54D16*
X886Y3839D03*
X886Y2461D03*
X886Y17225D03*
X886Y15847D03*
G54D17*
X22637Y591D03*
X23819Y591D03*
X37008Y4036D03*
X38190Y4036D03*
X10630Y1773D03*
X10630Y591D03*
X7382Y1773D03*
X7382Y591D03*
G54D18*
X36515Y14961D03*
G54D19*
X36515Y15945D03*
X36515Y16929D03*
G54D20*
X36220Y13878D03*
X33464Y13287D03*
X10925Y5020D03*
X6102Y4626D03*
X6653Y2264D03*
X4626Y12401D03*
X7775Y13189D03*
X38582Y11811D03*
X27854Y13779D03*
X31299Y14567D03*
X23917Y16732D03*
X24015Y15748D03*
X21456Y18209D03*
X26378Y18504D03*
X26476Y13386D03*
X27067Y13386D03*
X2067Y18012D03*
X7086Y9941D03*
X7086Y8760D03*
X4724Y7382D03*
X34842Y7283D03*
X2165Y1772D03*
X1574Y6299D03*
X31496Y6102D03*
X12106Y18110D03*
X16929Y13386D03*
X1476Y13386D03*
X37007Y14075D03*
X37106Y11713D03*
X30610Y13681D03*
X25295Y13386D03*
X25885Y13386D03*
X24015Y1870D03*
X13976Y5020D03*
X11417Y5610D03*
G54D21*
X15452Y4724D03*
G54D20*
X7480Y1279D03*
X15452Y9646D03*
X19389Y4331D03*
X20669Y5610D03*
X19881Y8858D03*
X25885Y14567D03*
X36515Y1378D03*
X18405Y5315D03*
G54D21*
X14567Y5216D03*
G54D20*
X38779Y13287D03*
X37598Y8268D03*
X28444Y15846D03*
X23622Y14862D03*
X11811Y16634D03*
X9744Y16751D03*
X9744Y15256D03*
G54D21*
X14370Y11220D03*
X10630Y11417D03*
X10630Y12697D03*
X23818Y17323D03*
X12598Y16929D03*
X11122Y17028D03*
G54D20*
X8957Y14863D03*
G54D21*
X13090Y9350D03*
X12696Y12697D03*
X13878Y8563D03*
X11318Y8760D03*
X13878Y8169D03*
X23326Y15157D03*
X23523Y17027D03*
X14271Y15059D03*
X11417Y9646D03*
X11417Y12008D03*
X34645Y16437D03*
X34645Y18012D03*
X13878Y8957D03*
X16338Y10728D03*
X23129Y12205D03*
X16633Y10925D03*
X23129Y12598D03*
X33366Y4035D03*
X33366Y5020D03*
X33661Y9252D03*
X35334Y12401D03*
X33070Y12598D03*
X21456Y3937D03*
X24507Y7283D03*
X21161Y7283D03*
X35137Y7874D03*
X23818Y3051D03*
X13189Y7382D03*
X26673Y10630D03*
X21555Y12106D03*
X18011Y3740D03*
X24507Y6398D03*
X23720Y6398D03*
X22834Y3347D03*
X21456Y3346D03*
G54D20*
X30413Y6398D03*
G54D21*
X21850Y11024D03*
X27362Y13976D03*
X27657Y12500D03*
X21161Y6988D03*
X18700Y2461D03*
X10137Y3642D03*
X11614Y11614D03*
X18602Y11614D03*
X22441Y14764D03*
X14271Y14764D03*
X19192Y14468D03*
X14271Y14468D03*
X17224Y13878D03*
X14271Y13878D03*
X14271Y14173D03*
X19488Y14173D03*
X14271Y13583D03*
X10925Y7185D03*
X12795Y7382D03*
X17519Y13583D03*
X15945Y3839D03*
X23425Y3051D03*
X24311Y9153D03*
G54D20*
X19193Y9252D03*
X26870Y10926D03*
X19784Y9941D03*
X31890Y10729D03*
X20177Y10138D03*
G54D21*
X24409Y9449D03*
G54D20*
X19587Y9548D03*
G54D21*
X23720Y8563D03*
X21161Y8563D03*
X17618Y3838D03*
X10925Y10433D03*
X14862Y8760D03*
X11023Y10138D03*
X14468Y8760D03*
X10826Y10728D03*
X13878Y10236D03*
X35334Y11516D03*
X15846Y10827D03*
X15748Y10531D03*
X35728Y11516D03*
X24507Y6693D03*
X23523Y12992D03*
X23720Y6693D03*
X17224Y11024D03*
X22834Y3642D03*
X21456Y3642D03*
X23326Y14567D03*
X11318Y590D03*
X11417Y6398D03*
X12204Y6398D03*
X11417Y7677D03*
X12992Y7677D03*
X12992Y7972D03*
X10433Y7874D03*
X20079Y16240D03*
X12697Y16241D03*
X22637Y5807D03*
X21161Y5807D03*
X16929Y11024D03*
X10236Y10925D03*
X19488Y15847D03*
X12303Y16043D03*
X21161Y6398D03*
X22441Y6398D03*
X19291Y15552D03*
X12204Y15748D03*
X22342Y6693D03*
X21161Y6693D03*
X21555Y15355D03*
X22834Y4233D03*
X21456Y4232D03*
X14271Y15354D03*
X19784Y16044D03*
X22539Y6102D03*
X12992Y16044D03*
X21161Y6102D03*
X6692Y984D03*
G54D20*
X32185Y17520D03*
X31889Y16732D03*
X30216Y16535D03*
X29822Y17323D03*
X24606Y6004D03*
X24606Y4527D03*
X21161Y10236D03*
X30807Y12303D03*
X10334Y1378D03*
X12795Y886D03*
X11909Y5020D03*
X8563Y5512D03*
X8563Y6102D03*
X8563Y6693D03*
X8563Y7283D03*
X15846Y9744D03*
X8956Y7579D03*
X9547Y11516D03*
X6692Y4626D03*
X6594Y5610D03*
X14173Y4035D03*
X24311Y12106D03*
X4330Y14075D03*
X29035Y7283D03*
X29527Y4921D03*
X21653Y4626D03*
X20275Y5610D03*
X4921Y13878D03*
X3740Y14075D03*
X3740Y12008D03*
X7775Y12598D03*
X37204Y12401D03*
X28149Y14665D03*
X26476Y17618D03*
X35630Y18110D03*
X27854Y17027D03*
X30118Y15945D03*
X27952Y15945D03*
X26279Y14862D03*
X24015Y14862D03*
X25689Y15945D03*
X25590Y17027D03*
X23031Y18110D03*
X21358Y590D03*
X25295Y788D03*
X3838Y6299D03*
X7972Y10630D03*
X4822Y5512D03*
X17815Y5315D03*
X20570Y4331D03*
X14173Y5610D03*
X12303Y5610D03*
X36023Y7480D03*
X20866Y18209D03*
X20078Y18701D03*
X16338Y18701D03*
X15748Y18701D03*
X15157Y18701D03*
X14567Y18701D03*
X13976Y18701D03*
X14370Y9646D03*
X12106Y17618D03*
X34645Y9842D03*
X10531Y14764D03*
X12401Y4035D03*
X16830Y12992D03*
X14271Y12894D03*
X18996Y886D03*
X14862Y1279D03*
X35630Y1083D03*
X36319Y3347D03*
X21260Y13682D03*
X37992Y12107D03*
X36930Y5806D03*
X29134Y13189D03*
X11221Y17520D03*
X29134Y13682D03*
X20177Y8367D03*
X4429Y8662D03*
X6004Y9351D03*
X37599Y11713D03*
X1771Y11122D03*
X2755Y11024D03*
X2756Y8268D03*
X5019Y984D03*
X5807Y18799D03*
X591Y5709D03*
X885Y9153D03*
X2362Y7382D03*
X4724Y19095D03*
X4331Y3150D03*
G54D22*
X3838Y10138D03*
G54D21*
X21161Y7874D03*
X24507Y7874D03*
X32381Y7972D03*
X13779Y7185D03*
X11023Y6594D03*
X24507Y7579D03*
X32972Y7972D03*
X21161Y7579D03*
G54D23*
X21948Y12303D02*
X21948Y11713D01*
X21555Y11319D02*
X21555Y10138D01*
X21948Y11713D02*
X21555Y11319D01*
X26476Y14272D02*
X25885Y13681D01*
X30019Y14272D02*
X26476Y14272D01*
X30610Y13681D02*
X30019Y14272D01*
X25295Y13386D02*
X24704Y13386D01*
X24409Y13681D02*
X23326Y13681D01*
X24704Y13386D02*
X24409Y13681D01*
X25885Y13386D02*
X25295Y13386D01*
X25885Y14567D02*
X25885Y13681D01*
X25885Y13681D02*
X25885Y13386D01*
X24015Y1870D02*
X24015Y2657D01*
X12598Y394D02*
X13090Y394D01*
X7480Y1083D02*
X8169Y394D01*
X8169Y394D02*
X9842Y394D01*
X9842Y394D02*
X10433Y984D01*
X10433Y984D02*
X12007Y984D01*
X12007Y984D02*
X12598Y394D01*
X7480Y1279D02*
X7480Y1083D01*
X15452Y2756D02*
X15452Y4724D01*
X13090Y394D02*
X15452Y2756D01*
X23917Y2756D02*
X20177Y2756D01*
X20177Y2756D02*
X19389Y3543D01*
X19389Y3543D02*
X19389Y4331D01*
X24015Y2657D02*
X23917Y2756D01*
X23326Y13681D02*
X21948Y12303D01*
X21555Y10138D02*
X20275Y8858D01*
X20275Y8858D02*
X19881Y8858D01*
X38976Y13090D02*
X38779Y13287D01*
X38976Y8563D02*
X38976Y13090D01*
X38681Y8268D02*
X38976Y8563D01*
X37598Y8268D02*
X38681Y8268D01*
G54D10*
G36*
X21209Y949D02*
X21138Y920D01*
X21029Y811D01*
X20970Y668D01*
X20970Y514D01*
X21029Y371D01*
X21054Y345D01*
X20959Y345D01*
X20959Y4407D01*
X20900Y4550D01*
X20791Y4659D01*
X20663Y4712D01*
X20663Y5687D01*
X20604Y5830D01*
X20565Y5869D01*
X20565Y8443D01*
X20506Y8586D01*
X20397Y8695D01*
X20254Y8754D01*
X20100Y8755D01*
X19957Y8696D01*
X19848Y8587D01*
X19789Y8444D01*
X19788Y8290D01*
X19847Y8147D01*
X19956Y8038D01*
X20099Y7979D01*
X20253Y7978D01*
X20396Y8037D01*
X20505Y8146D01*
X20564Y8289D01*
X20565Y8443D01*
X20565Y5869D01*
X20495Y5939D01*
X20353Y5998D01*
X20198Y5998D01*
X20056Y5939D01*
X19946Y5830D01*
X19887Y5688D01*
X19887Y5533D01*
X19946Y5391D01*
X20055Y5281D01*
X20198Y5222D01*
X20352Y5222D01*
X20495Y5281D01*
X20604Y5390D01*
X20663Y5533D01*
X20663Y5687D01*
X20663Y4712D01*
X20648Y4719D01*
X20494Y4719D01*
X20351Y4660D01*
X20242Y4551D01*
X20183Y4408D01*
X20182Y4254D01*
X20241Y4111D01*
X20350Y4002D01*
X20493Y3943D01*
X20647Y3943D01*
X20790Y4001D01*
X20899Y4111D01*
X20958Y4253D01*
X20959Y4407D01*
X20959Y345D01*
X19384Y345D01*
X19384Y963D01*
X19325Y1105D01*
X19216Y1214D01*
X19073Y1274D01*
X19059Y1274D01*
X19059Y2531D01*
X19004Y2663D01*
X18904Y2764D01*
X18772Y2819D01*
X18629Y2819D01*
X18498Y2764D01*
X18397Y2664D01*
X18370Y2598D01*
X18370Y3811D01*
X18315Y3943D01*
X18215Y4044D01*
X18203Y4049D01*
X18203Y5392D01*
X18144Y5534D01*
X18035Y5644D01*
X17892Y5703D01*
X17738Y5703D01*
X17595Y5644D01*
X17486Y5535D01*
X17427Y5392D01*
X17426Y5238D01*
X17485Y5095D01*
X17594Y4986D01*
X17737Y4927D01*
X17891Y4927D01*
X18034Y4986D01*
X18143Y5095D01*
X18202Y5237D01*
X18203Y5392D01*
X18203Y4049D01*
X18083Y4098D01*
X17940Y4098D01*
X17887Y4076D01*
X17821Y4142D01*
X17689Y4197D01*
X17547Y4197D01*
X17415Y4142D01*
X17314Y4042D01*
X17259Y3910D01*
X17259Y3768D01*
X17314Y3636D01*
X17414Y3535D01*
X17546Y3480D01*
X17689Y3480D01*
X17742Y3502D01*
X17808Y3437D01*
X17940Y3382D01*
X18082Y3382D01*
X18214Y3436D01*
X18315Y3537D01*
X18370Y3668D01*
X18370Y3811D01*
X18370Y2598D01*
X18342Y2532D01*
X18342Y2390D01*
X18396Y2258D01*
X18497Y2157D01*
X18629Y2102D01*
X18771Y2102D01*
X18903Y2157D01*
X19004Y2257D01*
X19059Y2389D01*
X19059Y2531D01*
X19059Y1274D01*
X18919Y1274D01*
X18776Y1215D01*
X18667Y1106D01*
X18608Y963D01*
X18608Y809D01*
X18667Y666D01*
X18776Y557D01*
X18918Y498D01*
X19072Y498D01*
X19215Y557D01*
X19324Y666D01*
X19384Y808D01*
X19384Y963D01*
X19384Y345D01*
X16303Y345D01*
X16303Y3909D01*
X16248Y4041D01*
X16148Y4142D01*
X16016Y4197D01*
X15874Y4197D01*
X15742Y4142D01*
X15641Y4042D01*
X15586Y3910D01*
X15586Y3768D01*
X15641Y3636D01*
X15741Y3535D01*
X15873Y3480D01*
X16015Y3480D01*
X16147Y3535D01*
X16248Y3635D01*
X16303Y3767D01*
X16303Y3909D01*
X16303Y345D01*
X15250Y345D01*
X15250Y1356D01*
X15220Y1428D01*
X15220Y8831D01*
X15166Y8962D01*
X15065Y9063D01*
X14933Y9118D01*
X14791Y9118D01*
X14758Y9104D01*
X14758Y9722D01*
X14699Y9865D01*
X14590Y9974D01*
X14447Y10034D01*
X14293Y10034D01*
X14150Y9975D01*
X14041Y9866D01*
X13982Y9723D01*
X13982Y9569D01*
X14041Y9426D01*
X14150Y9317D01*
X14292Y9258D01*
X14446Y9258D01*
X14589Y9316D01*
X14698Y9425D01*
X14758Y9568D01*
X14758Y9722D01*
X14758Y9104D01*
X14665Y9066D01*
X14540Y9118D01*
X14397Y9118D01*
X14265Y9064D01*
X14234Y9032D01*
X14181Y9159D01*
X14081Y9260D01*
X13949Y9315D01*
X13807Y9315D01*
X13675Y9260D01*
X13574Y9160D01*
X13519Y9028D01*
X13519Y8886D01*
X13571Y8760D01*
X13519Y8634D01*
X13519Y8492D01*
X13571Y8366D01*
X13519Y8241D01*
X13519Y8098D01*
X13574Y7967D01*
X13674Y7866D01*
X13806Y7811D01*
X13948Y7811D01*
X14080Y7865D01*
X14181Y7966D01*
X14236Y8098D01*
X14236Y8240D01*
X14184Y8366D01*
X14234Y8487D01*
X14265Y8456D01*
X14397Y8402D01*
X14539Y8401D01*
X14665Y8453D01*
X14790Y8402D01*
X14933Y8401D01*
X15064Y8456D01*
X15165Y8557D01*
X15220Y8688D01*
X15220Y8831D01*
X15220Y1428D01*
X15191Y1499D01*
X15082Y1608D01*
X14939Y1667D01*
X14785Y1667D01*
X14642Y1609D01*
X14561Y1527D01*
X14561Y4112D01*
X14561Y5687D01*
X14502Y5830D01*
X14393Y5939D01*
X14250Y5998D01*
X14137Y5998D01*
X14137Y7256D01*
X14083Y7388D01*
X13982Y7488D01*
X13851Y7543D01*
X13708Y7543D01*
X13576Y7489D01*
X13545Y7457D01*
X13492Y7584D01*
X13448Y7629D01*
X13448Y9421D01*
X13394Y9553D01*
X13293Y9654D01*
X13162Y9709D01*
X13019Y9709D01*
X12887Y9654D01*
X12787Y9554D01*
X12732Y9422D01*
X12732Y9279D01*
X12786Y9148D01*
X12887Y9047D01*
X13019Y8992D01*
X13161Y8992D01*
X13293Y9046D01*
X13394Y9147D01*
X13448Y9279D01*
X13448Y9421D01*
X13448Y7629D01*
X13392Y7685D01*
X13350Y7703D01*
X13350Y7748D01*
X13318Y7825D01*
X13350Y7901D01*
X13350Y8043D01*
X13296Y8175D01*
X13195Y8276D01*
X13063Y8331D01*
X12921Y8331D01*
X12789Y8276D01*
X12688Y8176D01*
X12633Y8044D01*
X12633Y7901D01*
X12665Y7825D01*
X12633Y7749D01*
X12633Y7703D01*
X12592Y7686D01*
X12491Y7585D01*
X12437Y7453D01*
X12437Y7311D01*
X12491Y7179D01*
X12592Y7078D01*
X12723Y7024D01*
X12866Y7023D01*
X12992Y7076D01*
X13117Y7024D01*
X13260Y7023D01*
X13391Y7078D01*
X13423Y7109D01*
X13475Y6982D01*
X13576Y6881D01*
X13708Y6827D01*
X13850Y6827D01*
X13982Y6881D01*
X14083Y6982D01*
X14137Y7113D01*
X14137Y7256D01*
X14137Y5998D01*
X14096Y5998D01*
X13953Y5939D01*
X13844Y5830D01*
X13785Y5688D01*
X13785Y5533D01*
X13844Y5391D01*
X13953Y5281D01*
X14095Y5222D01*
X14250Y5222D01*
X14392Y5281D01*
X14502Y5390D01*
X14561Y5533D01*
X14561Y5687D01*
X14561Y4112D01*
X14502Y4255D01*
X14393Y4364D01*
X14250Y4423D01*
X14096Y4423D01*
X13953Y4364D01*
X13844Y4255D01*
X13785Y4113D01*
X13785Y3958D01*
X13844Y3816D01*
X13953Y3707D01*
X14095Y3647D01*
X14250Y3647D01*
X14392Y3706D01*
X14502Y3815D01*
X14561Y3958D01*
X14561Y4112D01*
X14561Y1527D01*
X14533Y1500D01*
X14474Y1357D01*
X14474Y1203D01*
X14533Y1060D01*
X14642Y951D01*
X14784Y891D01*
X14939Y891D01*
X15081Y950D01*
X15191Y1059D01*
X15250Y1202D01*
X15250Y1356D01*
X15250Y345D01*
X13183Y345D01*
X13183Y963D01*
X13124Y1105D01*
X13015Y1214D01*
X12872Y1274D01*
X12718Y1274D01*
X12575Y1215D01*
X12466Y1106D01*
X12407Y963D01*
X12407Y809D01*
X12466Y666D01*
X12575Y557D01*
X12717Y498D01*
X12872Y498D01*
X13014Y557D01*
X13124Y666D01*
X13183Y808D01*
X13183Y963D01*
X13183Y345D01*
X12353Y345D01*
X12353Y3647D01*
X12478Y3647D01*
X12621Y3706D01*
X12730Y3815D01*
X12789Y3958D01*
X12789Y4112D01*
X12730Y4255D01*
X12621Y4364D01*
X12479Y4423D01*
X12353Y4423D01*
X12353Y5222D01*
X12380Y5222D01*
X12522Y5281D01*
X12631Y5390D01*
X12691Y5533D01*
X12691Y5687D01*
X12632Y5830D01*
X12523Y5939D01*
X12380Y5998D01*
X12353Y5998D01*
X12353Y6071D01*
X12407Y6094D01*
X12508Y6194D01*
X12563Y6326D01*
X12563Y6468D01*
X12508Y6600D01*
X12408Y6701D01*
X12353Y6724D01*
X12353Y10088D01*
X13551Y10088D01*
X13574Y10033D01*
X13674Y9933D01*
X13806Y9878D01*
X13948Y9878D01*
X14080Y9932D01*
X14181Y10033D01*
X14204Y10088D01*
X15662Y10088D01*
X15627Y10073D01*
X15517Y9964D01*
X15458Y9822D01*
X15458Y9667D01*
X15517Y9524D01*
X15626Y9415D01*
X15769Y9356D01*
X15923Y9356D01*
X16066Y9415D01*
X16175Y9524D01*
X16234Y9666D01*
X16234Y9821D01*
X16175Y9963D01*
X16066Y10073D01*
X16030Y10088D01*
X19425Y10088D01*
X19396Y10018D01*
X19395Y9888D01*
X19367Y9877D01*
X19258Y9768D01*
X19205Y9639D01*
X19116Y9640D01*
X18973Y9581D01*
X18864Y9472D01*
X18805Y9329D01*
X18804Y9175D01*
X18863Y9032D01*
X18972Y8923D01*
X19115Y8864D01*
X19269Y8863D01*
X19412Y8922D01*
X19521Y9031D01*
X19574Y9160D01*
X19663Y9159D01*
X19806Y9218D01*
X19915Y9327D01*
X19974Y9470D01*
X19975Y9600D01*
X20003Y9611D01*
X20112Y9720D01*
X20124Y9750D01*
X20253Y9749D01*
X20396Y9808D01*
X20505Y9917D01*
X20564Y10060D01*
X20564Y10088D01*
X20803Y10088D01*
X20832Y10017D01*
X20941Y9907D01*
X21083Y9848D01*
X21209Y9848D01*
X21209Y8921D01*
X21090Y8921D01*
X20958Y8866D01*
X20857Y8766D01*
X20803Y8634D01*
X20803Y8492D01*
X20857Y8360D01*
X20958Y8259D01*
X21056Y8218D01*
X20958Y8178D01*
X20857Y8077D01*
X20803Y7945D01*
X20803Y7803D01*
X20834Y7726D01*
X20803Y7650D01*
X20803Y7508D01*
X20834Y7431D01*
X20803Y7355D01*
X20803Y7212D01*
X20834Y7136D01*
X20803Y7060D01*
X20803Y6917D01*
X20834Y6840D01*
X20803Y6764D01*
X20803Y6622D01*
X20834Y6545D01*
X20803Y6469D01*
X20803Y6327D01*
X20834Y6250D01*
X20803Y6174D01*
X20803Y6031D01*
X20834Y5955D01*
X20803Y5879D01*
X20803Y5736D01*
X20857Y5604D01*
X20958Y5503D01*
X21089Y5449D01*
X21209Y5449D01*
X21209Y4492D01*
X21153Y4435D01*
X21098Y4304D01*
X21098Y4161D01*
X21130Y4085D01*
X21098Y4008D01*
X21098Y3866D01*
X21129Y3790D01*
X21097Y3713D01*
X21097Y3571D01*
X21129Y3493D01*
X21098Y3418D01*
X21098Y3275D01*
X21152Y3144D01*
X21209Y3087D01*
X21209Y949D01*
X21209Y949D01*
G37*
G54D24*
X21209Y949D02*
X21138Y920D01*
X21029Y811D01*
X20970Y668D01*
X20970Y514D01*
X21029Y371D01*
X21054Y345D01*
X20959Y345D01*
X20959Y4407D01*
X20900Y4550D01*
X20791Y4659D01*
X20663Y4712D01*
X20663Y5687D01*
X20604Y5830D01*
X20565Y5869D01*
X20565Y8443D01*
X20506Y8586D01*
X20397Y8695D01*
X20254Y8754D01*
X20100Y8755D01*
X19957Y8696D01*
X19848Y8587D01*
X19789Y8444D01*
X19788Y8290D01*
X19847Y8147D01*
X19956Y8038D01*
X20099Y7979D01*
X20253Y7978D01*
X20396Y8037D01*
X20505Y8146D01*
X20564Y8289D01*
X20565Y8443D01*
X20565Y5869D01*
X20495Y5939D01*
X20353Y5998D01*
X20198Y5998D01*
X20056Y5939D01*
X19946Y5830D01*
X19887Y5688D01*
X19887Y5533D01*
X19946Y5391D01*
X20055Y5281D01*
X20198Y5222D01*
X20352Y5222D01*
X20495Y5281D01*
X20604Y5390D01*
X20663Y5533D01*
X20663Y5687D01*
X20663Y4712D01*
X20648Y4719D01*
X20494Y4719D01*
X20351Y4660D01*
X20242Y4551D01*
X20183Y4408D01*
X20182Y4254D01*
X20241Y4111D01*
X20350Y4002D01*
X20493Y3943D01*
X20647Y3943D01*
X20790Y4001D01*
X20899Y4111D01*
X20958Y4253D01*
X20959Y4407D01*
X20959Y345D01*
X19384Y345D01*
X19384Y963D01*
X19325Y1105D01*
X19216Y1214D01*
X19073Y1274D01*
X19059Y1274D01*
X19059Y2531D01*
X19004Y2663D01*
X18904Y2764D01*
X18772Y2819D01*
X18629Y2819D01*
X18498Y2764D01*
X18397Y2664D01*
X18370Y2598D01*
X18370Y3811D01*
X18315Y3943D01*
X18215Y4044D01*
X18203Y4049D01*
X18203Y5392D01*
X18144Y5534D01*
X18035Y5644D01*
X17892Y5703D01*
X17738Y5703D01*
X17595Y5644D01*
X17486Y5535D01*
X17427Y5392D01*
X17426Y5238D01*
X17485Y5095D01*
X17594Y4986D01*
X17737Y4927D01*
X17891Y4927D01*
X18034Y4986D01*
X18143Y5095D01*
X18202Y5237D01*
X18203Y5392D01*
X18203Y4049D01*
X18083Y4098D01*
X17940Y4098D01*
X17887Y4076D01*
X17821Y4142D01*
X17689Y4197D01*
X17547Y4197D01*
X17415Y4142D01*
X17314Y4042D01*
X17259Y3910D01*
X17259Y3768D01*
X17314Y3636D01*
X17414Y3535D01*
X17546Y3480D01*
X17689Y3480D01*
X17742Y3502D01*
X17808Y3437D01*
X17940Y3382D01*
X18082Y3382D01*
X18214Y3436D01*
X18315Y3537D01*
X18370Y3668D01*
X18370Y3811D01*
X18370Y2598D01*
X18342Y2532D01*
X18342Y2390D01*
X18396Y2258D01*
X18497Y2157D01*
X18629Y2102D01*
X18771Y2102D01*
X18903Y2157D01*
X19004Y2257D01*
X19059Y2389D01*
X19059Y2531D01*
X19059Y1274D01*
X18919Y1274D01*
X18776Y1215D01*
X18667Y1106D01*
X18608Y963D01*
X18608Y809D01*
X18667Y666D01*
X18776Y557D01*
X18918Y498D01*
X19072Y498D01*
X19215Y557D01*
X19324Y666D01*
X19384Y808D01*
X19384Y963D01*
X19384Y345D01*
X16303Y345D01*
X16303Y3909D01*
X16248Y4041D01*
X16148Y4142D01*
X16016Y4197D01*
X15874Y4197D01*
X15742Y4142D01*
X15641Y4042D01*
X15586Y3910D01*
X15586Y3768D01*
X15641Y3636D01*
X15741Y3535D01*
X15873Y3480D01*
X16015Y3480D01*
X16147Y3535D01*
X16248Y3635D01*
X16303Y3767D01*
X16303Y3909D01*
X16303Y345D01*
X15250Y345D01*
X15250Y1356D01*
X15220Y1428D01*
X15220Y8831D01*
X15166Y8962D01*
X15065Y9063D01*
X14933Y9118D01*
X14791Y9118D01*
X14758Y9104D01*
X14758Y9722D01*
X14699Y9865D01*
X14590Y9974D01*
X14447Y10034D01*
X14293Y10034D01*
X14150Y9975D01*
X14041Y9866D01*
X13982Y9723D01*
X13982Y9569D01*
X14041Y9426D01*
X14150Y9317D01*
X14292Y9258D01*
X14446Y9258D01*
X14589Y9316D01*
X14698Y9425D01*
X14758Y9568D01*
X14758Y9722D01*
X14758Y9104D01*
X14665Y9066D01*
X14540Y9118D01*
X14397Y9118D01*
X14265Y9064D01*
X14234Y9032D01*
X14181Y9159D01*
X14081Y9260D01*
X13949Y9315D01*
X13807Y9315D01*
X13675Y9260D01*
X13574Y9160D01*
X13519Y9028D01*
X13519Y8886D01*
X13571Y8760D01*
X13519Y8634D01*
X13519Y8492D01*
X13571Y8366D01*
X13519Y8241D01*
X13519Y8098D01*
X13574Y7967D01*
X13674Y7866D01*
X13806Y7811D01*
X13948Y7811D01*
X14080Y7865D01*
X14181Y7966D01*
X14236Y8098D01*
X14236Y8240D01*
X14184Y8366D01*
X14234Y8487D01*
X14265Y8456D01*
X14397Y8402D01*
X14539Y8401D01*
X14665Y8453D01*
X14790Y8402D01*
X14933Y8401D01*
X15064Y8456D01*
X15165Y8557D01*
X15220Y8688D01*
X15220Y8831D01*
X15220Y1428D01*
X15191Y1499D01*
X15082Y1608D01*
X14939Y1667D01*
X14785Y1667D01*
X14642Y1609D01*
X14561Y1527D01*
X14561Y4112D01*
X14561Y5687D01*
X14502Y5830D01*
X14393Y5939D01*
X14250Y5998D01*
X14137Y5998D01*
X14137Y7256D01*
X14083Y7388D01*
X13982Y7488D01*
X13851Y7543D01*
X13708Y7543D01*
X13576Y7489D01*
X13545Y7457D01*
X13492Y7584D01*
X13448Y7629D01*
X13448Y9421D01*
X13394Y9553D01*
X13293Y9654D01*
X13162Y9709D01*
X13019Y9709D01*
X12887Y9654D01*
X12787Y9554D01*
X12732Y9422D01*
X12732Y9279D01*
X12786Y9148D01*
X12887Y9047D01*
X13019Y8992D01*
X13161Y8992D01*
X13293Y9046D01*
X13394Y9147D01*
X13448Y9279D01*
X13448Y9421D01*
X13448Y7629D01*
X13392Y7685D01*
X13350Y7703D01*
X13350Y7748D01*
X13318Y7825D01*
X13350Y7901D01*
X13350Y8043D01*
X13296Y8175D01*
X13195Y8276D01*
X13063Y8331D01*
X12921Y8331D01*
X12789Y8276D01*
X12688Y8176D01*
X12633Y8044D01*
X12633Y7901D01*
X12665Y7825D01*
X12633Y7749D01*
X12633Y7703D01*
X12592Y7686D01*
X12491Y7585D01*
X12437Y7453D01*
X12437Y7311D01*
X12491Y7179D01*
X12592Y7078D01*
X12723Y7024D01*
X12866Y7023D01*
X12992Y7076D01*
X13117Y7024D01*
X13260Y7023D01*
X13391Y7078D01*
X13423Y7109D01*
X13475Y6982D01*
X13576Y6881D01*
X13708Y6827D01*
X13850Y6827D01*
X13982Y6881D01*
X14083Y6982D01*
X14137Y7113D01*
X14137Y7256D01*
X14137Y5998D01*
X14096Y5998D01*
X13953Y5939D01*
X13844Y5830D01*
X13785Y5688D01*
X13785Y5533D01*
X13844Y5391D01*
X13953Y5281D01*
X14095Y5222D01*
X14250Y5222D01*
X14392Y5281D01*
X14502Y5390D01*
X14561Y5533D01*
X14561Y5687D01*
X14561Y4112D01*
X14502Y4255D01*
X14393Y4364D01*
X14250Y4423D01*
X14096Y4423D01*
X13953Y4364D01*
X13844Y4255D01*
X13785Y4113D01*
X13785Y3958D01*
X13844Y3816D01*
X13953Y3707D01*
X14095Y3647D01*
X14250Y3647D01*
X14392Y3706D01*
X14502Y3815D01*
X14561Y3958D01*
X14561Y4112D01*
X14561Y1527D01*
X14533Y1500D01*
X14474Y1357D01*
X14474Y1203D01*
X14533Y1060D01*
X14642Y951D01*
X14784Y891D01*
X14939Y891D01*
X15081Y950D01*
X15191Y1059D01*
X15250Y1202D01*
X15250Y1356D01*
X15250Y345D01*
X13183Y345D01*
X13183Y963D01*
X13124Y1105D01*
X13015Y1214D01*
X12872Y1274D01*
X12718Y1274D01*
X12575Y1215D01*
X12466Y1106D01*
X12407Y963D01*
X12407Y809D01*
X12466Y666D01*
X12575Y557D01*
X12717Y498D01*
X12872Y498D01*
X13014Y557D01*
X13124Y666D01*
X13183Y808D01*
X13183Y963D01*
X13183Y345D01*
X12353Y345D01*
X12353Y3647D01*
X12478Y3647D01*
X12621Y3706D01*
X12730Y3815D01*
X12789Y3958D01*
X12789Y4112D01*
X12730Y4255D01*
X12621Y4364D01*
X12479Y4423D01*
X12353Y4423D01*
X12353Y5222D01*
X12380Y5222D01*
X12522Y5281D01*
X12631Y5390D01*
X12691Y5533D01*
X12691Y5687D01*
X12632Y5830D01*
X12523Y5939D01*
X12380Y5998D01*
X12353Y5998D01*
X12353Y6071D01*
X12407Y6094D01*
X12508Y6194D01*
X12563Y6326D01*
X12563Y6468D01*
X12508Y6600D01*
X12408Y6701D01*
X12353Y6724D01*
X12353Y10088D01*
X13551Y10088D01*
X13574Y10033D01*
X13674Y9933D01*
X13806Y9878D01*
X13948Y9878D01*
X14080Y9932D01*
X14181Y10033D01*
X14204Y10088D01*
X15662Y10088D01*
X15627Y10073D01*
X15517Y9964D01*
X15458Y9822D01*
X15458Y9667D01*
X15517Y9524D01*
X15626Y9415D01*
X15769Y9356D01*
X15923Y9356D01*
X16066Y9415D01*
X16175Y9524D01*
X16234Y9666D01*
X16234Y9821D01*
X16175Y9963D01*
X16066Y10073D01*
X16030Y10088D01*
X19425Y10088D01*
X19396Y10018D01*
X19395Y9888D01*
X19367Y9877D01*
X19258Y9768D01*
X19205Y9639D01*
X19116Y9640D01*
X18973Y9581D01*
X18864Y9472D01*
X18805Y9329D01*
X18804Y9175D01*
X18863Y9032D01*
X18972Y8923D01*
X19115Y8864D01*
X19269Y8863D01*
X19412Y8922D01*
X19521Y9031D01*
X19574Y9160D01*
X19663Y9159D01*
X19806Y9218D01*
X19915Y9327D01*
X19974Y9470D01*
X19975Y9600D01*
X20003Y9611D01*
X20112Y9720D01*
X20124Y9750D01*
X20253Y9749D01*
X20396Y9808D01*
X20505Y9917D01*
X20564Y10060D01*
X20564Y10088D01*
X20803Y10088D01*
X20832Y10017D01*
X20941Y9907D01*
X21083Y9848D01*
X21209Y9848D01*
X21209Y8921D01*
X21090Y8921D01*
X20958Y8866D01*
X20857Y8766D01*
X20803Y8634D01*
X20803Y8492D01*
X20857Y8360D01*
X20958Y8259D01*
X21056Y8218D01*
X20958Y8178D01*
X20857Y8077D01*
X20803Y7945D01*
X20803Y7803D01*
X20834Y7726D01*
X20803Y7650D01*
X20803Y7508D01*
X20834Y7431D01*
X20803Y7355D01*
X20803Y7212D01*
X20834Y7136D01*
X20803Y7060D01*
X20803Y6917D01*
X20834Y6840D01*
X20803Y6764D01*
X20803Y6622D01*
X20834Y6545D01*
X20803Y6469D01*
X20803Y6327D01*
X20834Y6250D01*
X20803Y6174D01*
X20803Y6031D01*
X20834Y5955D01*
X20803Y5879D01*
X20803Y5736D01*
X20857Y5604D01*
X20958Y5503D01*
X21089Y5449D01*
X21209Y5449D01*
X21209Y4492D01*
X21153Y4435D01*
X21098Y4304D01*
X21098Y4161D01*
X21130Y4085D01*
X21098Y4008D01*
X21098Y3866D01*
X21129Y3790D01*
X21097Y3713D01*
X21097Y3571D01*
X21129Y3493D01*
X21098Y3418D01*
X21098Y3275D01*
X21152Y3144D01*
X21209Y3087D01*
X21209Y949D01*
G54D10*
G36*
X39024Y3072D02*
X38617Y2664D01*
X38617Y4120D01*
X38552Y4277D01*
X38432Y4397D01*
X38275Y4462D01*
X38105Y4463D01*
X37948Y4398D01*
X37828Y4278D01*
X37763Y4121D01*
X37762Y3951D01*
X37827Y3794D01*
X37947Y3674D01*
X38104Y3609D01*
X38274Y3608D01*
X38431Y3673D01*
X38551Y3793D01*
X38616Y3950D01*
X38617Y4120D01*
X38617Y2664D01*
X37435Y1482D01*
X37435Y4120D01*
X37370Y4277D01*
X37318Y4329D01*
X37318Y5882D01*
X37259Y6025D01*
X37150Y6134D01*
X37007Y6193D01*
X36853Y6194D01*
X36710Y6135D01*
X36601Y6026D01*
X36542Y5883D01*
X36541Y5729D01*
X36600Y5586D01*
X36709Y5477D01*
X36852Y5418D01*
X37006Y5417D01*
X37149Y5476D01*
X37258Y5585D01*
X37317Y5728D01*
X37318Y5882D01*
X37318Y4329D01*
X37250Y4397D01*
X37093Y4462D01*
X36923Y4463D01*
X36766Y4398D01*
X36646Y4278D01*
X36581Y4121D01*
X36580Y3951D01*
X36645Y3794D01*
X36765Y3674D01*
X36922Y3609D01*
X37092Y3608D01*
X37249Y3673D01*
X37369Y3793D01*
X37434Y3950D01*
X37435Y4120D01*
X37435Y1482D01*
X36903Y951D01*
X36903Y1455D01*
X36844Y1597D01*
X36735Y1707D01*
X36707Y1719D01*
X36707Y3423D01*
X36648Y3566D01*
X36539Y3675D01*
X36411Y3728D01*
X36411Y7557D01*
X36352Y7700D01*
X36243Y7809D01*
X36101Y7868D01*
X36086Y7868D01*
X36086Y11587D01*
X36032Y11718D01*
X35931Y11819D01*
X35800Y11874D01*
X35693Y11874D01*
X35693Y12472D01*
X35638Y12604D01*
X35537Y12705D01*
X35406Y12760D01*
X35263Y12760D01*
X35132Y12705D01*
X35031Y12605D01*
X35004Y12539D01*
X35004Y16508D01*
X35004Y18083D01*
X34949Y18214D01*
X34848Y18315D01*
X34717Y18370D01*
X34574Y18370D01*
X34443Y18316D01*
X34342Y18215D01*
X34287Y18083D01*
X34287Y17941D01*
X34341Y17809D01*
X34442Y17708D01*
X34574Y17654D01*
X34716Y17653D01*
X34848Y17708D01*
X34949Y17809D01*
X35003Y17940D01*
X35004Y18083D01*
X35004Y16508D01*
X34949Y16640D01*
X34848Y16740D01*
X34717Y16795D01*
X34574Y16795D01*
X34443Y16741D01*
X34342Y16640D01*
X34287Y16508D01*
X34287Y16366D01*
X34341Y16234D01*
X34442Y16133D01*
X34574Y16079D01*
X34716Y16079D01*
X34848Y16133D01*
X34949Y16234D01*
X35003Y16365D01*
X35004Y16508D01*
X35004Y12539D01*
X34976Y12473D01*
X34976Y12331D01*
X35030Y12199D01*
X35131Y12098D01*
X35263Y12043D01*
X35405Y12043D01*
X35537Y12098D01*
X35638Y12198D01*
X35692Y12330D01*
X35693Y12472D01*
X35693Y11874D01*
X35657Y11874D01*
X35531Y11822D01*
X35406Y11874D01*
X35263Y11874D01*
X35132Y11820D01*
X35031Y11719D01*
X34976Y11587D01*
X34976Y11445D01*
X35030Y11313D01*
X35131Y11212D01*
X35263Y11157D01*
X35405Y11157D01*
X35531Y11209D01*
X35656Y11157D01*
X35799Y11157D01*
X35931Y11212D01*
X36031Y11312D01*
X36086Y11444D01*
X36086Y11587D01*
X36086Y7868D01*
X35946Y7868D01*
X35804Y7809D01*
X35694Y7700D01*
X35635Y7558D01*
X35635Y7403D01*
X35694Y7261D01*
X35803Y7151D01*
X35946Y7092D01*
X36100Y7092D01*
X36243Y7151D01*
X36352Y7260D01*
X36411Y7403D01*
X36411Y7557D01*
X36411Y3728D01*
X36396Y3734D01*
X36242Y3735D01*
X36099Y3676D01*
X35990Y3567D01*
X35931Y3424D01*
X35930Y3270D01*
X35989Y3127D01*
X36098Y3018D01*
X36241Y2959D01*
X36395Y2958D01*
X36538Y3017D01*
X36647Y3126D01*
X36706Y3269D01*
X36707Y3423D01*
X36707Y1719D01*
X36593Y1766D01*
X36438Y1766D01*
X36296Y1707D01*
X36187Y1598D01*
X36127Y1455D01*
X36127Y1301D01*
X36186Y1158D01*
X36295Y1049D01*
X36438Y990D01*
X36592Y990D01*
X36735Y1049D01*
X36844Y1158D01*
X36903Y1300D01*
X36903Y1455D01*
X36903Y951D01*
X36298Y345D01*
X36018Y345D01*
X36018Y1159D01*
X35959Y1302D01*
X35850Y1411D01*
X35707Y1470D01*
X35553Y1471D01*
X35496Y1447D01*
X35496Y7945D01*
X35441Y8077D01*
X35341Y8177D01*
X35209Y8232D01*
X35066Y8232D01*
X35033Y8219D01*
X35033Y9919D01*
X34974Y10062D01*
X34865Y10171D01*
X34723Y10230D01*
X34568Y10230D01*
X34426Y10172D01*
X34408Y10153D01*
X34408Y10640D01*
X34324Y10843D01*
X34169Y10997D01*
X33967Y11081D01*
X33749Y11082D01*
X33546Y10998D01*
X33429Y10881D01*
X33429Y12669D01*
X33374Y12801D01*
X33274Y12902D01*
X33142Y12957D01*
X32999Y12957D01*
X32868Y12902D01*
X32767Y12802D01*
X32712Y12670D01*
X32712Y12527D01*
X32767Y12396D01*
X32867Y12295D01*
X32999Y12240D01*
X33141Y12240D01*
X33273Y12294D01*
X33374Y12395D01*
X33429Y12527D01*
X33429Y12669D01*
X33429Y10881D01*
X33392Y10843D01*
X33308Y10641D01*
X33307Y10423D01*
X33391Y10220D01*
X33546Y10066D01*
X33748Y9982D01*
X33966Y9981D01*
X34169Y10065D01*
X34323Y10220D01*
X34407Y10422D01*
X34408Y10640D01*
X34408Y10153D01*
X34317Y10062D01*
X34257Y9920D01*
X34257Y9766D01*
X34316Y9623D01*
X34425Y9514D01*
X34568Y9454D01*
X34722Y9454D01*
X34865Y9513D01*
X34974Y9622D01*
X35033Y9765D01*
X35033Y9919D01*
X35033Y8219D01*
X34935Y8178D01*
X34834Y8077D01*
X34779Y7945D01*
X34779Y7803D01*
X34833Y7671D01*
X34934Y7570D01*
X35066Y7516D01*
X35208Y7516D01*
X35340Y7570D01*
X35441Y7671D01*
X35496Y7802D01*
X35496Y7945D01*
X35496Y1447D01*
X35410Y1412D01*
X35301Y1303D01*
X35242Y1160D01*
X35241Y1006D01*
X35300Y863D01*
X35409Y754D01*
X35552Y695D01*
X35706Y694D01*
X35849Y753D01*
X35958Y862D01*
X36017Y1005D01*
X36018Y1159D01*
X36018Y345D01*
X34019Y345D01*
X34019Y9323D01*
X33965Y9455D01*
X33864Y9555D01*
X33733Y9610D01*
X33590Y9610D01*
X33458Y9556D01*
X33357Y9455D01*
X33303Y9323D01*
X33303Y9181D01*
X33357Y9049D01*
X33458Y8948D01*
X33589Y8894D01*
X33732Y8894D01*
X33864Y8948D01*
X33965Y9049D01*
X34019Y9180D01*
X34019Y9323D01*
X34019Y345D01*
X33724Y345D01*
X33724Y4106D01*
X33724Y5091D01*
X33670Y5222D01*
X33569Y5323D01*
X33437Y5378D01*
X33330Y5378D01*
X33330Y8043D01*
X33276Y8175D01*
X33175Y8276D01*
X33044Y8331D01*
X32901Y8331D01*
X32769Y8276D01*
X32677Y8184D01*
X32585Y8276D01*
X32573Y8281D01*
X32573Y17596D01*
X32514Y17739D01*
X32405Y17848D01*
X32262Y17908D01*
X32108Y17908D01*
X31965Y17849D01*
X31856Y17740D01*
X31797Y17597D01*
X31797Y17443D01*
X31855Y17300D01*
X31965Y17191D01*
X32107Y17132D01*
X32261Y17132D01*
X32404Y17190D01*
X32513Y17300D01*
X32573Y17442D01*
X32573Y17596D01*
X32573Y8281D01*
X32453Y8331D01*
X32311Y8331D01*
X32278Y8317D01*
X32278Y10805D01*
X32277Y10806D01*
X32277Y16809D01*
X32218Y16952D01*
X32109Y17061D01*
X31967Y17120D01*
X31813Y17120D01*
X31670Y17061D01*
X31561Y16952D01*
X31501Y16810D01*
X31501Y16655D01*
X31560Y16513D01*
X31669Y16403D01*
X31812Y16344D01*
X31966Y16344D01*
X32109Y16403D01*
X32218Y16512D01*
X32277Y16655D01*
X32277Y16809D01*
X32277Y10806D01*
X32219Y10948D01*
X32110Y11057D01*
X31967Y11116D01*
X31813Y11117D01*
X31670Y11058D01*
X31561Y10949D01*
X31502Y10806D01*
X31501Y10652D01*
X31560Y10509D01*
X31669Y10400D01*
X31812Y10341D01*
X31966Y10340D01*
X32109Y10399D01*
X32218Y10508D01*
X32277Y10651D01*
X32278Y10805D01*
X32278Y8317D01*
X32179Y8276D01*
X32078Y8176D01*
X32023Y8044D01*
X32023Y7901D01*
X32078Y7770D01*
X32178Y7669D01*
X32310Y7614D01*
X32452Y7614D01*
X32584Y7668D01*
X32677Y7761D01*
X32769Y7669D01*
X32900Y7614D01*
X33043Y7614D01*
X33175Y7668D01*
X33276Y7769D01*
X33330Y7901D01*
X33330Y8043D01*
X33330Y5378D01*
X33295Y5378D01*
X33163Y5323D01*
X33062Y5223D01*
X33008Y5091D01*
X33007Y4949D01*
X33062Y4817D01*
X33163Y4716D01*
X33294Y4661D01*
X33437Y4661D01*
X33568Y4716D01*
X33669Y4816D01*
X33724Y4948D01*
X33724Y5091D01*
X33724Y4106D01*
X33670Y4238D01*
X33569Y4339D01*
X33437Y4394D01*
X33295Y4394D01*
X33163Y4339D01*
X33062Y4239D01*
X33008Y4107D01*
X33007Y3964D01*
X33062Y3833D01*
X33163Y3732D01*
X33294Y3677D01*
X33437Y3677D01*
X33568Y3731D01*
X33669Y3832D01*
X33724Y3964D01*
X33724Y4106D01*
X33724Y345D01*
X31195Y345D01*
X31195Y12380D01*
X31136Y12523D01*
X31027Y12632D01*
X30884Y12691D01*
X30730Y12691D01*
X30587Y12632D01*
X30478Y12523D01*
X30419Y12381D01*
X30419Y12226D01*
X30478Y12084D01*
X30587Y11974D01*
X30729Y11915D01*
X30884Y11915D01*
X31026Y11974D01*
X31135Y12083D01*
X31195Y12226D01*
X31195Y12380D01*
X31195Y345D01*
X30801Y345D01*
X30801Y6474D01*
X30742Y6617D01*
X30633Y6726D01*
X30490Y6785D01*
X30336Y6786D01*
X30193Y6727D01*
X30084Y6618D01*
X30025Y6475D01*
X30024Y6321D01*
X30083Y6178D01*
X30192Y6069D01*
X30335Y6010D01*
X30489Y6009D01*
X30632Y6068D01*
X30741Y6177D01*
X30800Y6320D01*
X30801Y6474D01*
X30801Y345D01*
X29915Y345D01*
X29915Y4998D01*
X29856Y5141D01*
X29747Y5250D01*
X29605Y5309D01*
X29450Y5309D01*
X29423Y5298D01*
X29423Y7360D01*
X29364Y7503D01*
X29255Y7612D01*
X29113Y7671D01*
X28958Y7671D01*
X28816Y7612D01*
X28706Y7503D01*
X28647Y7361D01*
X28647Y7207D01*
X28706Y7064D01*
X28815Y6955D01*
X28957Y6895D01*
X29112Y6895D01*
X29255Y6954D01*
X29364Y7063D01*
X29423Y7206D01*
X29423Y7360D01*
X29423Y5298D01*
X29308Y5250D01*
X29198Y5141D01*
X29139Y4999D01*
X29139Y4844D01*
X29198Y4702D01*
X29307Y4592D01*
X29450Y4533D01*
X29604Y4533D01*
X29747Y4592D01*
X29856Y4701D01*
X29915Y4844D01*
X29915Y4998D01*
X29915Y345D01*
X28015Y345D01*
X28015Y12571D01*
X27961Y12703D01*
X27860Y12803D01*
X27729Y12858D01*
X27586Y12858D01*
X27454Y12804D01*
X27354Y12703D01*
X27299Y12571D01*
X27299Y12429D01*
X27353Y12297D01*
X27454Y12196D01*
X27585Y12142D01*
X27728Y12142D01*
X27860Y12196D01*
X27961Y12297D01*
X28015Y12428D01*
X28015Y12571D01*
X28015Y345D01*
X27258Y345D01*
X27258Y11002D01*
X27199Y11145D01*
X27090Y11254D01*
X26947Y11313D01*
X26793Y11314D01*
X26650Y11255D01*
X26541Y11146D01*
X26482Y11003D01*
X26482Y10938D01*
X26470Y10934D01*
X26369Y10833D01*
X26315Y10701D01*
X26314Y10559D01*
X26369Y10427D01*
X26470Y10326D01*
X26601Y10272D01*
X26744Y10271D01*
X26875Y10326D01*
X26976Y10427D01*
X27031Y10558D01*
X27031Y10572D01*
X27089Y10596D01*
X27198Y10705D01*
X27257Y10848D01*
X27258Y11002D01*
X27258Y345D01*
X26036Y345D01*
X26036Y10620D01*
X25968Y10784D01*
X25842Y10910D01*
X25678Y10978D01*
X25500Y10979D01*
X25336Y10911D01*
X25210Y10785D01*
X25142Y10621D01*
X25141Y10443D01*
X25209Y10279D01*
X25335Y10153D01*
X25499Y10085D01*
X25677Y10084D01*
X25841Y10152D01*
X25967Y10278D01*
X26035Y10442D01*
X26036Y10620D01*
X26036Y345D01*
X25683Y345D01*
X25683Y864D01*
X25624Y1007D01*
X25515Y1116D01*
X25372Y1175D01*
X25218Y1176D01*
X25075Y1117D01*
X24994Y1036D01*
X24994Y4604D01*
X24994Y6081D01*
X24935Y6223D01*
X24856Y6303D01*
X24866Y6326D01*
X24866Y6468D01*
X24834Y6545D01*
X24866Y6621D01*
X24866Y6764D01*
X24811Y6895D01*
X24719Y6988D01*
X24811Y7080D01*
X24866Y7212D01*
X24866Y7354D01*
X24834Y7431D01*
X24866Y7507D01*
X24866Y7650D01*
X24834Y7726D01*
X24866Y7802D01*
X24866Y7945D01*
X24811Y8077D01*
X24767Y8121D01*
X24767Y9520D01*
X24713Y9651D01*
X24699Y9666D01*
X24699Y12183D01*
X24640Y12326D01*
X24531Y12435D01*
X24388Y12494D01*
X24234Y12494D01*
X24091Y12435D01*
X23982Y12326D01*
X23923Y12184D01*
X23923Y12029D01*
X23981Y11887D01*
X24091Y11777D01*
X24233Y11718D01*
X24387Y11718D01*
X24530Y11777D01*
X24639Y11886D01*
X24699Y12029D01*
X24699Y12183D01*
X24699Y9666D01*
X24612Y9752D01*
X24481Y9807D01*
X24338Y9807D01*
X24206Y9752D01*
X24105Y9652D01*
X24051Y9520D01*
X24051Y9400D01*
X24007Y9357D01*
X23952Y9225D01*
X23952Y9082D01*
X24007Y8951D01*
X24107Y8850D01*
X24239Y8795D01*
X24382Y8795D01*
X24513Y8850D01*
X24614Y8950D01*
X24669Y9082D01*
X24669Y9202D01*
X24713Y9245D01*
X24767Y9377D01*
X24767Y9520D01*
X24767Y8121D01*
X24711Y8177D01*
X24579Y8232D01*
X24437Y8232D01*
X24305Y8178D01*
X24204Y8077D01*
X24149Y7945D01*
X24149Y7803D01*
X24181Y7726D01*
X24149Y7650D01*
X24149Y7508D01*
X24181Y7431D01*
X24149Y7355D01*
X24149Y7212D01*
X24204Y7081D01*
X24296Y6988D01*
X24204Y6896D01*
X24149Y6764D01*
X24149Y6622D01*
X24181Y6545D01*
X24149Y6469D01*
X24149Y6327D01*
X24204Y6195D01*
X24247Y6151D01*
X24218Y6081D01*
X24218Y5927D01*
X24277Y5784D01*
X24386Y5675D01*
X24528Y5616D01*
X24683Y5616D01*
X24825Y5675D01*
X24935Y5784D01*
X24994Y5926D01*
X24994Y6081D01*
X24994Y4604D01*
X24935Y4747D01*
X24826Y4856D01*
X24683Y4915D01*
X24529Y4916D01*
X24386Y4857D01*
X24277Y4748D01*
X24218Y4605D01*
X24218Y4451D01*
X24277Y4308D01*
X24386Y4199D01*
X24528Y4140D01*
X24683Y4139D01*
X24825Y4198D01*
X24935Y4307D01*
X24994Y4450D01*
X24994Y4604D01*
X24994Y1036D01*
X24966Y1008D01*
X24907Y865D01*
X24906Y711D01*
X24965Y568D01*
X25074Y459D01*
X25217Y400D01*
X25371Y399D01*
X25514Y458D01*
X25623Y567D01*
X25682Y710D01*
X25683Y864D01*
X25683Y345D01*
X24177Y345D01*
X24180Y348D01*
X24245Y505D01*
X24246Y675D01*
X24181Y832D01*
X24061Y952D01*
X23904Y1017D01*
X23734Y1018D01*
X23577Y953D01*
X23457Y833D01*
X23392Y676D01*
X23391Y506D01*
X23456Y349D01*
X23460Y345D01*
X22995Y345D01*
X22998Y348D01*
X23063Y505D01*
X23064Y675D01*
X22999Y832D01*
X22879Y952D01*
X22722Y1017D01*
X22552Y1018D01*
X22395Y953D01*
X22275Y833D01*
X22210Y676D01*
X22209Y506D01*
X22274Y349D01*
X22278Y345D01*
X21703Y345D01*
X21703Y410D01*
X21746Y513D01*
X21746Y667D01*
X21703Y771D01*
X21703Y2407D01*
X23667Y2407D01*
X23667Y2042D01*
X23627Y1947D01*
X23627Y1793D01*
X23686Y1650D01*
X23795Y1541D01*
X23938Y1482D01*
X24092Y1482D01*
X24235Y1541D01*
X24344Y1650D01*
X24403Y1792D01*
X24403Y1947D01*
X24364Y2043D01*
X24364Y2657D01*
X24337Y2791D01*
X24262Y2904D01*
X24177Y2989D01*
X24177Y3122D01*
X24122Y3254D01*
X24078Y3298D01*
X24078Y6468D01*
X24047Y6545D01*
X24078Y6621D01*
X24078Y6764D01*
X24078Y8634D01*
X24024Y8766D01*
X23923Y8866D01*
X23792Y8921D01*
X23649Y8921D01*
X23517Y8867D01*
X23417Y8766D01*
X23362Y8634D01*
X23362Y8492D01*
X23416Y8360D01*
X23517Y8259D01*
X23648Y8205D01*
X23791Y8205D01*
X23923Y8259D01*
X24024Y8360D01*
X24078Y8491D01*
X24078Y8634D01*
X24078Y6764D01*
X24024Y6895D01*
X23923Y6996D01*
X23792Y7051D01*
X23649Y7051D01*
X23517Y6997D01*
X23417Y6896D01*
X23362Y6764D01*
X23362Y6622D01*
X23393Y6545D01*
X23362Y6469D01*
X23362Y6327D01*
X23416Y6195D01*
X23517Y6094D01*
X23648Y6039D01*
X23791Y6039D01*
X23923Y6094D01*
X24024Y6194D01*
X24078Y6326D01*
X24078Y6468D01*
X24078Y3298D01*
X24022Y3355D01*
X23890Y3409D01*
X23748Y3409D01*
X23621Y3357D01*
X23496Y3409D01*
X23354Y3409D01*
X23222Y3355D01*
X23192Y3325D01*
X23193Y3417D01*
X23161Y3494D01*
X23192Y3570D01*
X23193Y3712D01*
X23138Y3844D01*
X23045Y3937D01*
X23138Y4029D01*
X23192Y4161D01*
X23193Y4303D01*
X23138Y4435D01*
X23037Y4536D01*
X22996Y4553D01*
X22996Y5878D01*
X22941Y6010D01*
X22897Y6054D01*
X22897Y6173D01*
X22843Y6305D01*
X22799Y6349D01*
X22799Y6468D01*
X22744Y6600D01*
X22700Y6644D01*
X22700Y6764D01*
X22646Y6895D01*
X22545Y6996D01*
X22414Y7051D01*
X22271Y7051D01*
X22139Y6997D01*
X22039Y6896D01*
X21984Y6764D01*
X21984Y6622D01*
X22038Y6490D01*
X22082Y6446D01*
X22082Y6327D01*
X22137Y6195D01*
X22181Y6151D01*
X22181Y6031D01*
X22235Y5900D01*
X22279Y5855D01*
X22279Y5736D01*
X22333Y5604D01*
X22434Y5503D01*
X22566Y5449D01*
X22708Y5449D01*
X22840Y5503D01*
X22941Y5604D01*
X22996Y5735D01*
X22996Y5878D01*
X22996Y4553D01*
X22906Y4591D01*
X22763Y4591D01*
X22632Y4536D01*
X22531Y4436D01*
X22476Y4304D01*
X22476Y4162D01*
X22530Y4030D01*
X22623Y3937D01*
X22531Y3845D01*
X22476Y3713D01*
X22476Y3571D01*
X22508Y3494D01*
X22476Y3418D01*
X22476Y3276D01*
X22530Y3144D01*
X22570Y3104D01*
X21721Y3104D01*
X21760Y3143D01*
X21814Y3275D01*
X21815Y3417D01*
X21783Y3495D01*
X21814Y3570D01*
X21814Y3712D01*
X21782Y3788D01*
X21814Y3865D01*
X21815Y4008D01*
X21783Y4085D01*
X21814Y4161D01*
X21815Y4273D01*
X21873Y4297D01*
X21982Y4406D01*
X22041Y4548D01*
X22041Y4703D01*
X21982Y4845D01*
X21873Y4955D01*
X21731Y5014D01*
X21703Y5014D01*
X21703Y9793D01*
X21801Y9891D01*
X21877Y10004D01*
X21877Y10004D01*
X21903Y10138D01*
X21903Y10665D01*
X21921Y10665D01*
X22053Y10720D01*
X22154Y10820D01*
X22208Y10952D01*
X22208Y11094D01*
X22154Y11226D01*
X22055Y11326D01*
X22195Y11466D01*
X22270Y11579D01*
X22270Y11579D01*
X22297Y11713D01*
X22297Y11713D01*
X22297Y11713D01*
X22297Y12159D01*
X22771Y12633D01*
X22771Y12527D01*
X22823Y12402D01*
X22771Y12277D01*
X22771Y12134D01*
X22825Y12002D01*
X22926Y11902D01*
X23057Y11847D01*
X23200Y11847D01*
X23332Y11901D01*
X23433Y12002D01*
X23487Y12133D01*
X23487Y12276D01*
X23436Y12401D01*
X23488Y12527D01*
X23488Y12634D01*
X23594Y12634D01*
X23726Y12688D01*
X23827Y12789D01*
X23881Y12920D01*
X23882Y13063D01*
X23827Y13195D01*
X23726Y13296D01*
X23637Y13333D01*
X24265Y13333D01*
X24458Y13139D01*
X24571Y13064D01*
X24571Y13064D01*
X24704Y13037D01*
X25122Y13037D01*
X25217Y12998D01*
X25372Y12998D01*
X25467Y13037D01*
X25713Y13037D01*
X25808Y12998D01*
X25962Y12998D01*
X26105Y13057D01*
X26214Y13166D01*
X26273Y13308D01*
X26273Y13463D01*
X26240Y13543D01*
X26620Y13923D01*
X27003Y13923D01*
X27003Y13905D01*
X27058Y13774D01*
X27159Y13673D01*
X27290Y13618D01*
X27433Y13618D01*
X27564Y13672D01*
X27665Y13773D01*
X27720Y13905D01*
X27720Y13923D01*
X28826Y13923D01*
X28805Y13902D01*
X28746Y13759D01*
X28745Y13605D01*
X28804Y13462D01*
X28831Y13435D01*
X28805Y13409D01*
X28746Y13266D01*
X28745Y13112D01*
X28804Y12969D01*
X28913Y12860D01*
X29056Y12801D01*
X29210Y12800D01*
X29353Y12859D01*
X29462Y12968D01*
X29521Y13111D01*
X29522Y13265D01*
X29463Y13408D01*
X29436Y13435D01*
X29462Y13461D01*
X29521Y13604D01*
X29522Y13758D01*
X29463Y13901D01*
X29441Y13923D01*
X29875Y13923D01*
X30241Y13557D01*
X30281Y13462D01*
X30390Y13352D01*
X30532Y13293D01*
X30687Y13293D01*
X30829Y13352D01*
X30939Y13461D01*
X30998Y13603D01*
X30998Y13758D01*
X30939Y13901D01*
X30830Y14010D01*
X30734Y14049D01*
X30604Y14179D01*
X30604Y16612D01*
X30545Y16755D01*
X30436Y16864D01*
X30294Y16923D01*
X30210Y16923D01*
X30210Y17400D01*
X30152Y17542D01*
X30042Y17651D01*
X29900Y17711D01*
X29746Y17711D01*
X29603Y17652D01*
X29494Y17543D01*
X29434Y17400D01*
X29434Y17246D01*
X29493Y17103D01*
X29602Y16994D01*
X29745Y16935D01*
X29899Y16935D01*
X30042Y16994D01*
X30151Y17103D01*
X30210Y17245D01*
X30210Y17400D01*
X30210Y16923D01*
X30139Y16923D01*
X29997Y16864D01*
X29887Y16755D01*
X29828Y16613D01*
X29828Y16458D01*
X29887Y16316D01*
X29920Y16283D01*
X29898Y16274D01*
X29789Y16165D01*
X29730Y16022D01*
X29730Y15868D01*
X29789Y15725D01*
X29898Y15616D01*
X30040Y15557D01*
X30195Y15557D01*
X30337Y15616D01*
X30446Y15725D01*
X30506Y15867D01*
X30506Y16022D01*
X30447Y16164D01*
X30414Y16197D01*
X30436Y16206D01*
X30545Y16315D01*
X30604Y16458D01*
X30604Y16612D01*
X30604Y14179D01*
X30266Y14518D01*
X30153Y14594D01*
X30019Y14620D01*
X28833Y14620D01*
X28833Y15923D01*
X28774Y16066D01*
X28665Y16175D01*
X28522Y16234D01*
X28368Y16234D01*
X28257Y16189D01*
X28242Y16204D01*
X28242Y17104D01*
X28183Y17247D01*
X28074Y17356D01*
X27931Y17415D01*
X27777Y17416D01*
X27634Y17357D01*
X27525Y17248D01*
X27466Y17105D01*
X27466Y16951D01*
X27525Y16808D01*
X27634Y16699D01*
X27776Y16640D01*
X27931Y16639D01*
X28073Y16698D01*
X28183Y16807D01*
X28242Y16950D01*
X28242Y17104D01*
X28242Y16204D01*
X28172Y16274D01*
X28030Y16333D01*
X27875Y16333D01*
X27733Y16274D01*
X27624Y16165D01*
X27564Y16022D01*
X27564Y15868D01*
X27623Y15725D01*
X27732Y15616D01*
X27875Y15557D01*
X28029Y15557D01*
X28140Y15602D01*
X28224Y15518D01*
X28367Y15458D01*
X28521Y15458D01*
X28664Y15517D01*
X28773Y15626D01*
X28832Y15769D01*
X28833Y15923D01*
X28833Y14620D01*
X28537Y14620D01*
X28537Y14742D01*
X28478Y14885D01*
X28369Y14994D01*
X28227Y15053D01*
X28072Y15053D01*
X27930Y14994D01*
X27820Y14885D01*
X27761Y14743D01*
X27761Y14620D01*
X26864Y14620D01*
X26864Y17695D01*
X26805Y17838D01*
X26696Y17947D01*
X26553Y18006D01*
X26399Y18006D01*
X26256Y17947D01*
X26147Y17838D01*
X26088Y17696D01*
X26088Y17541D01*
X26147Y17399D01*
X26256Y17289D01*
X26398Y17230D01*
X26553Y17230D01*
X26695Y17289D01*
X26805Y17398D01*
X26864Y17540D01*
X26864Y17695D01*
X26864Y14620D01*
X26586Y14620D01*
X26608Y14642D01*
X26667Y14785D01*
X26667Y14939D01*
X26608Y15082D01*
X26499Y15191D01*
X26357Y15250D01*
X26202Y15250D01*
X26077Y15198D01*
X26077Y16022D01*
X26018Y16164D01*
X25978Y16204D01*
X25978Y17104D01*
X25919Y17247D01*
X25810Y17356D01*
X25668Y17415D01*
X25513Y17416D01*
X25371Y17357D01*
X25261Y17248D01*
X25202Y17105D01*
X25202Y16951D01*
X25261Y16808D01*
X25370Y16699D01*
X25513Y16640D01*
X25667Y16639D01*
X25810Y16698D01*
X25919Y16807D01*
X25978Y16950D01*
X25978Y17104D01*
X25978Y16204D01*
X25909Y16274D01*
X25766Y16333D01*
X25612Y16333D01*
X25469Y16274D01*
X25360Y16165D01*
X25301Y16022D01*
X25300Y15868D01*
X25359Y15725D01*
X25468Y15616D01*
X25611Y15557D01*
X25765Y15557D01*
X25908Y15616D01*
X26017Y15725D01*
X26076Y15867D01*
X26077Y16022D01*
X26077Y15198D01*
X26060Y15191D01*
X25950Y15082D01*
X25897Y14955D01*
X25809Y14955D01*
X25666Y14896D01*
X25557Y14787D01*
X25497Y14644D01*
X25497Y14490D01*
X25537Y14394D01*
X25537Y13734D01*
X25467Y13734D01*
X25372Y13774D01*
X25218Y13774D01*
X25122Y13734D01*
X24849Y13734D01*
X24655Y13927D01*
X24542Y14003D01*
X24409Y14030D01*
X24403Y14030D01*
X24403Y14939D01*
X24344Y15082D01*
X24235Y15191D01*
X24177Y15215D01*
X24177Y17394D01*
X24122Y17525D01*
X24022Y17626D01*
X23890Y17681D01*
X23748Y17681D01*
X23616Y17627D01*
X23515Y17526D01*
X23460Y17394D01*
X23460Y17386D01*
X23452Y17386D01*
X23419Y17372D01*
X23419Y18187D01*
X23360Y18330D01*
X23251Y18439D01*
X23109Y18498D01*
X22954Y18498D01*
X22812Y18439D01*
X22702Y18330D01*
X22643Y18188D01*
X22643Y18033D01*
X22702Y17891D01*
X22811Y17781D01*
X22954Y17722D01*
X23108Y17722D01*
X23251Y17781D01*
X23360Y17890D01*
X23419Y18033D01*
X23419Y18187D01*
X23419Y17372D01*
X23321Y17331D01*
X23220Y17231D01*
X23165Y17099D01*
X23165Y16957D01*
X23219Y16825D01*
X23320Y16724D01*
X23452Y16669D01*
X23594Y16669D01*
X23726Y16724D01*
X23827Y16824D01*
X23881Y16956D01*
X23881Y16964D01*
X23889Y16964D01*
X24021Y17019D01*
X24122Y17120D01*
X24177Y17251D01*
X24177Y17394D01*
X24177Y15215D01*
X24093Y15250D01*
X23938Y15250D01*
X23818Y15201D01*
X23699Y15250D01*
X23676Y15250D01*
X23630Y15360D01*
X23530Y15461D01*
X23398Y15516D01*
X23255Y15516D01*
X23124Y15461D01*
X23023Y15361D01*
X22968Y15229D01*
X22968Y15086D01*
X23022Y14955D01*
X23115Y14862D01*
X23023Y14770D01*
X22968Y14638D01*
X22968Y14496D01*
X23022Y14364D01*
X23123Y14263D01*
X23255Y14209D01*
X23397Y14209D01*
X23529Y14263D01*
X23630Y14364D01*
X23676Y14474D01*
X23698Y14474D01*
X23819Y14524D01*
X23938Y14474D01*
X24092Y14474D01*
X24235Y14533D01*
X24344Y14642D01*
X24403Y14785D01*
X24403Y14939D01*
X24403Y14030D01*
X23326Y14030D01*
X23193Y14003D01*
X23080Y13927D01*
X22799Y13646D01*
X22799Y14835D01*
X22744Y14966D01*
X22644Y15067D01*
X22512Y15122D01*
X22370Y15122D01*
X22238Y15068D01*
X22137Y14967D01*
X22082Y14835D01*
X22082Y14693D01*
X22137Y14561D01*
X22237Y14460D01*
X22369Y14405D01*
X22511Y14405D01*
X22643Y14460D01*
X22744Y14560D01*
X22799Y14692D01*
X22799Y14835D01*
X22799Y13646D01*
X21913Y12760D01*
X21913Y15425D01*
X21858Y15557D01*
X21758Y15658D01*
X21626Y15713D01*
X21484Y15713D01*
X21352Y15658D01*
X21254Y15561D01*
X21254Y18285D01*
X21195Y18428D01*
X21086Y18537D01*
X20943Y18596D01*
X20789Y18597D01*
X20646Y18538D01*
X20537Y18429D01*
X20478Y18286D01*
X20478Y18132D01*
X20537Y17989D01*
X20646Y17880D01*
X20788Y17821D01*
X20943Y17820D01*
X21085Y17879D01*
X21194Y17988D01*
X21254Y18131D01*
X21254Y18285D01*
X21254Y15561D01*
X21251Y15558D01*
X21196Y15426D01*
X21196Y15284D01*
X21251Y15152D01*
X21351Y15051D01*
X21483Y14996D01*
X21625Y14996D01*
X21757Y15051D01*
X21858Y15151D01*
X21913Y15283D01*
X21913Y15425D01*
X21913Y12760D01*
X21702Y12549D01*
X21648Y12468D01*
X21648Y13758D01*
X21589Y13901D01*
X21480Y14010D01*
X21337Y14069D01*
X21183Y14070D01*
X21040Y14011D01*
X20931Y13902D01*
X20872Y13759D01*
X20871Y13605D01*
X20930Y13462D01*
X21039Y13353D01*
X21182Y13294D01*
X21336Y13293D01*
X21479Y13352D01*
X21588Y13461D01*
X21647Y13604D01*
X21648Y13758D01*
X21648Y12468D01*
X21641Y12458D01*
X21626Y12464D01*
X21484Y12465D01*
X21352Y12410D01*
X21251Y12309D01*
X21196Y12178D01*
X21196Y12035D01*
X21251Y11904D01*
X21351Y11803D01*
X21483Y11748D01*
X21491Y11748D01*
X21308Y11565D01*
X21233Y11452D01*
X21206Y11319D01*
X21206Y10624D01*
X21084Y10624D01*
X20981Y10581D01*
X20466Y10581D01*
X20466Y18778D01*
X20407Y18920D01*
X20298Y19029D01*
X20156Y19089D01*
X20001Y19089D01*
X19859Y19030D01*
X19750Y18921D01*
X19690Y18778D01*
X19690Y18624D01*
X19749Y18481D01*
X19858Y18372D01*
X20001Y18313D01*
X20155Y18313D01*
X20298Y18372D01*
X20407Y18481D01*
X20466Y18623D01*
X20466Y18778D01*
X20466Y10581D01*
X20437Y10581D01*
X20437Y16311D01*
X20383Y16443D01*
X20282Y16544D01*
X20150Y16599D01*
X20008Y16599D01*
X19876Y16544D01*
X19775Y16444D01*
X19758Y16402D01*
X19713Y16402D01*
X19581Y16347D01*
X19480Y16247D01*
X19463Y16205D01*
X19417Y16205D01*
X19285Y16150D01*
X19184Y16050D01*
X19129Y15918D01*
X19129Y15872D01*
X19088Y15855D01*
X18987Y15755D01*
X18933Y15623D01*
X18933Y15481D01*
X18987Y15349D01*
X19088Y15248D01*
X19219Y15193D01*
X19362Y15193D01*
X19494Y15248D01*
X19594Y15348D01*
X19649Y15480D01*
X19649Y15526D01*
X19690Y15543D01*
X19791Y15643D01*
X19808Y15685D01*
X19854Y15685D01*
X19986Y15740D01*
X20087Y15840D01*
X20104Y15882D01*
X20150Y15882D01*
X20281Y15936D01*
X20382Y16037D01*
X20437Y16169D01*
X20437Y16311D01*
X20437Y10581D01*
X19846Y10581D01*
X19846Y14244D01*
X19792Y14376D01*
X19691Y14477D01*
X19559Y14531D01*
X19551Y14531D01*
X19551Y14539D01*
X19496Y14671D01*
X19396Y14772D01*
X19264Y14827D01*
X19122Y14827D01*
X18990Y14772D01*
X18889Y14672D01*
X18834Y14540D01*
X18834Y14397D01*
X18889Y14266D01*
X18989Y14165D01*
X19121Y14110D01*
X19129Y14110D01*
X19129Y14102D01*
X19184Y13970D01*
X19285Y13870D01*
X19416Y13815D01*
X19559Y13815D01*
X19690Y13869D01*
X19791Y13970D01*
X19846Y14102D01*
X19846Y14244D01*
X19846Y10581D01*
X18960Y10581D01*
X18960Y11685D01*
X18906Y11817D01*
X18805Y11918D01*
X18674Y11972D01*
X18531Y11972D01*
X18399Y11918D01*
X18298Y11817D01*
X18244Y11686D01*
X18244Y11543D01*
X18298Y11411D01*
X18399Y11311D01*
X18530Y11256D01*
X18673Y11256D01*
X18805Y11310D01*
X18905Y11411D01*
X18960Y11542D01*
X18960Y11685D01*
X18960Y10581D01*
X17878Y10581D01*
X17878Y13654D01*
X17823Y13785D01*
X17722Y13886D01*
X17591Y13941D01*
X17582Y13941D01*
X17582Y13949D01*
X17528Y14081D01*
X17427Y14181D01*
X17296Y14236D01*
X17153Y14236D01*
X17021Y14182D01*
X16920Y14081D01*
X16866Y13949D01*
X16866Y13807D01*
X16920Y13675D01*
X17021Y13574D01*
X17152Y13520D01*
X17161Y13520D01*
X17161Y13512D01*
X17215Y13380D01*
X17316Y13279D01*
X17448Y13224D01*
X17590Y13224D01*
X17722Y13279D01*
X17823Y13379D01*
X17877Y13511D01*
X17878Y13654D01*
X17878Y10581D01*
X16740Y10581D01*
X16836Y10621D01*
X16880Y10665D01*
X17000Y10665D01*
X17076Y10697D01*
X17152Y10665D01*
X17295Y10665D01*
X17427Y10720D01*
X17528Y10820D01*
X17582Y10952D01*
X17582Y11094D01*
X17528Y11226D01*
X17427Y11327D01*
X17296Y11382D01*
X17218Y11382D01*
X17218Y13069D01*
X17159Y13212D01*
X17050Y13321D01*
X16908Y13380D01*
X16753Y13380D01*
X16726Y13369D01*
X16726Y18778D01*
X16667Y18920D01*
X16558Y19029D01*
X16416Y19089D01*
X16261Y19089D01*
X16119Y19030D01*
X16043Y18954D01*
X15968Y19029D01*
X15825Y19089D01*
X15671Y19089D01*
X15528Y19030D01*
X15452Y18954D01*
X15377Y19029D01*
X15235Y19089D01*
X15080Y19089D01*
X14938Y19030D01*
X14862Y18954D01*
X14787Y19029D01*
X14644Y19089D01*
X14490Y19089D01*
X14347Y19030D01*
X14271Y18954D01*
X14196Y19029D01*
X14053Y19089D01*
X13899Y19089D01*
X13756Y19030D01*
X13647Y18921D01*
X13588Y18778D01*
X13588Y18624D01*
X13647Y18481D01*
X13756Y18372D01*
X13898Y18313D01*
X14053Y18313D01*
X14195Y18372D01*
X14271Y18447D01*
X14346Y18372D01*
X14489Y18313D01*
X14643Y18313D01*
X14786Y18372D01*
X14862Y18447D01*
X14937Y18372D01*
X15080Y18313D01*
X15234Y18313D01*
X15377Y18372D01*
X15452Y18447D01*
X15528Y18372D01*
X15670Y18313D01*
X15824Y18313D01*
X15967Y18372D01*
X16043Y18447D01*
X16118Y18372D01*
X16261Y18313D01*
X16415Y18313D01*
X16558Y18372D01*
X16667Y18481D01*
X16726Y18623D01*
X16726Y18778D01*
X16726Y13369D01*
X16611Y13321D01*
X16502Y13212D01*
X16442Y13070D01*
X16442Y12915D01*
X16501Y12773D01*
X16610Y12663D01*
X16753Y12604D01*
X16907Y12604D01*
X17050Y12663D01*
X17159Y12772D01*
X17218Y12915D01*
X17218Y13069D01*
X17218Y11382D01*
X17153Y11382D01*
X17076Y11350D01*
X17000Y11382D01*
X16858Y11382D01*
X16726Y11327D01*
X16682Y11283D01*
X16562Y11283D01*
X16431Y11229D01*
X16330Y11128D01*
X16313Y11087D01*
X16267Y11087D01*
X16144Y11036D01*
X16049Y11130D01*
X15918Y11185D01*
X15775Y11185D01*
X15643Y11131D01*
X15542Y11030D01*
X15488Y10898D01*
X15488Y10778D01*
X15444Y10735D01*
X15389Y10603D01*
X15389Y10581D01*
X14728Y10581D01*
X14728Y11291D01*
X14674Y11423D01*
X14659Y11437D01*
X14659Y12970D01*
X14600Y13113D01*
X14491Y13222D01*
X14415Y13254D01*
X14474Y13279D01*
X14575Y13379D01*
X14629Y13511D01*
X14630Y13654D01*
X14598Y13730D01*
X14629Y13806D01*
X14630Y13949D01*
X14598Y14026D01*
X14629Y14102D01*
X14630Y14244D01*
X14598Y14321D01*
X14629Y14397D01*
X14630Y14539D01*
X14598Y14616D01*
X14629Y14692D01*
X14630Y14835D01*
X14598Y14911D01*
X14629Y14987D01*
X14630Y15130D01*
X14598Y15207D01*
X14629Y15283D01*
X14630Y15425D01*
X14575Y15557D01*
X14474Y15658D01*
X14343Y15712D01*
X14200Y15713D01*
X14069Y15658D01*
X13968Y15557D01*
X13913Y15426D01*
X13913Y15283D01*
X13945Y15207D01*
X13913Y15131D01*
X13913Y14988D01*
X13945Y14911D01*
X13913Y14835D01*
X13913Y14693D01*
X13945Y14616D01*
X13913Y14540D01*
X13913Y14397D01*
X13945Y14321D01*
X13913Y14245D01*
X13913Y14102D01*
X13945Y14025D01*
X13913Y13949D01*
X13913Y13807D01*
X13945Y13730D01*
X13913Y13654D01*
X13913Y13512D01*
X13967Y13380D01*
X14068Y13279D01*
X14128Y13254D01*
X14052Y13223D01*
X13942Y13114D01*
X13883Y12971D01*
X13883Y12817D01*
X13942Y12674D01*
X14051Y12565D01*
X14194Y12506D01*
X14348Y12506D01*
X14491Y12564D01*
X14600Y12674D01*
X14659Y12816D01*
X14659Y12970D01*
X14659Y11437D01*
X14573Y11524D01*
X14441Y11579D01*
X14299Y11579D01*
X14167Y11524D01*
X14066Y11424D01*
X14011Y11292D01*
X14011Y11149D01*
X14066Y11018D01*
X14166Y10917D01*
X14298Y10862D01*
X14441Y10862D01*
X14572Y10916D01*
X14673Y11017D01*
X14728Y11149D01*
X14728Y11291D01*
X14728Y10581D01*
X13980Y10581D01*
X13949Y10594D01*
X13807Y10594D01*
X13775Y10581D01*
X13350Y10581D01*
X13350Y16114D01*
X13295Y16246D01*
X13195Y16347D01*
X13063Y16402D01*
X13018Y16402D01*
X13000Y16443D01*
X12900Y16544D01*
X12768Y16599D01*
X12737Y16599D01*
X12801Y16625D01*
X12902Y16726D01*
X12956Y16857D01*
X12956Y17000D01*
X12902Y17132D01*
X12801Y17233D01*
X12670Y17287D01*
X12527Y17287D01*
X12494Y17274D01*
X12494Y17695D01*
X12435Y17838D01*
X12326Y17947D01*
X12183Y18006D01*
X12029Y18006D01*
X11886Y17947D01*
X11777Y17838D01*
X11718Y17696D01*
X11718Y17541D01*
X11777Y17399D01*
X11886Y17289D01*
X12028Y17230D01*
X12183Y17230D01*
X12325Y17289D01*
X12435Y17398D01*
X12494Y17540D01*
X12494Y17695D01*
X12494Y17274D01*
X12395Y17233D01*
X12294Y17132D01*
X12240Y17001D01*
X12240Y16858D01*
X12294Y16726D01*
X12395Y16625D01*
X12526Y16571D01*
X12558Y16571D01*
X12494Y16544D01*
X12393Y16444D01*
X12375Y16401D01*
X12374Y16401D01*
X12232Y16402D01*
X12199Y16388D01*
X12199Y16711D01*
X12140Y16853D01*
X12031Y16962D01*
X11888Y17022D01*
X11734Y17022D01*
X11609Y16970D01*
X11609Y17596D01*
X11550Y17739D01*
X11441Y17848D01*
X11298Y17907D01*
X11144Y17908D01*
X11001Y17849D01*
X10892Y17740D01*
X10833Y17597D01*
X10832Y17443D01*
X10890Y17303D01*
X10818Y17231D01*
X10763Y17099D01*
X10763Y16957D01*
X10818Y16825D01*
X10918Y16724D01*
X11050Y16670D01*
X11193Y16669D01*
X11324Y16724D01*
X11425Y16825D01*
X11480Y16956D01*
X11480Y17099D01*
X11441Y17192D01*
X11549Y17299D01*
X11608Y17442D01*
X11609Y17596D01*
X11609Y16970D01*
X11591Y16963D01*
X11482Y16854D01*
X11423Y16711D01*
X11423Y16557D01*
X11481Y16414D01*
X11591Y16305D01*
X11733Y16246D01*
X11887Y16246D01*
X12030Y16305D01*
X12139Y16414D01*
X12199Y16556D01*
X12199Y16711D01*
X12199Y16388D01*
X12100Y16347D01*
X11999Y16246D01*
X11945Y16115D01*
X11944Y15995D01*
X11901Y15951D01*
X11846Y15820D01*
X11846Y15677D01*
X11900Y15545D01*
X12001Y15444D01*
X12133Y15390D01*
X12275Y15390D01*
X12407Y15444D01*
X12508Y15545D01*
X12563Y15676D01*
X12563Y15796D01*
X12606Y15840D01*
X12624Y15883D01*
X12625Y15882D01*
X12670Y15882D01*
X12688Y15841D01*
X12788Y15740D01*
X12920Y15685D01*
X13062Y15685D01*
X13194Y15740D01*
X13295Y15840D01*
X13350Y15972D01*
X13350Y16114D01*
X13350Y10581D01*
X13055Y10581D01*
X13055Y12768D01*
X13000Y12899D01*
X12900Y13000D01*
X12768Y13055D01*
X12625Y13055D01*
X12494Y13001D01*
X12393Y12900D01*
X12338Y12768D01*
X12338Y12626D01*
X12393Y12494D01*
X12493Y12393D01*
X12625Y12339D01*
X12767Y12338D01*
X12899Y12393D01*
X13000Y12494D01*
X13055Y12625D01*
X13055Y12768D01*
X13055Y10581D01*
X11972Y10581D01*
X11972Y11685D01*
X11918Y11817D01*
X11817Y11918D01*
X11775Y11935D01*
X11775Y11936D01*
X11775Y12079D01*
X11721Y12210D01*
X11620Y12311D01*
X11488Y12366D01*
X11346Y12366D01*
X11214Y12312D01*
X11113Y12211D01*
X11059Y12079D01*
X11059Y11937D01*
X11113Y11805D01*
X11214Y11704D01*
X11256Y11687D01*
X11256Y11686D01*
X11255Y11543D01*
X11310Y11411D01*
X11411Y11311D01*
X11542Y11256D01*
X11685Y11256D01*
X11816Y11310D01*
X11917Y11411D01*
X11972Y11542D01*
X11972Y11685D01*
X11972Y10581D01*
X11859Y10581D01*
X11859Y6500D01*
X11846Y6469D01*
X11846Y6327D01*
X11859Y6295D01*
X11859Y5408D01*
X11832Y5408D01*
X11715Y5359D01*
X11746Y5390D01*
X11805Y5533D01*
X11805Y5687D01*
X11775Y5759D01*
X11775Y6468D01*
X11721Y6600D01*
X11620Y6701D01*
X11488Y6756D01*
X11346Y6756D01*
X11344Y6755D01*
X11327Y6797D01*
X11226Y6898D01*
X11168Y6922D01*
X11228Y6982D01*
X11283Y7113D01*
X11283Y7256D01*
X11239Y7363D01*
X11345Y7319D01*
X11488Y7319D01*
X11620Y7373D01*
X11720Y7474D01*
X11775Y7605D01*
X11775Y7748D01*
X11775Y9717D01*
X11721Y9848D01*
X11620Y9949D01*
X11488Y10004D01*
X11356Y10004D01*
X11381Y10066D01*
X11382Y10209D01*
X11327Y10340D01*
X11283Y10385D01*
X11283Y10504D01*
X11229Y10636D01*
X11185Y10680D01*
X11185Y10799D01*
X11130Y10931D01*
X11030Y11032D01*
X10898Y11086D01*
X10767Y11087D01*
X10832Y11113D01*
X10933Y11214D01*
X10988Y11346D01*
X10988Y11488D01*
X10988Y12768D01*
X10933Y12899D01*
X10919Y12914D01*
X10919Y14841D01*
X10860Y14983D01*
X10751Y15092D01*
X10609Y15152D01*
X10454Y15152D01*
X10312Y15093D01*
X10202Y14984D01*
X10143Y14841D01*
X10143Y14687D01*
X10202Y14544D01*
X10311Y14435D01*
X10454Y14376D01*
X10608Y14376D01*
X10751Y14435D01*
X10860Y14544D01*
X10919Y14686D01*
X10919Y14841D01*
X10919Y12914D01*
X10833Y13000D01*
X10701Y13055D01*
X10559Y13055D01*
X10427Y13001D01*
X10326Y12900D01*
X10271Y12768D01*
X10271Y12626D01*
X10326Y12494D01*
X10426Y12393D01*
X10558Y12339D01*
X10700Y12338D01*
X10832Y12393D01*
X10933Y12494D01*
X10988Y12625D01*
X10988Y12768D01*
X10988Y11488D01*
X10933Y11620D01*
X10833Y11721D01*
X10701Y11775D01*
X10559Y11776D01*
X10427Y11721D01*
X10326Y11620D01*
X10271Y11489D01*
X10271Y11346D01*
X10297Y11283D01*
X10165Y11283D01*
X10132Y11270D01*
X10132Y15332D01*
X10132Y16827D01*
X10073Y16970D01*
X9964Y17079D01*
X9821Y17138D01*
X9667Y17139D01*
X9524Y17080D01*
X9415Y16971D01*
X9356Y16828D01*
X9355Y16674D01*
X9414Y16531D01*
X9523Y16422D01*
X9666Y16363D01*
X9820Y16362D01*
X9963Y16421D01*
X10072Y16530D01*
X10131Y16673D01*
X10132Y16827D01*
X10132Y15332D01*
X10073Y15475D01*
X9964Y15584D01*
X9821Y15643D01*
X9667Y15644D01*
X9524Y15585D01*
X9415Y15476D01*
X9356Y15333D01*
X9355Y15179D01*
X9414Y15036D01*
X9523Y14927D01*
X9666Y14868D01*
X9820Y14867D01*
X9963Y14926D01*
X10072Y15035D01*
X10131Y15178D01*
X10132Y15332D01*
X10132Y11270D01*
X10033Y11229D01*
X9935Y11131D01*
X9935Y11592D01*
X9876Y11735D01*
X9767Y11844D01*
X9624Y11904D01*
X9470Y11904D01*
X9345Y11852D01*
X9345Y14939D01*
X9286Y15082D01*
X9177Y15191D01*
X9034Y15250D01*
X8880Y15251D01*
X8737Y15192D01*
X8628Y15083D01*
X8569Y14940D01*
X8568Y14786D01*
X8627Y14643D01*
X8736Y14534D01*
X8879Y14475D01*
X9033Y14474D01*
X9176Y14533D01*
X9285Y14642D01*
X9344Y14785D01*
X9345Y14939D01*
X9345Y11852D01*
X9327Y11845D01*
X9218Y11736D01*
X9159Y11593D01*
X9159Y11439D01*
X9218Y11296D01*
X9327Y11187D01*
X9469Y11128D01*
X9624Y11128D01*
X9766Y11187D01*
X9876Y11296D01*
X9935Y11438D01*
X9935Y11592D01*
X9935Y11131D01*
X9932Y11128D01*
X9878Y10997D01*
X9877Y10854D01*
X9932Y10722D01*
X10033Y10622D01*
X10164Y10567D01*
X10307Y10567D01*
X10438Y10621D01*
X10470Y10653D01*
X10522Y10526D01*
X10567Y10481D01*
X10566Y10362D01*
X10621Y10230D01*
X10665Y10186D01*
X10665Y10067D01*
X10719Y9935D01*
X10820Y9834D01*
X10952Y9779D01*
X11085Y9779D01*
X11059Y9717D01*
X11059Y9575D01*
X11113Y9443D01*
X11214Y9342D01*
X11345Y9287D01*
X11488Y9287D01*
X11620Y9342D01*
X11720Y9442D01*
X11775Y9574D01*
X11775Y9717D01*
X11775Y7748D01*
X11721Y7880D01*
X11677Y7924D01*
X11677Y8831D01*
X11622Y8962D01*
X11522Y9063D01*
X11390Y9118D01*
X11248Y9118D01*
X11116Y9064D01*
X11015Y8963D01*
X10960Y8831D01*
X10960Y8689D01*
X11015Y8557D01*
X11115Y8456D01*
X11247Y8402D01*
X11389Y8401D01*
X11521Y8456D01*
X11622Y8557D01*
X11677Y8688D01*
X11677Y8831D01*
X11677Y7924D01*
X11620Y7981D01*
X11488Y8035D01*
X11346Y8035D01*
X11214Y7981D01*
X11113Y7880D01*
X11059Y7749D01*
X11059Y7606D01*
X11103Y7499D01*
X10996Y7543D01*
X10854Y7543D01*
X10791Y7517D01*
X10791Y7945D01*
X10737Y8077D01*
X10636Y8177D01*
X10504Y8232D01*
X10362Y8232D01*
X10230Y8178D01*
X10129Y8077D01*
X10074Y7945D01*
X10074Y7803D01*
X10129Y7671D01*
X10229Y7570D01*
X10361Y7516D01*
X10504Y7516D01*
X10635Y7570D01*
X10736Y7671D01*
X10791Y7802D01*
X10791Y7945D01*
X10791Y7517D01*
X10722Y7489D01*
X10621Y7388D01*
X10567Y7257D01*
X10566Y7114D01*
X10621Y6982D01*
X10722Y6881D01*
X10779Y6857D01*
X10720Y6798D01*
X10665Y6666D01*
X10665Y6523D01*
X10719Y6392D01*
X10820Y6291D01*
X10952Y6236D01*
X11094Y6236D01*
X11096Y6237D01*
X11113Y6195D01*
X11214Y6094D01*
X11345Y6039D01*
X11488Y6039D01*
X11620Y6094D01*
X11720Y6194D01*
X11775Y6326D01*
X11775Y6468D01*
X11775Y5759D01*
X11746Y5830D01*
X11637Y5939D01*
X11494Y5998D01*
X11340Y5998D01*
X11197Y5939D01*
X11088Y5830D01*
X11029Y5688D01*
X11029Y5533D01*
X11088Y5391D01*
X11197Y5281D01*
X11339Y5222D01*
X11494Y5222D01*
X11611Y5271D01*
X11580Y5240D01*
X11521Y5097D01*
X11521Y4943D01*
X11580Y4800D01*
X11689Y4691D01*
X11832Y4632D01*
X11859Y4632D01*
X11859Y1333D01*
X10722Y1333D01*
X10722Y1349D01*
X10871Y1410D01*
X10991Y1530D01*
X11056Y1687D01*
X11057Y1857D01*
X10992Y2014D01*
X10872Y2134D01*
X10715Y2199D01*
X10545Y2200D01*
X10496Y2179D01*
X10496Y3713D01*
X10441Y3844D01*
X10341Y3945D01*
X10209Y4000D01*
X10066Y4000D01*
X9935Y3946D01*
X9834Y3845D01*
X9779Y3713D01*
X9779Y3571D01*
X9833Y3439D01*
X9934Y3338D01*
X10066Y3283D01*
X10208Y3283D01*
X10340Y3338D01*
X10441Y3438D01*
X10496Y3570D01*
X10496Y3713D01*
X10496Y2179D01*
X10388Y2135D01*
X10268Y2015D01*
X10203Y1858D01*
X10202Y1743D01*
X10115Y1707D01*
X10005Y1598D01*
X9946Y1455D01*
X9946Y1301D01*
X10005Y1158D01*
X10060Y1104D01*
X9698Y742D01*
X9344Y742D01*
X9344Y7655D01*
X9285Y7798D01*
X9176Y7907D01*
X9034Y7967D01*
X8879Y7967D01*
X8737Y7908D01*
X8628Y7799D01*
X8575Y7671D01*
X8486Y7671D01*
X8360Y7620D01*
X8360Y10707D01*
X8301Y10849D01*
X8192Y10959D01*
X8163Y10971D01*
X8163Y12675D01*
X8104Y12818D01*
X7995Y12927D01*
X7853Y12986D01*
X7698Y12986D01*
X7556Y12927D01*
X7446Y12818D01*
X7387Y12676D01*
X7387Y12521D01*
X7446Y12379D01*
X7555Y12270D01*
X7698Y12210D01*
X7852Y12210D01*
X7995Y12269D01*
X8104Y12378D01*
X8163Y12521D01*
X8163Y12675D01*
X8163Y10971D01*
X8050Y11018D01*
X7895Y11018D01*
X7753Y10959D01*
X7643Y10850D01*
X7584Y10707D01*
X7584Y10553D01*
X7643Y10410D01*
X7752Y10301D01*
X7895Y10242D01*
X8049Y10242D01*
X8192Y10301D01*
X8301Y10410D01*
X8360Y10552D01*
X8360Y10707D01*
X8360Y7620D01*
X8343Y7612D01*
X8234Y7503D01*
X8175Y7361D01*
X8175Y7207D01*
X8233Y7064D01*
X8309Y6988D01*
X8234Y6913D01*
X8175Y6770D01*
X8175Y6616D01*
X8233Y6473D01*
X8309Y6398D01*
X8234Y6322D01*
X8175Y6180D01*
X8175Y6025D01*
X8233Y5883D01*
X8309Y5807D01*
X8234Y5732D01*
X8175Y5589D01*
X8175Y5435D01*
X8233Y5292D01*
X8342Y5183D01*
X8485Y5124D01*
X8639Y5124D01*
X8782Y5183D01*
X8891Y5292D01*
X8951Y5434D01*
X8951Y5589D01*
X8892Y5731D01*
X8816Y5807D01*
X8891Y5882D01*
X8951Y6025D01*
X8951Y6179D01*
X8892Y6322D01*
X8816Y6398D01*
X8891Y6473D01*
X8951Y6615D01*
X8951Y6770D01*
X8892Y6912D01*
X8816Y6988D01*
X8891Y7063D01*
X8944Y7191D01*
X9033Y7191D01*
X9176Y7250D01*
X9285Y7359D01*
X9344Y7501D01*
X9344Y7655D01*
X9344Y742D01*
X8313Y742D01*
X7864Y1192D01*
X7868Y1202D01*
X7868Y1356D01*
X7809Y1499D01*
X7753Y1555D01*
X7808Y1687D01*
X7809Y1857D01*
X7744Y2014D01*
X7624Y2134D01*
X7467Y2199D01*
X7297Y2200D01*
X7140Y2135D01*
X7081Y2075D01*
X7081Y4703D01*
X7022Y4845D01*
X6982Y4885D01*
X6982Y5687D01*
X6923Y5830D01*
X6814Y5939D01*
X6672Y5998D01*
X6517Y5998D01*
X6392Y5946D01*
X6392Y9427D01*
X6333Y9570D01*
X6224Y9679D01*
X6081Y9738D01*
X5927Y9739D01*
X5784Y9680D01*
X5675Y9571D01*
X5616Y9428D01*
X5615Y9274D01*
X5674Y9131D01*
X5783Y9022D01*
X5926Y8963D01*
X6080Y8962D01*
X6223Y9021D01*
X6332Y9130D01*
X6391Y9273D01*
X6392Y9427D01*
X6392Y5946D01*
X6375Y5939D01*
X6265Y5830D01*
X6206Y5688D01*
X6206Y5533D01*
X6265Y5391D01*
X6374Y5281D01*
X6517Y5222D01*
X6671Y5222D01*
X6814Y5281D01*
X6923Y5390D01*
X6982Y5533D01*
X6982Y5687D01*
X6982Y4885D01*
X6913Y4955D01*
X6770Y5014D01*
X6616Y5014D01*
X6473Y4955D01*
X6364Y4846D01*
X6305Y4703D01*
X6304Y4549D01*
X6363Y4406D01*
X6472Y4297D01*
X6615Y4238D01*
X6769Y4238D01*
X6912Y4297D01*
X7021Y4406D01*
X7080Y4548D01*
X7081Y4703D01*
X7081Y2075D01*
X7020Y2015D01*
X6955Y1858D01*
X6954Y1688D01*
X7019Y1531D01*
X7122Y1428D01*
X7092Y1357D01*
X7092Y1203D01*
X7131Y1107D01*
X7131Y1083D01*
X7156Y959D01*
X7140Y953D01*
X7051Y864D01*
X7051Y1055D01*
X6996Y1187D01*
X6896Y1288D01*
X6764Y1342D01*
X6622Y1342D01*
X6490Y1288D01*
X6389Y1187D01*
X6334Y1056D01*
X6334Y913D01*
X6389Y781D01*
X6489Y681D01*
X6621Y626D01*
X6763Y626D01*
X6895Y680D01*
X6996Y781D01*
X7051Y913D01*
X7051Y1055D01*
X7051Y864D01*
X7020Y833D01*
X6955Y676D01*
X6954Y506D01*
X7019Y349D01*
X7023Y345D01*
X5407Y345D01*
X5407Y1061D01*
X5348Y1204D01*
X5309Y1243D01*
X5309Y13955D01*
X5250Y14097D01*
X5141Y14207D01*
X4998Y14266D01*
X4844Y14266D01*
X4701Y14207D01*
X4697Y14203D01*
X4659Y14294D01*
X4550Y14403D01*
X4408Y14463D01*
X4253Y14463D01*
X4111Y14404D01*
X4035Y14328D01*
X3960Y14403D01*
X3817Y14463D01*
X3663Y14463D01*
X3520Y14404D01*
X3411Y14295D01*
X3352Y14152D01*
X3352Y13998D01*
X3411Y13855D01*
X3520Y13746D01*
X3662Y13687D01*
X3817Y13687D01*
X3959Y13746D01*
X4035Y13821D01*
X4110Y13746D01*
X4253Y13687D01*
X4407Y13687D01*
X4550Y13746D01*
X4554Y13750D01*
X4592Y13658D01*
X4701Y13549D01*
X4843Y13490D01*
X4998Y13490D01*
X5140Y13549D01*
X5250Y13658D01*
X5309Y13800D01*
X5309Y13955D01*
X5309Y1243D01*
X5239Y1313D01*
X5210Y1325D01*
X5210Y5589D01*
X5152Y5731D01*
X5042Y5840D01*
X4900Y5900D01*
X4817Y5900D01*
X4817Y8738D01*
X4758Y8881D01*
X4649Y8990D01*
X4506Y9049D01*
X4352Y9050D01*
X4263Y9013D01*
X4263Y10222D01*
X4198Y10378D01*
X4128Y10448D01*
X4128Y12085D01*
X4069Y12227D01*
X3960Y12337D01*
X3817Y12396D01*
X3663Y12396D01*
X3520Y12337D01*
X3411Y12228D01*
X3352Y12085D01*
X3352Y11931D01*
X3411Y11788D01*
X3520Y11679D01*
X3662Y11620D01*
X3817Y11620D01*
X3959Y11679D01*
X4068Y11788D01*
X4128Y11930D01*
X4128Y12085D01*
X4128Y10448D01*
X4079Y10498D01*
X3922Y10562D01*
X3753Y10563D01*
X3597Y10498D01*
X3477Y10379D01*
X3413Y10222D01*
X3412Y10053D01*
X3477Y9897D01*
X3596Y9777D01*
X3753Y9713D01*
X3922Y9712D01*
X4078Y9777D01*
X4198Y9896D01*
X4262Y10053D01*
X4263Y10222D01*
X4263Y9013D01*
X4209Y8991D01*
X4100Y8882D01*
X4041Y8739D01*
X4040Y8585D01*
X4099Y8442D01*
X4208Y8333D01*
X4351Y8274D01*
X4505Y8273D01*
X4648Y8332D01*
X4757Y8441D01*
X4816Y8584D01*
X4817Y8738D01*
X4817Y5900D01*
X4746Y5900D01*
X4603Y5841D01*
X4494Y5732D01*
X4434Y5589D01*
X4434Y5435D01*
X4493Y5292D01*
X4602Y5183D01*
X4745Y5124D01*
X4899Y5124D01*
X5042Y5183D01*
X5151Y5292D01*
X5210Y5434D01*
X5210Y5589D01*
X5210Y1325D01*
X5097Y1372D01*
X4942Y1372D01*
X4800Y1313D01*
X4719Y1232D01*
X4719Y3226D01*
X4660Y3369D01*
X4551Y3478D01*
X4408Y3537D01*
X4254Y3538D01*
X4226Y3526D01*
X4226Y6376D01*
X4167Y6519D01*
X4058Y6628D01*
X3916Y6687D01*
X3761Y6687D01*
X3619Y6628D01*
X3509Y6519D01*
X3450Y6377D01*
X3450Y6222D01*
X3509Y6080D01*
X3618Y5970D01*
X3761Y5911D01*
X3915Y5911D01*
X4058Y5970D01*
X4167Y6079D01*
X4226Y6222D01*
X4226Y6376D01*
X4226Y3526D01*
X4111Y3479D01*
X4002Y3370D01*
X3943Y3227D01*
X3942Y3073D01*
X4001Y2930D01*
X4110Y2821D01*
X4253Y2762D01*
X4407Y2761D01*
X4550Y2820D01*
X4659Y2929D01*
X4718Y3072D01*
X4719Y3226D01*
X4719Y1232D01*
X4691Y1204D01*
X4631Y1062D01*
X4631Y907D01*
X4690Y765D01*
X4799Y655D01*
X4942Y596D01*
X5096Y596D01*
X5239Y655D01*
X5348Y764D01*
X5407Y907D01*
X5407Y1061D01*
X5407Y345D01*
X3144Y345D01*
X3144Y8344D01*
X3144Y8344D01*
X3144Y11100D01*
X3085Y11243D01*
X2976Y11352D01*
X2833Y11411D01*
X2679Y11412D01*
X2536Y11353D01*
X2427Y11244D01*
X2368Y11101D01*
X2367Y10947D01*
X2426Y10804D01*
X2535Y10695D01*
X2678Y10636D01*
X2832Y10635D01*
X2975Y10694D01*
X3084Y10803D01*
X3143Y10946D01*
X3144Y11100D01*
X3144Y8344D01*
X3085Y8487D01*
X2976Y8596D01*
X2833Y8655D01*
X2679Y8656D01*
X2536Y8597D01*
X2427Y8488D01*
X2368Y8345D01*
X2367Y8191D01*
X2426Y8048D01*
X2535Y7939D01*
X2678Y7880D01*
X2832Y7879D01*
X2975Y7938D01*
X3084Y8047D01*
X3143Y8190D01*
X3144Y8344D01*
X3144Y345D01*
X2750Y345D01*
X2750Y7459D01*
X2691Y7601D01*
X2582Y7711D01*
X2439Y7770D01*
X2285Y7770D01*
X2159Y7718D01*
X2159Y11199D01*
X2100Y11341D01*
X1991Y11451D01*
X1849Y11510D01*
X1694Y11510D01*
X1552Y11451D01*
X1442Y11342D01*
X1383Y11199D01*
X1383Y11045D01*
X1442Y10902D01*
X1551Y10793D01*
X1694Y10734D01*
X1848Y10734D01*
X1991Y10793D01*
X2100Y10902D01*
X2159Y11044D01*
X2159Y11199D01*
X2159Y7718D01*
X2142Y7711D01*
X2033Y7602D01*
X1974Y7459D01*
X1974Y7305D01*
X2033Y7162D01*
X2142Y7053D01*
X2284Y6994D01*
X2439Y6994D01*
X2581Y7053D01*
X2691Y7162D01*
X2750Y7304D01*
X2750Y7459D01*
X2750Y345D01*
X1336Y345D01*
X1336Y2550D01*
X1336Y3928D01*
X1336Y15936D01*
X1336Y17314D01*
X1267Y17479D01*
X1141Y17606D01*
X975Y17674D01*
X796Y17675D01*
X631Y17606D01*
X504Y17480D01*
X436Y17314D01*
X435Y17135D01*
X504Y16970D01*
X630Y16843D01*
X796Y16775D01*
X975Y16774D01*
X1140Y16843D01*
X1267Y16969D01*
X1335Y17135D01*
X1336Y17314D01*
X1336Y15936D01*
X1267Y16101D01*
X1141Y16228D01*
X975Y16296D01*
X796Y16297D01*
X631Y16228D01*
X504Y16102D01*
X436Y15936D01*
X435Y15757D01*
X504Y15592D01*
X630Y15465D01*
X796Y15397D01*
X975Y15396D01*
X1140Y15465D01*
X1267Y15591D01*
X1335Y15757D01*
X1336Y15936D01*
X1336Y3928D01*
X1273Y4078D01*
X1273Y9230D01*
X1215Y9373D01*
X1105Y9482D01*
X963Y9541D01*
X809Y9542D01*
X666Y9483D01*
X557Y9374D01*
X497Y9231D01*
X497Y9077D01*
X556Y8934D01*
X665Y8825D01*
X808Y8766D01*
X962Y8765D01*
X1105Y8824D01*
X1214Y8933D01*
X1273Y9076D01*
X1273Y9230D01*
X1273Y4078D01*
X1267Y4093D01*
X1141Y4220D01*
X975Y4288D01*
X796Y4289D01*
X631Y4220D01*
X504Y4094D01*
X436Y3928D01*
X435Y3749D01*
X504Y3584D01*
X630Y3457D01*
X796Y3389D01*
X975Y3388D01*
X1140Y3457D01*
X1267Y3583D01*
X1335Y3749D01*
X1336Y3928D01*
X1336Y2550D01*
X1267Y2715D01*
X1141Y2842D01*
X975Y2910D01*
X796Y2911D01*
X631Y2842D01*
X504Y2716D01*
X436Y2550D01*
X435Y2371D01*
X504Y2206D01*
X630Y2079D01*
X796Y2011D01*
X975Y2010D01*
X1140Y2079D01*
X1267Y2205D01*
X1335Y2371D01*
X1336Y2550D01*
X1336Y345D01*
X1103Y345D01*
X345Y1103D01*
X345Y5405D01*
X370Y5380D01*
X513Y5321D01*
X667Y5320D01*
X810Y5379D01*
X919Y5488D01*
X978Y5631D01*
X979Y5785D01*
X920Y5928D01*
X811Y6037D01*
X668Y6096D01*
X514Y6097D01*
X371Y6038D01*
X345Y6012D01*
X345Y18483D01*
X1201Y19340D01*
X4420Y19340D01*
X4395Y19315D01*
X4336Y19172D01*
X4335Y19018D01*
X4394Y18875D01*
X4503Y18766D01*
X4646Y18707D01*
X4800Y18706D01*
X4943Y18765D01*
X5052Y18874D01*
X5111Y19017D01*
X5112Y19171D01*
X5053Y19314D01*
X5027Y19340D01*
X5879Y19340D01*
X5878Y19187D01*
X5730Y19187D01*
X5587Y19128D01*
X5478Y19019D01*
X5419Y18877D01*
X5419Y18722D01*
X5478Y18580D01*
X5587Y18470D01*
X5729Y18411D01*
X5884Y18411D01*
X6026Y18470D01*
X6135Y18579D01*
X6195Y18722D01*
X6195Y18793D01*
X6319Y18742D01*
X6537Y18741D01*
X6740Y18825D01*
X6894Y18980D01*
X6978Y19182D01*
X6979Y19340D01*
X9816Y19340D01*
X9815Y19183D01*
X9899Y18980D01*
X10054Y18826D01*
X10256Y18742D01*
X10474Y18741D01*
X10677Y18825D01*
X10831Y18980D01*
X10915Y19182D01*
X10916Y19340D01*
X20974Y19340D01*
X20973Y19183D01*
X21057Y18980D01*
X21212Y18826D01*
X21414Y18742D01*
X21632Y18741D01*
X21835Y18825D01*
X21989Y18980D01*
X22073Y19182D01*
X22074Y19340D01*
X24911Y19340D01*
X24910Y19183D01*
X24994Y18980D01*
X25149Y18826D01*
X25351Y18742D01*
X25569Y18741D01*
X25772Y18825D01*
X25926Y18980D01*
X26010Y19182D01*
X26011Y19340D01*
X27301Y19340D01*
X27253Y19291D01*
X27215Y19199D01*
X27215Y19100D01*
X27215Y18400D01*
X27253Y18308D01*
X27323Y18238D01*
X27415Y18200D01*
X27514Y18200D01*
X28214Y18200D01*
X28306Y18238D01*
X28376Y18308D01*
X28400Y18365D01*
X28474Y18291D01*
X28695Y18200D01*
X28933Y18199D01*
X29154Y18291D01*
X29315Y18451D01*
X29474Y18291D01*
X29695Y18200D01*
X29933Y18199D01*
X30154Y18291D01*
X30315Y18451D01*
X30474Y18291D01*
X30695Y18200D01*
X30933Y18199D01*
X31154Y18291D01*
X31315Y18451D01*
X31474Y18291D01*
X31695Y18200D01*
X31933Y18199D01*
X32154Y18291D01*
X32315Y18451D01*
X32474Y18291D01*
X32695Y18200D01*
X32933Y18199D01*
X33154Y18291D01*
X33323Y18459D01*
X33414Y18680D01*
X33415Y18918D01*
X33323Y19139D01*
X33155Y19308D01*
X33078Y19340D01*
X36298Y19340D01*
X39024Y16613D01*
X39024Y13591D01*
X38999Y13616D01*
X38857Y13675D01*
X38702Y13675D01*
X38560Y13616D01*
X38450Y13507D01*
X38391Y13365D01*
X38391Y13210D01*
X38450Y13068D01*
X38559Y12959D01*
X38627Y12930D01*
X38627Y8707D01*
X38536Y8616D01*
X38380Y8616D01*
X38380Y12183D01*
X38321Y12326D01*
X38212Y12435D01*
X38069Y12494D01*
X37915Y12495D01*
X37772Y12436D01*
X37663Y12327D01*
X37604Y12184D01*
X37603Y12100D01*
X37522Y12101D01*
X37379Y12042D01*
X37352Y12015D01*
X37333Y12035D01*
X37424Y12072D01*
X37533Y12181D01*
X37592Y12324D01*
X37592Y12478D01*
X37533Y12621D01*
X37424Y12730D01*
X37396Y12742D01*
X37396Y14152D01*
X37337Y14294D01*
X37228Y14403D01*
X37085Y14463D01*
X36962Y14463D01*
X37023Y14524D01*
X37061Y14616D01*
X37061Y14715D01*
X37061Y15306D01*
X37023Y15398D01*
X36952Y15468D01*
X36861Y15506D01*
X36848Y15506D01*
X36978Y15635D01*
X37061Y15836D01*
X37061Y16053D01*
X36978Y16253D01*
X36825Y16407D01*
X36753Y16437D01*
X36824Y16466D01*
X36978Y16619D01*
X37061Y16820D01*
X37061Y17037D01*
X36978Y17237D01*
X36825Y17391D01*
X36624Y17474D01*
X36407Y17474D01*
X36207Y17392D01*
X36053Y17238D01*
X36018Y17153D01*
X36018Y18187D01*
X35959Y18330D01*
X35850Y18439D01*
X35707Y18498D01*
X35553Y18498D01*
X35410Y18439D01*
X35301Y18330D01*
X35242Y18188D01*
X35241Y18033D01*
X35300Y17891D01*
X35409Y17781D01*
X35552Y17722D01*
X35706Y17722D01*
X35849Y17781D01*
X35958Y17890D01*
X36017Y18033D01*
X36018Y18187D01*
X36018Y17153D01*
X35970Y17038D01*
X35970Y16821D01*
X36053Y16620D01*
X36206Y16467D01*
X36278Y16437D01*
X36207Y16408D01*
X36053Y16254D01*
X35970Y16054D01*
X35970Y15837D01*
X36053Y15636D01*
X36182Y15506D01*
X36170Y15506D01*
X36078Y15468D01*
X36008Y15398D01*
X35970Y15306D01*
X35970Y15207D01*
X35970Y14616D01*
X36008Y14524D01*
X36078Y14453D01*
X36170Y14415D01*
X36270Y14415D01*
X36816Y14415D01*
X36788Y14404D01*
X36679Y14295D01*
X36620Y14152D01*
X36619Y13998D01*
X36678Y13855D01*
X36787Y13746D01*
X36930Y13687D01*
X37084Y13687D01*
X37227Y13746D01*
X37336Y13855D01*
X37395Y13997D01*
X37396Y14152D01*
X37396Y12742D01*
X37282Y12789D01*
X37127Y12790D01*
X36985Y12731D01*
X36876Y12622D01*
X36816Y12479D01*
X36816Y12325D01*
X36875Y12182D01*
X36978Y12079D01*
X36886Y12042D01*
X36777Y11933D01*
X36718Y11790D01*
X36718Y11636D01*
X36777Y11493D01*
X36886Y11384D01*
X37028Y11325D01*
X37183Y11324D01*
X37325Y11383D01*
X37352Y11410D01*
X37378Y11384D01*
X37521Y11325D01*
X37675Y11324D01*
X37818Y11383D01*
X37927Y11492D01*
X37986Y11635D01*
X37987Y11719D01*
X38068Y11718D01*
X38211Y11777D01*
X38320Y11886D01*
X38379Y12029D01*
X38380Y12183D01*
X38380Y8616D01*
X37770Y8616D01*
X37676Y8656D01*
X37521Y8656D01*
X37379Y8597D01*
X37269Y8488D01*
X37210Y8345D01*
X37210Y8191D01*
X37269Y8048D01*
X37378Y7939D01*
X37520Y7880D01*
X37675Y7880D01*
X37771Y7919D01*
X38681Y7919D01*
X38814Y7946D01*
X38814Y7946D01*
X38927Y8021D01*
X39024Y8118D01*
X39024Y3072D01*
X39024Y3072D01*
G37*
G54D24*
X39024Y3072D02*
X38617Y2664D01*
X38617Y4120D01*
X38552Y4277D01*
X38432Y4397D01*
X38275Y4462D01*
X38105Y4463D01*
X37948Y4398D01*
X37828Y4278D01*
X37763Y4121D01*
X37762Y3951D01*
X37827Y3794D01*
X37947Y3674D01*
X38104Y3609D01*
X38274Y3608D01*
X38431Y3673D01*
X38551Y3793D01*
X38616Y3950D01*
X38617Y4120D01*
X38617Y2664D01*
X37435Y1482D01*
X37435Y4120D01*
X37370Y4277D01*
X37318Y4329D01*
X37318Y5882D01*
X37259Y6025D01*
X37150Y6134D01*
X37007Y6193D01*
X36853Y6194D01*
X36710Y6135D01*
X36601Y6026D01*
X36542Y5883D01*
X36541Y5729D01*
X36600Y5586D01*
X36709Y5477D01*
X36852Y5418D01*
X37006Y5417D01*
X37149Y5476D01*
X37258Y5585D01*
X37317Y5728D01*
X37318Y5882D01*
X37318Y4329D01*
X37250Y4397D01*
X37093Y4462D01*
X36923Y4463D01*
X36766Y4398D01*
X36646Y4278D01*
X36581Y4121D01*
X36580Y3951D01*
X36645Y3794D01*
X36765Y3674D01*
X36922Y3609D01*
X37092Y3608D01*
X37249Y3673D01*
X37369Y3793D01*
X37434Y3950D01*
X37435Y4120D01*
X37435Y1482D01*
X36903Y951D01*
X36903Y1455D01*
X36844Y1597D01*
X36735Y1707D01*
X36707Y1719D01*
X36707Y3423D01*
X36648Y3566D01*
X36539Y3675D01*
X36411Y3728D01*
X36411Y7557D01*
X36352Y7700D01*
X36243Y7809D01*
X36101Y7868D01*
X36086Y7868D01*
X36086Y11587D01*
X36032Y11718D01*
X35931Y11819D01*
X35800Y11874D01*
X35693Y11874D01*
X35693Y12472D01*
X35638Y12604D01*
X35537Y12705D01*
X35406Y12760D01*
X35263Y12760D01*
X35132Y12705D01*
X35031Y12605D01*
X35004Y12539D01*
X35004Y16508D01*
X35004Y18083D01*
X34949Y18214D01*
X34848Y18315D01*
X34717Y18370D01*
X34574Y18370D01*
X34443Y18316D01*
X34342Y18215D01*
X34287Y18083D01*
X34287Y17941D01*
X34341Y17809D01*
X34442Y17708D01*
X34574Y17654D01*
X34716Y17653D01*
X34848Y17708D01*
X34949Y17809D01*
X35003Y17940D01*
X35004Y18083D01*
X35004Y16508D01*
X34949Y16640D01*
X34848Y16740D01*
X34717Y16795D01*
X34574Y16795D01*
X34443Y16741D01*
X34342Y16640D01*
X34287Y16508D01*
X34287Y16366D01*
X34341Y16234D01*
X34442Y16133D01*
X34574Y16079D01*
X34716Y16079D01*
X34848Y16133D01*
X34949Y16234D01*
X35003Y16365D01*
X35004Y16508D01*
X35004Y12539D01*
X34976Y12473D01*
X34976Y12331D01*
X35030Y12199D01*
X35131Y12098D01*
X35263Y12043D01*
X35405Y12043D01*
X35537Y12098D01*
X35638Y12198D01*
X35692Y12330D01*
X35693Y12472D01*
X35693Y11874D01*
X35657Y11874D01*
X35531Y11822D01*
X35406Y11874D01*
X35263Y11874D01*
X35132Y11820D01*
X35031Y11719D01*
X34976Y11587D01*
X34976Y11445D01*
X35030Y11313D01*
X35131Y11212D01*
X35263Y11157D01*
X35405Y11157D01*
X35531Y11209D01*
X35656Y11157D01*
X35799Y11157D01*
X35931Y11212D01*
X36031Y11312D01*
X36086Y11444D01*
X36086Y11587D01*
X36086Y7868D01*
X35946Y7868D01*
X35804Y7809D01*
X35694Y7700D01*
X35635Y7558D01*
X35635Y7403D01*
X35694Y7261D01*
X35803Y7151D01*
X35946Y7092D01*
X36100Y7092D01*
X36243Y7151D01*
X36352Y7260D01*
X36411Y7403D01*
X36411Y7557D01*
X36411Y3728D01*
X36396Y3734D01*
X36242Y3735D01*
X36099Y3676D01*
X35990Y3567D01*
X35931Y3424D01*
X35930Y3270D01*
X35989Y3127D01*
X36098Y3018D01*
X36241Y2959D01*
X36395Y2958D01*
X36538Y3017D01*
X36647Y3126D01*
X36706Y3269D01*
X36707Y3423D01*
X36707Y1719D01*
X36593Y1766D01*
X36438Y1766D01*
X36296Y1707D01*
X36187Y1598D01*
X36127Y1455D01*
X36127Y1301D01*
X36186Y1158D01*
X36295Y1049D01*
X36438Y990D01*
X36592Y990D01*
X36735Y1049D01*
X36844Y1158D01*
X36903Y1300D01*
X36903Y1455D01*
X36903Y951D01*
X36298Y345D01*
X36018Y345D01*
X36018Y1159D01*
X35959Y1302D01*
X35850Y1411D01*
X35707Y1470D01*
X35553Y1471D01*
X35496Y1447D01*
X35496Y7945D01*
X35441Y8077D01*
X35341Y8177D01*
X35209Y8232D01*
X35066Y8232D01*
X35033Y8219D01*
X35033Y9919D01*
X34974Y10062D01*
X34865Y10171D01*
X34723Y10230D01*
X34568Y10230D01*
X34426Y10172D01*
X34408Y10153D01*
X34408Y10640D01*
X34324Y10843D01*
X34169Y10997D01*
X33967Y11081D01*
X33749Y11082D01*
X33546Y10998D01*
X33429Y10881D01*
X33429Y12669D01*
X33374Y12801D01*
X33274Y12902D01*
X33142Y12957D01*
X32999Y12957D01*
X32868Y12902D01*
X32767Y12802D01*
X32712Y12670D01*
X32712Y12527D01*
X32767Y12396D01*
X32867Y12295D01*
X32999Y12240D01*
X33141Y12240D01*
X33273Y12294D01*
X33374Y12395D01*
X33429Y12527D01*
X33429Y12669D01*
X33429Y10881D01*
X33392Y10843D01*
X33308Y10641D01*
X33307Y10423D01*
X33391Y10220D01*
X33546Y10066D01*
X33748Y9982D01*
X33966Y9981D01*
X34169Y10065D01*
X34323Y10220D01*
X34407Y10422D01*
X34408Y10640D01*
X34408Y10153D01*
X34317Y10062D01*
X34257Y9920D01*
X34257Y9766D01*
X34316Y9623D01*
X34425Y9514D01*
X34568Y9454D01*
X34722Y9454D01*
X34865Y9513D01*
X34974Y9622D01*
X35033Y9765D01*
X35033Y9919D01*
X35033Y8219D01*
X34935Y8178D01*
X34834Y8077D01*
X34779Y7945D01*
X34779Y7803D01*
X34833Y7671D01*
X34934Y7570D01*
X35066Y7516D01*
X35208Y7516D01*
X35340Y7570D01*
X35441Y7671D01*
X35496Y7802D01*
X35496Y7945D01*
X35496Y1447D01*
X35410Y1412D01*
X35301Y1303D01*
X35242Y1160D01*
X35241Y1006D01*
X35300Y863D01*
X35409Y754D01*
X35552Y695D01*
X35706Y694D01*
X35849Y753D01*
X35958Y862D01*
X36017Y1005D01*
X36018Y1159D01*
X36018Y345D01*
X34019Y345D01*
X34019Y9323D01*
X33965Y9455D01*
X33864Y9555D01*
X33733Y9610D01*
X33590Y9610D01*
X33458Y9556D01*
X33357Y9455D01*
X33303Y9323D01*
X33303Y9181D01*
X33357Y9049D01*
X33458Y8948D01*
X33589Y8894D01*
X33732Y8894D01*
X33864Y8948D01*
X33965Y9049D01*
X34019Y9180D01*
X34019Y9323D01*
X34019Y345D01*
X33724Y345D01*
X33724Y4106D01*
X33724Y5091D01*
X33670Y5222D01*
X33569Y5323D01*
X33437Y5378D01*
X33330Y5378D01*
X33330Y8043D01*
X33276Y8175D01*
X33175Y8276D01*
X33044Y8331D01*
X32901Y8331D01*
X32769Y8276D01*
X32677Y8184D01*
X32585Y8276D01*
X32573Y8281D01*
X32573Y17596D01*
X32514Y17739D01*
X32405Y17848D01*
X32262Y17908D01*
X32108Y17908D01*
X31965Y17849D01*
X31856Y17740D01*
X31797Y17597D01*
X31797Y17443D01*
X31855Y17300D01*
X31965Y17191D01*
X32107Y17132D01*
X32261Y17132D01*
X32404Y17190D01*
X32513Y17300D01*
X32573Y17442D01*
X32573Y17596D01*
X32573Y8281D01*
X32453Y8331D01*
X32311Y8331D01*
X32278Y8317D01*
X32278Y10805D01*
X32277Y10806D01*
X32277Y16809D01*
X32218Y16952D01*
X32109Y17061D01*
X31967Y17120D01*
X31813Y17120D01*
X31670Y17061D01*
X31561Y16952D01*
X31501Y16810D01*
X31501Y16655D01*
X31560Y16513D01*
X31669Y16403D01*
X31812Y16344D01*
X31966Y16344D01*
X32109Y16403D01*
X32218Y16512D01*
X32277Y16655D01*
X32277Y16809D01*
X32277Y10806D01*
X32219Y10948D01*
X32110Y11057D01*
X31967Y11116D01*
X31813Y11117D01*
X31670Y11058D01*
X31561Y10949D01*
X31502Y10806D01*
X31501Y10652D01*
X31560Y10509D01*
X31669Y10400D01*
X31812Y10341D01*
X31966Y10340D01*
X32109Y10399D01*
X32218Y10508D01*
X32277Y10651D01*
X32278Y10805D01*
X32278Y8317D01*
X32179Y8276D01*
X32078Y8176D01*
X32023Y8044D01*
X32023Y7901D01*
X32078Y7770D01*
X32178Y7669D01*
X32310Y7614D01*
X32452Y7614D01*
X32584Y7668D01*
X32677Y7761D01*
X32769Y7669D01*
X32900Y7614D01*
X33043Y7614D01*
X33175Y7668D01*
X33276Y7769D01*
X33330Y7901D01*
X33330Y8043D01*
X33330Y5378D01*
X33295Y5378D01*
X33163Y5323D01*
X33062Y5223D01*
X33008Y5091D01*
X33007Y4949D01*
X33062Y4817D01*
X33163Y4716D01*
X33294Y4661D01*
X33437Y4661D01*
X33568Y4716D01*
X33669Y4816D01*
X33724Y4948D01*
X33724Y5091D01*
X33724Y4106D01*
X33670Y4238D01*
X33569Y4339D01*
X33437Y4394D01*
X33295Y4394D01*
X33163Y4339D01*
X33062Y4239D01*
X33008Y4107D01*
X33007Y3964D01*
X33062Y3833D01*
X33163Y3732D01*
X33294Y3677D01*
X33437Y3677D01*
X33568Y3731D01*
X33669Y3832D01*
X33724Y3964D01*
X33724Y4106D01*
X33724Y345D01*
X31195Y345D01*
X31195Y12380D01*
X31136Y12523D01*
X31027Y12632D01*
X30884Y12691D01*
X30730Y12691D01*
X30587Y12632D01*
X30478Y12523D01*
X30419Y12381D01*
X30419Y12226D01*
X30478Y12084D01*
X30587Y11974D01*
X30729Y11915D01*
X30884Y11915D01*
X31026Y11974D01*
X31135Y12083D01*
X31195Y12226D01*
X31195Y12380D01*
X31195Y345D01*
X30801Y345D01*
X30801Y6474D01*
X30742Y6617D01*
X30633Y6726D01*
X30490Y6785D01*
X30336Y6786D01*
X30193Y6727D01*
X30084Y6618D01*
X30025Y6475D01*
X30024Y6321D01*
X30083Y6178D01*
X30192Y6069D01*
X30335Y6010D01*
X30489Y6009D01*
X30632Y6068D01*
X30741Y6177D01*
X30800Y6320D01*
X30801Y6474D01*
X30801Y345D01*
X29915Y345D01*
X29915Y4998D01*
X29856Y5141D01*
X29747Y5250D01*
X29605Y5309D01*
X29450Y5309D01*
X29423Y5298D01*
X29423Y7360D01*
X29364Y7503D01*
X29255Y7612D01*
X29113Y7671D01*
X28958Y7671D01*
X28816Y7612D01*
X28706Y7503D01*
X28647Y7361D01*
X28647Y7207D01*
X28706Y7064D01*
X28815Y6955D01*
X28957Y6895D01*
X29112Y6895D01*
X29255Y6954D01*
X29364Y7063D01*
X29423Y7206D01*
X29423Y7360D01*
X29423Y5298D01*
X29308Y5250D01*
X29198Y5141D01*
X29139Y4999D01*
X29139Y4844D01*
X29198Y4702D01*
X29307Y4592D01*
X29450Y4533D01*
X29604Y4533D01*
X29747Y4592D01*
X29856Y4701D01*
X29915Y4844D01*
X29915Y4998D01*
X29915Y345D01*
X28015Y345D01*
X28015Y12571D01*
X27961Y12703D01*
X27860Y12803D01*
X27729Y12858D01*
X27586Y12858D01*
X27454Y12804D01*
X27354Y12703D01*
X27299Y12571D01*
X27299Y12429D01*
X27353Y12297D01*
X27454Y12196D01*
X27585Y12142D01*
X27728Y12142D01*
X27860Y12196D01*
X27961Y12297D01*
X28015Y12428D01*
X28015Y12571D01*
X28015Y345D01*
X27258Y345D01*
X27258Y11002D01*
X27199Y11145D01*
X27090Y11254D01*
X26947Y11313D01*
X26793Y11314D01*
X26650Y11255D01*
X26541Y11146D01*
X26482Y11003D01*
X26482Y10938D01*
X26470Y10934D01*
X26369Y10833D01*
X26315Y10701D01*
X26314Y10559D01*
X26369Y10427D01*
X26470Y10326D01*
X26601Y10272D01*
X26744Y10271D01*
X26875Y10326D01*
X26976Y10427D01*
X27031Y10558D01*
X27031Y10572D01*
X27089Y10596D01*
X27198Y10705D01*
X27257Y10848D01*
X27258Y11002D01*
X27258Y345D01*
X26036Y345D01*
X26036Y10620D01*
X25968Y10784D01*
X25842Y10910D01*
X25678Y10978D01*
X25500Y10979D01*
X25336Y10911D01*
X25210Y10785D01*
X25142Y10621D01*
X25141Y10443D01*
X25209Y10279D01*
X25335Y10153D01*
X25499Y10085D01*
X25677Y10084D01*
X25841Y10152D01*
X25967Y10278D01*
X26035Y10442D01*
X26036Y10620D01*
X26036Y345D01*
X25683Y345D01*
X25683Y864D01*
X25624Y1007D01*
X25515Y1116D01*
X25372Y1175D01*
X25218Y1176D01*
X25075Y1117D01*
X24994Y1036D01*
X24994Y4604D01*
X24994Y6081D01*
X24935Y6223D01*
X24856Y6303D01*
X24866Y6326D01*
X24866Y6468D01*
X24834Y6545D01*
X24866Y6621D01*
X24866Y6764D01*
X24811Y6895D01*
X24719Y6988D01*
X24811Y7080D01*
X24866Y7212D01*
X24866Y7354D01*
X24834Y7431D01*
X24866Y7507D01*
X24866Y7650D01*
X24834Y7726D01*
X24866Y7802D01*
X24866Y7945D01*
X24811Y8077D01*
X24767Y8121D01*
X24767Y9520D01*
X24713Y9651D01*
X24699Y9666D01*
X24699Y12183D01*
X24640Y12326D01*
X24531Y12435D01*
X24388Y12494D01*
X24234Y12494D01*
X24091Y12435D01*
X23982Y12326D01*
X23923Y12184D01*
X23923Y12029D01*
X23981Y11887D01*
X24091Y11777D01*
X24233Y11718D01*
X24387Y11718D01*
X24530Y11777D01*
X24639Y11886D01*
X24699Y12029D01*
X24699Y12183D01*
X24699Y9666D01*
X24612Y9752D01*
X24481Y9807D01*
X24338Y9807D01*
X24206Y9752D01*
X24105Y9652D01*
X24051Y9520D01*
X24051Y9400D01*
X24007Y9357D01*
X23952Y9225D01*
X23952Y9082D01*
X24007Y8951D01*
X24107Y8850D01*
X24239Y8795D01*
X24382Y8795D01*
X24513Y8850D01*
X24614Y8950D01*
X24669Y9082D01*
X24669Y9202D01*
X24713Y9245D01*
X24767Y9377D01*
X24767Y9520D01*
X24767Y8121D01*
X24711Y8177D01*
X24579Y8232D01*
X24437Y8232D01*
X24305Y8178D01*
X24204Y8077D01*
X24149Y7945D01*
X24149Y7803D01*
X24181Y7726D01*
X24149Y7650D01*
X24149Y7508D01*
X24181Y7431D01*
X24149Y7355D01*
X24149Y7212D01*
X24204Y7081D01*
X24296Y6988D01*
X24204Y6896D01*
X24149Y6764D01*
X24149Y6622D01*
X24181Y6545D01*
X24149Y6469D01*
X24149Y6327D01*
X24204Y6195D01*
X24247Y6151D01*
X24218Y6081D01*
X24218Y5927D01*
X24277Y5784D01*
X24386Y5675D01*
X24528Y5616D01*
X24683Y5616D01*
X24825Y5675D01*
X24935Y5784D01*
X24994Y5926D01*
X24994Y6081D01*
X24994Y4604D01*
X24935Y4747D01*
X24826Y4856D01*
X24683Y4915D01*
X24529Y4916D01*
X24386Y4857D01*
X24277Y4748D01*
X24218Y4605D01*
X24218Y4451D01*
X24277Y4308D01*
X24386Y4199D01*
X24528Y4140D01*
X24683Y4139D01*
X24825Y4198D01*
X24935Y4307D01*
X24994Y4450D01*
X24994Y4604D01*
X24994Y1036D01*
X24966Y1008D01*
X24907Y865D01*
X24906Y711D01*
X24965Y568D01*
X25074Y459D01*
X25217Y400D01*
X25371Y399D01*
X25514Y458D01*
X25623Y567D01*
X25682Y710D01*
X25683Y864D01*
X25683Y345D01*
X24177Y345D01*
X24180Y348D01*
X24245Y505D01*
X24246Y675D01*
X24181Y832D01*
X24061Y952D01*
X23904Y1017D01*
X23734Y1018D01*
X23577Y953D01*
X23457Y833D01*
X23392Y676D01*
X23391Y506D01*
X23456Y349D01*
X23460Y345D01*
X22995Y345D01*
X22998Y348D01*
X23063Y505D01*
X23064Y675D01*
X22999Y832D01*
X22879Y952D01*
X22722Y1017D01*
X22552Y1018D01*
X22395Y953D01*
X22275Y833D01*
X22210Y676D01*
X22209Y506D01*
X22274Y349D01*
X22278Y345D01*
X21703Y345D01*
X21703Y410D01*
X21746Y513D01*
X21746Y667D01*
X21703Y771D01*
X21703Y2407D01*
X23667Y2407D01*
X23667Y2042D01*
X23627Y1947D01*
X23627Y1793D01*
X23686Y1650D01*
X23795Y1541D01*
X23938Y1482D01*
X24092Y1482D01*
X24235Y1541D01*
X24344Y1650D01*
X24403Y1792D01*
X24403Y1947D01*
X24364Y2043D01*
X24364Y2657D01*
X24337Y2791D01*
X24262Y2904D01*
X24177Y2989D01*
X24177Y3122D01*
X24122Y3254D01*
X24078Y3298D01*
X24078Y6468D01*
X24047Y6545D01*
X24078Y6621D01*
X24078Y6764D01*
X24078Y8634D01*
X24024Y8766D01*
X23923Y8866D01*
X23792Y8921D01*
X23649Y8921D01*
X23517Y8867D01*
X23417Y8766D01*
X23362Y8634D01*
X23362Y8492D01*
X23416Y8360D01*
X23517Y8259D01*
X23648Y8205D01*
X23791Y8205D01*
X23923Y8259D01*
X24024Y8360D01*
X24078Y8491D01*
X24078Y8634D01*
X24078Y6764D01*
X24024Y6895D01*
X23923Y6996D01*
X23792Y7051D01*
X23649Y7051D01*
X23517Y6997D01*
X23417Y6896D01*
X23362Y6764D01*
X23362Y6622D01*
X23393Y6545D01*
X23362Y6469D01*
X23362Y6327D01*
X23416Y6195D01*
X23517Y6094D01*
X23648Y6039D01*
X23791Y6039D01*
X23923Y6094D01*
X24024Y6194D01*
X24078Y6326D01*
X24078Y6468D01*
X24078Y3298D01*
X24022Y3355D01*
X23890Y3409D01*
X23748Y3409D01*
X23621Y3357D01*
X23496Y3409D01*
X23354Y3409D01*
X23222Y3355D01*
X23192Y3325D01*
X23193Y3417D01*
X23161Y3494D01*
X23192Y3570D01*
X23193Y3712D01*
X23138Y3844D01*
X23045Y3937D01*
X23138Y4029D01*
X23192Y4161D01*
X23193Y4303D01*
X23138Y4435D01*
X23037Y4536D01*
X22996Y4553D01*
X22996Y5878D01*
X22941Y6010D01*
X22897Y6054D01*
X22897Y6173D01*
X22843Y6305D01*
X22799Y6349D01*
X22799Y6468D01*
X22744Y6600D01*
X22700Y6644D01*
X22700Y6764D01*
X22646Y6895D01*
X22545Y6996D01*
X22414Y7051D01*
X22271Y7051D01*
X22139Y6997D01*
X22039Y6896D01*
X21984Y6764D01*
X21984Y6622D01*
X22038Y6490D01*
X22082Y6446D01*
X22082Y6327D01*
X22137Y6195D01*
X22181Y6151D01*
X22181Y6031D01*
X22235Y5900D01*
X22279Y5855D01*
X22279Y5736D01*
X22333Y5604D01*
X22434Y5503D01*
X22566Y5449D01*
X22708Y5449D01*
X22840Y5503D01*
X22941Y5604D01*
X22996Y5735D01*
X22996Y5878D01*
X22996Y4553D01*
X22906Y4591D01*
X22763Y4591D01*
X22632Y4536D01*
X22531Y4436D01*
X22476Y4304D01*
X22476Y4162D01*
X22530Y4030D01*
X22623Y3937D01*
X22531Y3845D01*
X22476Y3713D01*
X22476Y3571D01*
X22508Y3494D01*
X22476Y3418D01*
X22476Y3276D01*
X22530Y3144D01*
X22570Y3104D01*
X21721Y3104D01*
X21760Y3143D01*
X21814Y3275D01*
X21815Y3417D01*
X21783Y3495D01*
X21814Y3570D01*
X21814Y3712D01*
X21782Y3788D01*
X21814Y3865D01*
X21815Y4008D01*
X21783Y4085D01*
X21814Y4161D01*
X21815Y4273D01*
X21873Y4297D01*
X21982Y4406D01*
X22041Y4548D01*
X22041Y4703D01*
X21982Y4845D01*
X21873Y4955D01*
X21731Y5014D01*
X21703Y5014D01*
X21703Y9793D01*
X21801Y9891D01*
X21877Y10004D01*
X21877Y10004D01*
X21903Y10138D01*
X21903Y10665D01*
X21921Y10665D01*
X22053Y10720D01*
X22154Y10820D01*
X22208Y10952D01*
X22208Y11094D01*
X22154Y11226D01*
X22055Y11326D01*
X22195Y11466D01*
X22270Y11579D01*
X22270Y11579D01*
X22297Y11713D01*
X22297Y11713D01*
X22297Y11713D01*
X22297Y12159D01*
X22771Y12633D01*
X22771Y12527D01*
X22823Y12402D01*
X22771Y12277D01*
X22771Y12134D01*
X22825Y12002D01*
X22926Y11902D01*
X23057Y11847D01*
X23200Y11847D01*
X23332Y11901D01*
X23433Y12002D01*
X23487Y12133D01*
X23487Y12276D01*
X23436Y12401D01*
X23488Y12527D01*
X23488Y12634D01*
X23594Y12634D01*
X23726Y12688D01*
X23827Y12789D01*
X23881Y12920D01*
X23882Y13063D01*
X23827Y13195D01*
X23726Y13296D01*
X23637Y13333D01*
X24265Y13333D01*
X24458Y13139D01*
X24571Y13064D01*
X24571Y13064D01*
X24704Y13037D01*
X25122Y13037D01*
X25217Y12998D01*
X25372Y12998D01*
X25467Y13037D01*
X25713Y13037D01*
X25808Y12998D01*
X25962Y12998D01*
X26105Y13057D01*
X26214Y13166D01*
X26273Y13308D01*
X26273Y13463D01*
X26240Y13543D01*
X26620Y13923D01*
X27003Y13923D01*
X27003Y13905D01*
X27058Y13774D01*
X27159Y13673D01*
X27290Y13618D01*
X27433Y13618D01*
X27564Y13672D01*
X27665Y13773D01*
X27720Y13905D01*
X27720Y13923D01*
X28826Y13923D01*
X28805Y13902D01*
X28746Y13759D01*
X28745Y13605D01*
X28804Y13462D01*
X28831Y13435D01*
X28805Y13409D01*
X28746Y13266D01*
X28745Y13112D01*
X28804Y12969D01*
X28913Y12860D01*
X29056Y12801D01*
X29210Y12800D01*
X29353Y12859D01*
X29462Y12968D01*
X29521Y13111D01*
X29522Y13265D01*
X29463Y13408D01*
X29436Y13435D01*
X29462Y13461D01*
X29521Y13604D01*
X29522Y13758D01*
X29463Y13901D01*
X29441Y13923D01*
X29875Y13923D01*
X30241Y13557D01*
X30281Y13462D01*
X30390Y13352D01*
X30532Y13293D01*
X30687Y13293D01*
X30829Y13352D01*
X30939Y13461D01*
X30998Y13603D01*
X30998Y13758D01*
X30939Y13901D01*
X30830Y14010D01*
X30734Y14049D01*
X30604Y14179D01*
X30604Y16612D01*
X30545Y16755D01*
X30436Y16864D01*
X30294Y16923D01*
X30210Y16923D01*
X30210Y17400D01*
X30152Y17542D01*
X30042Y17651D01*
X29900Y17711D01*
X29746Y17711D01*
X29603Y17652D01*
X29494Y17543D01*
X29434Y17400D01*
X29434Y17246D01*
X29493Y17103D01*
X29602Y16994D01*
X29745Y16935D01*
X29899Y16935D01*
X30042Y16994D01*
X30151Y17103D01*
X30210Y17245D01*
X30210Y17400D01*
X30210Y16923D01*
X30139Y16923D01*
X29997Y16864D01*
X29887Y16755D01*
X29828Y16613D01*
X29828Y16458D01*
X29887Y16316D01*
X29920Y16283D01*
X29898Y16274D01*
X29789Y16165D01*
X29730Y16022D01*
X29730Y15868D01*
X29789Y15725D01*
X29898Y15616D01*
X30040Y15557D01*
X30195Y15557D01*
X30337Y15616D01*
X30446Y15725D01*
X30506Y15867D01*
X30506Y16022D01*
X30447Y16164D01*
X30414Y16197D01*
X30436Y16206D01*
X30545Y16315D01*
X30604Y16458D01*
X30604Y16612D01*
X30604Y14179D01*
X30266Y14518D01*
X30153Y14594D01*
X30019Y14620D01*
X28833Y14620D01*
X28833Y15923D01*
X28774Y16066D01*
X28665Y16175D01*
X28522Y16234D01*
X28368Y16234D01*
X28257Y16189D01*
X28242Y16204D01*
X28242Y17104D01*
X28183Y17247D01*
X28074Y17356D01*
X27931Y17415D01*
X27777Y17416D01*
X27634Y17357D01*
X27525Y17248D01*
X27466Y17105D01*
X27466Y16951D01*
X27525Y16808D01*
X27634Y16699D01*
X27776Y16640D01*
X27931Y16639D01*
X28073Y16698D01*
X28183Y16807D01*
X28242Y16950D01*
X28242Y17104D01*
X28242Y16204D01*
X28172Y16274D01*
X28030Y16333D01*
X27875Y16333D01*
X27733Y16274D01*
X27624Y16165D01*
X27564Y16022D01*
X27564Y15868D01*
X27623Y15725D01*
X27732Y15616D01*
X27875Y15557D01*
X28029Y15557D01*
X28140Y15602D01*
X28224Y15518D01*
X28367Y15458D01*
X28521Y15458D01*
X28664Y15517D01*
X28773Y15626D01*
X28832Y15769D01*
X28833Y15923D01*
X28833Y14620D01*
X28537Y14620D01*
X28537Y14742D01*
X28478Y14885D01*
X28369Y14994D01*
X28227Y15053D01*
X28072Y15053D01*
X27930Y14994D01*
X27820Y14885D01*
X27761Y14743D01*
X27761Y14620D01*
X26864Y14620D01*
X26864Y17695D01*
X26805Y17838D01*
X26696Y17947D01*
X26553Y18006D01*
X26399Y18006D01*
X26256Y17947D01*
X26147Y17838D01*
X26088Y17696D01*
X26088Y17541D01*
X26147Y17399D01*
X26256Y17289D01*
X26398Y17230D01*
X26553Y17230D01*
X26695Y17289D01*
X26805Y17398D01*
X26864Y17540D01*
X26864Y17695D01*
X26864Y14620D01*
X26586Y14620D01*
X26608Y14642D01*
X26667Y14785D01*
X26667Y14939D01*
X26608Y15082D01*
X26499Y15191D01*
X26357Y15250D01*
X26202Y15250D01*
X26077Y15198D01*
X26077Y16022D01*
X26018Y16164D01*
X25978Y16204D01*
X25978Y17104D01*
X25919Y17247D01*
X25810Y17356D01*
X25668Y17415D01*
X25513Y17416D01*
X25371Y17357D01*
X25261Y17248D01*
X25202Y17105D01*
X25202Y16951D01*
X25261Y16808D01*
X25370Y16699D01*
X25513Y16640D01*
X25667Y16639D01*
X25810Y16698D01*
X25919Y16807D01*
X25978Y16950D01*
X25978Y17104D01*
X25978Y16204D01*
X25909Y16274D01*
X25766Y16333D01*
X25612Y16333D01*
X25469Y16274D01*
X25360Y16165D01*
X25301Y16022D01*
X25300Y15868D01*
X25359Y15725D01*
X25468Y15616D01*
X25611Y15557D01*
X25765Y15557D01*
X25908Y15616D01*
X26017Y15725D01*
X26076Y15867D01*
X26077Y16022D01*
X26077Y15198D01*
X26060Y15191D01*
X25950Y15082D01*
X25897Y14955D01*
X25809Y14955D01*
X25666Y14896D01*
X25557Y14787D01*
X25497Y14644D01*
X25497Y14490D01*
X25537Y14394D01*
X25537Y13734D01*
X25467Y13734D01*
X25372Y13774D01*
X25218Y13774D01*
X25122Y13734D01*
X24849Y13734D01*
X24655Y13927D01*
X24542Y14003D01*
X24409Y14030D01*
X24403Y14030D01*
X24403Y14939D01*
X24344Y15082D01*
X24235Y15191D01*
X24177Y15215D01*
X24177Y17394D01*
X24122Y17525D01*
X24022Y17626D01*
X23890Y17681D01*
X23748Y17681D01*
X23616Y17627D01*
X23515Y17526D01*
X23460Y17394D01*
X23460Y17386D01*
X23452Y17386D01*
X23419Y17372D01*
X23419Y18187D01*
X23360Y18330D01*
X23251Y18439D01*
X23109Y18498D01*
X22954Y18498D01*
X22812Y18439D01*
X22702Y18330D01*
X22643Y18188D01*
X22643Y18033D01*
X22702Y17891D01*
X22811Y17781D01*
X22954Y17722D01*
X23108Y17722D01*
X23251Y17781D01*
X23360Y17890D01*
X23419Y18033D01*
X23419Y18187D01*
X23419Y17372D01*
X23321Y17331D01*
X23220Y17231D01*
X23165Y17099D01*
X23165Y16957D01*
X23219Y16825D01*
X23320Y16724D01*
X23452Y16669D01*
X23594Y16669D01*
X23726Y16724D01*
X23827Y16824D01*
X23881Y16956D01*
X23881Y16964D01*
X23889Y16964D01*
X24021Y17019D01*
X24122Y17120D01*
X24177Y17251D01*
X24177Y17394D01*
X24177Y15215D01*
X24093Y15250D01*
X23938Y15250D01*
X23818Y15201D01*
X23699Y15250D01*
X23676Y15250D01*
X23630Y15360D01*
X23530Y15461D01*
X23398Y15516D01*
X23255Y15516D01*
X23124Y15461D01*
X23023Y15361D01*
X22968Y15229D01*
X22968Y15086D01*
X23022Y14955D01*
X23115Y14862D01*
X23023Y14770D01*
X22968Y14638D01*
X22968Y14496D01*
X23022Y14364D01*
X23123Y14263D01*
X23255Y14209D01*
X23397Y14209D01*
X23529Y14263D01*
X23630Y14364D01*
X23676Y14474D01*
X23698Y14474D01*
X23819Y14524D01*
X23938Y14474D01*
X24092Y14474D01*
X24235Y14533D01*
X24344Y14642D01*
X24403Y14785D01*
X24403Y14939D01*
X24403Y14030D01*
X23326Y14030D01*
X23193Y14003D01*
X23080Y13927D01*
X22799Y13646D01*
X22799Y14835D01*
X22744Y14966D01*
X22644Y15067D01*
X22512Y15122D01*
X22370Y15122D01*
X22238Y15068D01*
X22137Y14967D01*
X22082Y14835D01*
X22082Y14693D01*
X22137Y14561D01*
X22237Y14460D01*
X22369Y14405D01*
X22511Y14405D01*
X22643Y14460D01*
X22744Y14560D01*
X22799Y14692D01*
X22799Y14835D01*
X22799Y13646D01*
X21913Y12760D01*
X21913Y15425D01*
X21858Y15557D01*
X21758Y15658D01*
X21626Y15713D01*
X21484Y15713D01*
X21352Y15658D01*
X21254Y15561D01*
X21254Y18285D01*
X21195Y18428D01*
X21086Y18537D01*
X20943Y18596D01*
X20789Y18597D01*
X20646Y18538D01*
X20537Y18429D01*
X20478Y18286D01*
X20478Y18132D01*
X20537Y17989D01*
X20646Y17880D01*
X20788Y17821D01*
X20943Y17820D01*
X21085Y17879D01*
X21194Y17988D01*
X21254Y18131D01*
X21254Y18285D01*
X21254Y15561D01*
X21251Y15558D01*
X21196Y15426D01*
X21196Y15284D01*
X21251Y15152D01*
X21351Y15051D01*
X21483Y14996D01*
X21625Y14996D01*
X21757Y15051D01*
X21858Y15151D01*
X21913Y15283D01*
X21913Y15425D01*
X21913Y12760D01*
X21702Y12549D01*
X21648Y12468D01*
X21648Y13758D01*
X21589Y13901D01*
X21480Y14010D01*
X21337Y14069D01*
X21183Y14070D01*
X21040Y14011D01*
X20931Y13902D01*
X20872Y13759D01*
X20871Y13605D01*
X20930Y13462D01*
X21039Y13353D01*
X21182Y13294D01*
X21336Y13293D01*
X21479Y13352D01*
X21588Y13461D01*
X21647Y13604D01*
X21648Y13758D01*
X21648Y12468D01*
X21641Y12458D01*
X21626Y12464D01*
X21484Y12465D01*
X21352Y12410D01*
X21251Y12309D01*
X21196Y12178D01*
X21196Y12035D01*
X21251Y11904D01*
X21351Y11803D01*
X21483Y11748D01*
X21491Y11748D01*
X21308Y11565D01*
X21233Y11452D01*
X21206Y11319D01*
X21206Y10624D01*
X21084Y10624D01*
X20981Y10581D01*
X20466Y10581D01*
X20466Y18778D01*
X20407Y18920D01*
X20298Y19029D01*
X20156Y19089D01*
X20001Y19089D01*
X19859Y19030D01*
X19750Y18921D01*
X19690Y18778D01*
X19690Y18624D01*
X19749Y18481D01*
X19858Y18372D01*
X20001Y18313D01*
X20155Y18313D01*
X20298Y18372D01*
X20407Y18481D01*
X20466Y18623D01*
X20466Y18778D01*
X20466Y10581D01*
X20437Y10581D01*
X20437Y16311D01*
X20383Y16443D01*
X20282Y16544D01*
X20150Y16599D01*
X20008Y16599D01*
X19876Y16544D01*
X19775Y16444D01*
X19758Y16402D01*
X19713Y16402D01*
X19581Y16347D01*
X19480Y16247D01*
X19463Y16205D01*
X19417Y16205D01*
X19285Y16150D01*
X19184Y16050D01*
X19129Y15918D01*
X19129Y15872D01*
X19088Y15855D01*
X18987Y15755D01*
X18933Y15623D01*
X18933Y15481D01*
X18987Y15349D01*
X19088Y15248D01*
X19219Y15193D01*
X19362Y15193D01*
X19494Y15248D01*
X19594Y15348D01*
X19649Y15480D01*
X19649Y15526D01*
X19690Y15543D01*
X19791Y15643D01*
X19808Y15685D01*
X19854Y15685D01*
X19986Y15740D01*
X20087Y15840D01*
X20104Y15882D01*
X20150Y15882D01*
X20281Y15936D01*
X20382Y16037D01*
X20437Y16169D01*
X20437Y16311D01*
X20437Y10581D01*
X19846Y10581D01*
X19846Y14244D01*
X19792Y14376D01*
X19691Y14477D01*
X19559Y14531D01*
X19551Y14531D01*
X19551Y14539D01*
X19496Y14671D01*
X19396Y14772D01*
X19264Y14827D01*
X19122Y14827D01*
X18990Y14772D01*
X18889Y14672D01*
X18834Y14540D01*
X18834Y14397D01*
X18889Y14266D01*
X18989Y14165D01*
X19121Y14110D01*
X19129Y14110D01*
X19129Y14102D01*
X19184Y13970D01*
X19285Y13870D01*
X19416Y13815D01*
X19559Y13815D01*
X19690Y13869D01*
X19791Y13970D01*
X19846Y14102D01*
X19846Y14244D01*
X19846Y10581D01*
X18960Y10581D01*
X18960Y11685D01*
X18906Y11817D01*
X18805Y11918D01*
X18674Y11972D01*
X18531Y11972D01*
X18399Y11918D01*
X18298Y11817D01*
X18244Y11686D01*
X18244Y11543D01*
X18298Y11411D01*
X18399Y11311D01*
X18530Y11256D01*
X18673Y11256D01*
X18805Y11310D01*
X18905Y11411D01*
X18960Y11542D01*
X18960Y11685D01*
X18960Y10581D01*
X17878Y10581D01*
X17878Y13654D01*
X17823Y13785D01*
X17722Y13886D01*
X17591Y13941D01*
X17582Y13941D01*
X17582Y13949D01*
X17528Y14081D01*
X17427Y14181D01*
X17296Y14236D01*
X17153Y14236D01*
X17021Y14182D01*
X16920Y14081D01*
X16866Y13949D01*
X16866Y13807D01*
X16920Y13675D01*
X17021Y13574D01*
X17152Y13520D01*
X17161Y13520D01*
X17161Y13512D01*
X17215Y13380D01*
X17316Y13279D01*
X17448Y13224D01*
X17590Y13224D01*
X17722Y13279D01*
X17823Y13379D01*
X17877Y13511D01*
X17878Y13654D01*
X17878Y10581D01*
X16740Y10581D01*
X16836Y10621D01*
X16880Y10665D01*
X17000Y10665D01*
X17076Y10697D01*
X17152Y10665D01*
X17295Y10665D01*
X17427Y10720D01*
X17528Y10820D01*
X17582Y10952D01*
X17582Y11094D01*
X17528Y11226D01*
X17427Y11327D01*
X17296Y11382D01*
X17218Y11382D01*
X17218Y13069D01*
X17159Y13212D01*
X17050Y13321D01*
X16908Y13380D01*
X16753Y13380D01*
X16726Y13369D01*
X16726Y18778D01*
X16667Y18920D01*
X16558Y19029D01*
X16416Y19089D01*
X16261Y19089D01*
X16119Y19030D01*
X16043Y18954D01*
X15968Y19029D01*
X15825Y19089D01*
X15671Y19089D01*
X15528Y19030D01*
X15452Y18954D01*
X15377Y19029D01*
X15235Y19089D01*
X15080Y19089D01*
X14938Y19030D01*
X14862Y18954D01*
X14787Y19029D01*
X14644Y19089D01*
X14490Y19089D01*
X14347Y19030D01*
X14271Y18954D01*
X14196Y19029D01*
X14053Y19089D01*
X13899Y19089D01*
X13756Y19030D01*
X13647Y18921D01*
X13588Y18778D01*
X13588Y18624D01*
X13647Y18481D01*
X13756Y18372D01*
X13898Y18313D01*
X14053Y18313D01*
X14195Y18372D01*
X14271Y18447D01*
X14346Y18372D01*
X14489Y18313D01*
X14643Y18313D01*
X14786Y18372D01*
X14862Y18447D01*
X14937Y18372D01*
X15080Y18313D01*
X15234Y18313D01*
X15377Y18372D01*
X15452Y18447D01*
X15528Y18372D01*
X15670Y18313D01*
X15824Y18313D01*
X15967Y18372D01*
X16043Y18447D01*
X16118Y18372D01*
X16261Y18313D01*
X16415Y18313D01*
X16558Y18372D01*
X16667Y18481D01*
X16726Y18623D01*
X16726Y18778D01*
X16726Y13369D01*
X16611Y13321D01*
X16502Y13212D01*
X16442Y13070D01*
X16442Y12915D01*
X16501Y12773D01*
X16610Y12663D01*
X16753Y12604D01*
X16907Y12604D01*
X17050Y12663D01*
X17159Y12772D01*
X17218Y12915D01*
X17218Y13069D01*
X17218Y11382D01*
X17153Y11382D01*
X17076Y11350D01*
X17000Y11382D01*
X16858Y11382D01*
X16726Y11327D01*
X16682Y11283D01*
X16562Y11283D01*
X16431Y11229D01*
X16330Y11128D01*
X16313Y11087D01*
X16267Y11087D01*
X16144Y11036D01*
X16049Y11130D01*
X15918Y11185D01*
X15775Y11185D01*
X15643Y11131D01*
X15542Y11030D01*
X15488Y10898D01*
X15488Y10778D01*
X15444Y10735D01*
X15389Y10603D01*
X15389Y10581D01*
X14728Y10581D01*
X14728Y11291D01*
X14674Y11423D01*
X14659Y11437D01*
X14659Y12970D01*
X14600Y13113D01*
X14491Y13222D01*
X14415Y13254D01*
X14474Y13279D01*
X14575Y13379D01*
X14629Y13511D01*
X14630Y13654D01*
X14598Y13730D01*
X14629Y13806D01*
X14630Y13949D01*
X14598Y14026D01*
X14629Y14102D01*
X14630Y14244D01*
X14598Y14321D01*
X14629Y14397D01*
X14630Y14539D01*
X14598Y14616D01*
X14629Y14692D01*
X14630Y14835D01*
X14598Y14911D01*
X14629Y14987D01*
X14630Y15130D01*
X14598Y15207D01*
X14629Y15283D01*
X14630Y15425D01*
X14575Y15557D01*
X14474Y15658D01*
X14343Y15712D01*
X14200Y15713D01*
X14069Y15658D01*
X13968Y15557D01*
X13913Y15426D01*
X13913Y15283D01*
X13945Y15207D01*
X13913Y15131D01*
X13913Y14988D01*
X13945Y14911D01*
X13913Y14835D01*
X13913Y14693D01*
X13945Y14616D01*
X13913Y14540D01*
X13913Y14397D01*
X13945Y14321D01*
X13913Y14245D01*
X13913Y14102D01*
X13945Y14025D01*
X13913Y13949D01*
X13913Y13807D01*
X13945Y13730D01*
X13913Y13654D01*
X13913Y13512D01*
X13967Y13380D01*
X14068Y13279D01*
X14128Y13254D01*
X14052Y13223D01*
X13942Y13114D01*
X13883Y12971D01*
X13883Y12817D01*
X13942Y12674D01*
X14051Y12565D01*
X14194Y12506D01*
X14348Y12506D01*
X14491Y12564D01*
X14600Y12674D01*
X14659Y12816D01*
X14659Y12970D01*
X14659Y11437D01*
X14573Y11524D01*
X14441Y11579D01*
X14299Y11579D01*
X14167Y11524D01*
X14066Y11424D01*
X14011Y11292D01*
X14011Y11149D01*
X14066Y11018D01*
X14166Y10917D01*
X14298Y10862D01*
X14441Y10862D01*
X14572Y10916D01*
X14673Y11017D01*
X14728Y11149D01*
X14728Y11291D01*
X14728Y10581D01*
X13980Y10581D01*
X13949Y10594D01*
X13807Y10594D01*
X13775Y10581D01*
X13350Y10581D01*
X13350Y16114D01*
X13295Y16246D01*
X13195Y16347D01*
X13063Y16402D01*
X13018Y16402D01*
X13000Y16443D01*
X12900Y16544D01*
X12768Y16599D01*
X12737Y16599D01*
X12801Y16625D01*
X12902Y16726D01*
X12956Y16857D01*
X12956Y17000D01*
X12902Y17132D01*
X12801Y17233D01*
X12670Y17287D01*
X12527Y17287D01*
X12494Y17274D01*
X12494Y17695D01*
X12435Y17838D01*
X12326Y17947D01*
X12183Y18006D01*
X12029Y18006D01*
X11886Y17947D01*
X11777Y17838D01*
X11718Y17696D01*
X11718Y17541D01*
X11777Y17399D01*
X11886Y17289D01*
X12028Y17230D01*
X12183Y17230D01*
X12325Y17289D01*
X12435Y17398D01*
X12494Y17540D01*
X12494Y17695D01*
X12494Y17274D01*
X12395Y17233D01*
X12294Y17132D01*
X12240Y17001D01*
X12240Y16858D01*
X12294Y16726D01*
X12395Y16625D01*
X12526Y16571D01*
X12558Y16571D01*
X12494Y16544D01*
X12393Y16444D01*
X12375Y16401D01*
X12374Y16401D01*
X12232Y16402D01*
X12199Y16388D01*
X12199Y16711D01*
X12140Y16853D01*
X12031Y16962D01*
X11888Y17022D01*
X11734Y17022D01*
X11609Y16970D01*
X11609Y17596D01*
X11550Y17739D01*
X11441Y17848D01*
X11298Y17907D01*
X11144Y17908D01*
X11001Y17849D01*
X10892Y17740D01*
X10833Y17597D01*
X10832Y17443D01*
X10890Y17303D01*
X10818Y17231D01*
X10763Y17099D01*
X10763Y16957D01*
X10818Y16825D01*
X10918Y16724D01*
X11050Y16670D01*
X11193Y16669D01*
X11324Y16724D01*
X11425Y16825D01*
X11480Y16956D01*
X11480Y17099D01*
X11441Y17192D01*
X11549Y17299D01*
X11608Y17442D01*
X11609Y17596D01*
X11609Y16970D01*
X11591Y16963D01*
X11482Y16854D01*
X11423Y16711D01*
X11423Y16557D01*
X11481Y16414D01*
X11591Y16305D01*
X11733Y16246D01*
X11887Y16246D01*
X12030Y16305D01*
X12139Y16414D01*
X12199Y16556D01*
X12199Y16711D01*
X12199Y16388D01*
X12100Y16347D01*
X11999Y16246D01*
X11945Y16115D01*
X11944Y15995D01*
X11901Y15951D01*
X11846Y15820D01*
X11846Y15677D01*
X11900Y15545D01*
X12001Y15444D01*
X12133Y15390D01*
X12275Y15390D01*
X12407Y15444D01*
X12508Y15545D01*
X12563Y15676D01*
X12563Y15796D01*
X12606Y15840D01*
X12624Y15883D01*
X12625Y15882D01*
X12670Y15882D01*
X12688Y15841D01*
X12788Y15740D01*
X12920Y15685D01*
X13062Y15685D01*
X13194Y15740D01*
X13295Y15840D01*
X13350Y15972D01*
X13350Y16114D01*
X13350Y10581D01*
X13055Y10581D01*
X13055Y12768D01*
X13000Y12899D01*
X12900Y13000D01*
X12768Y13055D01*
X12625Y13055D01*
X12494Y13001D01*
X12393Y12900D01*
X12338Y12768D01*
X12338Y12626D01*
X12393Y12494D01*
X12493Y12393D01*
X12625Y12339D01*
X12767Y12338D01*
X12899Y12393D01*
X13000Y12494D01*
X13055Y12625D01*
X13055Y12768D01*
X13055Y10581D01*
X11972Y10581D01*
X11972Y11685D01*
X11918Y11817D01*
X11817Y11918D01*
X11775Y11935D01*
X11775Y11936D01*
X11775Y12079D01*
X11721Y12210D01*
X11620Y12311D01*
X11488Y12366D01*
X11346Y12366D01*
X11214Y12312D01*
X11113Y12211D01*
X11059Y12079D01*
X11059Y11937D01*
X11113Y11805D01*
X11214Y11704D01*
X11256Y11687D01*
X11256Y11686D01*
X11255Y11543D01*
X11310Y11411D01*
X11411Y11311D01*
X11542Y11256D01*
X11685Y11256D01*
X11816Y11310D01*
X11917Y11411D01*
X11972Y11542D01*
X11972Y11685D01*
X11972Y10581D01*
X11859Y10581D01*
X11859Y6500D01*
X11846Y6469D01*
X11846Y6327D01*
X11859Y6295D01*
X11859Y5408D01*
X11832Y5408D01*
X11715Y5359D01*
X11746Y5390D01*
X11805Y5533D01*
X11805Y5687D01*
X11775Y5759D01*
X11775Y6468D01*
X11721Y6600D01*
X11620Y6701D01*
X11488Y6756D01*
X11346Y6756D01*
X11344Y6755D01*
X11327Y6797D01*
X11226Y6898D01*
X11168Y6922D01*
X11228Y6982D01*
X11283Y7113D01*
X11283Y7256D01*
X11239Y7363D01*
X11345Y7319D01*
X11488Y7319D01*
X11620Y7373D01*
X11720Y7474D01*
X11775Y7605D01*
X11775Y7748D01*
X11775Y9717D01*
X11721Y9848D01*
X11620Y9949D01*
X11488Y10004D01*
X11356Y10004D01*
X11381Y10066D01*
X11382Y10209D01*
X11327Y10340D01*
X11283Y10385D01*
X11283Y10504D01*
X11229Y10636D01*
X11185Y10680D01*
X11185Y10799D01*
X11130Y10931D01*
X11030Y11032D01*
X10898Y11086D01*
X10767Y11087D01*
X10832Y11113D01*
X10933Y11214D01*
X10988Y11346D01*
X10988Y11488D01*
X10988Y12768D01*
X10933Y12899D01*
X10919Y12914D01*
X10919Y14841D01*
X10860Y14983D01*
X10751Y15092D01*
X10609Y15152D01*
X10454Y15152D01*
X10312Y15093D01*
X10202Y14984D01*
X10143Y14841D01*
X10143Y14687D01*
X10202Y14544D01*
X10311Y14435D01*
X10454Y14376D01*
X10608Y14376D01*
X10751Y14435D01*
X10860Y14544D01*
X10919Y14686D01*
X10919Y14841D01*
X10919Y12914D01*
X10833Y13000D01*
X10701Y13055D01*
X10559Y13055D01*
X10427Y13001D01*
X10326Y12900D01*
X10271Y12768D01*
X10271Y12626D01*
X10326Y12494D01*
X10426Y12393D01*
X10558Y12339D01*
X10700Y12338D01*
X10832Y12393D01*
X10933Y12494D01*
X10988Y12625D01*
X10988Y12768D01*
X10988Y11488D01*
X10933Y11620D01*
X10833Y11721D01*
X10701Y11775D01*
X10559Y11776D01*
X10427Y11721D01*
X10326Y11620D01*
X10271Y11489D01*
X10271Y11346D01*
X10297Y11283D01*
X10165Y11283D01*
X10132Y11270D01*
X10132Y15332D01*
X10132Y16827D01*
X10073Y16970D01*
X9964Y17079D01*
X9821Y17138D01*
X9667Y17139D01*
X9524Y17080D01*
X9415Y16971D01*
X9356Y16828D01*
X9355Y16674D01*
X9414Y16531D01*
X9523Y16422D01*
X9666Y16363D01*
X9820Y16362D01*
X9963Y16421D01*
X10072Y16530D01*
X10131Y16673D01*
X10132Y16827D01*
X10132Y15332D01*
X10073Y15475D01*
X9964Y15584D01*
X9821Y15643D01*
X9667Y15644D01*
X9524Y15585D01*
X9415Y15476D01*
X9356Y15333D01*
X9355Y15179D01*
X9414Y15036D01*
X9523Y14927D01*
X9666Y14868D01*
X9820Y14867D01*
X9963Y14926D01*
X10072Y15035D01*
X10131Y15178D01*
X10132Y15332D01*
X10132Y11270D01*
X10033Y11229D01*
X9935Y11131D01*
X9935Y11592D01*
X9876Y11735D01*
X9767Y11844D01*
X9624Y11904D01*
X9470Y11904D01*
X9345Y11852D01*
X9345Y14939D01*
X9286Y15082D01*
X9177Y15191D01*
X9034Y15250D01*
X8880Y15251D01*
X8737Y15192D01*
X8628Y15083D01*
X8569Y14940D01*
X8568Y14786D01*
X8627Y14643D01*
X8736Y14534D01*
X8879Y14475D01*
X9033Y14474D01*
X9176Y14533D01*
X9285Y14642D01*
X9344Y14785D01*
X9345Y14939D01*
X9345Y11852D01*
X9327Y11845D01*
X9218Y11736D01*
X9159Y11593D01*
X9159Y11439D01*
X9218Y11296D01*
X9327Y11187D01*
X9469Y11128D01*
X9624Y11128D01*
X9766Y11187D01*
X9876Y11296D01*
X9935Y11438D01*
X9935Y11592D01*
X9935Y11131D01*
X9932Y11128D01*
X9878Y10997D01*
X9877Y10854D01*
X9932Y10722D01*
X10033Y10622D01*
X10164Y10567D01*
X10307Y10567D01*
X10438Y10621D01*
X10470Y10653D01*
X10522Y10526D01*
X10567Y10481D01*
X10566Y10362D01*
X10621Y10230D01*
X10665Y10186D01*
X10665Y10067D01*
X10719Y9935D01*
X10820Y9834D01*
X10952Y9779D01*
X11085Y9779D01*
X11059Y9717D01*
X11059Y9575D01*
X11113Y9443D01*
X11214Y9342D01*
X11345Y9287D01*
X11488Y9287D01*
X11620Y9342D01*
X11720Y9442D01*
X11775Y9574D01*
X11775Y9717D01*
X11775Y7748D01*
X11721Y7880D01*
X11677Y7924D01*
X11677Y8831D01*
X11622Y8962D01*
X11522Y9063D01*
X11390Y9118D01*
X11248Y9118D01*
X11116Y9064D01*
X11015Y8963D01*
X10960Y8831D01*
X10960Y8689D01*
X11015Y8557D01*
X11115Y8456D01*
X11247Y8402D01*
X11389Y8401D01*
X11521Y8456D01*
X11622Y8557D01*
X11677Y8688D01*
X11677Y8831D01*
X11677Y7924D01*
X11620Y7981D01*
X11488Y8035D01*
X11346Y8035D01*
X11214Y7981D01*
X11113Y7880D01*
X11059Y7749D01*
X11059Y7606D01*
X11103Y7499D01*
X10996Y7543D01*
X10854Y7543D01*
X10791Y7517D01*
X10791Y7945D01*
X10737Y8077D01*
X10636Y8177D01*
X10504Y8232D01*
X10362Y8232D01*
X10230Y8178D01*
X10129Y8077D01*
X10074Y7945D01*
X10074Y7803D01*
X10129Y7671D01*
X10229Y7570D01*
X10361Y7516D01*
X10504Y7516D01*
X10635Y7570D01*
X10736Y7671D01*
X10791Y7802D01*
X10791Y7945D01*
X10791Y7517D01*
X10722Y7489D01*
X10621Y7388D01*
X10567Y7257D01*
X10566Y7114D01*
X10621Y6982D01*
X10722Y6881D01*
X10779Y6857D01*
X10720Y6798D01*
X10665Y6666D01*
X10665Y6523D01*
X10719Y6392D01*
X10820Y6291D01*
X10952Y6236D01*
X11094Y6236D01*
X11096Y6237D01*
X11113Y6195D01*
X11214Y6094D01*
X11345Y6039D01*
X11488Y6039D01*
X11620Y6094D01*
X11720Y6194D01*
X11775Y6326D01*
X11775Y6468D01*
X11775Y5759D01*
X11746Y5830D01*
X11637Y5939D01*
X11494Y5998D01*
X11340Y5998D01*
X11197Y5939D01*
X11088Y5830D01*
X11029Y5688D01*
X11029Y5533D01*
X11088Y5391D01*
X11197Y5281D01*
X11339Y5222D01*
X11494Y5222D01*
X11611Y5271D01*
X11580Y5240D01*
X11521Y5097D01*
X11521Y4943D01*
X11580Y4800D01*
X11689Y4691D01*
X11832Y4632D01*
X11859Y4632D01*
X11859Y1333D01*
X10722Y1333D01*
X10722Y1349D01*
X10871Y1410D01*
X10991Y1530D01*
X11056Y1687D01*
X11057Y1857D01*
X10992Y2014D01*
X10872Y2134D01*
X10715Y2199D01*
X10545Y2200D01*
X10496Y2179D01*
X10496Y3713D01*
X10441Y3844D01*
X10341Y3945D01*
X10209Y4000D01*
X10066Y4000D01*
X9935Y3946D01*
X9834Y3845D01*
X9779Y3713D01*
X9779Y3571D01*
X9833Y3439D01*
X9934Y3338D01*
X10066Y3283D01*
X10208Y3283D01*
X10340Y3338D01*
X10441Y3438D01*
X10496Y3570D01*
X10496Y3713D01*
X10496Y2179D01*
X10388Y2135D01*
X10268Y2015D01*
X10203Y1858D01*
X10202Y1743D01*
X10115Y1707D01*
X10005Y1598D01*
X9946Y1455D01*
X9946Y1301D01*
X10005Y1158D01*
X10060Y1104D01*
X9698Y742D01*
X9344Y742D01*
X9344Y7655D01*
X9285Y7798D01*
X9176Y7907D01*
X9034Y7967D01*
X8879Y7967D01*
X8737Y7908D01*
X8628Y7799D01*
X8575Y7671D01*
X8486Y7671D01*
X8360Y7620D01*
X8360Y10707D01*
X8301Y10849D01*
X8192Y10959D01*
X8163Y10971D01*
X8163Y12675D01*
X8104Y12818D01*
X7995Y12927D01*
X7853Y12986D01*
X7698Y12986D01*
X7556Y12927D01*
X7446Y12818D01*
X7387Y12676D01*
X7387Y12521D01*
X7446Y12379D01*
X7555Y12270D01*
X7698Y12210D01*
X7852Y12210D01*
X7995Y12269D01*
X8104Y12378D01*
X8163Y12521D01*
X8163Y12675D01*
X8163Y10971D01*
X8050Y11018D01*
X7895Y11018D01*
X7753Y10959D01*
X7643Y10850D01*
X7584Y10707D01*
X7584Y10553D01*
X7643Y10410D01*
X7752Y10301D01*
X7895Y10242D01*
X8049Y10242D01*
X8192Y10301D01*
X8301Y10410D01*
X8360Y10552D01*
X8360Y10707D01*
X8360Y7620D01*
X8343Y7612D01*
X8234Y7503D01*
X8175Y7361D01*
X8175Y7207D01*
X8233Y7064D01*
X8309Y6988D01*
X8234Y6913D01*
X8175Y6770D01*
X8175Y6616D01*
X8233Y6473D01*
X8309Y6398D01*
X8234Y6322D01*
X8175Y6180D01*
X8175Y6025D01*
X8233Y5883D01*
X8309Y5807D01*
X8234Y5732D01*
X8175Y5589D01*
X8175Y5435D01*
X8233Y5292D01*
X8342Y5183D01*
X8485Y5124D01*
X8639Y5124D01*
X8782Y5183D01*
X8891Y5292D01*
X8951Y5434D01*
X8951Y5589D01*
X8892Y5731D01*
X8816Y5807D01*
X8891Y5882D01*
X8951Y6025D01*
X8951Y6179D01*
X8892Y6322D01*
X8816Y6398D01*
X8891Y6473D01*
X8951Y6615D01*
X8951Y6770D01*
X8892Y6912D01*
X8816Y6988D01*
X8891Y7063D01*
X8944Y7191D01*
X9033Y7191D01*
X9176Y7250D01*
X9285Y7359D01*
X9344Y7501D01*
X9344Y7655D01*
X9344Y742D01*
X8313Y742D01*
X7864Y1192D01*
X7868Y1202D01*
X7868Y1356D01*
X7809Y1499D01*
X7753Y1555D01*
X7808Y1687D01*
X7809Y1857D01*
X7744Y2014D01*
X7624Y2134D01*
X7467Y2199D01*
X7297Y2200D01*
X7140Y2135D01*
X7081Y2075D01*
X7081Y4703D01*
X7022Y4845D01*
X6982Y4885D01*
X6982Y5687D01*
X6923Y5830D01*
X6814Y5939D01*
X6672Y5998D01*
X6517Y5998D01*
X6392Y5946D01*
X6392Y9427D01*
X6333Y9570D01*
X6224Y9679D01*
X6081Y9738D01*
X5927Y9739D01*
X5784Y9680D01*
X5675Y9571D01*
X5616Y9428D01*
X5615Y9274D01*
X5674Y9131D01*
X5783Y9022D01*
X5926Y8963D01*
X6080Y8962D01*
X6223Y9021D01*
X6332Y9130D01*
X6391Y9273D01*
X6392Y9427D01*
X6392Y5946D01*
X6375Y5939D01*
X6265Y5830D01*
X6206Y5688D01*
X6206Y5533D01*
X6265Y5391D01*
X6374Y5281D01*
X6517Y5222D01*
X6671Y5222D01*
X6814Y5281D01*
X6923Y5390D01*
X6982Y5533D01*
X6982Y5687D01*
X6982Y4885D01*
X6913Y4955D01*
X6770Y5014D01*
X6616Y5014D01*
X6473Y4955D01*
X6364Y4846D01*
X6305Y4703D01*
X6304Y4549D01*
X6363Y4406D01*
X6472Y4297D01*
X6615Y4238D01*
X6769Y4238D01*
X6912Y4297D01*
X7021Y4406D01*
X7080Y4548D01*
X7081Y4703D01*
X7081Y2075D01*
X7020Y2015D01*
X6955Y1858D01*
X6954Y1688D01*
X7019Y1531D01*
X7122Y1428D01*
X7092Y1357D01*
X7092Y1203D01*
X7131Y1107D01*
X7131Y1083D01*
X7156Y959D01*
X7140Y953D01*
X7051Y864D01*
X7051Y1055D01*
X6996Y1187D01*
X6896Y1288D01*
X6764Y1342D01*
X6622Y1342D01*
X6490Y1288D01*
X6389Y1187D01*
X6334Y1056D01*
X6334Y913D01*
X6389Y781D01*
X6489Y681D01*
X6621Y626D01*
X6763Y626D01*
X6895Y680D01*
X6996Y781D01*
X7051Y913D01*
X7051Y1055D01*
X7051Y864D01*
X7020Y833D01*
X6955Y676D01*
X6954Y506D01*
X7019Y349D01*
X7023Y345D01*
X5407Y345D01*
X5407Y1061D01*
X5348Y1204D01*
X5309Y1243D01*
X5309Y13955D01*
X5250Y14097D01*
X5141Y14207D01*
X4998Y14266D01*
X4844Y14266D01*
X4701Y14207D01*
X4697Y14203D01*
X4659Y14294D01*
X4550Y14403D01*
X4408Y14463D01*
X4253Y14463D01*
X4111Y14404D01*
X4035Y14328D01*
X3960Y14403D01*
X3817Y14463D01*
X3663Y14463D01*
X3520Y14404D01*
X3411Y14295D01*
X3352Y14152D01*
X3352Y13998D01*
X3411Y13855D01*
X3520Y13746D01*
X3662Y13687D01*
X3817Y13687D01*
X3959Y13746D01*
X4035Y13821D01*
X4110Y13746D01*
X4253Y13687D01*
X4407Y13687D01*
X4550Y13746D01*
X4554Y13750D01*
X4592Y13658D01*
X4701Y13549D01*
X4843Y13490D01*
X4998Y13490D01*
X5140Y13549D01*
X5250Y13658D01*
X5309Y13800D01*
X5309Y13955D01*
X5309Y1243D01*
X5239Y1313D01*
X5210Y1325D01*
X5210Y5589D01*
X5152Y5731D01*
X5042Y5840D01*
X4900Y5900D01*
X4817Y5900D01*
X4817Y8738D01*
X4758Y8881D01*
X4649Y8990D01*
X4506Y9049D01*
X4352Y9050D01*
X4263Y9013D01*
X4263Y10222D01*
X4198Y10378D01*
X4128Y10448D01*
X4128Y12085D01*
X4069Y12227D01*
X3960Y12337D01*
X3817Y12396D01*
X3663Y12396D01*
X3520Y12337D01*
X3411Y12228D01*
X3352Y12085D01*
X3352Y11931D01*
X3411Y11788D01*
X3520Y11679D01*
X3662Y11620D01*
X3817Y11620D01*
X3959Y11679D01*
X4068Y11788D01*
X4128Y11930D01*
X4128Y12085D01*
X4128Y10448D01*
X4079Y10498D01*
X3922Y10562D01*
X3753Y10563D01*
X3597Y10498D01*
X3477Y10379D01*
X3413Y10222D01*
X3412Y10053D01*
X3477Y9897D01*
X3596Y9777D01*
X3753Y9713D01*
X3922Y9712D01*
X4078Y9777D01*
X4198Y9896D01*
X4262Y10053D01*
X4263Y10222D01*
X4263Y9013D01*
X4209Y8991D01*
X4100Y8882D01*
X4041Y8739D01*
X4040Y8585D01*
X4099Y8442D01*
X4208Y8333D01*
X4351Y8274D01*
X4505Y8273D01*
X4648Y8332D01*
X4757Y8441D01*
X4816Y8584D01*
X4817Y8738D01*
X4817Y5900D01*
X4746Y5900D01*
X4603Y5841D01*
X4494Y5732D01*
X4434Y5589D01*
X4434Y5435D01*
X4493Y5292D01*
X4602Y5183D01*
X4745Y5124D01*
X4899Y5124D01*
X5042Y5183D01*
X5151Y5292D01*
X5210Y5434D01*
X5210Y5589D01*
X5210Y1325D01*
X5097Y1372D01*
X4942Y1372D01*
X4800Y1313D01*
X4719Y1232D01*
X4719Y3226D01*
X4660Y3369D01*
X4551Y3478D01*
X4408Y3537D01*
X4254Y3538D01*
X4226Y3526D01*
X4226Y6376D01*
X4167Y6519D01*
X4058Y6628D01*
X3916Y6687D01*
X3761Y6687D01*
X3619Y6628D01*
X3509Y6519D01*
X3450Y6377D01*
X3450Y6222D01*
X3509Y6080D01*
X3618Y5970D01*
X3761Y5911D01*
X3915Y5911D01*
X4058Y5970D01*
X4167Y6079D01*
X4226Y6222D01*
X4226Y6376D01*
X4226Y3526D01*
X4111Y3479D01*
X4002Y3370D01*
X3943Y3227D01*
X3942Y3073D01*
X4001Y2930D01*
X4110Y2821D01*
X4253Y2762D01*
X4407Y2761D01*
X4550Y2820D01*
X4659Y2929D01*
X4718Y3072D01*
X4719Y3226D01*
X4719Y1232D01*
X4691Y1204D01*
X4631Y1062D01*
X4631Y907D01*
X4690Y765D01*
X4799Y655D01*
X4942Y596D01*
X5096Y596D01*
X5239Y655D01*
X5348Y764D01*
X5407Y907D01*
X5407Y1061D01*
X5407Y345D01*
X3144Y345D01*
X3144Y8344D01*
X3144Y8344D01*
X3144Y11100D01*
X3085Y11243D01*
X2976Y11352D01*
X2833Y11411D01*
X2679Y11412D01*
X2536Y11353D01*
X2427Y11244D01*
X2368Y11101D01*
X2367Y10947D01*
X2426Y10804D01*
X2535Y10695D01*
X2678Y10636D01*
X2832Y10635D01*
X2975Y10694D01*
X3084Y10803D01*
X3143Y10946D01*
X3144Y11100D01*
X3144Y8344D01*
X3085Y8487D01*
X2976Y8596D01*
X2833Y8655D01*
X2679Y8656D01*
X2536Y8597D01*
X2427Y8488D01*
X2368Y8345D01*
X2367Y8191D01*
X2426Y8048D01*
X2535Y7939D01*
X2678Y7880D01*
X2832Y7879D01*
X2975Y7938D01*
X3084Y8047D01*
X3143Y8190D01*
X3144Y8344D01*
X3144Y345D01*
X2750Y345D01*
X2750Y7459D01*
X2691Y7601D01*
X2582Y7711D01*
X2439Y7770D01*
X2285Y7770D01*
X2159Y7718D01*
X2159Y11199D01*
X2100Y11341D01*
X1991Y11451D01*
X1849Y11510D01*
X1694Y11510D01*
X1552Y11451D01*
X1442Y11342D01*
X1383Y11199D01*
X1383Y11045D01*
X1442Y10902D01*
X1551Y10793D01*
X1694Y10734D01*
X1848Y10734D01*
X1991Y10793D01*
X2100Y10902D01*
X2159Y11044D01*
X2159Y11199D01*
X2159Y7718D01*
X2142Y7711D01*
X2033Y7602D01*
X1974Y7459D01*
X1974Y7305D01*
X2033Y7162D01*
X2142Y7053D01*
X2284Y6994D01*
X2439Y6994D01*
X2581Y7053D01*
X2691Y7162D01*
X2750Y7304D01*
X2750Y7459D01*
X2750Y345D01*
X1336Y345D01*
X1336Y2550D01*
X1336Y3928D01*
X1336Y15936D01*
X1336Y17314D01*
X1267Y17479D01*
X1141Y17606D01*
X975Y17674D01*
X796Y17675D01*
X631Y17606D01*
X504Y17480D01*
X436Y17314D01*
X435Y17135D01*
X504Y16970D01*
X630Y16843D01*
X796Y16775D01*
X975Y16774D01*
X1140Y16843D01*
X1267Y16969D01*
X1335Y17135D01*
X1336Y17314D01*
X1336Y15936D01*
X1267Y16101D01*
X1141Y16228D01*
X975Y16296D01*
X796Y16297D01*
X631Y16228D01*
X504Y16102D01*
X436Y15936D01*
X435Y15757D01*
X504Y15592D01*
X630Y15465D01*
X796Y15397D01*
X975Y15396D01*
X1140Y15465D01*
X1267Y15591D01*
X1335Y15757D01*
X1336Y15936D01*
X1336Y3928D01*
X1273Y4078D01*
X1273Y9230D01*
X1215Y9373D01*
X1105Y9482D01*
X963Y9541D01*
X809Y9542D01*
X666Y9483D01*
X557Y9374D01*
X497Y9231D01*
X497Y9077D01*
X556Y8934D01*
X665Y8825D01*
X808Y8766D01*
X962Y8765D01*
X1105Y8824D01*
X1214Y8933D01*
X1273Y9076D01*
X1273Y9230D01*
X1273Y4078D01*
X1267Y4093D01*
X1141Y4220D01*
X975Y4288D01*
X796Y4289D01*
X631Y4220D01*
X504Y4094D01*
X436Y3928D01*
X435Y3749D01*
X504Y3584D01*
X630Y3457D01*
X796Y3389D01*
X975Y3388D01*
X1140Y3457D01*
X1267Y3583D01*
X1335Y3749D01*
X1336Y3928D01*
X1336Y2550D01*
X1267Y2715D01*
X1141Y2842D01*
X975Y2910D01*
X796Y2911D01*
X631Y2842D01*
X504Y2716D01*
X436Y2550D01*
X435Y2371D01*
X504Y2206D01*
X630Y2079D01*
X796Y2011D01*
X975Y2010D01*
X1140Y2079D01*
X1267Y2205D01*
X1335Y2371D01*
X1336Y2550D01*
X1336Y345D01*
X1103Y345D01*
X345Y1103D01*
X345Y5405D01*
X370Y5380D01*
X513Y5321D01*
X667Y5320D01*
X810Y5379D01*
X919Y5488D01*
X978Y5631D01*
X979Y5785D01*
X920Y5928D01*
X811Y6037D01*
X668Y6096D01*
X514Y6097D01*
X371Y6038D01*
X345Y6012D01*
X345Y18483D01*
X1201Y19340D01*
X4420Y19340D01*
X4395Y19315D01*
X4336Y19172D01*
X4335Y19018D01*
X4394Y18875D01*
X4503Y18766D01*
X4646Y18707D01*
X4800Y18706D01*
X4943Y18765D01*
X5052Y18874D01*
X5111Y19017D01*
X5112Y19171D01*
X5053Y19314D01*
X5027Y19340D01*
X5879Y19340D01*
X5878Y19187D01*
X5730Y19187D01*
X5587Y19128D01*
X5478Y19019D01*
X5419Y18877D01*
X5419Y18722D01*
X5478Y18580D01*
X5587Y18470D01*
X5729Y18411D01*
X5884Y18411D01*
X6026Y18470D01*
X6135Y18579D01*
X6195Y18722D01*
X6195Y18793D01*
X6319Y18742D01*
X6537Y18741D01*
X6740Y18825D01*
X6894Y18980D01*
X6978Y19182D01*
X6979Y19340D01*
X9816Y19340D01*
X9815Y19183D01*
X9899Y18980D01*
X10054Y18826D01*
X10256Y18742D01*
X10474Y18741D01*
X10677Y18825D01*
X10831Y18980D01*
X10915Y19182D01*
X10916Y19340D01*
X20974Y19340D01*
X20973Y19183D01*
X21057Y18980D01*
X21212Y18826D01*
X21414Y18742D01*
X21632Y18741D01*
X21835Y18825D01*
X21989Y18980D01*
X22073Y19182D01*
X22074Y19340D01*
X24911Y19340D01*
X24910Y19183D01*
X24994Y18980D01*
X25149Y18826D01*
X25351Y18742D01*
X25569Y18741D01*
X25772Y18825D01*
X25926Y18980D01*
X26010Y19182D01*
X26011Y19340D01*
X27301Y19340D01*
X27253Y19291D01*
X27215Y19199D01*
X27215Y19100D01*
X27215Y18400D01*
X27253Y18308D01*
X27323Y18238D01*
X27415Y18200D01*
X27514Y18200D01*
X28214Y18200D01*
X28306Y18238D01*
X28376Y18308D01*
X28400Y18365D01*
X28474Y18291D01*
X28695Y18200D01*
X28933Y18199D01*
X29154Y18291D01*
X29315Y18451D01*
X29474Y18291D01*
X29695Y18200D01*
X29933Y18199D01*
X30154Y18291D01*
X30315Y18451D01*
X30474Y18291D01*
X30695Y18200D01*
X30933Y18199D01*
X31154Y18291D01*
X31315Y18451D01*
X31474Y18291D01*
X31695Y18200D01*
X31933Y18199D01*
X32154Y18291D01*
X32315Y18451D01*
X32474Y18291D01*
X32695Y18200D01*
X32933Y18199D01*
X33154Y18291D01*
X33323Y18459D01*
X33414Y18680D01*
X33415Y18918D01*
X33323Y19139D01*
X33155Y19308D01*
X33078Y19340D01*
X36298Y19340D01*
X39024Y16613D01*
X39024Y13591D01*
X38999Y13616D01*
X38857Y13675D01*
X38702Y13675D01*
X38560Y13616D01*
X38450Y13507D01*
X38391Y13365D01*
X38391Y13210D01*
X38450Y13068D01*
X38559Y12959D01*
X38627Y12930D01*
X38627Y8707D01*
X38536Y8616D01*
X38380Y8616D01*
X38380Y12183D01*
X38321Y12326D01*
X38212Y12435D01*
X38069Y12494D01*
X37915Y12495D01*
X37772Y12436D01*
X37663Y12327D01*
X37604Y12184D01*
X37603Y12100D01*
X37522Y12101D01*
X37379Y12042D01*
X37352Y12015D01*
X37333Y12035D01*
X37424Y12072D01*
X37533Y12181D01*
X37592Y12324D01*
X37592Y12478D01*
X37533Y12621D01*
X37424Y12730D01*
X37396Y12742D01*
X37396Y14152D01*
X37337Y14294D01*
X37228Y14403D01*
X37085Y14463D01*
X36962Y14463D01*
X37023Y14524D01*
X37061Y14616D01*
X37061Y14715D01*
X37061Y15306D01*
X37023Y15398D01*
X36952Y15468D01*
X36861Y15506D01*
X36848Y15506D01*
X36978Y15635D01*
X37061Y15836D01*
X37061Y16053D01*
X36978Y16253D01*
X36825Y16407D01*
X36753Y16437D01*
X36824Y16466D01*
X36978Y16619D01*
X37061Y16820D01*
X37061Y17037D01*
X36978Y17237D01*
X36825Y17391D01*
X36624Y17474D01*
X36407Y17474D01*
X36207Y17392D01*
X36053Y17238D01*
X36018Y17153D01*
X36018Y18187D01*
X35959Y18330D01*
X35850Y18439D01*
X35707Y18498D01*
X35553Y18498D01*
X35410Y18439D01*
X35301Y18330D01*
X35242Y18188D01*
X35241Y18033D01*
X35300Y17891D01*
X35409Y17781D01*
X35552Y17722D01*
X35706Y17722D01*
X35849Y17781D01*
X35958Y17890D01*
X36017Y18033D01*
X36018Y18187D01*
X36018Y17153D01*
X35970Y17038D01*
X35970Y16821D01*
X36053Y16620D01*
X36206Y16467D01*
X36278Y16437D01*
X36207Y16408D01*
X36053Y16254D01*
X35970Y16054D01*
X35970Y15837D01*
X36053Y15636D01*
X36182Y15506D01*
X36170Y15506D01*
X36078Y15468D01*
X36008Y15398D01*
X35970Y15306D01*
X35970Y15207D01*
X35970Y14616D01*
X36008Y14524D01*
X36078Y14453D01*
X36170Y14415D01*
X36270Y14415D01*
X36816Y14415D01*
X36788Y14404D01*
X36679Y14295D01*
X36620Y14152D01*
X36619Y13998D01*
X36678Y13855D01*
X36787Y13746D01*
X36930Y13687D01*
X37084Y13687D01*
X37227Y13746D01*
X37336Y13855D01*
X37395Y13997D01*
X37396Y14152D01*
X37396Y12742D01*
X37282Y12789D01*
X37127Y12790D01*
X36985Y12731D01*
X36876Y12622D01*
X36816Y12479D01*
X36816Y12325D01*
X36875Y12182D01*
X36978Y12079D01*
X36886Y12042D01*
X36777Y11933D01*
X36718Y11790D01*
X36718Y11636D01*
X36777Y11493D01*
X36886Y11384D01*
X37028Y11325D01*
X37183Y11324D01*
X37325Y11383D01*
X37352Y11410D01*
X37378Y11384D01*
X37521Y11325D01*
X37675Y11324D01*
X37818Y11383D01*
X37927Y11492D01*
X37986Y11635D01*
X37987Y11719D01*
X38068Y11718D01*
X38211Y11777D01*
X38320Y11886D01*
X38379Y12029D01*
X38380Y12183D01*
X38380Y8616D01*
X37770Y8616D01*
X37676Y8656D01*
X37521Y8656D01*
X37379Y8597D01*
X37269Y8488D01*
X37210Y8345D01*
X37210Y8191D01*
X37269Y8048D01*
X37378Y7939D01*
X37520Y7880D01*
X37675Y7880D01*
X37771Y7919D01*
X38681Y7919D01*
X38814Y7946D01*
X38814Y7946D01*
X38927Y8021D01*
X39024Y8118D01*
X39024Y3072D01*
M02*
