G04 (created by PCBNEW-RS274X (2012-05-21 BZR 3261)-stable) date Wed 26 Sep 2012 20:51:20 BST*
G01*
G70*
G90*
%MOIN*%
G04 Gerber Fmt 3.4, Leading zero omitted, Abs format*
%FSLAX34Y34*%
G04 APERTURE LIST*
%ADD10C,0.006000*%
%ADD11C,0.015000*%
%ADD12R,0.039000X0.028000*%
%ADD13R,0.055000X0.035000*%
%ADD14R,0.035000X0.055000*%
%ADD15C,0.070000*%
%ADD16R,0.070000X0.070000*%
%ADD17C,0.060000*%
%ADD18R,0.055000X0.126000*%
%ADD19R,0.126000X0.055000*%
%ADD20R,0.044300X0.060000*%
%ADD21C,0.040000*%
%ADD22C,0.035400*%
%ADD23R,0.039400X0.031500*%
%ADD24R,0.027600X0.059100*%
%ADD25C,0.039400*%
%ADD26R,0.059100X0.055100*%
%ADD27C,0.027600*%
%ADD28C,0.035000*%
%ADD29C,0.019700*%
%ADD30C,0.011800*%
%ADD31C,0.008000*%
%ADD32C,0.015700*%
%ADD33C,0.010000*%
G04 APERTURE END LIST*
G54D10*
G54D11*
X39369Y16733D02*
X39370Y16733D01*
X36417Y19685D02*
X39369Y16733D01*
X00984Y19685D02*
X00000Y18701D01*
X36417Y19685D02*
X00984Y19685D01*
X36417Y00000D02*
X39370Y02953D01*
X00000Y00984D02*
X00000Y00985D01*
X00984Y00000D02*
X00000Y00984D01*
X36417Y00000D02*
X00984Y00000D01*
X00000Y18701D02*
X00000Y00985D01*
X39370Y16733D02*
X39370Y02953D01*
G54D12*
X33937Y09843D03*
X32993Y09469D03*
X32993Y10217D03*
G54D13*
X29528Y07204D03*
X29528Y07954D03*
X30413Y07954D03*
X30413Y07204D03*
X29880Y02338D03*
X29880Y01588D03*
X30880Y02338D03*
X30880Y01588D03*
X31880Y02338D03*
X31880Y01588D03*
X32880Y02338D03*
X32880Y01588D03*
X33880Y02338D03*
X33880Y01588D03*
G54D14*
X03956Y05315D03*
X04706Y05315D03*
X29017Y15256D03*
X28267Y15256D03*
G54D13*
X33071Y07893D03*
X33071Y08643D03*
X32087Y10218D03*
X32087Y09468D03*
G54D15*
X31791Y15741D03*
X31791Y16741D03*
G54D16*
X27815Y18800D03*
G54D15*
X28815Y18800D03*
X29815Y18800D03*
X30815Y18800D03*
X31815Y18800D03*
X32815Y18800D03*
G54D17*
X21524Y19292D03*
X25461Y19292D03*
X10366Y19292D03*
X06429Y19292D03*
G54D14*
X02972Y06890D03*
X03722Y06890D03*
X30038Y15256D03*
X30788Y15256D03*
G54D18*
X03149Y02598D03*
X03149Y05276D03*
X01575Y05276D03*
X01575Y02598D03*
G54D19*
X28189Y09056D03*
X30867Y09056D03*
X30867Y10630D03*
X28189Y10630D03*
X36063Y09056D03*
X38741Y09056D03*
X38741Y10630D03*
X36063Y10630D03*
X32126Y12993D03*
X34804Y12993D03*
X34804Y14567D03*
X32126Y14567D03*
X32126Y05119D03*
X34804Y05119D03*
X34804Y06693D03*
X32126Y06693D03*
G54D18*
X01575Y17087D03*
X01575Y14409D03*
X03149Y14409D03*
X03149Y17087D03*
G54D20*
X26880Y00463D03*
X27880Y00463D03*
X28880Y00463D03*
X29880Y00463D03*
X30880Y00463D03*
X31880Y00463D03*
X32880Y00463D03*
X33880Y00463D03*
G54D21*
X00886Y03839D03*
X00886Y02461D03*
X00886Y17225D03*
X00886Y15847D03*
G54D22*
X22637Y00591D03*
X23819Y00591D03*
G54D23*
X24665Y00158D03*
X24665Y01024D03*
X21791Y01024D03*
X21791Y00158D03*
G54D24*
X24114Y01280D03*
X22933Y01280D03*
X22342Y01280D03*
G54D25*
X25589Y10532D03*
G54D17*
X33858Y10532D03*
G54D22*
X37008Y04036D03*
X38190Y04036D03*
G54D26*
X09488Y01851D03*
X09488Y00513D03*
X11772Y01851D03*
X11772Y00513D03*
G54D22*
X10630Y01773D03*
X10630Y00591D03*
G54D26*
X06240Y01851D03*
X06240Y00513D03*
X08524Y01851D03*
X08524Y00513D03*
G54D22*
X07382Y01773D03*
X07382Y00591D03*
G54D27*
X21260Y10040D03*
X24213Y12008D03*
X25492Y01575D03*
X17028Y15256D03*
X27880Y02713D03*
X06693Y04922D03*
X12303Y04626D03*
X36024Y13878D03*
X14272Y15256D03*
X29880Y02963D03*
X25295Y14961D03*
X27461Y01575D03*
X27953Y06103D03*
X31880Y02963D03*
X27264Y09351D03*
X27953Y03741D03*
X06693Y15158D03*
X07480Y14272D03*
X30880Y02963D03*
X33880Y02963D03*
X34055Y13878D03*
X22441Y14961D03*
X32880Y02963D03*
X25197Y16241D03*
X21358Y07382D03*
X24410Y06989D03*
X26181Y15552D03*
X25000Y06792D03*
X14370Y06201D03*
X15354Y10729D03*
X23228Y12304D03*
X23327Y12796D03*
X15748Y10926D03*
X24803Y08268D03*
X21063Y08268D03*
X26378Y08465D03*
X13091Y07382D03*
X25099Y03839D03*
X23917Y18898D03*
X22933Y03347D03*
X21555Y03347D03*
X24016Y05414D03*
X26083Y05709D03*
X30413Y06398D03*
X17224Y14272D03*
X34744Y12205D03*
X13681Y14272D03*
X20965Y14272D03*
X21850Y01969D03*
X22933Y02067D03*
X28642Y01575D03*
X23130Y03937D03*
X21555Y03937D03*
X16536Y11418D03*
X19193Y13485D03*
X16240Y11615D03*
X18996Y13189D03*
X13386Y13682D03*
X17421Y13682D03*
X19488Y13682D03*
X16831Y11221D03*
X13976Y13977D03*
X17618Y13977D03*
X15945Y03839D03*
X26083Y09941D03*
X25984Y08465D03*
X17126Y02953D03*
X19193Y09252D03*
X25099Y08760D03*
X26870Y10926D03*
X19784Y09941D03*
X31890Y10729D03*
X20177Y10138D03*
X24803Y09351D03*
X19587Y09548D03*
X21358Y08563D03*
X24508Y08563D03*
X35335Y11811D03*
X14780Y10463D03*
X14480Y10763D03*
X35728Y12008D03*
X14173Y05906D03*
X26083Y06300D03*
X11319Y15256D03*
X09744Y16751D03*
X09744Y15256D03*
X29528Y14961D03*
X26673Y15748D03*
X23721Y05119D03*
X25787Y06004D03*
X23327Y03642D03*
X21752Y03642D03*
X10039Y00788D03*
X07973Y00788D03*
X20079Y16241D03*
X21555Y05807D03*
X12697Y16241D03*
X23130Y05709D03*
X22933Y04233D03*
X21752Y04233D03*
X21555Y15355D03*
X12599Y14272D03*
X21457Y06398D03*
X23130Y06300D03*
X12697Y15748D03*
X19488Y15847D03*
X19291Y15552D03*
X12992Y15453D03*
X21752Y06693D03*
X22933Y06595D03*
X11516Y07185D03*
X12697Y07382D03*
X21752Y06103D03*
X12992Y16044D03*
X22933Y06004D03*
X19784Y16044D03*
X36180Y15863D03*
X37303Y08170D03*
X38189Y17126D03*
X09941Y03347D03*
X18209Y04134D03*
X14567Y03839D03*
X08169Y04725D03*
X11221Y09646D03*
X36122Y16634D03*
X29528Y16831D03*
X36319Y03347D03*
X21260Y13682D03*
X16339Y18800D03*
X36713Y18111D03*
X24311Y04430D03*
X08957Y04725D03*
X06890Y05512D03*
X28642Y16142D03*
X14764Y18800D03*
X28248Y15748D03*
X13878Y08957D03*
X11910Y05807D03*
X13189Y18800D03*
X37992Y12107D03*
X05315Y13977D03*
X20079Y18800D03*
X08760Y03445D03*
X25295Y00788D03*
X36930Y05806D03*
X14370Y05512D03*
X13976Y18800D03*
X12697Y03544D03*
X29134Y13189D03*
X11221Y17520D03*
X21457Y00591D03*
X21525Y04854D03*
X21063Y04134D03*
X20473Y05611D03*
X30807Y13682D03*
X24606Y13288D03*
X34744Y09744D03*
X29134Y13682D03*
X20177Y08367D03*
X15551Y18800D03*
X03937Y14075D03*
X08169Y10926D03*
X37943Y13140D03*
X34252Y16241D03*
X34252Y16634D03*
X33268Y17619D03*
X16831Y12993D03*
X35630Y01083D03*
X04429Y08662D03*
X24803Y18209D03*
X09744Y04725D03*
X12795Y01182D03*
X29528Y15748D03*
X06004Y09351D03*
X11024Y14272D03*
X07973Y12993D03*
X34252Y15847D03*
X15158Y01772D03*
X05413Y05611D03*
X37599Y11713D03*
X01280Y11516D03*
X05807Y18701D03*
X04724Y19095D03*
X02559Y10926D03*
X04232Y01280D03*
X04331Y03150D03*
X02756Y08268D03*
X00787Y09056D03*
G54D28*
X03838Y10138D03*
G54D27*
X00591Y05709D03*
X10236Y16831D03*
X08957Y14863D03*
X27264Y17225D03*
X21063Y07579D03*
X25886Y07579D03*
X32284Y07874D03*
X32284Y10729D03*
X31102Y14567D03*
X31201Y13091D03*
X13189Y10827D03*
X11969Y13229D03*
X07776Y14863D03*
X12205Y10827D03*
X11614Y14567D03*
X32382Y03347D03*
X24311Y03445D03*
X13287Y08367D03*
X33268Y13682D03*
X30906Y06004D03*
X31299Y07874D03*
X30413Y03741D03*
X23819Y02756D03*
X29232Y01575D03*
X13287Y07087D03*
X13681Y06989D03*
X34547Y01969D03*
X24016Y03150D03*
X35236Y12402D03*
X33071Y12599D03*
X14469Y08563D03*
X31201Y06693D03*
X26378Y06693D03*
X32185Y03839D03*
X32776Y06103D03*
X36122Y11615D03*
X14030Y10063D03*
X33760Y03445D03*
X11122Y08071D03*
X07776Y04331D03*
X21260Y07973D03*
X06988Y04331D03*
X06102Y05020D03*
G54D29*
X33880Y02963D02*
X33880Y02338D01*
X21850Y10630D02*
X23130Y10630D01*
X23130Y10630D02*
X24213Y11713D01*
X24213Y11713D02*
X24213Y12008D01*
X29880Y02338D02*
X29880Y02963D01*
X08524Y01851D02*
X08524Y01909D01*
G54D30*
X07480Y14370D02*
X07480Y14272D01*
G54D29*
X31880Y02963D02*
X31880Y02338D01*
X32880Y02963D02*
X32880Y02338D01*
X19094Y14961D02*
X22441Y14961D01*
X21260Y10040D02*
X21850Y10630D01*
X27953Y03741D02*
X27880Y03668D01*
X30880Y02963D02*
X30880Y02338D01*
X24114Y01378D02*
X24311Y01575D01*
X08524Y01909D02*
X08169Y02264D01*
X01575Y04921D02*
X02165Y04331D01*
X08169Y02264D02*
X06653Y02264D01*
X06693Y04922D02*
X06201Y04430D01*
G54D30*
X07382Y14469D02*
X07382Y14468D01*
G54D29*
X10000Y02363D02*
X09488Y01851D01*
X11811Y04134D02*
X11811Y01890D01*
X09488Y01851D02*
X08524Y01851D01*
X11417Y02363D02*
X10000Y02363D01*
X06201Y04430D02*
X06201Y03839D01*
X18799Y15256D02*
X19094Y14961D01*
X02165Y04331D02*
X06102Y04331D01*
X24114Y01280D02*
X24114Y01378D01*
X22441Y14961D02*
X25295Y14961D01*
X06653Y02264D02*
X06240Y01851D01*
X27880Y01575D02*
X27880Y00463D01*
X34055Y13878D02*
X36024Y13878D01*
X11772Y01851D02*
X11772Y02008D01*
X27264Y08465D02*
X27953Y07776D01*
X27264Y09351D02*
X27264Y08465D01*
X27953Y07776D02*
X27953Y06103D01*
X24705Y01575D02*
X25492Y01575D01*
X24311Y01575D02*
X24705Y01575D01*
X11772Y02008D02*
X11417Y02363D01*
X11811Y01890D02*
X11772Y01851D01*
X06102Y04331D02*
X06693Y04922D01*
X12303Y04626D02*
X11811Y04134D01*
X27880Y02713D02*
X27880Y01575D01*
X18799Y15256D02*
X17028Y15256D01*
X27880Y03668D02*
X27880Y02713D01*
G54D30*
X07382Y14468D02*
X07480Y14370D01*
X07382Y14469D02*
X06693Y15158D01*
G54D29*
X27461Y01575D02*
X27880Y01575D01*
X01575Y05276D02*
X01575Y04921D01*
X06240Y03800D02*
X06201Y03839D01*
X17028Y15256D02*
X14272Y15256D01*
X06240Y01851D02*
X06240Y03800D01*
G54D31*
X21457Y07481D02*
X23918Y07481D01*
X21358Y07382D02*
X21457Y07481D01*
X25492Y16241D02*
X25197Y16241D01*
X26181Y15552D02*
X25492Y16241D01*
X23918Y07481D02*
X24410Y06989D01*
X23721Y06890D02*
X24115Y06496D01*
X21850Y07087D02*
X23524Y07087D01*
X24115Y06496D02*
X24704Y06496D01*
X23524Y07087D02*
X23721Y06890D01*
X24704Y06496D02*
X25000Y06792D01*
X21457Y06890D02*
X21555Y06890D01*
X21555Y06890D02*
X21752Y07087D01*
X21752Y07087D02*
X21850Y07087D01*
X14468Y06103D02*
X20670Y06103D01*
X14370Y06201D02*
X14468Y06103D01*
X20670Y06103D02*
X21457Y06890D01*
X15354Y10729D02*
X15453Y10630D01*
X16240Y10532D02*
X18799Y10532D01*
X19685Y11418D02*
X22342Y11418D01*
X16142Y10630D02*
X16240Y10532D01*
X18799Y10532D02*
X19685Y11418D01*
X15453Y10630D02*
X16142Y10630D01*
X22342Y11418D02*
X23228Y12304D01*
X15847Y10827D02*
X16240Y10827D01*
X15748Y10926D02*
X15847Y10827D01*
X18701Y10729D02*
X19587Y11615D01*
X22146Y11615D02*
X23327Y12796D01*
X16338Y10729D02*
X18701Y10729D01*
X19587Y11615D02*
X22146Y11615D01*
X16240Y10827D02*
X16338Y10729D01*
X21063Y08268D02*
X24016Y08268D01*
X24016Y08268D02*
X24803Y08268D01*
X22933Y01280D02*
X22933Y01556D01*
X16437Y04528D02*
X19488Y01477D01*
X12992Y07283D02*
X12992Y06890D01*
X22619Y01870D02*
X22145Y01870D01*
X13189Y06693D02*
X13189Y05217D01*
X22933Y01556D02*
X22619Y01870D01*
X13189Y05217D02*
X13878Y04528D01*
X12992Y06890D02*
X13189Y06693D01*
X32087Y10218D02*
X31279Y10218D01*
X13091Y07382D02*
X12992Y07283D01*
X13878Y04528D02*
X16437Y04528D01*
X31279Y10218D02*
X30867Y10630D01*
X30867Y10630D02*
X28189Y10630D01*
X26378Y10237D02*
X26378Y09154D01*
X26771Y10630D02*
X26378Y10237D01*
X22145Y01870D02*
X21752Y01477D01*
X26378Y09154D02*
X26378Y08465D01*
X28189Y10630D02*
X26771Y10630D01*
X24312Y01969D02*
X25099Y02756D01*
X25099Y02756D02*
X25099Y03839D01*
X24016Y01969D02*
X24312Y01969D01*
X23327Y01280D02*
X24016Y01969D01*
X21752Y01477D02*
X19488Y01477D01*
X22933Y01280D02*
X23327Y01280D01*
G54D30*
X09449Y19292D02*
X10040Y18701D01*
X23523Y19292D02*
X23917Y18898D01*
X11221Y19292D02*
X21524Y19292D01*
X21524Y19292D02*
X23523Y19292D01*
X10040Y18701D02*
X10630Y18701D01*
X06429Y19292D02*
X09449Y19292D01*
X10630Y18701D02*
X11221Y19292D01*
G54D31*
X30413Y06398D02*
X30413Y07204D01*
X22933Y03347D02*
X23032Y03347D01*
X21555Y03347D02*
X22933Y03347D01*
X24016Y05414D02*
X24311Y05709D01*
X24311Y05709D02*
X26083Y05709D01*
X27755Y12304D02*
X34645Y12304D01*
X13681Y14272D02*
X17224Y14272D01*
X20965Y14272D02*
X25787Y14272D01*
X25787Y14272D02*
X27755Y12304D01*
X34645Y12304D02*
X34744Y12205D01*
X28880Y00463D02*
X28880Y01337D01*
X21948Y02067D02*
X22933Y02067D01*
X28880Y01337D02*
X28642Y01575D01*
X21850Y01969D02*
X21948Y02067D01*
X22638Y03937D02*
X23130Y03937D01*
X21555Y03937D02*
X22638Y03937D01*
X19331Y12442D02*
X19331Y13347D01*
X17028Y11516D02*
X17126Y11418D01*
X16634Y11516D02*
X17028Y11516D01*
X17126Y11418D02*
X18307Y11418D01*
X19331Y13347D02*
X19193Y13485D01*
X18307Y11418D02*
X19331Y12442D01*
X16536Y11418D02*
X16634Y11516D01*
X17323Y11615D02*
X17225Y11713D01*
X18996Y13189D02*
X19095Y13090D01*
X17225Y11713D02*
X16338Y11713D01*
X16338Y11713D02*
X16240Y11615D01*
X19095Y13090D02*
X19095Y12501D01*
X18209Y11615D02*
X17323Y11615D01*
X19095Y12501D02*
X18209Y11615D01*
X13386Y13682D02*
X17421Y13682D01*
X18406Y11221D02*
X19390Y12205D01*
X18406Y11221D02*
X16831Y11221D01*
X19488Y12304D02*
X19488Y13682D01*
X19390Y12206D02*
X19488Y12304D01*
X19390Y12205D02*
X19390Y12206D01*
X13976Y13977D02*
X17618Y13977D01*
X25984Y09842D02*
X26083Y09941D01*
X25984Y08760D02*
X25984Y08563D01*
X16831Y02953D02*
X17126Y02953D01*
X15945Y03839D02*
X16831Y02953D01*
X25984Y08563D02*
X25984Y08465D01*
X25984Y08760D02*
X25984Y09842D01*
X19341Y09104D02*
X19193Y09252D01*
X23869Y09104D02*
X24558Y09104D01*
X19341Y09104D02*
X23869Y09104D01*
X24558Y09104D02*
X24902Y08760D01*
X24902Y08760D02*
X25099Y08760D01*
X24115Y10139D02*
X24705Y10729D01*
X24705Y10729D02*
X24902Y10926D01*
X24115Y10139D02*
X22028Y10139D01*
X21496Y09607D02*
X20118Y09607D01*
X20118Y09607D02*
X19784Y09941D01*
X22028Y10139D02*
X21496Y09607D01*
X24902Y10926D02*
X26870Y10926D01*
X20177Y10138D02*
X20551Y09764D01*
X31496Y11516D02*
X31693Y11516D01*
X20551Y09764D02*
X21418Y09764D01*
X31890Y11319D02*
X31890Y10729D01*
X31693Y11516D02*
X31890Y11319D01*
X21418Y09764D02*
X21969Y10315D01*
X24901Y11221D02*
X23995Y10315D01*
X25196Y11516D02*
X24901Y11221D01*
X31496Y11516D02*
X25196Y11516D01*
X21969Y10315D02*
X23995Y10315D01*
X24114Y09351D02*
X24803Y09351D01*
X19783Y09351D02*
X24114Y09351D01*
X19587Y09548D02*
X19587Y09547D01*
X19587Y09547D02*
X19783Y09351D01*
X24114Y08563D02*
X24508Y08563D01*
X21358Y08563D02*
X24114Y08563D01*
X19030Y10113D02*
X19941Y11024D01*
X24606Y12500D02*
X24704Y12402D01*
X23721Y12107D02*
X23721Y12304D01*
X15880Y10213D02*
X15980Y10113D01*
X23917Y12500D02*
X24114Y12500D01*
X33661Y11910D02*
X25197Y11910D01*
X22638Y11024D02*
X19941Y11024D01*
X24704Y12402D02*
X24705Y12402D01*
X15030Y10213D02*
X15880Y10213D01*
X23721Y12304D02*
X23917Y12500D01*
X24114Y12500D02*
X24606Y12500D01*
X35039Y11713D02*
X35137Y11811D01*
X14780Y10463D02*
X15030Y10213D01*
X22638Y11024D02*
X23721Y12107D01*
X24705Y12402D02*
X25197Y11910D01*
X15980Y10113D02*
X19030Y10113D01*
X35137Y11811D02*
X35335Y11811D01*
X33858Y11713D02*
X35039Y11713D01*
X33661Y11910D02*
X33858Y11713D01*
X34941Y11910D02*
X35138Y12107D01*
X22540Y11221D02*
X19838Y11221D01*
X24705Y12697D02*
X24803Y12599D01*
X24803Y12599D02*
X25295Y12107D01*
X23426Y12107D02*
X23426Y12108D01*
X23819Y12697D02*
X24016Y12697D01*
X14480Y10763D02*
X14880Y10763D01*
X35728Y12008D02*
X35629Y12107D01*
X16180Y10313D02*
X18930Y10313D01*
X23426Y12107D02*
X22540Y11221D01*
X23426Y12108D02*
X23524Y12206D01*
X24016Y12697D02*
X24705Y12697D01*
X33760Y12107D02*
X33957Y11910D01*
X25295Y12107D02*
X33760Y12107D01*
X14880Y10763D02*
X15230Y10413D01*
X23524Y12402D02*
X23819Y12697D01*
X18930Y10313D02*
X19838Y11221D01*
X33957Y11910D02*
X34941Y11910D01*
X16080Y10413D02*
X16180Y10313D01*
X23524Y12206D02*
X23524Y12402D01*
X35629Y12107D02*
X35138Y12107D01*
X15230Y10413D02*
X16080Y10413D01*
X20669Y05906D02*
X21161Y05414D01*
X14173Y05906D02*
X20669Y05906D01*
X26083Y06300D02*
X24213Y06300D01*
X23327Y05414D02*
X24114Y06201D01*
X24213Y06300D02*
X24114Y06201D01*
X21161Y05414D02*
X23327Y05414D01*
G54D29*
X11319Y15650D02*
X12303Y16634D01*
X09744Y16751D02*
X09744Y15256D01*
X29017Y15256D02*
X29233Y15256D01*
X25787Y16634D02*
X26673Y15748D01*
X29233Y15256D02*
X29528Y14961D01*
X11319Y15256D02*
X11319Y15650D01*
X29823Y15256D02*
X30038Y15256D01*
X29528Y14961D02*
X29823Y15256D01*
X25787Y16634D02*
X12303Y16634D01*
G54D31*
X24410Y06004D02*
X25787Y06004D01*
X23032Y03642D02*
X23327Y03642D01*
X23721Y05119D02*
X23721Y05512D01*
X21752Y03642D02*
X23032Y03642D01*
X24213Y06004D02*
X24410Y06004D01*
X23721Y05512D02*
X24213Y06004D01*
X09764Y00513D02*
X10039Y00788D01*
X09488Y00513D02*
X09764Y00513D01*
X07973Y00788D02*
X08248Y00513D01*
X08248Y00513D02*
X08524Y00513D01*
X20079Y16241D02*
X19981Y16339D01*
X21555Y05807D02*
X22441Y05807D01*
X12795Y16339D02*
X12697Y16241D01*
X22441Y05807D02*
X22736Y05807D01*
X19981Y16339D02*
X12795Y16339D01*
X22736Y05807D02*
X22834Y05709D01*
X22834Y05709D02*
X23130Y05709D01*
X12599Y14568D02*
X12599Y14272D01*
X19194Y15256D02*
X18898Y15552D01*
X21555Y15355D02*
X19488Y15355D01*
X13583Y15552D02*
X12599Y14568D01*
X18898Y15552D02*
X13583Y15552D01*
X19389Y15256D02*
X19194Y15256D01*
X21752Y04233D02*
X22736Y04233D01*
X22736Y04233D02*
X22933Y04233D01*
X19488Y15355D02*
X19389Y15256D01*
X13091Y15748D02*
X12697Y15748D01*
X22638Y06398D02*
X22736Y06300D01*
X21457Y06398D02*
X22638Y06398D01*
X22736Y06300D02*
X23130Y06300D01*
X19488Y15847D02*
X19390Y15945D01*
X19390Y15945D02*
X13288Y15945D01*
X13288Y15945D02*
X13091Y15748D01*
X19291Y15552D02*
X19095Y15748D01*
X13386Y15748D02*
X19095Y15748D01*
X13091Y15453D02*
X13386Y15748D01*
X22736Y06792D02*
X21851Y06792D01*
X21851Y06792D02*
X21752Y06693D01*
X22933Y06595D02*
X22736Y06792D01*
X12992Y15453D02*
X13091Y15453D01*
X11516Y07185D02*
X12500Y07185D01*
X12500Y07185D02*
X12697Y07382D01*
X19686Y16142D02*
X13090Y16142D01*
X13090Y16142D02*
X12992Y16044D01*
X19784Y16044D02*
X19686Y16142D01*
X21752Y06103D02*
X22539Y06103D01*
X22539Y06103D02*
X22834Y06103D01*
X22834Y06103D02*
X22933Y06004D01*
G54D32*
X38976Y12402D02*
X38976Y15651D01*
X38976Y15651D02*
X38764Y15863D01*
X38764Y15863D02*
X38386Y15863D01*
X37402Y08269D02*
X37402Y10828D01*
X37303Y08170D02*
X37402Y08269D01*
X38386Y15863D02*
X36180Y15863D01*
X38386Y16929D02*
X38189Y17126D01*
X38386Y15863D02*
X38386Y16929D01*
X37402Y10828D02*
X38976Y12402D01*
G54D29*
X21791Y01024D02*
X21791Y00158D01*
X36929Y05807D02*
X36930Y05806D01*
X29134Y13189D02*
X29134Y13682D01*
X36910Y05807D02*
X36929Y05807D01*
G54D32*
X37599Y11713D02*
X37992Y12106D01*
G54D29*
X24665Y00158D02*
X24665Y01024D01*
X22047Y01280D02*
X21791Y01024D01*
G54D30*
X21555Y04824D02*
X21525Y04854D01*
G54D29*
X34645Y09843D02*
X34744Y09744D01*
G54D32*
X37992Y12106D02*
X37992Y12107D01*
G54D29*
X33937Y09843D02*
X34645Y09843D01*
X37943Y13140D02*
X37992Y13189D01*
X22342Y01280D02*
X22047Y01280D01*
G54D31*
X26083Y16930D02*
X10827Y16930D01*
X26378Y17225D02*
X26083Y16930D01*
X08957Y14863D02*
X10138Y14863D01*
X27264Y17225D02*
X26378Y17225D01*
X10827Y16930D02*
X10728Y16831D01*
X10728Y16831D02*
X10236Y16831D01*
X10236Y16831D02*
X10236Y14961D01*
X10236Y14961D02*
X10138Y14863D01*
X33366Y10040D02*
X33366Y08938D01*
X33366Y08938D02*
X33071Y08643D01*
X32993Y10217D02*
X33189Y10217D01*
X33189Y10217D02*
X33366Y10040D01*
X21161Y07678D02*
X21456Y07678D01*
X21456Y07678D02*
X21457Y07677D01*
X21063Y07579D02*
X21161Y07677D01*
X21161Y07677D02*
X21161Y07678D01*
X24017Y07677D02*
X24410Y07284D01*
X24410Y07284D02*
X25591Y07284D01*
X25591Y07284D02*
X25886Y07579D01*
X21457Y07677D02*
X24016Y07677D01*
X24016Y07677D02*
X24017Y07677D01*
X32284Y07893D02*
X33071Y07893D01*
X32284Y07874D02*
X32284Y07893D01*
X31201Y14075D02*
X31201Y13091D01*
X32334Y10679D02*
X32284Y10729D01*
X31201Y14468D02*
X31102Y14567D01*
X32756Y09469D02*
X32579Y09646D01*
X32579Y09646D02*
X32579Y10434D01*
X32579Y10434D02*
X32334Y10679D01*
X31201Y14075D02*
X31201Y14468D01*
X32756Y09469D02*
X32993Y09469D01*
X07677Y14961D02*
X06693Y15945D01*
X07776Y14863D02*
X07678Y14961D01*
X03149Y16931D02*
X04135Y15945D01*
X04135Y15945D02*
X06693Y15945D01*
X11614Y14529D02*
X11614Y14567D01*
X03149Y17087D02*
X03149Y16931D01*
X11969Y13229D02*
X11969Y14174D01*
X13189Y10827D02*
X12205Y10827D01*
X31880Y01588D02*
X31880Y00463D01*
X18799Y03052D02*
X23130Y03052D01*
X23130Y03052D02*
X23229Y03052D01*
X23229Y03052D02*
X23622Y03445D01*
X31880Y01588D02*
X32001Y01588D01*
X32001Y01588D02*
X32382Y01969D01*
X24311Y03445D02*
X23622Y03445D01*
X32382Y01969D02*
X32382Y03347D01*
X11969Y14174D02*
X11614Y14529D01*
X13780Y05512D02*
X13780Y06694D01*
X07678Y14961D02*
X07677Y14961D01*
X13780Y06694D02*
X13976Y06890D01*
X13287Y07776D02*
X13287Y08367D01*
X13780Y05512D02*
X14173Y05119D01*
X16732Y05119D02*
X18799Y03052D01*
X14173Y05119D02*
X16732Y05119D01*
X13976Y07087D02*
X13287Y07776D01*
X13976Y06890D02*
X13976Y07087D01*
X30380Y03741D02*
X30413Y03741D01*
X29880Y01588D02*
X29880Y00463D01*
X30906Y07481D02*
X31299Y07874D01*
X13385Y06989D02*
X13386Y06989D01*
X29880Y00463D02*
X29880Y00963D01*
X30906Y06004D02*
X30906Y07481D01*
X33268Y13682D02*
X34153Y14567D01*
X30380Y01463D02*
X30380Y03741D01*
X34804Y14567D02*
X34153Y14567D01*
X29880Y00963D02*
X30380Y01463D01*
X23524Y02658D02*
X18602Y02658D01*
X29232Y01575D02*
X29245Y01588D01*
X23721Y02658D02*
X23524Y02658D01*
X23819Y02756D02*
X23721Y02658D01*
X29245Y01588D02*
X29880Y01588D01*
X13386Y05315D02*
X13976Y04725D01*
X16536Y04725D02*
X16536Y04724D01*
X16536Y04724D02*
X18602Y02658D01*
X13976Y04725D02*
X16536Y04725D01*
X13287Y07087D02*
X13385Y06989D01*
X13386Y05315D02*
X13386Y06989D01*
X16634Y04922D02*
X16634Y04921D01*
X16634Y04921D02*
X18700Y02855D01*
X33880Y01588D02*
X33880Y00463D01*
X13583Y06891D02*
X13681Y06989D01*
X13583Y05414D02*
X14075Y04922D01*
X22440Y02855D02*
X18700Y02855D01*
X14075Y04922D02*
X16634Y04922D01*
X23328Y02855D02*
X23327Y02855D01*
X22440Y02855D02*
X23328Y02855D01*
X13583Y05414D02*
X13583Y06891D01*
X23327Y02855D02*
X23425Y02855D01*
X23721Y03150D02*
X24016Y03150D01*
X23622Y03052D02*
X23623Y03052D01*
X23623Y03052D02*
X23721Y03150D01*
X23425Y02855D02*
X23622Y03052D01*
X33880Y01588D02*
X34166Y01588D01*
X34166Y01588D02*
X34547Y01969D01*
X33170Y12500D02*
X33071Y12599D01*
X35138Y12500D02*
X33170Y12500D01*
X35236Y12402D02*
X35138Y12500D01*
X24646Y06832D02*
X24647Y06832D01*
X14469Y08563D02*
X14568Y08662D01*
X19390Y07087D02*
X21457Y07087D01*
X24213Y06693D02*
X24508Y06693D01*
X17815Y08662D02*
X19390Y07087D01*
X24508Y06693D02*
X24508Y06694D01*
X30880Y01588D02*
X30880Y00463D01*
X24902Y07087D02*
X25787Y07087D01*
X32186Y06693D02*
X32126Y06693D01*
X14568Y08662D02*
X17815Y08662D01*
X24508Y06694D02*
X24646Y06832D01*
X25787Y07087D02*
X25984Y07087D01*
X23622Y07284D02*
X24213Y06693D01*
X31115Y01588D02*
X31380Y01853D01*
X24647Y06832D02*
X24902Y07087D01*
X32776Y06103D02*
X32186Y06693D01*
X31201Y06693D02*
X32126Y06693D01*
X25984Y07087D02*
X26378Y06693D01*
X21654Y07284D02*
X23622Y07284D01*
X31380Y03034D02*
X32185Y03839D01*
X21457Y07087D02*
X21654Y07284D01*
X30880Y01588D02*
X31115Y01588D01*
X31380Y01853D02*
X31380Y03034D01*
X23917Y12205D02*
X24016Y12304D01*
X36063Y11556D02*
X36063Y10630D01*
X15730Y10013D02*
X15830Y09913D01*
X33366Y02074D02*
X32880Y01588D01*
X24213Y12304D02*
X24508Y12304D01*
X36122Y11615D02*
X36063Y11556D01*
X32880Y01588D02*
X32880Y00463D01*
X34843Y10335D02*
X35768Y10335D01*
X15830Y09913D02*
X19130Y09913D01*
X22776Y10867D02*
X23917Y12008D01*
X33366Y03052D02*
X33366Y02074D01*
X24508Y12304D02*
X24606Y12206D01*
X19130Y09913D02*
X20084Y10867D01*
X35768Y10335D02*
X36063Y10630D01*
X20084Y10867D02*
X22776Y10867D01*
X23917Y12008D02*
X23917Y12205D01*
X24016Y12304D02*
X24213Y12304D01*
X33465Y11713D02*
X34843Y10335D01*
X14030Y10063D02*
X14080Y10013D01*
X24606Y12205D02*
X25098Y11713D01*
X24606Y12206D02*
X24606Y12205D01*
X25098Y11713D02*
X33465Y11713D01*
X33366Y03052D02*
X33367Y03052D01*
X14080Y10013D02*
X15730Y10013D01*
X33367Y03052D02*
X33760Y03445D01*
X04134Y04725D02*
X03956Y04903D01*
X14080Y08663D02*
X12108Y08663D01*
X05807Y04725D02*
X04134Y04725D01*
X21260Y07973D02*
X21063Y07973D01*
X17913Y08859D02*
X14276Y08859D01*
X07776Y04331D02*
X06988Y04331D01*
X11516Y08071D02*
X11122Y08071D01*
X11516Y08071D02*
X12108Y08663D01*
X03956Y05315D02*
X03188Y05315D01*
X20374Y07284D02*
X19488Y07284D01*
X21063Y07973D02*
X20374Y07284D01*
X03956Y04903D02*
X03956Y05315D01*
X06102Y05020D02*
X05807Y04725D01*
X03188Y05315D02*
X03149Y05276D01*
X19488Y07284D02*
X17913Y08859D01*
X14276Y08859D02*
X14080Y08663D01*
X30867Y08230D02*
X30867Y09056D01*
X31279Y09468D02*
X30867Y09056D01*
X30591Y07954D02*
X30867Y08230D01*
X30413Y07954D02*
X29528Y07954D01*
X32087Y09468D02*
X31279Y09468D01*
X30413Y07954D02*
X30591Y07954D01*
G54D10*
G36*
X22392Y01230D02*
X22292Y01230D01*
X22292Y01330D01*
X22392Y01330D01*
X22392Y01230D01*
X22392Y01230D01*
G37*
G54D33*
X22392Y01230D02*
X22292Y01230D01*
X22292Y01330D01*
X22392Y01330D01*
X22392Y01230D01*
G54D10*
G36*
X39025Y03073D02*
X38691Y02739D01*
X38691Y08593D01*
X38691Y09006D01*
X38691Y09106D01*
X38691Y09519D01*
X38629Y09581D01*
X38062Y09580D01*
X37970Y09542D01*
X37900Y09472D01*
X37862Y09381D01*
X37862Y09282D01*
X37861Y09168D01*
X37923Y09106D01*
X38691Y09106D01*
X38691Y09006D01*
X37923Y09006D01*
X37861Y08944D01*
X37862Y08830D01*
X37862Y08731D01*
X37900Y08640D01*
X37970Y08570D01*
X38062Y08532D01*
X38629Y08531D01*
X38691Y08593D01*
X38691Y02739D01*
X38617Y02665D01*
X38617Y03950D01*
X38617Y04120D01*
X38552Y04277D01*
X38433Y04397D01*
X38276Y04463D01*
X38106Y04463D01*
X37949Y04398D01*
X37829Y04279D01*
X37763Y04122D01*
X37763Y03952D01*
X37828Y03795D01*
X37947Y03675D01*
X38104Y03609D01*
X38274Y03609D01*
X38431Y03674D01*
X38551Y03793D01*
X38617Y03950D01*
X38617Y02665D01*
X37435Y01483D01*
X37435Y03950D01*
X37435Y04120D01*
X37370Y04277D01*
X37251Y04397D01*
X37094Y04463D01*
X36924Y04463D01*
X36767Y04398D01*
X36647Y04279D01*
X36581Y04122D01*
X36581Y03952D01*
X36646Y03795D01*
X36765Y03675D01*
X36922Y03609D01*
X37092Y03609D01*
X37249Y03674D01*
X37369Y03793D01*
X37435Y03950D01*
X37435Y01483D01*
X36298Y00346D01*
X36013Y00346D01*
X36013Y08593D01*
X36013Y09006D01*
X36013Y09106D01*
X36013Y09519D01*
X35951Y09581D01*
X35384Y09580D01*
X35292Y09542D01*
X35222Y09472D01*
X35184Y09381D01*
X35184Y09282D01*
X35183Y09168D01*
X35245Y09106D01*
X36013Y09106D01*
X36013Y09006D01*
X35245Y09006D01*
X35183Y08944D01*
X35184Y08830D01*
X35184Y08731D01*
X35222Y08640D01*
X35292Y08570D01*
X35384Y08532D01*
X35951Y08531D01*
X36013Y08593D01*
X36013Y00346D01*
X35684Y00346D01*
X35684Y05007D01*
X35684Y05231D01*
X35683Y05345D01*
X35683Y05444D01*
X35683Y06368D01*
X35683Y06467D01*
X35683Y07017D01*
X35645Y07109D01*
X35575Y07179D01*
X35484Y07217D01*
X35385Y07217D01*
X34382Y07217D01*
X34382Y09731D01*
X34320Y09793D01*
X33987Y09793D01*
X33987Y09515D01*
X34049Y09453D01*
X34083Y09454D01*
X34182Y09454D01*
X34273Y09492D01*
X34343Y09562D01*
X34381Y09654D01*
X34382Y09731D01*
X34382Y07217D01*
X34125Y07217D01*
X34033Y07179D01*
X33963Y07109D01*
X33925Y07018D01*
X33925Y06919D01*
X33925Y06369D01*
X33963Y06277D01*
X34033Y06207D01*
X34124Y06169D01*
X34223Y06169D01*
X35483Y06169D01*
X35575Y06207D01*
X35645Y06277D01*
X35683Y06368D01*
X35683Y05444D01*
X35645Y05535D01*
X35575Y05605D01*
X35483Y05643D01*
X34916Y05644D01*
X34854Y05582D01*
X34854Y05169D01*
X35622Y05169D01*
X35684Y05231D01*
X35684Y05007D01*
X35622Y05069D01*
X34854Y05069D01*
X34854Y04656D01*
X34916Y04594D01*
X35483Y04595D01*
X35575Y04633D01*
X35645Y04703D01*
X35683Y04794D01*
X35683Y04893D01*
X35684Y05007D01*
X35684Y00346D01*
X34350Y00346D01*
X34350Y00812D01*
X34312Y00904D01*
X34242Y00974D01*
X34170Y01005D01*
X34170Y01164D01*
X34204Y01164D01*
X34296Y01202D01*
X34366Y01272D01*
X34404Y01363D01*
X34404Y01416D01*
X34570Y01582D01*
X34624Y01582D01*
X34766Y01641D01*
X34875Y01750D01*
X34934Y01892D01*
X34934Y02046D01*
X34875Y02188D01*
X34766Y02297D01*
X34754Y02302D01*
X34754Y04656D01*
X34754Y05069D01*
X34754Y05169D01*
X34754Y05582D01*
X34692Y05644D01*
X34125Y05643D01*
X34033Y05605D01*
X33963Y05535D01*
X33925Y05444D01*
X33925Y05345D01*
X33924Y05231D01*
X33986Y05169D01*
X34754Y05169D01*
X34754Y05069D01*
X33986Y05069D01*
X33924Y05007D01*
X33925Y04893D01*
X33925Y04794D01*
X33963Y04703D01*
X34033Y04633D01*
X34125Y04595D01*
X34692Y04594D01*
X34754Y04656D01*
X34754Y02302D01*
X34624Y02356D01*
X34470Y02356D01*
X34404Y02329D01*
X34404Y02562D01*
X34366Y02654D01*
X34296Y02724D01*
X34228Y02753D01*
X34228Y02793D01*
X34267Y02886D01*
X34267Y03040D01*
X34208Y03182D01*
X34110Y03280D01*
X34147Y03368D01*
X34147Y03522D01*
X34088Y03664D01*
X33979Y03773D01*
X33837Y03832D01*
X33683Y03832D01*
X33541Y03773D01*
X33432Y03664D01*
X33373Y03522D01*
X33373Y03469D01*
X33164Y03260D01*
X33161Y03257D01*
X33149Y03241D01*
X33099Y03291D01*
X33006Y03330D01*
X33006Y05007D01*
X33006Y05231D01*
X33005Y05345D01*
X33005Y05444D01*
X32967Y05535D01*
X32897Y05605D01*
X32805Y05643D01*
X32238Y05644D01*
X32176Y05582D01*
X32176Y05169D01*
X32944Y05169D01*
X33006Y05231D01*
X33006Y05007D01*
X32944Y05069D01*
X32176Y05069D01*
X32176Y04656D01*
X32238Y04594D01*
X32805Y04595D01*
X32897Y04633D01*
X32967Y04703D01*
X33005Y04794D01*
X33005Y04893D01*
X33006Y05007D01*
X33006Y03330D01*
X32957Y03350D01*
X32803Y03350D01*
X32769Y03336D01*
X32769Y03424D01*
X32710Y03566D01*
X32601Y03675D01*
X32545Y03699D01*
X32572Y03762D01*
X32572Y03916D01*
X32513Y04058D01*
X32404Y04167D01*
X32262Y04226D01*
X32108Y04226D01*
X32076Y04213D01*
X32076Y04656D01*
X32076Y05069D01*
X32076Y05169D01*
X32076Y05582D01*
X32014Y05644D01*
X31447Y05643D01*
X31355Y05605D01*
X31285Y05535D01*
X31247Y05444D01*
X31247Y05345D01*
X31246Y05231D01*
X31308Y05169D01*
X32076Y05169D01*
X32076Y05069D01*
X31308Y05069D01*
X31246Y05007D01*
X31247Y04893D01*
X31247Y04794D01*
X31285Y04703D01*
X31355Y04633D01*
X31447Y04595D01*
X32014Y04594D01*
X32076Y04656D01*
X32076Y04213D01*
X31966Y04167D01*
X31857Y04058D01*
X31798Y03916D01*
X31798Y03862D01*
X31175Y03239D01*
X31165Y03225D01*
X31099Y03291D01*
X30957Y03350D01*
X30803Y03350D01*
X30670Y03295D01*
X30670Y03451D01*
X30741Y03522D01*
X30800Y03664D01*
X30800Y03818D01*
X30741Y03960D01*
X30632Y04069D01*
X30490Y04128D01*
X30336Y04128D01*
X30194Y04069D01*
X30085Y03960D01*
X30026Y03818D01*
X30026Y03664D01*
X30085Y03522D01*
X30090Y03517D01*
X30090Y03295D01*
X29957Y03350D01*
X29803Y03350D01*
X29661Y03291D01*
X29552Y03182D01*
X29493Y03040D01*
X29493Y02886D01*
X29532Y02793D01*
X29532Y02753D01*
X29478Y02730D01*
X29478Y06841D01*
X29478Y07154D01*
X29065Y07154D01*
X29003Y07092D01*
X29004Y06980D01*
X29042Y06888D01*
X29112Y06818D01*
X29203Y06780D01*
X29302Y06780D01*
X29416Y06779D01*
X29478Y06841D01*
X29478Y02730D01*
X29464Y02724D01*
X29394Y02654D01*
X29356Y02563D01*
X29356Y02464D01*
X29356Y02114D01*
X29394Y02022D01*
X29453Y01963D01*
X29410Y01921D01*
X29309Y01962D01*
X29155Y01962D01*
X29013Y01903D01*
X28937Y01827D01*
X28861Y01903D01*
X28719Y01962D01*
X28565Y01962D01*
X28423Y01903D01*
X28314Y01794D01*
X28255Y01652D01*
X28255Y01498D01*
X28314Y01356D01*
X28423Y01247D01*
X28565Y01188D01*
X28590Y01188D01*
X28590Y01004D01*
X28518Y00974D01*
X28448Y00904D01*
X28410Y00813D01*
X28410Y00714D01*
X28410Y00346D01*
X28350Y00346D01*
X28350Y00812D01*
X28312Y00904D01*
X28242Y00974D01*
X28228Y00980D01*
X28228Y01575D01*
X28228Y02543D01*
X28267Y02636D01*
X28267Y02790D01*
X28228Y02884D01*
X28228Y03469D01*
X28281Y03522D01*
X28340Y03664D01*
X28340Y03818D01*
X28281Y03960D01*
X28172Y04069D01*
X28030Y04128D01*
X27876Y04128D01*
X27734Y04069D01*
X27625Y03960D01*
X27566Y03818D01*
X27566Y03814D01*
X27558Y03802D01*
X27532Y03668D01*
X27532Y02884D01*
X27493Y02790D01*
X27493Y02636D01*
X27532Y02543D01*
X27532Y01962D01*
X27384Y01962D01*
X27242Y01903D01*
X27133Y01794D01*
X27074Y01652D01*
X27074Y01498D01*
X27133Y01356D01*
X27242Y01247D01*
X27384Y01188D01*
X27532Y01188D01*
X27532Y00980D01*
X27518Y00974D01*
X27448Y00904D01*
X27410Y00813D01*
X27410Y00714D01*
X27410Y00346D01*
X27350Y00346D01*
X27351Y00351D01*
X27351Y00575D01*
X27350Y00714D01*
X27350Y00813D01*
X27312Y00904D01*
X27242Y00974D01*
X27150Y01012D01*
X26992Y01013D01*
X26930Y00951D01*
X26930Y00513D01*
X27289Y00513D01*
X27351Y00575D01*
X27351Y00351D01*
X27289Y00413D01*
X26980Y00413D01*
X26930Y00413D01*
X26830Y00413D01*
X26830Y00513D01*
X26830Y00951D01*
X26768Y01013D01*
X26610Y01012D01*
X26518Y00974D01*
X26448Y00904D01*
X26410Y00813D01*
X26410Y00714D01*
X26409Y00575D01*
X26471Y00513D01*
X26830Y00513D01*
X26830Y00413D01*
X26780Y00413D01*
X26471Y00413D01*
X26409Y00351D01*
X26409Y00346D01*
X25111Y00346D01*
X25111Y00365D01*
X25111Y00817D01*
X25111Y00913D01*
X25050Y00974D01*
X24715Y00974D01*
X24715Y00679D01*
X24777Y00617D01*
X24911Y00618D01*
X25003Y00656D01*
X25073Y00726D01*
X25111Y00817D01*
X25111Y00365D01*
X25073Y00456D01*
X25003Y00526D01*
X24911Y00564D01*
X24777Y00565D01*
X24715Y00503D01*
X24715Y00346D01*
X24615Y00346D01*
X24615Y00503D01*
X24553Y00565D01*
X24419Y00564D01*
X24327Y00526D01*
X24257Y00456D01*
X24219Y00365D01*
X24219Y00346D01*
X24177Y00346D01*
X24180Y00348D01*
X24246Y00505D01*
X24246Y00675D01*
X24220Y00736D01*
X24252Y00736D01*
X24257Y00726D01*
X24327Y00656D01*
X24419Y00618D01*
X24553Y00617D01*
X24615Y00679D01*
X24615Y00924D01*
X24615Y00974D01*
X24615Y01074D01*
X24715Y01074D01*
X24765Y01074D01*
X25050Y01074D01*
X25111Y01135D01*
X25111Y01227D01*
X25321Y01227D01*
X25415Y01188D01*
X25569Y01188D01*
X25711Y01247D01*
X25820Y01356D01*
X25879Y01498D01*
X25879Y01652D01*
X25820Y01794D01*
X25711Y01903D01*
X25569Y01962D01*
X25415Y01962D01*
X25321Y01923D01*
X24705Y01923D01*
X24676Y01923D01*
X25303Y02550D01*
X25303Y02551D01*
X25304Y02551D01*
X25366Y02644D01*
X25367Y02645D01*
X25388Y02755D01*
X25389Y02756D01*
X25389Y03582D01*
X25427Y03620D01*
X25486Y03762D01*
X25486Y03916D01*
X25427Y04058D01*
X25318Y04167D01*
X25176Y04226D01*
X25022Y04226D01*
X24880Y04167D01*
X24771Y04058D01*
X24712Y03916D01*
X24712Y03762D01*
X24771Y03620D01*
X24809Y03582D01*
X24809Y02876D01*
X24192Y02259D01*
X24016Y02259D01*
X23905Y02237D01*
X23811Y02174D01*
X23302Y01666D01*
X23282Y01716D01*
X23212Y01786D01*
X23202Y01790D01*
X23261Y01848D01*
X23320Y01990D01*
X23320Y02144D01*
X23261Y02286D01*
X23179Y02368D01*
X23524Y02368D01*
X23721Y02368D01*
X23736Y02372D01*
X23742Y02369D01*
X23896Y02369D01*
X24038Y02428D01*
X24147Y02537D01*
X24206Y02679D01*
X24206Y02810D01*
X24235Y02822D01*
X24344Y02931D01*
X24398Y03063D01*
X24530Y03117D01*
X24639Y03226D01*
X24698Y03368D01*
X24698Y03522D01*
X24639Y03664D01*
X24530Y03773D01*
X24388Y03832D01*
X24234Y03832D01*
X24092Y03773D01*
X24054Y03735D01*
X23707Y03735D01*
X23655Y03861D01*
X23546Y03970D01*
X23517Y03983D01*
X23517Y04014D01*
X23458Y04156D01*
X23349Y04265D01*
X23320Y04278D01*
X23320Y04310D01*
X23261Y04452D01*
X23152Y04561D01*
X23010Y04620D01*
X22856Y04620D01*
X22714Y04561D01*
X22676Y04523D01*
X22009Y04523D01*
X21971Y04561D01*
X21829Y04620D01*
X21675Y04620D01*
X21533Y04561D01*
X21424Y04452D01*
X21365Y04310D01*
X21365Y04278D01*
X21336Y04265D01*
X21227Y04156D01*
X21168Y04014D01*
X21168Y03860D01*
X21227Y03718D01*
X21303Y03642D01*
X21227Y03566D01*
X21168Y03424D01*
X21168Y03342D01*
X18919Y03342D01*
X16937Y05324D01*
X16843Y05387D01*
X16732Y05409D01*
X14293Y05409D01*
X14183Y05519D01*
X14250Y05519D01*
X14392Y05578D01*
X14430Y05616D01*
X20548Y05616D01*
X20955Y05209D01*
X20956Y05209D01*
X21018Y05168D01*
X21049Y05147D01*
X21050Y05146D01*
X21160Y05125D01*
X21161Y05124D01*
X23327Y05124D01*
X23334Y05126D01*
X23334Y05042D01*
X23393Y04900D01*
X23502Y04791D01*
X23644Y04732D01*
X23798Y04732D01*
X23940Y04791D01*
X24049Y04900D01*
X24103Y05032D01*
X24235Y05086D01*
X24344Y05195D01*
X24403Y05337D01*
X24403Y05391D01*
X24431Y05419D01*
X25826Y05419D01*
X25864Y05381D01*
X26006Y05322D01*
X26160Y05322D01*
X26302Y05381D01*
X26411Y05490D01*
X26470Y05632D01*
X26470Y05786D01*
X26411Y05928D01*
X26334Y06005D01*
X26411Y06081D01*
X26470Y06223D01*
X26470Y06313D01*
X26597Y06365D01*
X26706Y06474D01*
X26765Y06616D01*
X26765Y06770D01*
X26706Y06912D01*
X26597Y07021D01*
X26455Y07080D01*
X26401Y07080D01*
X26189Y07292D01*
X26163Y07310D01*
X26214Y07360D01*
X26273Y07502D01*
X26273Y07656D01*
X26214Y07798D01*
X26105Y07907D01*
X25963Y07966D01*
X25809Y07966D01*
X25667Y07907D01*
X25558Y07798D01*
X25499Y07656D01*
X25499Y07602D01*
X25471Y07574D01*
X24530Y07574D01*
X24222Y07882D01*
X24128Y07945D01*
X24017Y07967D01*
X24016Y07967D01*
X21647Y07967D01*
X21647Y07978D01*
X24016Y07978D01*
X24546Y07978D01*
X24584Y07940D01*
X24726Y07881D01*
X24880Y07881D01*
X25022Y07940D01*
X25131Y08049D01*
X25190Y08191D01*
X25190Y08345D01*
X25178Y08374D01*
X25318Y08432D01*
X25427Y08541D01*
X25486Y08683D01*
X25486Y08837D01*
X25427Y08979D01*
X25318Y09088D01*
X25176Y09147D01*
X25137Y09147D01*
X25190Y09274D01*
X25190Y09428D01*
X25131Y09570D01*
X25022Y09679D01*
X24880Y09738D01*
X24726Y09738D01*
X24584Y09679D01*
X24546Y09641D01*
X24114Y09641D01*
X21940Y09641D01*
X22148Y09849D01*
X24115Y09849D01*
X24226Y09871D01*
X24320Y09934D01*
X24910Y10524D01*
X25022Y10636D01*
X25149Y10636D01*
X25143Y10621D01*
X25143Y10444D01*
X25211Y10280D01*
X25336Y10154D01*
X25500Y10086D01*
X25677Y10086D01*
X25734Y10110D01*
X25696Y10018D01*
X25696Y09864D01*
X25697Y09861D01*
X25694Y09842D01*
X25694Y08760D01*
X25694Y08722D01*
X25656Y08684D01*
X25597Y08542D01*
X25597Y08388D01*
X25656Y08246D01*
X25765Y08137D01*
X25907Y08078D01*
X26061Y08078D01*
X26181Y08128D01*
X26301Y08078D01*
X26455Y08078D01*
X26597Y08137D01*
X26706Y08246D01*
X26765Y08388D01*
X26765Y08542D01*
X26706Y08684D01*
X26668Y08722D01*
X26668Y09154D01*
X26668Y10117D01*
X26891Y10340D01*
X27310Y10340D01*
X27310Y10306D01*
X27348Y10214D01*
X27418Y10144D01*
X27509Y10106D01*
X27608Y10106D01*
X28868Y10106D01*
X28960Y10144D01*
X29030Y10214D01*
X29068Y10305D01*
X29068Y10340D01*
X29988Y10340D01*
X29988Y10306D01*
X30026Y10214D01*
X30096Y10144D01*
X30187Y10106D01*
X30286Y10106D01*
X30980Y10106D01*
X31073Y10013D01*
X31074Y10013D01*
X31168Y09950D01*
X31279Y09928D01*
X31590Y09928D01*
X31601Y09902D01*
X31660Y09843D01*
X31601Y09784D01*
X31590Y09758D01*
X31279Y09758D01*
X31168Y09736D01*
X31073Y09673D01*
X30980Y09580D01*
X30188Y09580D01*
X30096Y09542D01*
X30026Y09472D01*
X29988Y09381D01*
X29988Y09282D01*
X29988Y08732D01*
X30026Y08640D01*
X30096Y08570D01*
X30187Y08532D01*
X30286Y08532D01*
X30577Y08532D01*
X30577Y08378D01*
X30089Y08378D01*
X29997Y08340D01*
X29970Y08314D01*
X29944Y08340D01*
X29853Y08378D01*
X29754Y08378D01*
X29204Y08378D01*
X29112Y08340D01*
X29068Y08296D01*
X29068Y08731D01*
X29068Y08830D01*
X29068Y09380D01*
X29030Y09472D01*
X28960Y09542D01*
X28869Y09580D01*
X28770Y09580D01*
X27582Y09580D01*
X27483Y09679D01*
X27341Y09738D01*
X27187Y09738D01*
X27045Y09679D01*
X26936Y09570D01*
X26877Y09428D01*
X26877Y09274D01*
X26916Y09181D01*
X26916Y08465D01*
X26942Y08331D01*
X27018Y08219D01*
X27605Y07632D01*
X27605Y06274D01*
X27566Y06180D01*
X27566Y06026D01*
X27625Y05884D01*
X27734Y05775D01*
X27876Y05716D01*
X28030Y05716D01*
X28172Y05775D01*
X28281Y05884D01*
X28340Y06026D01*
X28340Y06180D01*
X28301Y06274D01*
X28301Y07776D01*
X28275Y07909D01*
X28274Y07910D01*
X28199Y08022D01*
X27689Y08532D01*
X28868Y08532D01*
X28960Y08570D01*
X29030Y08640D01*
X29068Y08731D01*
X29068Y08296D01*
X29042Y08270D01*
X29004Y08179D01*
X29004Y08080D01*
X29004Y07730D01*
X29042Y07638D01*
X29101Y07579D01*
X29042Y07520D01*
X29004Y07428D01*
X29003Y07316D01*
X29065Y07254D01*
X29428Y07254D01*
X29478Y07254D01*
X29578Y07254D01*
X29578Y07154D01*
X29578Y07104D01*
X29578Y06841D01*
X29640Y06779D01*
X29754Y06780D01*
X29853Y06780D01*
X29944Y06818D01*
X29970Y06845D01*
X29997Y06818D01*
X30088Y06780D01*
X30123Y06780D01*
X30123Y06655D01*
X30085Y06617D01*
X30026Y06475D01*
X30026Y06321D01*
X30085Y06179D01*
X30194Y06070D01*
X30336Y06011D01*
X30490Y06011D01*
X30519Y06024D01*
X30519Y05927D01*
X30578Y05785D01*
X30687Y05676D01*
X30829Y05617D01*
X30983Y05617D01*
X31125Y05676D01*
X31234Y05785D01*
X31293Y05927D01*
X31293Y06081D01*
X31234Y06223D01*
X31196Y06261D01*
X31196Y06306D01*
X31273Y06306D01*
X31285Y06277D01*
X31355Y06207D01*
X31446Y06169D01*
X31545Y06169D01*
X32300Y06169D01*
X32389Y06080D01*
X32389Y06026D01*
X32448Y05884D01*
X32557Y05775D01*
X32699Y05716D01*
X32853Y05716D01*
X32995Y05775D01*
X33104Y05884D01*
X33163Y06026D01*
X33163Y06180D01*
X33104Y06322D01*
X33005Y06421D01*
X33005Y06467D01*
X33005Y07017D01*
X32967Y07109D01*
X32897Y07179D01*
X32806Y07217D01*
X32707Y07217D01*
X31447Y07217D01*
X31355Y07179D01*
X31285Y07109D01*
X31272Y07080D01*
X31196Y07080D01*
X31196Y07361D01*
X31322Y07487D01*
X31376Y07487D01*
X31518Y07546D01*
X31627Y07655D01*
X31686Y07797D01*
X31686Y07951D01*
X31627Y08093D01*
X31518Y08202D01*
X31376Y08261D01*
X31222Y08261D01*
X31157Y08234D01*
X31157Y08532D01*
X31546Y08532D01*
X31638Y08570D01*
X31708Y08640D01*
X31746Y08731D01*
X31746Y08830D01*
X31746Y09051D01*
X31762Y09044D01*
X31861Y09044D01*
X32411Y09044D01*
X32503Y09082D01*
X32573Y09152D01*
X32587Y09188D01*
X32657Y09118D01*
X32748Y09080D01*
X32847Y09080D01*
X33076Y09080D01*
X33076Y09067D01*
X32747Y09067D01*
X32655Y09029D01*
X32585Y08959D01*
X32547Y08868D01*
X32547Y08769D01*
X32547Y08419D01*
X32585Y08327D01*
X32644Y08268D01*
X32585Y08209D01*
X32574Y08183D01*
X32522Y08183D01*
X32503Y08202D01*
X32361Y08261D01*
X32207Y08261D01*
X32065Y08202D01*
X31956Y08093D01*
X31897Y07951D01*
X31897Y07797D01*
X31956Y07655D01*
X32065Y07546D01*
X32207Y07487D01*
X32361Y07487D01*
X32503Y07546D01*
X32560Y07603D01*
X32574Y07603D01*
X32585Y07577D01*
X32655Y07507D01*
X32746Y07469D01*
X32845Y07469D01*
X33395Y07469D01*
X33487Y07507D01*
X33557Y07577D01*
X33595Y07668D01*
X33595Y07767D01*
X33595Y08117D01*
X33557Y08209D01*
X33498Y08268D01*
X33557Y08327D01*
X33595Y08418D01*
X33595Y08517D01*
X33595Y08769D01*
X33634Y08827D01*
X33656Y08938D01*
X33656Y09470D01*
X33692Y09454D01*
X33791Y09454D01*
X33825Y09453D01*
X33887Y09515D01*
X33887Y09743D01*
X33887Y09793D01*
X33887Y09893D01*
X33987Y09893D01*
X34037Y09893D01*
X34320Y09893D01*
X34382Y09955D01*
X34381Y10032D01*
X34343Y10124D01*
X34284Y10183D01*
X34323Y10221D01*
X34388Y10379D01*
X34637Y10130D01*
X34638Y10130D01*
X34700Y10089D01*
X34731Y10068D01*
X34732Y10067D01*
X34842Y10046D01*
X34843Y10045D01*
X35768Y10045D01*
X35879Y10067D01*
X35937Y10106D01*
X36742Y10106D01*
X36834Y10144D01*
X36904Y10214D01*
X36942Y10305D01*
X36942Y10404D01*
X36942Y10954D01*
X36904Y11046D01*
X36834Y11116D01*
X36743Y11154D01*
X36644Y11154D01*
X36353Y11154D01*
X36353Y11299D01*
X36450Y11396D01*
X36509Y11538D01*
X36509Y11692D01*
X36450Y11834D01*
X36411Y11873D01*
X36411Y13801D01*
X36411Y13955D01*
X36352Y14097D01*
X36243Y14206D01*
X36101Y14265D01*
X35947Y14265D01*
X35853Y14226D01*
X35676Y14226D01*
X35683Y14242D01*
X35683Y14341D01*
X35683Y14891D01*
X35645Y14983D01*
X35575Y15053D01*
X35484Y15091D01*
X35385Y15091D01*
X34125Y15091D01*
X34033Y15053D01*
X33963Y14983D01*
X33925Y14892D01*
X33925Y14793D01*
X33925Y14749D01*
X33245Y14069D01*
X33191Y14069D01*
X33049Y14010D01*
X32940Y13901D01*
X32881Y13759D01*
X32881Y13605D01*
X32940Y13463D01*
X33049Y13354D01*
X33191Y13295D01*
X33345Y13295D01*
X33487Y13354D01*
X33596Y13463D01*
X33655Y13605D01*
X33655Y13659D01*
X33705Y13710D01*
X33727Y13659D01*
X33836Y13550D01*
X33978Y13491D01*
X34062Y13491D01*
X34033Y13479D01*
X33963Y13409D01*
X33925Y13318D01*
X33925Y13219D01*
X33924Y13105D01*
X33986Y13043D01*
X34754Y13043D01*
X34754Y13456D01*
X34692Y13518D01*
X34194Y13518D01*
X34225Y13530D01*
X35853Y13530D01*
X35947Y13491D01*
X36101Y13491D01*
X36243Y13550D01*
X36352Y13659D01*
X36411Y13801D01*
X36411Y11873D01*
X36341Y11943D01*
X36199Y12002D01*
X36115Y12002D01*
X36115Y12085D01*
X36056Y12227D01*
X35947Y12336D01*
X35805Y12395D01*
X35651Y12395D01*
X35647Y12394D01*
X35629Y12397D01*
X35623Y12397D01*
X35623Y12479D01*
X35600Y12533D01*
X35645Y12577D01*
X35683Y12668D01*
X35683Y12767D01*
X35684Y12881D01*
X35684Y13105D01*
X35683Y13219D01*
X35683Y13318D01*
X35645Y13409D01*
X35575Y13479D01*
X35483Y13517D01*
X34916Y13518D01*
X34854Y13456D01*
X34854Y13043D01*
X35622Y13043D01*
X35684Y13105D01*
X35684Y12881D01*
X35622Y12943D01*
X34904Y12943D01*
X34854Y12943D01*
X34754Y12943D01*
X34704Y12943D01*
X33986Y12943D01*
X33924Y12881D01*
X33924Y12790D01*
X33410Y12790D01*
X33399Y12818D01*
X33290Y12927D01*
X33148Y12986D01*
X33006Y12986D01*
X33006Y13105D01*
X33005Y13219D01*
X33005Y13318D01*
X32967Y13409D01*
X32897Y13479D01*
X32805Y13517D01*
X32238Y13518D01*
X32176Y13456D01*
X32176Y13043D01*
X32944Y13043D01*
X33006Y13105D01*
X33006Y12986D01*
X32994Y12986D01*
X32890Y12943D01*
X32226Y12943D01*
X32176Y12943D01*
X32076Y12943D01*
X32076Y13043D01*
X32076Y13093D01*
X32076Y13456D01*
X32014Y13518D01*
X31491Y13518D01*
X31491Y14043D01*
X31545Y14043D01*
X32805Y14043D01*
X32897Y14081D01*
X32967Y14151D01*
X33005Y14242D01*
X33005Y14341D01*
X33005Y14891D01*
X32967Y14983D01*
X32897Y15053D01*
X32806Y15091D01*
X32707Y15091D01*
X32390Y15091D01*
X32390Y15622D01*
X32390Y15860D01*
X32384Y15875D01*
X32384Y16650D01*
X32373Y16885D01*
X32304Y17051D01*
X32205Y17084D01*
X32134Y17013D01*
X32134Y17155D01*
X32101Y17254D01*
X31882Y17334D01*
X31647Y17323D01*
X31481Y17254D01*
X31448Y17155D01*
X31791Y16812D01*
X32134Y17155D01*
X32134Y17013D01*
X31862Y16741D01*
X32205Y16398D01*
X32304Y16431D01*
X32384Y16650D01*
X32384Y15875D01*
X32299Y16080D01*
X32130Y16249D01*
X32110Y16257D01*
X32134Y16327D01*
X31791Y16670D01*
X31720Y16599D01*
X31720Y16741D01*
X31377Y17084D01*
X31278Y17051D01*
X31198Y16832D01*
X31209Y16597D01*
X31278Y16431D01*
X31377Y16398D01*
X31720Y16741D01*
X31720Y16599D01*
X31448Y16327D01*
X31471Y16257D01*
X31452Y16249D01*
X31283Y16080D01*
X31192Y15860D01*
X31192Y15629D01*
X31174Y15672D01*
X31104Y15742D01*
X31012Y15780D01*
X30900Y15781D01*
X30838Y15719D01*
X30838Y15306D01*
X31151Y15306D01*
X31213Y15368D01*
X31212Y15482D01*
X31212Y15574D01*
X31283Y15402D01*
X31452Y15233D01*
X31672Y15142D01*
X31910Y15142D01*
X32130Y15233D01*
X32299Y15402D01*
X32390Y15622D01*
X32390Y15091D01*
X31447Y15091D01*
X31355Y15053D01*
X31285Y14983D01*
X31259Y14921D01*
X31212Y14941D01*
X31212Y15030D01*
X31213Y15144D01*
X31151Y15206D01*
X30888Y15206D01*
X30838Y15206D01*
X30738Y15206D01*
X30738Y15306D01*
X30738Y15356D01*
X30738Y15719D01*
X30676Y15781D01*
X30564Y15780D01*
X30472Y15742D01*
X30413Y15683D01*
X30354Y15742D01*
X30263Y15780D01*
X30164Y15780D01*
X29814Y15780D01*
X29722Y15742D01*
X29652Y15672D01*
X29614Y15581D01*
X29614Y15528D01*
X29577Y15502D01*
X29528Y15453D01*
X29479Y15502D01*
X29441Y15528D01*
X29441Y15580D01*
X29403Y15672D01*
X29333Y15742D01*
X29242Y15780D01*
X29158Y15780D01*
X29143Y15780D01*
X28793Y15780D01*
X28701Y15742D01*
X28642Y15683D01*
X28583Y15742D01*
X28491Y15780D01*
X28379Y15781D01*
X28317Y15719D01*
X28317Y15356D01*
X28317Y15306D01*
X28317Y15206D01*
X28317Y15156D01*
X28317Y14793D01*
X28379Y14731D01*
X28491Y14732D01*
X28583Y14770D01*
X28642Y14829D01*
X28701Y14770D01*
X28792Y14732D01*
X28891Y14732D01*
X29210Y14732D01*
X29309Y14633D01*
X29451Y14574D01*
X29605Y14574D01*
X29747Y14633D01*
X29846Y14732D01*
X29912Y14732D01*
X30262Y14732D01*
X30354Y14770D01*
X30413Y14829D01*
X30472Y14770D01*
X30564Y14732D01*
X30676Y14731D01*
X30688Y14743D01*
X30688Y14731D01*
X30738Y14731D01*
X30750Y14731D01*
X30738Y14700D01*
X30715Y14644D01*
X30715Y14490D01*
X30774Y14348D01*
X30883Y14239D01*
X30911Y14228D01*
X30911Y14075D01*
X30911Y13348D01*
X30873Y13310D01*
X30814Y13168D01*
X30814Y13014D01*
X30873Y12872D01*
X30982Y12763D01*
X31124Y12704D01*
X31247Y12704D01*
X31247Y12668D01*
X31277Y12594D01*
X28217Y12594D01*
X28217Y14793D01*
X28217Y15206D01*
X28217Y15306D01*
X28217Y15719D01*
X28155Y15781D01*
X28043Y15780D01*
X27951Y15742D01*
X27881Y15672D01*
X27843Y15581D01*
X27843Y15482D01*
X27842Y15368D01*
X27904Y15306D01*
X28217Y15306D01*
X28217Y15206D01*
X27904Y15206D01*
X27842Y15144D01*
X27843Y15030D01*
X27843Y14931D01*
X27881Y14840D01*
X27951Y14770D01*
X28043Y14732D01*
X28155Y14731D01*
X28217Y14793D01*
X28217Y12594D01*
X27875Y12594D01*
X27765Y12704D01*
X27765Y18262D01*
X27765Y18750D01*
X27277Y18750D01*
X27215Y18688D01*
X27216Y18499D01*
X27216Y18400D01*
X27254Y18309D01*
X27324Y18239D01*
X27416Y18201D01*
X27703Y18200D01*
X27765Y18262D01*
X27765Y12704D01*
X25992Y14477D01*
X25898Y14540D01*
X25787Y14562D01*
X21222Y14562D01*
X21184Y14600D01*
X21152Y14613D01*
X22270Y14613D01*
X22364Y14574D01*
X22518Y14574D01*
X22611Y14613D01*
X25124Y14613D01*
X25218Y14574D01*
X25372Y14574D01*
X25514Y14633D01*
X25623Y14742D01*
X25682Y14884D01*
X25682Y15038D01*
X25623Y15180D01*
X25514Y15289D01*
X25372Y15348D01*
X25218Y15348D01*
X25124Y15309D01*
X22611Y15309D01*
X22518Y15348D01*
X22364Y15348D01*
X22270Y15309D01*
X21942Y15309D01*
X21942Y15432D01*
X21883Y15574D01*
X21774Y15683D01*
X21632Y15742D01*
X21478Y15742D01*
X21336Y15683D01*
X21298Y15645D01*
X19823Y15645D01*
X19828Y15657D01*
X19861Y15657D01*
X20003Y15716D01*
X20112Y15825D01*
X20124Y15854D01*
X20156Y15854D01*
X20298Y15913D01*
X20407Y16022D01*
X20466Y16164D01*
X20466Y16286D01*
X24810Y16286D01*
X24810Y16164D01*
X24869Y16022D01*
X24978Y15913D01*
X25120Y15854D01*
X25274Y15854D01*
X25411Y15912D01*
X25794Y15529D01*
X25794Y15475D01*
X25853Y15333D01*
X25962Y15224D01*
X26104Y15165D01*
X26258Y15165D01*
X26400Y15224D01*
X26509Y15333D01*
X26531Y15388D01*
X26596Y15361D01*
X26750Y15361D01*
X26892Y15420D01*
X27001Y15529D01*
X27060Y15671D01*
X27060Y15825D01*
X27001Y15967D01*
X26892Y16076D01*
X26797Y16116D01*
X26228Y16685D01*
X26288Y16725D01*
X26498Y16935D01*
X27007Y16935D01*
X27045Y16897D01*
X27187Y16838D01*
X27341Y16838D01*
X27483Y16897D01*
X27592Y17006D01*
X27651Y17148D01*
X27651Y17302D01*
X27592Y17444D01*
X27483Y17553D01*
X27341Y17612D01*
X27187Y17612D01*
X27045Y17553D01*
X27007Y17515D01*
X26378Y17515D01*
X26267Y17493D01*
X26173Y17430D01*
X25963Y17220D01*
X10827Y17220D01*
X10716Y17198D01*
X10622Y17135D01*
X10608Y17121D01*
X10493Y17121D01*
X10455Y17159D01*
X10313Y17218D01*
X10159Y17218D01*
X10017Y17159D01*
X09944Y17087D01*
X09821Y17138D01*
X09667Y17138D01*
X09525Y17079D01*
X09416Y16970D01*
X09357Y16828D01*
X09357Y16674D01*
X09396Y16581D01*
X09396Y15427D01*
X09357Y15333D01*
X09357Y15179D01*
X09367Y15153D01*
X09214Y15153D01*
X09176Y15191D01*
X09034Y15250D01*
X08880Y15250D01*
X08738Y15191D01*
X08629Y15082D01*
X08570Y14940D01*
X08570Y14786D01*
X08629Y14644D01*
X08738Y14535D01*
X08880Y14476D01*
X09034Y14476D01*
X09176Y14535D01*
X09214Y14573D01*
X10138Y14573D01*
X10249Y14595D01*
X10343Y14658D01*
X10441Y14756D01*
X10504Y14850D01*
X10525Y14961D01*
X10526Y14961D01*
X10526Y16541D01*
X10728Y16541D01*
X10839Y16563D01*
X10933Y16626D01*
X10947Y16640D01*
X11817Y16640D01*
X11073Y15896D01*
X10997Y15784D01*
X10971Y15650D01*
X10971Y15427D01*
X10932Y15333D01*
X10932Y15179D01*
X10991Y15037D01*
X11100Y14928D01*
X11242Y14869D01*
X11369Y14869D01*
X11286Y14786D01*
X11227Y14644D01*
X11227Y14490D01*
X11286Y14348D01*
X11395Y14239D01*
X11537Y14180D01*
X11553Y14180D01*
X11679Y14054D01*
X11679Y13486D01*
X11641Y13448D01*
X11582Y13306D01*
X11582Y13152D01*
X11641Y13010D01*
X11750Y12901D01*
X11892Y12842D01*
X12046Y12842D01*
X12188Y12901D01*
X12297Y13010D01*
X12356Y13152D01*
X12356Y13306D01*
X12297Y13448D01*
X12259Y13486D01*
X12259Y14082D01*
X12271Y14053D01*
X12380Y13944D01*
X12522Y13885D01*
X12676Y13885D01*
X12818Y13944D01*
X12927Y14053D01*
X12986Y14195D01*
X12986Y14349D01*
X12928Y14488D01*
X13703Y15262D01*
X13885Y15262D01*
X13885Y15179D01*
X13944Y15037D01*
X14053Y14928D01*
X14195Y14869D01*
X14349Y14869D01*
X14442Y14908D01*
X16857Y14908D01*
X16951Y14869D01*
X17105Y14869D01*
X17198Y14908D01*
X18655Y14908D01*
X18848Y14715D01*
X18960Y14639D01*
X18961Y14639D01*
X19094Y14613D01*
X20777Y14613D01*
X20746Y14600D01*
X20637Y14491D01*
X20578Y14349D01*
X20578Y14195D01*
X20637Y14053D01*
X20746Y13944D01*
X20888Y13885D01*
X21042Y13885D01*
X21184Y13944D01*
X21222Y13982D01*
X25667Y13982D01*
X27252Y12397D01*
X25415Y12397D01*
X25008Y12804D01*
X24910Y12902D01*
X24816Y12965D01*
X24705Y12987D01*
X24016Y12987D01*
X23819Y12987D01*
X23708Y12965D01*
X23682Y12949D01*
X23655Y13015D01*
X23546Y13124D01*
X23404Y13183D01*
X23250Y13183D01*
X23108Y13124D01*
X22999Y13015D01*
X22940Y12873D01*
X22940Y12819D01*
X22026Y11905D01*
X19587Y11905D01*
X19478Y11884D01*
X19595Y12000D01*
X19595Y12001D01*
X19597Y12004D01*
X19693Y12099D01*
X19756Y12193D01*
X19777Y12304D01*
X19778Y12304D01*
X19778Y13425D01*
X19816Y13463D01*
X19875Y13605D01*
X19875Y13759D01*
X19816Y13901D01*
X19707Y14010D01*
X19565Y14069D01*
X19411Y14069D01*
X19269Y14010D01*
X19160Y13901D01*
X19147Y13872D01*
X19116Y13872D01*
X18974Y13813D01*
X18865Y13704D01*
X18806Y13562D01*
X18806Y13530D01*
X18777Y13517D01*
X18668Y13408D01*
X18609Y13266D01*
X18609Y13112D01*
X18668Y12970D01*
X18777Y12861D01*
X18805Y12850D01*
X18805Y12621D01*
X18089Y11905D01*
X18005Y11905D01*
X18005Y13900D01*
X18005Y14054D01*
X17946Y14196D01*
X17837Y14305D01*
X17695Y14364D01*
X17604Y14364D01*
X17552Y14491D01*
X17443Y14600D01*
X17301Y14659D01*
X17147Y14659D01*
X17005Y14600D01*
X16967Y14562D01*
X13938Y14562D01*
X13900Y14600D01*
X13758Y14659D01*
X13604Y14659D01*
X13462Y14600D01*
X13353Y14491D01*
X13294Y14349D01*
X13294Y14195D01*
X13346Y14069D01*
X13309Y14069D01*
X13167Y14010D01*
X13058Y13901D01*
X12999Y13759D01*
X12999Y13605D01*
X13058Y13463D01*
X13167Y13354D01*
X13309Y13295D01*
X13463Y13295D01*
X13605Y13354D01*
X13643Y13392D01*
X17164Y13392D01*
X17202Y13354D01*
X17344Y13295D01*
X17498Y13295D01*
X17640Y13354D01*
X17749Y13463D01*
X17808Y13605D01*
X17808Y13637D01*
X17837Y13649D01*
X17946Y13758D01*
X18005Y13900D01*
X18005Y11905D01*
X17443Y11905D01*
X17430Y11918D01*
X17336Y11981D01*
X17225Y12003D01*
X16338Y12003D01*
X16322Y12000D01*
X16317Y12002D01*
X16163Y12002D01*
X16021Y11943D01*
X15912Y11834D01*
X15853Y11692D01*
X15853Y11538D01*
X15912Y11396D01*
X16021Y11287D01*
X16163Y11228D01*
X16195Y11228D01*
X16208Y11199D01*
X16302Y11105D01*
X16240Y11117D01*
X16087Y11117D01*
X16076Y11145D01*
X15967Y11254D01*
X15825Y11313D01*
X15671Y11313D01*
X15529Y11254D01*
X15420Y11145D01*
X15407Y11116D01*
X15277Y11116D01*
X15135Y11057D01*
X15061Y10984D01*
X14991Y11031D01*
X14880Y11053D01*
X14737Y11053D01*
X14699Y11091D01*
X14557Y11150D01*
X14403Y11150D01*
X14261Y11091D01*
X14152Y10982D01*
X14093Y10840D01*
X14093Y10686D01*
X14152Y10544D01*
X14261Y10435D01*
X14395Y10379D01*
X14427Y10303D01*
X14337Y10303D01*
X14249Y10391D01*
X14107Y10450D01*
X13953Y10450D01*
X13811Y10391D01*
X13702Y10282D01*
X13643Y10140D01*
X13643Y09986D01*
X13702Y09844D01*
X13811Y09735D01*
X13953Y09676D01*
X14107Y09676D01*
X14220Y09723D01*
X15610Y09723D01*
X15625Y09708D01*
X15719Y09645D01*
X15830Y09623D01*
X19077Y09623D01*
X18974Y09580D01*
X18865Y09471D01*
X18806Y09329D01*
X18806Y09175D01*
X18865Y09033D01*
X18974Y08924D01*
X19116Y08865D01*
X19186Y08865D01*
X19230Y08836D01*
X19341Y08814D01*
X21062Y08814D01*
X21030Y08782D01*
X20975Y08651D01*
X20844Y08596D01*
X20735Y08487D01*
X20676Y08345D01*
X20676Y08191D01*
X20733Y08054D01*
X20254Y07574D01*
X19608Y07574D01*
X18118Y09064D01*
X18024Y09127D01*
X17913Y09149D01*
X14276Y09149D01*
X14165Y09127D01*
X14071Y09064D01*
X13960Y08953D01*
X13576Y08953D01*
X13576Y10750D01*
X13576Y10904D01*
X13517Y11046D01*
X13408Y11155D01*
X13266Y11214D01*
X13112Y11214D01*
X12970Y11155D01*
X12932Y11117D01*
X12462Y11117D01*
X12424Y11155D01*
X12282Y11214D01*
X12128Y11214D01*
X11986Y11155D01*
X11877Y11046D01*
X11818Y10904D01*
X11818Y10750D01*
X11877Y10608D01*
X11986Y10499D01*
X12128Y10440D01*
X12282Y10440D01*
X12424Y10499D01*
X12462Y10537D01*
X12932Y10537D01*
X12970Y10499D01*
X13112Y10440D01*
X13266Y10440D01*
X13408Y10499D01*
X13517Y10608D01*
X13576Y10750D01*
X13576Y08953D01*
X12108Y08953D01*
X11997Y08931D01*
X11903Y08868D01*
X11396Y08361D01*
X11379Y08361D01*
X11341Y08399D01*
X11199Y08458D01*
X11045Y08458D01*
X10903Y08399D01*
X10794Y08290D01*
X10735Y08148D01*
X10735Y07994D01*
X10794Y07852D01*
X10903Y07743D01*
X11045Y07684D01*
X11199Y07684D01*
X11341Y07743D01*
X11379Y07781D01*
X11516Y07781D01*
X11627Y07803D01*
X11721Y07866D01*
X12228Y08373D01*
X12900Y08373D01*
X12900Y08290D01*
X12959Y08148D01*
X12997Y08110D01*
X12997Y07776D01*
X12999Y07764D01*
X12894Y07720D01*
X12774Y07769D01*
X12620Y07769D01*
X12478Y07710D01*
X12369Y07601D01*
X12316Y07475D01*
X11773Y07475D01*
X11735Y07513D01*
X11593Y07572D01*
X11439Y07572D01*
X11297Y07513D01*
X11188Y07404D01*
X11129Y07262D01*
X11129Y07108D01*
X11188Y06966D01*
X11297Y06857D01*
X11439Y06798D01*
X11593Y06798D01*
X11735Y06857D01*
X11773Y06895D01*
X12500Y06895D01*
X12611Y06917D01*
X12702Y06978D01*
X12702Y06890D01*
X12724Y06779D01*
X12787Y06685D01*
X12899Y06573D01*
X12899Y05217D01*
X12921Y05106D01*
X12984Y05012D01*
X13673Y04323D01*
X13767Y04260D01*
X13878Y04238D01*
X16316Y04238D01*
X17222Y03332D01*
X17203Y03340D01*
X17049Y03340D01*
X16911Y03283D01*
X16332Y03862D01*
X16332Y03916D01*
X16273Y04058D01*
X16164Y04167D01*
X16022Y04226D01*
X15868Y04226D01*
X15726Y04167D01*
X15617Y04058D01*
X15558Y03916D01*
X15558Y03762D01*
X15617Y03620D01*
X15726Y03511D01*
X15868Y03452D01*
X15922Y03452D01*
X16625Y02749D01*
X16626Y02748D01*
X16719Y02686D01*
X16720Y02685D01*
X16830Y02664D01*
X16831Y02663D01*
X16869Y02663D01*
X16907Y02625D01*
X17049Y02566D01*
X17203Y02566D01*
X17345Y02625D01*
X17454Y02734D01*
X17513Y02876D01*
X17513Y03030D01*
X17504Y03050D01*
X19282Y01272D01*
X19283Y01272D01*
X19345Y01231D01*
X19376Y01210D01*
X19377Y01209D01*
X19487Y01188D01*
X19488Y01187D01*
X21345Y01187D01*
X21345Y01135D01*
X21406Y01074D01*
X21691Y01074D01*
X21741Y01074D01*
X21841Y01074D01*
X21841Y00974D01*
X21841Y00924D01*
X21841Y00679D01*
X21903Y00617D01*
X22037Y00618D01*
X22129Y00656D01*
X22199Y00726D01*
X22202Y00736D01*
X22230Y00735D01*
X22237Y00743D01*
X22210Y00677D01*
X22210Y00507D01*
X22275Y00350D01*
X22278Y00346D01*
X22237Y00346D01*
X22237Y00365D01*
X22199Y00456D01*
X22129Y00526D01*
X22037Y00564D01*
X21903Y00565D01*
X21841Y00503D01*
X21841Y00346D01*
X21741Y00346D01*
X21741Y00503D01*
X21741Y00679D01*
X21741Y00974D01*
X21406Y00974D01*
X21345Y00913D01*
X21345Y00817D01*
X21383Y00726D01*
X21453Y00656D01*
X21545Y00618D01*
X21679Y00617D01*
X21741Y00679D01*
X21741Y00503D01*
X21679Y00565D01*
X21545Y00564D01*
X21453Y00526D01*
X21383Y00456D01*
X21345Y00365D01*
X21345Y00346D01*
X12747Y00346D01*
X12747Y03003D01*
X12159Y03003D01*
X12159Y03990D01*
X12429Y04260D01*
X12522Y04298D01*
X12631Y04407D01*
X12690Y04549D01*
X12690Y04703D01*
X12631Y04845D01*
X12522Y04954D01*
X12380Y05013D01*
X12226Y05013D01*
X12084Y04954D01*
X11975Y04845D01*
X11936Y04753D01*
X11565Y04380D01*
X11489Y04268D01*
X11463Y04134D01*
X11463Y03003D01*
X06588Y03003D01*
X06588Y03800D01*
X06562Y03933D01*
X06562Y03934D01*
X06549Y03953D01*
X06549Y03954D01*
X06549Y04286D01*
X06601Y04338D01*
X06601Y04254D01*
X06660Y04112D01*
X06769Y04003D01*
X06911Y03944D01*
X07065Y03944D01*
X07207Y04003D01*
X07245Y04041D01*
X07519Y04041D01*
X07557Y04003D01*
X07699Y03944D01*
X07853Y03944D01*
X07995Y04003D01*
X08104Y04112D01*
X08163Y04254D01*
X08163Y04408D01*
X08104Y04550D01*
X07995Y04659D01*
X07853Y04718D01*
X07699Y04718D01*
X07557Y04659D01*
X07519Y04621D01*
X07245Y04621D01*
X07207Y04659D01*
X07065Y04718D01*
X07027Y04718D01*
X07080Y04845D01*
X07080Y04999D01*
X07021Y05141D01*
X06912Y05250D01*
X06770Y05309D01*
X06616Y05309D01*
X06474Y05250D01*
X06439Y05216D01*
X06430Y05239D01*
X06321Y05348D01*
X06179Y05407D01*
X06025Y05407D01*
X05883Y05348D01*
X05774Y05239D01*
X05715Y05097D01*
X05715Y05043D01*
X05687Y05015D01*
X05130Y05015D01*
X05130Y05089D01*
X05131Y05203D01*
X05131Y05427D01*
X05130Y05541D01*
X05130Y05640D01*
X05092Y05731D01*
X05022Y05801D01*
X04930Y05839D01*
X04818Y05840D01*
X04756Y05778D01*
X04756Y05365D01*
X05069Y05365D01*
X05131Y05427D01*
X05131Y05203D01*
X05069Y05265D01*
X04806Y05265D01*
X04756Y05265D01*
X04656Y05265D01*
X04656Y05365D01*
X04656Y05415D01*
X04656Y05778D01*
X04594Y05840D01*
X04482Y05839D01*
X04390Y05801D01*
X04331Y05742D01*
X04272Y05801D01*
X04181Y05839D01*
X04147Y05839D01*
X04147Y06778D01*
X04147Y07002D01*
X04146Y07116D01*
X04146Y07215D01*
X04108Y07306D01*
X04038Y07376D01*
X03946Y07414D01*
X03834Y07415D01*
X03772Y07353D01*
X03772Y06940D01*
X04085Y06940D01*
X04147Y07002D01*
X04147Y06778D01*
X04085Y06840D01*
X03772Y06840D01*
X03772Y06427D01*
X03834Y06365D01*
X03946Y06366D01*
X04038Y06404D01*
X04108Y06474D01*
X04146Y06565D01*
X04146Y06664D01*
X04147Y06778D01*
X04147Y05839D01*
X04082Y05839D01*
X03732Y05839D01*
X03673Y05815D01*
X03673Y05955D01*
X03635Y06047D01*
X03593Y06089D01*
X03593Y06366D01*
X03610Y06365D01*
X03672Y06427D01*
X03672Y06790D01*
X03672Y06840D01*
X03672Y06940D01*
X03672Y06990D01*
X03672Y07353D01*
X03610Y07415D01*
X03593Y07415D01*
X03593Y08728D01*
X04676Y09220D01*
X04676Y10961D01*
X03673Y11325D01*
X03673Y13729D01*
X03673Y13828D01*
X03673Y15088D01*
X03635Y15180D01*
X03565Y15250D01*
X03474Y15288D01*
X03375Y15288D01*
X02825Y15288D01*
X02733Y15250D01*
X02663Y15180D01*
X02625Y15089D01*
X02625Y14990D01*
X02625Y13730D01*
X02663Y13638D01*
X02733Y13568D01*
X02824Y13530D01*
X02923Y13530D01*
X03473Y13530D01*
X03565Y13568D01*
X03635Y13638D01*
X03673Y13729D01*
X03673Y11325D01*
X03593Y11354D01*
X03593Y12354D01*
X02100Y12354D01*
X02100Y14297D01*
X02100Y14521D01*
X02100Y16975D01*
X02038Y17037D01*
X01625Y17037D01*
X01625Y16269D01*
X01687Y16207D01*
X01801Y16208D01*
X01900Y16208D01*
X01991Y16246D01*
X02061Y16316D01*
X02099Y16408D01*
X02100Y16975D01*
X02100Y14521D01*
X02099Y15088D01*
X02061Y15180D01*
X01991Y15250D01*
X01900Y15288D01*
X01801Y15288D01*
X01687Y15289D01*
X01625Y15227D01*
X01625Y14459D01*
X02038Y14459D01*
X02100Y14521D01*
X02100Y14297D01*
X02038Y14359D01*
X01625Y14359D01*
X01625Y13591D01*
X01687Y13529D01*
X01801Y13530D01*
X01900Y13530D01*
X01991Y13568D01*
X02061Y13638D01*
X02099Y13730D01*
X02100Y14297D01*
X02100Y12354D01*
X01231Y12354D01*
X01231Y13538D01*
X01250Y13530D01*
X01349Y13530D01*
X01463Y13529D01*
X01525Y13591D01*
X01525Y14309D01*
X01525Y14359D01*
X01525Y14459D01*
X01525Y14509D01*
X01525Y15227D01*
X01463Y15289D01*
X01349Y15288D01*
X01250Y15288D01*
X01231Y15281D01*
X01231Y15557D01*
X01266Y15592D01*
X01335Y15757D01*
X01335Y15936D01*
X01267Y16101D01*
X01231Y16137D01*
X01231Y16216D01*
X01250Y16208D01*
X01349Y16208D01*
X01463Y16207D01*
X01525Y16269D01*
X01525Y16987D01*
X01525Y17037D01*
X01525Y17137D01*
X01625Y17137D01*
X01675Y17137D01*
X02038Y17137D01*
X02100Y17199D01*
X02099Y17470D01*
X02625Y17470D01*
X02625Y16408D01*
X02663Y16316D01*
X02733Y16246D01*
X02824Y16208D01*
X02923Y16208D01*
X03462Y16208D01*
X03930Y15740D01*
X04024Y15677D01*
X04135Y15655D01*
X06573Y15655D01*
X06683Y15545D01*
X06616Y15545D01*
X06474Y15486D01*
X06365Y15377D01*
X06306Y15235D01*
X06306Y15081D01*
X06365Y14939D01*
X06474Y14830D01*
X06616Y14771D01*
X06643Y14771D01*
X07093Y14322D01*
X07093Y14195D01*
X07152Y14053D01*
X07261Y13944D01*
X07403Y13885D01*
X07557Y13885D01*
X07699Y13944D01*
X07808Y14053D01*
X07867Y14195D01*
X07867Y14349D01*
X07814Y14476D01*
X07853Y14476D01*
X07995Y14535D01*
X08104Y14644D01*
X08163Y14786D01*
X08163Y14940D01*
X08104Y15082D01*
X07995Y15191D01*
X07853Y15250D01*
X07798Y15250D01*
X06898Y16150D01*
X06804Y16213D01*
X06693Y16235D01*
X04255Y16235D01*
X03673Y16817D01*
X03673Y17470D01*
X07334Y17470D01*
X07334Y18983D01*
X09321Y18983D01*
X09821Y18483D01*
X09822Y18483D01*
X09888Y18439D01*
X09921Y18417D01*
X09922Y18416D01*
X10039Y18393D01*
X10040Y18392D01*
X10630Y18392D01*
X10630Y18393D01*
X10748Y18416D01*
X10848Y18483D01*
X11348Y18983D01*
X21058Y18983D01*
X21059Y18981D01*
X21213Y18827D01*
X21415Y18743D01*
X21633Y18743D01*
X21835Y18827D01*
X21989Y18981D01*
X21989Y18983D01*
X23395Y18983D01*
X23530Y18849D01*
X23530Y18821D01*
X23589Y18679D01*
X23698Y18570D01*
X23840Y18511D01*
X23994Y18511D01*
X24136Y18570D01*
X24245Y18679D01*
X24304Y18821D01*
X24304Y18975D01*
X24245Y19117D01*
X24136Y19226D01*
X23994Y19285D01*
X23966Y19285D01*
X23911Y19340D01*
X24912Y19340D01*
X24912Y19183D01*
X24996Y18981D01*
X25150Y18827D01*
X25352Y18743D01*
X25570Y18743D01*
X25772Y18827D01*
X25926Y18981D01*
X26010Y19183D01*
X26010Y19340D01*
X27303Y19340D01*
X27254Y19291D01*
X27216Y19200D01*
X27216Y19101D01*
X27215Y18912D01*
X27277Y18850D01*
X27715Y18850D01*
X27765Y18850D01*
X27865Y18850D01*
X27865Y18750D01*
X27865Y18700D01*
X27865Y18262D01*
X27927Y18200D01*
X28214Y18201D01*
X28306Y18239D01*
X28376Y18309D01*
X28395Y18357D01*
X28454Y18298D01*
X28489Y18334D01*
X28505Y18287D01*
X28724Y18207D01*
X28959Y18218D01*
X29125Y18287D01*
X29158Y18386D01*
X28850Y18694D01*
X28815Y18729D01*
X28744Y18800D01*
X28815Y18871D01*
X28850Y18906D01*
X29158Y19214D01*
X29125Y19313D01*
X29051Y19340D01*
X29553Y19340D01*
X29476Y19308D01*
X29307Y19139D01*
X29299Y19120D01*
X29229Y19143D01*
X28886Y18800D01*
X29229Y18457D01*
X29299Y18481D01*
X29307Y18461D01*
X29476Y18292D01*
X29696Y18201D01*
X29934Y18201D01*
X30154Y18292D01*
X30315Y18453D01*
X30476Y18292D01*
X30696Y18201D01*
X30934Y18201D01*
X31154Y18292D01*
X31315Y18453D01*
X31476Y18292D01*
X31696Y18201D01*
X31934Y18201D01*
X32154Y18292D01*
X32315Y18453D01*
X32476Y18292D01*
X32696Y18201D01*
X32934Y18201D01*
X33154Y18292D01*
X33323Y18461D01*
X33414Y18681D01*
X33414Y18919D01*
X33323Y19139D01*
X33154Y19308D01*
X33076Y19340D01*
X36298Y19340D01*
X38125Y17513D01*
X38112Y17513D01*
X37970Y17454D01*
X37861Y17345D01*
X37802Y17203D01*
X37802Y17049D01*
X37861Y16907D01*
X37970Y16798D01*
X38058Y16762D01*
X38058Y16191D01*
X36399Y16191D01*
X36257Y16250D01*
X36103Y16250D01*
X35961Y16191D01*
X35852Y16082D01*
X35793Y15940D01*
X35793Y15786D01*
X35852Y15644D01*
X35961Y15535D01*
X36103Y15476D01*
X36257Y15476D01*
X36399Y15535D01*
X38386Y15535D01*
X38628Y15535D01*
X38648Y15515D01*
X38648Y12538D01*
X37170Y11060D01*
X37099Y10954D01*
X37074Y10828D01*
X37074Y08488D01*
X36975Y08389D01*
X36943Y08312D01*
X36943Y08944D01*
X36943Y09168D01*
X36942Y09282D01*
X36942Y09381D01*
X36904Y09472D01*
X36834Y09542D01*
X36742Y09580D01*
X36175Y09581D01*
X36113Y09519D01*
X36113Y09106D01*
X36881Y09106D01*
X36943Y09168D01*
X36943Y08944D01*
X36881Y09006D01*
X36113Y09006D01*
X36113Y08593D01*
X36175Y08531D01*
X36742Y08532D01*
X36834Y08570D01*
X36904Y08640D01*
X36942Y08731D01*
X36942Y08830D01*
X36943Y08944D01*
X36943Y08312D01*
X36916Y08247D01*
X36916Y08093D01*
X36975Y07951D01*
X37084Y07842D01*
X37226Y07783D01*
X37380Y07783D01*
X37522Y07842D01*
X37631Y07951D01*
X37690Y08093D01*
X37690Y08121D01*
X37690Y08122D01*
X37705Y08143D01*
X37705Y08144D01*
X37730Y08269D01*
X37730Y10692D01*
X37862Y10824D01*
X37862Y10306D01*
X37900Y10214D01*
X37970Y10144D01*
X38061Y10106D01*
X38160Y10106D01*
X39025Y10106D01*
X39025Y09581D01*
X38853Y09581D01*
X38791Y09519D01*
X38791Y09156D01*
X38791Y09106D01*
X38791Y09006D01*
X38791Y08956D01*
X38791Y08593D01*
X38853Y08531D01*
X39025Y08532D01*
X39025Y03073D01*
X39025Y03073D01*
G37*
G54D33*
X39025Y03073D02*
X38691Y02739D01*
X38691Y08593D01*
X38691Y09006D01*
X38691Y09106D01*
X38691Y09519D01*
X38629Y09581D01*
X38062Y09580D01*
X37970Y09542D01*
X37900Y09472D01*
X37862Y09381D01*
X37862Y09282D01*
X37861Y09168D01*
X37923Y09106D01*
X38691Y09106D01*
X38691Y09006D01*
X37923Y09006D01*
X37861Y08944D01*
X37862Y08830D01*
X37862Y08731D01*
X37900Y08640D01*
X37970Y08570D01*
X38062Y08532D01*
X38629Y08531D01*
X38691Y08593D01*
X38691Y02739D01*
X38617Y02665D01*
X38617Y03950D01*
X38617Y04120D01*
X38552Y04277D01*
X38433Y04397D01*
X38276Y04463D01*
X38106Y04463D01*
X37949Y04398D01*
X37829Y04279D01*
X37763Y04122D01*
X37763Y03952D01*
X37828Y03795D01*
X37947Y03675D01*
X38104Y03609D01*
X38274Y03609D01*
X38431Y03674D01*
X38551Y03793D01*
X38617Y03950D01*
X38617Y02665D01*
X37435Y01483D01*
X37435Y03950D01*
X37435Y04120D01*
X37370Y04277D01*
X37251Y04397D01*
X37094Y04463D01*
X36924Y04463D01*
X36767Y04398D01*
X36647Y04279D01*
X36581Y04122D01*
X36581Y03952D01*
X36646Y03795D01*
X36765Y03675D01*
X36922Y03609D01*
X37092Y03609D01*
X37249Y03674D01*
X37369Y03793D01*
X37435Y03950D01*
X37435Y01483D01*
X36298Y00346D01*
X36013Y00346D01*
X36013Y08593D01*
X36013Y09006D01*
X36013Y09106D01*
X36013Y09519D01*
X35951Y09581D01*
X35384Y09580D01*
X35292Y09542D01*
X35222Y09472D01*
X35184Y09381D01*
X35184Y09282D01*
X35183Y09168D01*
X35245Y09106D01*
X36013Y09106D01*
X36013Y09006D01*
X35245Y09006D01*
X35183Y08944D01*
X35184Y08830D01*
X35184Y08731D01*
X35222Y08640D01*
X35292Y08570D01*
X35384Y08532D01*
X35951Y08531D01*
X36013Y08593D01*
X36013Y00346D01*
X35684Y00346D01*
X35684Y05007D01*
X35684Y05231D01*
X35683Y05345D01*
X35683Y05444D01*
X35683Y06368D01*
X35683Y06467D01*
X35683Y07017D01*
X35645Y07109D01*
X35575Y07179D01*
X35484Y07217D01*
X35385Y07217D01*
X34382Y07217D01*
X34382Y09731D01*
X34320Y09793D01*
X33987Y09793D01*
X33987Y09515D01*
X34049Y09453D01*
X34083Y09454D01*
X34182Y09454D01*
X34273Y09492D01*
X34343Y09562D01*
X34381Y09654D01*
X34382Y09731D01*
X34382Y07217D01*
X34125Y07217D01*
X34033Y07179D01*
X33963Y07109D01*
X33925Y07018D01*
X33925Y06919D01*
X33925Y06369D01*
X33963Y06277D01*
X34033Y06207D01*
X34124Y06169D01*
X34223Y06169D01*
X35483Y06169D01*
X35575Y06207D01*
X35645Y06277D01*
X35683Y06368D01*
X35683Y05444D01*
X35645Y05535D01*
X35575Y05605D01*
X35483Y05643D01*
X34916Y05644D01*
X34854Y05582D01*
X34854Y05169D01*
X35622Y05169D01*
X35684Y05231D01*
X35684Y05007D01*
X35622Y05069D01*
X34854Y05069D01*
X34854Y04656D01*
X34916Y04594D01*
X35483Y04595D01*
X35575Y04633D01*
X35645Y04703D01*
X35683Y04794D01*
X35683Y04893D01*
X35684Y05007D01*
X35684Y00346D01*
X34350Y00346D01*
X34350Y00812D01*
X34312Y00904D01*
X34242Y00974D01*
X34170Y01005D01*
X34170Y01164D01*
X34204Y01164D01*
X34296Y01202D01*
X34366Y01272D01*
X34404Y01363D01*
X34404Y01416D01*
X34570Y01582D01*
X34624Y01582D01*
X34766Y01641D01*
X34875Y01750D01*
X34934Y01892D01*
X34934Y02046D01*
X34875Y02188D01*
X34766Y02297D01*
X34754Y02302D01*
X34754Y04656D01*
X34754Y05069D01*
X34754Y05169D01*
X34754Y05582D01*
X34692Y05644D01*
X34125Y05643D01*
X34033Y05605D01*
X33963Y05535D01*
X33925Y05444D01*
X33925Y05345D01*
X33924Y05231D01*
X33986Y05169D01*
X34754Y05169D01*
X34754Y05069D01*
X33986Y05069D01*
X33924Y05007D01*
X33925Y04893D01*
X33925Y04794D01*
X33963Y04703D01*
X34033Y04633D01*
X34125Y04595D01*
X34692Y04594D01*
X34754Y04656D01*
X34754Y02302D01*
X34624Y02356D01*
X34470Y02356D01*
X34404Y02329D01*
X34404Y02562D01*
X34366Y02654D01*
X34296Y02724D01*
X34228Y02753D01*
X34228Y02793D01*
X34267Y02886D01*
X34267Y03040D01*
X34208Y03182D01*
X34110Y03280D01*
X34147Y03368D01*
X34147Y03522D01*
X34088Y03664D01*
X33979Y03773D01*
X33837Y03832D01*
X33683Y03832D01*
X33541Y03773D01*
X33432Y03664D01*
X33373Y03522D01*
X33373Y03469D01*
X33164Y03260D01*
X33161Y03257D01*
X33149Y03241D01*
X33099Y03291D01*
X33006Y03330D01*
X33006Y05007D01*
X33006Y05231D01*
X33005Y05345D01*
X33005Y05444D01*
X32967Y05535D01*
X32897Y05605D01*
X32805Y05643D01*
X32238Y05644D01*
X32176Y05582D01*
X32176Y05169D01*
X32944Y05169D01*
X33006Y05231D01*
X33006Y05007D01*
X32944Y05069D01*
X32176Y05069D01*
X32176Y04656D01*
X32238Y04594D01*
X32805Y04595D01*
X32897Y04633D01*
X32967Y04703D01*
X33005Y04794D01*
X33005Y04893D01*
X33006Y05007D01*
X33006Y03330D01*
X32957Y03350D01*
X32803Y03350D01*
X32769Y03336D01*
X32769Y03424D01*
X32710Y03566D01*
X32601Y03675D01*
X32545Y03699D01*
X32572Y03762D01*
X32572Y03916D01*
X32513Y04058D01*
X32404Y04167D01*
X32262Y04226D01*
X32108Y04226D01*
X32076Y04213D01*
X32076Y04656D01*
X32076Y05069D01*
X32076Y05169D01*
X32076Y05582D01*
X32014Y05644D01*
X31447Y05643D01*
X31355Y05605D01*
X31285Y05535D01*
X31247Y05444D01*
X31247Y05345D01*
X31246Y05231D01*
X31308Y05169D01*
X32076Y05169D01*
X32076Y05069D01*
X31308Y05069D01*
X31246Y05007D01*
X31247Y04893D01*
X31247Y04794D01*
X31285Y04703D01*
X31355Y04633D01*
X31447Y04595D01*
X32014Y04594D01*
X32076Y04656D01*
X32076Y04213D01*
X31966Y04167D01*
X31857Y04058D01*
X31798Y03916D01*
X31798Y03862D01*
X31175Y03239D01*
X31165Y03225D01*
X31099Y03291D01*
X30957Y03350D01*
X30803Y03350D01*
X30670Y03295D01*
X30670Y03451D01*
X30741Y03522D01*
X30800Y03664D01*
X30800Y03818D01*
X30741Y03960D01*
X30632Y04069D01*
X30490Y04128D01*
X30336Y04128D01*
X30194Y04069D01*
X30085Y03960D01*
X30026Y03818D01*
X30026Y03664D01*
X30085Y03522D01*
X30090Y03517D01*
X30090Y03295D01*
X29957Y03350D01*
X29803Y03350D01*
X29661Y03291D01*
X29552Y03182D01*
X29493Y03040D01*
X29493Y02886D01*
X29532Y02793D01*
X29532Y02753D01*
X29478Y02730D01*
X29478Y06841D01*
X29478Y07154D01*
X29065Y07154D01*
X29003Y07092D01*
X29004Y06980D01*
X29042Y06888D01*
X29112Y06818D01*
X29203Y06780D01*
X29302Y06780D01*
X29416Y06779D01*
X29478Y06841D01*
X29478Y02730D01*
X29464Y02724D01*
X29394Y02654D01*
X29356Y02563D01*
X29356Y02464D01*
X29356Y02114D01*
X29394Y02022D01*
X29453Y01963D01*
X29410Y01921D01*
X29309Y01962D01*
X29155Y01962D01*
X29013Y01903D01*
X28937Y01827D01*
X28861Y01903D01*
X28719Y01962D01*
X28565Y01962D01*
X28423Y01903D01*
X28314Y01794D01*
X28255Y01652D01*
X28255Y01498D01*
X28314Y01356D01*
X28423Y01247D01*
X28565Y01188D01*
X28590Y01188D01*
X28590Y01004D01*
X28518Y00974D01*
X28448Y00904D01*
X28410Y00813D01*
X28410Y00714D01*
X28410Y00346D01*
X28350Y00346D01*
X28350Y00812D01*
X28312Y00904D01*
X28242Y00974D01*
X28228Y00980D01*
X28228Y01575D01*
X28228Y02543D01*
X28267Y02636D01*
X28267Y02790D01*
X28228Y02884D01*
X28228Y03469D01*
X28281Y03522D01*
X28340Y03664D01*
X28340Y03818D01*
X28281Y03960D01*
X28172Y04069D01*
X28030Y04128D01*
X27876Y04128D01*
X27734Y04069D01*
X27625Y03960D01*
X27566Y03818D01*
X27566Y03814D01*
X27558Y03802D01*
X27532Y03668D01*
X27532Y02884D01*
X27493Y02790D01*
X27493Y02636D01*
X27532Y02543D01*
X27532Y01962D01*
X27384Y01962D01*
X27242Y01903D01*
X27133Y01794D01*
X27074Y01652D01*
X27074Y01498D01*
X27133Y01356D01*
X27242Y01247D01*
X27384Y01188D01*
X27532Y01188D01*
X27532Y00980D01*
X27518Y00974D01*
X27448Y00904D01*
X27410Y00813D01*
X27410Y00714D01*
X27410Y00346D01*
X27350Y00346D01*
X27351Y00351D01*
X27351Y00575D01*
X27350Y00714D01*
X27350Y00813D01*
X27312Y00904D01*
X27242Y00974D01*
X27150Y01012D01*
X26992Y01013D01*
X26930Y00951D01*
X26930Y00513D01*
X27289Y00513D01*
X27351Y00575D01*
X27351Y00351D01*
X27289Y00413D01*
X26980Y00413D01*
X26930Y00413D01*
X26830Y00413D01*
X26830Y00513D01*
X26830Y00951D01*
X26768Y01013D01*
X26610Y01012D01*
X26518Y00974D01*
X26448Y00904D01*
X26410Y00813D01*
X26410Y00714D01*
X26409Y00575D01*
X26471Y00513D01*
X26830Y00513D01*
X26830Y00413D01*
X26780Y00413D01*
X26471Y00413D01*
X26409Y00351D01*
X26409Y00346D01*
X25111Y00346D01*
X25111Y00365D01*
X25111Y00817D01*
X25111Y00913D01*
X25050Y00974D01*
X24715Y00974D01*
X24715Y00679D01*
X24777Y00617D01*
X24911Y00618D01*
X25003Y00656D01*
X25073Y00726D01*
X25111Y00817D01*
X25111Y00365D01*
X25073Y00456D01*
X25003Y00526D01*
X24911Y00564D01*
X24777Y00565D01*
X24715Y00503D01*
X24715Y00346D01*
X24615Y00346D01*
X24615Y00503D01*
X24553Y00565D01*
X24419Y00564D01*
X24327Y00526D01*
X24257Y00456D01*
X24219Y00365D01*
X24219Y00346D01*
X24177Y00346D01*
X24180Y00348D01*
X24246Y00505D01*
X24246Y00675D01*
X24220Y00736D01*
X24252Y00736D01*
X24257Y00726D01*
X24327Y00656D01*
X24419Y00618D01*
X24553Y00617D01*
X24615Y00679D01*
X24615Y00924D01*
X24615Y00974D01*
X24615Y01074D01*
X24715Y01074D01*
X24765Y01074D01*
X25050Y01074D01*
X25111Y01135D01*
X25111Y01227D01*
X25321Y01227D01*
X25415Y01188D01*
X25569Y01188D01*
X25711Y01247D01*
X25820Y01356D01*
X25879Y01498D01*
X25879Y01652D01*
X25820Y01794D01*
X25711Y01903D01*
X25569Y01962D01*
X25415Y01962D01*
X25321Y01923D01*
X24705Y01923D01*
X24676Y01923D01*
X25303Y02550D01*
X25303Y02551D01*
X25304Y02551D01*
X25366Y02644D01*
X25367Y02645D01*
X25388Y02755D01*
X25389Y02756D01*
X25389Y03582D01*
X25427Y03620D01*
X25486Y03762D01*
X25486Y03916D01*
X25427Y04058D01*
X25318Y04167D01*
X25176Y04226D01*
X25022Y04226D01*
X24880Y04167D01*
X24771Y04058D01*
X24712Y03916D01*
X24712Y03762D01*
X24771Y03620D01*
X24809Y03582D01*
X24809Y02876D01*
X24192Y02259D01*
X24016Y02259D01*
X23905Y02237D01*
X23811Y02174D01*
X23302Y01666D01*
X23282Y01716D01*
X23212Y01786D01*
X23202Y01790D01*
X23261Y01848D01*
X23320Y01990D01*
X23320Y02144D01*
X23261Y02286D01*
X23179Y02368D01*
X23524Y02368D01*
X23721Y02368D01*
X23736Y02372D01*
X23742Y02369D01*
X23896Y02369D01*
X24038Y02428D01*
X24147Y02537D01*
X24206Y02679D01*
X24206Y02810D01*
X24235Y02822D01*
X24344Y02931D01*
X24398Y03063D01*
X24530Y03117D01*
X24639Y03226D01*
X24698Y03368D01*
X24698Y03522D01*
X24639Y03664D01*
X24530Y03773D01*
X24388Y03832D01*
X24234Y03832D01*
X24092Y03773D01*
X24054Y03735D01*
X23707Y03735D01*
X23655Y03861D01*
X23546Y03970D01*
X23517Y03983D01*
X23517Y04014D01*
X23458Y04156D01*
X23349Y04265D01*
X23320Y04278D01*
X23320Y04310D01*
X23261Y04452D01*
X23152Y04561D01*
X23010Y04620D01*
X22856Y04620D01*
X22714Y04561D01*
X22676Y04523D01*
X22009Y04523D01*
X21971Y04561D01*
X21829Y04620D01*
X21675Y04620D01*
X21533Y04561D01*
X21424Y04452D01*
X21365Y04310D01*
X21365Y04278D01*
X21336Y04265D01*
X21227Y04156D01*
X21168Y04014D01*
X21168Y03860D01*
X21227Y03718D01*
X21303Y03642D01*
X21227Y03566D01*
X21168Y03424D01*
X21168Y03342D01*
X18919Y03342D01*
X16937Y05324D01*
X16843Y05387D01*
X16732Y05409D01*
X14293Y05409D01*
X14183Y05519D01*
X14250Y05519D01*
X14392Y05578D01*
X14430Y05616D01*
X20548Y05616D01*
X20955Y05209D01*
X20956Y05209D01*
X21018Y05168D01*
X21049Y05147D01*
X21050Y05146D01*
X21160Y05125D01*
X21161Y05124D01*
X23327Y05124D01*
X23334Y05126D01*
X23334Y05042D01*
X23393Y04900D01*
X23502Y04791D01*
X23644Y04732D01*
X23798Y04732D01*
X23940Y04791D01*
X24049Y04900D01*
X24103Y05032D01*
X24235Y05086D01*
X24344Y05195D01*
X24403Y05337D01*
X24403Y05391D01*
X24431Y05419D01*
X25826Y05419D01*
X25864Y05381D01*
X26006Y05322D01*
X26160Y05322D01*
X26302Y05381D01*
X26411Y05490D01*
X26470Y05632D01*
X26470Y05786D01*
X26411Y05928D01*
X26334Y06005D01*
X26411Y06081D01*
X26470Y06223D01*
X26470Y06313D01*
X26597Y06365D01*
X26706Y06474D01*
X26765Y06616D01*
X26765Y06770D01*
X26706Y06912D01*
X26597Y07021D01*
X26455Y07080D01*
X26401Y07080D01*
X26189Y07292D01*
X26163Y07310D01*
X26214Y07360D01*
X26273Y07502D01*
X26273Y07656D01*
X26214Y07798D01*
X26105Y07907D01*
X25963Y07966D01*
X25809Y07966D01*
X25667Y07907D01*
X25558Y07798D01*
X25499Y07656D01*
X25499Y07602D01*
X25471Y07574D01*
X24530Y07574D01*
X24222Y07882D01*
X24128Y07945D01*
X24017Y07967D01*
X24016Y07967D01*
X21647Y07967D01*
X21647Y07978D01*
X24016Y07978D01*
X24546Y07978D01*
X24584Y07940D01*
X24726Y07881D01*
X24880Y07881D01*
X25022Y07940D01*
X25131Y08049D01*
X25190Y08191D01*
X25190Y08345D01*
X25178Y08374D01*
X25318Y08432D01*
X25427Y08541D01*
X25486Y08683D01*
X25486Y08837D01*
X25427Y08979D01*
X25318Y09088D01*
X25176Y09147D01*
X25137Y09147D01*
X25190Y09274D01*
X25190Y09428D01*
X25131Y09570D01*
X25022Y09679D01*
X24880Y09738D01*
X24726Y09738D01*
X24584Y09679D01*
X24546Y09641D01*
X24114Y09641D01*
X21940Y09641D01*
X22148Y09849D01*
X24115Y09849D01*
X24226Y09871D01*
X24320Y09934D01*
X24910Y10524D01*
X25022Y10636D01*
X25149Y10636D01*
X25143Y10621D01*
X25143Y10444D01*
X25211Y10280D01*
X25336Y10154D01*
X25500Y10086D01*
X25677Y10086D01*
X25734Y10110D01*
X25696Y10018D01*
X25696Y09864D01*
X25697Y09861D01*
X25694Y09842D01*
X25694Y08760D01*
X25694Y08722D01*
X25656Y08684D01*
X25597Y08542D01*
X25597Y08388D01*
X25656Y08246D01*
X25765Y08137D01*
X25907Y08078D01*
X26061Y08078D01*
X26181Y08128D01*
X26301Y08078D01*
X26455Y08078D01*
X26597Y08137D01*
X26706Y08246D01*
X26765Y08388D01*
X26765Y08542D01*
X26706Y08684D01*
X26668Y08722D01*
X26668Y09154D01*
X26668Y10117D01*
X26891Y10340D01*
X27310Y10340D01*
X27310Y10306D01*
X27348Y10214D01*
X27418Y10144D01*
X27509Y10106D01*
X27608Y10106D01*
X28868Y10106D01*
X28960Y10144D01*
X29030Y10214D01*
X29068Y10305D01*
X29068Y10340D01*
X29988Y10340D01*
X29988Y10306D01*
X30026Y10214D01*
X30096Y10144D01*
X30187Y10106D01*
X30286Y10106D01*
X30980Y10106D01*
X31073Y10013D01*
X31074Y10013D01*
X31168Y09950D01*
X31279Y09928D01*
X31590Y09928D01*
X31601Y09902D01*
X31660Y09843D01*
X31601Y09784D01*
X31590Y09758D01*
X31279Y09758D01*
X31168Y09736D01*
X31073Y09673D01*
X30980Y09580D01*
X30188Y09580D01*
X30096Y09542D01*
X30026Y09472D01*
X29988Y09381D01*
X29988Y09282D01*
X29988Y08732D01*
X30026Y08640D01*
X30096Y08570D01*
X30187Y08532D01*
X30286Y08532D01*
X30577Y08532D01*
X30577Y08378D01*
X30089Y08378D01*
X29997Y08340D01*
X29970Y08314D01*
X29944Y08340D01*
X29853Y08378D01*
X29754Y08378D01*
X29204Y08378D01*
X29112Y08340D01*
X29068Y08296D01*
X29068Y08731D01*
X29068Y08830D01*
X29068Y09380D01*
X29030Y09472D01*
X28960Y09542D01*
X28869Y09580D01*
X28770Y09580D01*
X27582Y09580D01*
X27483Y09679D01*
X27341Y09738D01*
X27187Y09738D01*
X27045Y09679D01*
X26936Y09570D01*
X26877Y09428D01*
X26877Y09274D01*
X26916Y09181D01*
X26916Y08465D01*
X26942Y08331D01*
X27018Y08219D01*
X27605Y07632D01*
X27605Y06274D01*
X27566Y06180D01*
X27566Y06026D01*
X27625Y05884D01*
X27734Y05775D01*
X27876Y05716D01*
X28030Y05716D01*
X28172Y05775D01*
X28281Y05884D01*
X28340Y06026D01*
X28340Y06180D01*
X28301Y06274D01*
X28301Y07776D01*
X28275Y07909D01*
X28274Y07910D01*
X28199Y08022D01*
X27689Y08532D01*
X28868Y08532D01*
X28960Y08570D01*
X29030Y08640D01*
X29068Y08731D01*
X29068Y08296D01*
X29042Y08270D01*
X29004Y08179D01*
X29004Y08080D01*
X29004Y07730D01*
X29042Y07638D01*
X29101Y07579D01*
X29042Y07520D01*
X29004Y07428D01*
X29003Y07316D01*
X29065Y07254D01*
X29428Y07254D01*
X29478Y07254D01*
X29578Y07254D01*
X29578Y07154D01*
X29578Y07104D01*
X29578Y06841D01*
X29640Y06779D01*
X29754Y06780D01*
X29853Y06780D01*
X29944Y06818D01*
X29970Y06845D01*
X29997Y06818D01*
X30088Y06780D01*
X30123Y06780D01*
X30123Y06655D01*
X30085Y06617D01*
X30026Y06475D01*
X30026Y06321D01*
X30085Y06179D01*
X30194Y06070D01*
X30336Y06011D01*
X30490Y06011D01*
X30519Y06024D01*
X30519Y05927D01*
X30578Y05785D01*
X30687Y05676D01*
X30829Y05617D01*
X30983Y05617D01*
X31125Y05676D01*
X31234Y05785D01*
X31293Y05927D01*
X31293Y06081D01*
X31234Y06223D01*
X31196Y06261D01*
X31196Y06306D01*
X31273Y06306D01*
X31285Y06277D01*
X31355Y06207D01*
X31446Y06169D01*
X31545Y06169D01*
X32300Y06169D01*
X32389Y06080D01*
X32389Y06026D01*
X32448Y05884D01*
X32557Y05775D01*
X32699Y05716D01*
X32853Y05716D01*
X32995Y05775D01*
X33104Y05884D01*
X33163Y06026D01*
X33163Y06180D01*
X33104Y06322D01*
X33005Y06421D01*
X33005Y06467D01*
X33005Y07017D01*
X32967Y07109D01*
X32897Y07179D01*
X32806Y07217D01*
X32707Y07217D01*
X31447Y07217D01*
X31355Y07179D01*
X31285Y07109D01*
X31272Y07080D01*
X31196Y07080D01*
X31196Y07361D01*
X31322Y07487D01*
X31376Y07487D01*
X31518Y07546D01*
X31627Y07655D01*
X31686Y07797D01*
X31686Y07951D01*
X31627Y08093D01*
X31518Y08202D01*
X31376Y08261D01*
X31222Y08261D01*
X31157Y08234D01*
X31157Y08532D01*
X31546Y08532D01*
X31638Y08570D01*
X31708Y08640D01*
X31746Y08731D01*
X31746Y08830D01*
X31746Y09051D01*
X31762Y09044D01*
X31861Y09044D01*
X32411Y09044D01*
X32503Y09082D01*
X32573Y09152D01*
X32587Y09188D01*
X32657Y09118D01*
X32748Y09080D01*
X32847Y09080D01*
X33076Y09080D01*
X33076Y09067D01*
X32747Y09067D01*
X32655Y09029D01*
X32585Y08959D01*
X32547Y08868D01*
X32547Y08769D01*
X32547Y08419D01*
X32585Y08327D01*
X32644Y08268D01*
X32585Y08209D01*
X32574Y08183D01*
X32522Y08183D01*
X32503Y08202D01*
X32361Y08261D01*
X32207Y08261D01*
X32065Y08202D01*
X31956Y08093D01*
X31897Y07951D01*
X31897Y07797D01*
X31956Y07655D01*
X32065Y07546D01*
X32207Y07487D01*
X32361Y07487D01*
X32503Y07546D01*
X32560Y07603D01*
X32574Y07603D01*
X32585Y07577D01*
X32655Y07507D01*
X32746Y07469D01*
X32845Y07469D01*
X33395Y07469D01*
X33487Y07507D01*
X33557Y07577D01*
X33595Y07668D01*
X33595Y07767D01*
X33595Y08117D01*
X33557Y08209D01*
X33498Y08268D01*
X33557Y08327D01*
X33595Y08418D01*
X33595Y08517D01*
X33595Y08769D01*
X33634Y08827D01*
X33656Y08938D01*
X33656Y09470D01*
X33692Y09454D01*
X33791Y09454D01*
X33825Y09453D01*
X33887Y09515D01*
X33887Y09743D01*
X33887Y09793D01*
X33887Y09893D01*
X33987Y09893D01*
X34037Y09893D01*
X34320Y09893D01*
X34382Y09955D01*
X34381Y10032D01*
X34343Y10124D01*
X34284Y10183D01*
X34323Y10221D01*
X34388Y10379D01*
X34637Y10130D01*
X34638Y10130D01*
X34700Y10089D01*
X34731Y10068D01*
X34732Y10067D01*
X34842Y10046D01*
X34843Y10045D01*
X35768Y10045D01*
X35879Y10067D01*
X35937Y10106D01*
X36742Y10106D01*
X36834Y10144D01*
X36904Y10214D01*
X36942Y10305D01*
X36942Y10404D01*
X36942Y10954D01*
X36904Y11046D01*
X36834Y11116D01*
X36743Y11154D01*
X36644Y11154D01*
X36353Y11154D01*
X36353Y11299D01*
X36450Y11396D01*
X36509Y11538D01*
X36509Y11692D01*
X36450Y11834D01*
X36411Y11873D01*
X36411Y13801D01*
X36411Y13955D01*
X36352Y14097D01*
X36243Y14206D01*
X36101Y14265D01*
X35947Y14265D01*
X35853Y14226D01*
X35676Y14226D01*
X35683Y14242D01*
X35683Y14341D01*
X35683Y14891D01*
X35645Y14983D01*
X35575Y15053D01*
X35484Y15091D01*
X35385Y15091D01*
X34125Y15091D01*
X34033Y15053D01*
X33963Y14983D01*
X33925Y14892D01*
X33925Y14793D01*
X33925Y14749D01*
X33245Y14069D01*
X33191Y14069D01*
X33049Y14010D01*
X32940Y13901D01*
X32881Y13759D01*
X32881Y13605D01*
X32940Y13463D01*
X33049Y13354D01*
X33191Y13295D01*
X33345Y13295D01*
X33487Y13354D01*
X33596Y13463D01*
X33655Y13605D01*
X33655Y13659D01*
X33705Y13710D01*
X33727Y13659D01*
X33836Y13550D01*
X33978Y13491D01*
X34062Y13491D01*
X34033Y13479D01*
X33963Y13409D01*
X33925Y13318D01*
X33925Y13219D01*
X33924Y13105D01*
X33986Y13043D01*
X34754Y13043D01*
X34754Y13456D01*
X34692Y13518D01*
X34194Y13518D01*
X34225Y13530D01*
X35853Y13530D01*
X35947Y13491D01*
X36101Y13491D01*
X36243Y13550D01*
X36352Y13659D01*
X36411Y13801D01*
X36411Y11873D01*
X36341Y11943D01*
X36199Y12002D01*
X36115Y12002D01*
X36115Y12085D01*
X36056Y12227D01*
X35947Y12336D01*
X35805Y12395D01*
X35651Y12395D01*
X35647Y12394D01*
X35629Y12397D01*
X35623Y12397D01*
X35623Y12479D01*
X35600Y12533D01*
X35645Y12577D01*
X35683Y12668D01*
X35683Y12767D01*
X35684Y12881D01*
X35684Y13105D01*
X35683Y13219D01*
X35683Y13318D01*
X35645Y13409D01*
X35575Y13479D01*
X35483Y13517D01*
X34916Y13518D01*
X34854Y13456D01*
X34854Y13043D01*
X35622Y13043D01*
X35684Y13105D01*
X35684Y12881D01*
X35622Y12943D01*
X34904Y12943D01*
X34854Y12943D01*
X34754Y12943D01*
X34704Y12943D01*
X33986Y12943D01*
X33924Y12881D01*
X33924Y12790D01*
X33410Y12790D01*
X33399Y12818D01*
X33290Y12927D01*
X33148Y12986D01*
X33006Y12986D01*
X33006Y13105D01*
X33005Y13219D01*
X33005Y13318D01*
X32967Y13409D01*
X32897Y13479D01*
X32805Y13517D01*
X32238Y13518D01*
X32176Y13456D01*
X32176Y13043D01*
X32944Y13043D01*
X33006Y13105D01*
X33006Y12986D01*
X32994Y12986D01*
X32890Y12943D01*
X32226Y12943D01*
X32176Y12943D01*
X32076Y12943D01*
X32076Y13043D01*
X32076Y13093D01*
X32076Y13456D01*
X32014Y13518D01*
X31491Y13518D01*
X31491Y14043D01*
X31545Y14043D01*
X32805Y14043D01*
X32897Y14081D01*
X32967Y14151D01*
X33005Y14242D01*
X33005Y14341D01*
X33005Y14891D01*
X32967Y14983D01*
X32897Y15053D01*
X32806Y15091D01*
X32707Y15091D01*
X32390Y15091D01*
X32390Y15622D01*
X32390Y15860D01*
X32384Y15875D01*
X32384Y16650D01*
X32373Y16885D01*
X32304Y17051D01*
X32205Y17084D01*
X32134Y17013D01*
X32134Y17155D01*
X32101Y17254D01*
X31882Y17334D01*
X31647Y17323D01*
X31481Y17254D01*
X31448Y17155D01*
X31791Y16812D01*
X32134Y17155D01*
X32134Y17013D01*
X31862Y16741D01*
X32205Y16398D01*
X32304Y16431D01*
X32384Y16650D01*
X32384Y15875D01*
X32299Y16080D01*
X32130Y16249D01*
X32110Y16257D01*
X32134Y16327D01*
X31791Y16670D01*
X31720Y16599D01*
X31720Y16741D01*
X31377Y17084D01*
X31278Y17051D01*
X31198Y16832D01*
X31209Y16597D01*
X31278Y16431D01*
X31377Y16398D01*
X31720Y16741D01*
X31720Y16599D01*
X31448Y16327D01*
X31471Y16257D01*
X31452Y16249D01*
X31283Y16080D01*
X31192Y15860D01*
X31192Y15629D01*
X31174Y15672D01*
X31104Y15742D01*
X31012Y15780D01*
X30900Y15781D01*
X30838Y15719D01*
X30838Y15306D01*
X31151Y15306D01*
X31213Y15368D01*
X31212Y15482D01*
X31212Y15574D01*
X31283Y15402D01*
X31452Y15233D01*
X31672Y15142D01*
X31910Y15142D01*
X32130Y15233D01*
X32299Y15402D01*
X32390Y15622D01*
X32390Y15091D01*
X31447Y15091D01*
X31355Y15053D01*
X31285Y14983D01*
X31259Y14921D01*
X31212Y14941D01*
X31212Y15030D01*
X31213Y15144D01*
X31151Y15206D01*
X30888Y15206D01*
X30838Y15206D01*
X30738Y15206D01*
X30738Y15306D01*
X30738Y15356D01*
X30738Y15719D01*
X30676Y15781D01*
X30564Y15780D01*
X30472Y15742D01*
X30413Y15683D01*
X30354Y15742D01*
X30263Y15780D01*
X30164Y15780D01*
X29814Y15780D01*
X29722Y15742D01*
X29652Y15672D01*
X29614Y15581D01*
X29614Y15528D01*
X29577Y15502D01*
X29528Y15453D01*
X29479Y15502D01*
X29441Y15528D01*
X29441Y15580D01*
X29403Y15672D01*
X29333Y15742D01*
X29242Y15780D01*
X29158Y15780D01*
X29143Y15780D01*
X28793Y15780D01*
X28701Y15742D01*
X28642Y15683D01*
X28583Y15742D01*
X28491Y15780D01*
X28379Y15781D01*
X28317Y15719D01*
X28317Y15356D01*
X28317Y15306D01*
X28317Y15206D01*
X28317Y15156D01*
X28317Y14793D01*
X28379Y14731D01*
X28491Y14732D01*
X28583Y14770D01*
X28642Y14829D01*
X28701Y14770D01*
X28792Y14732D01*
X28891Y14732D01*
X29210Y14732D01*
X29309Y14633D01*
X29451Y14574D01*
X29605Y14574D01*
X29747Y14633D01*
X29846Y14732D01*
X29912Y14732D01*
X30262Y14732D01*
X30354Y14770D01*
X30413Y14829D01*
X30472Y14770D01*
X30564Y14732D01*
X30676Y14731D01*
X30688Y14743D01*
X30688Y14731D01*
X30738Y14731D01*
X30750Y14731D01*
X30738Y14700D01*
X30715Y14644D01*
X30715Y14490D01*
X30774Y14348D01*
X30883Y14239D01*
X30911Y14228D01*
X30911Y14075D01*
X30911Y13348D01*
X30873Y13310D01*
X30814Y13168D01*
X30814Y13014D01*
X30873Y12872D01*
X30982Y12763D01*
X31124Y12704D01*
X31247Y12704D01*
X31247Y12668D01*
X31277Y12594D01*
X28217Y12594D01*
X28217Y14793D01*
X28217Y15206D01*
X28217Y15306D01*
X28217Y15719D01*
X28155Y15781D01*
X28043Y15780D01*
X27951Y15742D01*
X27881Y15672D01*
X27843Y15581D01*
X27843Y15482D01*
X27842Y15368D01*
X27904Y15306D01*
X28217Y15306D01*
X28217Y15206D01*
X27904Y15206D01*
X27842Y15144D01*
X27843Y15030D01*
X27843Y14931D01*
X27881Y14840D01*
X27951Y14770D01*
X28043Y14732D01*
X28155Y14731D01*
X28217Y14793D01*
X28217Y12594D01*
X27875Y12594D01*
X27765Y12704D01*
X27765Y18262D01*
X27765Y18750D01*
X27277Y18750D01*
X27215Y18688D01*
X27216Y18499D01*
X27216Y18400D01*
X27254Y18309D01*
X27324Y18239D01*
X27416Y18201D01*
X27703Y18200D01*
X27765Y18262D01*
X27765Y12704D01*
X25992Y14477D01*
X25898Y14540D01*
X25787Y14562D01*
X21222Y14562D01*
X21184Y14600D01*
X21152Y14613D01*
X22270Y14613D01*
X22364Y14574D01*
X22518Y14574D01*
X22611Y14613D01*
X25124Y14613D01*
X25218Y14574D01*
X25372Y14574D01*
X25514Y14633D01*
X25623Y14742D01*
X25682Y14884D01*
X25682Y15038D01*
X25623Y15180D01*
X25514Y15289D01*
X25372Y15348D01*
X25218Y15348D01*
X25124Y15309D01*
X22611Y15309D01*
X22518Y15348D01*
X22364Y15348D01*
X22270Y15309D01*
X21942Y15309D01*
X21942Y15432D01*
X21883Y15574D01*
X21774Y15683D01*
X21632Y15742D01*
X21478Y15742D01*
X21336Y15683D01*
X21298Y15645D01*
X19823Y15645D01*
X19828Y15657D01*
X19861Y15657D01*
X20003Y15716D01*
X20112Y15825D01*
X20124Y15854D01*
X20156Y15854D01*
X20298Y15913D01*
X20407Y16022D01*
X20466Y16164D01*
X20466Y16286D01*
X24810Y16286D01*
X24810Y16164D01*
X24869Y16022D01*
X24978Y15913D01*
X25120Y15854D01*
X25274Y15854D01*
X25411Y15912D01*
X25794Y15529D01*
X25794Y15475D01*
X25853Y15333D01*
X25962Y15224D01*
X26104Y15165D01*
X26258Y15165D01*
X26400Y15224D01*
X26509Y15333D01*
X26531Y15388D01*
X26596Y15361D01*
X26750Y15361D01*
X26892Y15420D01*
X27001Y15529D01*
X27060Y15671D01*
X27060Y15825D01*
X27001Y15967D01*
X26892Y16076D01*
X26797Y16116D01*
X26228Y16685D01*
X26288Y16725D01*
X26498Y16935D01*
X27007Y16935D01*
X27045Y16897D01*
X27187Y16838D01*
X27341Y16838D01*
X27483Y16897D01*
X27592Y17006D01*
X27651Y17148D01*
X27651Y17302D01*
X27592Y17444D01*
X27483Y17553D01*
X27341Y17612D01*
X27187Y17612D01*
X27045Y17553D01*
X27007Y17515D01*
X26378Y17515D01*
X26267Y17493D01*
X26173Y17430D01*
X25963Y17220D01*
X10827Y17220D01*
X10716Y17198D01*
X10622Y17135D01*
X10608Y17121D01*
X10493Y17121D01*
X10455Y17159D01*
X10313Y17218D01*
X10159Y17218D01*
X10017Y17159D01*
X09944Y17087D01*
X09821Y17138D01*
X09667Y17138D01*
X09525Y17079D01*
X09416Y16970D01*
X09357Y16828D01*
X09357Y16674D01*
X09396Y16581D01*
X09396Y15427D01*
X09357Y15333D01*
X09357Y15179D01*
X09367Y15153D01*
X09214Y15153D01*
X09176Y15191D01*
X09034Y15250D01*
X08880Y15250D01*
X08738Y15191D01*
X08629Y15082D01*
X08570Y14940D01*
X08570Y14786D01*
X08629Y14644D01*
X08738Y14535D01*
X08880Y14476D01*
X09034Y14476D01*
X09176Y14535D01*
X09214Y14573D01*
X10138Y14573D01*
X10249Y14595D01*
X10343Y14658D01*
X10441Y14756D01*
X10504Y14850D01*
X10525Y14961D01*
X10526Y14961D01*
X10526Y16541D01*
X10728Y16541D01*
X10839Y16563D01*
X10933Y16626D01*
X10947Y16640D01*
X11817Y16640D01*
X11073Y15896D01*
X10997Y15784D01*
X10971Y15650D01*
X10971Y15427D01*
X10932Y15333D01*
X10932Y15179D01*
X10991Y15037D01*
X11100Y14928D01*
X11242Y14869D01*
X11369Y14869D01*
X11286Y14786D01*
X11227Y14644D01*
X11227Y14490D01*
X11286Y14348D01*
X11395Y14239D01*
X11537Y14180D01*
X11553Y14180D01*
X11679Y14054D01*
X11679Y13486D01*
X11641Y13448D01*
X11582Y13306D01*
X11582Y13152D01*
X11641Y13010D01*
X11750Y12901D01*
X11892Y12842D01*
X12046Y12842D01*
X12188Y12901D01*
X12297Y13010D01*
X12356Y13152D01*
X12356Y13306D01*
X12297Y13448D01*
X12259Y13486D01*
X12259Y14082D01*
X12271Y14053D01*
X12380Y13944D01*
X12522Y13885D01*
X12676Y13885D01*
X12818Y13944D01*
X12927Y14053D01*
X12986Y14195D01*
X12986Y14349D01*
X12928Y14488D01*
X13703Y15262D01*
X13885Y15262D01*
X13885Y15179D01*
X13944Y15037D01*
X14053Y14928D01*
X14195Y14869D01*
X14349Y14869D01*
X14442Y14908D01*
X16857Y14908D01*
X16951Y14869D01*
X17105Y14869D01*
X17198Y14908D01*
X18655Y14908D01*
X18848Y14715D01*
X18960Y14639D01*
X18961Y14639D01*
X19094Y14613D01*
X20777Y14613D01*
X20746Y14600D01*
X20637Y14491D01*
X20578Y14349D01*
X20578Y14195D01*
X20637Y14053D01*
X20746Y13944D01*
X20888Y13885D01*
X21042Y13885D01*
X21184Y13944D01*
X21222Y13982D01*
X25667Y13982D01*
X27252Y12397D01*
X25415Y12397D01*
X25008Y12804D01*
X24910Y12902D01*
X24816Y12965D01*
X24705Y12987D01*
X24016Y12987D01*
X23819Y12987D01*
X23708Y12965D01*
X23682Y12949D01*
X23655Y13015D01*
X23546Y13124D01*
X23404Y13183D01*
X23250Y13183D01*
X23108Y13124D01*
X22999Y13015D01*
X22940Y12873D01*
X22940Y12819D01*
X22026Y11905D01*
X19587Y11905D01*
X19478Y11884D01*
X19595Y12000D01*
X19595Y12001D01*
X19597Y12004D01*
X19693Y12099D01*
X19756Y12193D01*
X19777Y12304D01*
X19778Y12304D01*
X19778Y13425D01*
X19816Y13463D01*
X19875Y13605D01*
X19875Y13759D01*
X19816Y13901D01*
X19707Y14010D01*
X19565Y14069D01*
X19411Y14069D01*
X19269Y14010D01*
X19160Y13901D01*
X19147Y13872D01*
X19116Y13872D01*
X18974Y13813D01*
X18865Y13704D01*
X18806Y13562D01*
X18806Y13530D01*
X18777Y13517D01*
X18668Y13408D01*
X18609Y13266D01*
X18609Y13112D01*
X18668Y12970D01*
X18777Y12861D01*
X18805Y12850D01*
X18805Y12621D01*
X18089Y11905D01*
X18005Y11905D01*
X18005Y13900D01*
X18005Y14054D01*
X17946Y14196D01*
X17837Y14305D01*
X17695Y14364D01*
X17604Y14364D01*
X17552Y14491D01*
X17443Y14600D01*
X17301Y14659D01*
X17147Y14659D01*
X17005Y14600D01*
X16967Y14562D01*
X13938Y14562D01*
X13900Y14600D01*
X13758Y14659D01*
X13604Y14659D01*
X13462Y14600D01*
X13353Y14491D01*
X13294Y14349D01*
X13294Y14195D01*
X13346Y14069D01*
X13309Y14069D01*
X13167Y14010D01*
X13058Y13901D01*
X12999Y13759D01*
X12999Y13605D01*
X13058Y13463D01*
X13167Y13354D01*
X13309Y13295D01*
X13463Y13295D01*
X13605Y13354D01*
X13643Y13392D01*
X17164Y13392D01*
X17202Y13354D01*
X17344Y13295D01*
X17498Y13295D01*
X17640Y13354D01*
X17749Y13463D01*
X17808Y13605D01*
X17808Y13637D01*
X17837Y13649D01*
X17946Y13758D01*
X18005Y13900D01*
X18005Y11905D01*
X17443Y11905D01*
X17430Y11918D01*
X17336Y11981D01*
X17225Y12003D01*
X16338Y12003D01*
X16322Y12000D01*
X16317Y12002D01*
X16163Y12002D01*
X16021Y11943D01*
X15912Y11834D01*
X15853Y11692D01*
X15853Y11538D01*
X15912Y11396D01*
X16021Y11287D01*
X16163Y11228D01*
X16195Y11228D01*
X16208Y11199D01*
X16302Y11105D01*
X16240Y11117D01*
X16087Y11117D01*
X16076Y11145D01*
X15967Y11254D01*
X15825Y11313D01*
X15671Y11313D01*
X15529Y11254D01*
X15420Y11145D01*
X15407Y11116D01*
X15277Y11116D01*
X15135Y11057D01*
X15061Y10984D01*
X14991Y11031D01*
X14880Y11053D01*
X14737Y11053D01*
X14699Y11091D01*
X14557Y11150D01*
X14403Y11150D01*
X14261Y11091D01*
X14152Y10982D01*
X14093Y10840D01*
X14093Y10686D01*
X14152Y10544D01*
X14261Y10435D01*
X14395Y10379D01*
X14427Y10303D01*
X14337Y10303D01*
X14249Y10391D01*
X14107Y10450D01*
X13953Y10450D01*
X13811Y10391D01*
X13702Y10282D01*
X13643Y10140D01*
X13643Y09986D01*
X13702Y09844D01*
X13811Y09735D01*
X13953Y09676D01*
X14107Y09676D01*
X14220Y09723D01*
X15610Y09723D01*
X15625Y09708D01*
X15719Y09645D01*
X15830Y09623D01*
X19077Y09623D01*
X18974Y09580D01*
X18865Y09471D01*
X18806Y09329D01*
X18806Y09175D01*
X18865Y09033D01*
X18974Y08924D01*
X19116Y08865D01*
X19186Y08865D01*
X19230Y08836D01*
X19341Y08814D01*
X21062Y08814D01*
X21030Y08782D01*
X20975Y08651D01*
X20844Y08596D01*
X20735Y08487D01*
X20676Y08345D01*
X20676Y08191D01*
X20733Y08054D01*
X20254Y07574D01*
X19608Y07574D01*
X18118Y09064D01*
X18024Y09127D01*
X17913Y09149D01*
X14276Y09149D01*
X14165Y09127D01*
X14071Y09064D01*
X13960Y08953D01*
X13576Y08953D01*
X13576Y10750D01*
X13576Y10904D01*
X13517Y11046D01*
X13408Y11155D01*
X13266Y11214D01*
X13112Y11214D01*
X12970Y11155D01*
X12932Y11117D01*
X12462Y11117D01*
X12424Y11155D01*
X12282Y11214D01*
X12128Y11214D01*
X11986Y11155D01*
X11877Y11046D01*
X11818Y10904D01*
X11818Y10750D01*
X11877Y10608D01*
X11986Y10499D01*
X12128Y10440D01*
X12282Y10440D01*
X12424Y10499D01*
X12462Y10537D01*
X12932Y10537D01*
X12970Y10499D01*
X13112Y10440D01*
X13266Y10440D01*
X13408Y10499D01*
X13517Y10608D01*
X13576Y10750D01*
X13576Y08953D01*
X12108Y08953D01*
X11997Y08931D01*
X11903Y08868D01*
X11396Y08361D01*
X11379Y08361D01*
X11341Y08399D01*
X11199Y08458D01*
X11045Y08458D01*
X10903Y08399D01*
X10794Y08290D01*
X10735Y08148D01*
X10735Y07994D01*
X10794Y07852D01*
X10903Y07743D01*
X11045Y07684D01*
X11199Y07684D01*
X11341Y07743D01*
X11379Y07781D01*
X11516Y07781D01*
X11627Y07803D01*
X11721Y07866D01*
X12228Y08373D01*
X12900Y08373D01*
X12900Y08290D01*
X12959Y08148D01*
X12997Y08110D01*
X12997Y07776D01*
X12999Y07764D01*
X12894Y07720D01*
X12774Y07769D01*
X12620Y07769D01*
X12478Y07710D01*
X12369Y07601D01*
X12316Y07475D01*
X11773Y07475D01*
X11735Y07513D01*
X11593Y07572D01*
X11439Y07572D01*
X11297Y07513D01*
X11188Y07404D01*
X11129Y07262D01*
X11129Y07108D01*
X11188Y06966D01*
X11297Y06857D01*
X11439Y06798D01*
X11593Y06798D01*
X11735Y06857D01*
X11773Y06895D01*
X12500Y06895D01*
X12611Y06917D01*
X12702Y06978D01*
X12702Y06890D01*
X12724Y06779D01*
X12787Y06685D01*
X12899Y06573D01*
X12899Y05217D01*
X12921Y05106D01*
X12984Y05012D01*
X13673Y04323D01*
X13767Y04260D01*
X13878Y04238D01*
X16316Y04238D01*
X17222Y03332D01*
X17203Y03340D01*
X17049Y03340D01*
X16911Y03283D01*
X16332Y03862D01*
X16332Y03916D01*
X16273Y04058D01*
X16164Y04167D01*
X16022Y04226D01*
X15868Y04226D01*
X15726Y04167D01*
X15617Y04058D01*
X15558Y03916D01*
X15558Y03762D01*
X15617Y03620D01*
X15726Y03511D01*
X15868Y03452D01*
X15922Y03452D01*
X16625Y02749D01*
X16626Y02748D01*
X16719Y02686D01*
X16720Y02685D01*
X16830Y02664D01*
X16831Y02663D01*
X16869Y02663D01*
X16907Y02625D01*
X17049Y02566D01*
X17203Y02566D01*
X17345Y02625D01*
X17454Y02734D01*
X17513Y02876D01*
X17513Y03030D01*
X17504Y03050D01*
X19282Y01272D01*
X19283Y01272D01*
X19345Y01231D01*
X19376Y01210D01*
X19377Y01209D01*
X19487Y01188D01*
X19488Y01187D01*
X21345Y01187D01*
X21345Y01135D01*
X21406Y01074D01*
X21691Y01074D01*
X21741Y01074D01*
X21841Y01074D01*
X21841Y00974D01*
X21841Y00924D01*
X21841Y00679D01*
X21903Y00617D01*
X22037Y00618D01*
X22129Y00656D01*
X22199Y00726D01*
X22202Y00736D01*
X22230Y00735D01*
X22237Y00743D01*
X22210Y00677D01*
X22210Y00507D01*
X22275Y00350D01*
X22278Y00346D01*
X22237Y00346D01*
X22237Y00365D01*
X22199Y00456D01*
X22129Y00526D01*
X22037Y00564D01*
X21903Y00565D01*
X21841Y00503D01*
X21841Y00346D01*
X21741Y00346D01*
X21741Y00503D01*
X21741Y00679D01*
X21741Y00974D01*
X21406Y00974D01*
X21345Y00913D01*
X21345Y00817D01*
X21383Y00726D01*
X21453Y00656D01*
X21545Y00618D01*
X21679Y00617D01*
X21741Y00679D01*
X21741Y00503D01*
X21679Y00565D01*
X21545Y00564D01*
X21453Y00526D01*
X21383Y00456D01*
X21345Y00365D01*
X21345Y00346D01*
X12747Y00346D01*
X12747Y03003D01*
X12159Y03003D01*
X12159Y03990D01*
X12429Y04260D01*
X12522Y04298D01*
X12631Y04407D01*
X12690Y04549D01*
X12690Y04703D01*
X12631Y04845D01*
X12522Y04954D01*
X12380Y05013D01*
X12226Y05013D01*
X12084Y04954D01*
X11975Y04845D01*
X11936Y04753D01*
X11565Y04380D01*
X11489Y04268D01*
X11463Y04134D01*
X11463Y03003D01*
X06588Y03003D01*
X06588Y03800D01*
X06562Y03933D01*
X06562Y03934D01*
X06549Y03953D01*
X06549Y03954D01*
X06549Y04286D01*
X06601Y04338D01*
X06601Y04254D01*
X06660Y04112D01*
X06769Y04003D01*
X06911Y03944D01*
X07065Y03944D01*
X07207Y04003D01*
X07245Y04041D01*
X07519Y04041D01*
X07557Y04003D01*
X07699Y03944D01*
X07853Y03944D01*
X07995Y04003D01*
X08104Y04112D01*
X08163Y04254D01*
X08163Y04408D01*
X08104Y04550D01*
X07995Y04659D01*
X07853Y04718D01*
X07699Y04718D01*
X07557Y04659D01*
X07519Y04621D01*
X07245Y04621D01*
X07207Y04659D01*
X07065Y04718D01*
X07027Y04718D01*
X07080Y04845D01*
X07080Y04999D01*
X07021Y05141D01*
X06912Y05250D01*
X06770Y05309D01*
X06616Y05309D01*
X06474Y05250D01*
X06439Y05216D01*
X06430Y05239D01*
X06321Y05348D01*
X06179Y05407D01*
X06025Y05407D01*
X05883Y05348D01*
X05774Y05239D01*
X05715Y05097D01*
X05715Y05043D01*
X05687Y05015D01*
X05130Y05015D01*
X05130Y05089D01*
X05131Y05203D01*
X05131Y05427D01*
X05130Y05541D01*
X05130Y05640D01*
X05092Y05731D01*
X05022Y05801D01*
X04930Y05839D01*
X04818Y05840D01*
X04756Y05778D01*
X04756Y05365D01*
X05069Y05365D01*
X05131Y05427D01*
X05131Y05203D01*
X05069Y05265D01*
X04806Y05265D01*
X04756Y05265D01*
X04656Y05265D01*
X04656Y05365D01*
X04656Y05415D01*
X04656Y05778D01*
X04594Y05840D01*
X04482Y05839D01*
X04390Y05801D01*
X04331Y05742D01*
X04272Y05801D01*
X04181Y05839D01*
X04147Y05839D01*
X04147Y06778D01*
X04147Y07002D01*
X04146Y07116D01*
X04146Y07215D01*
X04108Y07306D01*
X04038Y07376D01*
X03946Y07414D01*
X03834Y07415D01*
X03772Y07353D01*
X03772Y06940D01*
X04085Y06940D01*
X04147Y07002D01*
X04147Y06778D01*
X04085Y06840D01*
X03772Y06840D01*
X03772Y06427D01*
X03834Y06365D01*
X03946Y06366D01*
X04038Y06404D01*
X04108Y06474D01*
X04146Y06565D01*
X04146Y06664D01*
X04147Y06778D01*
X04147Y05839D01*
X04082Y05839D01*
X03732Y05839D01*
X03673Y05815D01*
X03673Y05955D01*
X03635Y06047D01*
X03593Y06089D01*
X03593Y06366D01*
X03610Y06365D01*
X03672Y06427D01*
X03672Y06790D01*
X03672Y06840D01*
X03672Y06940D01*
X03672Y06990D01*
X03672Y07353D01*
X03610Y07415D01*
X03593Y07415D01*
X03593Y08728D01*
X04676Y09220D01*
X04676Y10961D01*
X03673Y11325D01*
X03673Y13729D01*
X03673Y13828D01*
X03673Y15088D01*
X03635Y15180D01*
X03565Y15250D01*
X03474Y15288D01*
X03375Y15288D01*
X02825Y15288D01*
X02733Y15250D01*
X02663Y15180D01*
X02625Y15089D01*
X02625Y14990D01*
X02625Y13730D01*
X02663Y13638D01*
X02733Y13568D01*
X02824Y13530D01*
X02923Y13530D01*
X03473Y13530D01*
X03565Y13568D01*
X03635Y13638D01*
X03673Y13729D01*
X03673Y11325D01*
X03593Y11354D01*
X03593Y12354D01*
X02100Y12354D01*
X02100Y14297D01*
X02100Y14521D01*
X02100Y16975D01*
X02038Y17037D01*
X01625Y17037D01*
X01625Y16269D01*
X01687Y16207D01*
X01801Y16208D01*
X01900Y16208D01*
X01991Y16246D01*
X02061Y16316D01*
X02099Y16408D01*
X02100Y16975D01*
X02100Y14521D01*
X02099Y15088D01*
X02061Y15180D01*
X01991Y15250D01*
X01900Y15288D01*
X01801Y15288D01*
X01687Y15289D01*
X01625Y15227D01*
X01625Y14459D01*
X02038Y14459D01*
X02100Y14521D01*
X02100Y14297D01*
X02038Y14359D01*
X01625Y14359D01*
X01625Y13591D01*
X01687Y13529D01*
X01801Y13530D01*
X01900Y13530D01*
X01991Y13568D01*
X02061Y13638D01*
X02099Y13730D01*
X02100Y14297D01*
X02100Y12354D01*
X01231Y12354D01*
X01231Y13538D01*
X01250Y13530D01*
X01349Y13530D01*
X01463Y13529D01*
X01525Y13591D01*
X01525Y14309D01*
X01525Y14359D01*
X01525Y14459D01*
X01525Y14509D01*
X01525Y15227D01*
X01463Y15289D01*
X01349Y15288D01*
X01250Y15288D01*
X01231Y15281D01*
X01231Y15557D01*
X01266Y15592D01*
X01335Y15757D01*
X01335Y15936D01*
X01267Y16101D01*
X01231Y16137D01*
X01231Y16216D01*
X01250Y16208D01*
X01349Y16208D01*
X01463Y16207D01*
X01525Y16269D01*
X01525Y16987D01*
X01525Y17037D01*
X01525Y17137D01*
X01625Y17137D01*
X01675Y17137D01*
X02038Y17137D01*
X02100Y17199D01*
X02099Y17470D01*
X02625Y17470D01*
X02625Y16408D01*
X02663Y16316D01*
X02733Y16246D01*
X02824Y16208D01*
X02923Y16208D01*
X03462Y16208D01*
X03930Y15740D01*
X04024Y15677D01*
X04135Y15655D01*
X06573Y15655D01*
X06683Y15545D01*
X06616Y15545D01*
X06474Y15486D01*
X06365Y15377D01*
X06306Y15235D01*
X06306Y15081D01*
X06365Y14939D01*
X06474Y14830D01*
X06616Y14771D01*
X06643Y14771D01*
X07093Y14322D01*
X07093Y14195D01*
X07152Y14053D01*
X07261Y13944D01*
X07403Y13885D01*
X07557Y13885D01*
X07699Y13944D01*
X07808Y14053D01*
X07867Y14195D01*
X07867Y14349D01*
X07814Y14476D01*
X07853Y14476D01*
X07995Y14535D01*
X08104Y14644D01*
X08163Y14786D01*
X08163Y14940D01*
X08104Y15082D01*
X07995Y15191D01*
X07853Y15250D01*
X07798Y15250D01*
X06898Y16150D01*
X06804Y16213D01*
X06693Y16235D01*
X04255Y16235D01*
X03673Y16817D01*
X03673Y17470D01*
X07334Y17470D01*
X07334Y18983D01*
X09321Y18983D01*
X09821Y18483D01*
X09822Y18483D01*
X09888Y18439D01*
X09921Y18417D01*
X09922Y18416D01*
X10039Y18393D01*
X10040Y18392D01*
X10630Y18392D01*
X10630Y18393D01*
X10748Y18416D01*
X10848Y18483D01*
X11348Y18983D01*
X21058Y18983D01*
X21059Y18981D01*
X21213Y18827D01*
X21415Y18743D01*
X21633Y18743D01*
X21835Y18827D01*
X21989Y18981D01*
X21989Y18983D01*
X23395Y18983D01*
X23530Y18849D01*
X23530Y18821D01*
X23589Y18679D01*
X23698Y18570D01*
X23840Y18511D01*
X23994Y18511D01*
X24136Y18570D01*
X24245Y18679D01*
X24304Y18821D01*
X24304Y18975D01*
X24245Y19117D01*
X24136Y19226D01*
X23994Y19285D01*
X23966Y19285D01*
X23911Y19340D01*
X24912Y19340D01*
X24912Y19183D01*
X24996Y18981D01*
X25150Y18827D01*
X25352Y18743D01*
X25570Y18743D01*
X25772Y18827D01*
X25926Y18981D01*
X26010Y19183D01*
X26010Y19340D01*
X27303Y19340D01*
X27254Y19291D01*
X27216Y19200D01*
X27216Y19101D01*
X27215Y18912D01*
X27277Y18850D01*
X27715Y18850D01*
X27765Y18850D01*
X27865Y18850D01*
X27865Y18750D01*
X27865Y18700D01*
X27865Y18262D01*
X27927Y18200D01*
X28214Y18201D01*
X28306Y18239D01*
X28376Y18309D01*
X28395Y18357D01*
X28454Y18298D01*
X28489Y18334D01*
X28505Y18287D01*
X28724Y18207D01*
X28959Y18218D01*
X29125Y18287D01*
X29158Y18386D01*
X28850Y18694D01*
X28815Y18729D01*
X28744Y18800D01*
X28815Y18871D01*
X28850Y18906D01*
X29158Y19214D01*
X29125Y19313D01*
X29051Y19340D01*
X29553Y19340D01*
X29476Y19308D01*
X29307Y19139D01*
X29299Y19120D01*
X29229Y19143D01*
X28886Y18800D01*
X29229Y18457D01*
X29299Y18481D01*
X29307Y18461D01*
X29476Y18292D01*
X29696Y18201D01*
X29934Y18201D01*
X30154Y18292D01*
X30315Y18453D01*
X30476Y18292D01*
X30696Y18201D01*
X30934Y18201D01*
X31154Y18292D01*
X31315Y18453D01*
X31476Y18292D01*
X31696Y18201D01*
X31934Y18201D01*
X32154Y18292D01*
X32315Y18453D01*
X32476Y18292D01*
X32696Y18201D01*
X32934Y18201D01*
X33154Y18292D01*
X33323Y18461D01*
X33414Y18681D01*
X33414Y18919D01*
X33323Y19139D01*
X33154Y19308D01*
X33076Y19340D01*
X36298Y19340D01*
X38125Y17513D01*
X38112Y17513D01*
X37970Y17454D01*
X37861Y17345D01*
X37802Y17203D01*
X37802Y17049D01*
X37861Y16907D01*
X37970Y16798D01*
X38058Y16762D01*
X38058Y16191D01*
X36399Y16191D01*
X36257Y16250D01*
X36103Y16250D01*
X35961Y16191D01*
X35852Y16082D01*
X35793Y15940D01*
X35793Y15786D01*
X35852Y15644D01*
X35961Y15535D01*
X36103Y15476D01*
X36257Y15476D01*
X36399Y15535D01*
X38386Y15535D01*
X38628Y15535D01*
X38648Y15515D01*
X38648Y12538D01*
X37170Y11060D01*
X37099Y10954D01*
X37074Y10828D01*
X37074Y08488D01*
X36975Y08389D01*
X36943Y08312D01*
X36943Y08944D01*
X36943Y09168D01*
X36942Y09282D01*
X36942Y09381D01*
X36904Y09472D01*
X36834Y09542D01*
X36742Y09580D01*
X36175Y09581D01*
X36113Y09519D01*
X36113Y09106D01*
X36881Y09106D01*
X36943Y09168D01*
X36943Y08944D01*
X36881Y09006D01*
X36113Y09006D01*
X36113Y08593D01*
X36175Y08531D01*
X36742Y08532D01*
X36834Y08570D01*
X36904Y08640D01*
X36942Y08731D01*
X36942Y08830D01*
X36943Y08944D01*
X36943Y08312D01*
X36916Y08247D01*
X36916Y08093D01*
X36975Y07951D01*
X37084Y07842D01*
X37226Y07783D01*
X37380Y07783D01*
X37522Y07842D01*
X37631Y07951D01*
X37690Y08093D01*
X37690Y08121D01*
X37690Y08122D01*
X37705Y08143D01*
X37705Y08144D01*
X37730Y08269D01*
X37730Y10692D01*
X37862Y10824D01*
X37862Y10306D01*
X37900Y10214D01*
X37970Y10144D01*
X38061Y10106D01*
X38160Y10106D01*
X39025Y10106D01*
X39025Y09581D01*
X38853Y09581D01*
X38791Y09519D01*
X38791Y09156D01*
X38791Y09106D01*
X38791Y09006D01*
X38791Y08956D01*
X38791Y08593D01*
X38853Y08531D01*
X39025Y08532D01*
X39025Y03073D01*
G54D10*
G36*
X06938Y17865D02*
X03628Y17865D01*
X03565Y17928D01*
X03474Y17966D01*
X03375Y17966D01*
X02825Y17966D01*
X02733Y17928D01*
X02670Y17865D01*
X02054Y17865D01*
X01991Y17928D01*
X01900Y17966D01*
X01801Y17966D01*
X01251Y17966D01*
X01159Y17928D01*
X01096Y17865D01*
X00836Y17865D01*
X00836Y17674D01*
X00797Y17674D01*
X00632Y17606D01*
X00506Y17480D01*
X00437Y17315D01*
X00437Y17136D01*
X00505Y16971D01*
X00631Y16845D01*
X00796Y16776D01*
X00836Y16776D01*
X00836Y16296D01*
X00797Y16296D01*
X00632Y16228D01*
X00506Y16102D01*
X00437Y15937D01*
X00437Y15758D01*
X00505Y15593D01*
X00631Y15467D01*
X00796Y15398D01*
X00836Y15398D01*
X00836Y11958D01*
X03198Y11958D01*
X03198Y10990D01*
X04182Y10596D01*
X04182Y09582D01*
X03198Y09188D01*
X03198Y07414D01*
X03196Y07414D01*
X03084Y07415D01*
X03022Y07353D01*
X03022Y06990D01*
X03022Y06940D01*
X03022Y06840D01*
X03022Y06790D01*
X03022Y06427D01*
X03084Y06365D01*
X03196Y06366D01*
X03198Y06367D01*
X03198Y06155D01*
X02922Y06155D01*
X02922Y06427D01*
X02922Y06840D01*
X02922Y06940D01*
X02922Y07353D01*
X02860Y07415D01*
X02748Y07414D01*
X02656Y07376D01*
X02586Y07306D01*
X02548Y07215D01*
X02548Y07116D01*
X02547Y07002D01*
X02609Y06940D01*
X02922Y06940D01*
X02922Y06840D01*
X02609Y06840D01*
X02547Y06778D01*
X02548Y06664D01*
X02548Y06565D01*
X02586Y06474D01*
X02656Y06404D01*
X02748Y06366D01*
X02860Y06365D01*
X02922Y06427D01*
X02922Y06155D01*
X02825Y06155D01*
X02733Y06117D01*
X02663Y06047D01*
X02625Y05956D01*
X02625Y05857D01*
X02625Y04679D01*
X02309Y04679D01*
X02099Y04889D01*
X02099Y05955D01*
X02061Y06047D01*
X01991Y06117D01*
X01900Y06155D01*
X01801Y06155D01*
X01251Y06155D01*
X01159Y06117D01*
X01089Y06047D01*
X01051Y05956D01*
X01051Y05857D01*
X01051Y04597D01*
X01089Y04505D01*
X01159Y04435D01*
X01250Y04397D01*
X01349Y04397D01*
X01607Y04397D01*
X01919Y04085D01*
X02031Y04010D01*
X02032Y04009D01*
X02165Y03983D01*
X05363Y03983D01*
X05363Y00346D01*
X03673Y00346D01*
X03673Y01918D01*
X03673Y02017D01*
X03673Y03277D01*
X03635Y03369D01*
X03565Y03439D01*
X03474Y03477D01*
X03375Y03477D01*
X02825Y03477D01*
X02733Y03439D01*
X02663Y03369D01*
X02625Y03278D01*
X02625Y03179D01*
X02625Y01919D01*
X02663Y01827D01*
X02733Y01757D01*
X02824Y01719D01*
X02923Y01719D01*
X03473Y01719D01*
X03565Y01757D01*
X03635Y01827D01*
X03673Y01918D01*
X03673Y00346D01*
X02099Y00346D01*
X02099Y01918D01*
X02099Y02017D01*
X02099Y03277D01*
X02061Y03369D01*
X01991Y03439D01*
X01900Y03477D01*
X01801Y03477D01*
X01335Y03477D01*
X01335Y03749D01*
X01335Y03928D01*
X01267Y04093D01*
X01141Y04219D01*
X00976Y04288D01*
X00797Y04288D01*
X00632Y04220D01*
X00506Y04094D01*
X00437Y03929D01*
X00437Y03750D01*
X00505Y03585D01*
X00631Y03459D01*
X00796Y03390D01*
X00975Y03390D01*
X01140Y03458D01*
X01266Y03584D01*
X01335Y03749D01*
X01335Y03477D01*
X01251Y03477D01*
X01159Y03439D01*
X01089Y03369D01*
X01051Y03278D01*
X01051Y03179D01*
X01051Y02879D01*
X00976Y02910D01*
X00797Y02910D01*
X00632Y02842D01*
X00506Y02716D01*
X00437Y02551D01*
X00437Y02372D01*
X00505Y02207D01*
X00631Y02081D01*
X00796Y02012D01*
X00975Y02012D01*
X01051Y02044D01*
X01051Y01919D01*
X01089Y01827D01*
X01159Y01757D01*
X01250Y01719D01*
X01349Y01719D01*
X01899Y01719D01*
X01991Y01757D01*
X02061Y01827D01*
X02099Y01918D01*
X02099Y00346D01*
X01104Y00346D01*
X00345Y01104D01*
X00345Y18483D01*
X01202Y19340D01*
X05880Y19340D01*
X05880Y19183D01*
X05964Y18981D01*
X06118Y18827D01*
X06320Y18743D01*
X06538Y18743D01*
X06740Y18827D01*
X06894Y18981D01*
X06894Y18983D01*
X06938Y18983D01*
X06938Y17865D01*
X06938Y17865D01*
G37*
G54D33*
X06938Y17865D02*
X03628Y17865D01*
X03565Y17928D01*
X03474Y17966D01*
X03375Y17966D01*
X02825Y17966D01*
X02733Y17928D01*
X02670Y17865D01*
X02054Y17865D01*
X01991Y17928D01*
X01900Y17966D01*
X01801Y17966D01*
X01251Y17966D01*
X01159Y17928D01*
X01096Y17865D01*
X00836Y17865D01*
X00836Y17674D01*
X00797Y17674D01*
X00632Y17606D01*
X00506Y17480D01*
X00437Y17315D01*
X00437Y17136D01*
X00505Y16971D01*
X00631Y16845D01*
X00796Y16776D01*
X00836Y16776D01*
X00836Y16296D01*
X00797Y16296D01*
X00632Y16228D01*
X00506Y16102D01*
X00437Y15937D01*
X00437Y15758D01*
X00505Y15593D01*
X00631Y15467D01*
X00796Y15398D01*
X00836Y15398D01*
X00836Y11958D01*
X03198Y11958D01*
X03198Y10990D01*
X04182Y10596D01*
X04182Y09582D01*
X03198Y09188D01*
X03198Y07414D01*
X03196Y07414D01*
X03084Y07415D01*
X03022Y07353D01*
X03022Y06990D01*
X03022Y06940D01*
X03022Y06840D01*
X03022Y06790D01*
X03022Y06427D01*
X03084Y06365D01*
X03196Y06366D01*
X03198Y06367D01*
X03198Y06155D01*
X02922Y06155D01*
X02922Y06427D01*
X02922Y06840D01*
X02922Y06940D01*
X02922Y07353D01*
X02860Y07415D01*
X02748Y07414D01*
X02656Y07376D01*
X02586Y07306D01*
X02548Y07215D01*
X02548Y07116D01*
X02547Y07002D01*
X02609Y06940D01*
X02922Y06940D01*
X02922Y06840D01*
X02609Y06840D01*
X02547Y06778D01*
X02548Y06664D01*
X02548Y06565D01*
X02586Y06474D01*
X02656Y06404D01*
X02748Y06366D01*
X02860Y06365D01*
X02922Y06427D01*
X02922Y06155D01*
X02825Y06155D01*
X02733Y06117D01*
X02663Y06047D01*
X02625Y05956D01*
X02625Y05857D01*
X02625Y04679D01*
X02309Y04679D01*
X02099Y04889D01*
X02099Y05955D01*
X02061Y06047D01*
X01991Y06117D01*
X01900Y06155D01*
X01801Y06155D01*
X01251Y06155D01*
X01159Y06117D01*
X01089Y06047D01*
X01051Y05956D01*
X01051Y05857D01*
X01051Y04597D01*
X01089Y04505D01*
X01159Y04435D01*
X01250Y04397D01*
X01349Y04397D01*
X01607Y04397D01*
X01919Y04085D01*
X02031Y04010D01*
X02032Y04009D01*
X02165Y03983D01*
X05363Y03983D01*
X05363Y00346D01*
X03673Y00346D01*
X03673Y01918D01*
X03673Y02017D01*
X03673Y03277D01*
X03635Y03369D01*
X03565Y03439D01*
X03474Y03477D01*
X03375Y03477D01*
X02825Y03477D01*
X02733Y03439D01*
X02663Y03369D01*
X02625Y03278D01*
X02625Y03179D01*
X02625Y01919D01*
X02663Y01827D01*
X02733Y01757D01*
X02824Y01719D01*
X02923Y01719D01*
X03473Y01719D01*
X03565Y01757D01*
X03635Y01827D01*
X03673Y01918D01*
X03673Y00346D01*
X02099Y00346D01*
X02099Y01918D01*
X02099Y02017D01*
X02099Y03277D01*
X02061Y03369D01*
X01991Y03439D01*
X01900Y03477D01*
X01801Y03477D01*
X01335Y03477D01*
X01335Y03749D01*
X01335Y03928D01*
X01267Y04093D01*
X01141Y04219D01*
X00976Y04288D01*
X00797Y04288D01*
X00632Y04220D01*
X00506Y04094D01*
X00437Y03929D01*
X00437Y03750D01*
X00505Y03585D01*
X00631Y03459D01*
X00796Y03390D01*
X00975Y03390D01*
X01140Y03458D01*
X01266Y03584D01*
X01335Y03749D01*
X01335Y03477D01*
X01251Y03477D01*
X01159Y03439D01*
X01089Y03369D01*
X01051Y03278D01*
X01051Y03179D01*
X01051Y02879D01*
X00976Y02910D01*
X00797Y02910D01*
X00632Y02842D01*
X00506Y02716D01*
X00437Y02551D01*
X00437Y02372D01*
X00505Y02207D01*
X00631Y02081D01*
X00796Y02012D01*
X00975Y02012D01*
X01051Y02044D01*
X01051Y01919D01*
X01089Y01827D01*
X01159Y01757D01*
X01250Y01719D01*
X01349Y01719D01*
X01899Y01719D01*
X01991Y01757D01*
X02061Y01827D01*
X02099Y01918D01*
X02099Y00346D01*
X01104Y00346D01*
X00345Y01104D01*
X00345Y18483D01*
X01202Y19340D01*
X05880Y19340D01*
X05880Y19183D01*
X05964Y18981D01*
X06118Y18827D01*
X06320Y18743D01*
X06538Y18743D01*
X06740Y18827D01*
X06894Y18981D01*
X06894Y18983D01*
X06938Y18983D01*
X06938Y17865D01*
G54D10*
G36*
X12352Y00346D02*
X10988Y00346D01*
X10991Y00348D01*
X11057Y00505D01*
X11057Y00675D01*
X10992Y00832D01*
X10873Y00952D01*
X10716Y01018D01*
X10546Y01018D01*
X10389Y00953D01*
X10269Y00834D01*
X10203Y00677D01*
X10203Y00507D01*
X10268Y00350D01*
X10271Y00346D01*
X09204Y00346D01*
X09204Y01033D01*
X12352Y01033D01*
X12352Y00346D01*
X12352Y00346D01*
G37*
G54D33*
X12352Y00346D02*
X10988Y00346D01*
X10991Y00348D01*
X11057Y00505D01*
X11057Y00675D01*
X10992Y00832D01*
X10873Y00952D01*
X10716Y01018D01*
X10546Y01018D01*
X10389Y00953D01*
X10269Y00834D01*
X10203Y00677D01*
X10203Y00507D01*
X10268Y00350D01*
X10271Y00346D01*
X09204Y00346D01*
X09204Y01033D01*
X12352Y01033D01*
X12352Y00346D01*
G54D10*
G36*
X08808Y00346D02*
X07740Y00346D01*
X07743Y00348D01*
X07809Y00505D01*
X07809Y00675D01*
X07744Y00832D01*
X07625Y00952D01*
X07468Y01018D01*
X07298Y01018D01*
X07141Y00953D01*
X07021Y00834D01*
X06955Y00677D01*
X06955Y00507D01*
X07020Y00350D01*
X07023Y00346D01*
X05759Y00346D01*
X05759Y01033D01*
X08808Y01033D01*
X08808Y00346D01*
X08808Y00346D01*
G37*
G54D33*
X08808Y00346D02*
X07740Y00346D01*
X07743Y00348D01*
X07809Y00505D01*
X07809Y00675D01*
X07744Y00832D01*
X07625Y00952D01*
X07468Y01018D01*
X07298Y01018D01*
X07141Y00953D01*
X07021Y00834D01*
X06955Y00677D01*
X06955Y00507D01*
X07020Y00350D01*
X07023Y00346D01*
X05759Y00346D01*
X05759Y01033D01*
X08808Y01033D01*
X08808Y00346D01*
G54D10*
G36*
X12352Y01428D02*
X10888Y01428D01*
X10991Y01530D01*
X11057Y01687D01*
X11057Y01857D01*
X10992Y02014D01*
X10873Y02134D01*
X10716Y02200D01*
X10546Y02200D01*
X10389Y02135D01*
X10269Y02016D01*
X10203Y01859D01*
X10203Y01689D01*
X10268Y01532D01*
X10371Y01428D01*
X07640Y01428D01*
X07743Y01530D01*
X07809Y01687D01*
X07809Y01857D01*
X07744Y02014D01*
X07625Y02134D01*
X07468Y02200D01*
X07298Y02200D01*
X07141Y02135D01*
X07021Y02016D01*
X06955Y01859D01*
X06955Y01689D01*
X07020Y01532D01*
X07123Y01428D01*
X05759Y01428D01*
X05759Y02608D01*
X12352Y02608D01*
X12352Y01428D01*
X12352Y01428D01*
G37*
G54D33*
X12352Y01428D02*
X10888Y01428D01*
X10991Y01530D01*
X11057Y01687D01*
X11057Y01857D01*
X10992Y02014D01*
X10873Y02134D01*
X10716Y02200D01*
X10546Y02200D01*
X10389Y02135D01*
X10269Y02016D01*
X10203Y01859D01*
X10203Y01689D01*
X10268Y01532D01*
X10371Y01428D01*
X07640Y01428D01*
X07743Y01530D01*
X07809Y01687D01*
X07809Y01857D01*
X07744Y02014D01*
X07625Y02134D01*
X07468Y02200D01*
X07298Y02200D01*
X07141Y02135D01*
X07021Y02016D01*
X06955Y01859D01*
X06955Y01689D01*
X07020Y01532D01*
X07123Y01428D01*
X05759Y01428D01*
X05759Y02608D01*
X12352Y02608D01*
X12352Y01428D01*
M02*
