G04 (created by PCBNEW-RS274X (2012-jan-04)-testing) date Wed 23 May 2012 23:15:24 BST*
G01*
G70*
G90*
%MOIN*%
G04 Gerber Fmt 3.4, Leading zero omitted, Abs format*
%FSLAX34Y34*%
G04 APERTURE LIST*
%ADD10C,0.006000*%
%ADD11C,0.012000*%
%ADD12C,0.015000*%
%ADD13C,0.005000*%
%ADD14C,0.000100*%
G04 APERTURE END LIST*
G54D10*
G54D11*
X31315Y18126D02*
X31315Y18012D01*
X31353Y17954D01*
X31429Y17897D01*
X31581Y17869D01*
X31848Y17869D01*
X32001Y17897D01*
X32077Y17954D01*
X32115Y18012D01*
X32115Y18126D01*
X32077Y18183D01*
X32001Y18240D01*
X31848Y18269D01*
X31581Y18269D01*
X31429Y18240D01*
X31353Y18183D01*
X31315Y18126D01*
X32077Y17640D02*
X32115Y17554D01*
X32115Y17411D01*
X32077Y17354D01*
X32039Y17325D01*
X31962Y17297D01*
X31886Y17297D01*
X31810Y17325D01*
X31772Y17354D01*
X31734Y17411D01*
X31696Y17525D01*
X31658Y17583D01*
X31620Y17611D01*
X31543Y17640D01*
X31467Y17640D01*
X31391Y17611D01*
X31353Y17583D01*
X31315Y17525D01*
X31315Y17383D01*
X31353Y17297D01*
X32115Y17040D02*
X31315Y17040D01*
X31696Y17040D02*
X31696Y16697D01*
X32115Y16697D02*
X31315Y16697D01*
X31315Y16468D02*
X32115Y16325D01*
X31543Y16211D01*
X32115Y16097D01*
X31315Y15954D01*
G54D12*
X39369Y16733D02*
X39370Y16733D01*
X36417Y19685D02*
X39369Y16733D01*
X00984Y19685D02*
X00000Y18701D01*
X36417Y19685D02*
X00984Y19685D01*
X36417Y00000D02*
X39370Y02953D01*
X00000Y00984D02*
X00000Y00985D01*
X00984Y00000D02*
X00000Y00984D01*
X36417Y00000D02*
X00984Y00000D01*
X00000Y18701D02*
X00000Y00985D01*
X39370Y16733D02*
X39370Y02953D01*
G54D13*
X29278Y06929D02*
X29277Y06920D01*
X29274Y06910D01*
X29269Y06902D01*
X29263Y06894D01*
X29255Y06888D01*
X29247Y06883D01*
X29238Y06881D01*
X29228Y06880D01*
X29219Y06880D01*
X29210Y06883D01*
X29201Y06888D01*
X29194Y06894D01*
X29187Y06901D01*
X29183Y06910D01*
X29180Y06919D01*
X29179Y06929D01*
X29179Y06938D01*
X29182Y06947D01*
X29186Y06956D01*
X29193Y06963D01*
X29200Y06970D01*
X29208Y06974D01*
X29218Y06977D01*
X29227Y06978D01*
X29236Y06978D01*
X29246Y06975D01*
X29254Y06971D01*
X29262Y06965D01*
X29268Y06957D01*
X29273Y06949D01*
X29276Y06940D01*
X29277Y06930D01*
X29278Y06929D01*
X29228Y07379D02*
X29228Y06979D01*
X29228Y06979D02*
X29828Y06979D01*
X29828Y06979D02*
X29828Y07379D01*
X29828Y07779D02*
X29828Y08179D01*
X29828Y08179D02*
X29228Y08179D01*
X29228Y08179D02*
X29228Y07779D01*
X30763Y08229D02*
X30762Y08220D01*
X30759Y08210D01*
X30754Y08202D01*
X30748Y08194D01*
X30740Y08188D01*
X30732Y08183D01*
X30723Y08181D01*
X30713Y08180D01*
X30704Y08180D01*
X30695Y08183D01*
X30686Y08188D01*
X30679Y08194D01*
X30672Y08201D01*
X30668Y08210D01*
X30665Y08219D01*
X30664Y08229D01*
X30664Y08238D01*
X30667Y08247D01*
X30671Y08256D01*
X30678Y08263D01*
X30685Y08270D01*
X30693Y08274D01*
X30703Y08277D01*
X30712Y08278D01*
X30721Y08278D01*
X30731Y08275D01*
X30739Y08271D01*
X30747Y08265D01*
X30753Y08257D01*
X30758Y08249D01*
X30761Y08240D01*
X30762Y08230D01*
X30763Y08229D01*
X30713Y07779D02*
X30713Y08179D01*
X30713Y08179D02*
X30113Y08179D01*
X30113Y08179D02*
X30113Y07779D01*
X30113Y07379D02*
X30113Y06979D01*
X30113Y06979D02*
X30713Y06979D01*
X30713Y06979D02*
X30713Y07379D01*
X30230Y02613D02*
X30229Y02604D01*
X30226Y02594D01*
X30221Y02586D01*
X30215Y02578D01*
X30207Y02572D01*
X30199Y02567D01*
X30190Y02565D01*
X30180Y02564D01*
X30171Y02564D01*
X30162Y02567D01*
X30153Y02572D01*
X30146Y02578D01*
X30139Y02585D01*
X30135Y02594D01*
X30132Y02603D01*
X30131Y02613D01*
X30131Y02622D01*
X30134Y02631D01*
X30138Y02640D01*
X30145Y02647D01*
X30152Y02654D01*
X30160Y02658D01*
X30170Y02661D01*
X30179Y02662D01*
X30188Y02662D01*
X30198Y02659D01*
X30206Y02655D01*
X30214Y02649D01*
X30220Y02641D01*
X30225Y02633D01*
X30228Y02624D01*
X30229Y02614D01*
X30230Y02613D01*
X30180Y02163D02*
X30180Y02563D01*
X30180Y02563D02*
X29580Y02563D01*
X29580Y02563D02*
X29580Y02163D01*
X29580Y01763D02*
X29580Y01363D01*
X29580Y01363D02*
X30180Y01363D01*
X30180Y01363D02*
X30180Y01763D01*
X31230Y02613D02*
X31229Y02604D01*
X31226Y02594D01*
X31221Y02586D01*
X31215Y02578D01*
X31207Y02572D01*
X31199Y02567D01*
X31190Y02565D01*
X31180Y02564D01*
X31171Y02564D01*
X31162Y02567D01*
X31153Y02572D01*
X31146Y02578D01*
X31139Y02585D01*
X31135Y02594D01*
X31132Y02603D01*
X31131Y02613D01*
X31131Y02622D01*
X31134Y02631D01*
X31138Y02640D01*
X31145Y02647D01*
X31152Y02654D01*
X31160Y02658D01*
X31170Y02661D01*
X31179Y02662D01*
X31188Y02662D01*
X31198Y02659D01*
X31206Y02655D01*
X31214Y02649D01*
X31220Y02641D01*
X31225Y02633D01*
X31228Y02624D01*
X31229Y02614D01*
X31230Y02613D01*
X31180Y02163D02*
X31180Y02563D01*
X31180Y02563D02*
X30580Y02563D01*
X30580Y02563D02*
X30580Y02163D01*
X30580Y01763D02*
X30580Y01363D01*
X30580Y01363D02*
X31180Y01363D01*
X31180Y01363D02*
X31180Y01763D01*
X32230Y02613D02*
X32229Y02604D01*
X32226Y02594D01*
X32221Y02586D01*
X32215Y02578D01*
X32207Y02572D01*
X32199Y02567D01*
X32190Y02565D01*
X32180Y02564D01*
X32171Y02564D01*
X32162Y02567D01*
X32153Y02572D01*
X32146Y02578D01*
X32139Y02585D01*
X32135Y02594D01*
X32132Y02603D01*
X32131Y02613D01*
X32131Y02622D01*
X32134Y02631D01*
X32138Y02640D01*
X32145Y02647D01*
X32152Y02654D01*
X32160Y02658D01*
X32170Y02661D01*
X32179Y02662D01*
X32188Y02662D01*
X32198Y02659D01*
X32206Y02655D01*
X32214Y02649D01*
X32220Y02641D01*
X32225Y02633D01*
X32228Y02624D01*
X32229Y02614D01*
X32230Y02613D01*
X32180Y02163D02*
X32180Y02563D01*
X32180Y02563D02*
X31580Y02563D01*
X31580Y02563D02*
X31580Y02163D01*
X31580Y01763D02*
X31580Y01363D01*
X31580Y01363D02*
X32180Y01363D01*
X32180Y01363D02*
X32180Y01763D01*
X33230Y02613D02*
X33229Y02604D01*
X33226Y02594D01*
X33221Y02586D01*
X33215Y02578D01*
X33207Y02572D01*
X33199Y02567D01*
X33190Y02565D01*
X33180Y02564D01*
X33171Y02564D01*
X33162Y02567D01*
X33153Y02572D01*
X33146Y02578D01*
X33139Y02585D01*
X33135Y02594D01*
X33132Y02603D01*
X33131Y02613D01*
X33131Y02622D01*
X33134Y02631D01*
X33138Y02640D01*
X33145Y02647D01*
X33152Y02654D01*
X33160Y02658D01*
X33170Y02661D01*
X33179Y02662D01*
X33188Y02662D01*
X33198Y02659D01*
X33206Y02655D01*
X33214Y02649D01*
X33220Y02641D01*
X33225Y02633D01*
X33228Y02624D01*
X33229Y02614D01*
X33230Y02613D01*
X33180Y02163D02*
X33180Y02563D01*
X33180Y02563D02*
X32580Y02563D01*
X32580Y02563D02*
X32580Y02163D01*
X32580Y01763D02*
X32580Y01363D01*
X32580Y01363D02*
X33180Y01363D01*
X33180Y01363D02*
X33180Y01763D01*
X34230Y02613D02*
X34229Y02604D01*
X34226Y02594D01*
X34221Y02586D01*
X34215Y02578D01*
X34207Y02572D01*
X34199Y02567D01*
X34190Y02565D01*
X34180Y02564D01*
X34171Y02564D01*
X34162Y02567D01*
X34153Y02572D01*
X34146Y02578D01*
X34139Y02585D01*
X34135Y02594D01*
X34132Y02603D01*
X34131Y02613D01*
X34131Y02622D01*
X34134Y02631D01*
X34138Y02640D01*
X34145Y02647D01*
X34152Y02654D01*
X34160Y02658D01*
X34170Y02661D01*
X34179Y02662D01*
X34188Y02662D01*
X34198Y02659D01*
X34206Y02655D01*
X34214Y02649D01*
X34220Y02641D01*
X34225Y02633D01*
X34228Y02624D01*
X34229Y02614D01*
X34230Y02613D01*
X34180Y02163D02*
X34180Y02563D01*
X34180Y02563D02*
X33580Y02563D01*
X33580Y02563D02*
X33580Y02163D01*
X33580Y01763D02*
X33580Y01363D01*
X33580Y01363D02*
X34180Y01363D01*
X34180Y01363D02*
X34180Y01763D01*
X03731Y05615D02*
X03730Y05606D01*
X03727Y05596D01*
X03722Y05588D01*
X03716Y05580D01*
X03708Y05574D01*
X03700Y05569D01*
X03691Y05567D01*
X03681Y05566D01*
X03672Y05566D01*
X03663Y05569D01*
X03654Y05574D01*
X03647Y05580D01*
X03640Y05587D01*
X03636Y05596D01*
X03633Y05605D01*
X03632Y05615D01*
X03632Y05624D01*
X03635Y05633D01*
X03639Y05642D01*
X03646Y05649D01*
X03653Y05656D01*
X03661Y05660D01*
X03671Y05663D01*
X03680Y05664D01*
X03689Y05664D01*
X03699Y05661D01*
X03707Y05657D01*
X03715Y05651D01*
X03721Y05643D01*
X03726Y05635D01*
X03729Y05626D01*
X03730Y05616D01*
X03731Y05615D01*
X04131Y05615D02*
X03731Y05615D01*
X03731Y05615D02*
X03731Y05015D01*
X03731Y05015D02*
X04131Y05015D01*
X04531Y05015D02*
X04931Y05015D01*
X04931Y05015D02*
X04931Y05615D01*
X04931Y05615D02*
X04531Y05615D01*
X08608Y00138D02*
X08607Y00129D01*
X08604Y00119D01*
X08599Y00111D01*
X08593Y00103D01*
X08585Y00097D01*
X08577Y00092D01*
X08568Y00090D01*
X08558Y00089D01*
X08549Y00089D01*
X08540Y00092D01*
X08531Y00097D01*
X08524Y00103D01*
X08517Y00110D01*
X08513Y00119D01*
X08510Y00128D01*
X08509Y00138D01*
X08509Y00147D01*
X08512Y00156D01*
X08516Y00165D01*
X08523Y00172D01*
X08530Y00179D01*
X08538Y00183D01*
X08548Y00186D01*
X08557Y00187D01*
X08566Y00187D01*
X08576Y00184D01*
X08584Y00180D01*
X08592Y00174D01*
X08598Y00166D01*
X08603Y00158D01*
X08606Y00149D01*
X08607Y00139D01*
X08608Y00138D01*
X08558Y00588D02*
X08558Y00188D01*
X08558Y00188D02*
X09158Y00188D01*
X09158Y00188D02*
X09158Y00588D01*
X09158Y00988D02*
X09158Y01388D01*
X09158Y01388D02*
X08558Y01388D01*
X08558Y01388D02*
X08558Y00988D01*
X11506Y00793D02*
X11505Y00784D01*
X11502Y00774D01*
X11497Y00766D01*
X11491Y00758D01*
X11483Y00752D01*
X11475Y00747D01*
X11466Y00745D01*
X11456Y00744D01*
X11447Y00744D01*
X11438Y00747D01*
X11429Y00752D01*
X11422Y00758D01*
X11415Y00765D01*
X11411Y00774D01*
X11408Y00783D01*
X11407Y00793D01*
X11407Y00802D01*
X11410Y00811D01*
X11414Y00820D01*
X11421Y00827D01*
X11428Y00834D01*
X11436Y00838D01*
X11446Y00841D01*
X11455Y00842D01*
X11464Y00842D01*
X11474Y00839D01*
X11482Y00835D01*
X11490Y00829D01*
X11496Y00821D01*
X11501Y00813D01*
X11504Y00804D01*
X11505Y00794D01*
X11506Y00793D01*
X11906Y00793D02*
X11506Y00793D01*
X11506Y00793D02*
X11506Y00193D01*
X11506Y00193D02*
X11906Y00193D01*
X12306Y00193D02*
X12706Y00193D01*
X12706Y00193D02*
X12706Y00793D01*
X12706Y00793D02*
X12306Y00793D01*
X32821Y07618D02*
X32820Y07609D01*
X32817Y07599D01*
X32812Y07591D01*
X32806Y07583D01*
X32798Y07577D01*
X32790Y07572D01*
X32781Y07570D01*
X32771Y07569D01*
X32762Y07569D01*
X32753Y07572D01*
X32744Y07577D01*
X32737Y07583D01*
X32730Y07590D01*
X32726Y07599D01*
X32723Y07608D01*
X32722Y07618D01*
X32722Y07627D01*
X32725Y07636D01*
X32729Y07645D01*
X32736Y07652D01*
X32743Y07659D01*
X32751Y07663D01*
X32761Y07666D01*
X32770Y07667D01*
X32779Y07667D01*
X32789Y07664D01*
X32797Y07660D01*
X32805Y07654D01*
X32811Y07646D01*
X32816Y07638D01*
X32819Y07629D01*
X32820Y07619D01*
X32821Y07618D01*
X32771Y08068D02*
X32771Y07668D01*
X32771Y07668D02*
X33371Y07668D01*
X33371Y07668D02*
X33371Y08068D01*
X33371Y08468D02*
X33371Y08868D01*
X33371Y08868D02*
X32771Y08868D01*
X32771Y08868D02*
X32771Y08468D01*
X32437Y10493D02*
X32436Y10484D01*
X32433Y10474D01*
X32428Y10466D01*
X32422Y10458D01*
X32414Y10452D01*
X32406Y10447D01*
X32397Y10445D01*
X32387Y10444D01*
X32378Y10444D01*
X32369Y10447D01*
X32360Y10452D01*
X32353Y10458D01*
X32346Y10465D01*
X32342Y10474D01*
X32339Y10483D01*
X32338Y10493D01*
X32338Y10502D01*
X32341Y10511D01*
X32345Y10520D01*
X32352Y10527D01*
X32359Y10534D01*
X32367Y10538D01*
X32377Y10541D01*
X32386Y10542D01*
X32395Y10542D01*
X32405Y10539D01*
X32413Y10535D01*
X32421Y10529D01*
X32427Y10521D01*
X32432Y10513D01*
X32435Y10504D01*
X32436Y10494D01*
X32437Y10493D01*
X32387Y10043D02*
X32387Y10443D01*
X32387Y10443D02*
X31787Y10443D01*
X31787Y10443D02*
X31787Y10043D01*
X31787Y09643D02*
X31787Y09243D01*
X31787Y09243D02*
X32387Y09243D01*
X32387Y09243D02*
X32387Y09643D01*
X13180Y01875D02*
X13179Y01866D01*
X13176Y01856D01*
X13171Y01848D01*
X13165Y01840D01*
X13157Y01834D01*
X13149Y01829D01*
X13140Y01827D01*
X13130Y01826D01*
X13121Y01826D01*
X13112Y01829D01*
X13103Y01834D01*
X13096Y01840D01*
X13089Y01847D01*
X13085Y01856D01*
X13082Y01865D01*
X13081Y01875D01*
X13081Y01884D01*
X13084Y01893D01*
X13088Y01902D01*
X13095Y01909D01*
X13102Y01916D01*
X13110Y01920D01*
X13120Y01923D01*
X13129Y01924D01*
X13138Y01924D01*
X13148Y01921D01*
X13156Y01917D01*
X13164Y01911D01*
X13170Y01903D01*
X13175Y01895D01*
X13178Y01886D01*
X13179Y01876D01*
X13180Y01875D01*
X13580Y01875D02*
X13180Y01875D01*
X13180Y01875D02*
X13180Y01275D01*
X13180Y01275D02*
X13580Y01275D01*
X13980Y01275D02*
X14380Y01275D01*
X14380Y01275D02*
X14380Y01875D01*
X14380Y01875D02*
X13980Y01875D01*
G54D12*
X22047Y19686D02*
X25000Y19686D01*
X11024Y19686D02*
X21063Y19686D01*
X09646Y19686D02*
X09843Y19686D01*
X07087Y19686D02*
X09646Y19686D01*
X26772Y19686D02*
X26772Y03150D01*
X26772Y03150D02*
X05118Y03150D01*
X05118Y03150D02*
X05118Y19686D01*
X05118Y19686D02*
X05906Y19686D01*
X26772Y19686D02*
X25984Y19686D01*
G54D13*
X02747Y07190D02*
X02746Y07181D01*
X02743Y07171D01*
X02738Y07163D01*
X02732Y07155D01*
X02724Y07149D01*
X02716Y07144D01*
X02707Y07142D01*
X02697Y07141D01*
X02688Y07141D01*
X02679Y07144D01*
X02670Y07149D01*
X02663Y07155D01*
X02656Y07162D01*
X02652Y07171D01*
X02649Y07180D01*
X02648Y07190D01*
X02648Y07199D01*
X02651Y07208D01*
X02655Y07217D01*
X02662Y07224D01*
X02669Y07231D01*
X02677Y07235D01*
X02687Y07238D01*
X02696Y07239D01*
X02705Y07239D01*
X02715Y07236D01*
X02723Y07232D01*
X02731Y07226D01*
X02737Y07218D01*
X02742Y07210D01*
X02745Y07201D01*
X02746Y07191D01*
X02747Y07190D01*
X03147Y07190D02*
X02747Y07190D01*
X02747Y07190D02*
X02747Y06590D01*
X02747Y06590D02*
X03147Y06590D01*
X03547Y06590D02*
X03947Y06590D01*
X03947Y06590D02*
X03947Y07190D01*
X03947Y07190D02*
X03547Y07190D01*
G54D12*
X01181Y03445D02*
X01181Y04429D01*
X03543Y03445D02*
X03543Y04429D01*
X02657Y05217D02*
X02067Y05217D01*
X02657Y02657D02*
X02067Y02657D01*
X29036Y11024D02*
X30020Y11024D01*
X29036Y08662D02*
X30020Y08662D01*
X30808Y09548D02*
X30808Y10138D01*
X28248Y09548D02*
X28248Y10138D01*
X36910Y11024D02*
X37894Y11024D01*
X36910Y08662D02*
X37894Y08662D01*
X38682Y09548D02*
X38682Y10138D01*
X36122Y09548D02*
X36122Y10138D01*
X32973Y14961D02*
X33957Y14961D01*
X32973Y12599D02*
X33957Y12599D01*
X34745Y13485D02*
X34745Y14075D01*
X32185Y13485D02*
X32185Y14075D01*
X32973Y07087D02*
X33957Y07087D01*
X32973Y04725D02*
X33957Y04725D01*
X34745Y05611D02*
X34745Y06201D01*
X32185Y05611D02*
X32185Y06201D01*
X03543Y16240D02*
X03543Y15256D01*
X01181Y16240D02*
X01181Y15256D01*
X02067Y14468D02*
X02657Y14468D01*
X02067Y17028D02*
X02657Y17028D01*
G54D14*
G36*
X31004Y15798D02*
X30992Y15821D01*
X30960Y15872D01*
X30912Y15945D01*
X30854Y16032D01*
X30795Y16119D01*
X30747Y16190D01*
X30715Y16240D01*
X30704Y16261D01*
X30708Y16272D01*
X30728Y16313D01*
X30759Y16373D01*
X30777Y16408D01*
X30800Y16463D01*
X30805Y16490D01*
X30798Y16495D01*
X30756Y16515D01*
X30684Y16546D01*
X30589Y16588D01*
X30478Y16635D01*
X30358Y16686D01*
X30236Y16737D01*
X30119Y16785D01*
X30014Y16828D01*
X29929Y16862D01*
X29870Y16885D01*
X29844Y16893D01*
X29839Y16891D01*
X29812Y16863D01*
X29776Y16815D01*
X29692Y16712D01*
X29564Y16609D01*
X29419Y16547D01*
X29258Y16526D01*
X29108Y16544D01*
X28964Y16603D01*
X28835Y16703D01*
X28739Y16824D01*
X28678Y16966D01*
X28659Y17126D01*
X28676Y17279D01*
X28734Y17425D01*
X28832Y17555D01*
X28895Y17609D01*
X29026Y17684D01*
X29166Y17727D01*
X29202Y17732D01*
X29356Y17725D01*
X29503Y17680D01*
X29635Y17599D01*
X29743Y17486D01*
X29754Y17472D01*
X29793Y17419D01*
X29820Y17384D01*
X29842Y17357D01*
X30314Y17553D01*
X30389Y17584D01*
X30518Y17638D01*
X30629Y17685D01*
X30717Y17723D01*
X30776Y17749D01*
X30800Y17761D01*
X30801Y17762D01*
X30804Y17779D01*
X30791Y17815D01*
X30759Y17881D01*
X30737Y17925D01*
X30713Y17975D01*
X30704Y17997D01*
X30714Y18016D01*
X30745Y18064D01*
X30792Y18134D01*
X30850Y18219D01*
X30904Y18299D01*
X30953Y18373D01*
X30987Y18427D01*
X31001Y18453D01*
X31001Y18457D01*
X30988Y18480D01*
X30953Y18522D01*
X30892Y18587D01*
X30802Y18678D01*
X30789Y18692D01*
X30713Y18766D01*
X30649Y18827D01*
X30604Y18868D01*
X30583Y18882D01*
X30583Y18882D01*
X30557Y18869D01*
X30504Y18835D01*
X30429Y18786D01*
X30341Y18726D01*
X30114Y18570D01*
X29900Y18656D01*
X29835Y18682D01*
X29755Y18716D01*
X29698Y18741D01*
X29673Y18753D01*
X29665Y18777D01*
X29651Y18835D01*
X29633Y18920D01*
X29614Y19022D01*
X29597Y19118D01*
X29580Y19205D01*
X29568Y19269D01*
X29562Y19297D01*
X29558Y19304D01*
X29545Y19309D01*
X29515Y19313D01*
X29462Y19315D01*
X29378Y19316D01*
X29258Y19316D01*
X29245Y19316D01*
X29129Y19315D01*
X29038Y19313D01*
X28977Y19310D01*
X28954Y19306D01*
X28953Y19306D01*
X28947Y19279D01*
X28934Y19217D01*
X28917Y19130D01*
X28897Y19026D01*
X28896Y19019D01*
X28876Y18916D01*
X28858Y18829D01*
X28844Y18768D01*
X28836Y18742D01*
X28828Y18737D01*
X28788Y18716D01*
X28724Y18686D01*
X28645Y18652D01*
X28564Y18618D01*
X28491Y18589D01*
X28436Y18569D01*
X28411Y18563D01*
X28411Y18564D01*
X28386Y18579D01*
X28332Y18615D01*
X28257Y18665D01*
X28169Y18726D01*
X28163Y18730D01*
X28075Y18790D01*
X28001Y18838D01*
X27948Y18870D01*
X27924Y18882D01*
X27923Y18882D01*
X27897Y18862D01*
X27847Y18818D01*
X27780Y18754D01*
X27703Y18677D01*
X27679Y18653D01*
X27596Y18568D01*
X27541Y18508D01*
X27512Y18472D01*
X27506Y18454D01*
X27506Y18453D01*
X27522Y18427D01*
X27558Y18372D01*
X27609Y18297D01*
X27670Y18208D01*
X27674Y18202D01*
X27733Y18114D01*
X27783Y18041D01*
X27817Y17989D01*
X27831Y17967D01*
X27831Y17963D01*
X27820Y17927D01*
X27798Y17865D01*
X27769Y17788D01*
X27736Y17707D01*
X27705Y17634D01*
X27680Y17578D01*
X27665Y17552D01*
X27664Y17552D01*
X27633Y17542D01*
X27567Y17527D01*
X27477Y17509D01*
X27370Y17488D01*
X27352Y17485D01*
X27248Y17465D01*
X27162Y17448D01*
X27102Y17436D01*
X27078Y17430D01*
X27074Y17415D01*
X27070Y17364D01*
X27068Y17286D01*
X27067Y17192D01*
X27068Y17093D01*
X27070Y16996D01*
X27073Y16913D01*
X27077Y16854D01*
X27082Y16830D01*
X27083Y16829D01*
X27116Y16820D01*
X27181Y16805D01*
X27272Y16787D01*
X27380Y16766D01*
X27399Y16762D01*
X27503Y16743D01*
X27588Y16725D01*
X27647Y16713D01*
X27670Y16706D01*
X27675Y16697D01*
X27694Y16654D01*
X27723Y16584D01*
X27758Y16498D01*
X27839Y16297D01*
X27670Y16051D01*
X27655Y16028D01*
X27595Y15940D01*
X27546Y15867D01*
X27514Y15817D01*
X27502Y15796D01*
X27503Y15794D01*
X27524Y15770D01*
X27570Y15721D01*
X27635Y15654D01*
X27712Y15577D01*
X27769Y15520D01*
X27838Y15452D01*
X27884Y15409D01*
X27914Y15386D01*
X27932Y15377D01*
X27944Y15379D01*
X27969Y15395D01*
X28023Y15431D01*
X28098Y15482D01*
X28185Y15542D01*
X28257Y15591D01*
X28340Y15644D01*
X28399Y15679D01*
X28428Y15691D01*
X28440Y15688D01*
X28488Y15671D01*
X28561Y15642D01*
X28647Y15605D01*
X28842Y15519D01*
X28867Y15392D01*
X28881Y15314D01*
X28902Y15206D01*
X28922Y15103D01*
X28953Y14941D01*
X29547Y14935D01*
X29558Y14960D01*
X29564Y14984D01*
X29578Y15044D01*
X29595Y15130D01*
X29614Y15230D01*
X29630Y15316D01*
X29646Y15403D01*
X29658Y15465D01*
X29664Y15493D01*
X29673Y15500D01*
X29715Y15521D01*
X29782Y15552D01*
X29862Y15586D01*
X29945Y15621D01*
X30022Y15651D01*
X30080Y15673D01*
X30111Y15681D01*
X30133Y15669D01*
X30184Y15636D01*
X30257Y15588D01*
X30343Y15530D01*
X30429Y15471D01*
X30502Y15421D01*
X30555Y15387D01*
X30579Y15372D01*
X30596Y15379D01*
X30637Y15414D01*
X30705Y15479D01*
X30800Y15575D01*
X30815Y15591D01*
X30889Y15668D01*
X30949Y15733D01*
X30989Y15778D01*
X31004Y15798D01*
X31004Y15798D01*
G37*
G54D12*
X07283Y00000D02*
X07677Y00000D01*
X10236Y00000D02*
X10630Y00000D01*
X24212Y00000D02*
X22244Y00000D01*
G54D11*
X33806Y11564D02*
X33206Y11564D01*
X33206Y11421D01*
X33234Y11336D01*
X33292Y11278D01*
X33349Y11250D01*
X33463Y11221D01*
X33549Y11221D01*
X33663Y11250D01*
X33720Y11278D01*
X33777Y11336D01*
X33806Y11421D01*
X33806Y11564D01*
X33806Y10650D02*
X33806Y10993D01*
X33806Y10821D02*
X33206Y10821D01*
X33292Y10878D01*
X33349Y10936D01*
X33377Y10993D01*
G54D13*
X29629Y06756D02*
X29510Y06839D01*
X29629Y06898D02*
X29379Y06898D01*
X29379Y06803D01*
X29391Y06779D01*
X29403Y06768D01*
X29427Y06756D01*
X29463Y06756D01*
X29486Y06768D01*
X29498Y06779D01*
X29510Y06803D01*
X29510Y06898D01*
X29379Y06529D02*
X29379Y06648D01*
X29498Y06660D01*
X29486Y06648D01*
X29474Y06625D01*
X29474Y06565D01*
X29486Y06541D01*
X29498Y06529D01*
X29522Y06518D01*
X29582Y06518D01*
X29605Y06529D01*
X29617Y06541D01*
X29629Y06565D01*
X29629Y06625D01*
X29617Y06648D01*
X29605Y06660D01*
X29379Y06434D02*
X29379Y06268D01*
X29629Y06375D01*
X30514Y06756D02*
X30395Y06839D01*
X30514Y06898D02*
X30264Y06898D01*
X30264Y06803D01*
X30276Y06779D01*
X30288Y06768D01*
X30312Y06756D01*
X30348Y06756D01*
X30371Y06768D01*
X30383Y06779D01*
X30395Y06803D01*
X30395Y06898D01*
X30264Y06529D02*
X30264Y06648D01*
X30383Y06660D01*
X30371Y06648D01*
X30359Y06625D01*
X30359Y06565D01*
X30371Y06541D01*
X30383Y06529D01*
X30407Y06518D01*
X30467Y06518D01*
X30490Y06529D01*
X30502Y06541D01*
X30514Y06565D01*
X30514Y06625D01*
X30502Y06648D01*
X30490Y06660D01*
X30264Y06303D02*
X30264Y06351D01*
X30276Y06375D01*
X30288Y06387D01*
X30324Y06410D01*
X30371Y06422D01*
X30467Y06422D01*
X30490Y06410D01*
X30502Y06399D01*
X30514Y06375D01*
X30514Y06327D01*
X30502Y06303D01*
X30490Y06291D01*
X30467Y06280D01*
X30407Y06280D01*
X30383Y06291D01*
X30371Y06303D01*
X30359Y06327D01*
X30359Y06375D01*
X30371Y06399D01*
X30383Y06410D01*
X30407Y06422D01*
X29333Y02524D02*
X29214Y02607D01*
X29333Y02666D02*
X29083Y02666D01*
X29083Y02571D01*
X29095Y02547D01*
X29107Y02536D01*
X29131Y02524D01*
X29167Y02524D01*
X29190Y02536D01*
X29202Y02547D01*
X29214Y02571D01*
X29214Y02666D01*
X29083Y02297D02*
X29083Y02416D01*
X29202Y02428D01*
X29190Y02416D01*
X29178Y02393D01*
X29178Y02333D01*
X29190Y02309D01*
X29202Y02297D01*
X29226Y02286D01*
X29286Y02286D01*
X29309Y02297D01*
X29321Y02309D01*
X29333Y02333D01*
X29333Y02393D01*
X29321Y02416D01*
X29309Y02428D01*
X29107Y02190D02*
X29095Y02178D01*
X29083Y02155D01*
X29083Y02095D01*
X29095Y02071D01*
X29107Y02059D01*
X29131Y02048D01*
X29155Y02048D01*
X29190Y02059D01*
X29333Y02202D01*
X29333Y02048D01*
X31007Y03606D02*
X30888Y03689D01*
X31007Y03748D02*
X30757Y03748D01*
X30757Y03653D01*
X30769Y03629D01*
X30781Y03618D01*
X30805Y03606D01*
X30841Y03606D01*
X30864Y03618D01*
X30876Y03629D01*
X30888Y03653D01*
X30888Y03748D01*
X30757Y03379D02*
X30757Y03498D01*
X30876Y03510D01*
X30864Y03498D01*
X30852Y03475D01*
X30852Y03415D01*
X30864Y03391D01*
X30876Y03379D01*
X30900Y03368D01*
X30960Y03368D01*
X30983Y03379D01*
X30995Y03391D01*
X31007Y03415D01*
X31007Y03475D01*
X30995Y03498D01*
X30983Y03510D01*
X31007Y03130D02*
X31007Y03272D01*
X31007Y03201D02*
X30757Y03201D01*
X30793Y03225D01*
X30817Y03249D01*
X30829Y03272D01*
X31991Y03705D02*
X31872Y03788D01*
X31991Y03847D02*
X31741Y03847D01*
X31741Y03752D01*
X31753Y03728D01*
X31765Y03717D01*
X31789Y03705D01*
X31825Y03705D01*
X31848Y03717D01*
X31860Y03728D01*
X31872Y03752D01*
X31872Y03847D01*
X31741Y03478D02*
X31741Y03597D01*
X31860Y03609D01*
X31848Y03597D01*
X31836Y03574D01*
X31836Y03514D01*
X31848Y03490D01*
X31860Y03478D01*
X31884Y03467D01*
X31944Y03467D01*
X31967Y03478D01*
X31979Y03490D01*
X31991Y03514D01*
X31991Y03574D01*
X31979Y03597D01*
X31967Y03609D01*
X31741Y03312D02*
X31741Y03288D01*
X31753Y03264D01*
X31765Y03252D01*
X31789Y03240D01*
X31836Y03229D01*
X31896Y03229D01*
X31944Y03240D01*
X31967Y03252D01*
X31979Y03264D01*
X31991Y03288D01*
X31991Y03312D01*
X31979Y03336D01*
X31967Y03348D01*
X31944Y03359D01*
X31896Y03371D01*
X31836Y03371D01*
X31789Y03359D01*
X31765Y03348D01*
X31753Y03336D01*
X31741Y03312D01*
X32975Y03705D02*
X32856Y03788D01*
X32975Y03847D02*
X32725Y03847D01*
X32725Y03752D01*
X32737Y03728D01*
X32749Y03717D01*
X32773Y03705D01*
X32809Y03705D01*
X32832Y03717D01*
X32844Y03728D01*
X32856Y03752D01*
X32856Y03847D01*
X32809Y03490D02*
X32975Y03490D01*
X32713Y03550D02*
X32892Y03609D01*
X32892Y03455D01*
X32975Y03348D02*
X32975Y03300D01*
X32963Y03276D01*
X32951Y03264D01*
X32916Y03240D01*
X32868Y03229D01*
X32773Y03229D01*
X32749Y03240D01*
X32737Y03252D01*
X32725Y03276D01*
X32725Y03324D01*
X32737Y03348D01*
X32749Y03359D01*
X32773Y03371D01*
X32832Y03371D01*
X32856Y03359D01*
X32868Y03348D01*
X32880Y03324D01*
X32880Y03276D01*
X32868Y03252D01*
X32856Y03240D01*
X32832Y03229D01*
X34353Y03311D02*
X34234Y03394D01*
X34353Y03453D02*
X34103Y03453D01*
X34103Y03358D01*
X34115Y03334D01*
X34127Y03323D01*
X34151Y03311D01*
X34187Y03311D01*
X34210Y03323D01*
X34222Y03334D01*
X34234Y03358D01*
X34234Y03453D01*
X34187Y03096D02*
X34353Y03096D01*
X34091Y03156D02*
X34270Y03215D01*
X34270Y03061D01*
X34210Y02930D02*
X34198Y02954D01*
X34187Y02965D01*
X34163Y02977D01*
X34151Y02977D01*
X34127Y02965D01*
X34115Y02954D01*
X34103Y02930D01*
X34103Y02882D01*
X34115Y02858D01*
X34127Y02846D01*
X34151Y02835D01*
X34163Y02835D01*
X34187Y02846D01*
X34198Y02858D01*
X34210Y02882D01*
X34210Y02930D01*
X34222Y02954D01*
X34234Y02965D01*
X34258Y02977D01*
X34306Y02977D01*
X34329Y02965D01*
X34341Y02954D01*
X34353Y02930D01*
X34353Y02882D01*
X34341Y02858D01*
X34329Y02846D01*
X34306Y02835D01*
X34258Y02835D01*
X34234Y02846D01*
X34222Y02858D01*
X34210Y02882D01*
X04492Y05805D02*
X04575Y05924D01*
X04634Y05805D02*
X04634Y06055D01*
X04539Y06055D01*
X04515Y06043D01*
X04504Y06031D01*
X04492Y06007D01*
X04492Y05971D01*
X04504Y05948D01*
X04515Y05936D01*
X04539Y05924D01*
X04634Y05924D01*
X04277Y05971D02*
X04277Y05805D01*
X04337Y06067D02*
X04396Y05888D01*
X04242Y05888D01*
X04039Y06055D02*
X04087Y06055D01*
X04111Y06043D01*
X04123Y06031D01*
X04146Y05995D01*
X04158Y05948D01*
X04158Y05852D01*
X04146Y05829D01*
X04135Y05817D01*
X04111Y05805D01*
X04063Y05805D01*
X04039Y05817D01*
X04027Y05829D01*
X04016Y05852D01*
X04016Y05912D01*
X04027Y05936D01*
X04039Y05948D01*
X04063Y05960D01*
X04111Y05960D01*
X04135Y05948D01*
X04146Y05936D01*
X04158Y05912D01*
X08232Y01179D02*
X08315Y01298D01*
X08374Y01179D02*
X08374Y01429D01*
X08279Y01429D01*
X08255Y01417D01*
X08244Y01405D01*
X08232Y01381D01*
X08232Y01345D01*
X08244Y01322D01*
X08255Y01310D01*
X08279Y01298D01*
X08374Y01298D01*
X08148Y01429D02*
X07994Y01429D01*
X08077Y01334D01*
X08041Y01334D01*
X08017Y01322D01*
X08005Y01310D01*
X07994Y01286D01*
X07994Y01226D01*
X08005Y01203D01*
X08017Y01191D01*
X08041Y01179D01*
X08113Y01179D01*
X08136Y01191D01*
X08148Y01203D01*
X07779Y01345D02*
X07779Y01179D01*
X07839Y01441D02*
X07898Y01262D01*
X07744Y01262D01*
X12464Y00982D02*
X12547Y01101D01*
X12606Y00982D02*
X12606Y01232D01*
X12511Y01232D01*
X12487Y01220D01*
X12476Y01208D01*
X12464Y01184D01*
X12464Y01148D01*
X12476Y01125D01*
X12487Y01113D01*
X12511Y01101D01*
X12606Y01101D01*
X12380Y01232D02*
X12226Y01232D01*
X12309Y01137D01*
X12273Y01137D01*
X12249Y01125D01*
X12237Y01113D01*
X12226Y01089D01*
X12226Y01029D01*
X12237Y01006D01*
X12249Y00994D01*
X12273Y00982D01*
X12345Y00982D01*
X12368Y00994D01*
X12380Y01006D01*
X12130Y01208D02*
X12118Y01220D01*
X12095Y01232D01*
X12035Y01232D01*
X12011Y01220D01*
X11999Y01208D01*
X11988Y01184D01*
X11988Y01160D01*
X11999Y01125D01*
X12142Y00982D01*
X11988Y00982D01*
X33861Y08310D02*
X33742Y08393D01*
X33861Y08452D02*
X33611Y08452D01*
X33611Y08357D01*
X33623Y08333D01*
X33635Y08322D01*
X33659Y08310D01*
X33695Y08310D01*
X33718Y08322D01*
X33730Y08333D01*
X33742Y08357D01*
X33742Y08452D01*
X33635Y08214D02*
X33623Y08202D01*
X33611Y08179D01*
X33611Y08119D01*
X33623Y08095D01*
X33635Y08083D01*
X33659Y08072D01*
X33683Y08072D01*
X33718Y08083D01*
X33861Y08226D01*
X33861Y08072D01*
X32164Y08921D02*
X32176Y08933D01*
X32188Y08968D01*
X32188Y08992D01*
X32176Y09028D01*
X32152Y09052D01*
X32129Y09063D01*
X32081Y09075D01*
X32045Y09075D01*
X31998Y09063D01*
X31974Y09052D01*
X31950Y09028D01*
X31938Y08992D01*
X31938Y08968D01*
X31950Y08933D01*
X31962Y08921D01*
X32022Y08706D02*
X32188Y08706D01*
X31926Y08766D02*
X32105Y08825D01*
X32105Y08671D01*
X31938Y08468D02*
X31938Y08516D01*
X31950Y08540D01*
X31962Y08552D01*
X31998Y08575D01*
X32045Y08587D01*
X32141Y08587D01*
X32164Y08575D01*
X32176Y08564D01*
X32188Y08540D01*
X32188Y08492D01*
X32176Y08468D01*
X32164Y08456D01*
X32141Y08445D01*
X32081Y08445D01*
X32057Y08456D01*
X32045Y08468D01*
X32033Y08492D01*
X32033Y08540D01*
X32045Y08564D01*
X32057Y08575D01*
X32081Y08587D01*
X13941Y02187D02*
X13953Y02175D01*
X13988Y02163D01*
X14012Y02163D01*
X14048Y02175D01*
X14072Y02199D01*
X14083Y02222D01*
X14095Y02270D01*
X14095Y02306D01*
X14083Y02353D01*
X14072Y02377D01*
X14048Y02401D01*
X14012Y02413D01*
X13988Y02413D01*
X13953Y02401D01*
X13941Y02389D01*
X13726Y02329D02*
X13726Y02163D01*
X13786Y02425D02*
X13845Y02246D01*
X13691Y02246D01*
X13476Y02413D02*
X13595Y02413D01*
X13607Y02294D01*
X13595Y02306D01*
X13572Y02318D01*
X13512Y02318D01*
X13488Y02306D01*
X13476Y02294D01*
X13465Y02270D01*
X13465Y02210D01*
X13476Y02187D01*
X13488Y02175D01*
X13512Y02163D01*
X13572Y02163D01*
X13595Y02175D01*
X13607Y02187D01*
X03508Y07380D02*
X03591Y07499D01*
X03650Y07380D02*
X03650Y07630D01*
X03555Y07630D01*
X03531Y07618D01*
X03520Y07606D01*
X03508Y07582D01*
X03508Y07546D01*
X03520Y07523D01*
X03531Y07511D01*
X03555Y07499D01*
X03650Y07499D01*
X03424Y07630D02*
X03270Y07630D01*
X03353Y07535D01*
X03317Y07535D01*
X03293Y07523D01*
X03281Y07511D01*
X03270Y07487D01*
X03270Y07427D01*
X03281Y07404D01*
X03293Y07392D01*
X03317Y07380D01*
X03389Y07380D01*
X03412Y07392D01*
X03424Y07404D01*
X03151Y07380D02*
X03103Y07380D01*
X03079Y07392D01*
X03067Y07404D01*
X03043Y07439D01*
X03032Y07487D01*
X03032Y07582D01*
X03043Y07606D01*
X03055Y07618D01*
X03079Y07630D01*
X03127Y07630D01*
X03151Y07618D01*
X03162Y07606D01*
X03174Y07582D01*
X03174Y07523D01*
X03162Y07499D01*
X03151Y07487D01*
X03127Y07475D01*
X03079Y07475D01*
X03055Y07487D01*
X03043Y07499D01*
X03032Y07523D01*
G54D11*
X03162Y01066D02*
X03076Y01037D01*
X02933Y01037D01*
X02876Y01066D01*
X02847Y01094D01*
X02819Y01151D01*
X02819Y01209D01*
X02847Y01266D01*
X02876Y01294D01*
X02933Y01323D01*
X03047Y01351D01*
X03105Y01380D01*
X03133Y01409D01*
X03162Y01466D01*
X03162Y01523D01*
X03133Y01580D01*
X03105Y01609D01*
X03047Y01637D01*
X02905Y01637D01*
X02819Y01609D01*
X02619Y01637D02*
X02476Y01037D01*
X02362Y01466D01*
X02248Y01037D01*
X02105Y01637D01*
X01619Y01437D02*
X01619Y01037D01*
X01762Y01666D02*
X01905Y01237D01*
X01533Y01237D01*
X04377Y04742D02*
X03777Y04742D01*
X04205Y04542D01*
X03777Y04342D01*
X04377Y04342D01*
X04063Y04056D02*
X04063Y03856D01*
X04377Y03770D02*
X04377Y04056D01*
X03777Y04056D01*
X03777Y03770D01*
X04377Y03513D02*
X03777Y03513D01*
X04377Y03170D01*
X03777Y03170D01*
X03777Y02884D02*
X04263Y02884D01*
X04320Y02856D01*
X04348Y02827D01*
X04377Y02770D01*
X04377Y02656D01*
X04348Y02598D01*
X04320Y02570D01*
X04263Y02541D01*
X03777Y02541D01*
X27773Y13290D02*
X27802Y13204D01*
X27802Y13061D01*
X27773Y13004D01*
X27745Y12975D01*
X27688Y12947D01*
X27630Y12947D01*
X27573Y12975D01*
X27545Y13004D01*
X27516Y13061D01*
X27488Y13175D01*
X27459Y13233D01*
X27430Y13261D01*
X27373Y13290D01*
X27316Y13290D01*
X27259Y13261D01*
X27230Y13233D01*
X27202Y13175D01*
X27202Y13033D01*
X27230Y12947D01*
X27202Y12747D02*
X27802Y12604D01*
X27373Y12490D01*
X27802Y12376D01*
X27202Y12233D01*
X27802Y11690D02*
X27802Y12033D01*
X27802Y11861D02*
X27202Y11861D01*
X27288Y11918D01*
X27345Y11976D01*
X27373Y12033D01*
X27202Y11319D02*
X27202Y11262D01*
X27230Y11205D01*
X27259Y11176D01*
X27316Y11147D01*
X27430Y11119D01*
X27573Y11119D01*
X27688Y11147D01*
X27745Y11176D01*
X27773Y11205D01*
X27802Y11262D01*
X27802Y11319D01*
X27773Y11376D01*
X27745Y11405D01*
X27688Y11433D01*
X27573Y11462D01*
X27430Y11462D01*
X27316Y11433D01*
X27259Y11405D01*
X27230Y11376D01*
X27202Y11319D01*
X28088Y12086D02*
X28574Y12086D01*
X28631Y12058D01*
X28659Y12029D01*
X28688Y11972D01*
X28688Y11858D01*
X28659Y11800D01*
X28631Y11772D01*
X28574Y11743D01*
X28088Y11743D01*
X28688Y11457D02*
X28088Y11457D01*
X28088Y11229D01*
X28116Y11171D01*
X28145Y11143D01*
X28202Y11114D01*
X28288Y11114D01*
X28345Y11143D01*
X28374Y11171D01*
X28402Y11229D01*
X28402Y11457D01*
X38206Y08379D02*
X38235Y08293D01*
X38235Y08150D01*
X38206Y08093D01*
X38178Y08064D01*
X38121Y08036D01*
X38063Y08036D01*
X38006Y08064D01*
X37978Y08093D01*
X37949Y08150D01*
X37921Y08264D01*
X37892Y08322D01*
X37863Y08350D01*
X37806Y08379D01*
X37749Y08379D01*
X37692Y08350D01*
X37663Y08322D01*
X37635Y08264D01*
X37635Y08122D01*
X37663Y08036D01*
X37635Y07836D02*
X38235Y07693D01*
X37806Y07579D01*
X38235Y07465D01*
X37635Y07322D01*
X37635Y07150D02*
X37635Y06750D01*
X38235Y07007D01*
X39121Y08413D02*
X38521Y08413D01*
X38521Y08270D01*
X38549Y08185D01*
X38607Y08127D01*
X38664Y08099D01*
X38778Y08070D01*
X38864Y08070D01*
X38978Y08099D01*
X39035Y08127D01*
X39092Y08185D01*
X39121Y08270D01*
X39121Y08413D01*
X38521Y07699D02*
X38521Y07585D01*
X38549Y07527D01*
X38607Y07470D01*
X38721Y07442D01*
X38921Y07442D01*
X39035Y07470D01*
X39092Y07527D01*
X39121Y07585D01*
X39121Y07699D01*
X39092Y07756D01*
X39035Y07813D01*
X38921Y07842D01*
X38721Y07842D01*
X38607Y07813D01*
X38549Y07756D01*
X38521Y07699D01*
X38521Y07241D02*
X39121Y07098D01*
X38692Y06984D01*
X39121Y06870D01*
X38521Y06727D01*
X39121Y06498D02*
X38521Y06498D01*
X39121Y06155D01*
X38521Y06155D01*
X34072Y16844D02*
X34101Y16758D01*
X34101Y16615D01*
X34072Y16558D01*
X34044Y16529D01*
X33987Y16501D01*
X33929Y16501D01*
X33872Y16529D01*
X33844Y16558D01*
X33815Y16615D01*
X33787Y16729D01*
X33758Y16787D01*
X33729Y16815D01*
X33672Y16844D01*
X33615Y16844D01*
X33558Y16815D01*
X33529Y16787D01*
X33501Y16729D01*
X33501Y16587D01*
X33529Y16501D01*
X33501Y16301D02*
X34101Y16158D01*
X33672Y16044D01*
X34101Y15930D01*
X33501Y15787D01*
X33758Y15472D02*
X33729Y15530D01*
X33701Y15558D01*
X33644Y15587D01*
X33615Y15587D01*
X33558Y15558D01*
X33529Y15530D01*
X33501Y15472D01*
X33501Y15358D01*
X33529Y15301D01*
X33558Y15272D01*
X33615Y15244D01*
X33644Y15244D01*
X33701Y15272D01*
X33729Y15301D01*
X33758Y15358D01*
X33758Y15472D01*
X33787Y15530D01*
X33815Y15558D01*
X33872Y15587D01*
X33987Y15587D01*
X34044Y15558D01*
X34072Y15530D01*
X34101Y15472D01*
X34101Y15358D01*
X34072Y15301D01*
X34044Y15272D01*
X33987Y15244D01*
X33872Y15244D01*
X33815Y15272D01*
X33787Y15301D01*
X33758Y15358D01*
X33216Y16713D02*
X33216Y16999D01*
X32616Y16999D01*
X32902Y16513D02*
X32902Y16313D01*
X33216Y16227D02*
X33216Y16513D01*
X32616Y16513D01*
X32616Y16227D01*
X32902Y15770D02*
X32902Y15970D01*
X33216Y15970D02*
X32616Y15970D01*
X32616Y15684D01*
X32616Y15542D02*
X32616Y15199D01*
X33216Y15370D02*
X32616Y15370D01*
X37222Y06411D02*
X37251Y06325D01*
X37251Y06182D01*
X37222Y06125D01*
X37194Y06096D01*
X37137Y06068D01*
X37079Y06068D01*
X37022Y06096D01*
X36994Y06125D01*
X36965Y06182D01*
X36937Y06296D01*
X36908Y06354D01*
X36879Y06382D01*
X36822Y06411D01*
X36765Y06411D01*
X36708Y06382D01*
X36679Y06354D01*
X36651Y06296D01*
X36651Y06154D01*
X36679Y06068D01*
X36651Y05868D02*
X37251Y05725D01*
X36822Y05611D01*
X37251Y05497D01*
X36651Y05354D01*
X37251Y05097D02*
X37251Y04982D01*
X37222Y04925D01*
X37194Y04897D01*
X37108Y04839D01*
X36994Y04811D01*
X36765Y04811D01*
X36708Y04839D01*
X36679Y04868D01*
X36651Y04925D01*
X36651Y05039D01*
X36679Y05097D01*
X36708Y05125D01*
X36765Y05154D01*
X36908Y05154D01*
X36965Y05125D01*
X36994Y05097D01*
X37022Y05039D01*
X37022Y04925D01*
X36994Y04868D01*
X36965Y04839D01*
X36908Y04811D01*
X36365Y06804D02*
X36079Y07004D01*
X36365Y07147D02*
X35765Y07147D01*
X35765Y06919D01*
X35793Y06861D01*
X35822Y06833D01*
X35879Y06804D01*
X35965Y06804D01*
X36022Y06833D01*
X36051Y06861D01*
X36079Y06919D01*
X36079Y07147D01*
X36365Y06547D02*
X35765Y06547D01*
X35793Y05947D02*
X35765Y06004D01*
X35765Y06090D01*
X35793Y06175D01*
X35851Y06233D01*
X35908Y06261D01*
X36022Y06290D01*
X36108Y06290D01*
X36222Y06261D01*
X36279Y06233D01*
X36336Y06175D01*
X36365Y06090D01*
X36365Y06033D01*
X36336Y05947D01*
X36308Y05918D01*
X36108Y05918D01*
X36108Y06033D01*
X36365Y05661D02*
X35765Y05661D01*
X36051Y05661D02*
X36051Y05318D01*
X36365Y05318D02*
X35765Y05318D01*
X35765Y05118D02*
X35765Y04775D01*
X36365Y04946D02*
X35765Y04946D01*
X04348Y15269D02*
X04377Y15183D01*
X04377Y15040D01*
X04348Y14983D01*
X04320Y14954D01*
X04263Y14926D01*
X04205Y14926D01*
X04148Y14954D01*
X04120Y14983D01*
X04091Y15040D01*
X04063Y15154D01*
X04034Y15212D01*
X04005Y15240D01*
X03948Y15269D01*
X03891Y15269D01*
X03834Y15240D01*
X03805Y15212D01*
X03777Y15154D01*
X03777Y15012D01*
X03805Y14926D01*
X03777Y14726D02*
X04377Y14583D01*
X03948Y14469D01*
X04377Y14355D01*
X03777Y14212D01*
X03777Y13697D02*
X03777Y13983D01*
X04063Y14012D01*
X04034Y13983D01*
X04005Y13926D01*
X04005Y13783D01*
X04034Y13726D01*
X04063Y13697D01*
X04120Y13669D01*
X04263Y13669D01*
X04320Y13697D01*
X04348Y13726D01*
X04377Y13783D01*
X04377Y13926D01*
X04348Y13983D01*
X04320Y14012D01*
X04348Y17797D02*
X04377Y17711D01*
X04377Y17568D01*
X04348Y17511D01*
X04320Y17482D01*
X04263Y17454D01*
X04205Y17454D01*
X04148Y17482D01*
X04120Y17511D01*
X04091Y17568D01*
X04063Y17682D01*
X04034Y17740D01*
X04005Y17768D01*
X03948Y17797D01*
X03891Y17797D01*
X03834Y17768D01*
X03805Y17740D01*
X03777Y17682D01*
X03777Y17540D01*
X03805Y17454D01*
X04063Y17197D02*
X04063Y16997D01*
X04377Y16911D02*
X04377Y17197D01*
X03777Y17197D01*
X03777Y16911D01*
X03777Y16740D02*
X03777Y16397D01*
X04377Y16568D02*
X03777Y16568D01*
X35383Y00446D02*
X35383Y01046D01*
X35155Y01046D01*
X35097Y01018D01*
X35069Y00989D01*
X35040Y00932D01*
X35040Y00846D01*
X35069Y00789D01*
X35097Y00760D01*
X35155Y00732D01*
X35383Y00732D01*
X34697Y00789D02*
X34755Y00818D01*
X34783Y00846D01*
X34812Y00903D01*
X34812Y00932D01*
X34783Y00989D01*
X34755Y01018D01*
X34697Y01046D01*
X34583Y01046D01*
X34526Y01018D01*
X34497Y00989D01*
X34469Y00932D01*
X34469Y00903D01*
X34497Y00846D01*
X34526Y00818D01*
X34583Y00789D01*
X34697Y00789D01*
X34755Y00760D01*
X34783Y00732D01*
X34812Y00675D01*
X34812Y00560D01*
X34783Y00503D01*
X34755Y00475D01*
X34697Y00446D01*
X34583Y00446D01*
X34526Y00475D01*
X34497Y00503D01*
X34469Y00560D01*
X34469Y00675D01*
X34497Y00732D01*
X34526Y00760D01*
X34583Y00789D01*
X28554Y01834D02*
X28554Y01406D01*
X28582Y01320D01*
X28639Y01263D01*
X28725Y01234D01*
X28782Y01234D01*
X28354Y01834D02*
X28011Y01834D01*
X28182Y01234D02*
X28182Y01834D01*
X27840Y01406D02*
X27554Y01406D01*
X27897Y01234D02*
X27697Y01834D01*
X27497Y01234D01*
X26983Y01806D02*
X27040Y01834D01*
X27126Y01834D01*
X27211Y01806D01*
X27269Y01748D01*
X27297Y01691D01*
X27326Y01577D01*
X27326Y01491D01*
X27297Y01377D01*
X27269Y01320D01*
X27211Y01263D01*
X27126Y01234D01*
X27069Y01234D01*
X26983Y01263D01*
X26954Y01291D01*
X26954Y01491D01*
X27069Y01491D01*
G54D13*
X07617Y01191D02*
X07582Y01179D01*
X07522Y01179D01*
X07498Y01191D01*
X07486Y01203D01*
X07475Y01226D01*
X07475Y01250D01*
X07486Y01274D01*
X07498Y01286D01*
X07522Y01298D01*
X07570Y01310D01*
X07594Y01322D01*
X07605Y01334D01*
X07617Y01357D01*
X07617Y01381D01*
X07605Y01405D01*
X07594Y01417D01*
X07570Y01429D01*
X07510Y01429D01*
X07475Y01417D01*
X07391Y01429D02*
X07332Y01179D01*
X07284Y01357D01*
X07237Y01179D01*
X07177Y01429D01*
X06951Y01179D02*
X07093Y01179D01*
X07022Y01179D02*
X07022Y01429D01*
X07046Y01393D01*
X07070Y01369D01*
X07093Y01357D01*
X08146Y01134D02*
X08063Y00884D01*
X07980Y01134D01*
X07849Y01134D02*
X07801Y01134D01*
X07777Y01122D01*
X07754Y01098D01*
X07742Y01050D01*
X07742Y00967D01*
X07754Y00920D01*
X07777Y00896D01*
X07801Y00884D01*
X07849Y00884D01*
X07873Y00896D01*
X07896Y00920D01*
X07908Y00967D01*
X07908Y01050D01*
X07896Y01098D01*
X07873Y01122D01*
X07849Y01134D01*
X07515Y00884D02*
X07634Y00884D01*
X07634Y01134D01*
X07492Y00860D02*
X07302Y00860D01*
X07242Y01134D02*
X07242Y00931D01*
X07231Y00908D01*
X07219Y00896D01*
X07195Y00884D01*
X07147Y00884D01*
X07123Y00896D01*
X07112Y00908D01*
X07100Y00931D01*
X07100Y01134D01*
X06980Y00884D02*
X06980Y01134D01*
X06885Y01134D01*
X06861Y01122D01*
X06850Y01110D01*
X06838Y01086D01*
X06838Y01050D01*
X06850Y01027D01*
X06861Y01015D01*
X06885Y01003D01*
X06980Y01003D01*
X10865Y00797D02*
X10830Y00785D01*
X10770Y00785D01*
X10746Y00797D01*
X10734Y00809D01*
X10723Y00832D01*
X10723Y00856D01*
X10734Y00880D01*
X10746Y00892D01*
X10770Y00904D01*
X10818Y00916D01*
X10842Y00928D01*
X10853Y00940D01*
X10865Y00963D01*
X10865Y00987D01*
X10853Y01011D01*
X10842Y01023D01*
X10818Y01035D01*
X10758Y01035D01*
X10723Y01023D01*
X10639Y01035D02*
X10580Y00785D01*
X10532Y00963D01*
X10485Y00785D01*
X10425Y01035D01*
X10341Y01011D02*
X10329Y01023D01*
X10306Y01035D01*
X10246Y01035D01*
X10222Y01023D01*
X10210Y01011D01*
X10199Y00987D01*
X10199Y00963D01*
X10210Y00928D01*
X10353Y00785D01*
X10199Y00785D01*
X11394Y01429D02*
X11311Y01179D01*
X11228Y01429D01*
X11097Y01429D02*
X11049Y01429D01*
X11025Y01417D01*
X11002Y01393D01*
X10990Y01345D01*
X10990Y01262D01*
X11002Y01215D01*
X11025Y01191D01*
X11049Y01179D01*
X11097Y01179D01*
X11121Y01191D01*
X11144Y01215D01*
X11156Y01262D01*
X11156Y01345D01*
X11144Y01393D01*
X11121Y01417D01*
X11097Y01429D01*
X10763Y01179D02*
X10882Y01179D01*
X10882Y01429D01*
X10740Y01155D02*
X10550Y01155D01*
X10490Y01179D02*
X10490Y01429D01*
X10431Y01429D01*
X10395Y01417D01*
X10371Y01393D01*
X10360Y01369D01*
X10348Y01322D01*
X10348Y01286D01*
X10360Y01238D01*
X10371Y01215D01*
X10395Y01191D01*
X10431Y01179D01*
X10490Y01179D01*
X10240Y01179D02*
X10240Y01429D01*
X10098Y01179D01*
X10098Y01429D01*
G54D11*
X24313Y01952D02*
X24227Y01923D01*
X24084Y01923D01*
X24027Y01952D01*
X23998Y01980D01*
X23970Y02037D01*
X23970Y02095D01*
X23998Y02152D01*
X24027Y02180D01*
X24084Y02209D01*
X24198Y02237D01*
X24256Y02266D01*
X24284Y02295D01*
X24313Y02352D01*
X24313Y02409D01*
X24284Y02466D01*
X24256Y02495D01*
X24198Y02523D01*
X24056Y02523D01*
X23970Y02495D01*
X23770Y02523D02*
X23627Y01923D01*
X23513Y02352D01*
X23399Y01923D01*
X23256Y02523D01*
X22713Y01923D02*
X23056Y01923D01*
X22884Y01923D02*
X22884Y02523D01*
X22941Y02437D01*
X22999Y02380D01*
X23056Y02352D01*
X22142Y01923D02*
X22485Y01923D01*
X22313Y01923D02*
X22313Y02523D01*
X22370Y02437D01*
X22428Y02380D01*
X22485Y02352D01*
M02*
