G04 (created by PCBNEW-RS274X (2012-jan-04)-testing) date Wed 23 May 2012 23:15:24 BST*
G01*
G70*
G90*
%MOIN*%
G04 Gerber Fmt 3.4, Leading zero omitted, Abs format*
%FSLAX34Y34*%
G04 APERTURE LIST*
%ADD10C,0.006000*%
%ADD11C,0.015000*%
%ADD12R,0.059000X0.048000*%
%ADD13R,0.075000X0.055000*%
%ADD14R,0.055000X0.075000*%
%ADD15C,0.059400*%
%ADD16C,0.080000*%
%ADD17C,0.090000*%
%ADD18R,0.090000X0.090000*%
%ADD19R,0.075000X0.146000*%
%ADD20R,0.146000X0.075000*%
%ADD21R,0.064300X0.080000*%
%ADD22O,0.059400X0.037700*%
%ADD23C,0.060000*%
%ADD24R,0.051500X0.086900*%
%ADD25C,0.049500*%
%ADD26C,0.055400*%
%ADD27R,0.059400X0.051500*%
%ADD28R,0.047600X0.079100*%
G04 APERTURE END LIST*
G54D10*
G54D11*
X39369Y16733D02*
X39370Y16733D01*
X36417Y19685D02*
X39369Y16733D01*
X00984Y19685D02*
X00000Y18701D01*
X36417Y19685D02*
X00984Y19685D01*
X36417Y00000D02*
X39370Y02953D01*
X00000Y00984D02*
X00000Y00985D01*
X00984Y00000D02*
X00000Y00984D01*
X36417Y00000D02*
X00984Y00000D01*
X00000Y18701D02*
X00000Y00985D01*
X39370Y16733D02*
X39370Y02953D01*
G54D12*
X33937Y09843D03*
X32993Y09469D03*
X32993Y10217D03*
G54D13*
X29528Y07204D03*
X29528Y07954D03*
X30413Y07954D03*
X30413Y07204D03*
X29880Y02338D03*
X29880Y01588D03*
X30880Y02338D03*
X30880Y01588D03*
X31880Y02338D03*
X31880Y01588D03*
X32880Y02338D03*
X32880Y01588D03*
X33880Y02338D03*
X33880Y01588D03*
G54D14*
X03956Y05315D03*
X04706Y05315D03*
G54D13*
X08858Y00413D03*
X08858Y01163D03*
G54D14*
X11731Y00493D03*
X12481Y00493D03*
G54D13*
X33071Y07893D03*
X33071Y08643D03*
X32087Y10218D03*
X32087Y09468D03*
G54D14*
X13405Y01575D03*
X14155Y01575D03*
G54D15*
X25589Y09154D03*
G54D16*
X33858Y09154D03*
G54D17*
X35933Y15552D03*
X34933Y15552D03*
G54D18*
X07244Y02067D03*
G54D17*
X08244Y02067D03*
X09244Y02067D03*
X10244Y02067D03*
X11244Y02067D03*
X12244Y02067D03*
G54D16*
X21524Y19292D03*
X25461Y19292D03*
X10366Y19292D03*
X06429Y19292D03*
G54D14*
X02972Y06890D03*
X03722Y06890D03*
G54D19*
X03149Y02598D03*
X03149Y05276D03*
X01575Y05276D03*
X01575Y02598D03*
G54D20*
X28189Y09056D03*
X30867Y09056D03*
X30867Y10630D03*
X28189Y10630D03*
X36063Y09056D03*
X38741Y09056D03*
X38741Y10630D03*
X36063Y10630D03*
X32126Y12993D03*
X34804Y12993D03*
X34804Y14567D03*
X32126Y14567D03*
X32126Y05119D03*
X34804Y05119D03*
X34804Y06693D03*
X32126Y06693D03*
G54D19*
X01575Y17087D03*
X01575Y14409D03*
X03149Y14409D03*
X03149Y17087D03*
G54D21*
X26880Y00463D03*
X27880Y00463D03*
X28880Y00463D03*
X29880Y00463D03*
X30880Y00463D03*
X31880Y00463D03*
X32880Y00463D03*
X33880Y00463D03*
G54D22*
X15453Y03405D03*
X15453Y03091D03*
G54D23*
X00886Y03839D03*
X00886Y02461D03*
X00886Y17225D03*
X00886Y15847D03*
G54D24*
X06811Y00394D03*
X08149Y00394D03*
G54D25*
X07480Y00394D03*
G54D24*
X09764Y00394D03*
X11102Y00394D03*
G54D25*
X10433Y00394D03*
X37130Y02213D03*
G54D26*
X22637Y00591D03*
X23819Y00591D03*
G54D27*
X24665Y00158D03*
X24665Y01024D03*
X21791Y01024D03*
X21791Y00158D03*
G54D28*
X24114Y01280D03*
X22933Y01280D03*
X22342Y01280D03*
M02*
