M48
;DRILL file {Pcbnew (2012-jan-04)-testing} date Wed 23 May 2012 23:20:40 BST
;FORMAT={-:-/ absolute / metric / decimal}
FMAT,2
METRIC,TZ
T1C0.351
T2C0.500
T3C0.749
T4C0.800
T5C0.899
T6C1.001
T7C1.016
T8C1.524
%
G90
G05
M71
T1
X39.251Y8.649
X39.251Y7.851
T2
X1.501Y14.501
X1.999Y23.002
X3.251Y29.251
X6.500Y27.752
X7.000Y21.001
X9.749Y25.751
X10.000Y35.751
X10.749Y3.251
X11.001Y8.001
X11.250Y22.001
X11.999Y48.501
X13.500Y35.502
X13.749Y14.252
X15.250Y23.752
X15.499Y47.252
X15.499Y12.751
X15.751Y9.751
X16.751Y38.750
X17.000Y12.502
X17.249Y2.502
X17.501Y14.000
X17.750Y11.001
X18.750Y36.751
X19.500Y38.001
X19.751Y11.001
X20.251Y33.002
X20.749Y27.752
X20.749Y12.002
X22.250Y8.750
X22.751Y37.752
X22.751Y12.002
X24.249Y3.251
X24.750Y42.548
X24.750Y38.750
X24.750Y12.002
X25.001Y7.252
X25.250Y2.502
X25.751Y37.752
X25.999Y42.751
X28.001Y36.251
X28.250Y37.752
X28.250Y20.500
X28.501Y44.501
X28.501Y24.501
X28.750Y38.750
X29.251Y18.250
X29.500Y37.000
X29.751Y2.751
X30.000Y17.000
X30.251Y44.501
X30.401Y33.602
X30.401Y30.000
X30.500Y28.501
X30.500Y26.251
X31.399Y34.600
X31.501Y17.000
X31.501Y10.251
X31.750Y14.252
X32.001Y36.251
X32.001Y12.250
X32.250Y41.252
X32.250Y40.000
X32.250Y18.750
X32.499Y3.002
X33.000Y40.752
X33.000Y39.251
X33.000Y6.251
X33.251Y18.750
X33.500Y47.752
X33.500Y28.501
X33.500Y27.501
X33.500Y12.002
X33.749Y21.252
X33.749Y18.001
X34.000Y34.752
X34.750Y17.752
X35.250Y22.751
X35.499Y47.752
X35.499Y35.502
X35.999Y15.001
X36.251Y38.750
X36.500Y15.751
X36.500Y14.000
X36.751Y27.252
X36.751Y21.750
X37.249Y5.001
X37.501Y47.752
X37.501Y26.500
X39.251Y27.252
X39.500Y47.752
X39.500Y24.750
X40.000Y26.751
X40.500Y9.751
X40.500Y6.251
X41.250Y29.502
X41.501Y47.752
X42.001Y29.002
X42.751Y33.002
X42.751Y28.501
X43.251Y38.750
X43.500Y7.501
X44.249Y34.752
X44.750Y35.502
X45.750Y6.251
X46.751Y10.000
X48.250Y33.500
X48.750Y34.252
X48.750Y23.500
X48.999Y39.502
X49.500Y40.251
X49.500Y34.752
X49.751Y24.252
X50.251Y40.752
X50.251Y25.250
X50.500Y4.501
X51.001Y47.752
X51.001Y41.252
X51.250Y25.751
X51.250Y21.252
X51.250Y13.500
X51.250Y4.001
X52.001Y11.750
X52.751Y8.501
X53.251Y9.251
X53.500Y21.001
X53.500Y19.251
X54.000Y25.502
X54.000Y20.251
X54.249Y21.750
X54.249Y18.750
X54.249Y14.252
X54.249Y10.000
X54.501Y6.002
X54.501Y1.501
X54.750Y39.002
X54.750Y15.001
X55.001Y16.751
X55.001Y10.752
X55.250Y15.751
X55.250Y11.750
X57.501Y5.502
X58.250Y16.751
X58.250Y15.001
X58.250Y11.252
X58.250Y10.251
X58.501Y8.501
X58.750Y38.001
X58.750Y16.002
X58.750Y14.252
X59.251Y10.000
X60.749Y48.001
X61.201Y8.202
X62.001Y17.752
X62.001Y16.251
X62.001Y15.250
X62.499Y34.000
X62.499Y32.751
X62.499Y28.750
X62.499Y14.501
X62.751Y22.250
X62.751Y21.252
X63.000Y46.251
X63.500Y4.001
X63.751Y22.502
X63.751Y20.000
X63.751Y7.000
X64.249Y38.001
X64.249Y1.750
X65.999Y20.000
X66.251Y43.002
X66.251Y23.500
X66.751Y19.502
X67.501Y14.000
X67.749Y40.000
X68.250Y27.752
X68.250Y15.250
X68.501Y40.752
X68.501Y19.251
X68.750Y14.501
X69.751Y4.001
X70.000Y16.002
X70.815Y6.891
X71.001Y20.752
X71.001Y13.752
X71.001Y9.502
X72.751Y4.001
X73.500Y18.501
X73.500Y15.250
X74.000Y33.251
X74.249Y4.001
X75.750Y36.500
X75.895Y7.526
X77.249Y15.250
X77.249Y9.502
X78.374Y31.900
X78.435Y7.526
X78.501Y15.250
X78.999Y33.251
X79.251Y16.002
X79.499Y20.000
X80.975Y7.526
X81.001Y28.250
X81.750Y42.001
X81.750Y9.751
X82.001Y20.000
X82.250Y8.501
X82.751Y27.752
X83.251Y15.502
X83.515Y7.526
X85.001Y48.250
X85.001Y32.001
X85.001Y17.752
X85.001Y15.751
X85.750Y8.750
X86.055Y7.526
X86.251Y35.001
X87.500Y41.750
X87.749Y5.001
X88.250Y22.250
X88.750Y9.751
X88.999Y44.752
X89.251Y29.751
X89.251Y28.001
X89.251Y27.000
X90.000Y44.801
X91.750Y29.502
X92.405Y2.446
X92.751Y46.500
X92.751Y18.250
X93.000Y45.502
X93.000Y29.251
X93.500Y10.251
X94.000Y45.502
X94.501Y17.752
X94.750Y31.252
X94.750Y30.000
X94.750Y20.752
X95.501Y36.500
X96.500Y7.752
X98.250Y12.002
T3
X18.999Y1.001
X26.500Y1.001
X94.310Y5.621
T4
X16.330Y49.002
X26.330Y49.002
X54.671Y49.002
X64.671Y49.002
T5
X57.498Y1.501
X60.500Y1.501
T6
X64.996Y23.251
T7
X2.250Y43.752
X2.250Y40.251
X2.250Y9.751
X2.250Y6.251
X18.400Y5.250
X20.940Y5.250
X23.480Y5.250
X26.020Y5.250
X28.560Y5.250
X31.100Y5.250
X88.730Y39.502
X91.270Y39.502
T8
X85.999Y23.251
T0
M30
