G04 (created by PCBNEW-RS274X (2012-jan-04)-stable) date Tue 06 Mar 2012 12:01:17 GMT*
G01*
G70*
G90*
%MOIN*%
G04 Gerber Fmt 3.4, Leading zero omitted, Abs format*
%FSLAX34Y34*%
G04 APERTURE LIST*
%ADD10C,0.006000*%
%ADD11C,0.078700*%
%ADD12C,0.065000*%
%ADD13R,0.065000X0.065000*%
%ADD14C,0.236200*%
%ADD15C,0.050000*%
%ADD16C,0.010000*%
G04 APERTURE END LIST*
G54D10*
G54D11*
X62666Y-24016D03*
X66603Y-24016D03*
X51508Y-24016D03*
X47571Y-24016D03*
G54D12*
X52587Y-40965D03*
X53587Y-40965D03*
X54587Y-40965D03*
X55587Y-40965D03*
X56587Y-40965D03*
G54D13*
X48587Y-40965D03*
G54D12*
X49587Y-40965D03*
X50587Y-40965D03*
X51587Y-40965D03*
X61587Y-40965D03*
X62587Y-40965D03*
X63587Y-40965D03*
X64587Y-40965D03*
X65587Y-40965D03*
G54D13*
X57587Y-40965D03*
G54D12*
X58587Y-40965D03*
X59587Y-40965D03*
X60587Y-40965D03*
G54D14*
X69292Y-25197D03*
X69292Y-40945D03*
X44882Y-40945D03*
X44882Y-25197D03*
G54D15*
X62666Y-24016D02*
X62666Y-24343D01*
X48359Y-24804D02*
X47571Y-24016D01*
X62205Y-24804D02*
X48359Y-24804D01*
X62666Y-24343D02*
X62205Y-24804D01*
G54D10*
G36*
X70423Y-40769D02*
X69451Y-40963D01*
X69398Y-40910D01*
X69261Y-41046D01*
X69253Y-41004D01*
X69233Y-41007D01*
X69233Y-40906D01*
X68975Y-39613D01*
X68749Y-39621D01*
X68283Y-39929D01*
X67971Y-40392D01*
X67860Y-40939D01*
X67861Y-40953D01*
X67941Y-41164D01*
X69233Y-40906D01*
X69233Y-41007D01*
X67960Y-41262D01*
X67968Y-41488D01*
X68276Y-41954D01*
X68457Y-42076D01*
X66162Y-42076D01*
X66162Y-41080D01*
X66162Y-40851D01*
X66075Y-40640D01*
X65913Y-40478D01*
X65702Y-40390D01*
X65473Y-40390D01*
X65262Y-40477D01*
X65100Y-40639D01*
X65087Y-40669D01*
X65075Y-40640D01*
X64913Y-40478D01*
X64702Y-40390D01*
X64473Y-40390D01*
X64262Y-40477D01*
X64100Y-40639D01*
X64087Y-40669D01*
X64075Y-40640D01*
X63913Y-40478D01*
X63702Y-40390D01*
X63473Y-40390D01*
X63262Y-40477D01*
X63100Y-40639D01*
X63087Y-40669D01*
X63075Y-40640D01*
X62913Y-40478D01*
X62702Y-40390D01*
X62473Y-40390D01*
X62262Y-40477D01*
X62100Y-40639D01*
X62087Y-40669D01*
X62075Y-40640D01*
X61913Y-40478D01*
X61702Y-40390D01*
X61473Y-40390D01*
X61262Y-40477D01*
X61100Y-40639D01*
X61087Y-40669D01*
X61075Y-40640D01*
X60913Y-40478D01*
X60702Y-40390D01*
X60473Y-40390D01*
X60262Y-40477D01*
X60100Y-40639D01*
X60087Y-40669D01*
X60075Y-40640D01*
X59913Y-40478D01*
X59702Y-40390D01*
X59473Y-40390D01*
X59262Y-40477D01*
X59100Y-40639D01*
X59087Y-40669D01*
X59075Y-40640D01*
X58913Y-40478D01*
X58702Y-40390D01*
X58473Y-40390D01*
X58262Y-40477D01*
X58157Y-40581D01*
X58123Y-40499D01*
X58053Y-40429D01*
X57962Y-40391D01*
X57863Y-40391D01*
X57213Y-40391D01*
X57121Y-40429D01*
X57051Y-40499D01*
X57016Y-40581D01*
X56913Y-40478D01*
X56702Y-40390D01*
X56473Y-40390D01*
X56262Y-40477D01*
X56100Y-40639D01*
X56087Y-40669D01*
X56075Y-40640D01*
X55913Y-40478D01*
X55702Y-40390D01*
X55473Y-40390D01*
X55262Y-40477D01*
X55100Y-40639D01*
X55087Y-40669D01*
X55075Y-40640D01*
X54913Y-40478D01*
X54702Y-40390D01*
X54473Y-40390D01*
X54262Y-40477D01*
X54100Y-40639D01*
X54087Y-40669D01*
X54075Y-40640D01*
X53913Y-40478D01*
X53702Y-40390D01*
X53473Y-40390D01*
X53262Y-40477D01*
X53100Y-40639D01*
X53087Y-40669D01*
X53075Y-40640D01*
X52913Y-40478D01*
X52702Y-40390D01*
X52473Y-40390D01*
X52262Y-40477D01*
X52100Y-40639D01*
X52087Y-40669D01*
X52075Y-40640D01*
X51913Y-40478D01*
X51702Y-40390D01*
X51473Y-40390D01*
X51262Y-40477D01*
X51100Y-40639D01*
X51083Y-40679D01*
X51079Y-40669D01*
X50983Y-40640D01*
X50912Y-40711D01*
X50912Y-40569D01*
X50883Y-40473D01*
X50671Y-40397D01*
X50448Y-40409D01*
X50291Y-40473D01*
X50262Y-40569D01*
X50587Y-40894D01*
X50912Y-40569D01*
X50912Y-40711D01*
X50658Y-40965D01*
X50983Y-41290D01*
X51079Y-41261D01*
X51082Y-41250D01*
X51099Y-41290D01*
X51261Y-41452D01*
X51472Y-41540D01*
X51701Y-41540D01*
X51912Y-41453D01*
X52074Y-41291D01*
X52086Y-41260D01*
X52099Y-41290D01*
X52261Y-41452D01*
X52472Y-41540D01*
X52701Y-41540D01*
X52912Y-41453D01*
X53074Y-41291D01*
X53086Y-41260D01*
X53099Y-41290D01*
X53261Y-41452D01*
X53472Y-41540D01*
X53701Y-41540D01*
X53912Y-41453D01*
X54074Y-41291D01*
X54086Y-41260D01*
X54099Y-41290D01*
X54261Y-41452D01*
X54472Y-41540D01*
X54701Y-41540D01*
X54912Y-41453D01*
X55074Y-41291D01*
X55086Y-41260D01*
X55099Y-41290D01*
X55261Y-41452D01*
X55472Y-41540D01*
X55701Y-41540D01*
X55912Y-41453D01*
X56074Y-41291D01*
X56086Y-41260D01*
X56099Y-41290D01*
X56261Y-41452D01*
X56472Y-41540D01*
X56701Y-41540D01*
X56912Y-41453D01*
X57016Y-41348D01*
X57051Y-41431D01*
X57121Y-41501D01*
X57212Y-41539D01*
X57311Y-41539D01*
X57961Y-41539D01*
X58053Y-41501D01*
X58123Y-41431D01*
X58157Y-41348D01*
X58261Y-41452D01*
X58472Y-41540D01*
X58701Y-41540D01*
X58912Y-41453D01*
X59074Y-41291D01*
X59086Y-41260D01*
X59099Y-41290D01*
X59261Y-41452D01*
X59472Y-41540D01*
X59701Y-41540D01*
X59912Y-41453D01*
X60074Y-41291D01*
X60086Y-41260D01*
X60099Y-41290D01*
X60261Y-41452D01*
X60472Y-41540D01*
X60701Y-41540D01*
X60912Y-41453D01*
X61074Y-41291D01*
X61086Y-41260D01*
X61099Y-41290D01*
X61261Y-41452D01*
X61472Y-41540D01*
X61701Y-41540D01*
X61912Y-41453D01*
X62074Y-41291D01*
X62086Y-41260D01*
X62099Y-41290D01*
X62261Y-41452D01*
X62472Y-41540D01*
X62701Y-41540D01*
X62912Y-41453D01*
X63074Y-41291D01*
X63086Y-41260D01*
X63099Y-41290D01*
X63261Y-41452D01*
X63472Y-41540D01*
X63701Y-41540D01*
X63912Y-41453D01*
X64074Y-41291D01*
X64086Y-41260D01*
X64099Y-41290D01*
X64261Y-41452D01*
X64472Y-41540D01*
X64701Y-41540D01*
X64912Y-41453D01*
X65074Y-41291D01*
X65086Y-41260D01*
X65099Y-41290D01*
X65261Y-41452D01*
X65472Y-41540D01*
X65701Y-41540D01*
X65912Y-41453D01*
X66074Y-41291D01*
X66162Y-41080D01*
X66162Y-42076D01*
X50912Y-42076D01*
X50912Y-41361D01*
X50587Y-41036D01*
X50516Y-41107D01*
X50516Y-40965D01*
X50191Y-40640D01*
X50095Y-40669D01*
X50091Y-40679D01*
X50075Y-40640D01*
X49913Y-40478D01*
X49702Y-40390D01*
X49473Y-40390D01*
X49262Y-40477D01*
X49157Y-40581D01*
X49123Y-40499D01*
X49053Y-40429D01*
X48962Y-40391D01*
X48863Y-40391D01*
X48213Y-40391D01*
X48121Y-40429D01*
X48051Y-40499D01*
X48013Y-40590D01*
X48013Y-40689D01*
X48013Y-41339D01*
X48051Y-41431D01*
X48121Y-41501D01*
X48212Y-41539D01*
X48311Y-41539D01*
X48961Y-41539D01*
X49053Y-41501D01*
X49123Y-41431D01*
X49157Y-41348D01*
X49261Y-41452D01*
X49472Y-41540D01*
X49701Y-41540D01*
X49912Y-41453D01*
X50074Y-41291D01*
X50090Y-41250D01*
X50095Y-41261D01*
X50191Y-41290D01*
X50516Y-40965D01*
X50516Y-41107D01*
X50262Y-41361D01*
X50291Y-41457D01*
X50503Y-41533D01*
X50726Y-41521D01*
X50883Y-41457D01*
X50912Y-41361D01*
X50912Y-42076D01*
X45717Y-42076D01*
X45891Y-41961D01*
X46203Y-41498D01*
X46314Y-40951D01*
X46314Y-25203D01*
X46313Y-25189D01*
X46233Y-24978D01*
X46214Y-24981D01*
X46214Y-24880D01*
X46206Y-24654D01*
X45898Y-24188D01*
X45435Y-23876D01*
X44888Y-23765D01*
X44874Y-23766D01*
X44663Y-23846D01*
X44921Y-25138D01*
X46214Y-24880D01*
X46214Y-24981D01*
X44941Y-25236D01*
X45199Y-26529D01*
X45425Y-26521D01*
X45891Y-26213D01*
X46203Y-25750D01*
X46314Y-25203D01*
X46314Y-40951D01*
X46313Y-40937D01*
X46233Y-40726D01*
X46214Y-40729D01*
X46214Y-40628D01*
X46206Y-40402D01*
X45898Y-39936D01*
X45435Y-39624D01*
X44888Y-39513D01*
X44874Y-39514D01*
X44663Y-39594D01*
X44921Y-40886D01*
X46214Y-40628D01*
X46214Y-40729D01*
X44941Y-40984D01*
X45158Y-42076D01*
X45057Y-42076D01*
X44863Y-41104D01*
X44917Y-41051D01*
X44780Y-40914D01*
X44823Y-40906D01*
X44565Y-39613D01*
X44339Y-39621D01*
X43873Y-39929D01*
X43751Y-40110D01*
X43751Y-26032D01*
X43866Y-26206D01*
X44329Y-26518D01*
X44876Y-26629D01*
X44890Y-26628D01*
X45101Y-26548D01*
X44843Y-25256D01*
X43751Y-25473D01*
X43751Y-25372D01*
X44823Y-25158D01*
X44565Y-23865D01*
X44339Y-23873D01*
X43873Y-24181D01*
X43751Y-24362D01*
X43751Y-23672D01*
X47018Y-23672D01*
X46928Y-23887D01*
X46928Y-24143D01*
X47026Y-24379D01*
X47206Y-24560D01*
X47442Y-24659D01*
X47506Y-24659D01*
X48003Y-25155D01*
X48005Y-25158D01*
X48167Y-25265D01*
X48168Y-25266D01*
X48359Y-25304D01*
X62200Y-25304D01*
X62205Y-25305D01*
X62205Y-25304D01*
X62396Y-25266D01*
X62397Y-25266D01*
X62559Y-25158D01*
X63017Y-24698D01*
X63019Y-24697D01*
X63020Y-24697D01*
X63127Y-24535D01*
X63128Y-24534D01*
X63145Y-24445D01*
X63145Y-24444D01*
X63210Y-24381D01*
X63309Y-24145D01*
X63309Y-23889D01*
X63218Y-23672D01*
X66050Y-23672D01*
X65960Y-23887D01*
X65960Y-24143D01*
X66058Y-24379D01*
X66238Y-24560D01*
X66474Y-24659D01*
X66730Y-24659D01*
X66966Y-24561D01*
X67147Y-24381D01*
X67246Y-24145D01*
X67246Y-23889D01*
X67155Y-23672D01*
X70423Y-23672D01*
X70423Y-24361D01*
X70308Y-24188D01*
X69845Y-23876D01*
X69298Y-23765D01*
X69284Y-23766D01*
X69073Y-23846D01*
X69331Y-25138D01*
X70423Y-24920D01*
X70423Y-25021D01*
X69351Y-25236D01*
X69609Y-26529D01*
X69835Y-26521D01*
X70301Y-26213D01*
X70423Y-26031D01*
X70423Y-40109D01*
X70308Y-39936D01*
X69845Y-39624D01*
X69511Y-39556D01*
X69511Y-26548D01*
X69253Y-25256D01*
X69233Y-25259D01*
X69233Y-25158D01*
X68975Y-23865D01*
X68749Y-23873D01*
X68283Y-24181D01*
X67971Y-24644D01*
X67860Y-25191D01*
X67861Y-25205D01*
X67941Y-25416D01*
X69233Y-25158D01*
X69233Y-25259D01*
X67960Y-25514D01*
X67968Y-25740D01*
X68276Y-26206D01*
X68739Y-26518D01*
X69286Y-26629D01*
X69300Y-26628D01*
X69511Y-26548D01*
X69511Y-39556D01*
X69298Y-39513D01*
X69284Y-39514D01*
X69073Y-39594D01*
X69331Y-40886D01*
X70423Y-40668D01*
X70423Y-40769D01*
X70423Y-40769D01*
G37*
G54D16*
X70423Y-40769D02*
X69451Y-40963D01*
X69398Y-40910D01*
X69261Y-41046D01*
X69253Y-41004D01*
X69233Y-41007D01*
X69233Y-40906D01*
X68975Y-39613D01*
X68749Y-39621D01*
X68283Y-39929D01*
X67971Y-40392D01*
X67860Y-40939D01*
X67861Y-40953D01*
X67941Y-41164D01*
X69233Y-40906D01*
X69233Y-41007D01*
X67960Y-41262D01*
X67968Y-41488D01*
X68276Y-41954D01*
X68457Y-42076D01*
X66162Y-42076D01*
X66162Y-41080D01*
X66162Y-40851D01*
X66075Y-40640D01*
X65913Y-40478D01*
X65702Y-40390D01*
X65473Y-40390D01*
X65262Y-40477D01*
X65100Y-40639D01*
X65087Y-40669D01*
X65075Y-40640D01*
X64913Y-40478D01*
X64702Y-40390D01*
X64473Y-40390D01*
X64262Y-40477D01*
X64100Y-40639D01*
X64087Y-40669D01*
X64075Y-40640D01*
X63913Y-40478D01*
X63702Y-40390D01*
X63473Y-40390D01*
X63262Y-40477D01*
X63100Y-40639D01*
X63087Y-40669D01*
X63075Y-40640D01*
X62913Y-40478D01*
X62702Y-40390D01*
X62473Y-40390D01*
X62262Y-40477D01*
X62100Y-40639D01*
X62087Y-40669D01*
X62075Y-40640D01*
X61913Y-40478D01*
X61702Y-40390D01*
X61473Y-40390D01*
X61262Y-40477D01*
X61100Y-40639D01*
X61087Y-40669D01*
X61075Y-40640D01*
X60913Y-40478D01*
X60702Y-40390D01*
X60473Y-40390D01*
X60262Y-40477D01*
X60100Y-40639D01*
X60087Y-40669D01*
X60075Y-40640D01*
X59913Y-40478D01*
X59702Y-40390D01*
X59473Y-40390D01*
X59262Y-40477D01*
X59100Y-40639D01*
X59087Y-40669D01*
X59075Y-40640D01*
X58913Y-40478D01*
X58702Y-40390D01*
X58473Y-40390D01*
X58262Y-40477D01*
X58157Y-40581D01*
X58123Y-40499D01*
X58053Y-40429D01*
X57962Y-40391D01*
X57863Y-40391D01*
X57213Y-40391D01*
X57121Y-40429D01*
X57051Y-40499D01*
X57016Y-40581D01*
X56913Y-40478D01*
X56702Y-40390D01*
X56473Y-40390D01*
X56262Y-40477D01*
X56100Y-40639D01*
X56087Y-40669D01*
X56075Y-40640D01*
X55913Y-40478D01*
X55702Y-40390D01*
X55473Y-40390D01*
X55262Y-40477D01*
X55100Y-40639D01*
X55087Y-40669D01*
X55075Y-40640D01*
X54913Y-40478D01*
X54702Y-40390D01*
X54473Y-40390D01*
X54262Y-40477D01*
X54100Y-40639D01*
X54087Y-40669D01*
X54075Y-40640D01*
X53913Y-40478D01*
X53702Y-40390D01*
X53473Y-40390D01*
X53262Y-40477D01*
X53100Y-40639D01*
X53087Y-40669D01*
X53075Y-40640D01*
X52913Y-40478D01*
X52702Y-40390D01*
X52473Y-40390D01*
X52262Y-40477D01*
X52100Y-40639D01*
X52087Y-40669D01*
X52075Y-40640D01*
X51913Y-40478D01*
X51702Y-40390D01*
X51473Y-40390D01*
X51262Y-40477D01*
X51100Y-40639D01*
X51083Y-40679D01*
X51079Y-40669D01*
X50983Y-40640D01*
X50912Y-40711D01*
X50912Y-40569D01*
X50883Y-40473D01*
X50671Y-40397D01*
X50448Y-40409D01*
X50291Y-40473D01*
X50262Y-40569D01*
X50587Y-40894D01*
X50912Y-40569D01*
X50912Y-40711D01*
X50658Y-40965D01*
X50983Y-41290D01*
X51079Y-41261D01*
X51082Y-41250D01*
X51099Y-41290D01*
X51261Y-41452D01*
X51472Y-41540D01*
X51701Y-41540D01*
X51912Y-41453D01*
X52074Y-41291D01*
X52086Y-41260D01*
X52099Y-41290D01*
X52261Y-41452D01*
X52472Y-41540D01*
X52701Y-41540D01*
X52912Y-41453D01*
X53074Y-41291D01*
X53086Y-41260D01*
X53099Y-41290D01*
X53261Y-41452D01*
X53472Y-41540D01*
X53701Y-41540D01*
X53912Y-41453D01*
X54074Y-41291D01*
X54086Y-41260D01*
X54099Y-41290D01*
X54261Y-41452D01*
X54472Y-41540D01*
X54701Y-41540D01*
X54912Y-41453D01*
X55074Y-41291D01*
X55086Y-41260D01*
X55099Y-41290D01*
X55261Y-41452D01*
X55472Y-41540D01*
X55701Y-41540D01*
X55912Y-41453D01*
X56074Y-41291D01*
X56086Y-41260D01*
X56099Y-41290D01*
X56261Y-41452D01*
X56472Y-41540D01*
X56701Y-41540D01*
X56912Y-41453D01*
X57016Y-41348D01*
X57051Y-41431D01*
X57121Y-41501D01*
X57212Y-41539D01*
X57311Y-41539D01*
X57961Y-41539D01*
X58053Y-41501D01*
X58123Y-41431D01*
X58157Y-41348D01*
X58261Y-41452D01*
X58472Y-41540D01*
X58701Y-41540D01*
X58912Y-41453D01*
X59074Y-41291D01*
X59086Y-41260D01*
X59099Y-41290D01*
X59261Y-41452D01*
X59472Y-41540D01*
X59701Y-41540D01*
X59912Y-41453D01*
X60074Y-41291D01*
X60086Y-41260D01*
X60099Y-41290D01*
X60261Y-41452D01*
X60472Y-41540D01*
X60701Y-41540D01*
X60912Y-41453D01*
X61074Y-41291D01*
X61086Y-41260D01*
X61099Y-41290D01*
X61261Y-41452D01*
X61472Y-41540D01*
X61701Y-41540D01*
X61912Y-41453D01*
X62074Y-41291D01*
X62086Y-41260D01*
X62099Y-41290D01*
X62261Y-41452D01*
X62472Y-41540D01*
X62701Y-41540D01*
X62912Y-41453D01*
X63074Y-41291D01*
X63086Y-41260D01*
X63099Y-41290D01*
X63261Y-41452D01*
X63472Y-41540D01*
X63701Y-41540D01*
X63912Y-41453D01*
X64074Y-41291D01*
X64086Y-41260D01*
X64099Y-41290D01*
X64261Y-41452D01*
X64472Y-41540D01*
X64701Y-41540D01*
X64912Y-41453D01*
X65074Y-41291D01*
X65086Y-41260D01*
X65099Y-41290D01*
X65261Y-41452D01*
X65472Y-41540D01*
X65701Y-41540D01*
X65912Y-41453D01*
X66074Y-41291D01*
X66162Y-41080D01*
X66162Y-42076D01*
X50912Y-42076D01*
X50912Y-41361D01*
X50587Y-41036D01*
X50516Y-41107D01*
X50516Y-40965D01*
X50191Y-40640D01*
X50095Y-40669D01*
X50091Y-40679D01*
X50075Y-40640D01*
X49913Y-40478D01*
X49702Y-40390D01*
X49473Y-40390D01*
X49262Y-40477D01*
X49157Y-40581D01*
X49123Y-40499D01*
X49053Y-40429D01*
X48962Y-40391D01*
X48863Y-40391D01*
X48213Y-40391D01*
X48121Y-40429D01*
X48051Y-40499D01*
X48013Y-40590D01*
X48013Y-40689D01*
X48013Y-41339D01*
X48051Y-41431D01*
X48121Y-41501D01*
X48212Y-41539D01*
X48311Y-41539D01*
X48961Y-41539D01*
X49053Y-41501D01*
X49123Y-41431D01*
X49157Y-41348D01*
X49261Y-41452D01*
X49472Y-41540D01*
X49701Y-41540D01*
X49912Y-41453D01*
X50074Y-41291D01*
X50090Y-41250D01*
X50095Y-41261D01*
X50191Y-41290D01*
X50516Y-40965D01*
X50516Y-41107D01*
X50262Y-41361D01*
X50291Y-41457D01*
X50503Y-41533D01*
X50726Y-41521D01*
X50883Y-41457D01*
X50912Y-41361D01*
X50912Y-42076D01*
X45717Y-42076D01*
X45891Y-41961D01*
X46203Y-41498D01*
X46314Y-40951D01*
X46314Y-25203D01*
X46313Y-25189D01*
X46233Y-24978D01*
X46214Y-24981D01*
X46214Y-24880D01*
X46206Y-24654D01*
X45898Y-24188D01*
X45435Y-23876D01*
X44888Y-23765D01*
X44874Y-23766D01*
X44663Y-23846D01*
X44921Y-25138D01*
X46214Y-24880D01*
X46214Y-24981D01*
X44941Y-25236D01*
X45199Y-26529D01*
X45425Y-26521D01*
X45891Y-26213D01*
X46203Y-25750D01*
X46314Y-25203D01*
X46314Y-40951D01*
X46313Y-40937D01*
X46233Y-40726D01*
X46214Y-40729D01*
X46214Y-40628D01*
X46206Y-40402D01*
X45898Y-39936D01*
X45435Y-39624D01*
X44888Y-39513D01*
X44874Y-39514D01*
X44663Y-39594D01*
X44921Y-40886D01*
X46214Y-40628D01*
X46214Y-40729D01*
X44941Y-40984D01*
X45158Y-42076D01*
X45057Y-42076D01*
X44863Y-41104D01*
X44917Y-41051D01*
X44780Y-40914D01*
X44823Y-40906D01*
X44565Y-39613D01*
X44339Y-39621D01*
X43873Y-39929D01*
X43751Y-40110D01*
X43751Y-26032D01*
X43866Y-26206D01*
X44329Y-26518D01*
X44876Y-26629D01*
X44890Y-26628D01*
X45101Y-26548D01*
X44843Y-25256D01*
X43751Y-25473D01*
X43751Y-25372D01*
X44823Y-25158D01*
X44565Y-23865D01*
X44339Y-23873D01*
X43873Y-24181D01*
X43751Y-24362D01*
X43751Y-23672D01*
X47018Y-23672D01*
X46928Y-23887D01*
X46928Y-24143D01*
X47026Y-24379D01*
X47206Y-24560D01*
X47442Y-24659D01*
X47506Y-24659D01*
X48003Y-25155D01*
X48005Y-25158D01*
X48167Y-25265D01*
X48168Y-25266D01*
X48359Y-25304D01*
X62200Y-25304D01*
X62205Y-25305D01*
X62205Y-25304D01*
X62396Y-25266D01*
X62397Y-25266D01*
X62559Y-25158D01*
X63017Y-24698D01*
X63019Y-24697D01*
X63020Y-24697D01*
X63127Y-24535D01*
X63128Y-24534D01*
X63145Y-24445D01*
X63145Y-24444D01*
X63210Y-24381D01*
X63309Y-24145D01*
X63309Y-23889D01*
X63218Y-23672D01*
X66050Y-23672D01*
X65960Y-23887D01*
X65960Y-24143D01*
X66058Y-24379D01*
X66238Y-24560D01*
X66474Y-24659D01*
X66730Y-24659D01*
X66966Y-24561D01*
X67147Y-24381D01*
X67246Y-24145D01*
X67246Y-23889D01*
X67155Y-23672D01*
X70423Y-23672D01*
X70423Y-24361D01*
X70308Y-24188D01*
X69845Y-23876D01*
X69298Y-23765D01*
X69284Y-23766D01*
X69073Y-23846D01*
X69331Y-25138D01*
X70423Y-24920D01*
X70423Y-25021D01*
X69351Y-25236D01*
X69609Y-26529D01*
X69835Y-26521D01*
X70301Y-26213D01*
X70423Y-26031D01*
X70423Y-40109D01*
X70308Y-39936D01*
X69845Y-39624D01*
X69511Y-39556D01*
X69511Y-26548D01*
X69253Y-25256D01*
X69233Y-25259D01*
X69233Y-25158D01*
X68975Y-23865D01*
X68749Y-23873D01*
X68283Y-24181D01*
X67971Y-24644D01*
X67860Y-25191D01*
X67861Y-25205D01*
X67941Y-25416D01*
X69233Y-25158D01*
X69233Y-25259D01*
X67960Y-25514D01*
X67968Y-25740D01*
X68276Y-26206D01*
X68739Y-26518D01*
X69286Y-26629D01*
X69300Y-26628D01*
X69511Y-26548D01*
X69511Y-39556D01*
X69298Y-39513D01*
X69284Y-39514D01*
X69073Y-39594D01*
X69331Y-40886D01*
X70423Y-40668D01*
X70423Y-40769D01*
M02*
