<?xml version="1.0" standalone="no"?>
 <!DOCTYPE svg PUBLIC "-//W3C//DTD SVG 1.1//EN" 
 "http://www.w3.org/Graphics/SVG/1.1/DTD/svg11.dtd"> 
<svg xmlns="http://www.w3.org/2000/svg" version="1.1" 
    width="29.7002cm" height="21.0007cm" viewBox="0 0 116930 82680 ">
<title>SVG Picture created as oggbox-F_Mask.svg date 2013/08/02 22:02:20 </title>
  <desc>Picture generated by PCBNEW </desc>
<g style="fill:#000000; fill-opacity:1;stroke:#000000; stroke-opacity:1;
stroke-linecap:round; stroke-linejoin:round; "
 transform="translate(0 0) scale(1 1)">
</g>
<g style="fill:#000000; fill-opacity:0.0; 
stroke:#000000; stroke-width:150; stroke-opacity:1; 
stroke-linecap:round; stroke-linejoin:round;">
<path d="M78739 32480
L78740 32480
" />
<path d="M75787 29528
L78739 32480
" />
<path d="M40354 29528
L39370 30512
" />
<path d="M75787 29528
L40354 29528
" />
<path d="M75787 49213
L78740 46260
" />
<path d="M39370 48229
L39370 48228
" />
<path d="M40354 49213
L39370 48229
" />
<path d="M75787 49213
L40354 49213
" />
<path d="M39370 30512
L39370 48228
" />
<path d="M78740 32480
L78740 46260
" />
</g>
<g style="fill:#000000; fill-opacity:0.0; 
stroke:#000000; stroke-width:59.0551; stroke-opacity:1; 
stroke-linecap:round; stroke-linejoin:round;">
</g>
<g style="fill:#000000; fill-opacity:1.0; 
stroke:#000000; stroke-width:59.0551; stroke-opacity:1; 
stroke-linecap:round; stroke-linejoin:round;">
<circle cx="60894" cy="29921" r="370.472" /> 
<circle cx="64831" cy="29921" r="370.472" /> 
<circle cx="49736" cy="29921" r="370.472" /> 
<circle cx="45799" cy="29921" r="370.472" /> 
<polyline style="fill-rule:evenodd;"
points="72883,38038
72883,37197
73474,37197
73474,38038
72883,38038
" /> 
<polyline style="fill-rule:evenodd;"
points="71899,38038
71899,37197
72490,37197
72490,38038
71899,38038
" /> 
<polyline style="fill-rule:evenodd;"
points="70914,38038
70914,37197
71505,37197
71505,38038
70914,38038
" /> 
<polyline style="fill-rule:evenodd;"
points="69930,38038
69930,37197
70521,37197
70521,38038
69930,38038
" /> 
<polyline style="fill-rule:evenodd;"
points="68946,38038
68946,37197
69537,37197
69537,38038
68946,38038
" /> 
<polyline style="fill-rule:evenodd;"
points="67962,38038
67962,37197
68553,37197
68553,38038
67962,38038
" /> 
<polyline style="fill-rule:evenodd;"
points="66977,38038
66977,37197
67568,37197
67568,38038
66977,38038
" /> 
<polyline style="fill-rule:evenodd;"
points="65993,38038
65993,37197
66584,37197
66584,38038
65993,38038
" /> 
<polyline style="fill-rule:evenodd;"
points="65378,38038
65378,37197
65919,37197
65919,38038
65378,38038
" /> 
<polyline style="fill-rule:evenodd;"
points="64892,38038
64892,37197
65383,37197
65383,38038
64892,38038
" /> 
<polyline style="fill-rule:evenodd;"
points="64419,38038
64419,37197
64910,37197
64910,38038
64419,38038
" /> 
<circle cx="64959" cy="38681" r="267.472" /> 
<circle cx="73228" cy="38681" r="370.472" /> 
<polyline style="fill-rule:evenodd;"
points="63655,47806
63655,46665
64296,46665
64296,47806
63655,47806
" /> 
<polyline style="fill-rule:evenodd;"
points="63655,38806
63655,37665
64296,37665
64296,38806
63655,38806
" /> 
<polyline style="fill-rule:evenodd;"
points="74679,47806
74679,46665
75320,46665
75320,47806
74679,47806
" /> 
<polyline style="fill-rule:evenodd;"
points="73813,38806
73813,37665
74454,37665
74454,38806
73813,38806
" /> 
<polyline style="fill-rule:evenodd;"
points="63655,44499
63655,43358
64296,43358
64296,44499
63655,44499
" /> 
<polyline style="fill-rule:evenodd;"
points="74679,44499
74679,43358
75320,43358
75320,44499
74679,44499
" /> 
<polyline style="fill-rule:evenodd;"
points="48925,34515
49265,34515
49265,34956
48925,34956
48925,34515
" /> 
<polyline style="fill-rule:evenodd;"
points="48175,34515
48515,34515
48515,34956
48175,34956
48175,34515
" /> 
<polyline style="fill-rule:evenodd;"
points="48925,35515
49265,35515
49265,35956
48925,35956
48925,35515
" /> 
<polyline style="fill-rule:evenodd;"
points="48550,34515
48890,34515
48890,34956
48550,34956
48550,34515
" /> 
<polyline style="fill-rule:evenodd;"
points="48175,35515
48515,35515
48515,35956
48175,35956
48175,35515
" /> 
<polyline style="fill-rule:evenodd;"
points="49401,32118
49060,32118
49060,31677
49401,31677
49401,32118
" /> 
<polyline style="fill-rule:evenodd;"
points="50151,32118
49810,32118
49810,31677
50151,31677
50151,32118
" /> 
<polyline style="fill-rule:evenodd;"
points="49401,31118
49060,31118
49060,30677
49401,30677
49401,31118
" /> 
<polyline style="fill-rule:evenodd;"
points="49776,32118
49435,32118
49435,31677
49776,31677
49776,32118
" /> 
<polyline style="fill-rule:evenodd;"
points="50151,31118
49810,31118
49810,30677
50151,30677
50151,31118
" /> 
<polyline style="fill-rule:evenodd;"
points="64893,33472
64893,33813
64452,33813
64452,33472
64893,33472
" /> 
<polyline style="fill-rule:evenodd;"
points="64893,32722
64893,33063
64452,33063
64452,32722
64893,32722
" /> 
<polyline style="fill-rule:evenodd;"
points="63893,33472
63893,33813
63452,33813
63452,33472
63893,33472
" /> 
<polyline style="fill-rule:evenodd;"
points="64893,33097
64893,33438
64452,33438
64452,33097
64893,33097
" /> 
<polyline style="fill-rule:evenodd;"
points="63893,32722
63893,33063
63452,33063
63452,32722
63893,32722
" /> 
<polyline style="fill-rule:evenodd;"
points="67483,36100
67483,35159
68224,35159
68224,36100
67483,36100
" /> 
<polyline style="fill-rule:evenodd;"
points="68783,36100
68783,35159
69524,35159
69524,36100
68783,36100
" /> 
<polyline style="fill-rule:evenodd;"
points="69524,36143
69524,37084
68783,37084
68783,36143
69524,36143
" /> 
<polyline style="fill-rule:evenodd;"
points="68224,36143
68224,37084
67483,37084
67483,36143
68224,36143
" /> 
<polyline style="fill-rule:evenodd;"
points="63552,32530
63552,31839
64043,31839
64043,32530
63552,32530
" /> 
<polyline style="fill-rule:evenodd;"
points="64302,32530
64302,31839
64793,31839
64793,32530
64302,32530
" /> 
<polyline style="fill-rule:evenodd;"
points="64793,34004
64793,34695
64302,34695
64302,34004
64793,34004
" /> 
<polyline style="fill-rule:evenodd;"
points="64043,34004
64043,34695
63552,34695
63552,34004
64043,34004
" /> 
<polyline style="fill-rule:evenodd;"
points="56347,30678
57038,30678
57038,31169
56347,31169
56347,30678
" /> 
<polyline style="fill-rule:evenodd;"
points="56347,31428
57038,31428
57038,31919
56347,31919
56347,31428
" /> 
<polyline style="fill-rule:evenodd;"
points="48178,30186
48869,30186
48869,30677
48178,30677
48178,30186
" /> 
<polyline style="fill-rule:evenodd;"
points="48178,30936
48869,30936
48869,31427
48178,31427
48178,30936
" /> 
<polyline style="fill-rule:evenodd;"
points="50148,35856
49457,35856
49457,35365
50148,35365
50148,35856
" /> 
<polyline style="fill-rule:evenodd;"
points="50148,35106
49457,35106
49457,34615
50148,34615
50148,35106
" /> 
<polyline style="fill-rule:evenodd;"
points="59794,31919
59103,31919
59103,31428
59794,31428
59794,31919
" /> 
<polyline style="fill-rule:evenodd;"
points="59794,31169
59103,31169
59103,30678
59794,30678
59794,31169
" /> 
<polyline style="fill-rule:evenodd;"
points="58119,30678
58810,30678
58810,31169
58119,31169
58119,30678
" /> 
<polyline style="fill-rule:evenodd;"
points="58119,31428
58810,31428
58810,31919
58119,31919
58119,31428
" /> 
<polyline style="fill-rule:evenodd;"
points="57331,30678
58022,30678
58022,31169
57331,31169
57331,30678
" /> 
<polyline style="fill-rule:evenodd;"
points="57331,31428
58022,31428
58022,31919
57331,31919
57331,31428
" /> 
<polyline style="fill-rule:evenodd;"
points="77463,38699
77463,39016
76780,39016
76780,38699
77463,38699
" /> 
<polyline style="fill-rule:evenodd;"
points="77463,39467
77463,39784
76780,39784
76780,39467
77463,39467
" /> 
<polyline style="fill-rule:evenodd;"
points="77463,38955
77463,39272
76780,39272
76780,38955
77463,38955
" /> 
<polyline style="fill-rule:evenodd;"
points="77463,39211
77463,39528
76780,39528
76780,39211
77463,39211
" /> 
<polyline style="fill-rule:evenodd;"
points="78613,39398
78613,40001
77724,40001
77724,39398
78613,39398
" /> 
<polyline style="fill-rule:evenodd;"
points="78613,37685
78613,38760
77724,38760
77724,37685
78613,37685
" /> 
<polyline style="fill-rule:evenodd;"
points="78613,39979
78613,41054
77724,41054
77724,39979
78613,39979
" /> 
<polyline style="fill-rule:evenodd;"
points="78613,38738
78613,39341
77724,39341
77724,38738
78613,38738
" /> 
<polyline style="fill-rule:evenodd;"
points="77463,39723
77463,40040
76780,40040
76780,39723
77463,39723
" /> 
<polyline style="fill-rule:evenodd;"
points="77747,39979
77747,40700
76780,40700
76780,39979
77747,39979
" /> 
<polyline style="fill-rule:evenodd;"
points="77747,38039
77747,38760
76780,38760
76780,38039
77747,38039
" /> 
<polyline style="fill-rule:evenodd;"
points="55086,44793
55086,44182
55345,44182
55345,44793
55086,44793
" /> 
<polyline style="fill-rule:evenodd;"
points="55282,44793
55282,44182
55541,44182
55541,44793
55282,44793
" /> 
<polyline style="fill-rule:evenodd;"
points="55479,44793
55479,44182
55738,44182
55738,44793
55479,44793
" /> 
<polyline style="fill-rule:evenodd;"
points="55676,44793
55676,44182
55935,44182
55935,44793
55676,44793
" /> 
<polyline style="fill-rule:evenodd;"
points="55873,44793
55873,44182
56132,44182
56132,44793
55873,44793
" /> 
<polyline style="fill-rule:evenodd;"
points="56070,44793
56070,44182
56329,44182
56329,44793
56070,44793
" /> 
<polyline style="fill-rule:evenodd;"
points="56267,44793
56267,44182
56526,44182
56526,44793
56267,44793
" /> 
<polyline style="fill-rule:evenodd;"
points="56464,44793
56464,44182
56723,44182
56723,44793
56464,44793
" /> 
<polyline style="fill-rule:evenodd;"
points="56660,44793
56660,44182
56919,44182
56919,44793
56660,44793
" /> 
<polyline style="fill-rule:evenodd;"
points="56857,44793
56857,44182
57116,44182
57116,44793
56857,44793
" /> 
<polyline style="fill-rule:evenodd;"
points="57054,44793
57054,44182
57313,44182
57313,44793
57054,44793
" /> 
<polyline style="fill-rule:evenodd;"
points="57251,44793
57251,44182
57510,44182
57510,44793
57251,44793
" /> 
<polyline style="fill-rule:evenodd;"
points="57448,44793
57448,44182
57707,44182
57707,44793
57448,44793
" /> 
<polyline style="fill-rule:evenodd;"
points="57645,44793
57645,44182
57904,44182
57904,44793
57645,44793
" /> 
<polyline style="fill-rule:evenodd;"
points="57842,44793
57842,44182
58101,44182
58101,44793
57842,44793
" /> 
<polyline style="fill-rule:evenodd;"
points="58038,44793
58038,44182
58297,44182
58297,44793
58038,44793
" /> 
<polyline style="fill-rule:evenodd;"
points="58038,40265
58038,39654
58297,39654
58297,40265
58038,40265
" /> 
<polyline style="fill-rule:evenodd;"
points="57842,40265
57842,39654
58101,39654
58101,40265
57842,40265
" /> 
<polyline style="fill-rule:evenodd;"
points="57645,40265
57645,39654
57904,39654
57904,40265
57645,40265
" /> 
<polyline style="fill-rule:evenodd;"
points="57448,40265
57448,39654
57707,39654
57707,40265
57448,40265
" /> 
<polyline style="fill-rule:evenodd;"
points="57251,40265
57251,39654
57510,39654
57510,40265
57251,40265
" /> 
<polyline style="fill-rule:evenodd;"
points="57054,40265
57054,39654
57313,39654
57313,40265
57054,40265
" /> 
<polyline style="fill-rule:evenodd;"
points="56857,40265
56857,39654
57116,39654
57116,40265
56857,40265
" /> 
<polyline style="fill-rule:evenodd;"
points="56660,40265
56660,39654
56919,39654
56919,40265
56660,40265
" /> 
<polyline style="fill-rule:evenodd;"
points="56464,40265
56464,39654
56723,39654
56723,40265
56464,40265
" /> 
<polyline style="fill-rule:evenodd;"
points="56267,40265
56267,39654
56526,39654
56526,40265
56267,40265
" /> 
<polyline style="fill-rule:evenodd;"
points="56070,40265
56070,39654
56329,39654
56329,40265
56070,40265
" /> 
<polyline style="fill-rule:evenodd;"
points="55873,40265
55873,39654
56132,39654
56132,40265
55873,40265
" /> 
<polyline style="fill-rule:evenodd;"
points="55676,40265
55676,39654
55935,39654
55935,40265
55676,40265
" /> 
<polyline style="fill-rule:evenodd;"
points="55479,40265
55479,39654
55738,39654
55738,40265
55479,40265
" /> 
<polyline style="fill-rule:evenodd;"
points="55282,40265
55282,39654
55541,39654
55541,40265
55282,40265
" /> 
<polyline style="fill-rule:evenodd;"
points="55086,40265
55086,39654
55345,39654
55345,40265
55086,40265
" /> 
<polyline style="fill-rule:evenodd;"
points="58650,43829
58650,43570
59261,43570
59261,43829
58650,43829
" /> 
<polyline style="fill-rule:evenodd;"
points="58650,43633
58650,43374
59261,43374
59261,43633
58650,43633
" /> 
<polyline style="fill-rule:evenodd;"
points="58650,43436
58650,43177
59261,43177
59261,43436
58650,43436
" /> 
<polyline style="fill-rule:evenodd;"
points="58650,43239
58650,42980
59261,42980
59261,43239
58650,43239
" /> 
<polyline style="fill-rule:evenodd;"
points="58650,43042
58650,42783
59261,42783
59261,43042
58650,43042
" /> 
<polyline style="fill-rule:evenodd;"
points="58650,42845
58650,42586
59261,42586
59261,42845
58650,42845
" /> 
<polyline style="fill-rule:evenodd;"
points="58650,42648
58650,42389
59261,42389
59261,42648
58650,42648
" /> 
<polyline style="fill-rule:evenodd;"
points="58650,42451
58650,42192
59261,42192
59261,42451
58650,42451
" /> 
<polyline style="fill-rule:evenodd;"
points="58650,42255
58650,41996
59261,41996
59261,42255
58650,42255
" /> 
<polyline style="fill-rule:evenodd;"
points="58650,42058
58650,41799
59261,41799
59261,42058
58650,42058
" /> 
<polyline style="fill-rule:evenodd;"
points="58650,41861
58650,41602
59261,41602
59261,41861
58650,41861
" /> 
<polyline style="fill-rule:evenodd;"
points="58650,41664
58650,41405
59261,41405
59261,41664
58650,41664
" /> 
<polyline style="fill-rule:evenodd;"
points="58650,41467
58650,41208
59261,41208
59261,41467
58650,41467
" /> 
<polyline style="fill-rule:evenodd;"
points="58650,41270
58650,41011
59261,41011
59261,41270
58650,41270
" /> 
<polyline style="fill-rule:evenodd;"
points="58650,41073
58650,40814
59261,40814
59261,41073
58650,41073
" /> 
<polyline style="fill-rule:evenodd;"
points="58650,40877
58650,40618
59261,40618
59261,40877
58650,40877
" /> 
<polyline style="fill-rule:evenodd;"
points="54122,40877
54122,40618
54733,40618
54733,40877
54122,40877
" /> 
<polyline style="fill-rule:evenodd;"
points="54122,41073
54122,40814
54733,40814
54733,41073
54122,41073
" /> 
<polyline style="fill-rule:evenodd;"
points="54122,41270
54122,41011
54733,41011
54733,41270
54122,41270
" /> 
<polyline style="fill-rule:evenodd;"
points="54122,41467
54122,41208
54733,41208
54733,41467
54122,41467
" /> 
<polyline style="fill-rule:evenodd;"
points="54122,41664
54122,41405
54733,41405
54733,41664
54122,41664
" /> 
<polyline style="fill-rule:evenodd;"
points="54122,41861
54122,41602
54733,41602
54733,41861
54122,41861
" /> 
<polyline style="fill-rule:evenodd;"
points="54122,42058
54122,41799
54733,41799
54733,42058
54122,42058
" /> 
<polyline style="fill-rule:evenodd;"
points="54122,42255
54122,41996
54733,41996
54733,42255
54122,42255
" /> 
<polyline style="fill-rule:evenodd;"
points="54122,42451
54122,42192
54733,42192
54733,42451
54122,42451
" /> 
<polyline style="fill-rule:evenodd;"
points="54122,42648
54122,42389
54733,42389
54733,42648
54122,42648
" /> 
<polyline style="fill-rule:evenodd;"
points="54122,42845
54122,42586
54733,42586
54733,42845
54122,42845
" /> 
<polyline style="fill-rule:evenodd;"
points="54122,43042
54122,42783
54733,42783
54733,43042
54122,43042
" /> 
<polyline style="fill-rule:evenodd;"
points="54122,43239
54122,42980
54733,42980
54733,43239
54122,43239
" /> 
<polyline style="fill-rule:evenodd;"
points="54122,43436
54122,43177
54733,43177
54733,43436
54122,43436
" /> 
<polyline style="fill-rule:evenodd;"
points="54122,43633
54122,43374
54733,43374
54733,43633
54122,43633
" /> 
<polyline style="fill-rule:evenodd;"
points="54122,43829
54122,43570
54733,43570
54733,43829
54122,43829
" /> 
<polyline style="fill-rule:evenodd;"
points="43078,41446
43078,40835
43337,40835
43337,41446
43078,41446
" /> 
<polyline style="fill-rule:evenodd;"
points="43275,41446
43275,40835
43534,40835
43534,41446
43275,41446
" /> 
<polyline style="fill-rule:evenodd;"
points="43472,41446
43472,40835
43731,40835
43731,41446
43472,41446
" /> 
<polyline style="fill-rule:evenodd;"
points="43669,41446
43669,40835
43928,40835
43928,41446
43669,41446
" /> 
<polyline style="fill-rule:evenodd;"
points="43866,41446
43866,40835
44125,40835
44125,41446
43866,41446
" /> 
<polyline style="fill-rule:evenodd;"
points="44063,41446
44063,40835
44322,40835
44322,41446
44063,41446
" /> 
<polyline style="fill-rule:evenodd;"
points="44259,41446
44259,40835
44518,40835
44518,41446
44259,41446
" /> 
<polyline style="fill-rule:evenodd;"
points="44456,41446
44456,40835
44715,40835
44715,41446
44456,41446
" /> 
<polyline style="fill-rule:evenodd;"
points="44653,41446
44653,40835
44912,40835
44912,41446
44653,41446
" /> 
<polyline style="fill-rule:evenodd;"
points="44850,41446
44850,40835
45109,40835
45109,41446
44850,41446
" /> 
<polyline style="fill-rule:evenodd;"
points="45047,41446
45047,40835
45306,40835
45306,41446
45047,41446
" /> 
<polyline style="fill-rule:evenodd;"
points="45244,41446
45244,40835
45503,40835
45503,41446
45244,41446
" /> 
<polyline style="fill-rule:evenodd;"
points="45244,38100
45244,37489
45503,37489
45503,38100
45244,38100
" /> 
<polyline style="fill-rule:evenodd;"
points="45047,38100
45047,37489
45306,37489
45306,38100
45047,38100
" /> 
<polyline style="fill-rule:evenodd;"
points="44850,38100
44850,37489
45109,37489
45109,38100
44850,38100
" /> 
<polyline style="fill-rule:evenodd;"
points="44653,38100
44653,37489
44912,37489
44912,38100
44653,38100
" /> 
<polyline style="fill-rule:evenodd;"
points="44456,38100
44456,37489
44715,37489
44715,38100
44456,38100
" /> 
<polyline style="fill-rule:evenodd;"
points="44259,38100
44259,37489
44518,37489
44518,38100
44259,38100
" /> 
<polyline style="fill-rule:evenodd;"
points="44063,38100
44063,37489
44322,37489
44322,38100
44063,38100
" /> 
<polyline style="fill-rule:evenodd;"
points="43866,38100
43866,37489
44125,37489
44125,38100
43866,38100
" /> 
<polyline style="fill-rule:evenodd;"
points="43669,38100
43669,37489
43928,37489
43928,38100
43669,38100
" /> 
<polyline style="fill-rule:evenodd;"
points="43472,38100
43472,37489
43731,37489
43731,38100
43472,38100
" /> 
<polyline style="fill-rule:evenodd;"
points="43275,38100
43275,37489
43534,37489
43534,38100
43275,38100
" /> 
<polyline style="fill-rule:evenodd;"
points="43078,38100
43078,37489
43337,37489
43337,38100
43078,38100
" /> 
<polyline style="fill-rule:evenodd;"
points="45658,40680
45658,40421
46269,40421
46269,40680
45658,40680
" /> 
<polyline style="fill-rule:evenodd;"
points="45658,40483
45658,40224
46269,40224
46269,40483
45658,40483
" /> 
<polyline style="fill-rule:evenodd;"
points="45658,40286
45658,40027
46269,40027
46269,40286
45658,40286
" /> 
<polyline style="fill-rule:evenodd;"
points="45658,40089
45658,39830
46269,39830
46269,40089
45658,40089
" /> 
<polyline style="fill-rule:evenodd;"
points="45658,39892
45658,39633
46269,39633
46269,39892
45658,39892
" /> 
<polyline style="fill-rule:evenodd;"
points="45658,39695
45658,39436
46269,39436
46269,39695
45658,39695
" /> 
<polyline style="fill-rule:evenodd;"
points="45658,39499
45658,39240
46269,39240
46269,39499
45658,39499
" /> 
<polyline style="fill-rule:evenodd;"
points="45658,39302
45658,39043
46269,39043
46269,39302
45658,39302
" /> 
<polyline style="fill-rule:evenodd;"
points="45658,39105
45658,38846
46269,38846
46269,39105
45658,39105
" /> 
<polyline style="fill-rule:evenodd;"
points="45658,38908
45658,38649
46269,38649
46269,38908
45658,38908
" /> 
<polyline style="fill-rule:evenodd;"
points="45658,38711
45658,38452
46269,38452
46269,38711
45658,38711
" /> 
<polyline style="fill-rule:evenodd;"
points="45658,38514
45658,38255
46269,38255
46269,38514
45658,38514
" /> 
<polyline style="fill-rule:evenodd;"
points="42312,38514
42312,38255
42923,38255
42923,38514
42312,38514
" /> 
<polyline style="fill-rule:evenodd;"
points="42312,38711
42312,38452
42923,38452
42923,38711
42312,38711
" /> 
<polyline style="fill-rule:evenodd;"
points="42312,38908
42312,38649
42923,38649
42923,38908
42312,38908
" /> 
<polyline style="fill-rule:evenodd;"
points="42312,39105
42312,38846
42923,38846
42923,39105
42312,39105
" /> 
<polyline style="fill-rule:evenodd;"
points="42312,39302
42312,39043
42923,39043
42923,39302
42312,39302
" /> 
<polyline style="fill-rule:evenodd;"
points="42312,39499
42312,39240
42923,39240
42923,39499
42312,39499
" /> 
<polyline style="fill-rule:evenodd;"
points="42312,39695
42312,39436
42923,39436
42923,39695
42312,39695
" /> 
<polyline style="fill-rule:evenodd;"
points="42312,39892
42312,39633
42923,39633
42923,39892
42312,39892
" /> 
<polyline style="fill-rule:evenodd;"
points="42312,40089
42312,39830
42923,39830
42923,40089
42312,40089
" /> 
<polyline style="fill-rule:evenodd;"
points="42312,40286
42312,40027
42923,40027
42923,40286
42312,40286
" /> 
<polyline style="fill-rule:evenodd;"
points="42312,40483
42312,40224
42923,40224
42923,40483
42312,40483
" /> 
<polyline style="fill-rule:evenodd;"
points="42312,40680
42312,40421
42923,40421
42923,40680
42312,40680
" /> 
<polyline style="fill-rule:evenodd;"
points="66764,30833
66764,29992
67605,29992
67605,30833
66764,30833
" /> 
<circle cx="68185" cy="30413" r="420.472" /> 
<circle cx="69185" cy="30413" r="420.472" /> 
<circle cx="70185" cy="30413" r="420.472" /> 
<circle cx="71185" cy="30413" r="420.472" /> 
<circle cx="72185" cy="30413" r="420.472" /> 
<polyline style="fill-rule:evenodd;"
points="55974,37392
55974,36819
56233,36819
56233,37392
55974,37392
" /> 
<polyline style="fill-rule:evenodd;"
points="56170,37392
56170,36819
56429,36819
56429,37392
56170,37392
" /> 
<polyline style="fill-rule:evenodd;"
points="56564,37392
56564,36819
56823,36819
56823,37392
56564,37392
" /> 
<polyline style="fill-rule:evenodd;"
points="56761,37392
56761,36819
57020,36819
57020,37392
56761,37392
" /> 
<polyline style="fill-rule:evenodd;"
points="56958,37392
56958,36819
57217,36819
57217,37392
56958,37392
" /> 
<polyline style="fill-rule:evenodd;"
points="57155,37392
57155,36819
57414,36819
57414,37392
57155,37392
" /> 
<polyline style="fill-rule:evenodd;"
points="57352,37392
57352,36819
57611,36819
57611,37392
57352,37392
" /> 
<polyline style="fill-rule:evenodd;"
points="57549,37392
57549,36819
57808,36819
57808,37392
57549,37392
" /> 
<polyline style="fill-rule:evenodd;"
points="57745,37392
57745,36819
58004,36819
58004,37392
57745,37392
" /> 
<polyline style="fill-rule:evenodd;"
points="57942,37392
57942,36819
58201,36819
58201,37392
57942,37392
" /> 
<polyline style="fill-rule:evenodd;"
points="58139,37392
58139,36819
58398,36819
58398,37392
58139,37392
" /> 
<polyline style="fill-rule:evenodd;"
points="58336,37392
58336,36819
58595,36819
58595,37392
58336,37392
" /> 
<polyline style="fill-rule:evenodd;"
points="58533,37392
58533,36819
58792,36819
58792,37392
58533,37392
" /> 
<polyline style="fill-rule:evenodd;"
points="58730,37392
58730,36819
58989,36819
58989,37392
58730,37392
" /> 
<polyline style="fill-rule:evenodd;"
points="55777,37392
55777,36819
56036,36819
56036,37392
55777,37392
" /> 
<polyline style="fill-rule:evenodd;"
points="53414,37392
53414,36819
53673,36819
53673,37392
53414,37392
" /> 
<polyline style="fill-rule:evenodd;"
points="53611,37392
53611,36819
53870,36819
53870,37392
53611,37392
" /> 
<polyline style="fill-rule:evenodd;"
points="53808,37392
53808,36819
54067,36819
54067,37392
53808,37392
" /> 
<polyline style="fill-rule:evenodd;"
points="54005,37392
54005,36819
54264,36819
54264,37392
54005,37392
" /> 
<polyline style="fill-rule:evenodd;"
points="54202,37392
54202,36819
54461,36819
54461,37392
54202,37392
" /> 
<polyline style="fill-rule:evenodd;"
points="54399,37392
54399,36819
54658,36819
54658,37392
54399,37392
" /> 
<polyline style="fill-rule:evenodd;"
points="54595,37392
54595,36819
54854,36819
54854,37392
54595,37392
" /> 
<polyline style="fill-rule:evenodd;"
points="54792,37392
54792,36819
55051,36819
55051,37392
54792,37392
" /> 
<polyline style="fill-rule:evenodd;"
points="54989,37392
54989,36819
55248,36819
55248,37392
54989,37392
" /> 
<polyline style="fill-rule:evenodd;"
points="55186,37392
55186,36819
55445,36819
55445,37392
55186,37392
" /> 
<polyline style="fill-rule:evenodd;"
points="55383,37392
55383,36819
55642,36819
55642,37392
55383,37392
" /> 
<polyline style="fill-rule:evenodd;"
points="56367,37392
56367,36819
56626,36819
56626,37392
56367,37392
" /> 
<polyline style="fill-rule:evenodd;"
points="55580,37392
55580,36819
55839,36819
55839,37392
55580,37392
" /> 
<polyline style="fill-rule:evenodd;"
points="58993,37117
58993,35756
60040,35756
60040,37117
58993,37117
" /> 
<polyline style="fill-rule:evenodd;"
points="52363,37117
52363,35756
53410,35756
53410,37117
52363,37117
" /> 
<polyline style="fill-rule:evenodd;"
points="68808,33057
69339,33057
69339,33478
68808,33478
68808,33057
" /> 
<polyline style="fill-rule:evenodd;"
points="67864,32683
68395,32683
68395,33104
67864,33104
67864,32683
" /> 
<polyline style="fill-rule:evenodd;"
points="67864,33431
68395,33431
68395,33852
67864,33852
67864,33431
" /> 
<polyline style="fill-rule:evenodd;"
points="40264,48220
40264,47075
41191,47075
41191,48220
40264,48220
" /> 
<polyline style="fill-rule:evenodd;"
points="40264,45050
40264,43905
41191,43905
41191,45050
40264,45050
" /> 
<polyline style="fill-rule:evenodd;"
points="43895,46526
43895,45599
45040,45599
45040,46526
43895,46526
" /> 
<polyline style="fill-rule:evenodd;"
points="44004,45247
44004,44102
44931,44102
44931,45247
44004,45247
" /> 
<polyline style="fill-rule:evenodd;"
points="44004,48023
44004,46878
44931,46878
44931,48023
44004,48023
" /> 
<circle cx="40256" cy="45374" r="270.472" /> 
<circle cx="40256" cy="46752" r="270.472" /> 
<polyline style="fill-rule:evenodd;"
points="40264,34834
40264,33689
41191,33689
41191,34834
40264,34834
" /> 
<polyline style="fill-rule:evenodd;"
points="40264,31664
40264,30519
41191,30519
41191,31664
40264,31664
" /> 
<polyline style="fill-rule:evenodd;"
points="43895,33140
43895,32213
45040,32213
45040,33140
43895,33140
" /> 
<polyline style="fill-rule:evenodd;"
points="44004,31861
44004,30716
44931,30716
44931,31861
44004,31861
" /> 
<polyline style="fill-rule:evenodd;"
points="44004,34637
44004,33492
44931,33492
44931,34637
44004,34637
" /> 
<circle cx="40256" cy="31988" r="270.472" /> 
<circle cx="40256" cy="33366" r="270.472" /> 
<circle cx="62007" cy="48622" r="247.472" /> 
<circle cx="63189" cy="48622" r="247.472" /> 
<polyline style="fill-rule:evenodd;"
points="54066,45480
54066,46369
53414,46369
53414,45480
54066,45480
" /> 
<polyline style="fill-rule:evenodd;"
points="54066,46740
54066,47629
53414,47629
53414,46740
54066,46740
" /> 
<polyline style="fill-rule:evenodd;"
points="51900,46740
51900,47629
51248,47629
51248,46740
51900,46740
" /> 
<polyline style="fill-rule:evenodd;"
points="51900,45480
51900,46369
51248,46369
51248,45480
51900,45480
" /> 
<polyline style="fill-rule:evenodd;"
points="51819,43375
52510,43375
52510,43866
51819,43866
51819,43375
" /> 
<polyline style="fill-rule:evenodd;"
points="51819,44125
52510,44125
52510,44616
51819,44616
51819,44125
" /> 
<polyline style="fill-rule:evenodd;"
points="75954,44400
75954,43669
76645,43669
76645,44400
75954,44400
" /> 
<polyline style="fill-rule:evenodd;"
points="77292,44400
77292,43669
77983,43669
77983,44400
77292,44400
" /> 
<polyline style="fill-rule:evenodd;"
points="75954,46684
75954,45953
76645,45953
76645,46684
75954,46684
" /> 
<polyline style="fill-rule:evenodd;"
points="77292,46684
77292,45953
77983,45953
77983,46684
77292,46684
" /> 
<circle cx="76378" cy="45177" r="151.472" /> 
<circle cx="77560" cy="45177" r="151.472" /> 
<circle cx="50000" cy="47440" r="151.472" /> 
<circle cx="50000" cy="48622" r="151.472" /> 
<circle cx="46752" cy="47440" r="151.472" /> 
<circle cx="46752" cy="48622" r="151.472" /> 
<polyline style="fill-rule:evenodd;"
points="49105,40992
49105,41487
48728,41487
48728,40992
49105,40992
" /> 
<polyline style="fill-rule:evenodd;"
points="48515,40992
48515,41487
48138,41487
48138,40992
48515,40992
" /> 
<polyline style="fill-rule:evenodd;"
points="48138,38338
48138,37843
48515,37843
48515,38338
48138,38338
" /> 
<polyline style="fill-rule:evenodd;"
points="48728,38338
48728,37843
49105,37843
49105,38338
48728,38338
" /> 
<polyline style="fill-rule:evenodd;"
points="41822,48374
41822,48869
41445,48869
41445,48374
41822,48374
" /> 
<polyline style="fill-rule:evenodd;"
points="41232,48374
41232,48869
40855,48869
40855,48374
41232,48374
" /> 
<polyline style="fill-rule:evenodd;"
points="45126,46760
45621,46760
45621,47137
45126,47137
45126,46760
" /> 
<polyline style="fill-rule:evenodd;"
points="45126,47350
45621,47350
45621,47727
45126,47727
45126,47350
" /> 
<polyline style="fill-rule:evenodd;"
points="44577,48374
44577,48869
44200,48869
44200,48374
44577,48374
" /> 
<polyline style="fill-rule:evenodd;"
points="43987,48374
43987,48869
43610,48869
43610,48374
43987,48374
" /> 
<polyline style="fill-rule:evenodd;"
points="40264,43751
40264,43256
40641,43256
40641,43751
40264,43751
" /> 
<polyline style="fill-rule:evenodd;"
points="40854,43751
40854,43256
41231,43256
41231,43751
40854,43751
" /> 
<polyline style="fill-rule:evenodd;"
points="41428,39811
41428,40306
41051,40306
41051,39811
41428,39811
" /> 
<polyline style="fill-rule:evenodd;"
points="40838,39811
40838,40306
40461,40306
40461,39811
40838,39811
" /> 
<polyline style="fill-rule:evenodd;"
points="40953,38731
40953,38236
41330,38236
41330,38731
40953,38731
" /> 
<polyline style="fill-rule:evenodd;"
points="41543,38731
41543,38236
41920,38236
41920,38731
41543,38731
" /> 
<polyline style="fill-rule:evenodd;"
points="40461,39716
40461,39221
40838,39221
40838,39716
40461,39716
" /> 
<polyline style="fill-rule:evenodd;"
points="41051,39716
41051,39221
41428,39221
41428,39716
41051,39716
" /> 
<polyline style="fill-rule:evenodd;"
points="40461,40897
40461,40402
40838,40402
40838,40897
40461,40897
" /> 
<polyline style="fill-rule:evenodd;"
points="41051,40897
41051,40402
41428,40402
41428,40897
41051,40897
" /> 
<polyline style="fill-rule:evenodd;"
points="44440,43101
43945,43101
43945,42724
44440,42724
44440,43101
" /> 
<polyline style="fill-rule:evenodd;"
points="44440,42511
43945,42511
43945,42134
44440,42134
44440,42511
" /> 
<polyline style="fill-rule:evenodd;"
points="46701,39969
47196,39969
47196,40346
46701,40346
46701,39969
" /> 
<polyline style="fill-rule:evenodd;"
points="46701,40559
47196,40559
47196,40936
46701,40936
46701,40559
" /> 
<polyline style="fill-rule:evenodd;"
points="46701,38394
47196,38394
47196,38771
46701,38771
46701,38394
" /> 
<polyline style="fill-rule:evenodd;"
points="46701,38984
47196,38984
47196,39361
46701,39361
46701,38984
" /> 
<polyline style="fill-rule:evenodd;"
points="43849,43101
43354,43101
43354,42724
43849,42724
43849,43101
" /> 
<polyline style="fill-rule:evenodd;"
points="43849,42511
43354,42511
43354,42134
43849,42134
43849,42511
" /> 
<polyline style="fill-rule:evenodd;"
points="45792,43080
45442,43430
45175,43163
45525,42813
45792,43080
" /> 
<polyline style="fill-rule:evenodd;"
points="45375,42663
45025,43013
44758,42746
45108,42396
45375,42663
" /> 
<polyline style="fill-rule:evenodd;"
points="46940,36957
46940,37452
46563,37452
46563,36957
46940,36957
" /> 
<polyline style="fill-rule:evenodd;"
points="46350,36957
46350,37452
45973,37452
45973,36957
46350,36957
" /> 
<polyline style="fill-rule:evenodd;"
points="44043,35540
44538,35540
44538,35917
44043,35917
44043,35540
" /> 
<polyline style="fill-rule:evenodd;"
points="44043,36130
44538,36130
44538,36507
44043,36507
44043,36130
" /> 
<polyline style="fill-rule:evenodd;"
points="46152,31248
46152,31743
45775,31743
45775,31248
46152,31248
" /> 
<polyline style="fill-rule:evenodd;"
points="45562,31248
45562,31743
45185,31743
45185,31248
45562,31248
" /> 
<polyline style="fill-rule:evenodd;"
points="46152,30658
46152,31152
45775,31152
45775,30658
46152,30658
" /> 
<polyline style="fill-rule:evenodd;"
points="45562,30658
45562,31152
45185,31152
45185,30658
45562,30658
" /> 
<polyline style="fill-rule:evenodd;"
points="42725,30365
42725,29870
43102,29870
43102,30365
42725,30365
" /> 
<polyline style="fill-rule:evenodd;"
points="43315,30365
43315,29870
43692,29870
43692,30365
43315,30365
" /> 
<polyline style="fill-rule:evenodd;"
points="51977,48180
51977,47685
52354,47685
52354,48180
51977,48180
" /> 
<polyline style="fill-rule:evenodd;"
points="52567,48180
52567,47685
52944,47685
52944,48180
52567,48180
" /> 
<polyline style="fill-rule:evenodd;"
points="51977,45424
51977,44929
52354,44929
52354,45424
51977,45424
" /> 
<polyline style="fill-rule:evenodd;"
points="52567,45424
52567,44929
52944,44929
52944,45424
52567,45424
" /> 
<polyline style="fill-rule:evenodd;"
points="77550,42862
77550,43357
77173,43357
77173,42862
77550,42862
" /> 
<polyline style="fill-rule:evenodd;"
points="76960,42862
76960,43357
76583,43357
76583,42862
76960,42862
" /> 
<polyline style="fill-rule:evenodd;"
points="58219,48514
57724,48514
57724,48138
58219,48138
58219,48514
" /> 
<polyline style="fill-rule:evenodd;"
points="58219,47924
57724,47924
57724,47548
58219,47548
58219,47924
" /> 
<polyline style="fill-rule:evenodd;"
points="54378,47548
54873,47548
54873,47924
54378,47924
54378,47548
" /> 
<polyline style="fill-rule:evenodd;"
points="54378,48138
54873,48138
54873,48514
54378,48514
54378,48138
" /> 
<polyline style="fill-rule:evenodd;"
points="59833,44339
59833,44834
59456,44834
59456,44339
59833,44339
" /> 
<polyline style="fill-rule:evenodd;"
points="59243,44339
59243,44834
58866,44834
58866,44339
59243,44339
" /> 
<polyline style="fill-rule:evenodd;"
points="53593,31585
53098,31585
53098,31208
53593,31208
53593,31585
" /> 
<polyline style="fill-rule:evenodd;"
points="53593,30995
53098,30995
53098,30618
53593,30618
53593,30995
" /> 
<polyline style="fill-rule:evenodd;"
points="54184,31585
53689,31585
53689,31208
54184,31208
54184,31585
" /> 
<polyline style="fill-rule:evenodd;"
points="54184,30995
53689,30995
53689,30618
54184,30618
54184,30995
" /> 
<polyline style="fill-rule:evenodd;"
points="54775,31585
54280,31585
54280,31208
54775,31208
54775,31585
" /> 
<polyline style="fill-rule:evenodd;"
points="54775,30995
54280,30995
54280,30618
54775,30618
54775,30995
" /> 
<polyline style="fill-rule:evenodd;"
points="55365,31585
54870,31585
54870,31208
55365,31208
55365,31585
" /> 
<polyline style="fill-rule:evenodd;"
points="55365,30995
54870,30995
54870,30618
55365,30618
55365,30995
" /> 
<polyline style="fill-rule:evenodd;"
points="55956,31585
55461,31585
55461,31208
55956,31208
55956,31585
" /> 
<polyline style="fill-rule:evenodd;"
points="55956,30995
55461,30995
55461,30618
55956,30618
55956,30995
" /> 
<polyline style="fill-rule:evenodd;"
points="61014,31150
61014,31645
60638,31645
60638,31150
61014,31150
" /> 
<polyline style="fill-rule:evenodd;"
points="60424,31150
60424,31645
60048,31645
60048,31150
60424,31150
" /> 
<polyline style="fill-rule:evenodd;"
points="47390,34555
47885,34555
47885,34932
47390,34932
47390,34555
" /> 
<polyline style="fill-rule:evenodd;"
points="47390,35145
47885,35145
47885,35522
47390,35522
47390,35145
" /> 
<polyline style="fill-rule:evenodd;"
points="48771,32471
48276,32471
48276,32094
48771,32094
48771,32471
" /> 
<polyline style="fill-rule:evenodd;"
points="48771,31881
48276,31881
48276,31504
48771,31504
48771,31881
" /> 
<polyline style="fill-rule:evenodd;"
points="59833,44929
59833,45424
59456,45424
59456,44929
59833,44929
" /> 
<polyline style="fill-rule:evenodd;"
points="59243,44929
59243,45424
58866,45424
58866,44929
59243,44929
" /> 
<polyline style="fill-rule:evenodd;"
points="60107,39542
60457,39892
60191,40158
59841,39808
60107,39542
" /> 
<polyline style="fill-rule:evenodd;"
points="59690,39959
60040,40309
59774,40575
59424,40225
59690,39959
" /> 
<polyline style="fill-rule:evenodd;"
points="53551,40208
53551,39713
53928,39713
53928,40208
53551,40208
" /> 
<polyline style="fill-rule:evenodd;"
points="54141,40208
54141,39713
54518,39713
54518,40208
54141,40208
" /> 
<polyline style="fill-rule:evenodd;"
points="52606,43512
53101,43512
53101,43889
52606,43889
52606,43512
" /> 
<polyline style="fill-rule:evenodd;"
points="52606,44102
53101,44102
53101,44479
52606,44479
52606,44102
" /> 
<polyline style="fill-rule:evenodd;"
points="61048,44261
60698,44611
60431,44344
60781,43994
61048,44261
" /> 
<polyline style="fill-rule:evenodd;"
points="60631,43844
60281,44194
60014,43927
60364,43577
60631,43844
" /> 
<polyline style="fill-rule:evenodd;"
points="53355,44932
53355,44437
53732,44437
53732,44932
53355,44932
" /> 
<polyline style="fill-rule:evenodd;"
points="53945,44932
53945,44437
54322,44437
54322,44932
53945,44932
" /> 
<polyline style="fill-rule:evenodd;"
points="67272,33473
67767,33473
67767,33850
67272,33850
67272,33473
" /> 
<polyline style="fill-rule:evenodd;"
points="67272,34063
67767,34063
67767,34440
67272,34440
67272,34063
" /> 
<polyline style="fill-rule:evenodd;"
points="45224,44792
45719,44792
45719,45169
45224,45169
45224,44792
" /> 
<polyline style="fill-rule:evenodd;"
points="45224,45382
45719,45382
45719,45759
45224,45759
45224,45382
" /> 
<polyline style="fill-rule:evenodd;"
points="49850,44398
50345,44398
50345,44775
49850,44775
49850,44398
" /> 
<polyline style="fill-rule:evenodd;"
points="49850,44988
50345,44988
50345,45365
49850,45365
49850,44988
" /> 
<polyline style="fill-rule:evenodd;"
points="67057,34004
67057,34695
66566,34695
66566,34004
67057,34004
" /> 
<polyline style="fill-rule:evenodd;"
points="66307,34004
66307,34695
65816,34695
65816,34004
66307,34004
" /> 
<polyline style="fill-rule:evenodd;"
points="65816,32530
65816,31839
66307,31839
66307,32530
65816,32530
" /> 
<polyline style="fill-rule:evenodd;"
points="66566,32530
66566,31839
67057,31839
67057,32530
66566,32530
" /> 
<polyline style="fill-rule:evenodd;"
points="67157,33472
67157,33813
66716,33813
66716,33472
67157,33472
" /> 
<polyline style="fill-rule:evenodd;"
points="67157,32722
67157,33063
66716,33063
66716,32722
67157,32722
" /> 
<polyline style="fill-rule:evenodd;"
points="66157,33472
66157,33813
65716,33813
65716,33472
66157,33472
" /> 
<polyline style="fill-rule:evenodd;"
points="67157,33097
67157,33438
66716,33438
66716,33097
67157,33097
" /> 
<polyline style="fill-rule:evenodd;"
points="66157,32722
66157,33063
65716,33063
65716,32722
66157,32722
" /> 
<polyline style="fill-rule:evenodd;"
points="76251,34617
75519,34617
75519,33885
76251,33885
76251,34617
" /> 
<circle cx="75885.8" cy="33267.7" r="365.972" /> 
<circle cx="75885.8" cy="32283.7" r="365.972" /> 
<polyline style="fill-rule:evenodd;"
points="76822,35736
76822,36113
76464,36113
76464,35736
76822,35736
" /> 
<polyline style="fill-rule:evenodd;"
points="76094,35992
76094,36369
75736,36369
75736,35992
76094,35992
" /> 
<polyline style="fill-rule:evenodd;"
points="76094,35480
76094,35857
75736,35857
75736,35480
76094,35480
" /> 
<polyline style="fill-rule:evenodd;"
points="76330,37508
76330,37885
75972,37885
75972,37508
76330,37508
" /> 
<polyline style="fill-rule:evenodd;"
points="75601,37764
75601,38141
75244,38141
75244,37764
75601,37764
" /> 
<polyline style="fill-rule:evenodd;"
points="75601,37252
75601,37629
75244,37629
75244,37252
75601,37252
" /> 
<polyline style="fill-rule:evenodd;"
points="61622,30165
61999,30165
61999,30523
61622,30523
61622,30165
" /> 
<polyline style="fill-rule:evenodd;"
points="61878,30894
62255,30894
62255,31251
61878,31251
61878,30894
" /> 
<polyline style="fill-rule:evenodd;"
points="61366,30894
61743,30894
61743,31251
61366,31251
61366,30894
" /> 
<polyline style="fill-rule:evenodd;"
points="44496,43948
44496,43453
44873,43453
44873,43948
44496,43948
" /> 
<polyline style="fill-rule:evenodd;"
points="45086,43948
45086,43453
45463,43453
45463,43948
45086,43948
" /> 
<polyline style="fill-rule:evenodd;"
points="74654,35540
75149,35540
75149,35917
74654,35917
74654,35540
" /> 
<polyline style="fill-rule:evenodd;"
points="74654,36130
75149,36130
75149,36507
74654,36507
74654,36130
" /> 
<polyline style="fill-rule:evenodd;"
points="43849,36507
43354,36507
43354,36130
43849,36130
43849,36507
" /> 
<polyline style="fill-rule:evenodd;"
points="43849,35917
43354,35917
43354,35540
43849,35540
43849,35917
" /> 
<polyline style="fill-rule:evenodd;"
points="43259,36507
42764,36507
42764,36130
43259,36130
43259,36507
" /> 
<polyline style="fill-rule:evenodd;"
points="43259,35917
42764,35917
42764,35540
43259,35540
43259,35917
" /> 
<polyline style="fill-rule:evenodd;"
points="46760,43948
46760,43453
47137,43453
47137,43948
46760,43948
" /> 
<polyline style="fill-rule:evenodd;"
points="47350,43948
47350,43453
47727,43453
47727,43948
47350,43948
" /> 
<polyline style="fill-rule:evenodd;"
points="46760,43357
46760,42862
47137,42862
47137,43357
46760,43357
" /> 
<polyline style="fill-rule:evenodd;"
points="47350,43357
47350,42862
47727,42862
47727,43357
47350,43357
" /> 
<polyline style="fill-rule:evenodd;"
points="42668,36507
42173,36507
42173,36130
42668,36130
42668,36507
" /> 
<polyline style="fill-rule:evenodd;"
points="42668,35917
42173,35917
42173,35540
42668,35540
42668,35917
" /> 
<polyline style="fill-rule:evenodd;"
points="45973,36861
45973,36366
46350,36366
46350,36861
45973,36861
" /> 
<polyline style="fill-rule:evenodd;"
points="46563,36861
46563,36366
46940,36366
46940,36861
46563,36861
" /> 
<polyline style="fill-rule:evenodd;"
points="47291,40559
47786,40559
47786,40936
47291,40936
47291,40559
" /> 
<polyline style="fill-rule:evenodd;"
points="47291,41149
47786,41149
47786,41526
47291,41526
47291,41149
" /> 
<polyline style="fill-rule:evenodd;"
points="47786,40148
47291,40148
47291,39771
47786,39771
47786,40148
" /> 
<polyline style="fill-rule:evenodd;"
points="47786,39558
47291,39558
47291,39181
47786,39181
47786,39558
" /> 
<polyline style="fill-rule:evenodd;"
points="73866,35540
74361,35540
74361,35917
73866,35917
73866,35540
" /> 
<polyline style="fill-rule:evenodd;"
points="73866,36130
74361,36130
74361,36507
73866,36507
73866,36130
" /> 
<polyline style="fill-rule:evenodd;"
points="77944,35677
77944,36172
77567,36172
77567,35677
77944,35677
" /> 
<polyline style="fill-rule:evenodd;"
points="77354,35677
77354,36172
76977,36172
76977,35677
77354,35677
" /> 
<polyline style="fill-rule:evenodd;"
points="75402,37058
75402,36563
75779,36563
75779,37058
75402,37058
" /> 
<polyline style="fill-rule:evenodd;"
points="75992,37058
75992,36563
76369,36563
76369,37058
75992,37058
" /> 
<polyline style="fill-rule:evenodd;"
points="76270,38335
76270,38830
75893,38830
75893,38335
76270,38335
" /> 
<polyline style="fill-rule:evenodd;"
points="75680,38335
75680,38830
75303,38830
75303,38335
75680,38335
" /> 
<polyline style="fill-rule:evenodd;"
points="43200,48374
43200,48869
42823,48869
42823,48374
43200,48374
" /> 
<polyline style="fill-rule:evenodd;"
points="42610,48374
42610,48869
42233,48869
42233,48374
42610,48374
" /> 
<polyline style="fill-rule:evenodd;"
points="41642,43751
41642,43256
42019,43256
42019,43751
41642,43751
" /> 
<polyline style="fill-rule:evenodd;"
points="42232,43751
42232,43256
42609,43256
42609,43751
42232,43751
" /> 
<polyline style="fill-rule:evenodd;"
points="76133,41625
75638,41625
75638,41248
76133,41248
76133,41625
" /> 
<polyline style="fill-rule:evenodd;"
points="76133,41035
75638,41035
75638,40658
76133,40658
76133,41035
" /> 
<polyline style="fill-rule:evenodd;"
points="76270,39516
76270,40011
75893,40011
75893,39516
76270,39516
" /> 
<polyline style="fill-rule:evenodd;"
points="75680,39516
75680,40011
75303,40011
75303,39516
75680,39516
" /> 
<polyline style="fill-rule:evenodd;"
points="76270,38925
76270,39420
75893,39420
75893,38925
76270,38925
" /> 
<polyline style="fill-rule:evenodd;"
points="75680,38925
75680,39420
75303,39420
75303,38925
75680,38925
" /> 
<polyline style="fill-rule:evenodd;"
points="76133,42707
75638,42707
75638,42330
76133,42330
76133,42707
" /> 
<polyline style="fill-rule:evenodd;"
points="76133,42117
75638,42117
75638,41740
76133,41740
76133,42117
" /> 
<polyline style="fill-rule:evenodd;"
points="66093,36900
65598,36900
65598,36523
66093,36523
66093,36900
" /> 
<polyline style="fill-rule:evenodd;"
points="66093,36310
65598,36310
65598,35933
66093,35933
66093,36310
" /> 
<polyline style="fill-rule:evenodd;"
points="66684,36900
66189,36900
66189,36523
66684,36523
66684,36900
" /> 
<polyline style="fill-rule:evenodd;"
points="66684,36310
66189,36310
66189,35933
66684,35933
66684,36310
" /> 
<polyline style="fill-rule:evenodd;"
points="73475,36802
72980,36802
72980,36425
73475,36425
73475,36802
" /> 
<polyline style="fill-rule:evenodd;"
points="73475,36212
72980,36212
72980,35835
73475,35835
73475,36212
" /> 
<polyline style="fill-rule:evenodd;"
points="46940,35776
46940,36271
46563,36271
46563,35776
46940,35776
" /> 
<polyline style="fill-rule:evenodd;"
points="46350,35776
46350,36271
45973,36271
45973,35776
46350,35776
" /> 
<polyline style="fill-rule:evenodd;"
points="45185,32334
45185,31839
45562,31839
45562,32334
45185,32334
" /> 
<polyline style="fill-rule:evenodd;"
points="45775,32334
45775,31839
46152,31839
46152,32334
45775,32334
" /> 
<polyline style="fill-rule:evenodd;"
points="46802,32274
46307,32274
46307,31897
46802,31897
46802,32274
" /> 
<polyline style="fill-rule:evenodd;"
points="46802,31684
46307,31684
46307,31307
46802,31307
46802,31684
" /> 
<polyline style="fill-rule:evenodd;"
points="41347,30365
41347,29870
41724,29870
41724,30365
41347,30365
" /> 
<polyline style="fill-rule:evenodd;"
points="41937,30365
41937,29870
42314,29870
42314,30365
41937,30365
" /> 
<polyline style="fill-rule:evenodd;"
points="65008,35933
65503,35933
65503,36310
65008,36310
65008,35933
" /> 
<polyline style="fill-rule:evenodd;"
points="65008,36523
65503,36523
65503,36900
65008,36900
65008,36523
" /> 
<polyline style="fill-rule:evenodd;"
points="64417,35933
64912,35933
64912,36310
64417,36310
64417,35933
" /> 
<polyline style="fill-rule:evenodd;"
points="64417,36523
64912,36523
64912,36900
64417,36900
64417,36523
" /> 
<polyline style="fill-rule:evenodd;"
points="46760,42767
46760,42272
47137,42272
47137,42767
46760,42767
" /> 
<polyline style="fill-rule:evenodd;"
points="47350,42767
47350,42272
47727,42272
47727,42767
47350,42767
" /> 
<polyline style="fill-rule:evenodd;"
points="75697,47590
75697,47095
76074,47095
76074,47590
75697,47590
" /> 
<polyline style="fill-rule:evenodd;"
points="76287,47590
76287,47095
76664,47095
76664,47590
76287,47590
" /> 
<polyline style="fill-rule:evenodd;"
points="55717,47097
55717,46602
56094,46602
56094,47097
55717,47097
" /> 
<polyline style="fill-rule:evenodd;"
points="56307,47097
56307,46602
56684,46602
56684,47097
56307,47097
" /> 
<polyline style="fill-rule:evenodd;"
points="46760,42176
46760,41681
47137,41681
47137,42176
46760,42176
" /> 
<polyline style="fill-rule:evenodd;"
points="47350,42176
47350,41681
47727,41681
47727,42176
47350,42176
" /> 
<polyline style="fill-rule:evenodd;"
points="45185,32924
45185,32429
45562,32429
45562,32924
45185,32924
" /> 
<polyline style="fill-rule:evenodd;"
points="45775,32924
45775,32429
46152,32429
46152,32924
45775,32924
" /> 
<polyline style="fill-rule:evenodd;"
points="61900,40697
61900,41192
61523,41192
61523,40697
61900,40697
" /> 
<polyline style="fill-rule:evenodd;"
points="61310,40697
61310,41192
60933,41192
60933,40697
61310,40697
" /> 
<polyline style="fill-rule:evenodd;"
points="61327,31841
61327,31347
61704,31347
61704,31841
61327,31841
" /> 
<polyline style="fill-rule:evenodd;"
points="61917,31841
61917,31347
62294,31347
62294,31841
61917,31841
" /> 
<polyline style="fill-rule:evenodd;"
points="64674,30956
64674,30461
65050,30461
65050,30956
64674,30956
" /> 
<polyline style="fill-rule:evenodd;"
points="65264,30956
65264,30461
65640,30461
65640,30956
65264,30956
" /> 
<polyline style="fill-rule:evenodd;"
points="50835,30323
51330,30323
51330,30700
50835,30700
50835,30323
" /> 
<polyline style="fill-rule:evenodd;"
points="50835,30913
51330,30913
51330,31290
50835,31290
50835,30913
" /> 
<polyline style="fill-rule:evenodd;"
points="60877,36900
60382,36900
60382,36523
60877,36523
60877,36900
" /> 
<polyline style="fill-rule:evenodd;"
points="60877,36310
60382,36310
60382,35933
60877,35933
60877,36310
" /> 
<polyline style="fill-rule:evenodd;"
points="46406,44792
46901,44792
46901,45169
46406,45169
46406,44792
" /> 
<polyline style="fill-rule:evenodd;"
points="46406,45382
46901,45382
46901,45759
46406,45759
46406,45382
" /> 
<polyline style="fill-rule:evenodd;"
points="50936,45365
50441,45365
50441,44988
50936,44988
50936,45365
" /> 
<polyline style="fill-rule:evenodd;"
points="50936,44775
50441,44775
50441,44398
50936,44398
50936,44775
" /> 
<polyline style="fill-rule:evenodd;"
points="45815,44792
46310,44792
46310,45169
45815,45169
45815,44792
" /> 
<polyline style="fill-rule:evenodd;"
points="45815,45382
46310,45382
46310,45759
45815,45759
45815,45382
" /> 
<polyline style="fill-rule:evenodd;"
points="51527,45365
51032,45365
51032,44988
51527,44988
51527,45365
" /> 
<polyline style="fill-rule:evenodd;"
points="51527,44775
51032,44775
51032,44398
51527,44398
51527,44775
" /> 
<polyline style="fill-rule:evenodd;"
points="51330,32373
50835,32373
50835,31996
51330,31996
51330,32373
" /> 
<polyline style="fill-rule:evenodd;"
points="51330,31783
50835,31783
50835,31406
51330,31406
51330,31783
" /> 
<polyline style="fill-rule:evenodd;"
points="49401,40877
48787,40877
48787,40027
49401,40027
49401,40877
" /> 
<polyline style="fill-rule:evenodd;"
points="49401,39302
48787,39302
48787,38453
49401,38453
49401,39302
" /> 
<polyline style="fill-rule:evenodd;"
points="48456,39302
47842,39302
47842,38453
48456,38453
48456,39302
" /> 
<polyline style="fill-rule:evenodd;"
points="48456,40877
47842,40877
47842,40027
48456,40027
48456,40877
" /> 
<polyline style="fill-rule:evenodd;"
points="47110,48664
47110,47423
47542,47423
47542,48664
47110,48664
" /> 
<polyline style="fill-rule:evenodd;"
points="47110,47064
47110,45823
47542,45823
47542,47064
47110,47064
" /> 
<polyline style="fill-rule:evenodd;"
points="47610,48664
47610,47423
48042,47423
48042,48664
47610,48664
" /> 
<polyline style="fill-rule:evenodd;"
points="47610,47064
47610,45823
48042,45823
48042,47064
47610,47064
" /> 
<polyline style="fill-rule:evenodd;"
points="48110,48664
48110,47423
48542,47423
48542,48664
48110,48664
" /> 
<polyline style="fill-rule:evenodd;"
points="48110,47064
48110,45823
48542,45823
48542,47064
48110,47064
" /> 
<polyline style="fill-rule:evenodd;"
points="48610,48664
48610,47423
49042,47423
49042,48664
48610,48664
" /> 
<polyline style="fill-rule:evenodd;"
points="48610,47064
48610,45823
49042,45823
49042,47064
48610,47064
" /> 
<polyline style="fill-rule:evenodd;"
points="49110,48664
49110,47423
49542,47423
49542,48664
49110,48664
" /> 
<polyline style="fill-rule:evenodd;"
points="49110,47064
49110,45823
49542,45823
49542,47064
49110,47064
" /> 
<polyline style="fill-rule:evenodd;"
points="50641,43790
50146,43790
50146,43413
50641,43413
50641,43790
" /> 
<polyline style="fill-rule:evenodd;"
points="50641,43200
50146,43200
50146,42823
50641,42823
50641,43200
" /> 
</g>
<g style="fill:#000000; fill-opacity:1.0; 
stroke:#000000; stroke-width:751; stroke-opacity:1; 
stroke-linecap:round; stroke-linejoin:round;">
<path d="M55315 48503
L55551 48503
" />
</g>
<g style="fill:#000000; fill-opacity:1.0; 
stroke:#000000; stroke-width:59.0551; stroke-opacity:1; 
stroke-linecap:round; stroke-linejoin:round;">
<polyline style="fill-rule:evenodd;"
points="56740,48849
56740,48157
57590,48157
57590,48849
56740,48849
" /> 
<polyline style="fill-rule:evenodd;"
points="56740,47905
56740,47213
57590,47213
57590,47905
56740,47905
" /> 
<polyline style="fill-rule:evenodd;"
points="55008,47905
55008,47213
55858,47213
55858,47905
55008,47905
" /> 
</g> 
</svg>
