G04 (created by PCBNEW-RS274X (2012-jan-04)-stable) date Tue 06 Mar 2012 12:01:17 GMT*
G01*
G70*
G90*
%MOIN*%
G04 Gerber Fmt 3.4, Leading zero omitted, Abs format*
%FSLAX34Y34*%
G04 APERTURE LIST*
%ADD10C,0.006000*%
%ADD11C,0.012000*%
%ADD12R,0.028000X0.039000*%
%ADD13R,0.035000X0.055000*%
%ADD14C,0.078700*%
%ADD15R,0.011800X0.043300*%
%ADD16R,0.055000X0.035000*%
%ADD17C,0.065000*%
%ADD18R,0.065000X0.065000*%
%ADD19C,0.236200*%
%ADD20C,0.011800*%
%ADD21C,0.050000*%
%ADD22C,0.010000*%
G04 APERTURE END LIST*
G54D10*
G54D11*
X50607Y-29020D02*
X50493Y-29020D01*
X50435Y-28982D01*
X50378Y-28906D01*
X50350Y-28754D01*
X50350Y-28487D01*
X50378Y-28334D01*
X50435Y-28258D01*
X50493Y-28220D01*
X50607Y-28220D01*
X50664Y-28258D01*
X50721Y-28334D01*
X50750Y-28487D01*
X50750Y-28754D01*
X50721Y-28906D01*
X50664Y-28982D01*
X50607Y-29020D01*
X50121Y-28258D02*
X50035Y-28220D01*
X49892Y-28220D01*
X49835Y-28258D01*
X49806Y-28296D01*
X49778Y-28373D01*
X49778Y-28449D01*
X49806Y-28525D01*
X49835Y-28563D01*
X49892Y-28601D01*
X50006Y-28639D01*
X50064Y-28677D01*
X50092Y-28715D01*
X50121Y-28792D01*
X50121Y-28868D01*
X50092Y-28944D01*
X50064Y-28982D01*
X50006Y-29020D01*
X49864Y-29020D01*
X49778Y-28982D01*
X49521Y-28220D02*
X49521Y-29020D01*
X49521Y-28639D02*
X49178Y-28639D01*
X49178Y-28220D02*
X49178Y-29020D01*
X48949Y-29020D02*
X48806Y-28220D01*
X48692Y-28792D01*
X48578Y-28220D01*
X48435Y-29020D01*
X65894Y-32690D02*
X65856Y-32661D01*
X65818Y-32575D01*
X65818Y-32518D01*
X65856Y-32433D01*
X65932Y-32375D01*
X66009Y-32347D01*
X66161Y-32318D01*
X66275Y-32318D01*
X66428Y-32347D01*
X66504Y-32375D01*
X66580Y-32433D01*
X66618Y-32518D01*
X66618Y-32575D01*
X66580Y-32661D01*
X66542Y-32690D01*
X65818Y-33033D02*
X65856Y-32975D01*
X65894Y-32947D01*
X65971Y-32918D01*
X66199Y-32918D01*
X66275Y-32947D01*
X66313Y-32975D01*
X66352Y-33033D01*
X66352Y-33118D01*
X66313Y-33175D01*
X66275Y-33204D01*
X66199Y-33233D01*
X65971Y-33233D01*
X65894Y-33204D01*
X65856Y-33175D01*
X65818Y-33118D01*
X65818Y-33033D01*
X66352Y-33490D02*
X65552Y-33490D01*
X66313Y-33490D02*
X66352Y-33547D01*
X66352Y-33661D01*
X66313Y-33718D01*
X66275Y-33747D01*
X66199Y-33776D01*
X65971Y-33776D01*
X65894Y-33747D01*
X65856Y-33718D01*
X65818Y-33661D01*
X65818Y-33547D01*
X65856Y-33490D01*
X66352Y-33976D02*
X65818Y-34119D01*
X66352Y-34261D02*
X65818Y-34119D01*
X65628Y-34061D01*
X65590Y-34033D01*
X65552Y-33976D01*
X65818Y-34490D02*
X66352Y-34490D01*
X66199Y-34490D02*
X66275Y-34518D01*
X66313Y-34547D01*
X66352Y-34604D01*
X66352Y-34661D01*
X65818Y-34861D02*
X66352Y-34861D01*
X66618Y-34861D02*
X66580Y-34832D01*
X66542Y-34861D01*
X66580Y-34889D01*
X66618Y-34861D01*
X66542Y-34861D01*
X66352Y-35404D02*
X65704Y-35404D01*
X65628Y-35375D01*
X65590Y-35347D01*
X65552Y-35290D01*
X65552Y-35204D01*
X65590Y-35147D01*
X65856Y-35404D02*
X65818Y-35347D01*
X65818Y-35233D01*
X65856Y-35175D01*
X65894Y-35147D01*
X65971Y-35118D01*
X66199Y-35118D01*
X66275Y-35147D01*
X66313Y-35175D01*
X66352Y-35233D01*
X66352Y-35347D01*
X66313Y-35404D01*
X65818Y-35690D02*
X66618Y-35690D01*
X65818Y-35947D02*
X66237Y-35947D01*
X66313Y-35918D01*
X66352Y-35861D01*
X66352Y-35776D01*
X66313Y-35718D01*
X66275Y-35690D01*
X66352Y-36147D02*
X66352Y-36376D01*
X66618Y-36233D02*
X65932Y-36233D01*
X65856Y-36261D01*
X65818Y-36319D01*
X65818Y-36376D01*
X66542Y-37004D02*
X66580Y-37033D01*
X66618Y-37090D01*
X66618Y-37233D01*
X66580Y-37290D01*
X66542Y-37319D01*
X66466Y-37347D01*
X66390Y-37347D01*
X66275Y-37319D01*
X65818Y-36976D01*
X65818Y-37347D01*
X66618Y-37718D02*
X66618Y-37775D01*
X66580Y-37832D01*
X66542Y-37861D01*
X66466Y-37890D01*
X66313Y-37918D01*
X66123Y-37918D01*
X65971Y-37890D01*
X65894Y-37861D01*
X65856Y-37832D01*
X65818Y-37775D01*
X65818Y-37718D01*
X65856Y-37661D01*
X65894Y-37632D01*
X65971Y-37604D01*
X66123Y-37575D01*
X66313Y-37575D01*
X66466Y-37604D01*
X66542Y-37632D01*
X66580Y-37661D01*
X66618Y-37718D01*
X65818Y-38489D02*
X65818Y-38146D01*
X65818Y-38318D02*
X66618Y-38318D01*
X66504Y-38261D01*
X66428Y-38203D01*
X66390Y-38146D01*
X66542Y-38717D02*
X66580Y-38746D01*
X66618Y-38803D01*
X66618Y-38946D01*
X66580Y-39003D01*
X66542Y-39032D01*
X66466Y-39060D01*
X66390Y-39060D01*
X66275Y-39032D01*
X65818Y-38689D01*
X65818Y-39060D01*
X64578Y-32344D02*
X65378Y-32344D01*
X64578Y-32687D01*
X65378Y-32687D01*
X64578Y-33230D02*
X64997Y-33230D01*
X65073Y-33201D01*
X65112Y-33144D01*
X65112Y-33030D01*
X65073Y-32973D01*
X64616Y-33230D02*
X64578Y-33173D01*
X64578Y-33030D01*
X64616Y-32973D01*
X64692Y-32944D01*
X64769Y-32944D01*
X64845Y-32973D01*
X64883Y-33030D01*
X64883Y-33173D01*
X64921Y-33230D01*
X65112Y-33430D02*
X65112Y-33659D01*
X65378Y-33516D02*
X64692Y-33516D01*
X64616Y-33544D01*
X64578Y-33602D01*
X64578Y-33659D01*
X64578Y-33859D02*
X65378Y-33859D01*
X64578Y-34116D02*
X64997Y-34116D01*
X65073Y-34087D01*
X65112Y-34030D01*
X65112Y-33945D01*
X65073Y-33887D01*
X65035Y-33859D01*
X64578Y-34659D02*
X64997Y-34659D01*
X65073Y-34630D01*
X65112Y-34573D01*
X65112Y-34459D01*
X65073Y-34402D01*
X64616Y-34659D02*
X64578Y-34602D01*
X64578Y-34459D01*
X64616Y-34402D01*
X64692Y-34373D01*
X64769Y-34373D01*
X64845Y-34402D01*
X64883Y-34459D01*
X64883Y-34602D01*
X64921Y-34659D01*
X65112Y-34945D02*
X64578Y-34945D01*
X65035Y-34945D02*
X65073Y-34973D01*
X65112Y-35031D01*
X65112Y-35116D01*
X65073Y-35173D01*
X64997Y-35202D01*
X64578Y-35202D01*
X64578Y-35945D02*
X65378Y-35945D01*
X65378Y-36088D01*
X65340Y-36173D01*
X65264Y-36231D01*
X65188Y-36259D01*
X65035Y-36288D01*
X64921Y-36288D01*
X64769Y-36259D01*
X64692Y-36231D01*
X64616Y-36173D01*
X64578Y-36088D01*
X64578Y-35945D01*
X65112Y-36802D02*
X64578Y-36802D01*
X65112Y-36545D02*
X64692Y-36545D01*
X64616Y-36573D01*
X64578Y-36631D01*
X64578Y-36716D01*
X64616Y-36773D01*
X64654Y-36802D01*
X64578Y-37088D02*
X65112Y-37088D01*
X65035Y-37088D02*
X65073Y-37116D01*
X65112Y-37174D01*
X65112Y-37259D01*
X65073Y-37316D01*
X64997Y-37345D01*
X64578Y-37345D01*
X64997Y-37345D02*
X65073Y-37374D01*
X65112Y-37431D01*
X65112Y-37516D01*
X65073Y-37574D01*
X64997Y-37602D01*
X64578Y-37602D01*
X64578Y-37974D02*
X64616Y-37916D01*
X64654Y-37888D01*
X64731Y-37859D01*
X64959Y-37859D01*
X65035Y-37888D01*
X65073Y-37916D01*
X65112Y-37974D01*
X65112Y-38059D01*
X65073Y-38116D01*
X65035Y-38145D01*
X64959Y-38174D01*
X64731Y-38174D01*
X64654Y-38145D01*
X64616Y-38116D01*
X64578Y-38059D01*
X64578Y-37974D01*
X65112Y-38431D02*
X64578Y-38431D01*
X65035Y-38431D02*
X65073Y-38459D01*
X65112Y-38517D01*
X65112Y-38602D01*
X65073Y-38659D01*
X64997Y-38688D01*
X64578Y-38688D01*
X65112Y-38888D02*
X65112Y-39117D01*
X65378Y-38974D02*
X64692Y-38974D01*
X64616Y-39002D01*
X64578Y-39060D01*
X64578Y-39117D01*
G54D12*
X47244Y-25119D03*
X46870Y-26063D03*
X47618Y-26063D03*
G54D13*
X46869Y-26772D03*
X47619Y-26772D03*
G54D14*
X62666Y-24016D03*
X66603Y-24016D03*
X51508Y-24016D03*
X47571Y-24016D03*
G54D15*
X57876Y-31201D03*
X58072Y-31201D03*
X58466Y-31201D03*
X58663Y-31201D03*
X58860Y-31201D03*
X59057Y-31201D03*
X59254Y-31201D03*
X59451Y-31201D03*
X59647Y-31201D03*
X59844Y-31201D03*
X60041Y-31201D03*
X60238Y-31201D03*
X60435Y-31201D03*
X60632Y-31201D03*
X57679Y-31201D03*
X55316Y-31201D03*
X55513Y-31201D03*
X55710Y-31201D03*
X55907Y-31201D03*
X56104Y-31201D03*
X56301Y-31201D03*
X56497Y-31201D03*
X56694Y-31201D03*
X56891Y-31201D03*
X57088Y-31201D03*
X57285Y-31201D03*
X58269Y-31201D03*
X57482Y-31201D03*
G54D10*
G36*
X60836Y-31142D02*
X60836Y-29922D01*
X61742Y-29922D01*
X61742Y-31142D01*
X60836Y-31142D01*
X60836Y-31142D01*
G37*
G36*
X54206Y-31142D02*
X54206Y-29922D01*
X55112Y-29922D01*
X55112Y-31142D01*
X54206Y-31142D01*
X54206Y-31142D01*
G37*
G54D13*
X52578Y-29528D03*
X53328Y-29528D03*
X52578Y-28741D03*
X53328Y-28741D03*
X52578Y-27953D03*
X53328Y-27953D03*
X52578Y-27166D03*
X53328Y-27166D03*
X52578Y-26378D03*
X53328Y-26378D03*
G54D10*
G36*
X53029Y-34111D02*
X53506Y-33836D01*
X53681Y-34139D01*
X53204Y-34414D01*
X53029Y-34111D01*
X53029Y-34111D01*
G37*
G36*
X53405Y-34761D02*
X53882Y-34486D01*
X54057Y-34789D01*
X53580Y-35064D01*
X53405Y-34761D01*
X53405Y-34761D01*
G37*
G36*
X55338Y-35667D02*
X55063Y-36144D01*
X54760Y-35969D01*
X55035Y-35492D01*
X55338Y-35667D01*
X55338Y-35667D01*
G37*
G36*
X54688Y-35293D02*
X54413Y-35770D01*
X54110Y-35595D01*
X54385Y-35118D01*
X54688Y-35293D01*
X54688Y-35293D01*
G37*
G54D16*
X53150Y-33447D03*
X53150Y-32697D03*
G54D13*
X56674Y-36024D03*
X55924Y-36024D03*
G54D16*
X67323Y-25966D03*
X67323Y-25216D03*
G54D13*
X53525Y-24016D03*
X52775Y-24016D03*
G54D17*
X52587Y-40965D03*
X53587Y-40965D03*
X54587Y-40965D03*
X55587Y-40965D03*
X56587Y-40965D03*
G54D18*
X48587Y-40965D03*
G54D17*
X49587Y-40965D03*
X50587Y-40965D03*
X51587Y-40965D03*
X61587Y-40965D03*
X62587Y-40965D03*
X63587Y-40965D03*
X64587Y-40965D03*
X65587Y-40965D03*
G54D18*
X57587Y-40965D03*
G54D17*
X58587Y-40965D03*
X59587Y-40965D03*
X60587Y-40965D03*
G54D10*
G36*
X49375Y-32841D02*
X49265Y-32251D01*
X49949Y-32251D01*
X49839Y-32841D01*
X49375Y-32841D01*
X49375Y-32841D01*
G37*
G36*
X48075Y-32110D02*
X48415Y-31615D01*
X48898Y-32098D01*
X48403Y-32438D01*
X48075Y-32110D01*
X48075Y-32110D01*
G37*
G36*
X47672Y-30674D02*
X48262Y-30564D01*
X48262Y-31248D01*
X47672Y-31138D01*
X47672Y-30674D01*
X47672Y-30674D01*
G37*
G36*
X48403Y-29374D02*
X48898Y-29714D01*
X48415Y-30197D01*
X48075Y-29702D01*
X48403Y-29374D01*
X48403Y-29374D01*
G37*
G36*
X50811Y-32438D02*
X50316Y-32098D01*
X50799Y-31615D01*
X51139Y-32110D01*
X50811Y-32438D01*
X50811Y-32438D01*
G37*
G36*
X51542Y-31138D02*
X50952Y-31248D01*
X50952Y-30564D01*
X51542Y-30674D01*
X51542Y-31138D01*
X51542Y-31138D01*
G37*
G36*
X51139Y-29702D02*
X50799Y-30197D01*
X50316Y-29714D01*
X50811Y-29374D01*
X51139Y-29702D01*
X51139Y-29702D01*
G37*
G36*
X49313Y-32300D02*
X49475Y-31398D01*
X49739Y-31398D01*
X49901Y-32300D01*
X49313Y-32300D01*
X49313Y-32300D01*
G37*
G36*
X49868Y-32306D02*
X49672Y-31411D01*
X49916Y-31310D01*
X50411Y-32081D01*
X49868Y-32306D01*
X49868Y-32306D01*
G37*
G36*
X48803Y-32081D02*
X49298Y-31310D01*
X49542Y-31411D01*
X49346Y-32306D01*
X48803Y-32081D01*
X48803Y-32081D01*
G37*
G36*
X48414Y-31683D02*
X49167Y-31160D01*
X49353Y-31346D01*
X48830Y-32099D01*
X48414Y-31683D01*
X48414Y-31683D01*
G37*
G36*
X50384Y-32099D02*
X49861Y-31346D01*
X50047Y-31160D01*
X50800Y-31683D01*
X50384Y-32099D01*
X50384Y-32099D01*
G37*
G36*
X48207Y-31167D02*
X49102Y-30971D01*
X49203Y-31215D01*
X48432Y-31710D01*
X48207Y-31167D01*
X48207Y-31167D01*
G37*
G36*
X50782Y-31710D02*
X50011Y-31215D01*
X50112Y-30971D01*
X51007Y-31167D01*
X50782Y-31710D01*
X50782Y-31710D01*
G37*
G36*
X48213Y-30612D02*
X49115Y-30774D01*
X49115Y-31038D01*
X48213Y-31200D01*
X48213Y-30612D01*
X48213Y-30612D01*
G37*
G36*
X51001Y-31200D02*
X50099Y-31038D01*
X50099Y-30774D01*
X51001Y-30612D01*
X51001Y-31200D01*
X51001Y-31200D01*
G37*
G36*
X51007Y-30645D02*
X50112Y-30841D01*
X50011Y-30597D01*
X50782Y-30102D01*
X51007Y-30645D01*
X51007Y-30645D01*
G37*
G36*
X48432Y-30102D02*
X49203Y-30597D01*
X49102Y-30841D01*
X48207Y-30645D01*
X48432Y-30102D01*
X48432Y-30102D01*
G37*
G36*
X48830Y-29713D02*
X49353Y-30466D01*
X49167Y-30652D01*
X48414Y-30129D01*
X48830Y-29713D01*
X48830Y-29713D01*
G37*
G36*
X50800Y-30129D02*
X50047Y-30652D01*
X49861Y-30466D01*
X50384Y-29713D01*
X50800Y-30129D01*
X50800Y-30129D01*
G37*
G36*
X50503Y-29828D02*
X49934Y-30533D01*
X49826Y-30461D01*
X50258Y-29665D01*
X50503Y-29828D01*
X50503Y-29828D01*
G37*
G36*
X48956Y-29665D02*
X49388Y-30461D01*
X49280Y-30533D01*
X48711Y-29828D01*
X48956Y-29665D01*
X48956Y-29665D01*
G37*
G54D19*
X69292Y-25197D03*
X69292Y-40945D03*
X44882Y-40945D03*
X44882Y-25197D03*
G54D20*
X58072Y-35480D02*
X52587Y-40965D01*
G54D21*
X66536Y-25197D02*
X66536Y-26182D01*
G54D20*
X58072Y-31201D02*
X58072Y-35480D01*
G54D21*
X67323Y-41143D02*
X66536Y-41930D01*
X66536Y-41930D02*
X53150Y-41930D01*
X53150Y-41930D02*
X52587Y-41367D01*
X52587Y-41367D02*
X52587Y-40965D01*
X67323Y-25966D02*
X67323Y-26969D01*
X67323Y-26969D02*
X67323Y-41143D01*
X61417Y-24016D02*
X53525Y-24016D01*
X61417Y-24016D02*
X62205Y-24804D01*
X62205Y-24804D02*
X66143Y-24804D01*
X66143Y-24804D02*
X66536Y-25197D01*
X66536Y-26182D02*
X67323Y-26969D01*
X67323Y-24736D02*
X66603Y-24016D01*
X67323Y-25216D02*
X67323Y-24736D01*
X52775Y-24016D02*
X51508Y-24016D01*
G54D20*
X57088Y-31201D02*
X57088Y-32086D01*
X55049Y-34125D02*
X53355Y-34125D01*
X57088Y-32086D02*
X55049Y-34125D01*
X54793Y-34775D02*
X54793Y-35050D01*
X54793Y-35050D02*
X54399Y-35444D01*
X57285Y-31201D02*
X57285Y-32283D01*
X54793Y-34775D02*
X53731Y-34775D01*
X57285Y-32283D02*
X54793Y-34775D01*
X56891Y-31201D02*
X56891Y-31889D01*
X55333Y-33447D02*
X53150Y-33447D01*
X56891Y-31889D02*
X55333Y-33447D01*
X53150Y-32697D02*
X55689Y-32697D01*
X56696Y-31201D02*
X56694Y-31201D01*
X56696Y-31690D02*
X56696Y-31201D01*
X55689Y-32697D02*
X56696Y-31690D01*
X57482Y-31201D02*
X57482Y-33385D01*
X57482Y-33385D02*
X55049Y-35818D01*
G54D21*
X47571Y-24016D02*
X47571Y-24083D01*
X47244Y-24410D02*
X47244Y-25119D01*
X47571Y-24083D02*
X47244Y-24410D01*
G54D20*
X51587Y-40965D02*
X51587Y-41720D01*
X46457Y-27184D02*
X46869Y-26772D01*
X46457Y-40945D02*
X46457Y-27184D01*
X47638Y-42126D02*
X46457Y-40945D01*
X51181Y-42126D02*
X47638Y-42126D01*
X51587Y-41720D02*
X51181Y-42126D01*
X46870Y-26771D02*
X46869Y-26772D01*
X46870Y-26063D02*
X46870Y-26771D01*
X53328Y-29528D02*
X55315Y-29528D01*
X55710Y-29923D02*
X55710Y-31201D01*
X55315Y-29528D02*
X55710Y-29923D01*
X55315Y-28741D02*
X53328Y-28741D01*
X55907Y-29333D02*
X55315Y-28741D01*
X55907Y-31201D02*
X55907Y-29333D01*
X56104Y-31201D02*
X56104Y-28742D01*
X55315Y-27953D02*
X53328Y-27953D01*
X56104Y-28742D02*
X55315Y-27953D01*
X56301Y-28152D02*
X55315Y-27166D01*
X55315Y-27166D02*
X53328Y-27166D01*
X56301Y-31201D02*
X56301Y-28152D01*
X56497Y-31201D02*
X56497Y-27560D01*
X55315Y-26378D02*
X53328Y-26378D01*
X56497Y-27560D02*
X55315Y-26378D01*
X57679Y-35019D02*
X56674Y-36024D01*
X57679Y-31201D02*
X57679Y-35019D01*
X57876Y-30514D02*
X57874Y-30512D01*
X57876Y-31201D02*
X57876Y-30514D01*
X49587Y-40965D02*
X49587Y-35453D01*
X55513Y-31889D02*
X55513Y-31201D01*
X55118Y-32284D02*
X55513Y-31889D01*
X52756Y-32284D02*
X55118Y-32284D01*
X49587Y-35453D02*
X52756Y-32284D01*
X59057Y-31201D02*
X59057Y-39495D01*
X59057Y-39495D02*
X57587Y-40965D01*
X59254Y-31201D02*
X59254Y-40298D01*
X59254Y-40298D02*
X58587Y-40965D01*
X59451Y-31201D02*
X59451Y-40829D01*
X59451Y-40829D02*
X59587Y-40965D01*
X59647Y-31201D02*
X59647Y-40025D01*
X59647Y-40025D02*
X60587Y-40965D01*
X59844Y-31201D02*
X59844Y-39222D01*
X59844Y-39222D02*
X61587Y-40965D01*
X60041Y-31201D02*
X60041Y-38419D01*
X60041Y-38419D02*
X62587Y-40965D01*
X58269Y-31201D02*
X58269Y-36283D01*
X58269Y-36283D02*
X53587Y-40965D01*
X60238Y-31201D02*
X60238Y-37616D01*
X60238Y-37616D02*
X63587Y-40965D01*
X58466Y-31201D02*
X58466Y-37086D01*
X58466Y-37086D02*
X54587Y-40965D01*
X60435Y-31201D02*
X60435Y-36813D01*
X60435Y-36813D02*
X64587Y-40965D01*
X58663Y-31201D02*
X58663Y-37889D01*
X58663Y-37889D02*
X55587Y-40965D01*
X60632Y-31201D02*
X60632Y-36010D01*
X60632Y-36010D02*
X65587Y-40965D01*
X58860Y-31201D02*
X58860Y-38692D01*
X58860Y-38692D02*
X56587Y-40965D01*
X55316Y-31201D02*
X55316Y-31693D01*
X48587Y-36059D02*
X48587Y-40965D01*
X52559Y-32087D02*
X48587Y-36059D01*
X54922Y-32087D02*
X52559Y-32087D01*
X55316Y-31693D02*
X54922Y-32087D01*
G54D10*
G36*
X66823Y-31891D02*
X64032Y-31891D01*
X64032Y-38973D01*
X60941Y-35882D01*
X60941Y-31391D01*
X61791Y-31391D01*
X61883Y-31353D01*
X61953Y-31283D01*
X61991Y-31192D01*
X61991Y-31093D01*
X61991Y-29873D01*
X61953Y-29781D01*
X61883Y-29711D01*
X61792Y-29673D01*
X61693Y-29673D01*
X60787Y-29673D01*
X60695Y-29711D01*
X60625Y-29781D01*
X60587Y-29872D01*
X60587Y-29971D01*
X60587Y-30736D01*
X60544Y-30736D01*
X60524Y-30736D01*
X60445Y-30736D01*
X60347Y-30736D01*
X60327Y-30736D01*
X60248Y-30736D01*
X60150Y-30736D01*
X60130Y-30736D01*
X60051Y-30736D01*
X59953Y-30736D01*
X59933Y-30736D01*
X59854Y-30736D01*
X59756Y-30736D01*
X59736Y-30736D01*
X59657Y-30736D01*
X59560Y-30736D01*
X59539Y-30736D01*
X59461Y-30736D01*
X59363Y-30736D01*
X59343Y-30736D01*
X59264Y-30736D01*
X59166Y-30736D01*
X59146Y-30736D01*
X59067Y-30736D01*
X58969Y-30736D01*
X58949Y-30736D01*
X58870Y-30736D01*
X58772Y-30736D01*
X58752Y-30736D01*
X58673Y-30736D01*
X58575Y-30736D01*
X58555Y-30736D01*
X58476Y-30736D01*
X58378Y-30736D01*
X58358Y-30736D01*
X58279Y-30736D01*
X58181Y-30736D01*
X58161Y-30736D01*
X58082Y-30736D01*
X57984Y-30736D01*
X57967Y-30735D01*
X57966Y-30736D01*
X57964Y-30736D01*
X57875Y-30772D01*
X57788Y-30736D01*
X57786Y-30736D01*
X57785Y-30735D01*
X57768Y-30736D01*
X57689Y-30736D01*
X57591Y-30736D01*
X57571Y-30736D01*
X57492Y-30736D01*
X57394Y-30736D01*
X57374Y-30736D01*
X57295Y-30736D01*
X57197Y-30736D01*
X57177Y-30736D01*
X57098Y-30736D01*
X57000Y-30736D01*
X56980Y-30736D01*
X56901Y-30736D01*
X56806Y-30736D01*
X56806Y-27560D01*
X56785Y-27461D01*
X56782Y-27442D01*
X56782Y-27441D01*
X56715Y-27342D01*
X56715Y-27341D01*
X55533Y-26160D01*
X55433Y-26093D01*
X55315Y-26069D01*
X53752Y-26069D01*
X53752Y-26054D01*
X53714Y-25962D01*
X53644Y-25892D01*
X53553Y-25854D01*
X53454Y-25854D01*
X53104Y-25854D01*
X53012Y-25892D01*
X52953Y-25951D01*
X52894Y-25892D01*
X52802Y-25854D01*
X52690Y-25853D01*
X52628Y-25915D01*
X52628Y-26278D01*
X52628Y-26328D01*
X52628Y-26428D01*
X52628Y-26478D01*
X52628Y-26703D01*
X52628Y-26841D01*
X52628Y-27066D01*
X52628Y-27116D01*
X52628Y-27216D01*
X52628Y-27266D01*
X52628Y-27490D01*
X52628Y-27629D01*
X52628Y-27853D01*
X52628Y-27903D01*
X52628Y-28003D01*
X52628Y-28053D01*
X52628Y-28278D01*
X52628Y-28416D01*
X52628Y-28641D01*
X52628Y-28691D01*
X52628Y-28791D01*
X52628Y-28841D01*
X52628Y-29065D01*
X52628Y-29204D01*
X52628Y-29428D01*
X52628Y-29478D01*
X52628Y-29578D01*
X52628Y-29628D01*
X52628Y-29991D01*
X52690Y-30053D01*
X52802Y-30052D01*
X52894Y-30014D01*
X52953Y-29955D01*
X53012Y-30014D01*
X53103Y-30052D01*
X53202Y-30052D01*
X53552Y-30052D01*
X53644Y-30014D01*
X53714Y-29944D01*
X53752Y-29853D01*
X53752Y-29837D01*
X53971Y-29837D01*
X53957Y-29872D01*
X53957Y-29971D01*
X53957Y-31191D01*
X53995Y-31283D01*
X54065Y-31353D01*
X54156Y-31391D01*
X54255Y-31391D01*
X55007Y-31391D01*
X55007Y-31565D01*
X54794Y-31778D01*
X52559Y-31778D01*
X52528Y-31784D01*
X52528Y-29991D01*
X52528Y-29578D01*
X52528Y-29478D01*
X52528Y-29204D01*
X52528Y-29065D01*
X52528Y-28791D01*
X52528Y-28691D01*
X52528Y-28416D01*
X52528Y-28278D01*
X52528Y-28003D01*
X52528Y-27903D01*
X52528Y-27629D01*
X52528Y-27490D01*
X52528Y-27216D01*
X52528Y-27116D01*
X52528Y-26841D01*
X52528Y-26703D01*
X52528Y-26428D01*
X52528Y-26328D01*
X52528Y-25915D01*
X52466Y-25853D01*
X52354Y-25854D01*
X52262Y-25892D01*
X52192Y-25962D01*
X52154Y-26053D01*
X52154Y-26152D01*
X52153Y-26266D01*
X52215Y-26328D01*
X52528Y-26328D01*
X52528Y-26428D01*
X52215Y-26428D01*
X52153Y-26490D01*
X52154Y-26604D01*
X52154Y-26703D01*
X52182Y-26772D01*
X52154Y-26841D01*
X52154Y-26940D01*
X52153Y-27054D01*
X52215Y-27116D01*
X52528Y-27116D01*
X52528Y-27216D01*
X52215Y-27216D01*
X52153Y-27278D01*
X52154Y-27392D01*
X52154Y-27491D01*
X52182Y-27559D01*
X52154Y-27628D01*
X52154Y-27727D01*
X52153Y-27841D01*
X52215Y-27903D01*
X52528Y-27903D01*
X52528Y-28003D01*
X52215Y-28003D01*
X52153Y-28065D01*
X52154Y-28179D01*
X52154Y-28278D01*
X52182Y-28347D01*
X52154Y-28416D01*
X52154Y-28515D01*
X52153Y-28629D01*
X52215Y-28691D01*
X52528Y-28691D01*
X52528Y-28791D01*
X52215Y-28791D01*
X52153Y-28853D01*
X52154Y-28967D01*
X52154Y-29066D01*
X52182Y-29134D01*
X52154Y-29203D01*
X52154Y-29302D01*
X52153Y-29416D01*
X52215Y-29478D01*
X52528Y-29478D01*
X52528Y-29578D01*
X52215Y-29578D01*
X52153Y-29640D01*
X52154Y-29754D01*
X52154Y-29853D01*
X52192Y-29944D01*
X52262Y-30014D01*
X52354Y-30052D01*
X52466Y-30053D01*
X52528Y-29991D01*
X52528Y-31784D01*
X52441Y-31802D01*
X52340Y-31869D01*
X51791Y-32418D01*
X51791Y-31298D01*
X51791Y-31199D01*
X51791Y-30515D01*
X51753Y-30423D01*
X51683Y-30353D01*
X51592Y-30315D01*
X51493Y-30315D01*
X51139Y-30315D01*
X51108Y-30240D01*
X51427Y-29922D01*
X51465Y-29830D01*
X51465Y-29731D01*
X51428Y-29640D01*
X51358Y-29570D01*
X51174Y-29386D01*
X51174Y-27674D01*
X48044Y-27674D01*
X48044Y-26884D01*
X48044Y-26660D01*
X48043Y-26546D01*
X48043Y-26447D01*
X48005Y-26356D01*
X47992Y-26343D01*
X48007Y-26308D01*
X48007Y-26209D01*
X48008Y-26175D01*
X48008Y-25951D01*
X48007Y-25917D01*
X48007Y-25818D01*
X47969Y-25727D01*
X47899Y-25657D01*
X47807Y-25619D01*
X47730Y-25618D01*
X47668Y-25680D01*
X47668Y-26013D01*
X47946Y-26013D01*
X48008Y-25951D01*
X48008Y-26175D01*
X47946Y-26113D01*
X47668Y-26113D01*
X47668Y-26446D01*
X47669Y-26447D01*
X47669Y-26722D01*
X47982Y-26722D01*
X48044Y-26660D01*
X48044Y-26884D01*
X47982Y-26822D01*
X47669Y-26822D01*
X47669Y-27235D01*
X47731Y-27297D01*
X47843Y-27296D01*
X47935Y-27258D01*
X48005Y-27188D01*
X48043Y-27097D01*
X48043Y-26998D01*
X48044Y-26884D01*
X48044Y-27674D01*
X48039Y-27674D01*
X48039Y-29387D01*
X47787Y-29639D01*
X47749Y-29731D01*
X47749Y-29830D01*
X47786Y-29921D01*
X47856Y-29991D01*
X48105Y-30240D01*
X48074Y-30315D01*
X47623Y-30315D01*
X47531Y-30353D01*
X47461Y-30423D01*
X47423Y-30514D01*
X47423Y-30613D01*
X47423Y-31297D01*
X47461Y-31389D01*
X47531Y-31459D01*
X47622Y-31497D01*
X47721Y-31497D01*
X48074Y-31497D01*
X48105Y-31571D01*
X47787Y-31890D01*
X47749Y-31982D01*
X47749Y-32081D01*
X47786Y-32172D01*
X47856Y-32242D01*
X48340Y-32726D01*
X48432Y-32764D01*
X48531Y-32764D01*
X48622Y-32727D01*
X48692Y-32657D01*
X48941Y-32407D01*
X49016Y-32438D01*
X49016Y-32890D01*
X49054Y-32982D01*
X49124Y-33052D01*
X49215Y-33090D01*
X49314Y-33090D01*
X49998Y-33090D01*
X50090Y-33052D01*
X50160Y-32982D01*
X50198Y-32891D01*
X50198Y-32792D01*
X50198Y-32438D01*
X50272Y-32407D01*
X50591Y-32726D01*
X50683Y-32764D01*
X50782Y-32764D01*
X50873Y-32727D01*
X50943Y-32657D01*
X51427Y-32173D01*
X51465Y-32081D01*
X51465Y-31982D01*
X51428Y-31891D01*
X51358Y-31821D01*
X51108Y-31571D01*
X51139Y-31497D01*
X51591Y-31497D01*
X51683Y-31459D01*
X51753Y-31389D01*
X51791Y-31298D01*
X51791Y-32418D01*
X48369Y-35841D01*
X48302Y-35941D01*
X48278Y-36059D01*
X48278Y-40391D01*
X48213Y-40391D01*
X48121Y-40429D01*
X48051Y-40499D01*
X48013Y-40590D01*
X48013Y-40689D01*
X48013Y-41339D01*
X48051Y-41431D01*
X48121Y-41501D01*
X48212Y-41539D01*
X48311Y-41539D01*
X48961Y-41539D01*
X49053Y-41501D01*
X49123Y-41431D01*
X49157Y-41348D01*
X49261Y-41452D01*
X49472Y-41540D01*
X49701Y-41540D01*
X49912Y-41453D01*
X50074Y-41291D01*
X50090Y-41250D01*
X50095Y-41261D01*
X50191Y-41290D01*
X50516Y-40965D01*
X50191Y-40640D01*
X50095Y-40669D01*
X50091Y-40679D01*
X50075Y-40640D01*
X49913Y-40478D01*
X49896Y-40470D01*
X49896Y-35580D01*
X52626Y-32850D01*
X52626Y-32921D01*
X52664Y-33013D01*
X52723Y-33072D01*
X52664Y-33131D01*
X52626Y-33222D01*
X52626Y-33321D01*
X52626Y-33671D01*
X52664Y-33763D01*
X52734Y-33833D01*
X52825Y-33871D01*
X52924Y-33871D01*
X52946Y-33871D01*
X52862Y-33920D01*
X52802Y-33999D01*
X52776Y-34094D01*
X52789Y-34192D01*
X52838Y-34278D01*
X53013Y-34581D01*
X53092Y-34642D01*
X53174Y-34663D01*
X53152Y-34744D01*
X53165Y-34842D01*
X53214Y-34928D01*
X53389Y-35231D01*
X53468Y-35292D01*
X53564Y-35317D01*
X53662Y-35305D01*
X53747Y-35255D01*
X54043Y-35084D01*
X54117Y-35084D01*
X53870Y-35513D01*
X53857Y-35611D01*
X53882Y-35707D01*
X53942Y-35785D01*
X54028Y-35835D01*
X54331Y-36010D01*
X54430Y-36023D01*
X54511Y-36000D01*
X54532Y-36081D01*
X54592Y-36159D01*
X54678Y-36209D01*
X54981Y-36384D01*
X55080Y-36397D01*
X55175Y-36371D01*
X55254Y-36311D01*
X55303Y-36226D01*
X55499Y-35885D01*
X55499Y-35912D01*
X55561Y-35974D01*
X55874Y-35974D01*
X55874Y-35561D01*
X55812Y-35499D01*
X55804Y-35499D01*
X57370Y-33933D01*
X57370Y-34891D01*
X56761Y-35500D01*
X56450Y-35500D01*
X56358Y-35538D01*
X56299Y-35597D01*
X56240Y-35538D01*
X56148Y-35500D01*
X56036Y-35499D01*
X55974Y-35561D01*
X55974Y-35924D01*
X55974Y-35974D01*
X55974Y-36074D01*
X55974Y-36124D01*
X55974Y-36487D01*
X56036Y-36549D01*
X56148Y-36548D01*
X56240Y-36510D01*
X56299Y-36451D01*
X56358Y-36510D01*
X56449Y-36548D01*
X56548Y-36548D01*
X56567Y-36548D01*
X55874Y-37241D01*
X55874Y-36487D01*
X55874Y-36074D01*
X55561Y-36074D01*
X55499Y-36136D01*
X55500Y-36250D01*
X55500Y-36349D01*
X55538Y-36440D01*
X55608Y-36510D01*
X55700Y-36548D01*
X55812Y-36549D01*
X55874Y-36487D01*
X55874Y-37241D01*
X52718Y-40397D01*
X52702Y-40390D01*
X52473Y-40390D01*
X52262Y-40477D01*
X52100Y-40639D01*
X52087Y-40669D01*
X52075Y-40640D01*
X51913Y-40478D01*
X51702Y-40390D01*
X51473Y-40390D01*
X51262Y-40477D01*
X51100Y-40639D01*
X51083Y-40679D01*
X51079Y-40669D01*
X50983Y-40640D01*
X50912Y-40711D01*
X50912Y-40569D01*
X50883Y-40473D01*
X50671Y-40397D01*
X50448Y-40409D01*
X50291Y-40473D01*
X50262Y-40569D01*
X50587Y-40894D01*
X50912Y-40569D01*
X50912Y-40711D01*
X50658Y-40965D01*
X50983Y-41290D01*
X51079Y-41261D01*
X51082Y-41250D01*
X51099Y-41290D01*
X51261Y-41452D01*
X51278Y-41459D01*
X51278Y-41592D01*
X51053Y-41817D01*
X50912Y-41817D01*
X50912Y-41361D01*
X50587Y-41036D01*
X50262Y-41361D01*
X50291Y-41457D01*
X50503Y-41533D01*
X50726Y-41521D01*
X50883Y-41457D01*
X50912Y-41361D01*
X50912Y-41817D01*
X47765Y-41817D01*
X46766Y-40817D01*
X46766Y-27311D01*
X46781Y-27296D01*
X47093Y-27296D01*
X47185Y-27258D01*
X47244Y-27199D01*
X47303Y-27258D01*
X47395Y-27296D01*
X47507Y-27297D01*
X47569Y-27235D01*
X47569Y-26872D01*
X47569Y-26822D01*
X47569Y-26722D01*
X47569Y-26672D01*
X47569Y-26309D01*
X47568Y-26308D01*
X47568Y-26163D01*
X47568Y-26113D01*
X47568Y-26013D01*
X47568Y-25963D01*
X47568Y-25680D01*
X47506Y-25618D01*
X47429Y-25619D01*
X47337Y-25657D01*
X47267Y-25727D01*
X47243Y-25782D01*
X47221Y-25727D01*
X47151Y-25657D01*
X47060Y-25619D01*
X46961Y-25619D01*
X46681Y-25619D01*
X46589Y-25657D01*
X46519Y-25727D01*
X46481Y-25818D01*
X46481Y-25917D01*
X46481Y-26307D01*
X46495Y-26343D01*
X46483Y-26356D01*
X46445Y-26447D01*
X46445Y-26546D01*
X46445Y-26759D01*
X46314Y-26890D01*
X46314Y-25203D01*
X46313Y-25189D01*
X46233Y-24978D01*
X46214Y-24981D01*
X46214Y-24880D01*
X46206Y-24654D01*
X45898Y-24188D01*
X45435Y-23876D01*
X44888Y-23765D01*
X44874Y-23766D01*
X44663Y-23846D01*
X44921Y-25138D01*
X46214Y-24880D01*
X46214Y-24981D01*
X44941Y-25236D01*
X45199Y-26529D01*
X45425Y-26521D01*
X45891Y-26213D01*
X46203Y-25750D01*
X46314Y-25203D01*
X46314Y-26890D01*
X46239Y-26966D01*
X46172Y-27066D01*
X46148Y-27184D01*
X46148Y-40314D01*
X45898Y-39936D01*
X45435Y-39624D01*
X44888Y-39513D01*
X44874Y-39514D01*
X44663Y-39594D01*
X44921Y-40886D01*
X46148Y-40641D01*
X46148Y-40742D01*
X45041Y-40963D01*
X44988Y-40910D01*
X44882Y-41016D01*
X44780Y-40914D01*
X44823Y-40906D01*
X44565Y-39613D01*
X44339Y-39621D01*
X43873Y-39929D01*
X43751Y-40110D01*
X43751Y-26032D01*
X43866Y-26206D01*
X44329Y-26518D01*
X44876Y-26629D01*
X44890Y-26628D01*
X45101Y-26548D01*
X44843Y-25256D01*
X43751Y-25473D01*
X43751Y-25372D01*
X44823Y-25158D01*
X44565Y-23865D01*
X44339Y-23873D01*
X43873Y-24181D01*
X43751Y-24362D01*
X43751Y-23672D01*
X47018Y-23672D01*
X46928Y-23887D01*
X46928Y-24018D01*
X46890Y-24056D01*
X46782Y-24218D01*
X46743Y-24410D01*
X46744Y-24414D01*
X46744Y-25119D01*
X46782Y-25310D01*
X46890Y-25473D01*
X46952Y-25514D01*
X46963Y-25525D01*
X46977Y-25531D01*
X47053Y-25581D01*
X47244Y-25619D01*
X47435Y-25581D01*
X47510Y-25531D01*
X47525Y-25525D01*
X47535Y-25514D01*
X47598Y-25473D01*
X47706Y-25310D01*
X47744Y-25119D01*
X47744Y-24639D01*
X47934Y-24561D01*
X48115Y-24381D01*
X48214Y-24145D01*
X48214Y-23889D01*
X48123Y-23672D01*
X50955Y-23672D01*
X50865Y-23887D01*
X50865Y-24143D01*
X50963Y-24379D01*
X51143Y-24560D01*
X51379Y-24659D01*
X51635Y-24659D01*
X51871Y-24561D01*
X51916Y-24516D01*
X52492Y-24516D01*
X52550Y-24540D01*
X52649Y-24540D01*
X52999Y-24540D01*
X53091Y-24502D01*
X53150Y-24443D01*
X53209Y-24502D01*
X53300Y-24540D01*
X53399Y-24540D01*
X53749Y-24540D01*
X53807Y-24516D01*
X61209Y-24516D01*
X61849Y-25155D01*
X61851Y-25158D01*
X62013Y-25265D01*
X62014Y-25266D01*
X62205Y-25304D01*
X65935Y-25304D01*
X66036Y-25404D01*
X66036Y-26177D01*
X66035Y-26182D01*
X66074Y-26374D01*
X66182Y-26536D01*
X66823Y-27176D01*
X66823Y-31891D01*
X66823Y-31891D01*
G37*
G54D22*
X66823Y-31891D02*
X64032Y-31891D01*
X64032Y-38973D01*
X60941Y-35882D01*
X60941Y-31391D01*
X61791Y-31391D01*
X61883Y-31353D01*
X61953Y-31283D01*
X61991Y-31192D01*
X61991Y-31093D01*
X61991Y-29873D01*
X61953Y-29781D01*
X61883Y-29711D01*
X61792Y-29673D01*
X61693Y-29673D01*
X60787Y-29673D01*
X60695Y-29711D01*
X60625Y-29781D01*
X60587Y-29872D01*
X60587Y-29971D01*
X60587Y-30736D01*
X60544Y-30736D01*
X60524Y-30736D01*
X60445Y-30736D01*
X60347Y-30736D01*
X60327Y-30736D01*
X60248Y-30736D01*
X60150Y-30736D01*
X60130Y-30736D01*
X60051Y-30736D01*
X59953Y-30736D01*
X59933Y-30736D01*
X59854Y-30736D01*
X59756Y-30736D01*
X59736Y-30736D01*
X59657Y-30736D01*
X59560Y-30736D01*
X59539Y-30736D01*
X59461Y-30736D01*
X59363Y-30736D01*
X59343Y-30736D01*
X59264Y-30736D01*
X59166Y-30736D01*
X59146Y-30736D01*
X59067Y-30736D01*
X58969Y-30736D01*
X58949Y-30736D01*
X58870Y-30736D01*
X58772Y-30736D01*
X58752Y-30736D01*
X58673Y-30736D01*
X58575Y-30736D01*
X58555Y-30736D01*
X58476Y-30736D01*
X58378Y-30736D01*
X58358Y-30736D01*
X58279Y-30736D01*
X58181Y-30736D01*
X58161Y-30736D01*
X58082Y-30736D01*
X57984Y-30736D01*
X57967Y-30735D01*
X57966Y-30736D01*
X57964Y-30736D01*
X57875Y-30772D01*
X57788Y-30736D01*
X57786Y-30736D01*
X57785Y-30735D01*
X57768Y-30736D01*
X57689Y-30736D01*
X57591Y-30736D01*
X57571Y-30736D01*
X57492Y-30736D01*
X57394Y-30736D01*
X57374Y-30736D01*
X57295Y-30736D01*
X57197Y-30736D01*
X57177Y-30736D01*
X57098Y-30736D01*
X57000Y-30736D01*
X56980Y-30736D01*
X56901Y-30736D01*
X56806Y-30736D01*
X56806Y-27560D01*
X56785Y-27461D01*
X56782Y-27442D01*
X56782Y-27441D01*
X56715Y-27342D01*
X56715Y-27341D01*
X55533Y-26160D01*
X55433Y-26093D01*
X55315Y-26069D01*
X53752Y-26069D01*
X53752Y-26054D01*
X53714Y-25962D01*
X53644Y-25892D01*
X53553Y-25854D01*
X53454Y-25854D01*
X53104Y-25854D01*
X53012Y-25892D01*
X52953Y-25951D01*
X52894Y-25892D01*
X52802Y-25854D01*
X52690Y-25853D01*
X52628Y-25915D01*
X52628Y-26278D01*
X52628Y-26328D01*
X52628Y-26428D01*
X52628Y-26478D01*
X52628Y-26703D01*
X52628Y-26841D01*
X52628Y-27066D01*
X52628Y-27116D01*
X52628Y-27216D01*
X52628Y-27266D01*
X52628Y-27490D01*
X52628Y-27629D01*
X52628Y-27853D01*
X52628Y-27903D01*
X52628Y-28003D01*
X52628Y-28053D01*
X52628Y-28278D01*
X52628Y-28416D01*
X52628Y-28641D01*
X52628Y-28691D01*
X52628Y-28791D01*
X52628Y-28841D01*
X52628Y-29065D01*
X52628Y-29204D01*
X52628Y-29428D01*
X52628Y-29478D01*
X52628Y-29578D01*
X52628Y-29628D01*
X52628Y-29991D01*
X52690Y-30053D01*
X52802Y-30052D01*
X52894Y-30014D01*
X52953Y-29955D01*
X53012Y-30014D01*
X53103Y-30052D01*
X53202Y-30052D01*
X53552Y-30052D01*
X53644Y-30014D01*
X53714Y-29944D01*
X53752Y-29853D01*
X53752Y-29837D01*
X53971Y-29837D01*
X53957Y-29872D01*
X53957Y-29971D01*
X53957Y-31191D01*
X53995Y-31283D01*
X54065Y-31353D01*
X54156Y-31391D01*
X54255Y-31391D01*
X55007Y-31391D01*
X55007Y-31565D01*
X54794Y-31778D01*
X52559Y-31778D01*
X52528Y-31784D01*
X52528Y-29991D01*
X52528Y-29578D01*
X52528Y-29478D01*
X52528Y-29204D01*
X52528Y-29065D01*
X52528Y-28791D01*
X52528Y-28691D01*
X52528Y-28416D01*
X52528Y-28278D01*
X52528Y-28003D01*
X52528Y-27903D01*
X52528Y-27629D01*
X52528Y-27490D01*
X52528Y-27216D01*
X52528Y-27116D01*
X52528Y-26841D01*
X52528Y-26703D01*
X52528Y-26428D01*
X52528Y-26328D01*
X52528Y-25915D01*
X52466Y-25853D01*
X52354Y-25854D01*
X52262Y-25892D01*
X52192Y-25962D01*
X52154Y-26053D01*
X52154Y-26152D01*
X52153Y-26266D01*
X52215Y-26328D01*
X52528Y-26328D01*
X52528Y-26428D01*
X52215Y-26428D01*
X52153Y-26490D01*
X52154Y-26604D01*
X52154Y-26703D01*
X52182Y-26772D01*
X52154Y-26841D01*
X52154Y-26940D01*
X52153Y-27054D01*
X52215Y-27116D01*
X52528Y-27116D01*
X52528Y-27216D01*
X52215Y-27216D01*
X52153Y-27278D01*
X52154Y-27392D01*
X52154Y-27491D01*
X52182Y-27559D01*
X52154Y-27628D01*
X52154Y-27727D01*
X52153Y-27841D01*
X52215Y-27903D01*
X52528Y-27903D01*
X52528Y-28003D01*
X52215Y-28003D01*
X52153Y-28065D01*
X52154Y-28179D01*
X52154Y-28278D01*
X52182Y-28347D01*
X52154Y-28416D01*
X52154Y-28515D01*
X52153Y-28629D01*
X52215Y-28691D01*
X52528Y-28691D01*
X52528Y-28791D01*
X52215Y-28791D01*
X52153Y-28853D01*
X52154Y-28967D01*
X52154Y-29066D01*
X52182Y-29134D01*
X52154Y-29203D01*
X52154Y-29302D01*
X52153Y-29416D01*
X52215Y-29478D01*
X52528Y-29478D01*
X52528Y-29578D01*
X52215Y-29578D01*
X52153Y-29640D01*
X52154Y-29754D01*
X52154Y-29853D01*
X52192Y-29944D01*
X52262Y-30014D01*
X52354Y-30052D01*
X52466Y-30053D01*
X52528Y-29991D01*
X52528Y-31784D01*
X52441Y-31802D01*
X52340Y-31869D01*
X51791Y-32418D01*
X51791Y-31298D01*
X51791Y-31199D01*
X51791Y-30515D01*
X51753Y-30423D01*
X51683Y-30353D01*
X51592Y-30315D01*
X51493Y-30315D01*
X51139Y-30315D01*
X51108Y-30240D01*
X51427Y-29922D01*
X51465Y-29830D01*
X51465Y-29731D01*
X51428Y-29640D01*
X51358Y-29570D01*
X51174Y-29386D01*
X51174Y-27674D01*
X48044Y-27674D01*
X48044Y-26884D01*
X48044Y-26660D01*
X48043Y-26546D01*
X48043Y-26447D01*
X48005Y-26356D01*
X47992Y-26343D01*
X48007Y-26308D01*
X48007Y-26209D01*
X48008Y-26175D01*
X48008Y-25951D01*
X48007Y-25917D01*
X48007Y-25818D01*
X47969Y-25727D01*
X47899Y-25657D01*
X47807Y-25619D01*
X47730Y-25618D01*
X47668Y-25680D01*
X47668Y-26013D01*
X47946Y-26013D01*
X48008Y-25951D01*
X48008Y-26175D01*
X47946Y-26113D01*
X47668Y-26113D01*
X47668Y-26446D01*
X47669Y-26447D01*
X47669Y-26722D01*
X47982Y-26722D01*
X48044Y-26660D01*
X48044Y-26884D01*
X47982Y-26822D01*
X47669Y-26822D01*
X47669Y-27235D01*
X47731Y-27297D01*
X47843Y-27296D01*
X47935Y-27258D01*
X48005Y-27188D01*
X48043Y-27097D01*
X48043Y-26998D01*
X48044Y-26884D01*
X48044Y-27674D01*
X48039Y-27674D01*
X48039Y-29387D01*
X47787Y-29639D01*
X47749Y-29731D01*
X47749Y-29830D01*
X47786Y-29921D01*
X47856Y-29991D01*
X48105Y-30240D01*
X48074Y-30315D01*
X47623Y-30315D01*
X47531Y-30353D01*
X47461Y-30423D01*
X47423Y-30514D01*
X47423Y-30613D01*
X47423Y-31297D01*
X47461Y-31389D01*
X47531Y-31459D01*
X47622Y-31497D01*
X47721Y-31497D01*
X48074Y-31497D01*
X48105Y-31571D01*
X47787Y-31890D01*
X47749Y-31982D01*
X47749Y-32081D01*
X47786Y-32172D01*
X47856Y-32242D01*
X48340Y-32726D01*
X48432Y-32764D01*
X48531Y-32764D01*
X48622Y-32727D01*
X48692Y-32657D01*
X48941Y-32407D01*
X49016Y-32438D01*
X49016Y-32890D01*
X49054Y-32982D01*
X49124Y-33052D01*
X49215Y-33090D01*
X49314Y-33090D01*
X49998Y-33090D01*
X50090Y-33052D01*
X50160Y-32982D01*
X50198Y-32891D01*
X50198Y-32792D01*
X50198Y-32438D01*
X50272Y-32407D01*
X50591Y-32726D01*
X50683Y-32764D01*
X50782Y-32764D01*
X50873Y-32727D01*
X50943Y-32657D01*
X51427Y-32173D01*
X51465Y-32081D01*
X51465Y-31982D01*
X51428Y-31891D01*
X51358Y-31821D01*
X51108Y-31571D01*
X51139Y-31497D01*
X51591Y-31497D01*
X51683Y-31459D01*
X51753Y-31389D01*
X51791Y-31298D01*
X51791Y-32418D01*
X48369Y-35841D01*
X48302Y-35941D01*
X48278Y-36059D01*
X48278Y-40391D01*
X48213Y-40391D01*
X48121Y-40429D01*
X48051Y-40499D01*
X48013Y-40590D01*
X48013Y-40689D01*
X48013Y-41339D01*
X48051Y-41431D01*
X48121Y-41501D01*
X48212Y-41539D01*
X48311Y-41539D01*
X48961Y-41539D01*
X49053Y-41501D01*
X49123Y-41431D01*
X49157Y-41348D01*
X49261Y-41452D01*
X49472Y-41540D01*
X49701Y-41540D01*
X49912Y-41453D01*
X50074Y-41291D01*
X50090Y-41250D01*
X50095Y-41261D01*
X50191Y-41290D01*
X50516Y-40965D01*
X50191Y-40640D01*
X50095Y-40669D01*
X50091Y-40679D01*
X50075Y-40640D01*
X49913Y-40478D01*
X49896Y-40470D01*
X49896Y-35580D01*
X52626Y-32850D01*
X52626Y-32921D01*
X52664Y-33013D01*
X52723Y-33072D01*
X52664Y-33131D01*
X52626Y-33222D01*
X52626Y-33321D01*
X52626Y-33671D01*
X52664Y-33763D01*
X52734Y-33833D01*
X52825Y-33871D01*
X52924Y-33871D01*
X52946Y-33871D01*
X52862Y-33920D01*
X52802Y-33999D01*
X52776Y-34094D01*
X52789Y-34192D01*
X52838Y-34278D01*
X53013Y-34581D01*
X53092Y-34642D01*
X53174Y-34663D01*
X53152Y-34744D01*
X53165Y-34842D01*
X53214Y-34928D01*
X53389Y-35231D01*
X53468Y-35292D01*
X53564Y-35317D01*
X53662Y-35305D01*
X53747Y-35255D01*
X54043Y-35084D01*
X54117Y-35084D01*
X53870Y-35513D01*
X53857Y-35611D01*
X53882Y-35707D01*
X53942Y-35785D01*
X54028Y-35835D01*
X54331Y-36010D01*
X54430Y-36023D01*
X54511Y-36000D01*
X54532Y-36081D01*
X54592Y-36159D01*
X54678Y-36209D01*
X54981Y-36384D01*
X55080Y-36397D01*
X55175Y-36371D01*
X55254Y-36311D01*
X55303Y-36226D01*
X55499Y-35885D01*
X55499Y-35912D01*
X55561Y-35974D01*
X55874Y-35974D01*
X55874Y-35561D01*
X55812Y-35499D01*
X55804Y-35499D01*
X57370Y-33933D01*
X57370Y-34891D01*
X56761Y-35500D01*
X56450Y-35500D01*
X56358Y-35538D01*
X56299Y-35597D01*
X56240Y-35538D01*
X56148Y-35500D01*
X56036Y-35499D01*
X55974Y-35561D01*
X55974Y-35924D01*
X55974Y-35974D01*
X55974Y-36074D01*
X55974Y-36124D01*
X55974Y-36487D01*
X56036Y-36549D01*
X56148Y-36548D01*
X56240Y-36510D01*
X56299Y-36451D01*
X56358Y-36510D01*
X56449Y-36548D01*
X56548Y-36548D01*
X56567Y-36548D01*
X55874Y-37241D01*
X55874Y-36487D01*
X55874Y-36074D01*
X55561Y-36074D01*
X55499Y-36136D01*
X55500Y-36250D01*
X55500Y-36349D01*
X55538Y-36440D01*
X55608Y-36510D01*
X55700Y-36548D01*
X55812Y-36549D01*
X55874Y-36487D01*
X55874Y-37241D01*
X52718Y-40397D01*
X52702Y-40390D01*
X52473Y-40390D01*
X52262Y-40477D01*
X52100Y-40639D01*
X52087Y-40669D01*
X52075Y-40640D01*
X51913Y-40478D01*
X51702Y-40390D01*
X51473Y-40390D01*
X51262Y-40477D01*
X51100Y-40639D01*
X51083Y-40679D01*
X51079Y-40669D01*
X50983Y-40640D01*
X50912Y-40711D01*
X50912Y-40569D01*
X50883Y-40473D01*
X50671Y-40397D01*
X50448Y-40409D01*
X50291Y-40473D01*
X50262Y-40569D01*
X50587Y-40894D01*
X50912Y-40569D01*
X50912Y-40711D01*
X50658Y-40965D01*
X50983Y-41290D01*
X51079Y-41261D01*
X51082Y-41250D01*
X51099Y-41290D01*
X51261Y-41452D01*
X51278Y-41459D01*
X51278Y-41592D01*
X51053Y-41817D01*
X50912Y-41817D01*
X50912Y-41361D01*
X50587Y-41036D01*
X50262Y-41361D01*
X50291Y-41457D01*
X50503Y-41533D01*
X50726Y-41521D01*
X50883Y-41457D01*
X50912Y-41361D01*
X50912Y-41817D01*
X47765Y-41817D01*
X46766Y-40817D01*
X46766Y-27311D01*
X46781Y-27296D01*
X47093Y-27296D01*
X47185Y-27258D01*
X47244Y-27199D01*
X47303Y-27258D01*
X47395Y-27296D01*
X47507Y-27297D01*
X47569Y-27235D01*
X47569Y-26872D01*
X47569Y-26822D01*
X47569Y-26722D01*
X47569Y-26672D01*
X47569Y-26309D01*
X47568Y-26308D01*
X47568Y-26163D01*
X47568Y-26113D01*
X47568Y-26013D01*
X47568Y-25963D01*
X47568Y-25680D01*
X47506Y-25618D01*
X47429Y-25619D01*
X47337Y-25657D01*
X47267Y-25727D01*
X47243Y-25782D01*
X47221Y-25727D01*
X47151Y-25657D01*
X47060Y-25619D01*
X46961Y-25619D01*
X46681Y-25619D01*
X46589Y-25657D01*
X46519Y-25727D01*
X46481Y-25818D01*
X46481Y-25917D01*
X46481Y-26307D01*
X46495Y-26343D01*
X46483Y-26356D01*
X46445Y-26447D01*
X46445Y-26546D01*
X46445Y-26759D01*
X46314Y-26890D01*
X46314Y-25203D01*
X46313Y-25189D01*
X46233Y-24978D01*
X46214Y-24981D01*
X46214Y-24880D01*
X46206Y-24654D01*
X45898Y-24188D01*
X45435Y-23876D01*
X44888Y-23765D01*
X44874Y-23766D01*
X44663Y-23846D01*
X44921Y-25138D01*
X46214Y-24880D01*
X46214Y-24981D01*
X44941Y-25236D01*
X45199Y-26529D01*
X45425Y-26521D01*
X45891Y-26213D01*
X46203Y-25750D01*
X46314Y-25203D01*
X46314Y-26890D01*
X46239Y-26966D01*
X46172Y-27066D01*
X46148Y-27184D01*
X46148Y-40314D01*
X45898Y-39936D01*
X45435Y-39624D01*
X44888Y-39513D01*
X44874Y-39514D01*
X44663Y-39594D01*
X44921Y-40886D01*
X46148Y-40641D01*
X46148Y-40742D01*
X45041Y-40963D01*
X44988Y-40910D01*
X44882Y-41016D01*
X44780Y-40914D01*
X44823Y-40906D01*
X44565Y-39613D01*
X44339Y-39621D01*
X43873Y-39929D01*
X43751Y-40110D01*
X43751Y-26032D01*
X43866Y-26206D01*
X44329Y-26518D01*
X44876Y-26629D01*
X44890Y-26628D01*
X45101Y-26548D01*
X44843Y-25256D01*
X43751Y-25473D01*
X43751Y-25372D01*
X44823Y-25158D01*
X44565Y-23865D01*
X44339Y-23873D01*
X43873Y-24181D01*
X43751Y-24362D01*
X43751Y-23672D01*
X47018Y-23672D01*
X46928Y-23887D01*
X46928Y-24018D01*
X46890Y-24056D01*
X46782Y-24218D01*
X46743Y-24410D01*
X46744Y-24414D01*
X46744Y-25119D01*
X46782Y-25310D01*
X46890Y-25473D01*
X46952Y-25514D01*
X46963Y-25525D01*
X46977Y-25531D01*
X47053Y-25581D01*
X47244Y-25619D01*
X47435Y-25581D01*
X47510Y-25531D01*
X47525Y-25525D01*
X47535Y-25514D01*
X47598Y-25473D01*
X47706Y-25310D01*
X47744Y-25119D01*
X47744Y-24639D01*
X47934Y-24561D01*
X48115Y-24381D01*
X48214Y-24145D01*
X48214Y-23889D01*
X48123Y-23672D01*
X50955Y-23672D01*
X50865Y-23887D01*
X50865Y-24143D01*
X50963Y-24379D01*
X51143Y-24560D01*
X51379Y-24659D01*
X51635Y-24659D01*
X51871Y-24561D01*
X51916Y-24516D01*
X52492Y-24516D01*
X52550Y-24540D01*
X52649Y-24540D01*
X52999Y-24540D01*
X53091Y-24502D01*
X53150Y-24443D01*
X53209Y-24502D01*
X53300Y-24540D01*
X53399Y-24540D01*
X53749Y-24540D01*
X53807Y-24516D01*
X61209Y-24516D01*
X61849Y-25155D01*
X61851Y-25158D01*
X62013Y-25265D01*
X62014Y-25266D01*
X62205Y-25304D01*
X65935Y-25304D01*
X66036Y-25404D01*
X66036Y-26177D01*
X66035Y-26182D01*
X66074Y-26374D01*
X66182Y-26536D01*
X66823Y-27176D01*
X66823Y-31891D01*
G54D10*
G36*
X70423Y-40769D02*
X69451Y-40963D01*
X69398Y-40910D01*
X69261Y-41046D01*
X69253Y-41004D01*
X69233Y-41007D01*
X69233Y-40906D01*
X68975Y-39613D01*
X68749Y-39621D01*
X68283Y-39929D01*
X67971Y-40392D01*
X67860Y-40939D01*
X67861Y-40953D01*
X67941Y-41164D01*
X69233Y-40906D01*
X69233Y-41007D01*
X67960Y-41262D01*
X67968Y-41488D01*
X68276Y-41954D01*
X68457Y-42076D01*
X67097Y-42076D01*
X67674Y-41498D01*
X67676Y-41497D01*
X67677Y-41497D01*
X67784Y-41335D01*
X67785Y-41334D01*
X67815Y-41182D01*
X67823Y-41144D01*
X67822Y-41143D01*
X67823Y-41143D01*
X67823Y-26969D01*
X67823Y-26968D01*
X67823Y-26248D01*
X67847Y-26191D01*
X67847Y-26092D01*
X67847Y-25742D01*
X67809Y-25650D01*
X67750Y-25591D01*
X67809Y-25532D01*
X67847Y-25441D01*
X67847Y-25342D01*
X67847Y-24992D01*
X67823Y-24933D01*
X67823Y-24736D01*
X67785Y-24545D01*
X67785Y-24544D01*
X67741Y-24479D01*
X67677Y-24382D01*
X67674Y-24380D01*
X67246Y-23951D01*
X67246Y-23889D01*
X67155Y-23672D01*
X70423Y-23672D01*
X70423Y-24361D01*
X70308Y-24188D01*
X69845Y-23876D01*
X69298Y-23765D01*
X69284Y-23766D01*
X69073Y-23846D01*
X69331Y-25138D01*
X70423Y-24920D01*
X70423Y-25021D01*
X69351Y-25236D01*
X69609Y-26529D01*
X69835Y-26521D01*
X70301Y-26213D01*
X70423Y-26031D01*
X70423Y-40109D01*
X70308Y-39936D01*
X69845Y-39624D01*
X69511Y-39556D01*
X69511Y-26548D01*
X69253Y-25256D01*
X69233Y-25259D01*
X69233Y-25158D01*
X68975Y-23865D01*
X68749Y-23873D01*
X68283Y-24181D01*
X67971Y-24644D01*
X67860Y-25191D01*
X67861Y-25205D01*
X67941Y-25416D01*
X69233Y-25158D01*
X69233Y-25259D01*
X67960Y-25514D01*
X67968Y-25740D01*
X68276Y-26206D01*
X68739Y-26518D01*
X69286Y-26629D01*
X69300Y-26628D01*
X69511Y-26548D01*
X69511Y-39556D01*
X69298Y-39513D01*
X69284Y-39514D01*
X69073Y-39594D01*
X69331Y-40886D01*
X70423Y-40668D01*
X70423Y-40769D01*
X70423Y-40769D01*
G37*
G54D22*
X70423Y-40769D02*
X69451Y-40963D01*
X69398Y-40910D01*
X69261Y-41046D01*
X69253Y-41004D01*
X69233Y-41007D01*
X69233Y-40906D01*
X68975Y-39613D01*
X68749Y-39621D01*
X68283Y-39929D01*
X67971Y-40392D01*
X67860Y-40939D01*
X67861Y-40953D01*
X67941Y-41164D01*
X69233Y-40906D01*
X69233Y-41007D01*
X67960Y-41262D01*
X67968Y-41488D01*
X68276Y-41954D01*
X68457Y-42076D01*
X67097Y-42076D01*
X67674Y-41498D01*
X67676Y-41497D01*
X67677Y-41497D01*
X67784Y-41335D01*
X67785Y-41334D01*
X67815Y-41182D01*
X67823Y-41144D01*
X67822Y-41143D01*
X67823Y-41143D01*
X67823Y-26969D01*
X67823Y-26968D01*
X67823Y-26248D01*
X67847Y-26191D01*
X67847Y-26092D01*
X67847Y-25742D01*
X67809Y-25650D01*
X67750Y-25591D01*
X67809Y-25532D01*
X67847Y-25441D01*
X67847Y-25342D01*
X67847Y-24992D01*
X67823Y-24933D01*
X67823Y-24736D01*
X67785Y-24545D01*
X67785Y-24544D01*
X67741Y-24479D01*
X67677Y-24382D01*
X67674Y-24380D01*
X67246Y-23951D01*
X67246Y-23889D01*
X67155Y-23672D01*
X70423Y-23672D01*
X70423Y-24361D01*
X70308Y-24188D01*
X69845Y-23876D01*
X69298Y-23765D01*
X69284Y-23766D01*
X69073Y-23846D01*
X69331Y-25138D01*
X70423Y-24920D01*
X70423Y-25021D01*
X69351Y-25236D01*
X69609Y-26529D01*
X69835Y-26521D01*
X70301Y-26213D01*
X70423Y-26031D01*
X70423Y-40109D01*
X70308Y-39936D01*
X69845Y-39624D01*
X69511Y-39556D01*
X69511Y-26548D01*
X69253Y-25256D01*
X69233Y-25259D01*
X69233Y-25158D01*
X68975Y-23865D01*
X68749Y-23873D01*
X68283Y-24181D01*
X67971Y-24644D01*
X67860Y-25191D01*
X67861Y-25205D01*
X67941Y-25416D01*
X69233Y-25158D01*
X69233Y-25259D01*
X67960Y-25514D01*
X67968Y-25740D01*
X68276Y-26206D01*
X68739Y-26518D01*
X69286Y-26629D01*
X69300Y-26628D01*
X69511Y-26548D01*
X69511Y-39556D01*
X69298Y-39513D01*
X69284Y-39514D01*
X69073Y-39594D01*
X69331Y-40886D01*
X70423Y-40668D01*
X70423Y-40769D01*
M02*
