M48
;DRILL file {Pcbnew (2012-jan-04)-stable} date Tue 06 Mar 2012 12:02:24 GMT
;FORMAT={-:-/ absolute / metric / decimal}
FMAT,2
METRIC,TZ
T1C1.001
T2C1.016
T3C3.299
%
G90
G05
M71
T1
X120.830Y-61.001
X130.830Y-61.001
X159.172Y-61.001
X169.172Y-61.001
T2
X123.411Y-104.051
X125.951Y-104.051
X128.491Y-104.051
X131.031Y-104.051
X133.571Y-104.051
X136.111Y-104.051
X138.651Y-104.051
X141.191Y-104.051
X143.731Y-104.051
X146.271Y-104.051
X148.811Y-104.051
X151.351Y-104.051
X153.891Y-104.051
X156.431Y-104.051
X158.971Y-104.051
X161.511Y-104.051
X164.051Y-104.051
X166.591Y-104.051
T3
X114.000Y-64.000
X114.000Y-104.000
X176.002Y-64.000
X176.002Y-104.000
T0
M30
