G04 (created by PCBNEW-RS274X (2012-jan-04)-testing) date Wed 23 May 2012 23:15:24 BST*
G01*
G70*
G90*
%MOIN*%
G04 Gerber Fmt 3.4, Leading zero omitted, Abs format*
%FSLAX34Y34*%
G04 APERTURE LIST*
%ADD10C,0.006000*%
%ADD11C,0.015000*%
%ADD12R,0.040000X0.050000*%
%ADD13R,0.050000X0.040000*%
%ADD14R,0.048000X0.059000*%
%ADD15R,0.059000X0.048000*%
%ADD16R,0.080000X0.100000*%
%ADD17R,0.055000X0.075000*%
%ADD18R,0.075000X0.055000*%
%ADD19R,0.065000X0.090000*%
%ADD20R,0.060000X0.090000*%
%ADD21R,0.055000X0.090000*%
%ADD22C,0.059400*%
%ADD23C,0.080000*%
%ADD24R,0.070000X0.120000*%
%ADD25R,0.074300X0.037700*%
%ADD26R,0.094800X0.066300*%
%ADD27R,0.094800X0.113500*%
%ADD28R,0.102700X0.078100*%
%ADD29R,0.031800X0.067000*%
%ADD30R,0.067000X0.031800*%
%ADD31C,0.090000*%
%ADD32R,0.090000X0.090000*%
%ADD33R,0.100700X0.238500*%
%ADD34R,0.238500X0.100700*%
%ADD35R,0.031800X0.063300*%
%ADD36R,0.110600X0.142000*%
%ADD37O,0.059400X0.037700*%
%ADD38R,0.098700X0.120400*%
%ADD39R,0.120400X0.098700*%
%ADD40C,0.060000*%
%ADD41C,0.049500*%
%ADD42C,0.055400*%
G04 APERTURE END LIST*
G54D10*
G54D11*
X39369Y16733D02*
X39370Y16733D01*
X36417Y19685D02*
X39369Y16733D01*
X00984Y19685D02*
X00000Y18701D01*
X36417Y19685D02*
X00984Y19685D01*
X36417Y00000D02*
X39370Y02953D01*
X00000Y00984D02*
X00000Y00985D01*
X00984Y00000D02*
X00000Y00984D01*
X36417Y00000D02*
X00984Y00000D01*
X00000Y18701D02*
X00000Y00985D01*
X39370Y16733D02*
X39370Y02953D01*
G54D12*
X35056Y17120D03*
X35806Y17120D03*
X35056Y18120D03*
X35431Y17120D03*
X35806Y18120D03*
X09861Y17315D03*
X10611Y17315D03*
X09861Y18315D03*
X10236Y17315D03*
X10611Y18315D03*
X09725Y14477D03*
X08975Y14477D03*
X09725Y13477D03*
X09350Y14477D03*
X08975Y13477D03*
G54D13*
X31799Y15177D03*
X31799Y15927D03*
X30799Y15177D03*
X31799Y15552D03*
X30799Y15927D03*
G54D14*
X23917Y18287D03*
X23543Y17343D03*
X24291Y17343D03*
G54D15*
X36930Y06496D03*
X37874Y06122D03*
X37874Y06870D03*
X36930Y04922D03*
X37874Y04548D03*
X37874Y05296D03*
G54D16*
X28484Y12500D03*
X29784Y12500D03*
X29784Y11319D03*
X28484Y11319D03*
G54D17*
X07462Y13583D03*
X06712Y13583D03*
X36497Y10138D03*
X35747Y10138D03*
G54D18*
X27658Y12519D03*
X27658Y13269D03*
X26870Y12519D03*
X26870Y13269D03*
G54D17*
X02381Y05709D03*
X03131Y05709D03*
X36497Y07776D03*
X35747Y07776D03*
X35747Y08563D03*
X36497Y08563D03*
G54D18*
X33858Y11043D03*
X33858Y11793D03*
G54D17*
X36497Y09351D03*
X35747Y09351D03*
X03722Y00591D03*
X02972Y00591D03*
X36497Y10926D03*
X35747Y10926D03*
G54D18*
X38681Y06084D03*
X38681Y05334D03*
G54D17*
X37617Y07579D03*
X38367Y07579D03*
G54D18*
X36221Y06281D03*
X36221Y05531D03*
X08366Y09173D03*
X08366Y09923D03*
G54D17*
X28168Y14370D03*
X28918Y14370D03*
G54D18*
X08366Y08348D03*
X08366Y07598D03*
G54D17*
X06712Y12796D03*
X07462Y12796D03*
G54D18*
X01969Y12618D03*
X01969Y13368D03*
X08563Y05887D03*
X08563Y05137D03*
X07776Y05887D03*
X07776Y05137D03*
G54D17*
X16456Y02363D03*
X17206Y02363D03*
X01200Y08367D03*
X01950Y08367D03*
G54D18*
X11221Y10710D03*
X11221Y09960D03*
G54D17*
X02344Y00591D03*
X01594Y00591D03*
G54D18*
X06201Y02344D03*
X06201Y01594D03*
G54D17*
X05099Y00591D03*
X04349Y00591D03*
G54D18*
X11713Y18781D03*
X11713Y18031D03*
X22441Y18486D03*
X22441Y17736D03*
X11221Y08582D03*
X11221Y09332D03*
G54D10*
G36*
X36322Y02327D02*
X35791Y02858D01*
X36180Y03247D01*
X36711Y02716D01*
X36322Y02327D01*
X36322Y02327D01*
G37*
G36*
X36852Y02857D02*
X36321Y03388D01*
X36710Y03777D01*
X37241Y03246D01*
X36852Y02857D01*
X36852Y02857D01*
G37*
G54D18*
X25295Y13269D03*
X25295Y12519D03*
X26083Y13269D03*
X26083Y12519D03*
G54D17*
X34430Y18307D03*
X33680Y18307D03*
X34430Y17520D03*
X33680Y17520D03*
X11141Y16930D03*
X11891Y16930D03*
X02086Y19095D03*
X02836Y19095D03*
G54D18*
X07973Y17145D03*
X07973Y17895D03*
G54D17*
X06121Y17028D03*
X06871Y17028D03*
X36338Y14370D03*
X37088Y14370D03*
X37481Y15256D03*
X36731Y15256D03*
X13405Y02363D03*
X14155Y02363D03*
G54D18*
X16339Y17539D03*
X16339Y18289D03*
X15551Y17539D03*
X15551Y18289D03*
X14764Y17539D03*
X14764Y18289D03*
X13976Y17539D03*
X13976Y18289D03*
X13189Y17539D03*
X13189Y18289D03*
G54D17*
X30826Y16536D03*
X31576Y16536D03*
X12814Y00591D03*
X13564Y00591D03*
X21044Y00985D03*
X20294Y00985D03*
X37617Y03741D03*
X38367Y03741D03*
X31674Y14469D03*
X30924Y14469D03*
X12814Y04134D03*
X13564Y04134D03*
G54D18*
X17323Y18289D03*
X17323Y17539D03*
G54D17*
X35806Y16439D03*
X35056Y16439D03*
X03464Y19095D03*
X04214Y19095D03*
X07659Y18603D03*
X06909Y18603D03*
X35806Y18801D03*
X35056Y18801D03*
X06871Y17815D03*
X06121Y17815D03*
G54D18*
X04921Y13564D03*
X04921Y12814D03*
G54D17*
X07462Y12008D03*
X06712Y12008D03*
G54D10*
G36*
X07024Y05909D02*
X06493Y05378D01*
X06104Y05767D01*
X06635Y06298D01*
X07024Y05909D01*
X07024Y05909D01*
G37*
G36*
X06494Y06439D02*
X05963Y05908D01*
X05574Y06297D01*
X06105Y06828D01*
X06494Y06439D01*
X06494Y06439D01*
G37*
G54D18*
X04036Y05925D03*
X04036Y06675D03*
X07579Y10710D03*
X07579Y09960D03*
X07579Y09135D03*
X07579Y08385D03*
X04823Y05925D03*
X04823Y06675D03*
X03051Y12814D03*
X03051Y13564D03*
X03839Y12814D03*
X03839Y13564D03*
X36221Y04706D03*
X36221Y03956D03*
G54D17*
X07499Y03445D03*
X08249Y03445D03*
X01003Y05709D03*
X01753Y05709D03*
X01950Y09056D03*
X01200Y09056D03*
X01298Y10926D03*
X02048Y10926D03*
X01200Y09744D03*
X01950Y09744D03*
G54D18*
X10433Y13602D03*
X10433Y14352D03*
X09154Y18781D03*
X09154Y18031D03*
X08268Y14352D03*
X08268Y13602D03*
X09154Y16751D03*
X09154Y17501D03*
G54D17*
X21536Y17815D03*
X20786Y17815D03*
G54D18*
X20079Y17539D03*
X20079Y18289D03*
X19095Y18289D03*
X19095Y17539D03*
X18307Y18289D03*
X18307Y17539D03*
G54D19*
X33809Y10217D03*
X32825Y10217D03*
X31840Y10217D03*
X30856Y10217D03*
X29872Y10217D03*
X28888Y10217D03*
X27903Y10217D03*
X26919Y10217D03*
G54D20*
X26279Y10217D03*
G54D21*
X25768Y10217D03*
X25295Y10217D03*
G54D22*
X25589Y09154D03*
G54D23*
X33858Y09154D03*
G54D24*
X24606Y00599D03*
X24606Y09599D03*
X35630Y00599D03*
X34764Y09599D03*
G54D25*
X37752Y10355D03*
X37752Y09587D03*
X37752Y10099D03*
X37752Y09843D03*
G54D26*
X38799Y09513D03*
G54D27*
X38799Y10990D03*
X38799Y08696D03*
G54D26*
X38799Y10173D03*
G54D25*
X37752Y09331D03*
G54D28*
X37894Y08873D03*
X37894Y10813D03*
G54D29*
X15846Y04725D03*
X16042Y04725D03*
X16239Y04725D03*
X16436Y04725D03*
X16633Y04725D03*
X16830Y04725D03*
X17027Y04725D03*
X17224Y04725D03*
X17420Y04725D03*
X17617Y04725D03*
X17814Y04725D03*
X18011Y04725D03*
X18208Y04725D03*
X18405Y04725D03*
X18602Y04725D03*
X18798Y04725D03*
X18798Y09253D03*
X18602Y09253D03*
X18405Y09253D03*
X18208Y09253D03*
X18011Y09253D03*
X17814Y09253D03*
X17617Y09253D03*
X17420Y09253D03*
X17224Y09253D03*
X17027Y09253D03*
X16830Y09253D03*
X16633Y09253D03*
X16436Y09253D03*
X16239Y09253D03*
X16042Y09253D03*
X15846Y09253D03*
G54D30*
X19586Y05513D03*
X19586Y05709D03*
X19586Y05906D03*
X19586Y06103D03*
X19586Y06300D03*
X19586Y06497D03*
X19586Y06694D03*
X19586Y06891D03*
X19586Y07087D03*
X19586Y07284D03*
X19586Y07481D03*
X19586Y07678D03*
X19586Y07875D03*
X19586Y08072D03*
X19586Y08269D03*
X19586Y08465D03*
X15058Y08465D03*
X15058Y08269D03*
X15058Y08072D03*
X15058Y07875D03*
X15058Y07678D03*
X15058Y07481D03*
X15058Y07284D03*
X15058Y07087D03*
X15058Y06891D03*
X15058Y06694D03*
X15058Y06497D03*
X15058Y06300D03*
X15058Y06103D03*
X15058Y05906D03*
X15058Y05709D03*
X15058Y05513D03*
G54D29*
X03838Y08072D03*
X04035Y08072D03*
X04232Y08072D03*
X04429Y08072D03*
X04626Y08072D03*
X04823Y08072D03*
X05019Y08072D03*
X05216Y08072D03*
X05413Y08072D03*
X05610Y08072D03*
X05807Y08072D03*
X06004Y08072D03*
X06004Y11418D03*
X05807Y11418D03*
X05610Y11418D03*
X05413Y11418D03*
X05216Y11418D03*
X05019Y11418D03*
X04823Y11418D03*
X04626Y11418D03*
X04429Y11418D03*
X04232Y11418D03*
X04035Y11418D03*
X03838Y11418D03*
G54D30*
X06594Y08662D03*
X06594Y08859D03*
X06594Y09056D03*
X06594Y09253D03*
X06594Y09450D03*
X06594Y09647D03*
X06594Y09843D03*
X06594Y10040D03*
X06594Y10237D03*
X06594Y10434D03*
X06594Y10631D03*
X06594Y10828D03*
X03248Y10828D03*
X03248Y10631D03*
X03248Y10434D03*
X03248Y10237D03*
X03248Y10040D03*
X03248Y09843D03*
X03248Y09647D03*
X03248Y09450D03*
X03248Y09253D03*
X03248Y09056D03*
X03248Y08859D03*
X03248Y08662D03*
G54D31*
X35933Y15552D03*
X34933Y15552D03*
G54D32*
X07244Y02067D03*
G54D31*
X08244Y02067D03*
X09244Y02067D03*
X10244Y02067D03*
X11244Y02067D03*
X12244Y02067D03*
G54D33*
X09744Y07766D03*
X09744Y11526D03*
G54D34*
X18809Y00985D03*
X15049Y00985D03*
G54D23*
X21524Y19292D03*
X25461Y19292D03*
X10366Y19292D03*
X06429Y19292D03*
G54D35*
X16734Y12107D03*
X16930Y12107D03*
X17324Y12107D03*
X17521Y12107D03*
X17718Y12107D03*
X17915Y12107D03*
X18112Y12107D03*
X18309Y12107D03*
X18505Y12107D03*
X18702Y12107D03*
X18899Y12107D03*
X19096Y12107D03*
X19293Y12107D03*
X19490Y12107D03*
X16537Y12107D03*
X14174Y12107D03*
X14371Y12107D03*
X14568Y12107D03*
X14765Y12107D03*
X14962Y12107D03*
X15159Y12107D03*
X15355Y12107D03*
X15552Y12107D03*
X15749Y12107D03*
X15946Y12107D03*
X16143Y12107D03*
X17127Y12107D03*
X16340Y12107D03*
G54D36*
X20147Y12776D03*
X13517Y12776D03*
G54D10*
G36*
X20509Y04236D02*
X19978Y03705D01*
X19589Y04094D01*
X20120Y04625D01*
X20509Y04236D01*
X20509Y04236D01*
G37*
G36*
X19979Y04766D02*
X19448Y04235D01*
X19059Y04624D01*
X19590Y05155D01*
X19979Y04766D01*
X19979Y04766D01*
G37*
G36*
X20765Y09879D02*
X21296Y09348D01*
X20907Y08959D01*
X20376Y09490D01*
X20765Y09879D01*
X20765Y09879D01*
G37*
G36*
X20235Y09349D02*
X20766Y08818D01*
X20377Y08429D01*
X19846Y08960D01*
X20235Y09349D01*
X20235Y09349D01*
G37*
G54D17*
X14290Y09252D03*
X15040Y09252D03*
X12912Y05611D03*
X13662Y05611D03*
G54D10*
G36*
X21788Y04925D02*
X21257Y04394D01*
X20868Y04783D01*
X21399Y05314D01*
X21788Y04925D01*
X21788Y04925D01*
G37*
G36*
X21258Y05455D02*
X20727Y04924D01*
X20338Y05313D01*
X20869Y05844D01*
X21258Y05455D01*
X21258Y05455D01*
G37*
G54D17*
X14094Y04528D03*
X14844Y04528D03*
G54D15*
X33445Y15552D03*
X32501Y15926D03*
X32501Y15178D03*
G54D17*
X32598Y14469D03*
X33348Y14469D03*
G54D15*
X33051Y17815D03*
X32107Y18189D03*
X32107Y17441D03*
G54D18*
X09350Y05887D03*
X09350Y05137D03*
X10138Y05887D03*
X10138Y05137D03*
G54D17*
X32105Y18898D03*
X32855Y18898D03*
G54D37*
X15453Y03405D03*
X15453Y03091D03*
G54D38*
X01358Y01565D03*
X01358Y04735D03*
G54D39*
X05098Y03150D03*
G54D38*
X05098Y04538D03*
X05098Y01762D03*
G54D40*
X00886Y03839D03*
X00886Y02461D03*
G54D38*
X01358Y14951D03*
X01358Y18121D03*
G54D39*
X05098Y16536D03*
G54D38*
X05098Y17924D03*
X05098Y15148D03*
G54D40*
X00886Y17225D03*
X00886Y15847D03*
G54D41*
X07480Y00394D03*
X10433Y00394D03*
G54D10*
G36*
X37478Y03175D02*
X38092Y02561D01*
X37728Y02197D01*
X37114Y02811D01*
X37478Y03175D01*
X37478Y03175D01*
G37*
G36*
X36532Y02229D02*
X37146Y01615D01*
X36782Y01251D01*
X36168Y01865D01*
X36532Y02229D01*
X36532Y02229D01*
G37*
G54D41*
X37130Y02213D03*
G54D42*
X22637Y00591D03*
X23819Y00591D03*
M02*
