G04 (created by PCBNEW (2013-07-05 BZR 4237)-testing) date Sat 03 Aug 2013 11:53:29 BST*
%MOIN*%
G04 Gerber Fmt 3.4, Leading zero omitted, Abs format*
%FSLAX34Y34*%
G01*
G70*
G90*
G04 APERTURE LIST*
%ADD10C,0.005906*%
%ADD11C,0.015000*%
%ADD12C,0.005000*%
%ADD13C,0.012000*%
%ADD14C,0.004500*%
%ADD15C,0.080000*%
%ADD16R,0.065000X0.090000*%
%ADD17R,0.060000X0.090000*%
%ADD18R,0.055000X0.090000*%
%ADD19C,0.059400*%
%ADD20R,0.070000X0.120000*%
%ADD21R,0.040000X0.050000*%
%ADD22R,0.050000X0.040000*%
%ADD23R,0.080000X0.100000*%
%ADD24R,0.055000X0.075000*%
%ADD25R,0.075000X0.055000*%
%ADD26R,0.074300X0.037700*%
%ADD27R,0.094800X0.066300*%
%ADD28R,0.094800X0.113500*%
%ADD29R,0.102700X0.078100*%
%ADD30R,0.031800X0.067000*%
%ADD31R,0.067000X0.031800*%
%ADD32R,0.090000X0.090000*%
%ADD33C,0.090000*%
%ADD34R,0.031800X0.063300*%
%ADD35R,0.110600X0.142000*%
%ADD36R,0.059000X0.048000*%
%ADD37R,0.098700X0.120400*%
%ADD38R,0.120400X0.098700*%
%ADD39C,0.060000*%
%ADD40C,0.055400*%
%ADD41R,0.071200X0.094800*%
%ADD42R,0.075100X0.079100*%
%ADD43C,0.036200*%
%ADD44R,0.043600X0.055400*%
%ADD45R,0.055400X0.043600*%
%ADD46R,0.079100X0.079100*%
%ADD47C,0.079100*%
%ADD48R,0.041654X0.043622*%
%ADD49R,0.043622X0.041654*%
%ADD50R,0.067244X0.090866*%
%ADD51R,0.049134X0.130039*%
%ADD52O,0.098700X0.075100*%
%ADD53R,0.090900X0.075100*%
G04 APERTURE END LIST*
G54D10*
G54D11*
X39369Y16733D02*
X39370Y16733D01*
X36417Y19685D02*
X39369Y16733D01*
X984Y19685D02*
X0Y18701D01*
X36417Y19685D02*
X984Y19685D01*
X36417Y0D02*
X39370Y2953D01*
X0Y984D02*
X0Y985D01*
X984Y0D02*
X0Y984D01*
X36417Y0D02*
X984Y0D01*
X0Y18701D02*
X0Y985D01*
X39370Y16733D02*
X39370Y2953D01*
X35531Y6005D02*
X35531Y8465D01*
X35531Y8465D02*
X34744Y9351D01*
X35531Y2855D02*
X35531Y4528D01*
X24705Y6005D02*
X24705Y10138D01*
X24705Y2855D02*
X24705Y4528D01*
X35544Y8412D02*
X34764Y9351D01*
G54D12*
X8750Y13626D02*
X8750Y14326D01*
X8750Y14326D02*
X9950Y14326D01*
X9950Y14326D02*
X9950Y13626D01*
X9950Y13626D02*
X8750Y13626D01*
X10836Y18165D02*
X10836Y17465D01*
X10836Y17465D02*
X9636Y17465D01*
X9636Y17465D02*
X9636Y18165D01*
X9636Y18165D02*
X10836Y18165D01*
X24453Y16545D02*
X25153Y16545D01*
X25153Y16545D02*
X25153Y15345D01*
X25153Y15345D02*
X24453Y15345D01*
X24453Y15345D02*
X24453Y16545D01*
X28134Y14033D02*
X28134Y13133D01*
X28134Y13133D02*
X28784Y13133D01*
X29484Y14033D02*
X30134Y14033D01*
X30134Y14033D02*
X30134Y13133D01*
X30134Y13133D02*
X29484Y13133D01*
X28784Y14033D02*
X28134Y14033D01*
X30134Y12149D02*
X30134Y13049D01*
X30134Y13049D02*
X29484Y13049D01*
X28784Y12149D02*
X28134Y12149D01*
X28134Y12149D02*
X28134Y13049D01*
X28134Y13049D02*
X28784Y13049D01*
X29484Y12149D02*
X30134Y12149D01*
X24203Y16727D02*
G75*
G03X24203Y16727I-50J0D01*
G74*
G01*
X24603Y16727D02*
X24203Y16727D01*
X24203Y16727D02*
X24203Y17327D01*
X24203Y17327D02*
X24603Y17327D01*
X25003Y17327D02*
X25403Y17327D01*
X25403Y17327D02*
X25403Y16727D01*
X25403Y16727D02*
X25003Y16727D01*
X25503Y15162D02*
G75*
G03X25503Y15162I-50J0D01*
G74*
G01*
X25003Y15162D02*
X25403Y15162D01*
X25403Y15162D02*
X25403Y14562D01*
X25403Y14562D02*
X25003Y14562D01*
X24603Y14562D02*
X24203Y14562D01*
X24203Y14562D02*
X24203Y15162D01*
X24203Y15162D02*
X24603Y15162D01*
X17073Y18564D02*
G75*
G03X17073Y18564I-50J0D01*
G74*
G01*
X17023Y18114D02*
X17023Y18514D01*
X17023Y18514D02*
X17623Y18514D01*
X17623Y18514D02*
X17623Y18114D01*
X17623Y17714D02*
X17623Y17314D01*
X17623Y17314D02*
X17023Y17314D01*
X17023Y17314D02*
X17023Y17714D01*
X8903Y19055D02*
G75*
G03X8903Y19055I-50J0D01*
G74*
G01*
X8853Y18605D02*
X8853Y19005D01*
X8853Y19005D02*
X9453Y19005D01*
X9453Y19005D02*
X9453Y18605D01*
X9453Y18205D02*
X9453Y17805D01*
X9453Y17805D02*
X8853Y17805D01*
X8853Y17805D02*
X8853Y18205D01*
X10783Y13326D02*
G75*
G03X10783Y13326I-50J0D01*
G74*
G01*
X10733Y13776D02*
X10733Y13376D01*
X10733Y13376D02*
X10133Y13376D01*
X10133Y13376D02*
X10133Y13776D01*
X10133Y14176D02*
X10133Y14576D01*
X10133Y14576D02*
X10733Y14576D01*
X10733Y14576D02*
X10733Y14176D01*
X20429Y17264D02*
G75*
G03X20429Y17264I-50J0D01*
G74*
G01*
X20379Y17714D02*
X20379Y17314D01*
X20379Y17314D02*
X19779Y17314D01*
X19779Y17314D02*
X19779Y17714D01*
X19779Y18114D02*
X19779Y18514D01*
X19779Y18514D02*
X20379Y18514D01*
X20379Y18514D02*
X20379Y18114D01*
X18845Y18564D02*
G75*
G03X18845Y18564I-50J0D01*
G74*
G01*
X18795Y18114D02*
X18795Y18514D01*
X18795Y18514D02*
X19395Y18514D01*
X19395Y18514D02*
X19395Y18114D01*
X19395Y17714D02*
X19395Y17314D01*
X19395Y17314D02*
X18795Y17314D01*
X18795Y17314D02*
X18795Y17714D01*
X18057Y18564D02*
G75*
G03X18057Y18564I-50J0D01*
G74*
G01*
X18007Y18114D02*
X18007Y18514D01*
X18007Y18514D02*
X18607Y18514D01*
X18607Y18514D02*
X18607Y18114D01*
X18607Y17714D02*
X18607Y17314D01*
X18607Y17314D02*
X18007Y17314D01*
X18007Y17314D02*
X18007Y17714D01*
G54D11*
X39370Y8093D02*
X39370Y11593D01*
X15622Y4289D02*
G75*
G03X15622Y4289I-200J0D01*
G74*
G01*
X3644Y7545D02*
G75*
G03X3644Y7545I-223J0D01*
G74*
G01*
X27315Y19300D02*
X33315Y19300D01*
X33315Y19300D02*
X33315Y18300D01*
X33315Y18300D02*
X27315Y18300D01*
X27315Y18300D02*
X27315Y19300D01*
X12895Y13583D02*
X12895Y13780D01*
X12895Y13780D02*
X20769Y13780D01*
X20769Y13780D02*
X20769Y13583D01*
X15256Y2657D02*
G75*
G03X15256Y2657I-79J0D01*
G74*
G01*
X11712Y2027D02*
X11712Y3287D01*
X13917Y3287D02*
X12657Y3287D01*
X13917Y2027D02*
X12696Y2027D01*
X14862Y2027D02*
X14862Y3287D01*
G54D12*
X12545Y5866D02*
G75*
G03X12545Y5866I-50J0D01*
G74*
G01*
X12495Y5416D02*
X12495Y5816D01*
X12495Y5816D02*
X13095Y5816D01*
X13095Y5816D02*
X13095Y5416D01*
X13095Y5016D02*
X13095Y4616D01*
X13095Y4616D02*
X12495Y4616D01*
X12495Y4616D02*
X12495Y5016D01*
G54D11*
X38780Y4036D02*
X38583Y4036D01*
X38780Y4823D02*
X38780Y3249D01*
X36398Y4823D02*
X36398Y3249D01*
G54D12*
X27767Y15162D02*
G75*
G03X27767Y15162I-50J0D01*
G74*
G01*
X27267Y15162D02*
X27667Y15162D01*
X27667Y15162D02*
X27667Y14562D01*
X27667Y14562D02*
X27267Y14562D01*
X26867Y14562D02*
X26467Y14562D01*
X26467Y14562D02*
X26467Y15162D01*
X26467Y15162D02*
X26867Y15162D01*
X26467Y16727D02*
G75*
G03X26467Y16727I-50J0D01*
G74*
G01*
X26867Y16727D02*
X26467Y16727D01*
X26467Y16727D02*
X26467Y17327D01*
X26467Y17327D02*
X26867Y17327D01*
X27267Y17327D02*
X27667Y17327D01*
X27667Y17327D02*
X27667Y16727D01*
X27667Y16727D02*
X27267Y16727D01*
X26717Y16545D02*
X27417Y16545D01*
X27417Y16545D02*
X27417Y15345D01*
X27417Y15345D02*
X26717Y15345D01*
X26717Y15345D02*
X26717Y16545D01*
G54D11*
X36515Y13996D02*
X37421Y13996D01*
X37421Y13996D02*
X37421Y17894D01*
X37421Y17894D02*
X36515Y17894D01*
X32893Y13996D02*
X36515Y13996D01*
X32893Y13996D02*
X32893Y17894D01*
X32893Y17894D02*
X36515Y17894D01*
X36712Y13740D02*
X37185Y13740D01*
X36712Y12835D02*
X37185Y12835D01*
X36220Y11968D02*
X36692Y11968D01*
X36220Y11063D02*
X36692Y11063D01*
X21988Y18307D02*
X21988Y18779D01*
X22893Y18307D02*
X22893Y18779D01*
G54D10*
X10334Y8169D02*
G75*
G03X10334Y8169I-98J0D01*
G74*
G01*
G54D11*
X6456Y866D02*
X7637Y866D01*
X11456Y866D02*
X10275Y866D01*
X11456Y3071D02*
X10275Y3071D01*
X6456Y3071D02*
X7637Y3071D01*
X6456Y3071D02*
X6456Y866D01*
X11456Y866D02*
X11456Y3071D01*
G54D13*
X28154Y614D02*
X28154Y1214D01*
X28782Y671D02*
X28754Y643D01*
X28668Y614D01*
X28611Y614D01*
X28525Y643D01*
X28468Y700D01*
X28440Y757D01*
X28411Y871D01*
X28411Y957D01*
X28440Y1071D01*
X28468Y1128D01*
X28525Y1186D01*
X28611Y1214D01*
X28668Y1214D01*
X28754Y1186D01*
X28782Y1157D01*
X28982Y1214D02*
X29354Y1214D01*
X29154Y986D01*
X29240Y986D01*
X29297Y957D01*
X29325Y928D01*
X29354Y871D01*
X29354Y728D01*
X29325Y671D01*
X29297Y643D01*
X29240Y614D01*
X29068Y614D01*
X29011Y643D01*
X28982Y671D01*
X31016Y643D02*
X31102Y614D01*
X31245Y614D01*
X31302Y643D01*
X31331Y671D01*
X31359Y728D01*
X31359Y786D01*
X31331Y843D01*
X31302Y871D01*
X31245Y900D01*
X31131Y928D01*
X31074Y957D01*
X31045Y986D01*
X31016Y1043D01*
X31016Y1100D01*
X31045Y1157D01*
X31074Y1186D01*
X31131Y1214D01*
X31274Y1214D01*
X31359Y1186D01*
X31616Y614D02*
X31616Y1214D01*
X31759Y1214D01*
X31845Y1186D01*
X31902Y1128D01*
X31931Y1071D01*
X31959Y957D01*
X31959Y871D01*
X31931Y757D01*
X31902Y700D01*
X31845Y643D01*
X31759Y614D01*
X31616Y614D01*
X32074Y557D02*
X32531Y557D01*
X33016Y671D02*
X32988Y643D01*
X32902Y614D01*
X32845Y614D01*
X32759Y643D01*
X32702Y700D01*
X32674Y757D01*
X32645Y871D01*
X32645Y957D01*
X32674Y1071D01*
X32702Y1128D01*
X32759Y1186D01*
X32845Y1214D01*
X32902Y1214D01*
X32988Y1186D01*
X33016Y1157D01*
X33245Y786D02*
X33531Y786D01*
X33188Y614D02*
X33388Y1214D01*
X33588Y614D01*
X34131Y614D02*
X33931Y900D01*
X33788Y614D02*
X33788Y1214D01*
X34016Y1214D01*
X34074Y1186D01*
X34102Y1157D01*
X34131Y1100D01*
X34131Y1014D01*
X34102Y957D01*
X34074Y928D01*
X34016Y900D01*
X33788Y900D01*
X34388Y614D02*
X34388Y1214D01*
X34531Y1214D01*
X34616Y1186D01*
X34674Y1128D01*
X34702Y1071D01*
X34731Y957D01*
X34731Y871D01*
X34702Y757D01*
X34674Y700D01*
X34616Y643D01*
X34531Y614D01*
X34388Y614D01*
G54D12*
X9106Y12856D02*
X9106Y13156D01*
X9368Y12885D02*
X9356Y12871D01*
X9320Y12856D01*
X9296Y12856D01*
X9261Y12871D01*
X9237Y12899D01*
X9225Y12928D01*
X9213Y12985D01*
X9213Y13028D01*
X9225Y13085D01*
X9237Y13113D01*
X9261Y13142D01*
X9296Y13156D01*
X9320Y13156D01*
X9356Y13142D01*
X9368Y13128D01*
X9451Y13156D02*
X9618Y13156D01*
X9511Y12856D01*
X9992Y18663D02*
X9992Y18963D01*
X10254Y18692D02*
X10242Y18677D01*
X10206Y18663D01*
X10182Y18663D01*
X10147Y18677D01*
X10123Y18706D01*
X10111Y18735D01*
X10099Y18792D01*
X10099Y18835D01*
X10111Y18892D01*
X10123Y18920D01*
X10147Y18949D01*
X10182Y18963D01*
X10206Y18963D01*
X10242Y18949D01*
X10254Y18935D01*
X10397Y18835D02*
X10373Y18849D01*
X10361Y18863D01*
X10349Y18892D01*
X10349Y18906D01*
X10361Y18935D01*
X10373Y18949D01*
X10397Y18963D01*
X10444Y18963D01*
X10468Y18949D01*
X10480Y18935D01*
X10492Y18906D01*
X10492Y18892D01*
X10480Y18863D01*
X10468Y18849D01*
X10444Y18835D01*
X10397Y18835D01*
X10373Y18820D01*
X10361Y18806D01*
X10349Y18777D01*
X10349Y18720D01*
X10361Y18692D01*
X10373Y18677D01*
X10397Y18663D01*
X10444Y18663D01*
X10468Y18677D01*
X10480Y18692D01*
X10492Y18720D01*
X10492Y18777D01*
X10480Y18806D01*
X10468Y18820D01*
X10444Y18835D01*
X23856Y15898D02*
X23556Y15898D01*
X23827Y16159D02*
X23841Y16148D01*
X23856Y16112D01*
X23856Y16088D01*
X23841Y16052D01*
X23813Y16029D01*
X23784Y16017D01*
X23727Y16005D01*
X23684Y16005D01*
X23627Y16017D01*
X23599Y16029D01*
X23570Y16052D01*
X23556Y16088D01*
X23556Y16112D01*
X23570Y16148D01*
X23584Y16159D01*
X23656Y16374D02*
X23856Y16374D01*
X23541Y16314D02*
X23756Y16255D01*
X23756Y16409D01*
X30363Y13447D02*
X30220Y13447D01*
X30220Y13747D01*
X30620Y13447D02*
X30448Y13447D01*
X30534Y13447D02*
X30534Y13747D01*
X30505Y13704D01*
X30477Y13675D01*
X30448Y13661D01*
X30417Y12491D02*
X30402Y12477D01*
X30360Y12463D01*
X30331Y12463D01*
X30288Y12477D01*
X30260Y12506D01*
X30245Y12534D01*
X30231Y12591D01*
X30231Y12634D01*
X30245Y12691D01*
X30260Y12720D01*
X30288Y12749D01*
X30331Y12763D01*
X30360Y12763D01*
X30402Y12749D01*
X30417Y12734D01*
X30531Y12734D02*
X30545Y12749D01*
X30574Y12763D01*
X30645Y12763D01*
X30674Y12749D01*
X30688Y12734D01*
X30702Y12706D01*
X30702Y12677D01*
X30688Y12634D01*
X30517Y12463D01*
X30702Y12463D01*
X30802Y12763D02*
X30988Y12763D01*
X30888Y12649D01*
X30931Y12649D01*
X30960Y12634D01*
X30974Y12620D01*
X30988Y12591D01*
X30988Y12520D01*
X30974Y12491D01*
X30960Y12477D01*
X30931Y12463D01*
X30845Y12463D01*
X30817Y12477D01*
X30802Y12491D01*
X24642Y17529D02*
X24630Y17517D01*
X24594Y17505D01*
X24571Y17505D01*
X24535Y17517D01*
X24511Y17541D01*
X24499Y17564D01*
X24487Y17612D01*
X24487Y17648D01*
X24499Y17695D01*
X24511Y17719D01*
X24535Y17743D01*
X24571Y17755D01*
X24594Y17755D01*
X24630Y17743D01*
X24642Y17731D01*
X24725Y17755D02*
X24880Y17755D01*
X24797Y17660D01*
X24832Y17660D01*
X24856Y17648D01*
X24868Y17636D01*
X24880Y17612D01*
X24880Y17553D01*
X24868Y17529D01*
X24856Y17517D01*
X24832Y17505D01*
X24761Y17505D01*
X24737Y17517D01*
X24725Y17529D01*
X25035Y17755D02*
X25059Y17755D01*
X25082Y17743D01*
X25094Y17731D01*
X25106Y17707D01*
X25118Y17660D01*
X25118Y17600D01*
X25106Y17553D01*
X25094Y17529D01*
X25082Y17517D01*
X25059Y17505D01*
X25035Y17505D01*
X25011Y17517D01*
X24999Y17529D01*
X24987Y17553D01*
X24975Y17600D01*
X24975Y17660D01*
X24987Y17707D01*
X24999Y17731D01*
X25011Y17743D01*
X25035Y17755D01*
X24642Y14182D02*
X24630Y14170D01*
X24594Y14158D01*
X24571Y14158D01*
X24535Y14170D01*
X24511Y14194D01*
X24499Y14218D01*
X24487Y14265D01*
X24487Y14301D01*
X24499Y14348D01*
X24511Y14372D01*
X24535Y14396D01*
X24571Y14408D01*
X24594Y14408D01*
X24630Y14396D01*
X24642Y14384D01*
X24737Y14384D02*
X24749Y14396D01*
X24773Y14408D01*
X24832Y14408D01*
X24856Y14396D01*
X24868Y14384D01*
X24880Y14360D01*
X24880Y14337D01*
X24868Y14301D01*
X24725Y14158D01*
X24880Y14158D01*
X25094Y14408D02*
X25047Y14408D01*
X25023Y14396D01*
X25011Y14384D01*
X24987Y14348D01*
X24975Y14301D01*
X24975Y14206D01*
X24987Y14182D01*
X24999Y14170D01*
X25023Y14158D01*
X25071Y14158D01*
X25094Y14170D01*
X25106Y14182D01*
X25118Y14206D01*
X25118Y14265D01*
X25106Y14289D01*
X25094Y14301D01*
X25071Y14313D01*
X25023Y14313D01*
X24999Y14301D01*
X24987Y14289D01*
X24975Y14265D01*
X17412Y18737D02*
X17424Y18725D01*
X17436Y18689D01*
X17436Y18665D01*
X17424Y18630D01*
X17400Y18606D01*
X17376Y18594D01*
X17328Y18582D01*
X17293Y18582D01*
X17245Y18594D01*
X17221Y18606D01*
X17198Y18630D01*
X17186Y18665D01*
X17186Y18689D01*
X17198Y18725D01*
X17209Y18737D01*
X17186Y18820D02*
X17186Y18975D01*
X17281Y18892D01*
X17281Y18927D01*
X17293Y18951D01*
X17305Y18963D01*
X17328Y18975D01*
X17388Y18975D01*
X17412Y18963D01*
X17424Y18951D01*
X17436Y18927D01*
X17436Y18856D01*
X17424Y18832D01*
X17412Y18820D01*
X17186Y19058D02*
X17186Y19225D01*
X17436Y19118D01*
X8651Y18540D02*
X8663Y18528D01*
X8675Y18492D01*
X8675Y18468D01*
X8663Y18433D01*
X8640Y18409D01*
X8616Y18397D01*
X8568Y18385D01*
X8532Y18385D01*
X8485Y18397D01*
X8461Y18409D01*
X8437Y18433D01*
X8425Y18468D01*
X8425Y18492D01*
X8437Y18528D01*
X8449Y18540D01*
X8509Y18754D02*
X8675Y18754D01*
X8413Y18694D02*
X8592Y18635D01*
X8592Y18790D01*
X8532Y18921D02*
X8520Y18897D01*
X8509Y18885D01*
X8485Y18873D01*
X8473Y18873D01*
X8449Y18885D01*
X8437Y18897D01*
X8425Y18921D01*
X8425Y18968D01*
X8437Y18992D01*
X8449Y19004D01*
X8473Y19016D01*
X8485Y19016D01*
X8509Y19004D01*
X8520Y18992D01*
X8532Y18968D01*
X8532Y18921D01*
X8544Y18897D01*
X8556Y18885D01*
X8580Y18873D01*
X8628Y18873D01*
X8651Y18885D01*
X8663Y18897D01*
X8675Y18921D01*
X8675Y18968D01*
X8663Y18992D01*
X8651Y19004D01*
X8628Y19016D01*
X8580Y19016D01*
X8556Y19004D01*
X8544Y18992D01*
X8532Y18968D01*
X10272Y13100D02*
X10260Y13088D01*
X10224Y13076D01*
X10201Y13076D01*
X10165Y13088D01*
X10141Y13112D01*
X10129Y13136D01*
X10117Y13183D01*
X10117Y13219D01*
X10129Y13267D01*
X10141Y13290D01*
X10165Y13314D01*
X10201Y13326D01*
X10224Y13326D01*
X10260Y13314D01*
X10272Y13302D01*
X10486Y13243D02*
X10486Y13076D01*
X10427Y13338D02*
X10367Y13160D01*
X10522Y13160D01*
X10593Y13326D02*
X10760Y13326D01*
X10653Y13076D01*
X19918Y16938D02*
X19906Y16926D01*
X19870Y16914D01*
X19846Y16914D01*
X19811Y16926D01*
X19787Y16950D01*
X19775Y16974D01*
X19763Y17022D01*
X19763Y17057D01*
X19775Y17105D01*
X19787Y17129D01*
X19811Y17153D01*
X19846Y17164D01*
X19870Y17164D01*
X19906Y17153D01*
X19918Y17141D01*
X20132Y17081D02*
X20132Y16914D01*
X20073Y17176D02*
X20013Y16998D01*
X20168Y16998D01*
X20394Y16914D02*
X20251Y16914D01*
X20323Y16914D02*
X20323Y17164D01*
X20299Y17129D01*
X20275Y17105D01*
X20251Y17093D01*
X19184Y18737D02*
X19196Y18725D01*
X19208Y18689D01*
X19208Y18665D01*
X19196Y18630D01*
X19172Y18606D01*
X19148Y18594D01*
X19100Y18582D01*
X19065Y18582D01*
X19017Y18594D01*
X18993Y18606D01*
X18970Y18630D01*
X18958Y18665D01*
X18958Y18689D01*
X18970Y18725D01*
X18981Y18737D01*
X19041Y18951D02*
X19208Y18951D01*
X18946Y18892D02*
X19124Y18832D01*
X19124Y18987D01*
X18958Y19130D02*
X18958Y19153D01*
X18970Y19177D01*
X18981Y19189D01*
X19005Y19201D01*
X19053Y19213D01*
X19112Y19213D01*
X19160Y19201D01*
X19184Y19189D01*
X19196Y19177D01*
X19208Y19153D01*
X19208Y19130D01*
X19196Y19106D01*
X19184Y19094D01*
X19160Y19082D01*
X19112Y19070D01*
X19053Y19070D01*
X19005Y19082D01*
X18981Y19094D01*
X18970Y19106D01*
X18958Y19130D01*
X18396Y18737D02*
X18408Y18725D01*
X18420Y18689D01*
X18420Y18665D01*
X18408Y18630D01*
X18384Y18606D01*
X18360Y18594D01*
X18312Y18582D01*
X18277Y18582D01*
X18229Y18594D01*
X18205Y18606D01*
X18182Y18630D01*
X18170Y18665D01*
X18170Y18689D01*
X18182Y18725D01*
X18193Y18737D01*
X18170Y18820D02*
X18170Y18975D01*
X18265Y18892D01*
X18265Y18927D01*
X18277Y18951D01*
X18289Y18963D01*
X18312Y18975D01*
X18372Y18975D01*
X18396Y18963D01*
X18408Y18951D01*
X18420Y18927D01*
X18420Y18856D01*
X18408Y18832D01*
X18396Y18820D01*
X18420Y19094D02*
X18420Y19142D01*
X18408Y19165D01*
X18396Y19177D01*
X18360Y19201D01*
X18312Y19213D01*
X18217Y19213D01*
X18193Y19201D01*
X18182Y19189D01*
X18170Y19165D01*
X18170Y19118D01*
X18182Y19094D01*
X18193Y19082D01*
X18217Y19070D01*
X18277Y19070D01*
X18301Y19082D01*
X18312Y19094D01*
X18324Y19118D01*
X18324Y19165D01*
X18312Y19189D01*
X18301Y19201D01*
X18277Y19213D01*
G54D13*
X38140Y11638D02*
X38140Y12238D01*
X38368Y12238D01*
X38425Y12210D01*
X38454Y12181D01*
X38483Y12124D01*
X38483Y12038D01*
X38454Y11981D01*
X38425Y11952D01*
X38368Y11924D01*
X38140Y11924D01*
X38711Y12181D02*
X38740Y12210D01*
X38797Y12238D01*
X38940Y12238D01*
X38997Y12210D01*
X39025Y12181D01*
X39054Y12124D01*
X39054Y12067D01*
X39025Y11981D01*
X38683Y11638D01*
X39054Y11638D01*
X16736Y9817D02*
X16736Y10417D01*
X17364Y9874D02*
X17336Y9846D01*
X17250Y9817D01*
X17193Y9817D01*
X17107Y9846D01*
X17050Y9903D01*
X17022Y9960D01*
X16993Y10074D01*
X16993Y10160D01*
X17022Y10274D01*
X17050Y10331D01*
X17107Y10389D01*
X17193Y10417D01*
X17250Y10417D01*
X17336Y10389D01*
X17364Y10360D01*
X17907Y10417D02*
X17622Y10417D01*
X17593Y10131D01*
X17622Y10160D01*
X17679Y10189D01*
X17822Y10189D01*
X17879Y10160D01*
X17907Y10131D01*
X17936Y10074D01*
X17936Y9931D01*
X17907Y9874D01*
X17879Y9846D01*
X17822Y9817D01*
X17679Y9817D01*
X17622Y9846D01*
X17593Y9874D01*
X1973Y11343D02*
X1973Y11943D01*
X2601Y11400D02*
X2573Y11371D01*
X2487Y11343D01*
X2430Y11343D01*
X2344Y11371D01*
X2287Y11428D01*
X2259Y11486D01*
X2230Y11600D01*
X2230Y11686D01*
X2259Y11800D01*
X2287Y11857D01*
X2344Y11914D01*
X2430Y11943D01*
X2487Y11943D01*
X2573Y11914D01*
X2601Y11886D01*
X3173Y11343D02*
X2830Y11343D01*
X3001Y11343D02*
X3001Y11943D01*
X2944Y11857D01*
X2887Y11800D01*
X2830Y11771D01*
X28198Y17445D02*
X28198Y18045D01*
X28427Y18045D01*
X28484Y18016D01*
X28513Y17988D01*
X28541Y17931D01*
X28541Y17845D01*
X28513Y17788D01*
X28484Y17759D01*
X28427Y17731D01*
X28198Y17731D01*
X28741Y18045D02*
X29141Y18045D01*
X28884Y17445D01*
X17175Y11047D02*
X17175Y11647D01*
X17403Y11647D01*
X17460Y11619D01*
X17489Y11590D01*
X17518Y11533D01*
X17518Y11447D01*
X17489Y11390D01*
X17460Y11361D01*
X17403Y11333D01*
X17175Y11333D01*
X18032Y11647D02*
X17918Y11647D01*
X17860Y11619D01*
X17832Y11590D01*
X17775Y11504D01*
X17746Y11390D01*
X17746Y11161D01*
X17775Y11104D01*
X17803Y11076D01*
X17860Y11047D01*
X17975Y11047D01*
X18032Y11076D01*
X18060Y11104D01*
X18089Y11161D01*
X18089Y11304D01*
X18060Y11361D01*
X18032Y11390D01*
X17975Y11419D01*
X17860Y11419D01*
X17803Y11390D01*
X17775Y11361D01*
X17746Y11304D01*
G54D12*
X28988Y16817D02*
X28988Y17067D01*
X29250Y16840D02*
X29238Y16829D01*
X29202Y16817D01*
X29178Y16817D01*
X29143Y16829D01*
X29119Y16852D01*
X29107Y16876D01*
X29095Y16924D01*
X29095Y16960D01*
X29107Y17007D01*
X29119Y17031D01*
X29143Y17055D01*
X29178Y17067D01*
X29202Y17067D01*
X29238Y17055D01*
X29250Y17043D01*
X29369Y16817D02*
X29416Y16817D01*
X29440Y16829D01*
X29452Y16840D01*
X29476Y16876D01*
X29488Y16924D01*
X29488Y17019D01*
X29476Y17043D01*
X29464Y17055D01*
X29440Y17067D01*
X29393Y17067D01*
X29369Y17055D01*
X29357Y17043D01*
X29345Y17019D01*
X29345Y16960D01*
X29357Y16936D01*
X29369Y16924D01*
X29393Y16912D01*
X29440Y16912D01*
X29464Y16924D01*
X29476Y16936D01*
X29488Y16960D01*
G54D13*
X2043Y6644D02*
X1443Y6644D01*
X1443Y6872D01*
X1471Y6929D01*
X1500Y6958D01*
X1557Y6987D01*
X1643Y6987D01*
X1700Y6958D01*
X1728Y6929D01*
X1757Y6872D01*
X1757Y6644D01*
X2043Y7272D02*
X2043Y7387D01*
X2014Y7444D01*
X1986Y7472D01*
X1900Y7529D01*
X1786Y7558D01*
X1557Y7558D01*
X1500Y7529D01*
X1471Y7501D01*
X1443Y7444D01*
X1443Y7329D01*
X1471Y7272D01*
X1500Y7244D01*
X1557Y7215D01*
X1700Y7215D01*
X1757Y7244D01*
X1786Y7272D01*
X1814Y7329D01*
X1814Y7444D01*
X1786Y7501D01*
X1757Y7529D01*
X1700Y7558D01*
G54D12*
X802Y6171D02*
X802Y6052D01*
X552Y6052D01*
X802Y6255D02*
X552Y6255D01*
X802Y6374D02*
X552Y6374D01*
X802Y6517D01*
X552Y6517D01*
X671Y6636D02*
X671Y6719D01*
X802Y6755D02*
X802Y6636D01*
X552Y6636D01*
X552Y6755D01*
G54D13*
X5767Y15280D02*
X5767Y15880D01*
X5996Y15880D01*
X6053Y15852D01*
X6081Y15823D01*
X6110Y15766D01*
X6110Y15680D01*
X6081Y15623D01*
X6053Y15594D01*
X5996Y15566D01*
X5767Y15566D01*
X6681Y15280D02*
X6338Y15280D01*
X6510Y15280D02*
X6510Y15880D01*
X6453Y15794D01*
X6396Y15737D01*
X6338Y15709D01*
X7053Y15880D02*
X7110Y15880D01*
X7167Y15852D01*
X7196Y15823D01*
X7224Y15766D01*
X7253Y15652D01*
X7253Y15509D01*
X7224Y15394D01*
X7196Y15337D01*
X7167Y15309D01*
X7110Y15280D01*
X7053Y15280D01*
X6996Y15309D01*
X6967Y15337D01*
X6938Y15394D01*
X6910Y15509D01*
X6910Y15652D01*
X6938Y15766D01*
X6967Y15823D01*
X6996Y15852D01*
X7053Y15880D01*
G54D12*
X900Y12794D02*
X650Y12794D01*
X650Y12889D01*
X662Y12913D01*
X673Y12925D01*
X697Y12937D01*
X733Y12937D01*
X757Y12925D01*
X769Y12913D01*
X781Y12889D01*
X781Y12794D01*
X900Y13044D02*
X650Y13044D01*
X769Y13044D02*
X769Y13187D01*
X900Y13187D02*
X650Y13187D01*
X650Y13354D02*
X650Y13401D01*
X662Y13425D01*
X685Y13449D01*
X733Y13461D01*
X816Y13461D01*
X864Y13449D01*
X888Y13425D01*
X900Y13401D01*
X900Y13354D01*
X888Y13330D01*
X864Y13306D01*
X816Y13294D01*
X733Y13294D01*
X685Y13306D01*
X662Y13330D01*
X650Y13354D01*
X900Y13568D02*
X650Y13568D01*
X900Y13711D01*
X650Y13711D01*
X769Y13830D02*
X769Y13913D01*
X900Y13949D02*
X900Y13830D01*
X650Y13830D01*
X650Y13949D01*
X888Y14044D02*
X900Y14080D01*
X900Y14139D01*
X888Y14163D01*
X876Y14175D01*
X852Y14187D01*
X828Y14187D01*
X804Y14175D01*
X792Y14163D01*
X781Y14139D01*
X769Y14092D01*
X757Y14068D01*
X745Y14056D01*
X721Y14044D01*
X697Y14044D01*
X673Y14056D01*
X662Y14068D01*
X650Y14092D01*
X650Y14151D01*
X662Y14187D01*
G54D13*
X13589Y1411D02*
X13989Y811D01*
X13989Y1411D02*
X13589Y811D01*
X14189Y1354D02*
X14217Y1383D01*
X14274Y1411D01*
X14417Y1411D01*
X14474Y1383D01*
X14503Y1354D01*
X14532Y1297D01*
X14532Y1240D01*
X14503Y1154D01*
X14160Y811D01*
X14532Y811D01*
G54D12*
X12884Y6138D02*
X12896Y6126D01*
X12908Y6091D01*
X12908Y6067D01*
X12896Y6031D01*
X12872Y6007D01*
X12848Y5996D01*
X12801Y5984D01*
X12765Y5984D01*
X12717Y5996D01*
X12694Y6007D01*
X12670Y6031D01*
X12658Y6067D01*
X12658Y6091D01*
X12670Y6126D01*
X12682Y6138D01*
X12658Y6222D02*
X12658Y6376D01*
X12753Y6293D01*
X12753Y6329D01*
X12765Y6353D01*
X12777Y6365D01*
X12801Y6376D01*
X12860Y6376D01*
X12884Y6365D01*
X12896Y6353D01*
X12908Y6329D01*
X12908Y6257D01*
X12896Y6234D01*
X12884Y6222D01*
X12765Y6519D02*
X12753Y6496D01*
X12741Y6484D01*
X12717Y6472D01*
X12706Y6472D01*
X12682Y6484D01*
X12670Y6496D01*
X12658Y6519D01*
X12658Y6567D01*
X12670Y6591D01*
X12682Y6603D01*
X12706Y6615D01*
X12717Y6615D01*
X12741Y6603D01*
X12753Y6591D01*
X12765Y6567D01*
X12765Y6519D01*
X12777Y6496D01*
X12789Y6484D01*
X12813Y6472D01*
X12860Y6472D01*
X12884Y6484D01*
X12896Y6496D01*
X12908Y6519D01*
X12908Y6567D01*
X12896Y6591D01*
X12884Y6603D01*
X12860Y6615D01*
X12813Y6615D01*
X12789Y6603D01*
X12777Y6591D01*
X12765Y6567D01*
X36145Y3636D02*
X36159Y3678D01*
X36159Y3750D01*
X36145Y3778D01*
X36131Y3793D01*
X36102Y3807D01*
X36074Y3807D01*
X36045Y3793D01*
X36031Y3778D01*
X36016Y3750D01*
X36002Y3693D01*
X35988Y3664D01*
X35974Y3650D01*
X35945Y3636D01*
X35916Y3636D01*
X35888Y3650D01*
X35874Y3664D01*
X35859Y3693D01*
X35859Y3764D01*
X35874Y3807D01*
X35859Y3907D02*
X36159Y3978D01*
X35945Y4036D01*
X36159Y4093D01*
X35859Y4164D01*
X35859Y4250D02*
X35859Y4436D01*
X35974Y4336D01*
X35974Y4378D01*
X35988Y4407D01*
X36002Y4421D01*
X36031Y4436D01*
X36102Y4436D01*
X36131Y4421D01*
X36145Y4407D01*
X36159Y4378D01*
X36159Y4293D01*
X36145Y4264D01*
X36131Y4250D01*
X38915Y5765D02*
X38772Y5665D01*
X38915Y5594D02*
X38615Y5594D01*
X38615Y5708D01*
X38629Y5736D01*
X38643Y5751D01*
X38672Y5765D01*
X38715Y5765D01*
X38743Y5751D01*
X38758Y5736D01*
X38772Y5708D01*
X38772Y5594D01*
X38758Y5894D02*
X38758Y5994D01*
X38915Y6036D02*
X38915Y5894D01*
X38615Y5894D01*
X38615Y6036D01*
X38901Y6151D02*
X38915Y6194D01*
X38915Y6265D01*
X38901Y6294D01*
X38886Y6308D01*
X38858Y6322D01*
X38829Y6322D01*
X38801Y6308D01*
X38786Y6294D01*
X38772Y6265D01*
X38758Y6208D01*
X38743Y6179D01*
X38729Y6165D01*
X38701Y6151D01*
X38672Y6151D01*
X38643Y6165D01*
X38629Y6179D01*
X38615Y6208D01*
X38615Y6279D01*
X38629Y6322D01*
X38758Y6451D02*
X38758Y6551D01*
X38915Y6594D02*
X38915Y6451D01*
X38615Y6451D01*
X38615Y6594D01*
X38615Y6679D02*
X38615Y6851D01*
X38915Y6765D02*
X38615Y6765D01*
G54D14*
X9222Y7380D02*
X9213Y7367D01*
X9187Y7354D01*
X9170Y7354D01*
X9144Y7367D01*
X9127Y7394D01*
X9119Y7420D01*
X9110Y7474D01*
X9110Y7514D01*
X9119Y7567D01*
X9127Y7594D01*
X9144Y7620D01*
X9170Y7634D01*
X9187Y7634D01*
X9213Y7620D01*
X9222Y7607D01*
X9393Y7354D02*
X9290Y7354D01*
X9342Y7354D02*
X9342Y7634D01*
X9324Y7594D01*
X9307Y7567D01*
X9290Y7554D01*
X8533Y11022D02*
X8524Y11009D01*
X8498Y10995D01*
X8481Y10995D01*
X8455Y11009D01*
X8438Y11035D01*
X8430Y11062D01*
X8421Y11115D01*
X8421Y11155D01*
X8430Y11209D01*
X8438Y11235D01*
X8455Y11262D01*
X8481Y11275D01*
X8498Y11275D01*
X8524Y11262D01*
X8533Y11249D01*
X8601Y11249D02*
X8610Y11262D01*
X8627Y11275D01*
X8670Y11275D01*
X8687Y11262D01*
X8695Y11249D01*
X8704Y11222D01*
X8704Y11195D01*
X8695Y11155D01*
X8593Y10995D01*
X8704Y10995D01*
X1249Y490D02*
X1241Y477D01*
X1215Y464D01*
X1198Y464D01*
X1172Y477D01*
X1155Y504D01*
X1146Y530D01*
X1138Y584D01*
X1138Y624D01*
X1146Y677D01*
X1155Y704D01*
X1172Y730D01*
X1198Y744D01*
X1215Y744D01*
X1241Y730D01*
X1249Y717D01*
X1309Y744D02*
X1421Y744D01*
X1361Y637D01*
X1386Y637D01*
X1403Y624D01*
X1412Y610D01*
X1421Y584D01*
X1421Y517D01*
X1412Y490D01*
X1403Y477D01*
X1386Y464D01*
X1335Y464D01*
X1318Y477D01*
X1309Y490D01*
X6104Y2627D02*
X6117Y2619D01*
X6130Y2593D01*
X6130Y2576D01*
X6117Y2550D01*
X6090Y2533D01*
X6064Y2525D01*
X6010Y2516D01*
X5970Y2516D01*
X5917Y2525D01*
X5890Y2533D01*
X5864Y2550D01*
X5850Y2576D01*
X5850Y2593D01*
X5864Y2619D01*
X5877Y2627D01*
X5944Y2782D02*
X6130Y2782D01*
X5837Y2739D02*
X6037Y2696D01*
X6037Y2807D01*
X5383Y490D02*
X5374Y477D01*
X5349Y464D01*
X5332Y464D01*
X5306Y477D01*
X5289Y504D01*
X5280Y530D01*
X5272Y584D01*
X5272Y624D01*
X5280Y677D01*
X5289Y704D01*
X5306Y730D01*
X5332Y744D01*
X5349Y744D01*
X5374Y730D01*
X5383Y717D01*
X5546Y744D02*
X5460Y744D01*
X5452Y610D01*
X5460Y624D01*
X5477Y637D01*
X5520Y637D01*
X5537Y624D01*
X5546Y610D01*
X5554Y584D01*
X5554Y517D01*
X5546Y490D01*
X5537Y477D01*
X5520Y464D01*
X5477Y464D01*
X5460Y477D01*
X5452Y490D01*
X1151Y6002D02*
X1142Y5989D01*
X1116Y5976D01*
X1099Y5976D01*
X1074Y5989D01*
X1056Y6016D01*
X1048Y6042D01*
X1039Y6096D01*
X1039Y6136D01*
X1048Y6189D01*
X1056Y6216D01*
X1074Y6242D01*
X1099Y6256D01*
X1116Y6256D01*
X1142Y6242D01*
X1151Y6229D01*
X1305Y6256D02*
X1271Y6256D01*
X1254Y6242D01*
X1245Y6229D01*
X1228Y6189D01*
X1219Y6136D01*
X1219Y6029D01*
X1228Y6002D01*
X1236Y5989D01*
X1254Y5976D01*
X1288Y5976D01*
X1305Y5989D01*
X1314Y6002D01*
X1322Y6029D01*
X1322Y6096D01*
X1314Y6122D01*
X1305Y6136D01*
X1288Y6149D01*
X1254Y6149D01*
X1236Y6136D01*
X1228Y6122D01*
X1219Y6096D01*
X659Y9053D02*
X650Y9040D01*
X624Y9027D01*
X607Y9027D01*
X581Y9040D01*
X564Y9067D01*
X556Y9093D01*
X547Y9147D01*
X547Y9187D01*
X556Y9240D01*
X564Y9267D01*
X581Y9293D01*
X607Y9307D01*
X624Y9307D01*
X650Y9293D01*
X659Y9280D01*
X719Y9307D02*
X839Y9307D01*
X761Y9027D01*
X1348Y10628D02*
X1339Y10615D01*
X1313Y10602D01*
X1296Y10602D01*
X1270Y10615D01*
X1253Y10642D01*
X1245Y10668D01*
X1236Y10722D01*
X1236Y10762D01*
X1245Y10815D01*
X1253Y10842D01*
X1270Y10868D01*
X1296Y10882D01*
X1313Y10882D01*
X1339Y10868D01*
X1348Y10855D01*
X1450Y10762D02*
X1433Y10775D01*
X1425Y10788D01*
X1416Y10815D01*
X1416Y10828D01*
X1425Y10855D01*
X1433Y10868D01*
X1450Y10882D01*
X1485Y10882D01*
X1502Y10868D01*
X1510Y10855D01*
X1519Y10828D01*
X1519Y10815D01*
X1510Y10788D01*
X1502Y10775D01*
X1485Y10762D01*
X1450Y10762D01*
X1433Y10748D01*
X1425Y10735D01*
X1416Y10708D01*
X1416Y10655D01*
X1425Y10628D01*
X1433Y10615D01*
X1450Y10602D01*
X1485Y10602D01*
X1502Y10615D01*
X1510Y10628D01*
X1519Y10655D01*
X1519Y10708D01*
X1510Y10735D01*
X1502Y10748D01*
X1485Y10762D01*
X659Y9644D02*
X650Y9631D01*
X624Y9617D01*
X607Y9617D01*
X581Y9631D01*
X564Y9657D01*
X556Y9684D01*
X547Y9737D01*
X547Y9777D01*
X556Y9831D01*
X564Y9857D01*
X581Y9884D01*
X607Y9897D01*
X624Y9897D01*
X650Y9884D01*
X659Y9871D01*
X744Y9617D02*
X779Y9617D01*
X796Y9631D01*
X804Y9644D01*
X821Y9684D01*
X830Y9737D01*
X830Y9844D01*
X821Y9871D01*
X813Y9884D01*
X796Y9897D01*
X761Y9897D01*
X744Y9884D01*
X736Y9871D01*
X727Y9844D01*
X727Y9777D01*
X736Y9751D01*
X744Y9737D01*
X761Y9724D01*
X796Y9724D01*
X813Y9737D01*
X821Y9751D01*
X830Y9777D01*
X671Y8463D02*
X663Y8450D01*
X637Y8436D01*
X620Y8436D01*
X594Y8450D01*
X577Y8476D01*
X568Y8503D01*
X560Y8556D01*
X560Y8596D01*
X568Y8650D01*
X577Y8676D01*
X594Y8703D01*
X620Y8716D01*
X637Y8716D01*
X663Y8703D01*
X671Y8690D01*
X843Y8436D02*
X740Y8436D01*
X791Y8436D02*
X791Y8716D01*
X774Y8676D01*
X757Y8650D01*
X740Y8636D01*
X954Y8716D02*
X971Y8716D01*
X988Y8703D01*
X997Y8690D01*
X1006Y8663D01*
X1014Y8610D01*
X1014Y8543D01*
X1006Y8490D01*
X997Y8463D01*
X988Y8450D01*
X971Y8436D01*
X954Y8436D01*
X937Y8450D01*
X928Y8463D01*
X920Y8490D01*
X911Y8543D01*
X911Y8610D01*
X920Y8663D01*
X928Y8690D01*
X937Y8703D01*
X954Y8716D01*
X4922Y5790D02*
X4936Y5781D01*
X4949Y5755D01*
X4949Y5738D01*
X4936Y5713D01*
X4909Y5695D01*
X4882Y5687D01*
X4829Y5678D01*
X4789Y5678D01*
X4736Y5687D01*
X4709Y5695D01*
X4682Y5713D01*
X4669Y5738D01*
X4669Y5755D01*
X4682Y5781D01*
X4696Y5790D01*
X4949Y5961D02*
X4949Y5858D01*
X4949Y5910D02*
X4669Y5910D01*
X4709Y5893D01*
X4736Y5875D01*
X4749Y5858D01*
X4949Y6133D02*
X4949Y6030D01*
X4949Y6081D02*
X4669Y6081D01*
X4709Y6064D01*
X4736Y6047D01*
X4749Y6030D01*
X7463Y7971D02*
X7454Y7957D01*
X7428Y7944D01*
X7411Y7944D01*
X7385Y7957D01*
X7368Y7984D01*
X7360Y8011D01*
X7351Y8064D01*
X7351Y8104D01*
X7360Y8157D01*
X7368Y8184D01*
X7385Y8211D01*
X7411Y8224D01*
X7428Y8224D01*
X7454Y8211D01*
X7463Y8197D01*
X7634Y7944D02*
X7531Y7944D01*
X7583Y7944D02*
X7583Y8224D01*
X7565Y8184D01*
X7548Y8157D01*
X7531Y8144D01*
X7703Y8197D02*
X7711Y8211D01*
X7728Y8224D01*
X7771Y8224D01*
X7788Y8211D01*
X7797Y8197D01*
X7805Y8171D01*
X7805Y8144D01*
X7797Y8104D01*
X7694Y7944D01*
X7805Y7944D01*
X7463Y10924D02*
X7454Y10910D01*
X7428Y10897D01*
X7411Y10897D01*
X7385Y10910D01*
X7368Y10937D01*
X7360Y10964D01*
X7351Y11017D01*
X7351Y11057D01*
X7360Y11110D01*
X7368Y11137D01*
X7385Y11164D01*
X7411Y11177D01*
X7428Y11177D01*
X7454Y11164D01*
X7463Y11150D01*
X7634Y10897D02*
X7531Y10897D01*
X7583Y10897D02*
X7583Y11177D01*
X7565Y11137D01*
X7548Y11110D01*
X7531Y11097D01*
X7694Y11177D02*
X7805Y11177D01*
X7745Y11070D01*
X7771Y11070D01*
X7788Y11057D01*
X7797Y11044D01*
X7805Y11017D01*
X7805Y10950D01*
X7797Y10924D01*
X7788Y10910D01*
X7771Y10897D01*
X7720Y10897D01*
X7703Y10910D01*
X7694Y10924D01*
X4332Y5790D02*
X4345Y5781D01*
X4359Y5755D01*
X4359Y5738D01*
X4345Y5713D01*
X4319Y5695D01*
X4292Y5687D01*
X4239Y5678D01*
X4199Y5678D01*
X4145Y5687D01*
X4119Y5695D01*
X4092Y5713D01*
X4079Y5738D01*
X4079Y5755D01*
X4092Y5781D01*
X4105Y5790D01*
X4359Y5961D02*
X4359Y5858D01*
X4359Y5910D02*
X4079Y5910D01*
X4119Y5893D01*
X4145Y5875D01*
X4159Y5858D01*
X4172Y6115D02*
X4359Y6115D01*
X4065Y6073D02*
X4265Y6030D01*
X4265Y6141D01*
X6048Y6606D02*
X6032Y6602D01*
X6005Y6611D01*
X5993Y6623D01*
X5984Y6651D01*
X5991Y6682D01*
X6003Y6707D01*
X6035Y6750D01*
X6063Y6779D01*
X6107Y6810D01*
X6132Y6823D01*
X6163Y6830D01*
X6191Y6821D01*
X6203Y6809D01*
X6211Y6781D01*
X6208Y6766D01*
X6150Y6465D02*
X6077Y6538D01*
X6114Y6502D02*
X6312Y6700D01*
X6271Y6684D01*
X6240Y6677D01*
X6219Y6680D01*
X6463Y6548D02*
X6403Y6609D01*
X6302Y6521D01*
X6318Y6524D01*
X6339Y6521D01*
X6370Y6491D01*
X6372Y6469D01*
X6369Y6454D01*
X6356Y6429D01*
X6309Y6382D01*
X6284Y6369D01*
X6269Y6366D01*
X6247Y6368D01*
X6217Y6399D01*
X6214Y6420D01*
X6218Y6436D01*
X6183Y11908D02*
X6175Y11894D01*
X6149Y11881D01*
X6132Y11881D01*
X6106Y11894D01*
X6089Y11921D01*
X6080Y11948D01*
X6072Y12001D01*
X6072Y12041D01*
X6080Y12094D01*
X6089Y12121D01*
X6106Y12148D01*
X6132Y12161D01*
X6149Y12161D01*
X6175Y12148D01*
X6183Y12134D01*
X6355Y11881D02*
X6252Y11881D01*
X6303Y11881D02*
X6303Y12161D01*
X6286Y12121D01*
X6269Y12094D01*
X6252Y12081D01*
X6509Y12161D02*
X6475Y12161D01*
X6457Y12148D01*
X6449Y12134D01*
X6432Y12094D01*
X6423Y12041D01*
X6423Y11934D01*
X6432Y11908D01*
X6440Y11894D01*
X6457Y11881D01*
X6492Y11881D01*
X6509Y11894D01*
X6517Y11908D01*
X6526Y11934D01*
X6526Y12001D01*
X6517Y12028D01*
X6509Y12041D01*
X6492Y12054D01*
X6457Y12054D01*
X6440Y12041D01*
X6432Y12028D01*
X6423Y12001D01*
X5021Y12187D02*
X5034Y12179D01*
X5048Y12153D01*
X5048Y12136D01*
X5034Y12110D01*
X5008Y12093D01*
X4981Y12084D01*
X4928Y12076D01*
X4888Y12076D01*
X4834Y12084D01*
X4808Y12093D01*
X4781Y12110D01*
X4768Y12136D01*
X4768Y12153D01*
X4781Y12179D01*
X4794Y12187D01*
X5048Y12359D02*
X5048Y12256D01*
X5048Y12307D02*
X4768Y12307D01*
X4808Y12290D01*
X4834Y12273D01*
X4848Y12256D01*
X4768Y12419D02*
X4768Y12539D01*
X5048Y12462D01*
X6970Y18010D02*
X6962Y17997D01*
X6936Y17983D01*
X6919Y17983D01*
X6893Y17997D01*
X6876Y18023D01*
X6868Y18050D01*
X6859Y18103D01*
X6859Y18143D01*
X6868Y18197D01*
X6876Y18223D01*
X6893Y18250D01*
X6919Y18263D01*
X6936Y18263D01*
X6962Y18250D01*
X6970Y18237D01*
X7142Y17983D02*
X7039Y17983D01*
X7090Y17983D02*
X7090Y18263D01*
X7073Y18223D01*
X7056Y18197D01*
X7039Y18183D01*
X7245Y18143D02*
X7228Y18157D01*
X7219Y18170D01*
X7210Y18197D01*
X7210Y18210D01*
X7219Y18237D01*
X7228Y18250D01*
X7245Y18263D01*
X7279Y18263D01*
X7296Y18250D01*
X7305Y18237D01*
X7313Y18210D01*
X7313Y18197D01*
X7305Y18170D01*
X7296Y18157D01*
X7279Y18143D01*
X7245Y18143D01*
X7228Y18130D01*
X7219Y18117D01*
X7210Y18090D01*
X7210Y18037D01*
X7219Y18010D01*
X7228Y17997D01*
X7245Y17983D01*
X7279Y17983D01*
X7296Y17997D01*
X7305Y18010D01*
X7313Y18037D01*
X7313Y18090D01*
X7305Y18117D01*
X7296Y18130D01*
X7279Y18143D01*
X6970Y18404D02*
X6962Y18391D01*
X6936Y18377D01*
X6919Y18377D01*
X6893Y18391D01*
X6876Y18417D01*
X6868Y18444D01*
X6859Y18497D01*
X6859Y18537D01*
X6868Y18591D01*
X6876Y18617D01*
X6893Y18644D01*
X6919Y18657D01*
X6936Y18657D01*
X6962Y18644D01*
X6970Y18631D01*
X7039Y18631D02*
X7048Y18644D01*
X7065Y18657D01*
X7108Y18657D01*
X7125Y18644D01*
X7133Y18631D01*
X7142Y18604D01*
X7142Y18577D01*
X7133Y18537D01*
X7030Y18377D01*
X7142Y18377D01*
X7253Y18657D02*
X7270Y18657D01*
X7288Y18644D01*
X7296Y18631D01*
X7305Y18604D01*
X7313Y18551D01*
X7313Y18484D01*
X7305Y18431D01*
X7296Y18404D01*
X7288Y18391D01*
X7270Y18377D01*
X7253Y18377D01*
X7236Y18391D01*
X7228Y18404D01*
X7219Y18431D01*
X7210Y18484D01*
X7210Y18551D01*
X7219Y18604D01*
X7228Y18631D01*
X7236Y18644D01*
X7253Y18657D01*
X3249Y18979D02*
X3263Y18970D01*
X3276Y18944D01*
X3276Y18927D01*
X3263Y18902D01*
X3236Y18884D01*
X3209Y18876D01*
X3156Y18867D01*
X3116Y18867D01*
X3063Y18876D01*
X3036Y18884D01*
X3009Y18902D01*
X2996Y18927D01*
X2996Y18944D01*
X3009Y18970D01*
X3023Y18979D01*
X3023Y19047D02*
X3009Y19056D01*
X2996Y19073D01*
X2996Y19116D01*
X3009Y19133D01*
X3023Y19142D01*
X3049Y19150D01*
X3076Y19150D01*
X3116Y19142D01*
X3276Y19039D01*
X3276Y19150D01*
X3276Y19322D02*
X3276Y19219D01*
X3276Y19270D02*
X2996Y19270D01*
X3036Y19253D01*
X3063Y19236D01*
X3076Y19219D01*
X13073Y687D02*
X13064Y674D01*
X13039Y661D01*
X13021Y661D01*
X12996Y674D01*
X12979Y701D01*
X12970Y727D01*
X12961Y781D01*
X12961Y821D01*
X12970Y874D01*
X12979Y901D01*
X12996Y927D01*
X13021Y941D01*
X13039Y941D01*
X13064Y927D01*
X13073Y914D01*
X13141Y914D02*
X13150Y927D01*
X13167Y941D01*
X13210Y941D01*
X13227Y927D01*
X13236Y914D01*
X13244Y887D01*
X13244Y861D01*
X13236Y821D01*
X13133Y661D01*
X13244Y661D01*
X13399Y847D02*
X13399Y661D01*
X13356Y954D02*
X13313Y754D01*
X13424Y754D01*
X13467Y4329D02*
X13458Y4316D01*
X13432Y4302D01*
X13415Y4302D01*
X13389Y4316D01*
X13372Y4342D01*
X13364Y4369D01*
X13355Y4422D01*
X13355Y4462D01*
X13364Y4516D01*
X13372Y4542D01*
X13389Y4569D01*
X13415Y4582D01*
X13432Y4582D01*
X13458Y4569D01*
X13467Y4556D01*
X13535Y4556D02*
X13544Y4569D01*
X13561Y4582D01*
X13604Y4582D01*
X13621Y4569D01*
X13629Y4556D01*
X13638Y4529D01*
X13638Y4502D01*
X13629Y4462D01*
X13527Y4302D01*
X13638Y4302D01*
X13801Y4582D02*
X13715Y4582D01*
X13707Y4449D01*
X13715Y4462D01*
X13732Y4476D01*
X13775Y4476D01*
X13792Y4462D01*
X13801Y4449D01*
X13809Y4422D01*
X13809Y4356D01*
X13801Y4329D01*
X13792Y4316D01*
X13775Y4302D01*
X13732Y4302D01*
X13715Y4316D01*
X13707Y4329D01*
X37581Y6494D02*
X37572Y6481D01*
X37546Y6468D01*
X37529Y6468D01*
X37504Y6481D01*
X37486Y6508D01*
X37478Y6534D01*
X37469Y6588D01*
X37469Y6628D01*
X37478Y6681D01*
X37486Y6708D01*
X37504Y6734D01*
X37529Y6748D01*
X37546Y6748D01*
X37572Y6734D01*
X37581Y6721D01*
X37649Y6721D02*
X37658Y6734D01*
X37675Y6748D01*
X37718Y6748D01*
X37735Y6734D01*
X37744Y6721D01*
X37752Y6694D01*
X37752Y6668D01*
X37744Y6628D01*
X37641Y6468D01*
X37752Y6468D01*
X37812Y6748D02*
X37932Y6748D01*
X37855Y6468D01*
X19194Y1262D02*
X19207Y1254D01*
X19221Y1228D01*
X19221Y1211D01*
X19207Y1185D01*
X19181Y1168D01*
X19154Y1159D01*
X19101Y1151D01*
X19061Y1151D01*
X19007Y1159D01*
X18981Y1168D01*
X18954Y1185D01*
X18941Y1211D01*
X18941Y1228D01*
X18954Y1254D01*
X18967Y1262D01*
X18967Y1331D02*
X18954Y1339D01*
X18941Y1356D01*
X18941Y1399D01*
X18954Y1416D01*
X18967Y1425D01*
X18994Y1434D01*
X19021Y1434D01*
X19061Y1425D01*
X19221Y1322D01*
X19221Y1434D01*
X19061Y1536D02*
X19047Y1519D01*
X19034Y1511D01*
X19007Y1502D01*
X18994Y1502D01*
X18967Y1511D01*
X18954Y1519D01*
X18941Y1536D01*
X18941Y1571D01*
X18954Y1588D01*
X18967Y1596D01*
X18994Y1605D01*
X19007Y1605D01*
X19034Y1596D01*
X19047Y1588D01*
X19061Y1571D01*
X19061Y1536D01*
X19074Y1519D01*
X19087Y1511D01*
X19114Y1502D01*
X19167Y1502D01*
X19194Y1511D01*
X19207Y1519D01*
X19221Y1536D01*
X19221Y1571D01*
X19207Y1588D01*
X19194Y1596D01*
X19167Y1605D01*
X19114Y1605D01*
X19087Y1596D01*
X19074Y1588D01*
X19061Y1571D01*
X14863Y672D02*
X14877Y663D01*
X14890Y637D01*
X14890Y620D01*
X14877Y594D01*
X14850Y577D01*
X14823Y569D01*
X14770Y560D01*
X14730Y560D01*
X14677Y569D01*
X14650Y577D01*
X14623Y594D01*
X14610Y620D01*
X14610Y637D01*
X14623Y663D01*
X14637Y672D01*
X14637Y740D02*
X14623Y749D01*
X14610Y766D01*
X14610Y809D01*
X14623Y826D01*
X14637Y834D01*
X14663Y843D01*
X14690Y843D01*
X14730Y834D01*
X14890Y732D01*
X14890Y843D01*
X14890Y929D02*
X14890Y963D01*
X14877Y980D01*
X14863Y989D01*
X14823Y1006D01*
X14770Y1014D01*
X14663Y1014D01*
X14637Y1006D01*
X14623Y997D01*
X14610Y980D01*
X14610Y946D01*
X14623Y929D01*
X14637Y920D01*
X14663Y912D01*
X14730Y912D01*
X14757Y920D01*
X14770Y929D01*
X14783Y946D01*
X14783Y980D01*
X14770Y997D01*
X14757Y1006D01*
X14730Y1014D01*
X20750Y4526D02*
X20741Y4513D01*
X20716Y4499D01*
X20699Y4499D01*
X20673Y4513D01*
X20656Y4539D01*
X20647Y4566D01*
X20639Y4619D01*
X20639Y4659D01*
X20647Y4713D01*
X20656Y4739D01*
X20673Y4766D01*
X20699Y4779D01*
X20716Y4779D01*
X20741Y4766D01*
X20750Y4753D01*
X20810Y4779D02*
X20921Y4779D01*
X20861Y4673D01*
X20887Y4673D01*
X20904Y4659D01*
X20913Y4646D01*
X20921Y4619D01*
X20921Y4553D01*
X20913Y4526D01*
X20904Y4513D01*
X20887Y4499D01*
X20836Y4499D01*
X20819Y4513D01*
X20810Y4526D01*
X21093Y4499D02*
X20990Y4499D01*
X21041Y4499D02*
X21041Y4779D01*
X21024Y4739D01*
X21007Y4713D01*
X20990Y4699D01*
X14076Y17207D02*
X14089Y17198D01*
X14103Y17173D01*
X14103Y17156D01*
X14089Y17130D01*
X14063Y17113D01*
X14036Y17104D01*
X13983Y17096D01*
X13943Y17096D01*
X13889Y17104D01*
X13863Y17113D01*
X13836Y17130D01*
X13823Y17156D01*
X13823Y17173D01*
X13836Y17198D01*
X13849Y17207D01*
X13823Y17267D02*
X13823Y17378D01*
X13929Y17318D01*
X13929Y17344D01*
X13943Y17361D01*
X13956Y17370D01*
X13983Y17378D01*
X14049Y17378D01*
X14076Y17370D01*
X14089Y17361D01*
X14103Y17344D01*
X14103Y17293D01*
X14089Y17276D01*
X14076Y17267D01*
X13849Y17447D02*
X13836Y17456D01*
X13823Y17473D01*
X13823Y17516D01*
X13836Y17533D01*
X13849Y17541D01*
X13876Y17550D01*
X13903Y17550D01*
X13943Y17541D01*
X14103Y17438D01*
X14103Y17550D01*
X14667Y17207D02*
X14680Y17198D01*
X14693Y17173D01*
X14693Y17156D01*
X14680Y17130D01*
X14653Y17113D01*
X14627Y17104D01*
X14573Y17096D01*
X14533Y17096D01*
X14480Y17104D01*
X14453Y17113D01*
X14427Y17130D01*
X14413Y17156D01*
X14413Y17173D01*
X14427Y17198D01*
X14440Y17207D01*
X14413Y17267D02*
X14413Y17378D01*
X14520Y17318D01*
X14520Y17344D01*
X14533Y17361D01*
X14547Y17370D01*
X14573Y17378D01*
X14640Y17378D01*
X14667Y17370D01*
X14680Y17361D01*
X14693Y17344D01*
X14693Y17293D01*
X14680Y17276D01*
X14667Y17267D01*
X14413Y17438D02*
X14413Y17550D01*
X14520Y17490D01*
X14520Y17516D01*
X14533Y17533D01*
X14547Y17541D01*
X14573Y17550D01*
X14640Y17550D01*
X14667Y17541D01*
X14680Y17533D01*
X14693Y17516D01*
X14693Y17464D01*
X14680Y17447D01*
X14667Y17438D01*
X15257Y17207D02*
X15270Y17198D01*
X15284Y17173D01*
X15284Y17156D01*
X15270Y17130D01*
X15244Y17113D01*
X15217Y17104D01*
X15164Y17096D01*
X15124Y17096D01*
X15070Y17104D01*
X15044Y17113D01*
X15017Y17130D01*
X15004Y17156D01*
X15004Y17173D01*
X15017Y17198D01*
X15030Y17207D01*
X15004Y17267D02*
X15004Y17378D01*
X15110Y17318D01*
X15110Y17344D01*
X15124Y17361D01*
X15137Y17370D01*
X15164Y17378D01*
X15230Y17378D01*
X15257Y17370D01*
X15270Y17361D01*
X15284Y17344D01*
X15284Y17293D01*
X15270Y17276D01*
X15257Y17267D01*
X15097Y17533D02*
X15284Y17533D01*
X14990Y17490D02*
X15190Y17447D01*
X15190Y17558D01*
X15848Y17207D02*
X15861Y17198D01*
X15874Y17173D01*
X15874Y17156D01*
X15861Y17130D01*
X15834Y17113D01*
X15808Y17104D01*
X15754Y17096D01*
X15714Y17096D01*
X15661Y17104D01*
X15634Y17113D01*
X15608Y17130D01*
X15594Y17156D01*
X15594Y17173D01*
X15608Y17198D01*
X15621Y17207D01*
X15594Y17267D02*
X15594Y17378D01*
X15701Y17318D01*
X15701Y17344D01*
X15714Y17361D01*
X15728Y17370D01*
X15754Y17378D01*
X15821Y17378D01*
X15848Y17370D01*
X15861Y17361D01*
X15874Y17344D01*
X15874Y17293D01*
X15861Y17276D01*
X15848Y17267D01*
X15594Y17541D02*
X15594Y17456D01*
X15728Y17447D01*
X15714Y17456D01*
X15701Y17473D01*
X15701Y17516D01*
X15714Y17533D01*
X15728Y17541D01*
X15754Y17550D01*
X15821Y17550D01*
X15848Y17541D01*
X15861Y17533D01*
X15874Y17516D01*
X15874Y17473D01*
X15861Y17456D01*
X15848Y17447D01*
X16438Y17207D02*
X16451Y17198D01*
X16465Y17173D01*
X16465Y17156D01*
X16451Y17130D01*
X16425Y17113D01*
X16398Y17104D01*
X16345Y17096D01*
X16305Y17096D01*
X16251Y17104D01*
X16225Y17113D01*
X16198Y17130D01*
X16185Y17156D01*
X16185Y17173D01*
X16198Y17198D01*
X16211Y17207D01*
X16185Y17267D02*
X16185Y17378D01*
X16291Y17318D01*
X16291Y17344D01*
X16305Y17361D01*
X16318Y17370D01*
X16345Y17378D01*
X16411Y17378D01*
X16438Y17370D01*
X16451Y17361D01*
X16465Y17344D01*
X16465Y17293D01*
X16451Y17276D01*
X16438Y17267D01*
X16185Y17533D02*
X16185Y17498D01*
X16198Y17481D01*
X16211Y17473D01*
X16251Y17456D01*
X16305Y17447D01*
X16411Y17447D01*
X16438Y17456D01*
X16451Y17464D01*
X16465Y17481D01*
X16465Y17516D01*
X16451Y17533D01*
X16438Y17541D01*
X16411Y17550D01*
X16345Y17550D01*
X16318Y17541D01*
X16305Y17533D01*
X16291Y17516D01*
X16291Y17481D01*
X16305Y17464D01*
X16318Y17456D01*
X16345Y17447D01*
X21045Y17223D02*
X21037Y17209D01*
X21011Y17196D01*
X20994Y17196D01*
X20968Y17209D01*
X20951Y17236D01*
X20942Y17263D01*
X20934Y17316D01*
X20934Y17356D01*
X20942Y17409D01*
X20951Y17436D01*
X20968Y17463D01*
X20994Y17476D01*
X21011Y17476D01*
X21037Y17463D01*
X21045Y17449D01*
X21200Y17383D02*
X21200Y17196D01*
X21157Y17489D02*
X21114Y17289D01*
X21225Y17289D01*
X21285Y17449D02*
X21294Y17463D01*
X21311Y17476D01*
X21354Y17476D01*
X21371Y17463D01*
X21380Y17449D01*
X21388Y17423D01*
X21388Y17396D01*
X21380Y17356D01*
X21277Y17196D01*
X21388Y17196D01*
X7974Y14057D02*
X7987Y14049D01*
X8000Y14023D01*
X8000Y14006D01*
X7987Y13980D01*
X7960Y13963D01*
X7934Y13955D01*
X7880Y13946D01*
X7840Y13946D01*
X7787Y13955D01*
X7760Y13963D01*
X7734Y13980D01*
X7720Y14006D01*
X7720Y14023D01*
X7734Y14049D01*
X7747Y14057D01*
X7814Y14212D02*
X8000Y14212D01*
X7707Y14169D02*
X7907Y14126D01*
X7907Y14237D01*
X7720Y14289D02*
X7720Y14400D01*
X7827Y14340D01*
X7827Y14366D01*
X7840Y14383D01*
X7854Y14392D01*
X7880Y14400D01*
X7947Y14400D01*
X7974Y14392D01*
X7987Y14383D01*
X8000Y14366D01*
X8000Y14315D01*
X7987Y14297D01*
X7974Y14289D01*
X8859Y17109D02*
X8873Y17100D01*
X8886Y17074D01*
X8886Y17057D01*
X8873Y17031D01*
X8846Y17014D01*
X8819Y17006D01*
X8766Y16997D01*
X8726Y16997D01*
X8673Y17006D01*
X8646Y17014D01*
X8619Y17031D01*
X8606Y17057D01*
X8606Y17074D01*
X8619Y17100D01*
X8633Y17109D01*
X8699Y17263D02*
X8886Y17263D01*
X8593Y17220D02*
X8793Y17177D01*
X8793Y17289D01*
X8699Y17434D02*
X8886Y17434D01*
X8593Y17391D02*
X8793Y17349D01*
X8793Y17460D01*
X20750Y3935D02*
X20741Y3922D01*
X20716Y3909D01*
X20699Y3909D01*
X20673Y3922D01*
X20656Y3949D01*
X20647Y3975D01*
X20639Y4029D01*
X20639Y4069D01*
X20647Y4122D01*
X20656Y4149D01*
X20673Y4175D01*
X20699Y4189D01*
X20716Y4189D01*
X20741Y4175D01*
X20750Y4162D01*
X20904Y4095D02*
X20904Y3909D01*
X20861Y4202D02*
X20819Y4002D01*
X20930Y4002D01*
X21007Y3909D02*
X21041Y3909D01*
X21059Y3922D01*
X21067Y3935D01*
X21084Y3975D01*
X21093Y4029D01*
X21093Y4135D01*
X21084Y4162D01*
X21076Y4175D01*
X21059Y4189D01*
X21024Y4189D01*
X21007Y4175D01*
X20999Y4162D01*
X20990Y4135D01*
X20990Y4069D01*
X20999Y4042D01*
X21007Y4029D01*
X21024Y4015D01*
X21059Y4015D01*
X21076Y4029D01*
X21084Y4042D01*
X21093Y4069D01*
X20264Y9296D02*
X20267Y9281D01*
X20259Y9253D01*
X20247Y9241D01*
X20219Y9232D01*
X20188Y9239D01*
X20163Y9252D01*
X20119Y9283D01*
X20091Y9312D01*
X20059Y9355D01*
X20047Y9380D01*
X20040Y9411D01*
X20049Y9439D01*
X20061Y9451D01*
X20088Y9460D01*
X20104Y9456D01*
X20200Y9590D02*
X20139Y9530D01*
X20228Y9430D01*
X20224Y9445D01*
X20227Y9467D01*
X20257Y9497D01*
X20279Y9500D01*
X20294Y9496D01*
X20319Y9483D01*
X20366Y9436D01*
X20379Y9411D01*
X20383Y9396D01*
X20380Y9374D01*
X20350Y9344D01*
X20328Y9341D01*
X20313Y9345D01*
X20285Y9675D02*
X20297Y9687D01*
X20319Y9690D01*
X20334Y9687D01*
X20359Y9674D01*
X20403Y9642D01*
X20450Y9595D01*
X20482Y9551D01*
X20494Y9527D01*
X20498Y9511D01*
X20495Y9489D01*
X20483Y9477D01*
X20461Y9475D01*
X20446Y9478D01*
X20421Y9491D01*
X20377Y9522D01*
X20330Y9570D01*
X20298Y9613D01*
X20286Y9638D01*
X20282Y9654D01*
X20285Y9675D01*
X14648Y9644D02*
X14639Y9631D01*
X14613Y9617D01*
X14596Y9617D01*
X14571Y9631D01*
X14553Y9657D01*
X14545Y9684D01*
X14536Y9737D01*
X14536Y9777D01*
X14545Y9831D01*
X14553Y9857D01*
X14571Y9884D01*
X14596Y9897D01*
X14613Y9897D01*
X14639Y9884D01*
X14648Y9871D01*
X14811Y9897D02*
X14725Y9897D01*
X14716Y9764D01*
X14725Y9777D01*
X14742Y9791D01*
X14785Y9791D01*
X14802Y9777D01*
X14811Y9764D01*
X14819Y9737D01*
X14819Y9671D01*
X14811Y9644D01*
X14802Y9631D01*
X14785Y9617D01*
X14742Y9617D01*
X14725Y9631D01*
X14716Y9644D01*
X14991Y9617D02*
X14888Y9617D01*
X14939Y9617D02*
X14939Y9897D01*
X14922Y9857D01*
X14905Y9831D01*
X14888Y9817D01*
X13584Y5888D02*
X13597Y5880D01*
X13610Y5854D01*
X13610Y5837D01*
X13597Y5811D01*
X13570Y5794D01*
X13544Y5785D01*
X13490Y5777D01*
X13450Y5777D01*
X13397Y5785D01*
X13370Y5794D01*
X13344Y5811D01*
X13330Y5837D01*
X13330Y5854D01*
X13344Y5880D01*
X13357Y5888D01*
X13330Y6051D02*
X13330Y5965D01*
X13464Y5957D01*
X13450Y5965D01*
X13437Y5982D01*
X13437Y6025D01*
X13450Y6042D01*
X13464Y6051D01*
X13490Y6060D01*
X13557Y6060D01*
X13584Y6051D01*
X13597Y6042D01*
X13610Y6025D01*
X13610Y5982D01*
X13597Y5965D01*
X13584Y5957D01*
X13357Y6128D02*
X13344Y6137D01*
X13330Y6154D01*
X13330Y6197D01*
X13344Y6214D01*
X13357Y6222D01*
X13384Y6231D01*
X13410Y6231D01*
X13450Y6222D01*
X13610Y6120D01*
X13610Y6231D01*
X21304Y5424D02*
X21288Y5421D01*
X21261Y5430D01*
X21249Y5442D01*
X21240Y5470D01*
X21246Y5500D01*
X21259Y5525D01*
X21291Y5569D01*
X21319Y5597D01*
X21363Y5629D01*
X21388Y5642D01*
X21419Y5649D01*
X21447Y5640D01*
X21459Y5628D01*
X21467Y5600D01*
X21464Y5585D01*
X21598Y5488D02*
X21537Y5549D01*
X21437Y5461D01*
X21453Y5464D01*
X21474Y5461D01*
X21504Y5431D01*
X21507Y5410D01*
X21504Y5394D01*
X21491Y5369D01*
X21444Y5322D01*
X21419Y5309D01*
X21403Y5306D01*
X21382Y5309D01*
X21352Y5339D01*
X21349Y5360D01*
X21352Y5376D01*
X21647Y5440D02*
X21725Y5361D01*
X21607Y5328D01*
X21626Y5310D01*
X21628Y5288D01*
X21625Y5273D01*
X21612Y5248D01*
X21565Y5201D01*
X21540Y5188D01*
X21525Y5185D01*
X21503Y5187D01*
X21467Y5224D01*
X21464Y5245D01*
X21467Y5261D01*
X14451Y3935D02*
X14442Y3922D01*
X14417Y3909D01*
X14399Y3909D01*
X14374Y3922D01*
X14357Y3949D01*
X14348Y3975D01*
X14339Y4029D01*
X14339Y4069D01*
X14348Y4122D01*
X14357Y4149D01*
X14374Y4175D01*
X14399Y4189D01*
X14417Y4189D01*
X14442Y4175D01*
X14451Y4162D01*
X14614Y4189D02*
X14528Y4189D01*
X14519Y4055D01*
X14528Y4069D01*
X14545Y4082D01*
X14588Y4082D01*
X14605Y4069D01*
X14614Y4055D01*
X14622Y4029D01*
X14622Y3962D01*
X14614Y3935D01*
X14605Y3922D01*
X14588Y3909D01*
X14545Y3909D01*
X14528Y3922D01*
X14519Y3935D01*
X14777Y4095D02*
X14777Y3909D01*
X14734Y4202D02*
X14691Y4002D01*
X14802Y4002D01*
X28741Y14845D02*
X28755Y14836D01*
X28768Y14811D01*
X28768Y14793D01*
X28755Y14768D01*
X28728Y14751D01*
X28701Y14742D01*
X28648Y14733D01*
X28608Y14733D01*
X28555Y14742D01*
X28528Y14751D01*
X28501Y14768D01*
X28488Y14793D01*
X28488Y14811D01*
X28501Y14836D01*
X28515Y14845D01*
X28488Y15008D02*
X28488Y14922D01*
X28621Y14913D01*
X28608Y14922D01*
X28595Y14939D01*
X28595Y14982D01*
X28608Y14999D01*
X28621Y15008D01*
X28648Y15016D01*
X28715Y15016D01*
X28741Y15008D01*
X28755Y14999D01*
X28768Y14982D01*
X28768Y14939D01*
X28755Y14922D01*
X28741Y14913D01*
X28488Y15179D02*
X28488Y15093D01*
X28621Y15085D01*
X28608Y15093D01*
X28595Y15111D01*
X28595Y15153D01*
X28608Y15171D01*
X28621Y15179D01*
X28648Y15188D01*
X28715Y15188D01*
X28741Y15179D01*
X28755Y15171D01*
X28768Y15153D01*
X28768Y15111D01*
X28755Y15093D01*
X28741Y15085D01*
X6399Y4904D02*
X6412Y4895D01*
X6425Y4870D01*
X6425Y4852D01*
X6412Y4827D01*
X6385Y4810D01*
X6359Y4801D01*
X6305Y4792D01*
X6265Y4792D01*
X6212Y4801D01*
X6185Y4810D01*
X6159Y4827D01*
X6145Y4852D01*
X6145Y4870D01*
X6159Y4895D01*
X6172Y4904D01*
X6145Y5058D02*
X6145Y5024D01*
X6159Y5007D01*
X6172Y4998D01*
X6212Y4981D01*
X6265Y4972D01*
X6372Y4972D01*
X6399Y4981D01*
X6412Y4990D01*
X6425Y5007D01*
X6425Y5041D01*
X6412Y5058D01*
X6399Y5067D01*
X6372Y5075D01*
X6305Y5075D01*
X6279Y5067D01*
X6265Y5058D01*
X6252Y5041D01*
X6252Y5007D01*
X6265Y4990D01*
X6279Y4981D01*
X6305Y4972D01*
X6145Y5187D02*
X6145Y5204D01*
X6159Y5221D01*
X6172Y5230D01*
X6199Y5238D01*
X6252Y5247D01*
X6319Y5247D01*
X6372Y5238D01*
X6399Y5230D01*
X6412Y5221D01*
X6425Y5204D01*
X6425Y5187D01*
X6412Y5170D01*
X6399Y5161D01*
X6372Y5152D01*
X6319Y5144D01*
X6252Y5144D01*
X6199Y5152D01*
X6172Y5161D01*
X6159Y5170D01*
X6145Y5187D01*
X10730Y3427D02*
X10743Y3419D01*
X10756Y3393D01*
X10756Y3376D01*
X10743Y3350D01*
X10716Y3333D01*
X10690Y3325D01*
X10636Y3316D01*
X10596Y3316D01*
X10543Y3325D01*
X10516Y3333D01*
X10490Y3350D01*
X10476Y3376D01*
X10476Y3393D01*
X10490Y3419D01*
X10503Y3427D01*
X10476Y3582D02*
X10476Y3547D01*
X10490Y3530D01*
X10503Y3522D01*
X10543Y3505D01*
X10596Y3496D01*
X10703Y3496D01*
X10730Y3505D01*
X10743Y3513D01*
X10756Y3530D01*
X10756Y3565D01*
X10743Y3582D01*
X10730Y3590D01*
X10703Y3599D01*
X10636Y3599D01*
X10610Y3590D01*
X10596Y3582D01*
X10583Y3565D01*
X10583Y3530D01*
X10596Y3513D01*
X10610Y3505D01*
X10636Y3496D01*
X10756Y3770D02*
X10756Y3667D01*
X10756Y3719D02*
X10476Y3719D01*
X10516Y3702D01*
X10543Y3685D01*
X10556Y3667D01*
G54D12*
X26906Y14281D02*
X26894Y14269D01*
X26858Y14257D01*
X26834Y14257D01*
X26799Y14269D01*
X26775Y14293D01*
X26763Y14316D01*
X26751Y14364D01*
X26751Y14400D01*
X26763Y14447D01*
X26775Y14471D01*
X26799Y14495D01*
X26834Y14507D01*
X26858Y14507D01*
X26894Y14495D01*
X26906Y14483D01*
X27120Y14507D02*
X27072Y14507D01*
X27049Y14495D01*
X27037Y14483D01*
X27013Y14447D01*
X27001Y14400D01*
X27001Y14305D01*
X27013Y14281D01*
X27025Y14269D01*
X27049Y14257D01*
X27096Y14257D01*
X27120Y14269D01*
X27132Y14281D01*
X27144Y14305D01*
X27144Y14364D01*
X27132Y14388D01*
X27120Y14400D01*
X27096Y14412D01*
X27049Y14412D01*
X27025Y14400D01*
X27013Y14388D01*
X27001Y14364D01*
X27239Y14483D02*
X27251Y14495D01*
X27275Y14507D01*
X27334Y14507D01*
X27358Y14495D01*
X27370Y14483D01*
X27382Y14459D01*
X27382Y14435D01*
X27370Y14400D01*
X27227Y14257D01*
X27382Y14257D01*
X26906Y17529D02*
X26894Y17517D01*
X26858Y17505D01*
X26834Y17505D01*
X26799Y17517D01*
X26775Y17541D01*
X26763Y17564D01*
X26751Y17612D01*
X26751Y17648D01*
X26763Y17695D01*
X26775Y17719D01*
X26799Y17743D01*
X26834Y17755D01*
X26858Y17755D01*
X26894Y17743D01*
X26906Y17731D01*
X27120Y17755D02*
X27072Y17755D01*
X27049Y17743D01*
X27037Y17731D01*
X27013Y17695D01*
X27001Y17648D01*
X27001Y17553D01*
X27013Y17529D01*
X27025Y17517D01*
X27049Y17505D01*
X27096Y17505D01*
X27120Y17517D01*
X27132Y17529D01*
X27144Y17553D01*
X27144Y17612D01*
X27132Y17636D01*
X27120Y17648D01*
X27096Y17660D01*
X27049Y17660D01*
X27025Y17648D01*
X27013Y17636D01*
X27001Y17612D01*
X27227Y17755D02*
X27382Y17755D01*
X27299Y17660D01*
X27334Y17660D01*
X27358Y17648D01*
X27370Y17636D01*
X27382Y17612D01*
X27382Y17553D01*
X27370Y17529D01*
X27358Y17517D01*
X27334Y17505D01*
X27263Y17505D01*
X27239Y17517D01*
X27227Y17529D01*
X26218Y15701D02*
X25918Y15701D01*
X26189Y15963D02*
X26204Y15951D01*
X26218Y15915D01*
X26218Y15891D01*
X26204Y15855D01*
X26175Y15832D01*
X26147Y15820D01*
X26089Y15808D01*
X26047Y15808D01*
X25989Y15820D01*
X25961Y15832D01*
X25932Y15855D01*
X25918Y15891D01*
X25918Y15915D01*
X25932Y15951D01*
X25947Y15963D01*
X25918Y16177D02*
X25918Y16129D01*
X25932Y16105D01*
X25947Y16094D01*
X25989Y16070D01*
X26047Y16058D01*
X26161Y16058D01*
X26189Y16070D01*
X26204Y16082D01*
X26218Y16105D01*
X26218Y16153D01*
X26204Y16177D01*
X26189Y16189D01*
X26161Y16201D01*
X26089Y16201D01*
X26061Y16189D01*
X26047Y16177D01*
X26032Y16153D01*
X26032Y16105D01*
X26047Y16082D01*
X26061Y16070D01*
X26089Y16058D01*
G54D13*
X38362Y15502D02*
X37762Y15502D01*
X37762Y15730D01*
X37790Y15788D01*
X37819Y15816D01*
X37876Y15845D01*
X37962Y15845D01*
X38019Y15816D01*
X38047Y15788D01*
X38076Y15730D01*
X38076Y15502D01*
X38362Y16416D02*
X38362Y16073D01*
X38362Y16245D02*
X37762Y16245D01*
X37847Y16188D01*
X37905Y16130D01*
X37933Y16073D01*
X38131Y13746D02*
X38074Y13775D01*
X38017Y13832D01*
X37931Y13918D01*
X37874Y13946D01*
X37817Y13946D01*
X37846Y13803D02*
X37789Y13832D01*
X37731Y13889D01*
X37703Y14003D01*
X37703Y14203D01*
X37731Y14318D01*
X37789Y14375D01*
X37846Y14403D01*
X37960Y14403D01*
X38017Y14375D01*
X38074Y14318D01*
X38103Y14203D01*
X38103Y14003D01*
X38074Y13889D01*
X38017Y13832D01*
X37960Y13803D01*
X37846Y13803D01*
X38674Y13803D02*
X38331Y13803D01*
X38503Y13803D02*
X38503Y14403D01*
X38446Y14318D01*
X38389Y14260D01*
X38331Y14232D01*
X35277Y11581D02*
X35220Y11609D01*
X35163Y11666D01*
X35077Y11752D01*
X35020Y11781D01*
X34963Y11781D01*
X34991Y11638D02*
X34934Y11666D01*
X34877Y11724D01*
X34849Y11838D01*
X34849Y12038D01*
X34877Y12152D01*
X34934Y12209D01*
X34991Y12238D01*
X35106Y12238D01*
X35163Y12209D01*
X35220Y12152D01*
X35249Y12038D01*
X35249Y11838D01*
X35220Y11724D01*
X35163Y11666D01*
X35106Y11638D01*
X34991Y11638D01*
X35477Y12181D02*
X35506Y12209D01*
X35563Y12238D01*
X35706Y12238D01*
X35763Y12209D01*
X35791Y12181D01*
X35820Y12124D01*
X35820Y12066D01*
X35791Y11981D01*
X35449Y11638D01*
X35820Y11638D01*
X23852Y18447D02*
X23823Y18390D01*
X23766Y18332D01*
X23680Y18247D01*
X23652Y18190D01*
X23652Y18132D01*
X23795Y18161D02*
X23766Y18104D01*
X23709Y18047D01*
X23595Y18018D01*
X23395Y18018D01*
X23280Y18047D01*
X23223Y18104D01*
X23195Y18161D01*
X23195Y18275D01*
X23223Y18332D01*
X23280Y18390D01*
X23395Y18418D01*
X23595Y18418D01*
X23709Y18390D01*
X23766Y18332D01*
X23795Y18275D01*
X23795Y18161D01*
X23195Y18618D02*
X23195Y18990D01*
X23423Y18790D01*
X23423Y18875D01*
X23452Y18932D01*
X23480Y18961D01*
X23537Y18990D01*
X23680Y18990D01*
X23737Y18961D01*
X23766Y18932D01*
X23795Y18875D01*
X23795Y18704D01*
X23766Y18647D01*
X23737Y18618D01*
G54D14*
X5580Y5779D02*
X5520Y5912D01*
X5477Y5779D02*
X5477Y6059D01*
X5546Y6059D01*
X5563Y6045D01*
X5571Y6032D01*
X5580Y6005D01*
X5580Y5965D01*
X5571Y5939D01*
X5563Y5925D01*
X5546Y5912D01*
X5477Y5912D01*
X5751Y5779D02*
X5648Y5779D01*
X5700Y5779D02*
X5700Y6059D01*
X5683Y6019D01*
X5666Y5992D01*
X5648Y5979D01*
X36150Y13159D02*
X36017Y13099D01*
X36150Y13056D02*
X35870Y13056D01*
X35870Y13125D01*
X35883Y13142D01*
X35897Y13150D01*
X35923Y13159D01*
X35963Y13159D01*
X35990Y13150D01*
X36003Y13142D01*
X36017Y13125D01*
X36017Y13056D01*
X35870Y13219D02*
X35870Y13330D01*
X35977Y13270D01*
X35977Y13296D01*
X35990Y13313D01*
X36003Y13322D01*
X36030Y13330D01*
X36097Y13330D01*
X36123Y13322D01*
X36137Y13313D01*
X36150Y13296D01*
X36150Y13245D01*
X36137Y13227D01*
X36123Y13219D01*
X4359Y12371D02*
X4225Y12311D01*
X4359Y12269D02*
X4079Y12269D01*
X4079Y12337D01*
X4092Y12354D01*
X4105Y12363D01*
X4132Y12371D01*
X4172Y12371D01*
X4199Y12363D01*
X4212Y12354D01*
X4225Y12337D01*
X4225Y12269D01*
X4172Y12526D02*
X4359Y12526D01*
X4065Y12483D02*
X4265Y12440D01*
X4265Y12551D01*
X3768Y12371D02*
X3635Y12311D01*
X3768Y12269D02*
X3488Y12269D01*
X3488Y12337D01*
X3501Y12354D01*
X3515Y12363D01*
X3541Y12371D01*
X3581Y12371D01*
X3608Y12363D01*
X3621Y12354D01*
X3635Y12337D01*
X3635Y12269D01*
X3488Y12534D02*
X3488Y12449D01*
X3621Y12440D01*
X3608Y12449D01*
X3595Y12466D01*
X3595Y12509D01*
X3608Y12526D01*
X3621Y12534D01*
X3648Y12543D01*
X3715Y12543D01*
X3741Y12534D01*
X3755Y12526D01*
X3768Y12509D01*
X3768Y12466D01*
X3755Y12449D01*
X3741Y12440D01*
X7056Y5385D02*
X6996Y5518D01*
X6953Y5385D02*
X6953Y5665D01*
X7022Y5665D01*
X7039Y5652D01*
X7048Y5638D01*
X7056Y5612D01*
X7056Y5572D01*
X7048Y5545D01*
X7039Y5532D01*
X7022Y5518D01*
X6953Y5518D01*
X7210Y5665D02*
X7176Y5665D01*
X7159Y5652D01*
X7150Y5638D01*
X7133Y5598D01*
X7125Y5545D01*
X7125Y5438D01*
X7133Y5412D01*
X7142Y5398D01*
X7159Y5385D01*
X7193Y5385D01*
X7210Y5398D01*
X7219Y5412D01*
X7228Y5438D01*
X7228Y5505D01*
X7219Y5532D01*
X7210Y5545D01*
X7193Y5558D01*
X7159Y5558D01*
X7142Y5545D01*
X7133Y5532D01*
X7125Y5505D01*
X7056Y5976D02*
X6996Y6109D01*
X6953Y5976D02*
X6953Y6256D01*
X7022Y6256D01*
X7039Y6242D01*
X7048Y6229D01*
X7056Y6202D01*
X7056Y6162D01*
X7048Y6136D01*
X7039Y6122D01*
X7022Y6109D01*
X6953Y6109D01*
X7116Y6256D02*
X7236Y6256D01*
X7159Y5976D01*
X3177Y12371D02*
X3044Y12311D01*
X3177Y12269D02*
X2897Y12269D01*
X2897Y12337D01*
X2911Y12354D01*
X2924Y12363D01*
X2951Y12371D01*
X2991Y12371D01*
X3017Y12363D01*
X3031Y12354D01*
X3044Y12337D01*
X3044Y12269D01*
X3017Y12474D02*
X3004Y12457D01*
X2991Y12449D01*
X2964Y12440D01*
X2951Y12440D01*
X2924Y12449D01*
X2911Y12457D01*
X2897Y12474D01*
X2897Y12509D01*
X2911Y12526D01*
X2924Y12534D01*
X2951Y12543D01*
X2964Y12543D01*
X2991Y12534D01*
X3004Y12526D01*
X3017Y12509D01*
X3017Y12474D01*
X3031Y12457D01*
X3044Y12449D01*
X3071Y12440D01*
X3124Y12440D01*
X3151Y12449D01*
X3164Y12457D01*
X3177Y12474D01*
X3177Y12509D01*
X3164Y12526D01*
X3151Y12534D01*
X3124Y12543D01*
X3071Y12543D01*
X3044Y12534D01*
X3031Y12526D01*
X3017Y12509D01*
X6269Y12472D02*
X6209Y12605D01*
X6166Y12472D02*
X6166Y12752D01*
X6235Y12752D01*
X6252Y12738D01*
X6260Y12725D01*
X6269Y12698D01*
X6269Y12658D01*
X6260Y12632D01*
X6252Y12618D01*
X6235Y12605D01*
X6166Y12605D01*
X6355Y12472D02*
X6389Y12472D01*
X6406Y12485D01*
X6415Y12498D01*
X6432Y12538D01*
X6440Y12592D01*
X6440Y12698D01*
X6432Y12725D01*
X6423Y12738D01*
X6406Y12752D01*
X6372Y12752D01*
X6355Y12738D01*
X6346Y12725D01*
X6337Y12698D01*
X6337Y12632D01*
X6346Y12605D01*
X6355Y12592D01*
X6372Y12578D01*
X6406Y12578D01*
X6423Y12592D01*
X6432Y12605D01*
X6440Y12632D01*
X8053Y8732D02*
X7993Y8865D01*
X7950Y8732D02*
X7950Y9012D01*
X8019Y9012D01*
X8036Y8998D01*
X8045Y8985D01*
X8053Y8958D01*
X8053Y8918D01*
X8045Y8892D01*
X8036Y8878D01*
X8019Y8865D01*
X7950Y8865D01*
X8225Y8732D02*
X8122Y8732D01*
X8173Y8732D02*
X8173Y9012D01*
X8156Y8972D01*
X8139Y8945D01*
X8122Y8932D01*
X8336Y9012D02*
X8353Y9012D01*
X8370Y8998D01*
X8379Y8985D01*
X8387Y8958D01*
X8396Y8905D01*
X8396Y8838D01*
X8387Y8785D01*
X8379Y8758D01*
X8370Y8745D01*
X8353Y8732D01*
X8336Y8732D01*
X8319Y8745D01*
X8310Y8758D01*
X8302Y8785D01*
X8293Y8838D01*
X8293Y8905D01*
X8302Y8958D01*
X8310Y8985D01*
X8319Y8998D01*
X8336Y9012D01*
X8053Y10109D02*
X7993Y10243D01*
X7950Y10109D02*
X7950Y10389D01*
X8019Y10389D01*
X8036Y10376D01*
X8045Y10363D01*
X8053Y10336D01*
X8053Y10296D01*
X8045Y10269D01*
X8036Y10256D01*
X8019Y10243D01*
X7950Y10243D01*
X8225Y10109D02*
X8122Y10109D01*
X8173Y10109D02*
X8173Y10389D01*
X8156Y10349D01*
X8139Y10323D01*
X8122Y10309D01*
X8293Y10363D02*
X8302Y10376D01*
X8319Y10389D01*
X8362Y10389D01*
X8379Y10376D01*
X8387Y10363D01*
X8396Y10336D01*
X8396Y10309D01*
X8387Y10269D01*
X8285Y10109D01*
X8396Y10109D01*
X34477Y13073D02*
X34343Y13013D01*
X34477Y12970D02*
X34197Y12970D01*
X34197Y13039D01*
X34210Y13056D01*
X34223Y13065D01*
X34250Y13073D01*
X34290Y13073D01*
X34317Y13065D01*
X34330Y13056D01*
X34343Y13039D01*
X34343Y12970D01*
X34477Y13245D02*
X34477Y13142D01*
X34477Y13193D02*
X34197Y13193D01*
X34237Y13176D01*
X34263Y13159D01*
X34277Y13142D01*
X34197Y13305D02*
X34197Y13416D01*
X34303Y13356D01*
X34303Y13382D01*
X34317Y13399D01*
X34330Y13407D01*
X34357Y13416D01*
X34423Y13416D01*
X34450Y13407D01*
X34463Y13399D01*
X34477Y13382D01*
X34477Y13330D01*
X34463Y13313D01*
X34450Y13305D01*
X37974Y12669D02*
X37914Y12802D01*
X37872Y12669D02*
X37872Y12949D01*
X37940Y12949D01*
X37957Y12935D01*
X37966Y12922D01*
X37974Y12895D01*
X37974Y12855D01*
X37966Y12829D01*
X37957Y12815D01*
X37940Y12802D01*
X37872Y12802D01*
X38146Y12669D02*
X38043Y12669D01*
X38094Y12669D02*
X38094Y12949D01*
X38077Y12909D01*
X38060Y12882D01*
X38043Y12869D01*
X38300Y12855D02*
X38300Y12669D01*
X38257Y12962D02*
X38214Y12762D01*
X38326Y12762D01*
X37187Y12275D02*
X37127Y12408D01*
X37084Y12275D02*
X37084Y12555D01*
X37153Y12555D01*
X37170Y12541D01*
X37178Y12528D01*
X37187Y12501D01*
X37187Y12461D01*
X37178Y12435D01*
X37170Y12421D01*
X37153Y12408D01*
X37084Y12408D01*
X37358Y12275D02*
X37256Y12275D01*
X37307Y12275D02*
X37307Y12555D01*
X37290Y12515D01*
X37273Y12488D01*
X37256Y12475D01*
X37521Y12555D02*
X37436Y12555D01*
X37427Y12421D01*
X37436Y12435D01*
X37453Y12448D01*
X37496Y12448D01*
X37513Y12435D01*
X37521Y12421D01*
X37530Y12395D01*
X37530Y12328D01*
X37521Y12301D01*
X37513Y12288D01*
X37496Y12275D01*
X37453Y12275D01*
X37436Y12288D01*
X37427Y12301D01*
X35514Y10503D02*
X35454Y10636D01*
X35411Y10503D02*
X35411Y10783D01*
X35480Y10783D01*
X35497Y10770D01*
X35505Y10756D01*
X35514Y10730D01*
X35514Y10690D01*
X35505Y10663D01*
X35497Y10650D01*
X35480Y10636D01*
X35411Y10636D01*
X35685Y10503D02*
X35582Y10503D01*
X35634Y10503D02*
X35634Y10783D01*
X35617Y10743D01*
X35600Y10716D01*
X35582Y10703D01*
X35840Y10783D02*
X35805Y10783D01*
X35788Y10770D01*
X35780Y10756D01*
X35762Y10716D01*
X35754Y10663D01*
X35754Y10556D01*
X35762Y10530D01*
X35771Y10516D01*
X35788Y10503D01*
X35822Y10503D01*
X35840Y10516D01*
X35848Y10530D01*
X35857Y10556D01*
X35857Y10623D01*
X35848Y10650D01*
X35840Y10663D01*
X35822Y10676D01*
X35788Y10676D01*
X35771Y10663D01*
X35762Y10650D01*
X35754Y10623D01*
X4162Y475D02*
X4028Y415D01*
X4162Y372D02*
X3882Y372D01*
X3882Y440D01*
X3895Y458D01*
X3908Y466D01*
X3935Y475D01*
X3975Y475D01*
X4002Y466D01*
X4015Y458D01*
X4028Y440D01*
X4028Y372D01*
X4162Y646D02*
X4162Y543D01*
X4162Y595D02*
X3882Y595D01*
X3922Y578D01*
X3948Y560D01*
X3962Y543D01*
X3882Y706D02*
X3882Y826D01*
X4162Y749D01*
X2640Y5976D02*
X2580Y6109D01*
X2537Y5976D02*
X2537Y6256D01*
X2605Y6256D01*
X2623Y6242D01*
X2631Y6229D01*
X2640Y6202D01*
X2640Y6162D01*
X2631Y6136D01*
X2623Y6122D01*
X2605Y6109D01*
X2537Y6109D01*
X2811Y5976D02*
X2708Y5976D01*
X2760Y5976D02*
X2760Y6256D01*
X2743Y6216D01*
X2725Y6189D01*
X2708Y6176D01*
X2914Y6136D02*
X2897Y6149D01*
X2888Y6162D01*
X2880Y6189D01*
X2880Y6202D01*
X2888Y6229D01*
X2897Y6242D01*
X2914Y6256D01*
X2948Y6256D01*
X2965Y6242D01*
X2974Y6229D01*
X2983Y6202D01*
X2983Y6189D01*
X2974Y6162D01*
X2965Y6149D01*
X2948Y6136D01*
X2914Y6136D01*
X2897Y6122D01*
X2888Y6109D01*
X2880Y6082D01*
X2880Y6029D01*
X2888Y6002D01*
X2897Y5989D01*
X2914Y5976D01*
X2948Y5976D01*
X2965Y5989D01*
X2974Y6002D01*
X2983Y6029D01*
X2983Y6082D01*
X2974Y6109D01*
X2965Y6122D01*
X2948Y6136D01*
X37134Y7955D02*
X37001Y7895D01*
X37134Y7852D02*
X36854Y7852D01*
X36854Y7921D01*
X36867Y7938D01*
X36881Y7946D01*
X36907Y7955D01*
X36947Y7955D01*
X36974Y7946D01*
X36987Y7938D01*
X37001Y7921D01*
X37001Y7852D01*
X37134Y8126D02*
X37134Y8024D01*
X37134Y8075D02*
X36854Y8075D01*
X36894Y8058D01*
X36921Y8041D01*
X36934Y8024D01*
X37134Y8212D02*
X37134Y8246D01*
X37121Y8264D01*
X37107Y8272D01*
X37067Y8289D01*
X37014Y8298D01*
X36907Y8298D01*
X36881Y8289D01*
X36867Y8281D01*
X36854Y8264D01*
X36854Y8229D01*
X36867Y8212D01*
X36881Y8204D01*
X36907Y8195D01*
X36974Y8195D01*
X37001Y8204D01*
X37014Y8212D01*
X37027Y8229D01*
X37027Y8264D01*
X37014Y8281D01*
X37001Y8289D01*
X36974Y8298D01*
X35514Y9322D02*
X35454Y9455D01*
X35411Y9322D02*
X35411Y9602D01*
X35480Y9602D01*
X35497Y9589D01*
X35505Y9575D01*
X35514Y9549D01*
X35514Y9509D01*
X35505Y9482D01*
X35497Y9469D01*
X35480Y9455D01*
X35411Y9455D01*
X35582Y9575D02*
X35591Y9589D01*
X35608Y9602D01*
X35651Y9602D01*
X35668Y9589D01*
X35677Y9575D01*
X35685Y9549D01*
X35685Y9522D01*
X35677Y9482D01*
X35574Y9322D01*
X35685Y9322D01*
X35797Y9602D02*
X35814Y9602D01*
X35831Y9589D01*
X35840Y9575D01*
X35848Y9549D01*
X35857Y9495D01*
X35857Y9429D01*
X35848Y9375D01*
X35840Y9349D01*
X35831Y9335D01*
X35814Y9322D01*
X35797Y9322D01*
X35780Y9335D01*
X35771Y9349D01*
X35762Y9375D01*
X35754Y9429D01*
X35754Y9495D01*
X35762Y9549D01*
X35771Y9575D01*
X35780Y9589D01*
X35797Y9602D01*
X35514Y9913D02*
X35454Y10046D01*
X35411Y9913D02*
X35411Y10193D01*
X35480Y10193D01*
X35497Y10179D01*
X35505Y10166D01*
X35514Y10139D01*
X35514Y10099D01*
X35505Y10073D01*
X35497Y10059D01*
X35480Y10046D01*
X35411Y10046D01*
X35582Y10166D02*
X35591Y10179D01*
X35608Y10193D01*
X35651Y10193D01*
X35668Y10179D01*
X35677Y10166D01*
X35685Y10139D01*
X35685Y10113D01*
X35677Y10073D01*
X35574Y9913D01*
X35685Y9913D01*
X35857Y9913D02*
X35754Y9913D01*
X35805Y9913D02*
X35805Y10193D01*
X35788Y10153D01*
X35771Y10126D01*
X35754Y10113D01*
X37134Y6872D02*
X37001Y6812D01*
X37134Y6770D02*
X36854Y6770D01*
X36854Y6838D01*
X36867Y6855D01*
X36881Y6864D01*
X36907Y6872D01*
X36947Y6872D01*
X36974Y6864D01*
X36987Y6855D01*
X37001Y6838D01*
X37001Y6770D01*
X36881Y6941D02*
X36867Y6950D01*
X36854Y6967D01*
X36854Y7010D01*
X36867Y7027D01*
X36881Y7035D01*
X36907Y7044D01*
X36934Y7044D01*
X36974Y7035D01*
X37134Y6932D01*
X37134Y7044D01*
X36881Y7112D02*
X36867Y7121D01*
X36854Y7138D01*
X36854Y7181D01*
X36867Y7198D01*
X36881Y7207D01*
X36907Y7215D01*
X36934Y7215D01*
X36974Y7207D01*
X37134Y7104D01*
X37134Y7215D01*
X26603Y13664D02*
X26469Y13604D01*
X26603Y13561D02*
X26323Y13561D01*
X26323Y13629D01*
X26336Y13647D01*
X26349Y13655D01*
X26376Y13664D01*
X26416Y13664D01*
X26443Y13655D01*
X26456Y13647D01*
X26469Y13629D01*
X26469Y13561D01*
X26349Y13732D02*
X26336Y13741D01*
X26323Y13758D01*
X26323Y13801D01*
X26336Y13818D01*
X26349Y13827D01*
X26376Y13835D01*
X26403Y13835D01*
X26443Y13827D01*
X26603Y13724D01*
X26603Y13835D01*
X26323Y13895D02*
X26323Y14007D01*
X26429Y13947D01*
X26429Y13972D01*
X26443Y13989D01*
X26456Y13998D01*
X26483Y14007D01*
X26549Y14007D01*
X26576Y13998D01*
X26589Y13989D01*
X26603Y13972D01*
X26603Y13921D01*
X26589Y13904D01*
X26576Y13895D01*
X27193Y13664D02*
X27060Y13604D01*
X27193Y13561D02*
X26913Y13561D01*
X26913Y13629D01*
X26927Y13647D01*
X26940Y13655D01*
X26967Y13664D01*
X27007Y13664D01*
X27033Y13655D01*
X27047Y13647D01*
X27060Y13629D01*
X27060Y13561D01*
X26940Y13732D02*
X26927Y13741D01*
X26913Y13758D01*
X26913Y13801D01*
X26927Y13818D01*
X26940Y13827D01*
X26967Y13835D01*
X26993Y13835D01*
X27033Y13827D01*
X27193Y13724D01*
X27193Y13835D01*
X27007Y13989D02*
X27193Y13989D01*
X26900Y13947D02*
X27100Y13904D01*
X27100Y14015D01*
X33492Y12778D02*
X33359Y12718D01*
X33492Y12675D02*
X33212Y12675D01*
X33212Y12744D01*
X33226Y12761D01*
X33239Y12769D01*
X33266Y12778D01*
X33306Y12778D01*
X33332Y12769D01*
X33346Y12761D01*
X33359Y12744D01*
X33359Y12675D01*
X33239Y12846D02*
X33226Y12855D01*
X33212Y12872D01*
X33212Y12915D01*
X33226Y12932D01*
X33239Y12941D01*
X33266Y12949D01*
X33292Y12949D01*
X33332Y12941D01*
X33492Y12838D01*
X33492Y12949D01*
X33212Y13112D02*
X33212Y13026D01*
X33346Y13018D01*
X33332Y13026D01*
X33319Y13044D01*
X33319Y13086D01*
X33332Y13104D01*
X33346Y13112D01*
X33372Y13121D01*
X33439Y13121D01*
X33466Y13112D01*
X33479Y13104D01*
X33492Y13086D01*
X33492Y13044D01*
X33479Y13026D01*
X33466Y13018D01*
X6183Y13062D02*
X6123Y13196D01*
X6080Y13062D02*
X6080Y13342D01*
X6149Y13342D01*
X6166Y13329D01*
X6175Y13316D01*
X6183Y13289D01*
X6183Y13249D01*
X6175Y13222D01*
X6166Y13209D01*
X6149Y13196D01*
X6080Y13196D01*
X6252Y13316D02*
X6260Y13329D01*
X6277Y13342D01*
X6320Y13342D01*
X6337Y13329D01*
X6346Y13316D01*
X6355Y13289D01*
X6355Y13262D01*
X6346Y13222D01*
X6243Y13062D01*
X6355Y13062D01*
X6509Y13342D02*
X6475Y13342D01*
X6457Y13329D01*
X6449Y13316D01*
X6432Y13276D01*
X6423Y13222D01*
X6423Y13116D01*
X6432Y13089D01*
X6440Y13076D01*
X6457Y13062D01*
X6492Y13062D01*
X6509Y13076D01*
X6517Y13089D01*
X6526Y13116D01*
X6526Y13182D01*
X6517Y13209D01*
X6509Y13222D01*
X6492Y13236D01*
X6457Y13236D01*
X6440Y13222D01*
X6432Y13209D01*
X6423Y13182D01*
X6970Y16606D02*
X6910Y16739D01*
X6868Y16606D02*
X6868Y16886D01*
X6936Y16886D01*
X6953Y16872D01*
X6962Y16859D01*
X6970Y16832D01*
X6970Y16792D01*
X6962Y16766D01*
X6953Y16752D01*
X6936Y16739D01*
X6868Y16739D01*
X7039Y16859D02*
X7048Y16872D01*
X7065Y16886D01*
X7108Y16886D01*
X7125Y16872D01*
X7133Y16859D01*
X7142Y16832D01*
X7142Y16806D01*
X7133Y16766D01*
X7030Y16606D01*
X7142Y16606D01*
X7228Y16606D02*
X7262Y16606D01*
X7279Y16619D01*
X7288Y16632D01*
X7305Y16672D01*
X7313Y16726D01*
X7313Y16832D01*
X7305Y16859D01*
X7296Y16872D01*
X7279Y16886D01*
X7245Y16886D01*
X7228Y16872D01*
X7219Y16859D01*
X7210Y16832D01*
X7210Y16766D01*
X7219Y16739D01*
X7228Y16726D01*
X7245Y16712D01*
X7279Y16712D01*
X7296Y16726D01*
X7305Y16739D01*
X7313Y16766D01*
X7803Y17305D02*
X7670Y17245D01*
X7803Y17203D02*
X7523Y17203D01*
X7523Y17271D01*
X7537Y17288D01*
X7550Y17297D01*
X7577Y17305D01*
X7617Y17305D01*
X7643Y17297D01*
X7657Y17288D01*
X7670Y17271D01*
X7670Y17203D01*
X7523Y17365D02*
X7523Y17477D01*
X7630Y17417D01*
X7630Y17443D01*
X7643Y17460D01*
X7657Y17468D01*
X7683Y17477D01*
X7750Y17477D01*
X7777Y17468D01*
X7790Y17460D01*
X7803Y17443D01*
X7803Y17391D01*
X7790Y17374D01*
X7777Y17365D01*
X7523Y17588D02*
X7523Y17605D01*
X7537Y17623D01*
X7550Y17631D01*
X7577Y17640D01*
X7630Y17648D01*
X7697Y17648D01*
X7750Y17640D01*
X7777Y17631D01*
X7790Y17623D01*
X7803Y17605D01*
X7803Y17588D01*
X7790Y17571D01*
X7777Y17563D01*
X7750Y17554D01*
X7697Y17545D01*
X7630Y17545D01*
X7577Y17554D01*
X7550Y17563D01*
X7537Y17571D01*
X7523Y17588D01*
X1898Y18979D02*
X1765Y18919D01*
X1898Y18876D02*
X1618Y18876D01*
X1618Y18944D01*
X1631Y18962D01*
X1645Y18970D01*
X1671Y18979D01*
X1711Y18979D01*
X1738Y18970D01*
X1751Y18962D01*
X1765Y18944D01*
X1765Y18876D01*
X1618Y19039D02*
X1618Y19150D01*
X1725Y19090D01*
X1725Y19116D01*
X1738Y19133D01*
X1751Y19142D01*
X1778Y19150D01*
X1845Y19150D01*
X1871Y19142D01*
X1885Y19133D01*
X1898Y19116D01*
X1898Y19064D01*
X1885Y19047D01*
X1871Y19039D01*
X1898Y19322D02*
X1898Y19219D01*
X1898Y19270D02*
X1618Y19270D01*
X1658Y19253D01*
X1685Y19236D01*
X1698Y19219D01*
X26012Y13664D02*
X25879Y13604D01*
X26012Y13561D02*
X25732Y13561D01*
X25732Y13629D01*
X25745Y13647D01*
X25759Y13655D01*
X25785Y13664D01*
X25825Y13664D01*
X25852Y13655D01*
X25865Y13647D01*
X25879Y13629D01*
X25879Y13561D01*
X25732Y13724D02*
X25732Y13835D01*
X25839Y13775D01*
X25839Y13801D01*
X25852Y13818D01*
X25865Y13827D01*
X25892Y13835D01*
X25959Y13835D01*
X25985Y13827D01*
X25999Y13818D01*
X26012Y13801D01*
X26012Y13749D01*
X25999Y13732D01*
X25985Y13724D01*
X25732Y13895D02*
X25732Y14015D01*
X26012Y13938D01*
X25422Y13664D02*
X25288Y13604D01*
X25422Y13561D02*
X25142Y13561D01*
X25142Y13629D01*
X25155Y13647D01*
X25168Y13655D01*
X25195Y13664D01*
X25235Y13664D01*
X25262Y13655D01*
X25275Y13647D01*
X25288Y13629D01*
X25288Y13561D01*
X25142Y13724D02*
X25142Y13835D01*
X25248Y13775D01*
X25248Y13801D01*
X25262Y13818D01*
X25275Y13827D01*
X25302Y13835D01*
X25368Y13835D01*
X25395Y13827D01*
X25408Y13818D01*
X25422Y13801D01*
X25422Y13749D01*
X25408Y13732D01*
X25395Y13724D01*
X25262Y13938D02*
X25248Y13921D01*
X25235Y13912D01*
X25208Y13904D01*
X25195Y13904D01*
X25168Y13912D01*
X25155Y13921D01*
X25142Y13938D01*
X25142Y13972D01*
X25155Y13989D01*
X25168Y13998D01*
X25195Y14007D01*
X25208Y14007D01*
X25235Y13998D01*
X25248Y13989D01*
X25262Y13972D01*
X25262Y13938D01*
X25275Y13921D01*
X25288Y13912D01*
X25315Y13904D01*
X25368Y13904D01*
X25395Y13912D01*
X25408Y13921D01*
X25422Y13938D01*
X25422Y13972D01*
X25408Y13989D01*
X25395Y13998D01*
X25368Y14007D01*
X25315Y14007D01*
X25288Y13998D01*
X25275Y13989D01*
X25262Y13972D01*
X6970Y6566D02*
X6910Y6699D01*
X6868Y6566D02*
X6868Y6846D01*
X6936Y6846D01*
X6953Y6833D01*
X6962Y6819D01*
X6970Y6793D01*
X6970Y6753D01*
X6962Y6726D01*
X6953Y6713D01*
X6936Y6699D01*
X6868Y6699D01*
X7125Y6753D02*
X7125Y6566D01*
X7082Y6859D02*
X7039Y6659D01*
X7150Y6659D01*
X7253Y6846D02*
X7270Y6846D01*
X7288Y6833D01*
X7296Y6819D01*
X7305Y6793D01*
X7313Y6739D01*
X7313Y6673D01*
X7305Y6619D01*
X7296Y6593D01*
X7288Y6579D01*
X7270Y6566D01*
X7253Y6566D01*
X7236Y6579D01*
X7228Y6593D01*
X7219Y6619D01*
X7210Y6673D01*
X7210Y6739D01*
X7219Y6793D01*
X7228Y6819D01*
X7236Y6833D01*
X7253Y6846D01*
X36695Y2235D02*
X36635Y2369D01*
X36592Y2235D02*
X36592Y2515D01*
X36661Y2515D01*
X36678Y2502D01*
X36686Y2489D01*
X36695Y2462D01*
X36695Y2422D01*
X36686Y2395D01*
X36678Y2382D01*
X36661Y2369D01*
X36592Y2369D01*
X36849Y2422D02*
X36849Y2235D01*
X36806Y2529D02*
X36763Y2329D01*
X36875Y2329D01*
X37038Y2235D02*
X36935Y2235D01*
X36986Y2235D02*
X36986Y2515D01*
X36969Y2475D01*
X36952Y2449D01*
X36935Y2435D01*
X16715Y2728D02*
X16655Y2861D01*
X16612Y2728D02*
X16612Y3008D01*
X16680Y3008D01*
X16697Y2994D01*
X16706Y2981D01*
X16715Y2954D01*
X16715Y2914D01*
X16706Y2888D01*
X16697Y2874D01*
X16680Y2861D01*
X16612Y2861D01*
X16869Y2914D02*
X16869Y2728D01*
X16826Y3021D02*
X16783Y2821D01*
X16895Y2821D01*
X16955Y2981D02*
X16963Y2994D01*
X16980Y3008D01*
X17023Y3008D01*
X17040Y2994D01*
X17049Y2981D01*
X17057Y2954D01*
X17057Y2928D01*
X17049Y2888D01*
X16946Y2728D01*
X17057Y2728D01*
X6970Y7157D02*
X6910Y7290D01*
X6868Y7157D02*
X6868Y7437D01*
X6936Y7437D01*
X6953Y7423D01*
X6962Y7410D01*
X6970Y7383D01*
X6970Y7343D01*
X6962Y7317D01*
X6953Y7303D01*
X6936Y7290D01*
X6868Y7290D01*
X7125Y7343D02*
X7125Y7157D01*
X7082Y7450D02*
X7039Y7250D01*
X7150Y7250D01*
X7202Y7437D02*
X7313Y7437D01*
X7253Y7330D01*
X7279Y7330D01*
X7296Y7317D01*
X7305Y7303D01*
X7313Y7277D01*
X7313Y7210D01*
X7305Y7183D01*
X7296Y7170D01*
X7279Y7157D01*
X7228Y7157D01*
X7210Y7170D01*
X7202Y7183D01*
X6970Y16212D02*
X6910Y16345D01*
X6868Y16212D02*
X6868Y16492D01*
X6936Y16492D01*
X6953Y16478D01*
X6962Y16465D01*
X6970Y16438D01*
X6970Y16398D01*
X6962Y16372D01*
X6953Y16358D01*
X6936Y16345D01*
X6868Y16345D01*
X7125Y16398D02*
X7125Y16212D01*
X7082Y16505D02*
X7039Y16305D01*
X7150Y16305D01*
X7305Y16492D02*
X7219Y16492D01*
X7210Y16358D01*
X7219Y16372D01*
X7236Y16385D01*
X7279Y16385D01*
X7296Y16372D01*
X7305Y16358D01*
X7313Y16332D01*
X7313Y16265D01*
X7305Y16238D01*
X7296Y16225D01*
X7279Y16212D01*
X7236Y16212D01*
X7219Y16225D01*
X7210Y16238D01*
X22075Y9136D02*
X21942Y9076D01*
X22075Y9033D02*
X21795Y9033D01*
X21795Y9102D01*
X21808Y9119D01*
X21822Y9128D01*
X21848Y9136D01*
X21888Y9136D01*
X21915Y9128D01*
X21928Y9119D01*
X21942Y9102D01*
X21942Y9033D01*
X21888Y9290D02*
X22075Y9290D01*
X21782Y9248D02*
X21982Y9205D01*
X21982Y9316D01*
X21795Y9462D02*
X21795Y9428D01*
X21808Y9410D01*
X21822Y9402D01*
X21862Y9385D01*
X21915Y9376D01*
X22022Y9376D01*
X22048Y9385D01*
X22062Y9393D01*
X22075Y9410D01*
X22075Y9445D01*
X22062Y9462D01*
X22048Y9470D01*
X22022Y9479D01*
X21955Y9479D01*
X21928Y9470D01*
X21915Y9462D01*
X21902Y9445D01*
X21902Y9410D01*
X21915Y9393D01*
X21928Y9385D01*
X21955Y9376D01*
X22325Y16999D02*
X22265Y17133D01*
X22222Y16999D02*
X22222Y17279D01*
X22291Y17279D01*
X22308Y17266D01*
X22316Y17253D01*
X22325Y17226D01*
X22325Y17186D01*
X22316Y17159D01*
X22308Y17146D01*
X22291Y17133D01*
X22222Y17133D01*
X22479Y17186D02*
X22479Y16999D01*
X22436Y17293D02*
X22393Y17093D01*
X22505Y17093D01*
X22556Y17279D02*
X22676Y17279D01*
X22599Y16999D01*
X25671Y17885D02*
X25611Y18018D01*
X25568Y17885D02*
X25568Y18165D01*
X25637Y18165D01*
X25654Y18152D01*
X25663Y18138D01*
X25671Y18112D01*
X25671Y18072D01*
X25663Y18045D01*
X25654Y18032D01*
X25637Y18018D01*
X25568Y18018D01*
X25834Y18165D02*
X25748Y18165D01*
X25740Y18032D01*
X25748Y18045D01*
X25766Y18058D01*
X25808Y18058D01*
X25826Y18045D01*
X25834Y18032D01*
X25843Y18005D01*
X25843Y17938D01*
X25834Y17912D01*
X25826Y17898D01*
X25808Y17885D01*
X25766Y17885D01*
X25748Y17898D01*
X25740Y17912D01*
X25903Y18165D02*
X26014Y18165D01*
X25954Y18058D01*
X25980Y18058D01*
X25997Y18045D01*
X26006Y18032D01*
X26014Y18005D01*
X26014Y17938D01*
X26006Y17912D01*
X25997Y17898D01*
X25980Y17885D01*
X25928Y17885D01*
X25911Y17898D01*
X25903Y17912D01*
X11445Y18290D02*
X11312Y18230D01*
X11445Y18187D02*
X11165Y18187D01*
X11165Y18255D01*
X11178Y18273D01*
X11192Y18281D01*
X11218Y18290D01*
X11258Y18290D01*
X11285Y18281D01*
X11298Y18273D01*
X11312Y18255D01*
X11312Y18187D01*
X11165Y18453D02*
X11165Y18367D01*
X11298Y18358D01*
X11285Y18367D01*
X11272Y18384D01*
X11272Y18427D01*
X11285Y18444D01*
X11298Y18453D01*
X11325Y18461D01*
X11392Y18461D01*
X11418Y18453D01*
X11432Y18444D01*
X11445Y18427D01*
X11445Y18384D01*
X11432Y18367D01*
X11418Y18358D01*
X11258Y18615D02*
X11445Y18615D01*
X11152Y18573D02*
X11352Y18530D01*
X11352Y18641D01*
X21878Y12679D02*
X21745Y12619D01*
X21878Y12577D02*
X21598Y12577D01*
X21598Y12645D01*
X21612Y12662D01*
X21625Y12671D01*
X21652Y12679D01*
X21692Y12679D01*
X21718Y12671D01*
X21732Y12662D01*
X21745Y12645D01*
X21745Y12577D01*
X21598Y12842D02*
X21598Y12757D01*
X21732Y12748D01*
X21718Y12757D01*
X21705Y12774D01*
X21705Y12817D01*
X21718Y12834D01*
X21732Y12842D01*
X21758Y12851D01*
X21825Y12851D01*
X21852Y12842D01*
X21865Y12834D01*
X21878Y12817D01*
X21878Y12774D01*
X21865Y12757D01*
X21852Y12748D01*
X21598Y13014D02*
X21598Y12928D01*
X21732Y12919D01*
X21718Y12928D01*
X21705Y12945D01*
X21705Y12988D01*
X21718Y13005D01*
X21732Y13014D01*
X21758Y13022D01*
X21825Y13022D01*
X21852Y13014D01*
X21865Y13005D01*
X21878Y12988D01*
X21878Y12945D01*
X21865Y12928D01*
X21852Y12919D01*
X7410Y4609D02*
X7276Y4549D01*
X7410Y4506D02*
X7130Y4506D01*
X7130Y4574D01*
X7143Y4591D01*
X7156Y4600D01*
X7183Y4609D01*
X7223Y4609D01*
X7250Y4600D01*
X7263Y4591D01*
X7276Y4574D01*
X7276Y4506D01*
X7130Y4763D02*
X7130Y4729D01*
X7143Y4711D01*
X7156Y4703D01*
X7196Y4686D01*
X7250Y4677D01*
X7356Y4677D01*
X7383Y4686D01*
X7396Y4694D01*
X7410Y4711D01*
X7410Y4746D01*
X7396Y4763D01*
X7383Y4771D01*
X7356Y4780D01*
X7290Y4780D01*
X7263Y4771D01*
X7250Y4763D01*
X7236Y4746D01*
X7236Y4711D01*
X7250Y4694D01*
X7263Y4686D01*
X7290Y4677D01*
X7130Y4891D02*
X7130Y4909D01*
X7143Y4926D01*
X7156Y4934D01*
X7183Y4943D01*
X7236Y4951D01*
X7303Y4951D01*
X7356Y4943D01*
X7383Y4934D01*
X7396Y4926D01*
X7410Y4909D01*
X7410Y4891D01*
X7396Y4874D01*
X7383Y4866D01*
X7356Y4857D01*
X7303Y4849D01*
X7236Y4849D01*
X7183Y4857D01*
X7156Y4866D01*
X7143Y4874D01*
X7130Y4891D01*
X11248Y3427D02*
X11115Y3367D01*
X11248Y3325D02*
X10968Y3325D01*
X10968Y3393D01*
X10982Y3410D01*
X10995Y3419D01*
X11022Y3427D01*
X11062Y3427D01*
X11088Y3419D01*
X11102Y3410D01*
X11115Y3393D01*
X11115Y3325D01*
X10968Y3582D02*
X10968Y3547D01*
X10982Y3530D01*
X10995Y3522D01*
X11035Y3505D01*
X11088Y3496D01*
X11195Y3496D01*
X11222Y3505D01*
X11235Y3513D01*
X11248Y3530D01*
X11248Y3565D01*
X11235Y3582D01*
X11222Y3590D01*
X11195Y3599D01*
X11128Y3599D01*
X11102Y3590D01*
X11088Y3582D01*
X11075Y3565D01*
X11075Y3530D01*
X11088Y3513D01*
X11102Y3505D01*
X11128Y3496D01*
X11248Y3770D02*
X11248Y3667D01*
X11248Y3719D02*
X10968Y3719D01*
X11008Y3702D01*
X11035Y3685D01*
X11048Y3667D01*
X6819Y4904D02*
X6686Y4844D01*
X6819Y4801D02*
X6539Y4801D01*
X6539Y4870D01*
X6552Y4887D01*
X6566Y4895D01*
X6592Y4904D01*
X6632Y4904D01*
X6659Y4895D01*
X6672Y4887D01*
X6686Y4870D01*
X6686Y4801D01*
X6539Y5058D02*
X6539Y5024D01*
X6552Y5007D01*
X6566Y4998D01*
X6606Y4981D01*
X6659Y4972D01*
X6766Y4972D01*
X6792Y4981D01*
X6806Y4990D01*
X6819Y5007D01*
X6819Y5041D01*
X6806Y5058D01*
X6792Y5067D01*
X6766Y5075D01*
X6699Y5075D01*
X6672Y5067D01*
X6659Y5058D01*
X6646Y5041D01*
X6646Y5007D01*
X6659Y4990D01*
X6672Y4981D01*
X6699Y4972D01*
X6539Y5135D02*
X6539Y5247D01*
X6646Y5187D01*
X6646Y5212D01*
X6659Y5230D01*
X6672Y5238D01*
X6699Y5247D01*
X6766Y5247D01*
X6792Y5238D01*
X6806Y5230D01*
X6819Y5212D01*
X6819Y5161D01*
X6806Y5144D01*
X6792Y5135D01*
X11740Y3427D02*
X11607Y3367D01*
X11740Y3325D02*
X11460Y3325D01*
X11460Y3393D01*
X11474Y3410D01*
X11487Y3419D01*
X11514Y3427D01*
X11554Y3427D01*
X11580Y3419D01*
X11594Y3410D01*
X11607Y3393D01*
X11607Y3325D01*
X11460Y3582D02*
X11460Y3547D01*
X11474Y3530D01*
X11487Y3522D01*
X11527Y3505D01*
X11580Y3496D01*
X11687Y3496D01*
X11714Y3505D01*
X11727Y3513D01*
X11740Y3530D01*
X11740Y3565D01*
X11727Y3582D01*
X11714Y3590D01*
X11687Y3599D01*
X11620Y3599D01*
X11594Y3590D01*
X11580Y3582D01*
X11567Y3565D01*
X11567Y3530D01*
X11580Y3513D01*
X11594Y3505D01*
X11620Y3496D01*
X11554Y3753D02*
X11740Y3753D01*
X11447Y3710D02*
X11647Y3667D01*
X11647Y3779D01*
X12331Y17109D02*
X12198Y17049D01*
X12331Y17006D02*
X12051Y17006D01*
X12051Y17074D01*
X12064Y17091D01*
X12078Y17100D01*
X12104Y17109D01*
X12144Y17109D01*
X12171Y17100D01*
X12184Y17091D01*
X12198Y17074D01*
X12198Y17006D01*
X12051Y17263D02*
X12051Y17229D01*
X12064Y17211D01*
X12078Y17203D01*
X12118Y17186D01*
X12171Y17177D01*
X12278Y17177D01*
X12304Y17186D01*
X12318Y17194D01*
X12331Y17211D01*
X12331Y17246D01*
X12318Y17263D01*
X12304Y17271D01*
X12278Y17280D01*
X12211Y17280D01*
X12184Y17271D01*
X12171Y17263D01*
X12158Y17246D01*
X12158Y17211D01*
X12171Y17194D01*
X12184Y17186D01*
X12211Y17177D01*
X12051Y17434D02*
X12051Y17400D01*
X12064Y17383D01*
X12078Y17374D01*
X12118Y17357D01*
X12171Y17349D01*
X12278Y17349D01*
X12304Y17357D01*
X12318Y17366D01*
X12331Y17383D01*
X12331Y17417D01*
X12318Y17434D01*
X12304Y17443D01*
X12278Y17451D01*
X12211Y17451D01*
X12184Y17443D01*
X12171Y17434D01*
X12158Y17417D01*
X12158Y17383D01*
X12171Y17366D01*
X12184Y17357D01*
X12211Y17349D01*
G54D10*
X10119Y9228D02*
X10512Y9491D01*
X10119Y9491D02*
X10512Y9228D01*
X10512Y9847D02*
X10512Y9622D01*
X10512Y9735D02*
X10119Y9735D01*
X10175Y9697D01*
X10212Y9660D01*
X10231Y9622D01*
G54D13*
X8513Y3567D02*
X8513Y4167D01*
X8742Y4167D01*
X8799Y4138D01*
X8828Y4110D01*
X8856Y4053D01*
X8856Y3967D01*
X8828Y3910D01*
X8799Y3881D01*
X8742Y3853D01*
X8513Y3853D01*
X9056Y4167D02*
X9428Y4167D01*
X9228Y3938D01*
X9313Y3938D01*
X9371Y3910D01*
X9399Y3881D01*
X9428Y3824D01*
X9428Y3681D01*
X9399Y3624D01*
X9371Y3596D01*
X9313Y3567D01*
X9142Y3567D01*
X9085Y3596D01*
X9056Y3624D01*
X6273Y614D02*
X5931Y614D01*
X6102Y614D02*
X6102Y1214D01*
X6045Y1129D01*
X5988Y1071D01*
X5931Y1043D01*
G54D14*
X10756Y5790D02*
X10623Y5730D01*
X10756Y5687D02*
X10476Y5687D01*
X10476Y5755D01*
X10490Y5773D01*
X10503Y5781D01*
X10530Y5790D01*
X10570Y5790D01*
X10596Y5781D01*
X10610Y5773D01*
X10623Y5755D01*
X10623Y5687D01*
X10476Y5944D02*
X10476Y5910D01*
X10490Y5893D01*
X10503Y5884D01*
X10543Y5867D01*
X10596Y5858D01*
X10703Y5858D01*
X10730Y5867D01*
X10743Y5875D01*
X10756Y5893D01*
X10756Y5927D01*
X10743Y5944D01*
X10730Y5953D01*
X10703Y5961D01*
X10636Y5961D01*
X10610Y5953D01*
X10596Y5944D01*
X10583Y5927D01*
X10583Y5893D01*
X10596Y5875D01*
X10610Y5867D01*
X10636Y5858D01*
X10476Y6021D02*
X10476Y6141D01*
X10756Y6064D01*
G54D13*
X17427Y2691D02*
X17827Y2091D01*
X17827Y2691D02*
X17427Y2091D01*
X17999Y2691D02*
X18370Y2691D01*
X18170Y2462D01*
X18256Y2462D01*
X18313Y2434D01*
X18342Y2405D01*
X18370Y2348D01*
X18370Y2205D01*
X18342Y2148D01*
X18313Y2119D01*
X18256Y2091D01*
X18084Y2091D01*
X18027Y2119D01*
X17999Y2148D01*
%LPC*%
G54D15*
X21524Y19292D03*
X25461Y19292D03*
X10366Y19292D03*
X6429Y19292D03*
G54D16*
X33809Y11595D03*
X32825Y11595D03*
X31840Y11595D03*
X30856Y11595D03*
X29872Y11595D03*
X28888Y11595D03*
X27903Y11595D03*
X26919Y11595D03*
G54D17*
X26279Y11595D03*
G54D18*
X25768Y11595D03*
X25295Y11595D03*
G54D19*
X25589Y10532D03*
G54D15*
X33858Y10532D03*
G54D20*
X24606Y1977D03*
X24606Y10977D03*
X35630Y1977D03*
X34764Y10977D03*
X24606Y5284D03*
X35630Y5284D03*
G54D21*
X9725Y14476D03*
X8975Y14476D03*
X9725Y13476D03*
X9350Y14476D03*
X8975Y13476D03*
X9861Y17315D03*
X10611Y17315D03*
X9861Y18315D03*
X10236Y17315D03*
X10611Y18315D03*
G54D22*
X25303Y15570D03*
X25303Y16320D03*
X24303Y15570D03*
X25303Y15945D03*
X24303Y16320D03*
G54D23*
X28484Y13583D03*
X29784Y13583D03*
X29784Y12599D03*
X28484Y12599D03*
G54D24*
X24428Y17027D03*
X25178Y17027D03*
X25178Y14862D03*
X24428Y14862D03*
G54D25*
X17323Y18289D03*
X17323Y17539D03*
X9153Y18780D03*
X9153Y18030D03*
X10433Y13601D03*
X10433Y14351D03*
X20079Y17539D03*
X20079Y18289D03*
X19095Y18289D03*
X19095Y17539D03*
X18307Y18289D03*
X18307Y17539D03*
G54D26*
X37752Y10355D03*
X37752Y9587D03*
X37752Y10099D03*
X37752Y9843D03*
G54D27*
X38799Y9513D03*
G54D28*
X38799Y10990D03*
X38799Y8696D03*
G54D27*
X38799Y10173D03*
G54D26*
X37752Y9331D03*
G54D29*
X37894Y8873D03*
X37894Y10813D03*
G54D30*
X15846Y4725D03*
X16042Y4725D03*
X16239Y4725D03*
X16436Y4725D03*
X16633Y4725D03*
X16830Y4725D03*
X17027Y4725D03*
X17224Y4725D03*
X17420Y4725D03*
X17617Y4725D03*
X17814Y4725D03*
X18011Y4725D03*
X18208Y4725D03*
X18405Y4725D03*
X18602Y4725D03*
X18798Y4725D03*
X18798Y9253D03*
X18602Y9253D03*
X18405Y9253D03*
X18208Y9253D03*
X18011Y9253D03*
X17814Y9253D03*
X17617Y9253D03*
X17420Y9253D03*
X17224Y9253D03*
X17027Y9253D03*
X16830Y9253D03*
X16633Y9253D03*
X16436Y9253D03*
X16239Y9253D03*
X16042Y9253D03*
X15846Y9253D03*
G54D31*
X19586Y5513D03*
X19586Y5709D03*
X19586Y5906D03*
X19586Y6103D03*
X19586Y6300D03*
X19586Y6497D03*
X19586Y6694D03*
X19586Y6891D03*
X19586Y7087D03*
X19586Y7284D03*
X19586Y7481D03*
X19586Y7678D03*
X19586Y7875D03*
X19586Y8072D03*
X19586Y8269D03*
X19586Y8465D03*
X15058Y8465D03*
X15058Y8269D03*
X15058Y8072D03*
X15058Y7875D03*
X15058Y7678D03*
X15058Y7481D03*
X15058Y7284D03*
X15058Y7087D03*
X15058Y6891D03*
X15058Y6694D03*
X15058Y6497D03*
X15058Y6300D03*
X15058Y6103D03*
X15058Y5906D03*
X15058Y5709D03*
X15058Y5513D03*
G54D30*
X3838Y8072D03*
X4035Y8072D03*
X4232Y8072D03*
X4429Y8072D03*
X4626Y8072D03*
X4823Y8072D03*
X5019Y8072D03*
X5216Y8072D03*
X5413Y8072D03*
X5610Y8072D03*
X5807Y8072D03*
X6004Y8072D03*
X6004Y11418D03*
X5807Y11418D03*
X5610Y11418D03*
X5413Y11418D03*
X5216Y11418D03*
X5019Y11418D03*
X4823Y11418D03*
X4626Y11418D03*
X4429Y11418D03*
X4232Y11418D03*
X4035Y11418D03*
X3838Y11418D03*
G54D31*
X6594Y8662D03*
X6594Y8859D03*
X6594Y9056D03*
X6594Y9253D03*
X6594Y9450D03*
X6594Y9647D03*
X6594Y9843D03*
X6594Y10040D03*
X6594Y10237D03*
X6594Y10434D03*
X6594Y10631D03*
X6594Y10828D03*
X3248Y10828D03*
X3248Y10631D03*
X3248Y10434D03*
X3248Y10237D03*
X3248Y10040D03*
X3248Y9843D03*
X3248Y9647D03*
X3248Y9450D03*
X3248Y9253D03*
X3248Y9056D03*
X3248Y8859D03*
X3248Y8662D03*
G54D32*
X27815Y18800D03*
G54D33*
X28815Y18800D03*
X29815Y18800D03*
X30815Y18800D03*
X31815Y18800D03*
X32815Y18800D03*
G54D34*
X16734Y12107D03*
X16930Y12107D03*
X17324Y12107D03*
X17521Y12107D03*
X17718Y12107D03*
X17915Y12107D03*
X18112Y12107D03*
X18309Y12107D03*
X18505Y12107D03*
X18702Y12107D03*
X18899Y12107D03*
X19096Y12107D03*
X19293Y12107D03*
X19490Y12107D03*
X16537Y12107D03*
X14174Y12107D03*
X14371Y12107D03*
X14568Y12107D03*
X14765Y12107D03*
X14962Y12107D03*
X15159Y12107D03*
X15355Y12107D03*
X15552Y12107D03*
X15749Y12107D03*
X15946Y12107D03*
X16143Y12107D03*
X17127Y12107D03*
X16340Y12107D03*
G54D35*
X20147Y12776D03*
X13517Y12776D03*
G54D36*
X29704Y15945D03*
X28760Y16319D03*
X28760Y15571D03*
G54D37*
X1358Y1565D03*
X1358Y4735D03*
G54D38*
X5098Y3150D03*
G54D37*
X5098Y4538D03*
X5098Y1762D03*
G54D39*
X886Y3839D03*
X886Y2461D03*
G54D37*
X1358Y14951D03*
X1358Y18121D03*
G54D38*
X5098Y16536D03*
G54D37*
X5098Y17924D03*
X5098Y15148D03*
G54D39*
X886Y17225D03*
X886Y15847D03*
G54D40*
X22637Y591D03*
X23819Y591D03*
G54D41*
X14370Y3287D03*
X14370Y2027D03*
X12204Y2027D03*
X12204Y3287D03*
G54D25*
X12795Y5591D03*
X12795Y4841D03*
G54D42*
X36930Y5178D03*
X38268Y5178D03*
X36930Y2894D03*
X38268Y2894D03*
G54D43*
X37008Y4036D03*
X38190Y4036D03*
X10630Y1773D03*
X10630Y591D03*
X7382Y1773D03*
X7382Y591D03*
G54D44*
X9547Y7972D03*
X8957Y7972D03*
X8957Y11122D03*
X9547Y11122D03*
X2264Y591D03*
X1674Y591D03*
G54D45*
X6004Y2263D03*
X6004Y1673D03*
G54D44*
X5019Y591D03*
X4429Y591D03*
X1083Y5709D03*
X1673Y5709D03*
X1869Y9153D03*
X1279Y9153D03*
X1772Y10728D03*
X2362Y10728D03*
X1280Y9744D03*
X1870Y9744D03*
X1279Y8563D03*
X1869Y8563D03*
G54D45*
X4822Y6299D03*
X4822Y6889D03*
X7579Y9055D03*
X7579Y8465D03*
X7579Y10630D03*
X7579Y10040D03*
X4232Y6299D03*
X4232Y6889D03*
G54D10*
G36*
X6464Y6132D02*
X6072Y5741D01*
X5764Y6049D01*
X6155Y6441D01*
X6464Y6132D01*
X6464Y6132D01*
G37*
G36*
X6047Y6549D02*
X5655Y6158D01*
X5346Y6466D01*
X5738Y6858D01*
X6047Y6549D01*
X6047Y6549D01*
G37*
G54D44*
X7382Y12008D03*
X6792Y12008D03*
G54D45*
X4921Y13484D03*
X4921Y12894D03*
G54D44*
X6594Y17716D03*
X6004Y17716D03*
X6594Y18307D03*
X6004Y18307D03*
X3544Y19095D03*
X4134Y19095D03*
X12795Y1279D03*
X13385Y1279D03*
X12795Y4035D03*
X13385Y4035D03*
X37991Y6102D03*
X37401Y6102D03*
G54D45*
X18602Y886D03*
X18602Y1476D03*
X15255Y1476D03*
X15255Y886D03*
G54D44*
X20275Y4626D03*
X19685Y4626D03*
G54D45*
X13976Y17815D03*
X13976Y18405D03*
X14567Y17815D03*
X14567Y18405D03*
X15157Y17815D03*
X15157Y18405D03*
X15748Y17815D03*
X15748Y18405D03*
X16338Y17815D03*
X16338Y18405D03*
G54D44*
X21456Y17815D03*
X20866Y17815D03*
G54D45*
X8267Y14468D03*
X8267Y13878D03*
X9153Y16929D03*
X9153Y17519D03*
G54D44*
X20275Y4035D03*
X19685Y4035D03*
G54D10*
G36*
X20737Y9712D02*
X21129Y9320D01*
X20821Y9012D01*
X20429Y9404D01*
X20737Y9712D01*
X20737Y9712D01*
G37*
G36*
X20320Y9295D02*
X20712Y8903D01*
X20404Y8595D01*
X20012Y8987D01*
X20320Y9295D01*
X20320Y9295D01*
G37*
G54D44*
X14370Y9252D03*
X14960Y9252D03*
G54D45*
X13484Y5511D03*
X13484Y4921D03*
G54D10*
G36*
X21720Y4951D02*
X21328Y4559D01*
X21020Y4868D01*
X21411Y5259D01*
X21720Y4951D01*
X21720Y4951D01*
G37*
G36*
X21302Y5368D02*
X20911Y4977D01*
X20602Y5285D01*
X20994Y5677D01*
X21302Y5368D01*
X21302Y5368D01*
G37*
G54D44*
X14174Y4528D03*
X14764Y4528D03*
G54D45*
X28149Y15551D03*
X28149Y14961D03*
X6102Y4232D03*
X6102Y3642D03*
X10728Y4626D03*
X10728Y4036D03*
G54D24*
X27442Y14862D03*
X26692Y14862D03*
X26692Y17027D03*
X27442Y17027D03*
G54D22*
X27567Y15570D03*
X27567Y16320D03*
X26567Y15570D03*
X27567Y15945D03*
X26567Y16320D03*
G54D46*
X36515Y14961D03*
G54D47*
X36515Y15945D03*
X36515Y16929D03*
G54D48*
X37273Y13287D03*
X36545Y13031D03*
X36545Y13543D03*
X36781Y11516D03*
X36053Y11260D03*
X36053Y11772D03*
G54D49*
X22441Y18868D03*
X22696Y18140D03*
X22185Y18140D03*
G54D44*
X5315Y5512D03*
X5905Y5512D03*
G54D45*
X35531Y13484D03*
X35531Y12894D03*
X4232Y12894D03*
X4232Y13484D03*
X3641Y12894D03*
X3641Y13484D03*
G54D44*
X7579Y5512D03*
X8169Y5512D03*
X7579Y6102D03*
X8169Y6102D03*
G54D45*
X3051Y12894D03*
X3051Y13484D03*
G54D44*
X6791Y12598D03*
X7381Y12598D03*
G54D45*
X8169Y8464D03*
X8169Y7874D03*
X8169Y9252D03*
X8169Y9842D03*
X34744Y13484D03*
X34744Y12894D03*
G54D44*
X38385Y13287D03*
X37795Y13287D03*
X36220Y12401D03*
X36810Y12401D03*
X36712Y10630D03*
X36122Y10630D03*
X3642Y591D03*
X3052Y591D03*
X2461Y5709D03*
X3051Y5709D03*
G54D45*
X36516Y7776D03*
X36516Y8366D03*
G54D44*
X36712Y9449D03*
X36122Y9449D03*
X36712Y10039D03*
X36122Y10039D03*
G54D45*
X36515Y6693D03*
X36515Y7283D03*
X26476Y12500D03*
X26476Y13090D03*
X27067Y12500D03*
X27067Y13090D03*
X33858Y12599D03*
X33858Y13189D03*
G54D44*
X7381Y13189D03*
X6791Y13189D03*
X6004Y17126D03*
X6594Y17126D03*
G54D45*
X7185Y17126D03*
X7185Y17716D03*
G54D44*
X2166Y19095D03*
X2756Y19095D03*
G54D45*
X25885Y13090D03*
X25885Y12500D03*
X25295Y13090D03*
X25295Y12500D03*
G54D44*
X7579Y6693D03*
X8169Y6693D03*
X36516Y1870D03*
X37106Y1870D03*
X16536Y2363D03*
X17126Y2363D03*
X7579Y7283D03*
X8169Y7283D03*
X6004Y16535D03*
X6594Y16535D03*
G54D45*
X21456Y9547D03*
X21456Y8957D03*
G54D44*
X22146Y17618D03*
X22736Y17618D03*
X25492Y18504D03*
X26082Y18504D03*
G54D45*
X11713Y18701D03*
X11713Y18111D03*
X21260Y12501D03*
X21260Y13091D03*
X7283Y4232D03*
X7283Y3642D03*
X11318Y4036D03*
X11318Y4626D03*
X6692Y4232D03*
X6692Y3642D03*
X11909Y4036D03*
X11909Y4626D03*
X11712Y17028D03*
X11712Y17618D03*
G54D50*
X9724Y8760D03*
X9724Y10335D03*
X8779Y10335D03*
X8779Y8760D03*
G54D51*
X7956Y1168D03*
X7956Y2768D03*
X8456Y1168D03*
X8456Y2768D03*
X8956Y1168D03*
X8956Y2768D03*
X9456Y1168D03*
X9456Y2768D03*
X9956Y1168D03*
X9956Y2768D03*
G54D45*
X11023Y5610D03*
X11023Y6200D03*
G54D52*
X16063Y709D03*
G54D53*
X17795Y709D03*
X17795Y1653D03*
X16063Y1653D03*
M02*
