M48
;DRILL file {Pcbnew (2013-07-05 BZR 4237)-testing} date Sat 03 Aug 2013 11:53:38 BST
;FORMAT={-:-/ absolute / metric / decimal}
FMAT,2
METRIC,TZ
T1C0.300
T2C0.500
T3C0.800
T4C0.899
T5C1.001
T6C1.016
T7C1.524
%
G90
G05
M71
T1
X17.Y2.501
X22.751Y37.752
X25.75Y9.251
X26.Y27.751
X26.5Y20.001
X27.Y32.251
X27.Y29.001
X27.5Y27.251
X27.75Y26.501
X27.75Y18.251
X28.Y25.751
X28.Y16.751
X28.25Y43.252
X28.75Y22.251
X28.75Y1.501
X29.Y30.501
X29.Y24.501
X29.Y19.501
X29.Y16.251
X29.5Y29.501
X31.Y40.001
X31.Y16.251
X31.25Y40.751
X32.Y43.001
X32.25Y32.251
X32.25Y41.252
X32.5Y18.751
X33.Y40.752
X33.Y20.251
X33.Y19.501
X33.25Y23.751
X33.5Y18.751
X35.Y18.251
X35.25Y26.001
X35.25Y22.751
X35.25Y21.751
X35.25Y20.751
X36.25Y39.001
X36.25Y38.251
X36.25Y37.501
X36.25Y36.751
X36.25Y36.001
X36.25Y35.251
X36.25Y34.501
X36.5Y28.501
X36.75Y22.251
X37.75Y22.251
X40.Y26.751
X40.25Y27.501
X40.5Y9.751
X41.5Y27.251
X42.25Y27.751
X43.Y28.001
X43.75Y35.251
X43.75Y28.001
X44.5Y34.501
X44.75Y9.751
X45.75Y9.501
X47.25Y29.501
X47.5Y6.251
X48.75Y36.751
X48.75Y23.5
X49.Y39.502
X49.5Y40.251
X49.5Y36.001
X49.751Y24.252
X50.251Y40.752
X50.251Y25.25
X51.001Y41.252
X51.25Y25.751
X53.75Y21.75
X53.75Y20.001
X53.75Y19.251
X53.75Y18.501
X53.75Y17.751
X53.75Y17.001
X53.75Y16.251
X53.75Y15.501
X53.75Y14.751
X54.498Y9.251
X54.5Y10.751
X54.5Y10.001
X54.5Y8.501
X54.75Y39.002
X54.75Y30.751
X55.5Y28.001
X56.75Y17.001
X57.Y37.501
X57.Y16.251
X57.25Y15.501
X57.5Y14.751
X58.Y10.752
X58.Y9.251
X58.Y8.501
X58.749Y31.002
X58.75Y32.001
X59.25Y38.501
X59.25Y37.001
X59.5Y7.751
X59.75Y43.251
X59.75Y33.001
X60.25Y21.751
X60.25Y17.001
X60.25Y16.251
X60.5Y44.001
X60.5Y7.751
X61.75Y23.251
X62.Y24.001
X62.25Y20.001
X62.25Y19.251
X62.25Y18.501
X62.25Y17.001
X62.25Y16.251
X67.75Y27.001
X68.25Y27.752
X69.5Y35.501
X70.25Y31.751
X77.249Y16.251
X81.001Y27.252
X82.25Y20.251
X83.75Y20.251
X84.Y32.001
X84.75Y12.751
X84.75Y10.251
X85.5Y23.501
X88.Y45.751
X88.Y41.751
X89.25Y20.001
X89.75Y31.501
X89.75Y29.251
X90.75Y29.251
T2
X1.501Y14.501
X2.25Y23.251
X3.75Y34.001
X4.Y16.001
X4.5Y28.251
X5.25Y45.751
X5.5Y4.501
X6.Y18.751
X7.Y28.001
X7.Y21.001
X9.5Y35.751
X9.5Y30.501
X9.749Y25.751
X9.75Y16.001
X11.Y35.751
X11.001Y8.001
X11.25Y22.001
X11.75Y31.501
X11.999Y48.501
X12.Y18.751
X12.25Y14.001
X12.5Y35.251
X12.75Y2.501
X14.75Y47.751
X15.25Y23.752
X15.5Y11.751
X16.75Y14.251
X16.899Y5.751
X17.Y11.751
X18.Y25.251
X18.Y22.251
X19.Y3.251
X19.75Y33.501
X19.75Y32.001
X20.25Y27.001
X21.75Y18.501
X21.75Y17.001
X21.75Y15.501
X21.75Y14.001
X22.75Y19.251
X24.25Y29.251
X24.75Y42.548
X24.75Y38.75
X26.25Y3.501
X26.75Y37.501
X27.75Y12.751
X28.501Y44.501
X29.Y14.251
X30.Y42.251
X30.25Y12.751
X30.75Y46.001
X30.75Y44.751
X31.25Y14.251
X31.5Y10.251
X32.5Y2.251
X35.5Y47.501
X35.5Y12.751
X36.Y14.251
X36.Y10.251
X36.25Y32.751
X36.5Y24.501
X37.Y47.501
X37.Y13.251
X37.75Y3.251
X38.5Y47.501
X39.25Y24.501
X39.25Y12.001
X40.Y47.501
X40.25Y24.751
X41.5Y47.501
X42.75Y33.001
X43.Y34.001
X45.25Y13.501
X46.75Y13.501
X48.25Y2.251
X49.25Y11.001
X50.5Y22.501
X51.Y47.501
X51.25Y21.252
X51.5Y14.251
X52.25Y11.001
X52.5Y14.251
X53.Y46.251
X53.75Y26.001
X54.Y34.752
X54.25Y1.501
X54.5Y46.251
X55.Y11.751
X58.5Y46.001
X60.Y37.751
X60.75Y42.501
X61.Y40.001
X61.Y37.751
X61.Y4.751
X61.75Y30.751
X62.5Y15.251
X62.5Y11.501
X64.249Y2.002
X64.25Y34.001
X65.Y43.251
X65.25Y40.501
X65.75Y37.001
X65.75Y34.001
X66.75Y37.751
X67.Y47.001
X67.25Y44.751
X67.25Y34.001
X68.75Y34.001
X70.75Y43.251
X70.75Y35.001
X71.Y40.501
X71.5Y37.251
X72.25Y40.251
X73.75Y18.501
X74.Y34.752
X74.Y33.5
X75.Y12.501
X75.75Y44.001
X76.5Y40.501
X76.75Y42.001
X77.75Y34.751
X78.25Y31.251
X79.5Y37.001
X80.Y15.5
X81.Y42.501
X81.75Y44.501
X85.Y33.751
X88.Y25.001
X88.5Y18.501
X90.5Y46.001
X90.5Y2.751
X91.5Y19.001
X92.Y35.251
X92.25Y8.501
X92.75Y3.501
X93.802Y14.747
X94.Y35.751
X94.25Y29.751
X94.5Y31.501
X95.5Y21.001
X95.501Y29.751
X96.5Y30.752
X98.Y30.001
X98.5Y33.751
T3
X16.33Y49.002
X26.33Y49.002
X54.671Y49.002
X64.671Y49.002
T4
X18.75Y4.503
X18.75Y1.501
X27.Y4.503
X27.Y1.501
X57.498Y1.501
X60.5Y1.501
X92.75Y43.
X92.75Y40.501
X92.75Y38.002
X94.Y10.251
X97.003Y10.251
T5
X64.996Y26.751
T6
X2.25Y43.752
X2.25Y40.251
X2.25Y9.751
X2.25Y6.251
X70.65Y47.752
X73.19Y47.752
X75.73Y47.752
X78.27Y47.752
X80.81Y47.752
X83.35Y47.752
T7
X85.999Y26.751
T0
M30
