G04 (created by PCBNEW (2013-07-05 BZR 4237)-testing) date Sat 03 Aug 2013 11:53:29 BST*
%MOIN*%
G04 Gerber Fmt 3.4, Leading zero omitted, Abs format*
%FSLAX34Y34*%
G01*
G70*
G90*
G04 APERTURE LIST*
%ADD10C,0.005906*%
%ADD11C,0.012000*%
%ADD12C,0.015000*%
%ADD13C,0.005000*%
%ADD14C,0.004331*%
%ADD15C,0.004500*%
%ADD16C,0.004429*%
%ADD17C,0.080000*%
%ADD18C,0.059400*%
%ADD19R,0.050000X0.040000*%
%ADD20R,0.059000X0.048000*%
%ADD21R,0.075000X0.055000*%
%ADD22R,0.090000X0.090000*%
%ADD23C,0.090000*%
%ADD24R,0.075000X0.146000*%
%ADD25R,0.146000X0.075000*%
%ADD26C,0.060000*%
%ADD27C,0.055400*%
%ADD28R,0.059400X0.051500*%
%ADD29R,0.047600X0.079100*%
%ADD30C,0.036200*%
%ADD31R,0.079100X0.075100*%
%ADD32R,0.043600X0.055400*%
%ADD33R,0.055400X0.043600*%
%ADD34R,0.079100X0.079100*%
%ADD35C,0.079100*%
%ADD36R,0.041654X0.043622*%
%ADD37R,0.043622X0.041654*%
G04 APERTURE END LIST*
G54D10*
G54D11*
X26793Y2249D02*
X26821Y2221D01*
X26907Y2193D01*
X26964Y2193D01*
X27050Y2221D01*
X27107Y2278D01*
X27136Y2334D01*
X27164Y2446D01*
X27164Y2531D01*
X27136Y2643D01*
X27107Y2700D01*
X27050Y2756D01*
X26964Y2784D01*
X26907Y2784D01*
X26821Y2756D01*
X26793Y2728D01*
X26450Y2193D02*
X26507Y2221D01*
X26536Y2249D01*
X26564Y2306D01*
X26564Y2475D01*
X26536Y2531D01*
X26507Y2559D01*
X26450Y2587D01*
X26364Y2587D01*
X26307Y2559D01*
X26279Y2531D01*
X26250Y2475D01*
X26250Y2306D01*
X26279Y2249D01*
X26307Y2221D01*
X26364Y2193D01*
X26450Y2193D01*
X25993Y2587D02*
X25993Y1996D01*
X25993Y2559D02*
X25936Y2587D01*
X25821Y2587D01*
X25764Y2559D01*
X25736Y2531D01*
X25707Y2475D01*
X25707Y2306D01*
X25736Y2249D01*
X25764Y2221D01*
X25821Y2193D01*
X25936Y2193D01*
X25993Y2221D01*
X25507Y2587D02*
X25364Y2193D01*
X25221Y2587D02*
X25364Y2193D01*
X25421Y2052D01*
X25450Y2024D01*
X25507Y1996D01*
X24993Y2193D02*
X24993Y2587D01*
X24993Y2475D02*
X24964Y2531D01*
X24936Y2559D01*
X24879Y2587D01*
X24821Y2587D01*
X24621Y2193D02*
X24621Y2587D01*
X24621Y2784D02*
X24650Y2756D01*
X24621Y2728D01*
X24593Y2756D01*
X24621Y2784D01*
X24621Y2728D01*
X24079Y2587D02*
X24079Y2109D01*
X24107Y2052D01*
X24136Y2024D01*
X24193Y1996D01*
X24279Y1996D01*
X24336Y2024D01*
X24079Y2221D02*
X24136Y2193D01*
X24250Y2193D01*
X24307Y2221D01*
X24336Y2249D01*
X24364Y2306D01*
X24364Y2475D01*
X24336Y2531D01*
X24307Y2559D01*
X24250Y2587D01*
X24136Y2587D01*
X24079Y2559D01*
X23793Y2193D02*
X23793Y2784D01*
X23536Y2193D02*
X23536Y2503D01*
X23564Y2559D01*
X23621Y2587D01*
X23707Y2587D01*
X23764Y2559D01*
X23793Y2531D01*
X23336Y2587D02*
X23107Y2587D01*
X23250Y2784D02*
X23250Y2278D01*
X23221Y2221D01*
X23164Y2193D01*
X23107Y2193D01*
X22479Y2728D02*
X22450Y2756D01*
X22393Y2784D01*
X22250Y2784D01*
X22193Y2756D01*
X22164Y2728D01*
X22136Y2672D01*
X22136Y2615D01*
X22164Y2531D01*
X22507Y2193D01*
X22136Y2193D01*
X21764Y2784D02*
X21707Y2784D01*
X21650Y2756D01*
X21621Y2728D01*
X21593Y2672D01*
X21564Y2559D01*
X21564Y2418D01*
X21593Y2306D01*
X21621Y2249D01*
X21650Y2221D01*
X21707Y2193D01*
X21764Y2193D01*
X21821Y2221D01*
X21850Y2249D01*
X21879Y2306D01*
X21907Y2418D01*
X21907Y2559D01*
X21879Y2672D01*
X21850Y2728D01*
X21821Y2756D01*
X21764Y2784D01*
X20993Y2193D02*
X21336Y2193D01*
X21164Y2193D02*
X21164Y2784D01*
X21221Y2700D01*
X21278Y2643D01*
X21336Y2615D01*
X20793Y2784D02*
X20421Y2784D01*
X20621Y2559D01*
X20536Y2559D01*
X20478Y2531D01*
X20450Y2503D01*
X20421Y2446D01*
X20421Y2306D01*
X20450Y2249D01*
X20478Y2221D01*
X20536Y2193D01*
X20707Y2193D01*
X20764Y2221D01*
X20793Y2249D01*
X19707Y2193D02*
X19707Y2784D01*
X19364Y2193D01*
X19364Y2784D01*
X18821Y2193D02*
X18821Y2503D01*
X18850Y2559D01*
X18907Y2587D01*
X19021Y2587D01*
X19078Y2559D01*
X18821Y2221D02*
X18878Y2193D01*
X19021Y2193D01*
X19078Y2221D01*
X19107Y2278D01*
X19107Y2334D01*
X19078Y2390D01*
X19021Y2418D01*
X18878Y2418D01*
X18821Y2446D01*
X18621Y2587D02*
X18393Y2587D01*
X18536Y2784D02*
X18536Y2278D01*
X18507Y2221D01*
X18450Y2193D01*
X18393Y2193D01*
X18193Y2193D02*
X18193Y2784D01*
X17936Y2193D02*
X17936Y2503D01*
X17964Y2559D01*
X18021Y2587D01*
X18107Y2587D01*
X18164Y2559D01*
X18193Y2531D01*
X17393Y2193D02*
X17393Y2503D01*
X17421Y2559D01*
X17478Y2587D01*
X17593Y2587D01*
X17650Y2559D01*
X17393Y2221D02*
X17450Y2193D01*
X17593Y2193D01*
X17650Y2221D01*
X17678Y2278D01*
X17678Y2334D01*
X17650Y2390D01*
X17593Y2418D01*
X17450Y2418D01*
X17393Y2446D01*
X17107Y2587D02*
X17107Y2193D01*
X17107Y2531D02*
X17078Y2559D01*
X17021Y2587D01*
X16936Y2587D01*
X16878Y2559D01*
X16850Y2503D01*
X16850Y2193D01*
X16107Y2193D02*
X16107Y2784D01*
X15964Y2784D01*
X15878Y2756D01*
X15821Y2700D01*
X15793Y2643D01*
X15764Y2531D01*
X15764Y2446D01*
X15793Y2334D01*
X15821Y2278D01*
X15878Y2221D01*
X15964Y2193D01*
X16107Y2193D01*
X15250Y2587D02*
X15250Y2193D01*
X15507Y2587D02*
X15507Y2278D01*
X15478Y2221D01*
X15421Y2193D01*
X15336Y2193D01*
X15278Y2221D01*
X15250Y2249D01*
X14964Y2193D02*
X14964Y2587D01*
X14964Y2531D02*
X14936Y2559D01*
X14879Y2587D01*
X14793Y2587D01*
X14736Y2559D01*
X14707Y2503D01*
X14707Y2193D01*
X14707Y2503D02*
X14679Y2559D01*
X14621Y2587D01*
X14536Y2587D01*
X14479Y2559D01*
X14450Y2503D01*
X14450Y2193D01*
X14079Y2193D02*
X14136Y2221D01*
X14164Y2249D01*
X14193Y2306D01*
X14193Y2475D01*
X14164Y2531D01*
X14136Y2559D01*
X14079Y2587D01*
X13993Y2587D01*
X13936Y2559D01*
X13907Y2531D01*
X13879Y2475D01*
X13879Y2306D01*
X13907Y2249D01*
X13936Y2221D01*
X13993Y2193D01*
X14079Y2193D01*
X13621Y2587D02*
X13621Y2193D01*
X13621Y2531D02*
X13593Y2559D01*
X13536Y2587D01*
X13450Y2587D01*
X13393Y2559D01*
X13364Y2503D01*
X13364Y2193D01*
X13164Y2587D02*
X12936Y2587D01*
X13079Y2784D02*
X13079Y2278D01*
X13050Y2221D01*
X12993Y2193D01*
X12936Y2193D01*
X20308Y1308D02*
X20194Y1308D01*
X20137Y1280D01*
X20080Y1224D01*
X20051Y1111D01*
X20051Y914D01*
X20080Y802D01*
X20137Y745D01*
X20194Y717D01*
X20308Y717D01*
X20365Y745D01*
X20423Y802D01*
X20451Y914D01*
X20451Y1111D01*
X20423Y1224D01*
X20365Y1280D01*
X20308Y1308D01*
X19537Y1111D02*
X19537Y633D01*
X19565Y576D01*
X19594Y548D01*
X19651Y520D01*
X19737Y520D01*
X19794Y548D01*
X19537Y745D02*
X19594Y717D01*
X19708Y717D01*
X19765Y745D01*
X19794Y773D01*
X19823Y830D01*
X19823Y999D01*
X19794Y1055D01*
X19765Y1083D01*
X19708Y1111D01*
X19594Y1111D01*
X19537Y1083D01*
X18994Y1111D02*
X18994Y633D01*
X19023Y576D01*
X19051Y548D01*
X19108Y520D01*
X19194Y520D01*
X19251Y548D01*
X18994Y745D02*
X19051Y717D01*
X19165Y717D01*
X19223Y745D01*
X19251Y773D01*
X19280Y830D01*
X19280Y999D01*
X19251Y1055D01*
X19223Y1083D01*
X19165Y1111D01*
X19051Y1111D01*
X18994Y1083D01*
X18508Y1027D02*
X18423Y999D01*
X18394Y970D01*
X18365Y914D01*
X18365Y830D01*
X18394Y773D01*
X18423Y745D01*
X18480Y717D01*
X18708Y717D01*
X18708Y1308D01*
X18508Y1308D01*
X18451Y1280D01*
X18423Y1252D01*
X18394Y1196D01*
X18394Y1139D01*
X18423Y1083D01*
X18451Y1055D01*
X18508Y1027D01*
X18708Y1027D01*
X18023Y717D02*
X18080Y745D01*
X18108Y773D01*
X18137Y830D01*
X18137Y999D01*
X18108Y1055D01*
X18080Y1083D01*
X18023Y1111D01*
X17937Y1111D01*
X17880Y1083D01*
X17851Y1055D01*
X17823Y999D01*
X17823Y830D01*
X17851Y773D01*
X17880Y745D01*
X17937Y717D01*
X18023Y717D01*
X17623Y717D02*
X17308Y1111D01*
X17623Y1111D02*
X17308Y717D01*
X16623Y717D02*
X16623Y1111D01*
X16623Y999D02*
X16594Y1055D01*
X16565Y1083D01*
X16508Y1111D01*
X16451Y1111D01*
X16023Y745D02*
X16080Y717D01*
X16194Y717D01*
X16251Y745D01*
X16280Y802D01*
X16280Y1027D01*
X16251Y1083D01*
X16194Y1111D01*
X16080Y1111D01*
X16023Y1083D01*
X15994Y1027D01*
X15994Y970D01*
X16280Y914D01*
X15794Y1111D02*
X15651Y717D01*
X15508Y1111D01*
X15280Y773D02*
X15251Y745D01*
X15280Y717D01*
X15308Y745D01*
X15280Y773D01*
X15280Y717D01*
X14194Y773D02*
X14223Y745D01*
X14308Y717D01*
X14365Y717D01*
X14451Y745D01*
X14508Y802D01*
X14537Y858D01*
X14565Y970D01*
X14565Y1055D01*
X14537Y1167D01*
X14508Y1224D01*
X14451Y1280D01*
X14365Y1308D01*
X14308Y1308D01*
X14223Y1280D01*
X14194Y1252D01*
G54D12*
X39369Y16733D02*
X39370Y16733D01*
X36417Y19685D02*
X39369Y16733D01*
X984Y19685D02*
X0Y18701D01*
X36417Y19685D02*
X984Y19685D01*
X36417Y0D02*
X39370Y2953D01*
X0Y984D02*
X0Y985D01*
X984Y0D02*
X0Y984D01*
X36417Y0D02*
X984Y0D01*
X0Y18701D02*
X0Y985D01*
X39370Y16733D02*
X39370Y2953D01*
X22047Y19686D02*
X25000Y19686D01*
X11024Y19686D02*
X21063Y19686D01*
X9646Y19686D02*
X9843Y19686D01*
X7087Y19686D02*
X9646Y19686D01*
X26772Y19686D02*
X26772Y3150D01*
X26772Y3150D02*
X5118Y3150D01*
X5118Y3150D02*
X5118Y19686D01*
X5118Y19686D02*
X5906Y19686D01*
X26772Y19686D02*
X25984Y19686D01*
G54D13*
X33803Y16624D02*
X34503Y16624D01*
X34503Y16624D02*
X34503Y17824D01*
X34503Y17824D02*
X33803Y17824D01*
X33803Y17824D02*
X33803Y16624D01*
X35380Y16574D02*
G75*
G03X35380Y16574I-50J0D01*
G74*
G01*
X35330Y17024D02*
X35330Y16624D01*
X35330Y16624D02*
X35930Y16624D01*
X35930Y16624D02*
X35930Y17024D01*
X35930Y17424D02*
X35930Y17824D01*
X35930Y17824D02*
X35330Y17824D01*
X35330Y17824D02*
X35330Y17424D01*
X32624Y16574D02*
G75*
G03X32624Y16574I-50J0D01*
G74*
G01*
X32574Y17024D02*
X32574Y16624D01*
X32574Y16624D02*
X33174Y16624D01*
X33174Y16624D02*
X33174Y17024D01*
X33174Y17424D02*
X33174Y17824D01*
X33174Y17824D02*
X32574Y17824D01*
X32574Y17824D02*
X32574Y17424D01*
G54D12*
X1181Y3445D02*
X1181Y4429D01*
X3543Y3445D02*
X3543Y4429D01*
X2657Y5217D02*
X2067Y5217D01*
X2657Y2657D02*
X2067Y2657D01*
X29036Y11024D02*
X30020Y11024D01*
X29036Y8662D02*
X30020Y8662D01*
X30808Y9548D02*
X30808Y10138D01*
X28248Y9548D02*
X28248Y10138D01*
X36910Y11024D02*
X37894Y11024D01*
X36910Y8662D02*
X37894Y8662D01*
X38682Y9548D02*
X38682Y10138D01*
X36122Y9548D02*
X36122Y10138D01*
X32973Y14961D02*
X33957Y14961D01*
X32973Y12599D02*
X33957Y12599D01*
X34745Y13485D02*
X34745Y14075D01*
X32185Y13485D02*
X32185Y14075D01*
X32973Y7087D02*
X33957Y7087D01*
X32973Y4725D02*
X33957Y4725D01*
X34745Y5611D02*
X34745Y6201D01*
X32185Y5611D02*
X32185Y6201D01*
X1181Y15256D02*
X1181Y16240D01*
X3543Y15256D02*
X3543Y16240D01*
X2657Y17028D02*
X2067Y17028D01*
X2657Y14468D02*
X2067Y14468D01*
X24212Y0D02*
X22244Y0D01*
X10630Y1D02*
X10630Y198D01*
X9843Y1D02*
X11417Y1D01*
X9843Y2383D02*
X11417Y2383D01*
X7382Y1D02*
X7382Y198D01*
X6595Y1D02*
X8169Y1D01*
X6595Y2383D02*
X8169Y2383D01*
X30708Y15787D02*
X31181Y15787D01*
X30708Y16693D02*
X31181Y16693D01*
X29330Y14508D02*
X29803Y14508D01*
X29330Y15413D02*
X29803Y15413D01*
X29586Y16535D02*
X29586Y17008D01*
X28681Y16535D02*
X28681Y17008D01*
G54D13*
X34397Y17974D02*
X34397Y18274D01*
X34135Y18003D02*
X34147Y17989D01*
X34183Y17974D01*
X34207Y17974D01*
X34242Y17989D01*
X34266Y18017D01*
X34278Y18046D01*
X34290Y18103D01*
X34290Y18146D01*
X34278Y18203D01*
X34266Y18232D01*
X34242Y18260D01*
X34207Y18274D01*
X34183Y18274D01*
X34147Y18260D01*
X34135Y18246D01*
X34040Y18246D02*
X34028Y18260D01*
X34004Y18274D01*
X33945Y18274D01*
X33921Y18260D01*
X33909Y18246D01*
X33897Y18217D01*
X33897Y18189D01*
X33909Y18146D01*
X34052Y17974D01*
X33897Y17974D01*
G54D14*
X34475Y9579D02*
X34199Y9579D01*
X34199Y9537D01*
X34212Y9512D01*
X34238Y9495D01*
X34265Y9487D01*
X34317Y9478D01*
X34357Y9478D01*
X34409Y9487D01*
X34435Y9495D01*
X34462Y9512D01*
X34475Y9537D01*
X34475Y9579D01*
X34475Y9310D02*
X34475Y9411D01*
X34475Y9360D02*
X34199Y9360D01*
X34238Y9377D01*
X34265Y9394D01*
X34278Y9411D01*
G54D13*
X35721Y16399D02*
X35733Y16411D01*
X35745Y16447D01*
X35745Y16470D01*
X35733Y16506D01*
X35709Y16530D01*
X35685Y16542D01*
X35637Y16554D01*
X35602Y16554D01*
X35554Y16542D01*
X35530Y16530D01*
X35507Y16506D01*
X35495Y16470D01*
X35495Y16447D01*
X35507Y16411D01*
X35518Y16399D01*
X35518Y16304D02*
X35507Y16292D01*
X35495Y16268D01*
X35495Y16209D01*
X35507Y16185D01*
X35518Y16173D01*
X35542Y16161D01*
X35566Y16161D01*
X35602Y16173D01*
X35745Y16316D01*
X35745Y16161D01*
X35518Y16066D02*
X35507Y16054D01*
X35495Y16030D01*
X35495Y15970D01*
X35507Y15947D01*
X35518Y15935D01*
X35542Y15923D01*
X35566Y15923D01*
X35602Y15935D01*
X35745Y16078D01*
X35745Y15923D01*
X32373Y17385D02*
X32385Y17397D01*
X32397Y17433D01*
X32397Y17456D01*
X32385Y17492D01*
X32361Y17516D01*
X32337Y17528D01*
X32290Y17540D01*
X32254Y17540D01*
X32206Y17528D01*
X32182Y17516D01*
X32159Y17492D01*
X32147Y17456D01*
X32147Y17433D01*
X32159Y17397D01*
X32170Y17385D01*
X32397Y17147D02*
X32397Y17290D01*
X32397Y17218D02*
X32147Y17218D01*
X32182Y17242D01*
X32206Y17266D01*
X32218Y17290D01*
X32397Y17028D02*
X32397Y16980D01*
X32385Y16956D01*
X32373Y16945D01*
X32337Y16921D01*
X32290Y16909D01*
X32194Y16909D01*
X32170Y16921D01*
X32159Y16933D01*
X32147Y16956D01*
X32147Y17004D01*
X32159Y17028D01*
X32170Y17040D01*
X32194Y17052D01*
X32254Y17052D01*
X32278Y17040D01*
X32290Y17028D01*
X32301Y17004D01*
X32301Y16956D01*
X32290Y16933D01*
X32278Y16921D01*
X32254Y16909D01*
G54D11*
X3162Y1037D02*
X3076Y1008D01*
X2933Y1008D01*
X2876Y1037D01*
X2847Y1065D01*
X2819Y1122D01*
X2819Y1180D01*
X2847Y1237D01*
X2876Y1265D01*
X2933Y1294D01*
X3047Y1322D01*
X3104Y1351D01*
X3133Y1380D01*
X3162Y1437D01*
X3162Y1494D01*
X3133Y1551D01*
X3104Y1580D01*
X3047Y1608D01*
X2904Y1608D01*
X2819Y1580D01*
X2619Y1608D02*
X2476Y1008D01*
X2362Y1437D01*
X2247Y1008D01*
X2104Y1608D01*
X1619Y1408D02*
X1619Y1008D01*
X1762Y1637D02*
X1904Y1208D01*
X1533Y1208D01*
X4306Y4250D02*
X3706Y4250D01*
X4135Y4050D01*
X3706Y3850D01*
X4306Y3850D01*
X3992Y3564D02*
X3992Y3364D01*
X4306Y3278D02*
X4306Y3564D01*
X3706Y3564D01*
X3706Y3278D01*
X4306Y3021D02*
X3706Y3021D01*
X4306Y2678D01*
X3706Y2678D01*
X3706Y2392D02*
X4192Y2392D01*
X4249Y2364D01*
X4278Y2335D01*
X4306Y2278D01*
X4306Y2164D01*
X4278Y2107D01*
X4249Y2078D01*
X4192Y2050D01*
X3706Y2050D01*
X27801Y13290D02*
X27830Y13205D01*
X27830Y13062D01*
X27801Y13005D01*
X27773Y12976D01*
X27716Y12947D01*
X27659Y12947D01*
X27601Y12976D01*
X27573Y13005D01*
X27544Y13062D01*
X27516Y13176D01*
X27487Y13233D01*
X27459Y13262D01*
X27401Y13290D01*
X27344Y13290D01*
X27287Y13262D01*
X27259Y13233D01*
X27230Y13176D01*
X27230Y13033D01*
X27259Y12947D01*
X27230Y12747D02*
X27830Y12605D01*
X27401Y12490D01*
X27830Y12376D01*
X27230Y12233D01*
X27830Y11690D02*
X27830Y12033D01*
X27830Y11862D02*
X27230Y11862D01*
X27316Y11919D01*
X27373Y11976D01*
X27401Y12033D01*
X27230Y11319D02*
X27230Y11262D01*
X27259Y11204D01*
X27287Y11176D01*
X27344Y11147D01*
X27459Y11119D01*
X27601Y11119D01*
X27716Y11147D01*
X27773Y11176D01*
X27801Y11204D01*
X27830Y11262D01*
X27830Y11319D01*
X27801Y11376D01*
X27773Y11404D01*
X27716Y11433D01*
X27601Y11462D01*
X27459Y11462D01*
X27344Y11433D01*
X27287Y11404D01*
X27259Y11376D01*
X27230Y11319D01*
X28116Y12086D02*
X28602Y12086D01*
X28659Y12057D01*
X28687Y12029D01*
X28716Y11972D01*
X28716Y11857D01*
X28687Y11800D01*
X28659Y11772D01*
X28602Y11743D01*
X28116Y11743D01*
X28716Y11457D02*
X28116Y11457D01*
X28116Y11229D01*
X28145Y11172D01*
X28173Y11143D01*
X28230Y11115D01*
X28316Y11115D01*
X28373Y11143D01*
X28402Y11172D01*
X28430Y11229D01*
X28430Y11457D01*
X38234Y8379D02*
X38263Y8293D01*
X38263Y8150D01*
X38234Y8093D01*
X38206Y8064D01*
X38149Y8036D01*
X38092Y8036D01*
X38034Y8064D01*
X38006Y8093D01*
X37977Y8150D01*
X37949Y8264D01*
X37920Y8321D01*
X37892Y8350D01*
X37834Y8379D01*
X37777Y8379D01*
X37720Y8350D01*
X37692Y8321D01*
X37663Y8264D01*
X37663Y8121D01*
X37692Y8036D01*
X37663Y7836D02*
X38263Y7693D01*
X37834Y7579D01*
X38263Y7464D01*
X37663Y7321D01*
X37663Y7150D02*
X37663Y6750D01*
X38263Y7007D01*
X39149Y8412D02*
X38549Y8412D01*
X38549Y8269D01*
X38578Y8183D01*
X38635Y8126D01*
X38692Y8098D01*
X38806Y8069D01*
X38892Y8069D01*
X39006Y8098D01*
X39063Y8126D01*
X39120Y8183D01*
X39149Y8269D01*
X39149Y8412D01*
X38549Y7698D02*
X38549Y7583D01*
X38578Y7526D01*
X38635Y7469D01*
X38749Y7441D01*
X38949Y7441D01*
X39063Y7469D01*
X39120Y7526D01*
X39149Y7583D01*
X39149Y7698D01*
X39120Y7755D01*
X39063Y7812D01*
X38949Y7841D01*
X38749Y7841D01*
X38635Y7812D01*
X38578Y7755D01*
X38549Y7698D01*
X38549Y7241D02*
X39149Y7098D01*
X38720Y6984D01*
X39149Y6869D01*
X38549Y6726D01*
X39149Y6498D02*
X38549Y6498D01*
X39149Y6155D01*
X38549Y6155D01*
X35839Y15111D02*
X35753Y15083D01*
X35610Y15083D01*
X35553Y15111D01*
X35525Y15140D01*
X35496Y15197D01*
X35496Y15254D01*
X35525Y15311D01*
X35553Y15340D01*
X35610Y15369D01*
X35725Y15397D01*
X35782Y15426D01*
X35810Y15454D01*
X35839Y15511D01*
X35839Y15569D01*
X35810Y15626D01*
X35782Y15654D01*
X35725Y15683D01*
X35582Y15683D01*
X35496Y15654D01*
X35296Y15683D02*
X35153Y15083D01*
X35039Y15511D01*
X34925Y15083D01*
X34782Y15683D01*
X34468Y15426D02*
X34525Y15454D01*
X34553Y15483D01*
X34582Y15540D01*
X34582Y15569D01*
X34553Y15626D01*
X34525Y15654D01*
X34468Y15683D01*
X34353Y15683D01*
X34296Y15654D01*
X34268Y15626D01*
X34239Y15569D01*
X34239Y15540D01*
X34268Y15483D01*
X34296Y15454D01*
X34353Y15426D01*
X34468Y15426D01*
X34525Y15397D01*
X34553Y15369D01*
X34582Y15311D01*
X34582Y15197D01*
X34553Y15140D01*
X34525Y15111D01*
X34468Y15083D01*
X34353Y15083D01*
X34296Y15111D01*
X34268Y15140D01*
X34239Y15197D01*
X34239Y15311D01*
X34268Y15369D01*
X34296Y15397D01*
X34353Y15426D01*
X33445Y15083D02*
X33731Y15083D01*
X33731Y15683D01*
X33245Y15397D02*
X33045Y15397D01*
X32959Y15083D02*
X33245Y15083D01*
X33245Y15683D01*
X32959Y15683D01*
X32502Y15397D02*
X32702Y15397D01*
X32702Y15083D02*
X32702Y15683D01*
X32416Y15683D01*
X32274Y15683D02*
X31931Y15683D01*
X32102Y15083D02*
X32102Y15683D01*
X34166Y3202D02*
X34080Y3173D01*
X33937Y3173D01*
X33880Y3202D01*
X33851Y3230D01*
X33823Y3288D01*
X33823Y3345D01*
X33851Y3402D01*
X33880Y3430D01*
X33937Y3459D01*
X34051Y3488D01*
X34109Y3516D01*
X34137Y3545D01*
X34166Y3602D01*
X34166Y3659D01*
X34137Y3716D01*
X34109Y3745D01*
X34051Y3773D01*
X33909Y3773D01*
X33823Y3745D01*
X33623Y3773D02*
X33480Y3173D01*
X33366Y3602D01*
X33251Y3173D01*
X33109Y3773D01*
X32851Y3173D02*
X32737Y3173D01*
X32680Y3202D01*
X32651Y3230D01*
X32594Y3316D01*
X32566Y3430D01*
X32566Y3659D01*
X32594Y3716D01*
X32623Y3745D01*
X32680Y3773D01*
X32794Y3773D01*
X32851Y3745D01*
X32880Y3716D01*
X32909Y3659D01*
X32909Y3516D01*
X32880Y3459D01*
X32851Y3430D01*
X32794Y3402D01*
X32680Y3402D01*
X32623Y3430D01*
X32594Y3459D01*
X32566Y3516D01*
X34166Y3961D02*
X34366Y4246D01*
X34509Y3961D02*
X34509Y4561D01*
X34280Y4561D01*
X34223Y4532D01*
X34194Y4504D01*
X34166Y4446D01*
X34166Y4361D01*
X34194Y4304D01*
X34223Y4275D01*
X34280Y4246D01*
X34509Y4246D01*
X33909Y3961D02*
X33909Y4561D01*
X33309Y4532D02*
X33366Y4561D01*
X33451Y4561D01*
X33537Y4532D01*
X33594Y4475D01*
X33623Y4418D01*
X33651Y4304D01*
X33651Y4218D01*
X33623Y4104D01*
X33594Y4046D01*
X33537Y3989D01*
X33451Y3961D01*
X33394Y3961D01*
X33309Y3989D01*
X33280Y4018D01*
X33280Y4218D01*
X33394Y4218D01*
X33023Y3961D02*
X33023Y4561D01*
X33023Y4275D02*
X32680Y4275D01*
X32680Y3961D02*
X32680Y4561D01*
X32480Y4561D02*
X32137Y4561D01*
X32309Y3961D02*
X32309Y4561D01*
X1030Y15170D02*
X1058Y15084D01*
X1058Y14941D01*
X1030Y14884D01*
X1001Y14856D01*
X944Y14827D01*
X887Y14827D01*
X830Y14856D01*
X801Y14884D01*
X773Y14941D01*
X744Y15056D01*
X716Y15113D01*
X687Y15141D01*
X630Y15170D01*
X573Y15170D01*
X516Y15141D01*
X487Y15113D01*
X458Y15056D01*
X458Y14913D01*
X487Y14827D01*
X458Y14627D02*
X1058Y14484D01*
X630Y14370D01*
X1058Y14256D01*
X458Y14113D01*
X458Y13599D02*
X458Y13884D01*
X744Y13913D01*
X716Y13884D01*
X687Y13827D01*
X687Y13684D01*
X716Y13627D01*
X744Y13599D01*
X801Y13570D01*
X944Y13570D01*
X1001Y13599D01*
X1030Y13627D01*
X1058Y13684D01*
X1058Y13827D01*
X1030Y13884D01*
X1001Y13913D01*
X4376Y16911D02*
X4405Y16826D01*
X4405Y16683D01*
X4376Y16626D01*
X4348Y16597D01*
X4291Y16569D01*
X4233Y16569D01*
X4176Y16597D01*
X4148Y16626D01*
X4119Y16683D01*
X4091Y16797D01*
X4062Y16854D01*
X4033Y16883D01*
X3976Y16911D01*
X3919Y16911D01*
X3862Y16883D01*
X3833Y16854D01*
X3805Y16797D01*
X3805Y16654D01*
X3833Y16569D01*
X4091Y16311D02*
X4091Y16111D01*
X4405Y16026D02*
X4405Y16311D01*
X3805Y16311D01*
X3805Y16026D01*
X3805Y15854D02*
X3805Y15511D01*
X4405Y15683D02*
X3805Y15683D01*
G54D13*
X21113Y371D02*
X21070Y356D01*
X20999Y356D01*
X20970Y371D01*
X20956Y385D01*
X20942Y413D01*
X20942Y442D01*
X20956Y471D01*
X20970Y485D01*
X20999Y499D01*
X21056Y513D01*
X21085Y528D01*
X21099Y542D01*
X21113Y571D01*
X21113Y599D01*
X21099Y628D01*
X21085Y642D01*
X21056Y656D01*
X20985Y656D01*
X20942Y642D01*
X20842Y656D02*
X20770Y356D01*
X20713Y571D01*
X20656Y356D01*
X20585Y656D01*
X20313Y356D02*
X20485Y356D01*
X20399Y356D02*
X20399Y656D01*
X20428Y613D01*
X20456Y585D01*
X20485Y571D01*
X20028Y356D02*
X20199Y356D01*
X20113Y356D02*
X20113Y656D01*
X20142Y613D01*
X20170Y585D01*
X20199Y571D01*
X11029Y2536D02*
X10987Y2522D01*
X10915Y2522D01*
X10887Y2536D01*
X10872Y2550D01*
X10858Y2579D01*
X10858Y2608D01*
X10872Y2636D01*
X10887Y2650D01*
X10915Y2665D01*
X10972Y2679D01*
X11001Y2693D01*
X11015Y2708D01*
X11029Y2736D01*
X11029Y2765D01*
X11015Y2793D01*
X11001Y2808D01*
X10972Y2822D01*
X10901Y2822D01*
X10858Y2808D01*
X10758Y2822D02*
X10687Y2522D01*
X10629Y2736D01*
X10572Y2522D01*
X10501Y2822D01*
X10401Y2793D02*
X10387Y2808D01*
X10358Y2822D01*
X10287Y2822D01*
X10258Y2808D01*
X10244Y2793D01*
X10230Y2765D01*
X10230Y2736D01*
X10244Y2693D01*
X10415Y2522D01*
X10230Y2522D01*
X12434Y2080D02*
X12734Y1980D01*
X12434Y1880D01*
X12434Y1722D02*
X12434Y1665D01*
X12449Y1637D01*
X12477Y1608D01*
X12534Y1594D01*
X12634Y1594D01*
X12691Y1608D01*
X12720Y1637D01*
X12734Y1665D01*
X12734Y1722D01*
X12720Y1751D01*
X12691Y1779D01*
X12634Y1794D01*
X12534Y1794D01*
X12477Y1779D01*
X12449Y1751D01*
X12434Y1722D01*
X12734Y1322D02*
X12734Y1465D01*
X12434Y1465D01*
X12763Y1294D02*
X12763Y1065D01*
X12734Y994D02*
X12434Y994D01*
X12434Y922D01*
X12449Y880D01*
X12477Y851D01*
X12506Y837D01*
X12563Y822D01*
X12606Y822D01*
X12663Y837D01*
X12691Y851D01*
X12720Y880D01*
X12734Y922D01*
X12734Y994D01*
X12734Y694D02*
X12434Y694D01*
X12734Y522D01*
X12434Y522D01*
X7781Y2536D02*
X7739Y2522D01*
X7667Y2522D01*
X7639Y2536D01*
X7624Y2550D01*
X7610Y2579D01*
X7610Y2608D01*
X7624Y2636D01*
X7639Y2650D01*
X7667Y2665D01*
X7724Y2679D01*
X7753Y2693D01*
X7767Y2708D01*
X7781Y2736D01*
X7781Y2765D01*
X7767Y2793D01*
X7753Y2808D01*
X7724Y2822D01*
X7653Y2822D01*
X7610Y2808D01*
X7510Y2822D02*
X7439Y2522D01*
X7381Y2736D01*
X7324Y2522D01*
X7253Y2822D01*
X6982Y2522D02*
X7153Y2522D01*
X7067Y2522D02*
X7067Y2822D01*
X7096Y2779D01*
X7124Y2750D01*
X7153Y2736D01*
X5347Y1982D02*
X5647Y1882D01*
X5347Y1782D01*
X5347Y1624D02*
X5347Y1567D01*
X5362Y1539D01*
X5390Y1510D01*
X5447Y1496D01*
X5547Y1496D01*
X5604Y1510D01*
X5633Y1539D01*
X5647Y1567D01*
X5647Y1624D01*
X5633Y1653D01*
X5604Y1681D01*
X5547Y1696D01*
X5447Y1696D01*
X5390Y1681D01*
X5362Y1653D01*
X5347Y1624D01*
X5647Y1224D02*
X5647Y1367D01*
X5347Y1367D01*
X5676Y1196D02*
X5676Y967D01*
X5347Y896D02*
X5590Y896D01*
X5619Y882D01*
X5633Y867D01*
X5647Y839D01*
X5647Y782D01*
X5633Y753D01*
X5619Y739D01*
X5590Y724D01*
X5347Y724D01*
X5647Y581D02*
X5347Y581D01*
X5347Y467D01*
X5362Y439D01*
X5376Y424D01*
X5404Y410D01*
X5447Y410D01*
X5476Y424D01*
X5490Y439D01*
X5504Y467D01*
X5504Y581D01*
G54D15*
X2477Y6593D02*
X2486Y6579D01*
X2512Y6566D01*
X2529Y6566D01*
X2555Y6579D01*
X2572Y6606D01*
X2580Y6633D01*
X2589Y6686D01*
X2589Y6726D01*
X2580Y6779D01*
X2572Y6806D01*
X2555Y6833D01*
X2529Y6846D01*
X2512Y6846D01*
X2486Y6833D01*
X2477Y6819D01*
X2323Y6753D02*
X2323Y6566D01*
X2366Y6859D02*
X2409Y6659D01*
X2297Y6659D01*
X2143Y6846D02*
X2229Y6846D01*
X2237Y6713D01*
X2229Y6726D01*
X2212Y6739D01*
X2169Y6739D01*
X2152Y6726D01*
X2143Y6713D01*
X2135Y6686D01*
X2135Y6619D01*
X2143Y6593D01*
X2152Y6579D01*
X2169Y6566D01*
X2212Y6566D01*
X2229Y6579D01*
X2237Y6593D01*
X32678Y9958D02*
X32692Y9967D01*
X32705Y9992D01*
X32705Y10010D01*
X32692Y10035D01*
X32665Y10052D01*
X32638Y10061D01*
X32585Y10070D01*
X32545Y10070D01*
X32492Y10061D01*
X32465Y10052D01*
X32438Y10035D01*
X32425Y10010D01*
X32425Y9992D01*
X32438Y9967D01*
X32452Y9958D01*
X32518Y9804D02*
X32705Y9804D01*
X32412Y9847D02*
X32612Y9890D01*
X32612Y9778D01*
X32425Y9632D02*
X32425Y9667D01*
X32438Y9684D01*
X32452Y9692D01*
X32492Y9710D01*
X32545Y9718D01*
X32652Y9718D01*
X32678Y9710D01*
X32692Y9701D01*
X32705Y9684D01*
X32705Y9650D01*
X32692Y9632D01*
X32678Y9624D01*
X32652Y9615D01*
X32585Y9615D01*
X32558Y9624D01*
X32545Y9632D01*
X32532Y9650D01*
X32532Y9684D01*
X32545Y9701D01*
X32558Y9710D01*
X32585Y9718D01*
X35139Y10746D02*
X35152Y10754D01*
X35166Y10780D01*
X35166Y10797D01*
X35152Y10823D01*
X35126Y10840D01*
X35099Y10848D01*
X35046Y10857D01*
X35006Y10857D01*
X34952Y10848D01*
X34926Y10840D01*
X34899Y10823D01*
X34886Y10797D01*
X34886Y10780D01*
X34899Y10754D01*
X34912Y10746D01*
X34886Y10583D02*
X34886Y10668D01*
X35019Y10677D01*
X35006Y10668D01*
X34992Y10651D01*
X34992Y10608D01*
X35006Y10591D01*
X35019Y10583D01*
X35046Y10574D01*
X35112Y10574D01*
X35139Y10583D01*
X35152Y10591D01*
X35166Y10608D01*
X35166Y10651D01*
X35152Y10668D01*
X35139Y10677D01*
X34886Y10420D02*
X34886Y10454D01*
X34899Y10471D01*
X34912Y10480D01*
X34952Y10497D01*
X35006Y10506D01*
X35112Y10506D01*
X35139Y10497D01*
X35152Y10488D01*
X35166Y10471D01*
X35166Y10437D01*
X35152Y10420D01*
X35139Y10411D01*
X35112Y10403D01*
X35046Y10403D01*
X35019Y10411D01*
X35006Y10420D01*
X34992Y10437D01*
X34992Y10471D01*
X35006Y10488D01*
X35019Y10497D01*
X35046Y10506D01*
X36418Y13895D02*
X36432Y13904D01*
X36445Y13929D01*
X36445Y13947D01*
X36432Y13972D01*
X36405Y13989D01*
X36378Y13998D01*
X36325Y14007D01*
X36285Y14007D01*
X36232Y13998D01*
X36205Y13989D01*
X36178Y13972D01*
X36165Y13947D01*
X36165Y13929D01*
X36178Y13904D01*
X36192Y13895D01*
X36165Y13732D02*
X36165Y13818D01*
X36298Y13827D01*
X36285Y13818D01*
X36272Y13801D01*
X36272Y13758D01*
X36285Y13741D01*
X36298Y13732D01*
X36325Y13724D01*
X36392Y13724D01*
X36418Y13732D01*
X36432Y13741D01*
X36445Y13758D01*
X36445Y13801D01*
X36432Y13818D01*
X36418Y13827D01*
X36165Y13664D02*
X36165Y13544D01*
X36445Y13621D01*
X30710Y6120D02*
X30723Y6128D01*
X30736Y6154D01*
X30736Y6171D01*
X30723Y6197D01*
X30696Y6214D01*
X30670Y6222D01*
X30616Y6231D01*
X30576Y6231D01*
X30523Y6222D01*
X30496Y6214D01*
X30470Y6197D01*
X30456Y6171D01*
X30456Y6154D01*
X30470Y6128D01*
X30483Y6120D01*
X30456Y5957D02*
X30456Y6042D01*
X30590Y6051D01*
X30576Y6042D01*
X30563Y6025D01*
X30563Y5982D01*
X30576Y5965D01*
X30590Y5957D01*
X30616Y5948D01*
X30683Y5948D01*
X30710Y5957D01*
X30723Y5965D01*
X30736Y5982D01*
X30736Y6025D01*
X30723Y6042D01*
X30710Y6051D01*
X30576Y5845D02*
X30563Y5862D01*
X30550Y5871D01*
X30523Y5880D01*
X30510Y5880D01*
X30483Y5871D01*
X30470Y5862D01*
X30456Y5845D01*
X30456Y5811D01*
X30470Y5794D01*
X30483Y5785D01*
X30510Y5777D01*
X30523Y5777D01*
X30550Y5785D01*
X30563Y5794D01*
X30576Y5811D01*
X30576Y5845D01*
X30590Y5862D01*
X30603Y5871D01*
X30630Y5880D01*
X30683Y5880D01*
X30710Y5871D01*
X30723Y5862D01*
X30736Y5845D01*
X30736Y5811D01*
X30723Y5794D01*
X30710Y5785D01*
X30683Y5777D01*
X30630Y5777D01*
X30603Y5785D01*
X30590Y5794D01*
X30576Y5811D01*
X2477Y12794D02*
X2486Y12780D01*
X2512Y12767D01*
X2529Y12767D01*
X2555Y12780D01*
X2572Y12807D01*
X2580Y12834D01*
X2589Y12887D01*
X2589Y12927D01*
X2580Y12980D01*
X2572Y13007D01*
X2555Y13034D01*
X2529Y13047D01*
X2512Y13047D01*
X2486Y13034D01*
X2477Y13020D01*
X2315Y13047D02*
X2400Y13047D01*
X2409Y12914D01*
X2400Y12927D01*
X2383Y12940D01*
X2340Y12940D01*
X2323Y12927D01*
X2315Y12914D01*
X2306Y12887D01*
X2306Y12820D01*
X2315Y12794D01*
X2323Y12780D01*
X2340Y12767D01*
X2383Y12767D01*
X2400Y12780D01*
X2409Y12794D01*
X2220Y12767D02*
X2186Y12767D01*
X2169Y12780D01*
X2160Y12794D01*
X2143Y12834D01*
X2135Y12887D01*
X2135Y12994D01*
X2143Y13020D01*
X2152Y13034D01*
X2169Y13047D01*
X2203Y13047D01*
X2220Y13034D01*
X2229Y13020D01*
X2237Y12994D01*
X2237Y12927D01*
X2229Y12900D01*
X2220Y12887D01*
X2203Y12874D01*
X2169Y12874D01*
X2152Y12887D01*
X2143Y12900D01*
X2135Y12927D01*
G54D11*
X30962Y14927D02*
X31019Y14956D01*
X31077Y15013D01*
X31162Y15099D01*
X31219Y15127D01*
X31277Y15127D01*
X31248Y14984D02*
X31305Y15013D01*
X31362Y15070D01*
X31391Y15184D01*
X31391Y15384D01*
X31362Y15499D01*
X31305Y15556D01*
X31248Y15584D01*
X31134Y15584D01*
X31077Y15556D01*
X31019Y15499D01*
X30991Y15384D01*
X30991Y15184D01*
X31019Y15070D01*
X31077Y15013D01*
X31134Y14984D01*
X31248Y14984D01*
X30477Y15384D02*
X30477Y14984D01*
X30619Y15613D02*
X30762Y15184D01*
X30391Y15184D01*
X29781Y13648D02*
X29838Y13676D01*
X29895Y13733D01*
X29981Y13819D01*
X30038Y13848D01*
X30095Y13848D01*
X30067Y13705D02*
X30124Y13733D01*
X30181Y13791D01*
X30210Y13905D01*
X30210Y14105D01*
X30181Y14219D01*
X30124Y14276D01*
X30067Y14305D01*
X29953Y14305D01*
X29895Y14276D01*
X29838Y14219D01*
X29810Y14105D01*
X29810Y13905D01*
X29838Y13791D01*
X29895Y13733D01*
X29953Y13705D01*
X30067Y13705D01*
X29267Y14305D02*
X29553Y14305D01*
X29581Y14019D01*
X29553Y14048D01*
X29495Y14076D01*
X29353Y14076D01*
X29295Y14048D01*
X29267Y14019D01*
X29238Y13962D01*
X29238Y13819D01*
X29267Y13762D01*
X29295Y13733D01*
X29353Y13705D01*
X29495Y13705D01*
X29553Y13733D01*
X29581Y13762D01*
G54D16*
X28497Y16749D02*
X28484Y16766D01*
X28458Y16783D01*
X28418Y16808D01*
X28405Y16825D01*
X28405Y16842D01*
X28471Y16833D02*
X28458Y16850D01*
X28431Y16867D01*
X28379Y16876D01*
X28287Y16876D01*
X28234Y16867D01*
X28208Y16850D01*
X28195Y16833D01*
X28195Y16800D01*
X28208Y16783D01*
X28234Y16766D01*
X28287Y16757D01*
X28379Y16757D01*
X28431Y16766D01*
X28458Y16783D01*
X28471Y16800D01*
X28471Y16833D01*
X28195Y16606D02*
X28195Y16639D01*
X28208Y16656D01*
X28221Y16665D01*
X28261Y16682D01*
X28313Y16690D01*
X28418Y16690D01*
X28444Y16682D01*
X28458Y16673D01*
X28471Y16656D01*
X28471Y16623D01*
X28458Y16606D01*
X28444Y16597D01*
X28418Y16589D01*
X28353Y16589D01*
X28326Y16597D01*
X28313Y16606D01*
X28300Y16623D01*
X28300Y16656D01*
X28313Y16673D01*
X28326Y16682D01*
X28353Y16690D01*
G54D15*
X33591Y8691D02*
X33457Y8751D01*
X33591Y8794D02*
X33311Y8794D01*
X33311Y8726D01*
X33324Y8708D01*
X33337Y8700D01*
X33364Y8691D01*
X33404Y8691D01*
X33431Y8700D01*
X33444Y8708D01*
X33457Y8726D01*
X33457Y8794D01*
X33337Y8623D02*
X33324Y8614D01*
X33311Y8597D01*
X33311Y8554D01*
X33324Y8537D01*
X33337Y8528D01*
X33364Y8520D01*
X33391Y8520D01*
X33431Y8528D01*
X33591Y8631D01*
X33591Y8520D01*
X32016Y8777D02*
X31883Y8837D01*
X32016Y8880D02*
X31736Y8880D01*
X31736Y8811D01*
X31749Y8794D01*
X31763Y8786D01*
X31789Y8777D01*
X31829Y8777D01*
X31856Y8786D01*
X31869Y8794D01*
X31883Y8811D01*
X31883Y8880D01*
X32016Y8606D02*
X32016Y8708D01*
X32016Y8657D02*
X31736Y8657D01*
X31776Y8674D01*
X31803Y8691D01*
X31816Y8708D01*
X32016Y8434D02*
X32016Y8537D01*
X32016Y8486D02*
X31736Y8486D01*
X31776Y8503D01*
X31803Y8520D01*
X31816Y8537D01*
X28954Y17885D02*
X29014Y18018D01*
X29057Y17885D02*
X29057Y18165D01*
X28988Y18165D01*
X28971Y18152D01*
X28962Y18138D01*
X28954Y18112D01*
X28954Y18072D01*
X28962Y18045D01*
X28971Y18032D01*
X28988Y18018D01*
X29057Y18018D01*
X28885Y18138D02*
X28877Y18152D01*
X28860Y18165D01*
X28817Y18165D01*
X28800Y18152D01*
X28791Y18138D01*
X28782Y18112D01*
X28782Y18085D01*
X28791Y18045D01*
X28894Y17885D01*
X28782Y17885D01*
X28722Y18165D02*
X28602Y18165D01*
X28680Y17885D01*
X27576Y17098D02*
X27636Y17231D01*
X27679Y17098D02*
X27679Y17378D01*
X27610Y17378D01*
X27593Y17364D01*
X27584Y17351D01*
X27576Y17324D01*
X27576Y17284D01*
X27584Y17258D01*
X27593Y17244D01*
X27610Y17231D01*
X27679Y17231D01*
X27507Y17351D02*
X27499Y17364D01*
X27482Y17378D01*
X27439Y17378D01*
X27422Y17364D01*
X27413Y17351D01*
X27404Y17324D01*
X27404Y17298D01*
X27413Y17258D01*
X27516Y17098D01*
X27404Y17098D01*
X27302Y17258D02*
X27319Y17271D01*
X27327Y17284D01*
X27336Y17311D01*
X27336Y17324D01*
X27327Y17351D01*
X27319Y17364D01*
X27302Y17378D01*
X27267Y17378D01*
X27250Y17364D01*
X27242Y17351D01*
X27233Y17324D01*
X27233Y17311D01*
X27242Y17284D01*
X27250Y17271D01*
X27267Y17258D01*
X27302Y17258D01*
X27319Y17244D01*
X27327Y17231D01*
X27336Y17204D01*
X27336Y17151D01*
X27327Y17124D01*
X27319Y17111D01*
X27302Y17098D01*
X27267Y17098D01*
X27250Y17111D01*
X27242Y17124D01*
X27233Y17151D01*
X27233Y17204D01*
X27242Y17231D01*
X27250Y17244D01*
X27267Y17258D01*
X4249Y4401D02*
X4309Y4534D01*
X4352Y4401D02*
X4352Y4681D01*
X4283Y4681D01*
X4266Y4667D01*
X4258Y4654D01*
X4249Y4627D01*
X4249Y4587D01*
X4258Y4561D01*
X4266Y4547D01*
X4283Y4534D01*
X4352Y4534D01*
X4189Y4681D02*
X4078Y4681D01*
X4138Y4574D01*
X4112Y4574D01*
X4095Y4561D01*
X4086Y4547D01*
X4078Y4521D01*
X4078Y4454D01*
X4086Y4427D01*
X4095Y4414D01*
X4112Y4401D01*
X4163Y4401D01*
X4181Y4414D01*
X4189Y4427D01*
X4009Y4654D02*
X4001Y4667D01*
X3983Y4681D01*
X3941Y4681D01*
X3923Y4667D01*
X3915Y4654D01*
X3906Y4627D01*
X3906Y4601D01*
X3915Y4561D01*
X4018Y4401D01*
X3906Y4401D01*
X28276Y15273D02*
X28143Y15333D01*
X28276Y15376D02*
X27996Y15376D01*
X27996Y15307D01*
X28009Y15290D01*
X28023Y15282D01*
X28049Y15273D01*
X28089Y15273D01*
X28116Y15282D01*
X28129Y15290D01*
X28143Y15307D01*
X28143Y15376D01*
X27996Y15213D02*
X27996Y15102D01*
X28103Y15162D01*
X28103Y15136D01*
X28116Y15119D01*
X28129Y15110D01*
X28156Y15102D01*
X28223Y15102D01*
X28249Y15110D01*
X28263Y15119D01*
X28276Y15136D01*
X28276Y15187D01*
X28263Y15205D01*
X28249Y15213D01*
X27996Y15042D02*
X27996Y14930D01*
X28103Y14990D01*
X28103Y14965D01*
X28116Y14947D01*
X28129Y14939D01*
X28156Y14930D01*
X28223Y14930D01*
X28249Y14939D01*
X28263Y14947D01*
X28276Y14965D01*
X28276Y15016D01*
X28263Y15033D01*
X28249Y15042D01*
X35264Y8285D02*
X35131Y8345D01*
X35264Y8388D02*
X34984Y8388D01*
X34984Y8319D01*
X34997Y8302D01*
X35011Y8293D01*
X35037Y8285D01*
X35077Y8285D01*
X35104Y8293D01*
X35117Y8302D01*
X35131Y8319D01*
X35131Y8388D01*
X34984Y8225D02*
X34984Y8113D01*
X35091Y8173D01*
X35091Y8148D01*
X35104Y8131D01*
X35117Y8122D01*
X35144Y8113D01*
X35211Y8113D01*
X35237Y8122D01*
X35251Y8131D01*
X35264Y8148D01*
X35264Y8199D01*
X35251Y8216D01*
X35237Y8225D01*
X35077Y7959D02*
X35264Y7959D01*
X34971Y8002D02*
X35171Y8045D01*
X35171Y7933D01*
X30233Y17491D02*
X30293Y17625D01*
X30336Y17491D02*
X30336Y17771D01*
X30268Y17771D01*
X30251Y17758D01*
X30242Y17745D01*
X30233Y17718D01*
X30233Y17678D01*
X30242Y17651D01*
X30251Y17638D01*
X30268Y17625D01*
X30336Y17625D01*
X30173Y17771D02*
X30062Y17771D01*
X30122Y17665D01*
X30096Y17665D01*
X30079Y17651D01*
X30071Y17638D01*
X30062Y17611D01*
X30062Y17545D01*
X30071Y17518D01*
X30079Y17505D01*
X30096Y17491D01*
X30148Y17491D01*
X30165Y17505D01*
X30173Y17518D01*
X29899Y17771D02*
X29985Y17771D01*
X29993Y17638D01*
X29985Y17651D01*
X29968Y17665D01*
X29925Y17665D01*
X29908Y17651D01*
X29899Y17638D01*
X29891Y17611D01*
X29891Y17545D01*
X29899Y17518D01*
X29908Y17505D01*
X29925Y17491D01*
X29968Y17491D01*
X29985Y17505D01*
X29993Y17518D01*
X30233Y16901D02*
X30293Y17034D01*
X30336Y16901D02*
X30336Y17181D01*
X30268Y17181D01*
X30251Y17167D01*
X30242Y17154D01*
X30233Y17127D01*
X30233Y17087D01*
X30242Y17061D01*
X30251Y17047D01*
X30268Y17034D01*
X30336Y17034D01*
X30173Y17181D02*
X30062Y17181D01*
X30122Y17074D01*
X30096Y17074D01*
X30079Y17061D01*
X30071Y17047D01*
X30062Y17021D01*
X30062Y16954D01*
X30071Y16927D01*
X30079Y16914D01*
X30096Y16901D01*
X30148Y16901D01*
X30165Y16914D01*
X30173Y16927D01*
X29908Y17181D02*
X29942Y17181D01*
X29959Y17167D01*
X29968Y17154D01*
X29985Y17114D01*
X29993Y17061D01*
X29993Y16954D01*
X29985Y16927D01*
X29976Y16914D01*
X29959Y16901D01*
X29925Y16901D01*
X29908Y16914D01*
X29899Y16927D01*
X29891Y16954D01*
X29891Y17021D01*
X29899Y17047D01*
X29908Y17061D01*
X29925Y17074D01*
X29959Y17074D01*
X29976Y17061D01*
X29985Y17047D01*
X29993Y17021D01*
X3462Y7157D02*
X3522Y7290D01*
X3565Y7157D02*
X3565Y7437D01*
X3496Y7437D01*
X3479Y7423D01*
X3470Y7410D01*
X3462Y7383D01*
X3462Y7343D01*
X3470Y7317D01*
X3479Y7303D01*
X3496Y7290D01*
X3565Y7290D01*
X3402Y7437D02*
X3290Y7437D01*
X3350Y7330D01*
X3325Y7330D01*
X3307Y7317D01*
X3299Y7303D01*
X3290Y7277D01*
X3290Y7210D01*
X3299Y7183D01*
X3307Y7170D01*
X3325Y7157D01*
X3376Y7157D01*
X3393Y7170D01*
X3402Y7183D01*
X3205Y7157D02*
X3170Y7157D01*
X3153Y7170D01*
X3145Y7183D01*
X3127Y7223D01*
X3119Y7277D01*
X3119Y7383D01*
X3127Y7410D01*
X3136Y7423D01*
X3153Y7437D01*
X3187Y7437D01*
X3205Y7423D01*
X3213Y7410D01*
X3222Y7383D01*
X3222Y7317D01*
X3213Y7290D01*
X3205Y7277D01*
X3187Y7263D01*
X3153Y7263D01*
X3136Y7277D01*
X3127Y7290D01*
X3119Y7317D01*
X35953Y12025D02*
X35820Y12085D01*
X35953Y12128D02*
X35673Y12128D01*
X35673Y12059D01*
X35686Y12042D01*
X35700Y12034D01*
X35726Y12025D01*
X35766Y12025D01*
X35793Y12034D01*
X35806Y12042D01*
X35820Y12059D01*
X35820Y12128D01*
X35766Y11871D02*
X35953Y11871D01*
X35660Y11914D02*
X35860Y11956D01*
X35860Y11845D01*
X35766Y11699D02*
X35953Y11699D01*
X35660Y11742D02*
X35860Y11785D01*
X35860Y11674D01*
X30037Y5779D02*
X30097Y5912D01*
X30139Y5779D02*
X30139Y6059D01*
X30071Y6059D01*
X30054Y6045D01*
X30045Y6032D01*
X30037Y6005D01*
X30037Y5965D01*
X30045Y5939D01*
X30054Y5925D01*
X30071Y5912D01*
X30139Y5912D01*
X29882Y5965D02*
X29882Y5779D01*
X29925Y6072D02*
X29968Y5872D01*
X29857Y5872D01*
X29762Y5939D02*
X29779Y5952D01*
X29788Y5965D01*
X29797Y5992D01*
X29797Y6005D01*
X29788Y6032D01*
X29779Y6045D01*
X29762Y6059D01*
X29728Y6059D01*
X29711Y6045D01*
X29702Y6032D01*
X29694Y6005D01*
X29694Y5992D01*
X29702Y5965D01*
X29711Y5952D01*
X29728Y5939D01*
X29762Y5939D01*
X29779Y5925D01*
X29788Y5912D01*
X29797Y5885D01*
X29797Y5832D01*
X29788Y5805D01*
X29779Y5792D01*
X29762Y5779D01*
X29728Y5779D01*
X29711Y5792D01*
X29702Y5805D01*
X29694Y5832D01*
X29694Y5885D01*
X29702Y5912D01*
X29711Y5925D01*
X29728Y5939D01*
X4249Y5976D02*
X4309Y6109D01*
X4352Y5976D02*
X4352Y6256D01*
X4283Y6256D01*
X4266Y6242D01*
X4258Y6229D01*
X4249Y6202D01*
X4249Y6162D01*
X4258Y6136D01*
X4266Y6122D01*
X4283Y6109D01*
X4352Y6109D01*
X4095Y6162D02*
X4095Y5976D01*
X4138Y6269D02*
X4181Y6069D01*
X4069Y6069D01*
X3992Y5976D02*
X3958Y5976D01*
X3941Y5989D01*
X3932Y6002D01*
X3915Y6042D01*
X3906Y6096D01*
X3906Y6202D01*
X3915Y6229D01*
X3923Y6242D01*
X3941Y6256D01*
X3975Y6256D01*
X3992Y6242D01*
X4001Y6229D01*
X4009Y6202D01*
X4009Y6136D01*
X4001Y6109D01*
X3992Y6096D01*
X3975Y6082D01*
X3941Y6082D01*
X3923Y6096D01*
X3915Y6109D01*
X3906Y6136D01*
X36839Y8285D02*
X36706Y8345D01*
X36839Y8388D02*
X36559Y8388D01*
X36559Y8319D01*
X36572Y8302D01*
X36586Y8293D01*
X36612Y8285D01*
X36652Y8285D01*
X36679Y8293D01*
X36692Y8302D01*
X36706Y8319D01*
X36706Y8388D01*
X36559Y8122D02*
X36559Y8208D01*
X36692Y8216D01*
X36679Y8208D01*
X36666Y8191D01*
X36666Y8148D01*
X36679Y8131D01*
X36692Y8122D01*
X36719Y8113D01*
X36786Y8113D01*
X36812Y8122D01*
X36826Y8131D01*
X36839Y8148D01*
X36839Y8191D01*
X36826Y8208D01*
X36812Y8216D01*
X36559Y8002D02*
X36559Y7985D01*
X36572Y7968D01*
X36586Y7959D01*
X36612Y7951D01*
X36666Y7942D01*
X36732Y7942D01*
X36786Y7951D01*
X36812Y7959D01*
X36826Y7968D01*
X36839Y7985D01*
X36839Y8002D01*
X36826Y8019D01*
X36812Y8028D01*
X36786Y8036D01*
X36732Y8045D01*
X36666Y8045D01*
X36612Y8036D01*
X36586Y8028D01*
X36572Y8019D01*
X36559Y8002D01*
X37036Y12812D02*
X36902Y12872D01*
X37036Y12915D02*
X36756Y12915D01*
X36756Y12847D01*
X36769Y12830D01*
X36782Y12821D01*
X36809Y12812D01*
X36849Y12812D01*
X36876Y12821D01*
X36889Y12830D01*
X36902Y12847D01*
X36902Y12915D01*
X36756Y12650D02*
X36756Y12735D01*
X36889Y12744D01*
X36876Y12735D01*
X36862Y12718D01*
X36862Y12675D01*
X36876Y12658D01*
X36889Y12650D01*
X36916Y12641D01*
X36982Y12641D01*
X37009Y12650D01*
X37022Y12658D01*
X37036Y12675D01*
X37036Y12718D01*
X37022Y12735D01*
X37009Y12744D01*
X37036Y12470D02*
X37036Y12572D01*
X37036Y12521D02*
X36756Y12521D01*
X36796Y12538D01*
X36822Y12555D01*
X36836Y12572D01*
X30233Y4401D02*
X30293Y4534D01*
X30336Y4401D02*
X30336Y4681D01*
X30268Y4681D01*
X30251Y4667D01*
X30242Y4654D01*
X30233Y4627D01*
X30233Y4587D01*
X30242Y4561D01*
X30251Y4547D01*
X30268Y4534D01*
X30336Y4534D01*
X30071Y4681D02*
X30156Y4681D01*
X30165Y4547D01*
X30156Y4561D01*
X30139Y4574D01*
X30096Y4574D01*
X30079Y4561D01*
X30071Y4547D01*
X30062Y4521D01*
X30062Y4454D01*
X30071Y4427D01*
X30079Y4414D01*
X30096Y4401D01*
X30139Y4401D01*
X30156Y4414D01*
X30165Y4427D01*
X29993Y4654D02*
X29985Y4667D01*
X29968Y4681D01*
X29925Y4681D01*
X29908Y4667D01*
X29899Y4654D01*
X29891Y4627D01*
X29891Y4601D01*
X29899Y4561D01*
X30002Y4401D01*
X29891Y4401D01*
X31032Y7694D02*
X30898Y7754D01*
X31032Y7797D02*
X30752Y7797D01*
X30752Y7729D01*
X30765Y7711D01*
X30778Y7703D01*
X30805Y7694D01*
X30845Y7694D01*
X30872Y7703D01*
X30885Y7711D01*
X30898Y7729D01*
X30898Y7797D01*
X30752Y7531D02*
X30752Y7617D01*
X30885Y7626D01*
X30872Y7617D01*
X30858Y7600D01*
X30858Y7557D01*
X30872Y7540D01*
X30885Y7531D01*
X30912Y7523D01*
X30978Y7523D01*
X31005Y7531D01*
X31018Y7540D01*
X31032Y7557D01*
X31032Y7600D01*
X31018Y7617D01*
X31005Y7626D01*
X30752Y7369D02*
X30752Y7403D01*
X30765Y7420D01*
X30778Y7429D01*
X30818Y7446D01*
X30872Y7454D01*
X30978Y7454D01*
X31005Y7446D01*
X31018Y7437D01*
X31032Y7420D01*
X31032Y7386D01*
X31018Y7369D01*
X31005Y7360D01*
X30978Y7351D01*
X30912Y7351D01*
X30885Y7360D01*
X30872Y7369D01*
X30858Y7386D01*
X30858Y7420D01*
X30872Y7437D01*
X30885Y7446D01*
X30912Y7454D01*
X29162Y7793D02*
X29028Y7853D01*
X29162Y7896D02*
X28882Y7896D01*
X28882Y7827D01*
X28895Y7810D01*
X28908Y7801D01*
X28935Y7793D01*
X28975Y7793D01*
X29002Y7801D01*
X29015Y7810D01*
X29028Y7827D01*
X29028Y7896D01*
X28882Y7630D02*
X28882Y7716D01*
X29015Y7724D01*
X29002Y7716D01*
X28988Y7698D01*
X28988Y7656D01*
X29002Y7638D01*
X29015Y7630D01*
X29042Y7621D01*
X29108Y7621D01*
X29135Y7630D01*
X29148Y7638D01*
X29162Y7656D01*
X29162Y7698D01*
X29148Y7716D01*
X29135Y7724D01*
X28882Y7561D02*
X28882Y7441D01*
X29162Y7518D01*
X30037Y15523D02*
X30097Y15656D01*
X30139Y15523D02*
X30139Y15803D01*
X30071Y15803D01*
X30054Y15790D01*
X30045Y15776D01*
X30037Y15750D01*
X30037Y15710D01*
X30045Y15683D01*
X30054Y15670D01*
X30071Y15656D01*
X30139Y15656D01*
X29874Y15803D02*
X29959Y15803D01*
X29968Y15670D01*
X29959Y15683D01*
X29942Y15696D01*
X29899Y15696D01*
X29882Y15683D01*
X29874Y15670D01*
X29865Y15643D01*
X29865Y15576D01*
X29874Y15550D01*
X29882Y15536D01*
X29899Y15523D01*
X29942Y15523D01*
X29959Y15536D01*
X29968Y15550D01*
X29762Y15683D02*
X29779Y15696D01*
X29788Y15710D01*
X29797Y15736D01*
X29797Y15750D01*
X29788Y15776D01*
X29779Y15790D01*
X29762Y15803D01*
X29728Y15803D01*
X29711Y15790D01*
X29702Y15776D01*
X29694Y15750D01*
X29694Y15736D01*
X29702Y15710D01*
X29711Y15696D01*
X29728Y15683D01*
X29762Y15683D01*
X29779Y15670D01*
X29788Y15656D01*
X29797Y15630D01*
X29797Y15576D01*
X29788Y15550D01*
X29779Y15536D01*
X29762Y15523D01*
X29728Y15523D01*
X29711Y15536D01*
X29702Y15550D01*
X29694Y15576D01*
X29694Y15630D01*
X29702Y15656D01*
X29711Y15670D01*
X29728Y15683D01*
X4151Y14342D02*
X4211Y14475D01*
X4254Y14342D02*
X4254Y14622D01*
X4185Y14622D01*
X4168Y14608D01*
X4159Y14595D01*
X4151Y14568D01*
X4151Y14528D01*
X4159Y14502D01*
X4168Y14488D01*
X4185Y14475D01*
X4254Y14475D01*
X3988Y14622D02*
X4074Y14622D01*
X4082Y14488D01*
X4074Y14502D01*
X4056Y14515D01*
X4014Y14515D01*
X3996Y14502D01*
X3988Y14488D01*
X3979Y14462D01*
X3979Y14395D01*
X3988Y14368D01*
X3996Y14355D01*
X4014Y14342D01*
X4056Y14342D01*
X4074Y14355D01*
X4082Y14368D01*
X3894Y14342D02*
X3859Y14342D01*
X3842Y14355D01*
X3834Y14368D01*
X3816Y14408D01*
X3808Y14462D01*
X3808Y14568D01*
X3816Y14595D01*
X3825Y14608D01*
X3842Y14622D01*
X3876Y14622D01*
X3894Y14608D01*
X3902Y14595D01*
X3911Y14568D01*
X3911Y14502D01*
X3902Y14475D01*
X3894Y14462D01*
X3876Y14448D01*
X3842Y14448D01*
X3825Y14462D01*
X3816Y14475D01*
X3808Y14502D01*
X4151Y12964D02*
X4211Y13097D01*
X4254Y12964D02*
X4254Y13244D01*
X4185Y13244D01*
X4168Y13230D01*
X4159Y13217D01*
X4151Y13190D01*
X4151Y13150D01*
X4159Y13124D01*
X4168Y13110D01*
X4185Y13097D01*
X4254Y13097D01*
X3996Y13244D02*
X4031Y13244D01*
X4048Y13230D01*
X4056Y13217D01*
X4074Y13177D01*
X4082Y13124D01*
X4082Y13017D01*
X4074Y12990D01*
X4065Y12977D01*
X4048Y12964D01*
X4014Y12964D01*
X3996Y12977D01*
X3988Y12990D01*
X3979Y13017D01*
X3979Y13084D01*
X3988Y13110D01*
X3996Y13124D01*
X4014Y13137D01*
X4048Y13137D01*
X4065Y13124D01*
X4074Y13110D01*
X4082Y13084D01*
X3911Y13217D02*
X3902Y13230D01*
X3885Y13244D01*
X3842Y13244D01*
X3825Y13230D01*
X3816Y13217D01*
X3808Y13190D01*
X3808Y13164D01*
X3816Y13124D01*
X3919Y12964D01*
X3808Y12964D01*
X32202Y16212D02*
X32262Y16345D01*
X32305Y16212D02*
X32305Y16492D01*
X32236Y16492D01*
X32219Y16478D01*
X32210Y16465D01*
X32202Y16438D01*
X32202Y16398D01*
X32210Y16372D01*
X32219Y16358D01*
X32236Y16345D01*
X32305Y16345D01*
X32048Y16492D02*
X32082Y16492D01*
X32099Y16478D01*
X32108Y16465D01*
X32125Y16425D01*
X32133Y16372D01*
X32133Y16265D01*
X32125Y16238D01*
X32116Y16225D01*
X32099Y16212D01*
X32065Y16212D01*
X32048Y16225D01*
X32039Y16238D01*
X32030Y16265D01*
X32030Y16332D01*
X32039Y16358D01*
X32048Y16372D01*
X32065Y16385D01*
X32099Y16385D01*
X32116Y16372D01*
X32125Y16358D01*
X32133Y16332D01*
X31868Y16492D02*
X31953Y16492D01*
X31962Y16358D01*
X31953Y16372D01*
X31936Y16385D01*
X31893Y16385D01*
X31876Y16372D01*
X31868Y16358D01*
X31859Y16332D01*
X31859Y16265D01*
X31868Y16238D01*
X31876Y16225D01*
X31893Y16212D01*
X31936Y16212D01*
X31953Y16225D01*
X31962Y16238D01*
%LPC*%
G54D17*
X21524Y19292D03*
X25461Y19292D03*
X10366Y19292D03*
X6429Y19292D03*
G54D18*
X25589Y10532D03*
G54D17*
X33858Y10532D03*
G54D19*
X34653Y17599D03*
X34653Y16849D03*
X33653Y17599D03*
X34653Y17224D03*
X33653Y16849D03*
G54D20*
X33937Y9843D03*
X32993Y9469D03*
X32993Y10217D03*
G54D21*
X35630Y16849D03*
X35630Y17599D03*
X32874Y16849D03*
X32874Y17599D03*
G54D22*
X27815Y18800D03*
G54D23*
X28815Y18800D03*
X29815Y18800D03*
X30815Y18800D03*
X31815Y18800D03*
X32815Y18800D03*
G54D24*
X3149Y2598D03*
X3149Y5276D03*
X1575Y5276D03*
X1575Y2598D03*
G54D25*
X28189Y9056D03*
X30867Y9056D03*
X30867Y10630D03*
X28189Y10630D03*
X36063Y9056D03*
X38741Y9056D03*
X38741Y10630D03*
X36063Y10630D03*
X32126Y12993D03*
X34804Y12993D03*
X34804Y14567D03*
X32126Y14567D03*
X32126Y5119D03*
X34804Y5119D03*
X34804Y6693D03*
X32126Y6693D03*
G54D24*
X3149Y14409D03*
X3149Y17087D03*
X1575Y17087D03*
X1575Y14409D03*
G54D26*
X886Y3839D03*
X886Y2461D03*
X886Y17225D03*
X886Y15847D03*
G54D27*
X22637Y591D03*
X23819Y591D03*
G54D28*
X24665Y158D03*
X24665Y1024D03*
X21791Y1024D03*
X21791Y158D03*
G54D29*
X24114Y1280D03*
X22933Y1280D03*
X22342Y1280D03*
G54D30*
X37008Y4036D03*
X38190Y4036D03*
G54D31*
X9488Y1851D03*
X9488Y513D03*
X11772Y1851D03*
X11772Y513D03*
G54D30*
X10630Y1773D03*
X10630Y591D03*
G54D31*
X6240Y1851D03*
X6240Y513D03*
X8524Y1851D03*
X8524Y513D03*
G54D30*
X7382Y1773D03*
X7382Y591D03*
G54D32*
X2067Y6299D03*
X2657Y6299D03*
G54D33*
X32087Y10138D03*
X32087Y9548D03*
X35039Y10137D03*
X35039Y9547D03*
X35826Y14074D03*
X35826Y13484D03*
X31004Y6102D03*
X31004Y5512D03*
G54D32*
X2067Y13386D03*
X2657Y13386D03*
G54D34*
X36515Y14961D03*
G54D35*
X36515Y15945D03*
X36515Y16929D03*
G54D36*
X31269Y16240D03*
X30541Y16496D03*
X30541Y15984D03*
X29891Y14961D03*
X29163Y15216D03*
X29163Y14705D03*
G54D37*
X29133Y17096D03*
X28878Y16368D03*
X29389Y16368D03*
G54D33*
X32381Y8366D03*
X32381Y8956D03*
X32972Y8366D03*
X32972Y8956D03*
G54D32*
X29133Y17618D03*
X28543Y17618D03*
X27755Y17618D03*
X27165Y17618D03*
X4428Y5020D03*
X3838Y5020D03*
G54D33*
X28641Y14666D03*
X28641Y15256D03*
X35630Y7874D03*
X35630Y8464D03*
G54D32*
X31200Y17618D03*
X30610Y17618D03*
X30610Y17027D03*
X31200Y17027D03*
X3052Y6890D03*
X3642Y6890D03*
G54D33*
X35826Y12402D03*
X35826Y12992D03*
G54D32*
X29823Y5512D03*
X30413Y5512D03*
X4428Y5709D03*
X3838Y5709D03*
G54D33*
X36220Y8464D03*
X36220Y7874D03*
X36417Y12992D03*
X36417Y12402D03*
G54D32*
X30413Y4921D03*
X29823Y4921D03*
G54D33*
X30413Y7874D03*
X30413Y7284D03*
X29528Y7284D03*
X29528Y7874D03*
G54D32*
X28838Y15846D03*
X29428Y15846D03*
X4330Y14862D03*
X3740Y14862D03*
X3740Y13583D03*
X4330Y13583D03*
X32381Y15945D03*
X31791Y15945D03*
G54D10*
G36*
X1412Y9400D02*
X622Y9510D01*
X622Y10174D01*
X1412Y10284D01*
X1412Y9400D01*
X1412Y9400D01*
G37*
G36*
X2090Y8650D02*
X1454Y8169D01*
X984Y8639D01*
X1465Y9275D01*
X2090Y8650D01*
X2090Y8650D01*
G37*
G36*
X3099Y8597D02*
X2989Y7807D01*
X2325Y7807D01*
X2215Y8597D01*
X3099Y8597D01*
X3099Y8597D01*
G37*
G36*
X3849Y9275D02*
X4330Y8639D01*
X3861Y8169D01*
X3224Y8650D01*
X3849Y9275D01*
X3849Y9275D01*
G37*
G36*
X1465Y10410D02*
X984Y11046D01*
X1454Y11515D01*
X2090Y11035D01*
X1465Y10410D01*
X1465Y10410D01*
G37*
G36*
X2215Y11087D02*
X2325Y11877D01*
X2989Y11877D01*
X3099Y11087D01*
X2215Y11087D01*
X2215Y11087D01*
G37*
G36*
X3224Y11035D02*
X3861Y11515D01*
X4330Y11046D01*
X3849Y10410D01*
X3224Y11035D01*
X3224Y11035D01*
G37*
G36*
X2265Y9611D02*
X1163Y9448D01*
X1163Y10237D01*
X2265Y10074D01*
X2265Y9611D01*
X2265Y9611D01*
G37*
G36*
X2207Y9778D02*
X1126Y10049D01*
X1428Y10778D01*
X2384Y10205D01*
X2207Y9778D01*
X2207Y9778D01*
G37*
G36*
X2384Y9479D02*
X1428Y8907D01*
X1126Y9636D01*
X2207Y9907D01*
X2384Y9479D01*
X2384Y9479D01*
G37*
G36*
X2544Y9402D02*
X1880Y8508D01*
X1322Y9066D01*
X2217Y9730D01*
X2544Y9402D01*
X2544Y9402D01*
G37*
G36*
X2217Y9955D02*
X1322Y10619D01*
X1880Y11177D01*
X2544Y10283D01*
X2217Y9955D01*
X2217Y9955D01*
G37*
G36*
X2722Y9392D02*
X2451Y8311D01*
X1722Y8613D01*
X2294Y9569D01*
X2722Y9392D01*
X2722Y9392D01*
G37*
G36*
X2294Y10116D02*
X1722Y11072D01*
X2451Y11373D01*
X2722Y10293D01*
X2294Y10116D01*
X2294Y10116D01*
G37*
G36*
X2889Y9450D02*
X3052Y8348D01*
X2263Y8348D01*
X2426Y9450D01*
X2889Y9450D01*
X2889Y9450D01*
G37*
G36*
X2426Y10234D02*
X2263Y11336D01*
X3052Y11336D01*
X2889Y10234D01*
X2426Y10234D01*
X2426Y10234D01*
G37*
G36*
X2592Y10293D02*
X2863Y11373D01*
X3592Y11072D01*
X3020Y10116D01*
X2592Y10293D01*
X2592Y10293D01*
G37*
G36*
X3020Y9569D02*
X3592Y8613D01*
X2863Y8311D01*
X2592Y9392D01*
X3020Y9569D01*
X3020Y9569D01*
G37*
G36*
X3097Y9730D02*
X3992Y9066D01*
X3434Y8508D01*
X2770Y9402D01*
X3097Y9730D01*
X3097Y9730D01*
G37*
G36*
X2770Y10283D02*
X3434Y11177D01*
X3992Y10619D01*
X3097Y9955D01*
X2770Y10283D01*
X2770Y10283D01*
G37*
G36*
X2891Y10197D02*
X3762Y10877D01*
X4037Y10465D01*
X3074Y9922D01*
X2891Y10197D01*
X2891Y10197D01*
G37*
G36*
X3074Y9763D02*
X4037Y9220D01*
X3762Y8808D01*
X2891Y9487D01*
X3074Y9763D01*
X3074Y9763D01*
G37*
M02*
