G04 (created by PCBNEW (2013-07-05 BZR 4237)-testing) date Sat 03 Aug 2013 11:53:29 BST*
%MOIN*%
G04 Gerber Fmt 3.4, Leading zero omitted, Abs format*
%FSLAX34Y34*%
G01*
G70*
G90*
G04 APERTURE LIST*
%ADD10C,0.005906*%
%ADD11C,0.015000*%
%ADD12C,0.060000*%
%ADD13C,0.039400*%
%ADD14R,0.070000X0.070000*%
%ADD15C,0.070000*%
%ADD16C,0.040000*%
%ADD17C,0.035400*%
%ADD18R,0.059100X0.059100*%
%ADD19C,0.059100*%
%ADD20C,0.027600*%
%ADD21C,0.021654*%
%ADD22C,0.035000*%
%ADD23C,0.010000*%
G04 APERTURE END LIST*
G54D10*
G54D11*
X39369Y16733D02*
X39370Y16733D01*
X36417Y19685D02*
X39369Y16733D01*
X984Y19685D02*
X0Y18701D01*
X36417Y19685D02*
X984Y19685D01*
X36417Y0D02*
X39370Y2953D01*
X0Y984D02*
X0Y985D01*
X984Y0D02*
X0Y984D01*
X36417Y0D02*
X984Y0D01*
X0Y18701D02*
X0Y985D01*
X39370Y16733D02*
X39370Y2953D01*
G54D12*
X21524Y19292D03*
X25461Y19292D03*
X10366Y19292D03*
X6429Y19292D03*
G54D13*
X25589Y10532D03*
G54D12*
X33858Y10532D03*
G54D14*
X27815Y18800D03*
G54D15*
X28815Y18800D03*
X29815Y18800D03*
X30815Y18800D03*
X31815Y18800D03*
X32815Y18800D03*
G54D16*
X886Y3839D03*
X886Y2461D03*
X886Y17225D03*
X886Y15847D03*
G54D17*
X22637Y591D03*
X23819Y591D03*
X37008Y4036D03*
X38190Y4036D03*
X10630Y1773D03*
X10630Y591D03*
X7382Y1773D03*
X7382Y591D03*
G54D18*
X36515Y14961D03*
G54D19*
X36515Y15945D03*
X36515Y16929D03*
G54D20*
X36220Y13878D03*
X33464Y13287D03*
X10925Y5020D03*
X6102Y4626D03*
X6653Y2264D03*
X4626Y12401D03*
X7775Y13189D03*
X38582Y11811D03*
X27854Y13779D03*
X31299Y14567D03*
X23917Y16732D03*
X24015Y15748D03*
X21456Y18209D03*
X26378Y18504D03*
X26476Y13386D03*
X27067Y13386D03*
X2067Y18012D03*
X7086Y9941D03*
X7086Y8760D03*
X4724Y7382D03*
X34842Y7283D03*
X2165Y1772D03*
X1574Y6299D03*
X31496Y6102D03*
X12106Y18110D03*
X16929Y13386D03*
X1476Y13386D03*
X37007Y14075D03*
X37106Y11713D03*
X30610Y13681D03*
X25295Y13386D03*
X25885Y13386D03*
X24015Y1870D03*
X13976Y5020D03*
X11417Y5610D03*
G54D21*
X15452Y4724D03*
G54D20*
X7480Y1279D03*
X15452Y9646D03*
X19389Y4331D03*
X20669Y5610D03*
X19881Y8858D03*
X25885Y14567D03*
X36515Y1378D03*
X18405Y5315D03*
G54D21*
X14567Y5216D03*
G54D20*
X38779Y13287D03*
X37598Y8268D03*
X28444Y15846D03*
X23622Y14862D03*
X11811Y16634D03*
X9744Y16751D03*
X9744Y15256D03*
G54D21*
X14370Y11220D03*
X10630Y11417D03*
X10630Y12697D03*
X23818Y17323D03*
X12598Y16929D03*
X11122Y17028D03*
G54D20*
X8957Y14863D03*
G54D21*
X13090Y9350D03*
X12696Y12697D03*
X13878Y8563D03*
X11318Y8760D03*
X13878Y8169D03*
X23326Y15157D03*
X23523Y17027D03*
X14271Y15059D03*
X11417Y9646D03*
X11417Y12008D03*
X34645Y16437D03*
X34645Y18012D03*
X13878Y8957D03*
X16338Y10728D03*
X23129Y12205D03*
X16633Y10925D03*
X23129Y12598D03*
X33366Y4035D03*
X33366Y5020D03*
X33661Y9252D03*
X35334Y12401D03*
X33070Y12598D03*
X21456Y3937D03*
X24507Y7283D03*
X21161Y7283D03*
X35137Y7874D03*
X23818Y3051D03*
X13189Y7382D03*
X26673Y10630D03*
X21555Y12106D03*
X18011Y3740D03*
X24507Y6398D03*
X23720Y6398D03*
X22834Y3347D03*
X21456Y3346D03*
G54D20*
X30413Y6398D03*
G54D21*
X21850Y11024D03*
X27362Y13976D03*
X27657Y12500D03*
X21161Y6988D03*
X18700Y2461D03*
X10137Y3642D03*
X11614Y11614D03*
X18602Y11614D03*
X22441Y14764D03*
X14271Y14764D03*
X19192Y14468D03*
X14271Y14468D03*
X17224Y13878D03*
X14271Y13878D03*
X14271Y14173D03*
X19488Y14173D03*
X14271Y13583D03*
X10925Y7185D03*
X12795Y7382D03*
X17519Y13583D03*
X15945Y3839D03*
X23425Y3051D03*
X24311Y9153D03*
G54D20*
X19193Y9252D03*
X26870Y10926D03*
X19784Y9941D03*
X31890Y10729D03*
X20177Y10138D03*
G54D21*
X24409Y9449D03*
G54D20*
X19587Y9548D03*
G54D21*
X23720Y8563D03*
X21161Y8563D03*
X17618Y3838D03*
X10925Y10433D03*
X14862Y8760D03*
X11023Y10138D03*
X14468Y8760D03*
X10826Y10728D03*
X13878Y10236D03*
X35334Y11516D03*
X15846Y10827D03*
X15748Y10531D03*
X35728Y11516D03*
X24507Y6693D03*
X23523Y12992D03*
X23720Y6693D03*
X17224Y11024D03*
X22834Y3642D03*
X21456Y3642D03*
X23326Y14567D03*
X11318Y590D03*
X11417Y6398D03*
X12204Y6398D03*
X11417Y7677D03*
X12992Y7677D03*
X12992Y7972D03*
X10433Y7874D03*
X20079Y16240D03*
X12697Y16241D03*
X22637Y5807D03*
X21161Y5807D03*
X16929Y11024D03*
X10236Y10925D03*
X19488Y15847D03*
X12303Y16043D03*
X21161Y6398D03*
X22441Y6398D03*
X19291Y15552D03*
X12204Y15748D03*
X22342Y6693D03*
X21161Y6693D03*
X21555Y15355D03*
X22834Y4233D03*
X21456Y4232D03*
X14271Y15354D03*
X19784Y16044D03*
X22539Y6102D03*
X12992Y16044D03*
X21161Y6102D03*
X6692Y984D03*
G54D20*
X32185Y17520D03*
X31889Y16732D03*
X30216Y16535D03*
X29822Y17323D03*
X24606Y6004D03*
X24606Y4527D03*
X21161Y10236D03*
X30807Y12303D03*
X10334Y1378D03*
X12795Y886D03*
X11909Y5020D03*
X8563Y5512D03*
X8563Y6102D03*
X8563Y6693D03*
X8563Y7283D03*
X15846Y9744D03*
X8956Y7579D03*
X9547Y11516D03*
X6692Y4626D03*
X6594Y5610D03*
X14173Y4035D03*
X24311Y12106D03*
X4330Y14075D03*
X29035Y7283D03*
X29527Y4921D03*
X21653Y4626D03*
X20275Y5610D03*
X4921Y13878D03*
X3740Y14075D03*
X3740Y12008D03*
X7775Y12598D03*
X37204Y12401D03*
X28149Y14665D03*
X26476Y17618D03*
X35630Y18110D03*
X27854Y17027D03*
X30118Y15945D03*
X27952Y15945D03*
X26279Y14862D03*
X24015Y14862D03*
X25689Y15945D03*
X25590Y17027D03*
X23031Y18110D03*
X21358Y590D03*
X25295Y788D03*
X3838Y6299D03*
X7972Y10630D03*
X4822Y5512D03*
X17815Y5315D03*
X20570Y4331D03*
X14173Y5610D03*
X12303Y5610D03*
X36023Y7480D03*
X20866Y18209D03*
X20078Y18701D03*
X16338Y18701D03*
X15748Y18701D03*
X15157Y18701D03*
X14567Y18701D03*
X13976Y18701D03*
X14370Y9646D03*
X12106Y17618D03*
X34645Y9842D03*
X10531Y14764D03*
X12401Y4035D03*
X16830Y12992D03*
X14271Y12894D03*
X18996Y886D03*
X14862Y1279D03*
X35630Y1083D03*
X36319Y3347D03*
X21260Y13682D03*
X37992Y12107D03*
X36930Y5806D03*
X29134Y13189D03*
X11221Y17520D03*
X29134Y13682D03*
X20177Y8367D03*
X4429Y8662D03*
X6004Y9351D03*
X37599Y11713D03*
X1771Y11122D03*
X2755Y11024D03*
X2756Y8268D03*
X5019Y984D03*
X5807Y18799D03*
X591Y5709D03*
X885Y9153D03*
X2362Y7382D03*
X4724Y19095D03*
X4331Y3150D03*
G54D22*
X3838Y10138D03*
G54D21*
X21161Y7874D03*
X24507Y7874D03*
X32381Y7972D03*
X13779Y7185D03*
X11023Y6594D03*
X24507Y7579D03*
X32972Y7972D03*
X21161Y7579D03*
G54D10*
G36*
X39025Y3072D02*
X38970Y3018D01*
X38970Y11888D01*
X38911Y12030D01*
X38802Y12140D01*
X38660Y12199D01*
X38505Y12199D01*
X38363Y12140D01*
X38254Y12031D01*
X38194Y11888D01*
X38194Y11734D01*
X38253Y11591D01*
X38362Y11482D01*
X38505Y11423D01*
X38659Y11423D01*
X38802Y11482D01*
X38911Y11591D01*
X38970Y11733D01*
X38970Y11888D01*
X38970Y3018D01*
X38617Y2664D01*
X38617Y4120D01*
X38552Y4277D01*
X38432Y4397D01*
X38275Y4462D01*
X38105Y4463D01*
X37986Y4413D01*
X37986Y8344D01*
X37927Y8487D01*
X37818Y8596D01*
X37676Y8656D01*
X37521Y8656D01*
X37494Y8644D01*
X37494Y11789D01*
X37435Y11932D01*
X37396Y11972D01*
X37396Y14152D01*
X37337Y14294D01*
X37228Y14403D01*
X37085Y14463D01*
X37061Y14463D01*
X37061Y16053D01*
X36978Y16253D01*
X36825Y16407D01*
X36753Y16437D01*
X36824Y16466D01*
X36978Y16619D01*
X37061Y16820D01*
X37061Y17037D01*
X36978Y17237D01*
X36825Y17391D01*
X36624Y17474D01*
X36407Y17474D01*
X36207Y17392D01*
X36053Y17238D01*
X35970Y17038D01*
X35970Y16821D01*
X36053Y16620D01*
X36206Y16467D01*
X36278Y16437D01*
X36207Y16408D01*
X36053Y16254D01*
X35970Y16054D01*
X35970Y15837D01*
X36053Y15636D01*
X36182Y15506D01*
X36170Y15506D01*
X36078Y15468D01*
X36008Y15398D01*
X35970Y15306D01*
X35970Y15073D01*
X36032Y15011D01*
X36465Y15011D01*
X36465Y15019D01*
X36565Y15019D01*
X36565Y15011D01*
X36998Y15011D01*
X37061Y15073D01*
X37061Y15306D01*
X37023Y15398D01*
X36952Y15468D01*
X36861Y15506D01*
X36848Y15506D01*
X36978Y15635D01*
X37061Y15836D01*
X37061Y16053D01*
X37061Y14463D01*
X36962Y14463D01*
X37023Y14524D01*
X37061Y14616D01*
X37061Y14848D01*
X36998Y14911D01*
X36565Y14911D01*
X36565Y14478D01*
X36628Y14415D01*
X36761Y14415D01*
X36816Y14415D01*
X36788Y14404D01*
X36679Y14295D01*
X36620Y14152D01*
X36619Y13998D01*
X36678Y13855D01*
X36787Y13746D01*
X36930Y13687D01*
X37084Y13687D01*
X37227Y13746D01*
X37336Y13855D01*
X37395Y13997D01*
X37396Y14152D01*
X37396Y11972D01*
X37326Y12041D01*
X37183Y12100D01*
X37029Y12101D01*
X36886Y12042D01*
X36777Y11933D01*
X36718Y11790D01*
X36718Y11636D01*
X36777Y11493D01*
X36886Y11384D01*
X37028Y11325D01*
X37183Y11324D01*
X37325Y11383D01*
X37435Y11492D01*
X37494Y11635D01*
X37494Y11789D01*
X37494Y8644D01*
X37379Y8597D01*
X37269Y8488D01*
X37210Y8345D01*
X37210Y8191D01*
X37269Y8048D01*
X37378Y7939D01*
X37520Y7880D01*
X37675Y7880D01*
X37818Y7938D01*
X37927Y8048D01*
X37986Y8190D01*
X37986Y8344D01*
X37986Y4413D01*
X37948Y4398D01*
X37828Y4278D01*
X37763Y4121D01*
X37762Y3951D01*
X37827Y3794D01*
X37947Y3674D01*
X38104Y3609D01*
X38274Y3608D01*
X38431Y3673D01*
X38551Y3793D01*
X38616Y3950D01*
X38617Y4120D01*
X38617Y2664D01*
X37435Y1482D01*
X37435Y4120D01*
X37370Y4277D01*
X37250Y4397D01*
X37093Y4462D01*
X36923Y4463D01*
X36766Y4398D01*
X36646Y4278D01*
X36608Y4187D01*
X36608Y13955D01*
X36549Y14097D01*
X36465Y14181D01*
X36465Y14478D01*
X36465Y14911D01*
X36032Y14911D01*
X35970Y14848D01*
X35970Y14616D01*
X36008Y14524D01*
X36078Y14453D01*
X36170Y14415D01*
X36270Y14415D01*
X36403Y14415D01*
X36465Y14478D01*
X36465Y14181D01*
X36440Y14207D01*
X36298Y14266D01*
X36143Y14266D01*
X36001Y14207D01*
X35891Y14098D01*
X35832Y13955D01*
X35832Y13801D01*
X35891Y13658D01*
X36000Y13549D01*
X36143Y13490D01*
X36297Y13490D01*
X36440Y13549D01*
X36549Y13658D01*
X36608Y13800D01*
X36608Y13955D01*
X36608Y4187D01*
X36581Y4121D01*
X36580Y3951D01*
X36645Y3794D01*
X36765Y3674D01*
X36922Y3609D01*
X37092Y3608D01*
X37249Y3673D01*
X37369Y3793D01*
X37434Y3950D01*
X37435Y4120D01*
X37435Y1482D01*
X36903Y951D01*
X36903Y1455D01*
X36844Y1597D01*
X36735Y1707D01*
X36593Y1766D01*
X36438Y1766D01*
X36296Y1707D01*
X36187Y1598D01*
X36127Y1455D01*
X36127Y1301D01*
X36186Y1158D01*
X36295Y1049D01*
X36438Y990D01*
X36592Y990D01*
X36735Y1049D01*
X36844Y1158D01*
X36903Y1300D01*
X36903Y1455D01*
X36903Y951D01*
X36298Y346D01*
X36086Y346D01*
X36086Y11587D01*
X36032Y11718D01*
X35931Y11819D01*
X35800Y11874D01*
X35693Y11874D01*
X35693Y12472D01*
X35638Y12604D01*
X35537Y12705D01*
X35406Y12760D01*
X35263Y12760D01*
X35132Y12705D01*
X35031Y12605D01*
X35004Y12539D01*
X35004Y16508D01*
X35004Y18083D01*
X34949Y18214D01*
X34848Y18315D01*
X34717Y18370D01*
X34574Y18370D01*
X34443Y18316D01*
X34342Y18215D01*
X34287Y18083D01*
X34287Y17941D01*
X34341Y17809D01*
X34442Y17708D01*
X34574Y17654D01*
X34716Y17653D01*
X34848Y17708D01*
X34949Y17809D01*
X35003Y17940D01*
X35004Y18083D01*
X35004Y16508D01*
X34949Y16640D01*
X34848Y16740D01*
X34717Y16795D01*
X34574Y16795D01*
X34443Y16741D01*
X34342Y16640D01*
X34287Y16508D01*
X34287Y16366D01*
X34341Y16234D01*
X34442Y16133D01*
X34574Y16079D01*
X34716Y16079D01*
X34848Y16133D01*
X34949Y16234D01*
X35003Y16365D01*
X35004Y16508D01*
X35004Y12539D01*
X34976Y12473D01*
X34976Y12331D01*
X35030Y12199D01*
X35131Y12098D01*
X35263Y12043D01*
X35405Y12043D01*
X35537Y12098D01*
X35638Y12198D01*
X35692Y12330D01*
X35693Y12472D01*
X35693Y11874D01*
X35657Y11874D01*
X35531Y11822D01*
X35406Y11874D01*
X35263Y11874D01*
X35132Y11820D01*
X35031Y11719D01*
X34976Y11587D01*
X34976Y11445D01*
X35030Y11313D01*
X35131Y11212D01*
X35263Y11157D01*
X35405Y11157D01*
X35531Y11209D01*
X35656Y11157D01*
X35799Y11157D01*
X35931Y11212D01*
X36031Y11312D01*
X36086Y11444D01*
X36086Y11587D01*
X36086Y346D01*
X35496Y346D01*
X35496Y7945D01*
X35441Y8077D01*
X35341Y8177D01*
X35209Y8232D01*
X35066Y8232D01*
X34935Y8178D01*
X34834Y8077D01*
X34779Y7945D01*
X34779Y7803D01*
X34833Y7671D01*
X34765Y7671D01*
X34623Y7612D01*
X34513Y7503D01*
X34454Y7361D01*
X34454Y7207D01*
X34513Y7064D01*
X34622Y6955D01*
X34765Y6895D01*
X34919Y6895D01*
X35062Y6954D01*
X35171Y7063D01*
X35230Y7206D01*
X35230Y7360D01*
X35171Y7503D01*
X35158Y7516D01*
X35208Y7516D01*
X35340Y7570D01*
X35441Y7671D01*
X35496Y7802D01*
X35496Y7945D01*
X35496Y346D01*
X34408Y346D01*
X34408Y10640D01*
X34324Y10843D01*
X34169Y10997D01*
X33967Y11081D01*
X33852Y11082D01*
X33852Y13364D01*
X33793Y13507D01*
X33684Y13616D01*
X33542Y13675D01*
X33387Y13675D01*
X33245Y13616D01*
X33135Y13507D01*
X33076Y13365D01*
X33076Y13210D01*
X33135Y13068D01*
X33244Y12959D01*
X33387Y12899D01*
X33541Y12899D01*
X33684Y12958D01*
X33793Y13067D01*
X33852Y13210D01*
X33852Y13364D01*
X33852Y11082D01*
X33749Y11082D01*
X33546Y10998D01*
X33429Y10881D01*
X33429Y12669D01*
X33374Y12801D01*
X33274Y12902D01*
X33142Y12957D01*
X32999Y12957D01*
X32868Y12902D01*
X32767Y12802D01*
X32712Y12670D01*
X32712Y12527D01*
X32767Y12396D01*
X32867Y12295D01*
X32999Y12240D01*
X33141Y12240D01*
X33273Y12294D01*
X33374Y12395D01*
X33429Y12527D01*
X33429Y12669D01*
X33429Y10881D01*
X33392Y10843D01*
X33308Y10641D01*
X33307Y10423D01*
X33391Y10220D01*
X33546Y10066D01*
X33748Y9982D01*
X33966Y9981D01*
X34169Y10065D01*
X34323Y10220D01*
X34407Y10422D01*
X34408Y10640D01*
X34408Y346D01*
X34019Y346D01*
X34019Y9323D01*
X33965Y9455D01*
X33864Y9555D01*
X33733Y9610D01*
X33590Y9610D01*
X33458Y9556D01*
X33357Y9455D01*
X33303Y9323D01*
X33303Y9181D01*
X33357Y9049D01*
X33458Y8948D01*
X33589Y8894D01*
X33732Y8894D01*
X33864Y8948D01*
X33965Y9049D01*
X34019Y9180D01*
X34019Y9323D01*
X34019Y346D01*
X33724Y346D01*
X33724Y4106D01*
X33724Y5091D01*
X33670Y5222D01*
X33569Y5323D01*
X33437Y5378D01*
X33330Y5378D01*
X33330Y8043D01*
X33276Y8175D01*
X33175Y8276D01*
X33044Y8331D01*
X32901Y8331D01*
X32769Y8276D01*
X32677Y8184D01*
X32585Y8276D01*
X32453Y8331D01*
X32311Y8331D01*
X32278Y8317D01*
X32278Y10805D01*
X32219Y10948D01*
X32110Y11057D01*
X31967Y11116D01*
X31813Y11117D01*
X31687Y11065D01*
X31687Y14644D01*
X31628Y14786D01*
X31519Y14896D01*
X31376Y14955D01*
X31222Y14955D01*
X31079Y14896D01*
X30970Y14787D01*
X30911Y14644D01*
X30911Y14490D01*
X30970Y14347D01*
X31079Y14238D01*
X31221Y14179D01*
X31376Y14179D01*
X31518Y14238D01*
X31628Y14347D01*
X31687Y14489D01*
X31687Y14644D01*
X31687Y11065D01*
X31670Y11058D01*
X31561Y10949D01*
X31502Y10806D01*
X31501Y10652D01*
X31560Y10509D01*
X31669Y10400D01*
X31812Y10341D01*
X31966Y10340D01*
X32109Y10399D01*
X32218Y10508D01*
X32277Y10651D01*
X32278Y10805D01*
X32278Y8317D01*
X32179Y8276D01*
X32078Y8176D01*
X32023Y8044D01*
X32023Y7901D01*
X32078Y7770D01*
X32178Y7669D01*
X32310Y7614D01*
X32452Y7614D01*
X32584Y7668D01*
X32677Y7761D01*
X32769Y7669D01*
X32900Y7614D01*
X33043Y7614D01*
X33175Y7668D01*
X33276Y7769D01*
X33330Y7901D01*
X33330Y8043D01*
X33330Y5378D01*
X33295Y5378D01*
X33163Y5323D01*
X33062Y5223D01*
X33008Y5091D01*
X33007Y4949D01*
X33062Y4817D01*
X33163Y4716D01*
X33294Y4661D01*
X33437Y4661D01*
X33568Y4716D01*
X33669Y4816D01*
X33724Y4948D01*
X33724Y5091D01*
X33724Y4106D01*
X33670Y4238D01*
X33569Y4339D01*
X33437Y4394D01*
X33295Y4394D01*
X33163Y4339D01*
X33062Y4239D01*
X33008Y4107D01*
X33007Y3964D01*
X33062Y3833D01*
X33163Y3732D01*
X33294Y3677D01*
X33437Y3677D01*
X33568Y3731D01*
X33669Y3832D01*
X33724Y3964D01*
X33724Y4106D01*
X33724Y346D01*
X31884Y346D01*
X31884Y6179D01*
X31825Y6321D01*
X31716Y6431D01*
X31573Y6490D01*
X31419Y6490D01*
X31276Y6431D01*
X31167Y6322D01*
X31108Y6180D01*
X31108Y6025D01*
X31167Y5882D01*
X31276Y5773D01*
X31418Y5714D01*
X31572Y5714D01*
X31715Y5773D01*
X31824Y5882D01*
X31884Y6024D01*
X31884Y6179D01*
X31884Y346D01*
X30998Y346D01*
X30998Y13758D01*
X30939Y13901D01*
X30830Y14010D01*
X30687Y14069D01*
X30533Y14069D01*
X30390Y14010D01*
X30281Y13901D01*
X30222Y13759D01*
X30222Y13604D01*
X30281Y13462D01*
X30390Y13352D01*
X30532Y13293D01*
X30687Y13293D01*
X30829Y13352D01*
X30939Y13461D01*
X30998Y13603D01*
X30998Y13758D01*
X30998Y346D01*
X30801Y346D01*
X30801Y6474D01*
X30742Y6617D01*
X30633Y6726D01*
X30490Y6785D01*
X30336Y6786D01*
X30193Y6727D01*
X30084Y6618D01*
X30025Y6475D01*
X30024Y6321D01*
X30083Y6178D01*
X30192Y6069D01*
X30335Y6010D01*
X30489Y6009D01*
X30632Y6068D01*
X30741Y6177D01*
X30800Y6320D01*
X30801Y6474D01*
X30801Y346D01*
X29166Y346D01*
X28833Y346D01*
X28833Y15923D01*
X28774Y16066D01*
X28665Y16175D01*
X28522Y16234D01*
X28368Y16234D01*
X28225Y16175D01*
X28116Y16066D01*
X28057Y15924D01*
X28056Y15770D01*
X28115Y15627D01*
X28224Y15518D01*
X28367Y15458D01*
X28521Y15458D01*
X28664Y15517D01*
X28773Y15626D01*
X28832Y15769D01*
X28833Y15923D01*
X28833Y346D01*
X28242Y346D01*
X28242Y13856D01*
X28183Y13999D01*
X28074Y14108D01*
X27931Y14167D01*
X27777Y14167D01*
X27765Y14162D01*
X27765Y18262D01*
X27765Y18750D01*
X27277Y18750D01*
X27215Y18687D01*
X27215Y18499D01*
X27215Y18400D01*
X27253Y18308D01*
X27323Y18238D01*
X27415Y18200D01*
X27702Y18200D01*
X27765Y18262D01*
X27765Y14162D01*
X27686Y14130D01*
X27666Y14179D01*
X27565Y14280D01*
X27433Y14334D01*
X27291Y14335D01*
X27159Y14280D01*
X27058Y14179D01*
X27004Y14048D01*
X27003Y13905D01*
X27058Y13774D01*
X26990Y13774D01*
X26847Y13715D01*
X26771Y13639D01*
X26766Y13645D01*
X26766Y18581D01*
X26707Y18723D01*
X26598Y18833D01*
X26455Y18892D01*
X26301Y18892D01*
X26158Y18833D01*
X26049Y18724D01*
X25990Y18581D01*
X25989Y18427D01*
X26048Y18284D01*
X26157Y18175D01*
X26300Y18116D01*
X26454Y18116D01*
X26597Y18175D01*
X26706Y18284D01*
X26765Y18426D01*
X26766Y18581D01*
X26766Y13645D01*
X26696Y13714D01*
X26553Y13774D01*
X26399Y13774D01*
X26273Y13722D01*
X26273Y14644D01*
X26215Y14786D01*
X26105Y14896D01*
X25963Y14955D01*
X25809Y14955D01*
X25666Y14896D01*
X25557Y14787D01*
X25497Y14644D01*
X25497Y14490D01*
X25556Y14347D01*
X25665Y14238D01*
X25808Y14179D01*
X25962Y14179D01*
X26105Y14238D01*
X26214Y14347D01*
X26273Y14489D01*
X26273Y14644D01*
X26273Y13722D01*
X26256Y13715D01*
X26181Y13639D01*
X26105Y13714D01*
X25963Y13774D01*
X25809Y13774D01*
X25666Y13715D01*
X25590Y13639D01*
X25515Y13714D01*
X25372Y13774D01*
X25218Y13774D01*
X25075Y13715D01*
X24966Y13606D01*
X24907Y13463D01*
X24907Y13309D01*
X24966Y13166D01*
X25075Y13057D01*
X25217Y12998D01*
X25372Y12998D01*
X25514Y13057D01*
X25590Y13132D01*
X25665Y13057D01*
X25808Y12998D01*
X25962Y12998D01*
X26105Y13057D01*
X26181Y13132D01*
X26256Y13057D01*
X26398Y12998D01*
X26553Y12998D01*
X26695Y13057D01*
X26771Y13132D01*
X26846Y13057D01*
X26989Y12998D01*
X27143Y12998D01*
X27286Y13057D01*
X27395Y13166D01*
X27454Y13308D01*
X27455Y13463D01*
X27396Y13605D01*
X27383Y13618D01*
X27433Y13618D01*
X27491Y13642D01*
X27525Y13560D01*
X27634Y13451D01*
X27776Y13391D01*
X27931Y13391D01*
X28073Y13450D01*
X28183Y13559D01*
X28242Y13702D01*
X28242Y13856D01*
X28242Y346D01*
X28015Y346D01*
X28015Y12571D01*
X27961Y12703D01*
X27860Y12803D01*
X27729Y12858D01*
X27586Y12858D01*
X27454Y12804D01*
X27354Y12703D01*
X27299Y12571D01*
X27299Y12429D01*
X27353Y12297D01*
X27454Y12196D01*
X27585Y12142D01*
X27728Y12142D01*
X27860Y12196D01*
X27961Y12297D01*
X28015Y12428D01*
X28015Y12571D01*
X28015Y346D01*
X27258Y346D01*
X27258Y11002D01*
X27199Y11145D01*
X27090Y11254D01*
X26947Y11313D01*
X26793Y11314D01*
X26650Y11255D01*
X26541Y11146D01*
X26482Y11003D01*
X26482Y10938D01*
X26470Y10934D01*
X26369Y10833D01*
X26315Y10701D01*
X26314Y10559D01*
X26369Y10427D01*
X26470Y10326D01*
X26601Y10272D01*
X26744Y10271D01*
X26875Y10326D01*
X26976Y10427D01*
X27031Y10558D01*
X27031Y10572D01*
X27089Y10596D01*
X27198Y10705D01*
X27257Y10848D01*
X27258Y11002D01*
X27258Y346D01*
X26036Y346D01*
X26036Y10620D01*
X25968Y10784D01*
X25842Y10910D01*
X25678Y10978D01*
X25500Y10979D01*
X25336Y10911D01*
X25210Y10785D01*
X25142Y10621D01*
X25141Y10443D01*
X25209Y10279D01*
X25335Y10153D01*
X25499Y10085D01*
X25677Y10084D01*
X25841Y10152D01*
X25967Y10278D01*
X26035Y10442D01*
X26036Y10620D01*
X26036Y346D01*
X24866Y346D01*
X24866Y6468D01*
X24834Y6545D01*
X24866Y6621D01*
X24866Y6764D01*
X24811Y6895D01*
X24719Y6988D01*
X24811Y7080D01*
X24866Y7212D01*
X24866Y7354D01*
X24834Y7431D01*
X24866Y7507D01*
X24866Y7650D01*
X24834Y7726D01*
X24866Y7802D01*
X24866Y7945D01*
X24811Y8077D01*
X24767Y8121D01*
X24767Y9520D01*
X24713Y9651D01*
X24612Y9752D01*
X24481Y9807D01*
X24403Y9807D01*
X24403Y15825D01*
X24344Y15967D01*
X24305Y16007D01*
X24305Y16809D01*
X24246Y16952D01*
X24137Y17061D01*
X24085Y17083D01*
X24122Y17120D01*
X24177Y17251D01*
X24177Y17394D01*
X24122Y17525D01*
X24022Y17626D01*
X23890Y17681D01*
X23748Y17681D01*
X23616Y17627D01*
X23515Y17526D01*
X23460Y17394D01*
X23460Y17386D01*
X23452Y17386D01*
X23321Y17331D01*
X23220Y17231D01*
X23165Y17099D01*
X23165Y16957D01*
X23219Y16825D01*
X23320Y16724D01*
X23452Y16669D01*
X23529Y16669D01*
X23529Y16655D01*
X23588Y16513D01*
X23697Y16403D01*
X23839Y16344D01*
X23994Y16344D01*
X24136Y16403D01*
X24246Y16512D01*
X24305Y16655D01*
X24305Y16809D01*
X24305Y16007D01*
X24235Y16077D01*
X24093Y16136D01*
X23938Y16136D01*
X23796Y16077D01*
X23687Y15968D01*
X23627Y15825D01*
X23627Y15671D01*
X23686Y15528D01*
X23795Y15419D01*
X23938Y15360D01*
X24092Y15360D01*
X24235Y15419D01*
X24344Y15528D01*
X24403Y15670D01*
X24403Y15825D01*
X24403Y9807D01*
X24338Y9807D01*
X24206Y9752D01*
X24105Y9652D01*
X24051Y9520D01*
X24051Y9400D01*
X24010Y9359D01*
X24010Y14939D01*
X23951Y15082D01*
X23842Y15191D01*
X23699Y15250D01*
X23676Y15250D01*
X23630Y15360D01*
X23530Y15461D01*
X23398Y15516D01*
X23255Y15516D01*
X23124Y15461D01*
X23023Y15361D01*
X22968Y15229D01*
X22968Y15086D01*
X23022Y14955D01*
X23115Y14862D01*
X23023Y14770D01*
X22968Y14638D01*
X22968Y14496D01*
X23022Y14364D01*
X23123Y14263D01*
X23255Y14209D01*
X23397Y14209D01*
X23529Y14263D01*
X23630Y14364D01*
X23676Y14474D01*
X23698Y14474D01*
X23841Y14533D01*
X23950Y14642D01*
X24010Y14785D01*
X24010Y14939D01*
X24010Y9359D01*
X24007Y9357D01*
X23952Y9225D01*
X23952Y9082D01*
X24007Y8951D01*
X24107Y8850D01*
X24239Y8795D01*
X24382Y8795D01*
X24513Y8850D01*
X24614Y8950D01*
X24669Y9082D01*
X24669Y9202D01*
X24713Y9245D01*
X24767Y9377D01*
X24767Y9520D01*
X24767Y8121D01*
X24711Y8177D01*
X24579Y8232D01*
X24437Y8232D01*
X24305Y8178D01*
X24204Y8077D01*
X24149Y7945D01*
X24149Y7803D01*
X24181Y7726D01*
X24149Y7650D01*
X24149Y7508D01*
X24181Y7431D01*
X24149Y7355D01*
X24149Y7212D01*
X24204Y7081D01*
X24296Y6988D01*
X24204Y6896D01*
X24149Y6764D01*
X24149Y6622D01*
X24181Y6545D01*
X24149Y6469D01*
X24149Y6327D01*
X24204Y6195D01*
X24304Y6094D01*
X24436Y6039D01*
X24578Y6039D01*
X24710Y6094D01*
X24811Y6194D01*
X24866Y6326D01*
X24866Y6468D01*
X24866Y346D01*
X24403Y346D01*
X24403Y1947D01*
X24344Y2089D01*
X24235Y2199D01*
X24177Y2223D01*
X24177Y3122D01*
X24122Y3254D01*
X24078Y3298D01*
X24078Y6468D01*
X24047Y6545D01*
X24078Y6621D01*
X24078Y6764D01*
X24078Y8634D01*
X24024Y8766D01*
X23923Y8866D01*
X23882Y8884D01*
X23882Y13063D01*
X23827Y13195D01*
X23726Y13296D01*
X23595Y13350D01*
X23452Y13350D01*
X23321Y13296D01*
X23220Y13195D01*
X23165Y13064D01*
X23165Y12957D01*
X23058Y12957D01*
X22927Y12902D01*
X22826Y12802D01*
X22799Y12737D01*
X22799Y14835D01*
X22744Y14966D01*
X22644Y15067D01*
X22512Y15122D01*
X22370Y15122D01*
X22238Y15068D01*
X22137Y14967D01*
X22082Y14835D01*
X22082Y14693D01*
X22137Y14561D01*
X22237Y14460D01*
X22369Y14405D01*
X22511Y14405D01*
X22643Y14460D01*
X22744Y14560D01*
X22799Y14692D01*
X22799Y14835D01*
X22799Y12737D01*
X22771Y12670D01*
X22771Y12527D01*
X22823Y12402D01*
X22771Y12277D01*
X22771Y12134D01*
X22825Y12002D01*
X22926Y11902D01*
X23057Y11847D01*
X23200Y11847D01*
X23332Y11901D01*
X23433Y12002D01*
X23487Y12133D01*
X23487Y12276D01*
X23436Y12401D01*
X23488Y12527D01*
X23488Y12634D01*
X23594Y12634D01*
X23726Y12688D01*
X23827Y12789D01*
X23881Y12920D01*
X23882Y13063D01*
X23882Y8884D01*
X23792Y8921D01*
X23649Y8921D01*
X23517Y8867D01*
X23417Y8766D01*
X23362Y8634D01*
X23362Y8492D01*
X23416Y8360D01*
X23517Y8259D01*
X23648Y8205D01*
X23791Y8205D01*
X23923Y8259D01*
X24024Y8360D01*
X24078Y8491D01*
X24078Y8634D01*
X24078Y6764D01*
X24024Y6895D01*
X23923Y6996D01*
X23792Y7051D01*
X23649Y7051D01*
X23517Y6997D01*
X23417Y6896D01*
X23362Y6764D01*
X23362Y6622D01*
X23393Y6545D01*
X23362Y6469D01*
X23362Y6327D01*
X23416Y6195D01*
X23517Y6094D01*
X23648Y6039D01*
X23791Y6039D01*
X23923Y6094D01*
X24024Y6194D01*
X24078Y6326D01*
X24078Y6468D01*
X24078Y3298D01*
X24022Y3355D01*
X23890Y3409D01*
X23748Y3409D01*
X23621Y3357D01*
X23496Y3409D01*
X23354Y3409D01*
X23222Y3355D01*
X23192Y3325D01*
X23193Y3417D01*
X23161Y3494D01*
X23192Y3570D01*
X23193Y3712D01*
X23138Y3844D01*
X23045Y3937D01*
X23138Y4029D01*
X23192Y4161D01*
X23193Y4303D01*
X23138Y4435D01*
X23037Y4536D01*
X22996Y4553D01*
X22996Y5878D01*
X22941Y6010D01*
X22897Y6054D01*
X22897Y6173D01*
X22843Y6305D01*
X22799Y6349D01*
X22799Y6468D01*
X22744Y6600D01*
X22700Y6644D01*
X22700Y6764D01*
X22646Y6895D01*
X22545Y6996D01*
X22414Y7051D01*
X22271Y7051D01*
X22208Y7025D01*
X22208Y11094D01*
X22154Y11226D01*
X22053Y11327D01*
X21922Y11382D01*
X21913Y11382D01*
X21913Y12177D01*
X21913Y12178D01*
X21913Y15425D01*
X21858Y15557D01*
X21844Y15571D01*
X21844Y18285D01*
X21785Y18428D01*
X21676Y18537D01*
X21534Y18596D01*
X21379Y18597D01*
X21237Y18538D01*
X21128Y18429D01*
X21068Y18286D01*
X21068Y18132D01*
X21127Y17989D01*
X21236Y17880D01*
X21379Y17821D01*
X21533Y17820D01*
X21676Y17879D01*
X21785Y17988D01*
X21844Y18131D01*
X21844Y18285D01*
X21844Y15571D01*
X21758Y15658D01*
X21626Y15713D01*
X21484Y15713D01*
X21352Y15658D01*
X21251Y15558D01*
X21196Y15426D01*
X21196Y15284D01*
X21251Y15152D01*
X21351Y15051D01*
X21483Y14996D01*
X21625Y14996D01*
X21757Y15051D01*
X21858Y15151D01*
X21913Y15283D01*
X21913Y15425D01*
X21913Y12178D01*
X21859Y12309D01*
X21758Y12410D01*
X21626Y12464D01*
X21484Y12465D01*
X21352Y12410D01*
X21251Y12309D01*
X21196Y12178D01*
X21196Y12035D01*
X21251Y11904D01*
X21351Y11803D01*
X21483Y11748D01*
X21626Y11748D01*
X21757Y11802D01*
X21858Y11903D01*
X21913Y12035D01*
X21913Y12177D01*
X21913Y11382D01*
X21779Y11382D01*
X21647Y11327D01*
X21546Y11227D01*
X21492Y11095D01*
X21492Y10953D01*
X21546Y10821D01*
X21647Y10720D01*
X21778Y10665D01*
X21921Y10665D01*
X22053Y10720D01*
X22154Y10820D01*
X22208Y10952D01*
X22208Y11094D01*
X22208Y7025D01*
X22139Y6997D01*
X22039Y6896D01*
X21984Y6764D01*
X21984Y6622D01*
X22038Y6490D01*
X22082Y6446D01*
X22082Y6327D01*
X22137Y6195D01*
X22181Y6151D01*
X22181Y6031D01*
X22235Y5900D01*
X22279Y5855D01*
X22279Y5736D01*
X22333Y5604D01*
X22434Y5503D01*
X22566Y5449D01*
X22708Y5449D01*
X22840Y5503D01*
X22941Y5604D01*
X22996Y5735D01*
X22996Y5878D01*
X22996Y4553D01*
X22906Y4591D01*
X22763Y4591D01*
X22632Y4536D01*
X22531Y4436D01*
X22476Y4304D01*
X22476Y4162D01*
X22530Y4030D01*
X22623Y3937D01*
X22531Y3845D01*
X22476Y3713D01*
X22476Y3571D01*
X22508Y3494D01*
X22476Y3418D01*
X22476Y3276D01*
X22530Y3144D01*
X22631Y3043D01*
X22763Y2988D01*
X22905Y2988D01*
X23037Y3043D01*
X23067Y3072D01*
X23066Y2980D01*
X23121Y2848D01*
X23222Y2748D01*
X23353Y2693D01*
X23496Y2693D01*
X23622Y2745D01*
X23747Y2693D01*
X23889Y2693D01*
X24021Y2747D01*
X24122Y2848D01*
X24177Y2980D01*
X24177Y3122D01*
X24177Y2223D01*
X24093Y2258D01*
X23938Y2258D01*
X23796Y2199D01*
X23687Y2090D01*
X23627Y1947D01*
X23627Y1793D01*
X23686Y1650D01*
X23795Y1541D01*
X23938Y1482D01*
X24092Y1482D01*
X24235Y1541D01*
X24344Y1650D01*
X24403Y1792D01*
X24403Y1947D01*
X24403Y346D01*
X24177Y346D01*
X24180Y348D01*
X24245Y505D01*
X24246Y675D01*
X24181Y832D01*
X24061Y952D01*
X23904Y1017D01*
X23734Y1018D01*
X23577Y953D01*
X23457Y833D01*
X23392Y676D01*
X23391Y506D01*
X23456Y349D01*
X23460Y346D01*
X22995Y346D01*
X22998Y348D01*
X23063Y505D01*
X23064Y675D01*
X22999Y832D01*
X22879Y952D01*
X22722Y1017D01*
X22552Y1018D01*
X22395Y953D01*
X22275Y833D01*
X22210Y676D01*
X22209Y506D01*
X22274Y349D01*
X22278Y346D01*
X21815Y346D01*
X21815Y3417D01*
X21783Y3495D01*
X21814Y3570D01*
X21814Y3712D01*
X21782Y3788D01*
X21814Y3865D01*
X21815Y4008D01*
X21783Y4085D01*
X21814Y4161D01*
X21815Y4303D01*
X21760Y4435D01*
X21659Y4536D01*
X21528Y4590D01*
X21519Y4590D01*
X21519Y5878D01*
X21488Y5955D01*
X21519Y6031D01*
X21519Y6173D01*
X21488Y6250D01*
X21519Y6326D01*
X21519Y6468D01*
X21488Y6545D01*
X21519Y6621D01*
X21519Y6764D01*
X21488Y6840D01*
X21519Y6917D01*
X21519Y7059D01*
X21488Y7136D01*
X21519Y7212D01*
X21519Y7354D01*
X21488Y7431D01*
X21519Y7507D01*
X21519Y7650D01*
X21488Y7726D01*
X21519Y7802D01*
X21519Y7945D01*
X21465Y8077D01*
X21364Y8177D01*
X21266Y8218D01*
X21364Y8259D01*
X21465Y8359D01*
X21519Y8491D01*
X21519Y8633D01*
X21465Y8765D01*
X21364Y8866D01*
X21233Y8921D01*
X21090Y8921D01*
X20958Y8866D01*
X20857Y8766D01*
X20803Y8634D01*
X20803Y8492D01*
X20857Y8360D01*
X20958Y8259D01*
X21056Y8218D01*
X20958Y8178D01*
X20857Y8077D01*
X20803Y7945D01*
X20803Y7803D01*
X20834Y7726D01*
X20803Y7650D01*
X20803Y7508D01*
X20834Y7431D01*
X20803Y7355D01*
X20803Y7212D01*
X20834Y7136D01*
X20803Y7060D01*
X20803Y6917D01*
X20834Y6840D01*
X20803Y6764D01*
X20803Y6622D01*
X20834Y6545D01*
X20803Y6469D01*
X20803Y6327D01*
X20834Y6250D01*
X20803Y6174D01*
X20803Y6031D01*
X20831Y5963D01*
X20746Y5998D01*
X20592Y5998D01*
X20565Y5987D01*
X20565Y10214D01*
X20506Y10357D01*
X20437Y10426D01*
X20437Y16311D01*
X20383Y16443D01*
X20282Y16544D01*
X20150Y16599D01*
X20008Y16599D01*
X19876Y16544D01*
X19775Y16444D01*
X19758Y16402D01*
X19713Y16402D01*
X19581Y16347D01*
X19480Y16247D01*
X19463Y16205D01*
X19417Y16205D01*
X19285Y16150D01*
X19184Y16050D01*
X19129Y15918D01*
X19129Y15872D01*
X19088Y15855D01*
X18987Y15755D01*
X18933Y15623D01*
X18933Y15481D01*
X18987Y15349D01*
X19088Y15248D01*
X19219Y15193D01*
X19362Y15193D01*
X19494Y15248D01*
X19594Y15348D01*
X19649Y15480D01*
X19649Y15526D01*
X19690Y15543D01*
X19791Y15643D01*
X19808Y15685D01*
X19854Y15685D01*
X19986Y15740D01*
X20087Y15840D01*
X20104Y15882D01*
X20150Y15882D01*
X20281Y15936D01*
X20382Y16037D01*
X20437Y16169D01*
X20437Y16311D01*
X20437Y10426D01*
X20397Y10466D01*
X20254Y10525D01*
X20100Y10526D01*
X19957Y10467D01*
X19848Y10358D01*
X19846Y10354D01*
X19846Y14244D01*
X19792Y14376D01*
X19691Y14477D01*
X19559Y14531D01*
X19551Y14531D01*
X19551Y14539D01*
X19496Y14671D01*
X19396Y14772D01*
X19264Y14827D01*
X19122Y14827D01*
X18990Y14772D01*
X18889Y14672D01*
X18834Y14540D01*
X18834Y14397D01*
X18889Y14266D01*
X18989Y14165D01*
X19121Y14110D01*
X19129Y14110D01*
X19129Y14102D01*
X19184Y13970D01*
X19285Y13870D01*
X19416Y13815D01*
X19559Y13815D01*
X19690Y13869D01*
X19791Y13970D01*
X19846Y14102D01*
X19846Y14244D01*
X19846Y10354D01*
X19836Y10328D01*
X19707Y10329D01*
X19564Y10270D01*
X19455Y10161D01*
X19396Y10018D01*
X19395Y9888D01*
X19367Y9877D01*
X19258Y9768D01*
X19205Y9639D01*
X19116Y9640D01*
X18973Y9581D01*
X18960Y9568D01*
X18960Y11685D01*
X18906Y11817D01*
X18805Y11918D01*
X18674Y11972D01*
X18531Y11972D01*
X18399Y11918D01*
X18298Y11817D01*
X18244Y11686D01*
X18244Y11543D01*
X18298Y11411D01*
X18399Y11311D01*
X18530Y11256D01*
X18673Y11256D01*
X18805Y11310D01*
X18905Y11411D01*
X18960Y11542D01*
X18960Y11685D01*
X18960Y9568D01*
X18864Y9472D01*
X18805Y9329D01*
X18804Y9175D01*
X18863Y9032D01*
X18972Y8923D01*
X19115Y8864D01*
X19269Y8863D01*
X19412Y8922D01*
X19521Y9031D01*
X19574Y9160D01*
X19634Y9159D01*
X19553Y9078D01*
X19494Y8936D01*
X19493Y8781D01*
X19552Y8639D01*
X19661Y8529D01*
X19804Y8470D01*
X19958Y8470D01*
X20101Y8529D01*
X20210Y8638D01*
X20269Y8781D01*
X20270Y8935D01*
X20211Y9078D01*
X20102Y9187D01*
X19959Y9246D01*
X19834Y9246D01*
X19915Y9327D01*
X19974Y9470D01*
X19975Y9600D01*
X20003Y9611D01*
X20112Y9720D01*
X20124Y9750D01*
X20253Y9749D01*
X20396Y9808D01*
X20505Y9917D01*
X20564Y10060D01*
X20565Y10214D01*
X20565Y5987D01*
X20449Y5939D01*
X20340Y5830D01*
X20281Y5688D01*
X20281Y5533D01*
X20340Y5391D01*
X20449Y5281D01*
X20591Y5222D01*
X20746Y5222D01*
X20888Y5281D01*
X20998Y5390D01*
X21032Y5473D01*
X21089Y5449D01*
X21232Y5449D01*
X21364Y5503D01*
X21465Y5604D01*
X21519Y5735D01*
X21519Y5878D01*
X21519Y4590D01*
X21385Y4591D01*
X21254Y4536D01*
X21153Y4435D01*
X21098Y4304D01*
X21098Y4161D01*
X21130Y4085D01*
X21098Y4008D01*
X21098Y3866D01*
X21129Y3790D01*
X21097Y3713D01*
X21097Y3571D01*
X21129Y3493D01*
X21098Y3418D01*
X21098Y3275D01*
X21152Y3144D01*
X21253Y3043D01*
X21385Y2988D01*
X21527Y2988D01*
X21659Y3042D01*
X21760Y3143D01*
X21814Y3275D01*
X21815Y3417D01*
X21815Y346D01*
X19777Y346D01*
X19777Y4407D01*
X19718Y4550D01*
X19609Y4659D01*
X19467Y4719D01*
X19313Y4719D01*
X19170Y4660D01*
X19061Y4551D01*
X19001Y4408D01*
X19001Y4254D01*
X19060Y4111D01*
X19169Y4002D01*
X19312Y3943D01*
X19466Y3943D01*
X19609Y4001D01*
X19718Y4111D01*
X19777Y4253D01*
X19777Y4407D01*
X19777Y346D01*
X19059Y346D01*
X19059Y2531D01*
X19004Y2663D01*
X18904Y2764D01*
X18793Y2810D01*
X18793Y5392D01*
X18734Y5534D01*
X18625Y5644D01*
X18483Y5703D01*
X18328Y5703D01*
X18186Y5644D01*
X18076Y5535D01*
X18017Y5392D01*
X18017Y5238D01*
X18076Y5095D01*
X18185Y4986D01*
X18328Y4927D01*
X18482Y4927D01*
X18625Y4986D01*
X18734Y5095D01*
X18793Y5237D01*
X18793Y5392D01*
X18793Y2810D01*
X18772Y2819D01*
X18629Y2819D01*
X18498Y2764D01*
X18397Y2664D01*
X18370Y2598D01*
X18370Y3811D01*
X18315Y3943D01*
X18215Y4044D01*
X18083Y4098D01*
X17940Y4098D01*
X17887Y4076D01*
X17878Y4085D01*
X17878Y13654D01*
X17823Y13785D01*
X17722Y13886D01*
X17591Y13941D01*
X17582Y13941D01*
X17582Y13949D01*
X17528Y14081D01*
X17427Y14181D01*
X17296Y14236D01*
X17153Y14236D01*
X17021Y14182D01*
X16920Y14081D01*
X16866Y13949D01*
X16866Y13807D01*
X16879Y13774D01*
X16852Y13774D01*
X16709Y13715D01*
X16600Y13606D01*
X16541Y13463D01*
X16541Y13309D01*
X16600Y13166D01*
X16709Y13057D01*
X16851Y12998D01*
X17006Y12998D01*
X17148Y13057D01*
X17257Y13166D01*
X17308Y13287D01*
X17316Y13279D01*
X17448Y13224D01*
X17590Y13224D01*
X17722Y13279D01*
X17823Y13379D01*
X17877Y13511D01*
X17878Y13654D01*
X17878Y4085D01*
X17821Y4142D01*
X17689Y4197D01*
X17582Y4197D01*
X17582Y11094D01*
X17528Y11226D01*
X17427Y11327D01*
X17296Y11382D01*
X17153Y11382D01*
X17076Y11350D01*
X17000Y11382D01*
X16858Y11382D01*
X16726Y11327D01*
X16682Y11283D01*
X16562Y11283D01*
X16431Y11229D01*
X16330Y11128D01*
X16313Y11087D01*
X16267Y11087D01*
X16144Y11036D01*
X16049Y11130D01*
X15918Y11185D01*
X15775Y11185D01*
X15643Y11131D01*
X15542Y11030D01*
X15488Y10898D01*
X15488Y10778D01*
X15444Y10735D01*
X15389Y10603D01*
X15389Y10460D01*
X15444Y10329D01*
X15544Y10228D01*
X15676Y10173D01*
X15819Y10173D01*
X15950Y10227D01*
X16051Y10328D01*
X16104Y10456D01*
X16135Y10425D01*
X16267Y10370D01*
X16409Y10370D01*
X16541Y10424D01*
X16642Y10525D01*
X16659Y10567D01*
X16704Y10567D01*
X16836Y10621D01*
X16880Y10665D01*
X17000Y10665D01*
X17076Y10697D01*
X17152Y10665D01*
X17295Y10665D01*
X17427Y10720D01*
X17528Y10820D01*
X17582Y10952D01*
X17582Y11094D01*
X17582Y4197D01*
X17547Y4197D01*
X17415Y4142D01*
X17314Y4042D01*
X17259Y3910D01*
X17259Y3768D01*
X17314Y3636D01*
X17414Y3535D01*
X17546Y3480D01*
X17689Y3480D01*
X17742Y3502D01*
X17808Y3437D01*
X17940Y3382D01*
X18082Y3382D01*
X18214Y3436D01*
X18315Y3537D01*
X18370Y3668D01*
X18370Y3811D01*
X18370Y2598D01*
X18342Y2532D01*
X18342Y2390D01*
X18396Y2258D01*
X18497Y2157D01*
X18629Y2102D01*
X18771Y2102D01*
X18903Y2157D01*
X19004Y2257D01*
X19059Y2389D01*
X19059Y2531D01*
X19059Y346D01*
X16303Y346D01*
X16303Y3909D01*
X16248Y4041D01*
X16148Y4142D01*
X16016Y4197D01*
X15874Y4197D01*
X15840Y4183D01*
X15840Y9722D01*
X15781Y9865D01*
X15672Y9974D01*
X15530Y10034D01*
X15375Y10034D01*
X15233Y9975D01*
X15124Y9866D01*
X15064Y9723D01*
X15064Y9569D01*
X15123Y9426D01*
X15232Y9317D01*
X15375Y9258D01*
X15529Y9258D01*
X15672Y9316D01*
X15781Y9425D01*
X15840Y9568D01*
X15840Y9722D01*
X15840Y4183D01*
X15811Y4171D01*
X15811Y4795D01*
X15756Y4927D01*
X15656Y5028D01*
X15524Y5083D01*
X15381Y5083D01*
X15250Y5028D01*
X15220Y4999D01*
X15220Y8831D01*
X15166Y8962D01*
X15065Y9063D01*
X14933Y9118D01*
X14791Y9118D01*
X14728Y9092D01*
X14728Y11291D01*
X14674Y11423D01*
X14630Y11467D01*
X14630Y13654D01*
X14598Y13730D01*
X14629Y13806D01*
X14630Y13949D01*
X14598Y14026D01*
X14629Y14102D01*
X14630Y14244D01*
X14598Y14321D01*
X14629Y14397D01*
X14630Y14539D01*
X14598Y14616D01*
X14629Y14692D01*
X14630Y14835D01*
X14598Y14911D01*
X14629Y14987D01*
X14630Y15130D01*
X14598Y15207D01*
X14629Y15283D01*
X14630Y15425D01*
X14575Y15557D01*
X14474Y15658D01*
X14343Y15712D01*
X14200Y15713D01*
X14069Y15658D01*
X13968Y15557D01*
X13913Y15426D01*
X13913Y15283D01*
X13945Y15207D01*
X13913Y15131D01*
X13913Y14988D01*
X13945Y14911D01*
X13913Y14835D01*
X13913Y14693D01*
X13945Y14616D01*
X13913Y14540D01*
X13913Y14397D01*
X13945Y14321D01*
X13913Y14245D01*
X13913Y14102D01*
X13945Y14025D01*
X13913Y13949D01*
X13913Y13807D01*
X13945Y13730D01*
X13913Y13654D01*
X13913Y13512D01*
X13967Y13380D01*
X14068Y13279D01*
X14200Y13224D01*
X14342Y13224D01*
X14474Y13279D01*
X14575Y13379D01*
X14629Y13511D01*
X14630Y13654D01*
X14630Y11467D01*
X14573Y11524D01*
X14441Y11579D01*
X14299Y11579D01*
X14167Y11524D01*
X14066Y11424D01*
X14011Y11292D01*
X14011Y11149D01*
X14066Y11018D01*
X14166Y10917D01*
X14298Y10862D01*
X14441Y10862D01*
X14572Y10916D01*
X14673Y11017D01*
X14728Y11149D01*
X14728Y11291D01*
X14728Y9092D01*
X14665Y9066D01*
X14540Y9118D01*
X14397Y9118D01*
X14265Y9064D01*
X14236Y9034D01*
X14236Y10307D01*
X14181Y10439D01*
X14081Y10540D01*
X13949Y10594D01*
X13807Y10594D01*
X13675Y10540D01*
X13574Y10439D01*
X13519Y10308D01*
X13519Y10165D01*
X13574Y10033D01*
X13674Y9933D01*
X13806Y9878D01*
X13948Y9878D01*
X14080Y9932D01*
X14181Y10033D01*
X14236Y10165D01*
X14236Y10307D01*
X14236Y9034D01*
X14234Y9032D01*
X14181Y9159D01*
X14081Y9260D01*
X13949Y9315D01*
X13807Y9315D01*
X13675Y9260D01*
X13574Y9160D01*
X13519Y9028D01*
X13519Y8886D01*
X13571Y8760D01*
X13519Y8634D01*
X13519Y8492D01*
X13571Y8366D01*
X13519Y8241D01*
X13519Y8098D01*
X13574Y7967D01*
X13674Y7866D01*
X13806Y7811D01*
X13948Y7811D01*
X14080Y7865D01*
X14181Y7966D01*
X14236Y8098D01*
X14236Y8240D01*
X14184Y8366D01*
X14234Y8487D01*
X14265Y8456D01*
X14397Y8402D01*
X14539Y8401D01*
X14665Y8453D01*
X14790Y8402D01*
X14933Y8401D01*
X15064Y8456D01*
X15165Y8557D01*
X15220Y8688D01*
X15220Y8831D01*
X15220Y4999D01*
X15149Y4928D01*
X15094Y4796D01*
X15094Y4653D01*
X15148Y4522D01*
X15249Y4421D01*
X15381Y4366D01*
X15523Y4366D01*
X15655Y4420D01*
X15756Y4521D01*
X15811Y4653D01*
X15811Y4795D01*
X15811Y4171D01*
X15742Y4142D01*
X15641Y4042D01*
X15586Y3910D01*
X15586Y3768D01*
X15641Y3636D01*
X15741Y3535D01*
X15873Y3480D01*
X16015Y3480D01*
X16147Y3535D01*
X16248Y3635D01*
X16303Y3767D01*
X16303Y3909D01*
X16303Y346D01*
X14925Y346D01*
X14925Y5287D01*
X14870Y5419D01*
X14770Y5520D01*
X14638Y5575D01*
X14496Y5575D01*
X14364Y5520D01*
X14263Y5420D01*
X14222Y5322D01*
X14196Y5348D01*
X14137Y5373D01*
X14137Y7256D01*
X14083Y7388D01*
X13982Y7488D01*
X13851Y7543D01*
X13708Y7543D01*
X13576Y7489D01*
X13545Y7457D01*
X13492Y7584D01*
X13448Y7629D01*
X13448Y9421D01*
X13394Y9553D01*
X13350Y9597D01*
X13350Y16114D01*
X13295Y16246D01*
X13195Y16347D01*
X13063Y16402D01*
X13018Y16402D01*
X13000Y16443D01*
X12900Y16544D01*
X12768Y16599D01*
X12737Y16599D01*
X12801Y16625D01*
X12902Y16726D01*
X12956Y16857D01*
X12956Y17000D01*
X12902Y17132D01*
X12801Y17233D01*
X12670Y17287D01*
X12527Y17287D01*
X12494Y17274D01*
X12494Y18187D01*
X12435Y18330D01*
X12326Y18439D01*
X12183Y18498D01*
X12029Y18498D01*
X11886Y18439D01*
X11777Y18330D01*
X11718Y18188D01*
X11718Y18033D01*
X11777Y17891D01*
X11886Y17781D01*
X12028Y17722D01*
X12183Y17722D01*
X12325Y17781D01*
X12435Y17890D01*
X12494Y18033D01*
X12494Y18187D01*
X12494Y17274D01*
X12395Y17233D01*
X12294Y17132D01*
X12240Y17001D01*
X12240Y16858D01*
X12294Y16726D01*
X12395Y16625D01*
X12526Y16571D01*
X12558Y16571D01*
X12494Y16544D01*
X12393Y16444D01*
X12375Y16401D01*
X12374Y16401D01*
X12232Y16402D01*
X12199Y16388D01*
X12199Y16711D01*
X12140Y16853D01*
X12031Y16962D01*
X11888Y17022D01*
X11734Y17022D01*
X11591Y16963D01*
X11482Y16854D01*
X11480Y16849D01*
X11480Y17099D01*
X11426Y17230D01*
X11325Y17331D01*
X11193Y17386D01*
X11051Y17386D01*
X10919Y17332D01*
X10818Y17231D01*
X10763Y17099D01*
X10763Y16957D01*
X10818Y16825D01*
X10918Y16724D01*
X11050Y16670D01*
X11193Y16669D01*
X11324Y16724D01*
X11425Y16825D01*
X11480Y16956D01*
X11480Y17099D01*
X11480Y16849D01*
X11423Y16711D01*
X11423Y16557D01*
X11481Y16414D01*
X11591Y16305D01*
X11733Y16246D01*
X11887Y16246D01*
X12030Y16305D01*
X12139Y16414D01*
X12199Y16556D01*
X12199Y16711D01*
X12199Y16388D01*
X12100Y16347D01*
X11999Y16246D01*
X11945Y16115D01*
X11944Y15995D01*
X11901Y15951D01*
X11846Y15820D01*
X11846Y15677D01*
X11900Y15545D01*
X12001Y15444D01*
X12133Y15390D01*
X12275Y15390D01*
X12407Y15444D01*
X12508Y15545D01*
X12563Y15676D01*
X12563Y15796D01*
X12606Y15840D01*
X12624Y15883D01*
X12625Y15882D01*
X12670Y15882D01*
X12688Y15841D01*
X12788Y15740D01*
X12920Y15685D01*
X13062Y15685D01*
X13194Y15740D01*
X13295Y15840D01*
X13350Y15972D01*
X13350Y16114D01*
X13350Y9597D01*
X13293Y9654D01*
X13162Y9709D01*
X13055Y9709D01*
X13055Y12768D01*
X13000Y12899D01*
X12900Y13000D01*
X12768Y13055D01*
X12625Y13055D01*
X12494Y13001D01*
X12393Y12900D01*
X12338Y12768D01*
X12338Y12626D01*
X12393Y12494D01*
X12493Y12393D01*
X12625Y12339D01*
X12767Y12338D01*
X12899Y12393D01*
X13000Y12494D01*
X13055Y12625D01*
X13055Y12768D01*
X13055Y9709D01*
X13019Y9709D01*
X12887Y9654D01*
X12787Y9554D01*
X12732Y9422D01*
X12732Y9279D01*
X12786Y9148D01*
X12887Y9047D01*
X13019Y8992D01*
X13161Y8992D01*
X13293Y9046D01*
X13394Y9147D01*
X13448Y9279D01*
X13448Y9421D01*
X13448Y7629D01*
X13392Y7685D01*
X13350Y7703D01*
X13350Y7748D01*
X13318Y7825D01*
X13350Y7901D01*
X13350Y8043D01*
X13296Y8175D01*
X13195Y8276D01*
X13063Y8331D01*
X12921Y8331D01*
X12789Y8276D01*
X12688Y8176D01*
X12633Y8044D01*
X12633Y7901D01*
X12665Y7825D01*
X12633Y7749D01*
X12633Y7703D01*
X12592Y7686D01*
X12491Y7585D01*
X12437Y7453D01*
X12437Y7311D01*
X12491Y7179D01*
X12592Y7078D01*
X12723Y7024D01*
X12866Y7023D01*
X12992Y7076D01*
X13117Y7024D01*
X13260Y7023D01*
X13391Y7078D01*
X13423Y7109D01*
X13475Y6982D01*
X13576Y6881D01*
X13708Y6827D01*
X13850Y6827D01*
X13982Y6881D01*
X14083Y6982D01*
X14137Y7113D01*
X14137Y7256D01*
X14137Y5373D01*
X14053Y5408D01*
X13899Y5408D01*
X13756Y5349D01*
X13647Y5240D01*
X13588Y5097D01*
X13588Y4943D01*
X13647Y4800D01*
X13756Y4691D01*
X13898Y4632D01*
X14053Y4632D01*
X14195Y4690D01*
X14305Y4800D01*
X14355Y4921D01*
X14363Y4913D01*
X14495Y4858D01*
X14637Y4858D01*
X14769Y4913D01*
X14870Y5013D01*
X14925Y5145D01*
X14925Y5287D01*
X14925Y346D01*
X12696Y346D01*
X12563Y345D01*
X12563Y6468D01*
X12508Y6600D01*
X12408Y6701D01*
X12276Y6756D01*
X12133Y6756D01*
X12002Y6701D01*
X11972Y6672D01*
X11972Y11685D01*
X11918Y11817D01*
X11817Y11918D01*
X11775Y11935D01*
X11775Y11936D01*
X11775Y12079D01*
X11721Y12210D01*
X11620Y12311D01*
X11488Y12366D01*
X11346Y12366D01*
X11214Y12312D01*
X11113Y12211D01*
X11059Y12079D01*
X11059Y11937D01*
X11113Y11805D01*
X11214Y11704D01*
X11256Y11687D01*
X11256Y11686D01*
X11255Y11543D01*
X11310Y11411D01*
X11411Y11311D01*
X11542Y11256D01*
X11685Y11256D01*
X11816Y11310D01*
X11917Y11411D01*
X11972Y11542D01*
X11972Y11685D01*
X11972Y6672D01*
X11901Y6601D01*
X11846Y6469D01*
X11846Y6327D01*
X11900Y6195D01*
X12001Y6094D01*
X12133Y6039D01*
X12275Y6039D01*
X12407Y6094D01*
X12508Y6194D01*
X12563Y6326D01*
X12563Y6468D01*
X12563Y345D01*
X11805Y345D01*
X11805Y5687D01*
X11775Y5759D01*
X11775Y6468D01*
X11721Y6600D01*
X11620Y6701D01*
X11488Y6756D01*
X11346Y6756D01*
X11344Y6755D01*
X11327Y6797D01*
X11226Y6898D01*
X11168Y6922D01*
X11228Y6982D01*
X11283Y7113D01*
X11283Y7256D01*
X11239Y7363D01*
X11345Y7319D01*
X11488Y7319D01*
X11620Y7373D01*
X11720Y7474D01*
X11775Y7605D01*
X11775Y7748D01*
X11775Y9717D01*
X11721Y9848D01*
X11620Y9949D01*
X11488Y10004D01*
X11356Y10004D01*
X11381Y10066D01*
X11382Y10209D01*
X11327Y10340D01*
X11283Y10385D01*
X11283Y10504D01*
X11229Y10636D01*
X11185Y10680D01*
X11185Y10799D01*
X11130Y10931D01*
X11030Y11032D01*
X10898Y11086D01*
X10767Y11087D01*
X10832Y11113D01*
X10933Y11214D01*
X10988Y11346D01*
X10988Y11488D01*
X10988Y12768D01*
X10933Y12899D01*
X10833Y13000D01*
X10701Y13055D01*
X10559Y13055D01*
X10427Y13001D01*
X10326Y12900D01*
X10271Y12768D01*
X10271Y12626D01*
X10326Y12494D01*
X10426Y12393D01*
X10558Y12339D01*
X10700Y12338D01*
X10832Y12393D01*
X10933Y12494D01*
X10988Y12625D01*
X10988Y12768D01*
X10988Y11488D01*
X10933Y11620D01*
X10833Y11721D01*
X10701Y11775D01*
X10559Y11776D01*
X10427Y11721D01*
X10326Y11620D01*
X10271Y11489D01*
X10271Y11346D01*
X10297Y11283D01*
X10165Y11283D01*
X10132Y11270D01*
X10132Y15332D01*
X10132Y16827D01*
X10073Y16970D01*
X9964Y17079D01*
X9821Y17138D01*
X9667Y17139D01*
X9524Y17080D01*
X9415Y16971D01*
X9356Y16828D01*
X9355Y16674D01*
X9414Y16531D01*
X9523Y16422D01*
X9666Y16363D01*
X9820Y16362D01*
X9963Y16421D01*
X10072Y16530D01*
X10131Y16673D01*
X10132Y16827D01*
X10132Y15332D01*
X10073Y15475D01*
X9964Y15584D01*
X9821Y15643D01*
X9667Y15644D01*
X9524Y15585D01*
X9415Y15476D01*
X9356Y15333D01*
X9355Y15179D01*
X9414Y15036D01*
X9523Y14927D01*
X9666Y14868D01*
X9820Y14867D01*
X9963Y14926D01*
X10072Y15035D01*
X10131Y15178D01*
X10132Y15332D01*
X10132Y11270D01*
X10033Y11229D01*
X9932Y11128D01*
X9878Y10997D01*
X9877Y10854D01*
X9932Y10722D01*
X10033Y10622D01*
X10164Y10567D01*
X10307Y10567D01*
X10438Y10621D01*
X10470Y10653D01*
X10522Y10526D01*
X10567Y10481D01*
X10566Y10362D01*
X10621Y10230D01*
X10665Y10186D01*
X10665Y10067D01*
X10719Y9935D01*
X10820Y9834D01*
X10952Y9779D01*
X11085Y9779D01*
X11059Y9717D01*
X11059Y9575D01*
X11113Y9443D01*
X11214Y9342D01*
X11345Y9287D01*
X11488Y9287D01*
X11620Y9342D01*
X11720Y9442D01*
X11775Y9574D01*
X11775Y9717D01*
X11775Y7748D01*
X11721Y7880D01*
X11677Y7924D01*
X11677Y8831D01*
X11622Y8962D01*
X11522Y9063D01*
X11390Y9118D01*
X11248Y9118D01*
X11116Y9064D01*
X11015Y8963D01*
X10960Y8831D01*
X10960Y8689D01*
X11015Y8557D01*
X11115Y8456D01*
X11247Y8402D01*
X11389Y8401D01*
X11521Y8456D01*
X11622Y8557D01*
X11677Y8688D01*
X11677Y8831D01*
X11677Y7924D01*
X11620Y7981D01*
X11488Y8035D01*
X11346Y8035D01*
X11214Y7981D01*
X11113Y7880D01*
X11059Y7749D01*
X11059Y7606D01*
X11103Y7499D01*
X10996Y7543D01*
X10854Y7543D01*
X10791Y7517D01*
X10791Y7945D01*
X10737Y8077D01*
X10636Y8177D01*
X10504Y8232D01*
X10362Y8232D01*
X10230Y8178D01*
X10129Y8077D01*
X10074Y7945D01*
X10074Y7803D01*
X10129Y7671D01*
X10229Y7570D01*
X10361Y7516D01*
X10504Y7516D01*
X10635Y7570D01*
X10736Y7671D01*
X10791Y7802D01*
X10791Y7945D01*
X10791Y7517D01*
X10722Y7489D01*
X10621Y7388D01*
X10567Y7257D01*
X10566Y7114D01*
X10621Y6982D01*
X10722Y6881D01*
X10779Y6857D01*
X10720Y6798D01*
X10665Y6666D01*
X10665Y6523D01*
X10719Y6392D01*
X10820Y6291D01*
X10952Y6236D01*
X11094Y6236D01*
X11096Y6237D01*
X11113Y6195D01*
X11214Y6094D01*
X11345Y6039D01*
X11488Y6039D01*
X11620Y6094D01*
X11720Y6194D01*
X11775Y6326D01*
X11775Y6468D01*
X11775Y5759D01*
X11746Y5830D01*
X11637Y5939D01*
X11494Y5998D01*
X11340Y5998D01*
X11197Y5939D01*
X11088Y5830D01*
X11029Y5688D01*
X11029Y5533D01*
X11088Y5391D01*
X11120Y5359D01*
X11002Y5408D01*
X10848Y5408D01*
X10705Y5349D01*
X10596Y5240D01*
X10537Y5097D01*
X10537Y4943D01*
X10596Y4800D01*
X10705Y4691D01*
X10847Y4632D01*
X11002Y4632D01*
X11144Y4690D01*
X11254Y4800D01*
X11313Y4942D01*
X11313Y5096D01*
X11254Y5239D01*
X11222Y5271D01*
X11339Y5222D01*
X11494Y5222D01*
X11636Y5281D01*
X11746Y5390D01*
X11805Y5533D01*
X11805Y5687D01*
X11805Y345D01*
X11580Y345D01*
X11622Y387D01*
X11677Y519D01*
X11677Y661D01*
X11622Y793D01*
X11522Y894D01*
X11390Y949D01*
X11248Y949D01*
X11116Y894D01*
X11057Y835D01*
X11057Y1857D01*
X10992Y2014D01*
X10872Y2134D01*
X10715Y2199D01*
X10545Y2200D01*
X10496Y2179D01*
X10496Y3713D01*
X10441Y3844D01*
X10341Y3945D01*
X10209Y4000D01*
X10066Y4000D01*
X9935Y3946D01*
X9834Y3845D01*
X9779Y3713D01*
X9779Y3571D01*
X9833Y3439D01*
X9934Y3338D01*
X10066Y3283D01*
X10208Y3283D01*
X10340Y3338D01*
X10441Y3438D01*
X10496Y3570D01*
X10496Y3713D01*
X10496Y2179D01*
X10388Y2135D01*
X10268Y2015D01*
X10203Y1858D01*
X10202Y1688D01*
X10267Y1531D01*
X10387Y1411D01*
X10544Y1346D01*
X10714Y1345D01*
X10871Y1410D01*
X10991Y1530D01*
X11056Y1687D01*
X11057Y1857D01*
X11057Y835D01*
X11015Y794D01*
X11011Y785D01*
X10992Y832D01*
X10872Y952D01*
X10715Y1017D01*
X10545Y1018D01*
X10388Y953D01*
X10268Y833D01*
X10203Y676D01*
X10202Y506D01*
X10267Y349D01*
X10271Y345D01*
X9345Y345D01*
X9345Y14939D01*
X9286Y15082D01*
X9177Y15191D01*
X9034Y15250D01*
X8880Y15251D01*
X8737Y15192D01*
X8628Y15083D01*
X8569Y14940D01*
X8568Y14786D01*
X8627Y14643D01*
X8736Y14534D01*
X8879Y14475D01*
X9033Y14474D01*
X9176Y14533D01*
X9285Y14642D01*
X9344Y14785D01*
X9345Y14939D01*
X9345Y345D01*
X8163Y345D01*
X8163Y13266D01*
X8104Y13408D01*
X7995Y13518D01*
X7853Y13577D01*
X7698Y13577D01*
X7556Y13518D01*
X7446Y13409D01*
X7387Y13266D01*
X7387Y13112D01*
X7446Y12969D01*
X7555Y12860D01*
X7698Y12801D01*
X7852Y12801D01*
X7995Y12860D01*
X8104Y12969D01*
X8163Y13111D01*
X8163Y13266D01*
X8163Y345D01*
X7740Y345D01*
X7743Y348D01*
X7808Y505D01*
X7809Y675D01*
X7744Y832D01*
X7647Y929D01*
X7699Y950D01*
X7809Y1059D01*
X7868Y1202D01*
X7868Y1356D01*
X7809Y1499D01*
X7753Y1555D01*
X7808Y1687D01*
X7809Y1857D01*
X7744Y2014D01*
X7624Y2134D01*
X7474Y2196D01*
X7474Y8837D01*
X7474Y8837D01*
X7474Y10018D01*
X7415Y10160D01*
X7306Y10270D01*
X7164Y10329D01*
X7009Y10329D01*
X6867Y10270D01*
X6757Y10161D01*
X6698Y10018D01*
X6698Y9864D01*
X6757Y9721D01*
X6866Y9612D01*
X7009Y9553D01*
X7163Y9553D01*
X7306Y9612D01*
X7415Y9721D01*
X7474Y9863D01*
X7474Y10018D01*
X7474Y8837D01*
X7415Y8979D01*
X7306Y9089D01*
X7164Y9148D01*
X7009Y9148D01*
X6867Y9089D01*
X6757Y8980D01*
X6698Y8837D01*
X6698Y8683D01*
X6757Y8540D01*
X6866Y8431D01*
X7009Y8372D01*
X7163Y8372D01*
X7306Y8431D01*
X7415Y8540D01*
X7474Y8682D01*
X7474Y8837D01*
X7474Y2196D01*
X7467Y2199D01*
X7297Y2200D01*
X7140Y2135D01*
X7041Y2036D01*
X7041Y2340D01*
X6982Y2483D01*
X6873Y2592D01*
X6730Y2651D01*
X6576Y2652D01*
X6433Y2593D01*
X6324Y2484D01*
X6265Y2341D01*
X6264Y2187D01*
X6323Y2044D01*
X6432Y1935D01*
X6575Y1876D01*
X6729Y1875D01*
X6872Y1934D01*
X6981Y2043D01*
X7040Y2186D01*
X7041Y2340D01*
X7041Y2036D01*
X7020Y2015D01*
X6955Y1858D01*
X6954Y1688D01*
X7019Y1531D01*
X7122Y1428D01*
X7092Y1357D01*
X7092Y1203D01*
X7151Y1060D01*
X7223Y987D01*
X7140Y953D01*
X7051Y864D01*
X7051Y1055D01*
X6996Y1187D01*
X6896Y1288D01*
X6764Y1342D01*
X6622Y1342D01*
X6490Y1288D01*
X6389Y1187D01*
X6334Y1056D01*
X6334Y913D01*
X6389Y781D01*
X6489Y681D01*
X6621Y626D01*
X6763Y626D01*
X6895Y680D01*
X6996Y781D01*
X7051Y913D01*
X7051Y1055D01*
X7051Y864D01*
X7020Y833D01*
X6955Y676D01*
X6954Y506D01*
X7019Y349D01*
X7023Y345D01*
X5758Y345D01*
X5759Y2952D01*
X5759Y4441D01*
X5773Y4406D01*
X5882Y4297D01*
X6024Y4238D01*
X6179Y4238D01*
X6321Y4297D01*
X6431Y4406D01*
X6490Y4548D01*
X6490Y4703D01*
X6431Y4845D01*
X6322Y4955D01*
X6179Y5014D01*
X6025Y5014D01*
X5882Y4955D01*
X5773Y4846D01*
X5744Y4775D01*
X5112Y4775D01*
X5112Y7459D01*
X5053Y7601D01*
X5014Y7641D01*
X5014Y12478D01*
X4955Y12621D01*
X4846Y12730D01*
X4703Y12789D01*
X4549Y12790D01*
X4406Y12731D01*
X4297Y12622D01*
X4238Y12479D01*
X4237Y12325D01*
X4296Y12182D01*
X4405Y12073D01*
X4548Y12014D01*
X4702Y12013D01*
X4845Y12072D01*
X4954Y12181D01*
X5013Y12324D01*
X5014Y12478D01*
X5014Y7641D01*
X4944Y7711D01*
X4802Y7770D01*
X4647Y7770D01*
X4504Y7711D01*
X4395Y7602D01*
X4336Y7459D01*
X4336Y7305D01*
X4395Y7162D01*
X4504Y7053D01*
X4646Y6994D01*
X4801Y6994D01*
X4943Y7053D01*
X5053Y7162D01*
X5112Y7304D01*
X5112Y7459D01*
X5112Y4775D01*
X3593Y4775D01*
X3593Y8727D01*
X4676Y9219D01*
X4676Y10961D01*
X3593Y11354D01*
X3593Y12354D01*
X1231Y12354D01*
X1231Y13082D01*
X1256Y13057D01*
X1398Y12998D01*
X1553Y12998D01*
X1695Y13057D01*
X1805Y13166D01*
X1864Y13308D01*
X1864Y13463D01*
X1805Y13605D01*
X1696Y13714D01*
X1553Y13774D01*
X1399Y13774D01*
X1256Y13715D01*
X1231Y13689D01*
X1231Y15555D01*
X1267Y15591D01*
X1335Y15757D01*
X1336Y15936D01*
X1267Y16101D01*
X1231Y16138D01*
X1231Y16933D01*
X1267Y16969D01*
X1335Y17135D01*
X1336Y17314D01*
X1271Y17470D01*
X7334Y17470D01*
X7334Y19340D01*
X9816Y19340D01*
X9815Y19183D01*
X9899Y18980D01*
X10054Y18826D01*
X10256Y18742D01*
X10474Y18741D01*
X10677Y18825D01*
X10831Y18980D01*
X10915Y19182D01*
X10916Y19340D01*
X20974Y19340D01*
X20973Y19183D01*
X21057Y18980D01*
X21212Y18826D01*
X21414Y18742D01*
X21632Y18741D01*
X21835Y18825D01*
X21989Y18980D01*
X22073Y19182D01*
X22074Y19340D01*
X24911Y19340D01*
X24910Y19183D01*
X24994Y18980D01*
X25149Y18826D01*
X25351Y18742D01*
X25569Y18741D01*
X25772Y18825D01*
X25926Y18980D01*
X26010Y19182D01*
X26011Y19340D01*
X27301Y19340D01*
X27253Y19291D01*
X27215Y19199D01*
X27215Y19100D01*
X27215Y18912D01*
X27277Y18850D01*
X27765Y18850D01*
X27765Y18857D01*
X27865Y18857D01*
X27865Y18850D01*
X27872Y18850D01*
X27872Y18750D01*
X27865Y18750D01*
X27865Y18262D01*
X27927Y18200D01*
X28214Y18200D01*
X28306Y18238D01*
X28376Y18308D01*
X28396Y18354D01*
X28418Y18332D01*
X28463Y18377D01*
X28497Y18277D01*
X28721Y18195D01*
X28959Y18205D01*
X29132Y18277D01*
X29166Y18377D01*
X28815Y18729D01*
X28809Y18723D01*
X28738Y18794D01*
X28744Y18800D01*
X28738Y18805D01*
X28809Y18876D01*
X28815Y18870D01*
X29166Y19222D01*
X29132Y19322D01*
X29085Y19340D01*
X29550Y19340D01*
X29475Y19308D01*
X29306Y19140D01*
X29302Y19129D01*
X29237Y19151D01*
X28885Y18800D01*
X29237Y18448D01*
X29302Y18470D01*
X29306Y18460D01*
X29474Y18291D01*
X29695Y18200D01*
X29933Y18199D01*
X30154Y18291D01*
X30315Y18451D01*
X30474Y18291D01*
X30695Y18200D01*
X30933Y18199D01*
X31154Y18291D01*
X31315Y18451D01*
X31474Y18291D01*
X31695Y18200D01*
X31933Y18199D01*
X32154Y18291D01*
X32315Y18451D01*
X32474Y18291D01*
X32695Y18200D01*
X32933Y18199D01*
X33154Y18291D01*
X33323Y18459D01*
X33414Y18680D01*
X33415Y18918D01*
X33323Y19139D01*
X33155Y19308D01*
X33079Y19340D01*
X36298Y19340D01*
X39025Y16613D01*
X39025Y13591D01*
X38999Y13616D01*
X38857Y13675D01*
X38702Y13675D01*
X38560Y13616D01*
X38450Y13507D01*
X38391Y13365D01*
X38391Y13210D01*
X38450Y13068D01*
X38559Y12959D01*
X38702Y12899D01*
X38856Y12899D01*
X38999Y12958D01*
X39025Y12984D01*
X39025Y3072D01*
X39025Y3072D01*
G37*
G54D23*
X39025Y3072D02*
X38970Y3018D01*
X38970Y11888D01*
X38911Y12030D01*
X38802Y12140D01*
X38660Y12199D01*
X38505Y12199D01*
X38363Y12140D01*
X38254Y12031D01*
X38194Y11888D01*
X38194Y11734D01*
X38253Y11591D01*
X38362Y11482D01*
X38505Y11423D01*
X38659Y11423D01*
X38802Y11482D01*
X38911Y11591D01*
X38970Y11733D01*
X38970Y11888D01*
X38970Y3018D01*
X38617Y2664D01*
X38617Y4120D01*
X38552Y4277D01*
X38432Y4397D01*
X38275Y4462D01*
X38105Y4463D01*
X37986Y4413D01*
X37986Y8344D01*
X37927Y8487D01*
X37818Y8596D01*
X37676Y8656D01*
X37521Y8656D01*
X37494Y8644D01*
X37494Y11789D01*
X37435Y11932D01*
X37396Y11972D01*
X37396Y14152D01*
X37337Y14294D01*
X37228Y14403D01*
X37085Y14463D01*
X37061Y14463D01*
X37061Y16053D01*
X36978Y16253D01*
X36825Y16407D01*
X36753Y16437D01*
X36824Y16466D01*
X36978Y16619D01*
X37061Y16820D01*
X37061Y17037D01*
X36978Y17237D01*
X36825Y17391D01*
X36624Y17474D01*
X36407Y17474D01*
X36207Y17392D01*
X36053Y17238D01*
X35970Y17038D01*
X35970Y16821D01*
X36053Y16620D01*
X36206Y16467D01*
X36278Y16437D01*
X36207Y16408D01*
X36053Y16254D01*
X35970Y16054D01*
X35970Y15837D01*
X36053Y15636D01*
X36182Y15506D01*
X36170Y15506D01*
X36078Y15468D01*
X36008Y15398D01*
X35970Y15306D01*
X35970Y15073D01*
X36032Y15011D01*
X36465Y15011D01*
X36465Y15019D01*
X36565Y15019D01*
X36565Y15011D01*
X36998Y15011D01*
X37061Y15073D01*
X37061Y15306D01*
X37023Y15398D01*
X36952Y15468D01*
X36861Y15506D01*
X36848Y15506D01*
X36978Y15635D01*
X37061Y15836D01*
X37061Y16053D01*
X37061Y14463D01*
X36962Y14463D01*
X37023Y14524D01*
X37061Y14616D01*
X37061Y14848D01*
X36998Y14911D01*
X36565Y14911D01*
X36565Y14478D01*
X36628Y14415D01*
X36761Y14415D01*
X36816Y14415D01*
X36788Y14404D01*
X36679Y14295D01*
X36620Y14152D01*
X36619Y13998D01*
X36678Y13855D01*
X36787Y13746D01*
X36930Y13687D01*
X37084Y13687D01*
X37227Y13746D01*
X37336Y13855D01*
X37395Y13997D01*
X37396Y14152D01*
X37396Y11972D01*
X37326Y12041D01*
X37183Y12100D01*
X37029Y12101D01*
X36886Y12042D01*
X36777Y11933D01*
X36718Y11790D01*
X36718Y11636D01*
X36777Y11493D01*
X36886Y11384D01*
X37028Y11325D01*
X37183Y11324D01*
X37325Y11383D01*
X37435Y11492D01*
X37494Y11635D01*
X37494Y11789D01*
X37494Y8644D01*
X37379Y8597D01*
X37269Y8488D01*
X37210Y8345D01*
X37210Y8191D01*
X37269Y8048D01*
X37378Y7939D01*
X37520Y7880D01*
X37675Y7880D01*
X37818Y7938D01*
X37927Y8048D01*
X37986Y8190D01*
X37986Y8344D01*
X37986Y4413D01*
X37948Y4398D01*
X37828Y4278D01*
X37763Y4121D01*
X37762Y3951D01*
X37827Y3794D01*
X37947Y3674D01*
X38104Y3609D01*
X38274Y3608D01*
X38431Y3673D01*
X38551Y3793D01*
X38616Y3950D01*
X38617Y4120D01*
X38617Y2664D01*
X37435Y1482D01*
X37435Y4120D01*
X37370Y4277D01*
X37250Y4397D01*
X37093Y4462D01*
X36923Y4463D01*
X36766Y4398D01*
X36646Y4278D01*
X36608Y4187D01*
X36608Y13955D01*
X36549Y14097D01*
X36465Y14181D01*
X36465Y14478D01*
X36465Y14911D01*
X36032Y14911D01*
X35970Y14848D01*
X35970Y14616D01*
X36008Y14524D01*
X36078Y14453D01*
X36170Y14415D01*
X36270Y14415D01*
X36403Y14415D01*
X36465Y14478D01*
X36465Y14181D01*
X36440Y14207D01*
X36298Y14266D01*
X36143Y14266D01*
X36001Y14207D01*
X35891Y14098D01*
X35832Y13955D01*
X35832Y13801D01*
X35891Y13658D01*
X36000Y13549D01*
X36143Y13490D01*
X36297Y13490D01*
X36440Y13549D01*
X36549Y13658D01*
X36608Y13800D01*
X36608Y13955D01*
X36608Y4187D01*
X36581Y4121D01*
X36580Y3951D01*
X36645Y3794D01*
X36765Y3674D01*
X36922Y3609D01*
X37092Y3608D01*
X37249Y3673D01*
X37369Y3793D01*
X37434Y3950D01*
X37435Y4120D01*
X37435Y1482D01*
X36903Y951D01*
X36903Y1455D01*
X36844Y1597D01*
X36735Y1707D01*
X36593Y1766D01*
X36438Y1766D01*
X36296Y1707D01*
X36187Y1598D01*
X36127Y1455D01*
X36127Y1301D01*
X36186Y1158D01*
X36295Y1049D01*
X36438Y990D01*
X36592Y990D01*
X36735Y1049D01*
X36844Y1158D01*
X36903Y1300D01*
X36903Y1455D01*
X36903Y951D01*
X36298Y346D01*
X36086Y346D01*
X36086Y11587D01*
X36032Y11718D01*
X35931Y11819D01*
X35800Y11874D01*
X35693Y11874D01*
X35693Y12472D01*
X35638Y12604D01*
X35537Y12705D01*
X35406Y12760D01*
X35263Y12760D01*
X35132Y12705D01*
X35031Y12605D01*
X35004Y12539D01*
X35004Y16508D01*
X35004Y18083D01*
X34949Y18214D01*
X34848Y18315D01*
X34717Y18370D01*
X34574Y18370D01*
X34443Y18316D01*
X34342Y18215D01*
X34287Y18083D01*
X34287Y17941D01*
X34341Y17809D01*
X34442Y17708D01*
X34574Y17654D01*
X34716Y17653D01*
X34848Y17708D01*
X34949Y17809D01*
X35003Y17940D01*
X35004Y18083D01*
X35004Y16508D01*
X34949Y16640D01*
X34848Y16740D01*
X34717Y16795D01*
X34574Y16795D01*
X34443Y16741D01*
X34342Y16640D01*
X34287Y16508D01*
X34287Y16366D01*
X34341Y16234D01*
X34442Y16133D01*
X34574Y16079D01*
X34716Y16079D01*
X34848Y16133D01*
X34949Y16234D01*
X35003Y16365D01*
X35004Y16508D01*
X35004Y12539D01*
X34976Y12473D01*
X34976Y12331D01*
X35030Y12199D01*
X35131Y12098D01*
X35263Y12043D01*
X35405Y12043D01*
X35537Y12098D01*
X35638Y12198D01*
X35692Y12330D01*
X35693Y12472D01*
X35693Y11874D01*
X35657Y11874D01*
X35531Y11822D01*
X35406Y11874D01*
X35263Y11874D01*
X35132Y11820D01*
X35031Y11719D01*
X34976Y11587D01*
X34976Y11445D01*
X35030Y11313D01*
X35131Y11212D01*
X35263Y11157D01*
X35405Y11157D01*
X35531Y11209D01*
X35656Y11157D01*
X35799Y11157D01*
X35931Y11212D01*
X36031Y11312D01*
X36086Y11444D01*
X36086Y11587D01*
X36086Y346D01*
X35496Y346D01*
X35496Y7945D01*
X35441Y8077D01*
X35341Y8177D01*
X35209Y8232D01*
X35066Y8232D01*
X34935Y8178D01*
X34834Y8077D01*
X34779Y7945D01*
X34779Y7803D01*
X34833Y7671D01*
X34765Y7671D01*
X34623Y7612D01*
X34513Y7503D01*
X34454Y7361D01*
X34454Y7207D01*
X34513Y7064D01*
X34622Y6955D01*
X34765Y6895D01*
X34919Y6895D01*
X35062Y6954D01*
X35171Y7063D01*
X35230Y7206D01*
X35230Y7360D01*
X35171Y7503D01*
X35158Y7516D01*
X35208Y7516D01*
X35340Y7570D01*
X35441Y7671D01*
X35496Y7802D01*
X35496Y7945D01*
X35496Y346D01*
X34408Y346D01*
X34408Y10640D01*
X34324Y10843D01*
X34169Y10997D01*
X33967Y11081D01*
X33852Y11082D01*
X33852Y13364D01*
X33793Y13507D01*
X33684Y13616D01*
X33542Y13675D01*
X33387Y13675D01*
X33245Y13616D01*
X33135Y13507D01*
X33076Y13365D01*
X33076Y13210D01*
X33135Y13068D01*
X33244Y12959D01*
X33387Y12899D01*
X33541Y12899D01*
X33684Y12958D01*
X33793Y13067D01*
X33852Y13210D01*
X33852Y13364D01*
X33852Y11082D01*
X33749Y11082D01*
X33546Y10998D01*
X33429Y10881D01*
X33429Y12669D01*
X33374Y12801D01*
X33274Y12902D01*
X33142Y12957D01*
X32999Y12957D01*
X32868Y12902D01*
X32767Y12802D01*
X32712Y12670D01*
X32712Y12527D01*
X32767Y12396D01*
X32867Y12295D01*
X32999Y12240D01*
X33141Y12240D01*
X33273Y12294D01*
X33374Y12395D01*
X33429Y12527D01*
X33429Y12669D01*
X33429Y10881D01*
X33392Y10843D01*
X33308Y10641D01*
X33307Y10423D01*
X33391Y10220D01*
X33546Y10066D01*
X33748Y9982D01*
X33966Y9981D01*
X34169Y10065D01*
X34323Y10220D01*
X34407Y10422D01*
X34408Y10640D01*
X34408Y346D01*
X34019Y346D01*
X34019Y9323D01*
X33965Y9455D01*
X33864Y9555D01*
X33733Y9610D01*
X33590Y9610D01*
X33458Y9556D01*
X33357Y9455D01*
X33303Y9323D01*
X33303Y9181D01*
X33357Y9049D01*
X33458Y8948D01*
X33589Y8894D01*
X33732Y8894D01*
X33864Y8948D01*
X33965Y9049D01*
X34019Y9180D01*
X34019Y9323D01*
X34019Y346D01*
X33724Y346D01*
X33724Y4106D01*
X33724Y5091D01*
X33670Y5222D01*
X33569Y5323D01*
X33437Y5378D01*
X33330Y5378D01*
X33330Y8043D01*
X33276Y8175D01*
X33175Y8276D01*
X33044Y8331D01*
X32901Y8331D01*
X32769Y8276D01*
X32677Y8184D01*
X32585Y8276D01*
X32453Y8331D01*
X32311Y8331D01*
X32278Y8317D01*
X32278Y10805D01*
X32219Y10948D01*
X32110Y11057D01*
X31967Y11116D01*
X31813Y11117D01*
X31687Y11065D01*
X31687Y14644D01*
X31628Y14786D01*
X31519Y14896D01*
X31376Y14955D01*
X31222Y14955D01*
X31079Y14896D01*
X30970Y14787D01*
X30911Y14644D01*
X30911Y14490D01*
X30970Y14347D01*
X31079Y14238D01*
X31221Y14179D01*
X31376Y14179D01*
X31518Y14238D01*
X31628Y14347D01*
X31687Y14489D01*
X31687Y14644D01*
X31687Y11065D01*
X31670Y11058D01*
X31561Y10949D01*
X31502Y10806D01*
X31501Y10652D01*
X31560Y10509D01*
X31669Y10400D01*
X31812Y10341D01*
X31966Y10340D01*
X32109Y10399D01*
X32218Y10508D01*
X32277Y10651D01*
X32278Y10805D01*
X32278Y8317D01*
X32179Y8276D01*
X32078Y8176D01*
X32023Y8044D01*
X32023Y7901D01*
X32078Y7770D01*
X32178Y7669D01*
X32310Y7614D01*
X32452Y7614D01*
X32584Y7668D01*
X32677Y7761D01*
X32769Y7669D01*
X32900Y7614D01*
X33043Y7614D01*
X33175Y7668D01*
X33276Y7769D01*
X33330Y7901D01*
X33330Y8043D01*
X33330Y5378D01*
X33295Y5378D01*
X33163Y5323D01*
X33062Y5223D01*
X33008Y5091D01*
X33007Y4949D01*
X33062Y4817D01*
X33163Y4716D01*
X33294Y4661D01*
X33437Y4661D01*
X33568Y4716D01*
X33669Y4816D01*
X33724Y4948D01*
X33724Y5091D01*
X33724Y4106D01*
X33670Y4238D01*
X33569Y4339D01*
X33437Y4394D01*
X33295Y4394D01*
X33163Y4339D01*
X33062Y4239D01*
X33008Y4107D01*
X33007Y3964D01*
X33062Y3833D01*
X33163Y3732D01*
X33294Y3677D01*
X33437Y3677D01*
X33568Y3731D01*
X33669Y3832D01*
X33724Y3964D01*
X33724Y4106D01*
X33724Y346D01*
X31884Y346D01*
X31884Y6179D01*
X31825Y6321D01*
X31716Y6431D01*
X31573Y6490D01*
X31419Y6490D01*
X31276Y6431D01*
X31167Y6322D01*
X31108Y6180D01*
X31108Y6025D01*
X31167Y5882D01*
X31276Y5773D01*
X31418Y5714D01*
X31572Y5714D01*
X31715Y5773D01*
X31824Y5882D01*
X31884Y6024D01*
X31884Y6179D01*
X31884Y346D01*
X30998Y346D01*
X30998Y13758D01*
X30939Y13901D01*
X30830Y14010D01*
X30687Y14069D01*
X30533Y14069D01*
X30390Y14010D01*
X30281Y13901D01*
X30222Y13759D01*
X30222Y13604D01*
X30281Y13462D01*
X30390Y13352D01*
X30532Y13293D01*
X30687Y13293D01*
X30829Y13352D01*
X30939Y13461D01*
X30998Y13603D01*
X30998Y13758D01*
X30998Y346D01*
X30801Y346D01*
X30801Y6474D01*
X30742Y6617D01*
X30633Y6726D01*
X30490Y6785D01*
X30336Y6786D01*
X30193Y6727D01*
X30084Y6618D01*
X30025Y6475D01*
X30024Y6321D01*
X30083Y6178D01*
X30192Y6069D01*
X30335Y6010D01*
X30489Y6009D01*
X30632Y6068D01*
X30741Y6177D01*
X30800Y6320D01*
X30801Y6474D01*
X30801Y346D01*
X29166Y346D01*
X28833Y346D01*
X28833Y15923D01*
X28774Y16066D01*
X28665Y16175D01*
X28522Y16234D01*
X28368Y16234D01*
X28225Y16175D01*
X28116Y16066D01*
X28057Y15924D01*
X28056Y15770D01*
X28115Y15627D01*
X28224Y15518D01*
X28367Y15458D01*
X28521Y15458D01*
X28664Y15517D01*
X28773Y15626D01*
X28832Y15769D01*
X28833Y15923D01*
X28833Y346D01*
X28242Y346D01*
X28242Y13856D01*
X28183Y13999D01*
X28074Y14108D01*
X27931Y14167D01*
X27777Y14167D01*
X27765Y14162D01*
X27765Y18262D01*
X27765Y18750D01*
X27277Y18750D01*
X27215Y18687D01*
X27215Y18499D01*
X27215Y18400D01*
X27253Y18308D01*
X27323Y18238D01*
X27415Y18200D01*
X27702Y18200D01*
X27765Y18262D01*
X27765Y14162D01*
X27686Y14130D01*
X27666Y14179D01*
X27565Y14280D01*
X27433Y14334D01*
X27291Y14335D01*
X27159Y14280D01*
X27058Y14179D01*
X27004Y14048D01*
X27003Y13905D01*
X27058Y13774D01*
X26990Y13774D01*
X26847Y13715D01*
X26771Y13639D01*
X26766Y13645D01*
X26766Y18581D01*
X26707Y18723D01*
X26598Y18833D01*
X26455Y18892D01*
X26301Y18892D01*
X26158Y18833D01*
X26049Y18724D01*
X25990Y18581D01*
X25989Y18427D01*
X26048Y18284D01*
X26157Y18175D01*
X26300Y18116D01*
X26454Y18116D01*
X26597Y18175D01*
X26706Y18284D01*
X26765Y18426D01*
X26766Y18581D01*
X26766Y13645D01*
X26696Y13714D01*
X26553Y13774D01*
X26399Y13774D01*
X26273Y13722D01*
X26273Y14644D01*
X26215Y14786D01*
X26105Y14896D01*
X25963Y14955D01*
X25809Y14955D01*
X25666Y14896D01*
X25557Y14787D01*
X25497Y14644D01*
X25497Y14490D01*
X25556Y14347D01*
X25665Y14238D01*
X25808Y14179D01*
X25962Y14179D01*
X26105Y14238D01*
X26214Y14347D01*
X26273Y14489D01*
X26273Y14644D01*
X26273Y13722D01*
X26256Y13715D01*
X26181Y13639D01*
X26105Y13714D01*
X25963Y13774D01*
X25809Y13774D01*
X25666Y13715D01*
X25590Y13639D01*
X25515Y13714D01*
X25372Y13774D01*
X25218Y13774D01*
X25075Y13715D01*
X24966Y13606D01*
X24907Y13463D01*
X24907Y13309D01*
X24966Y13166D01*
X25075Y13057D01*
X25217Y12998D01*
X25372Y12998D01*
X25514Y13057D01*
X25590Y13132D01*
X25665Y13057D01*
X25808Y12998D01*
X25962Y12998D01*
X26105Y13057D01*
X26181Y13132D01*
X26256Y13057D01*
X26398Y12998D01*
X26553Y12998D01*
X26695Y13057D01*
X26771Y13132D01*
X26846Y13057D01*
X26989Y12998D01*
X27143Y12998D01*
X27286Y13057D01*
X27395Y13166D01*
X27454Y13308D01*
X27455Y13463D01*
X27396Y13605D01*
X27383Y13618D01*
X27433Y13618D01*
X27491Y13642D01*
X27525Y13560D01*
X27634Y13451D01*
X27776Y13391D01*
X27931Y13391D01*
X28073Y13450D01*
X28183Y13559D01*
X28242Y13702D01*
X28242Y13856D01*
X28242Y346D01*
X28015Y346D01*
X28015Y12571D01*
X27961Y12703D01*
X27860Y12803D01*
X27729Y12858D01*
X27586Y12858D01*
X27454Y12804D01*
X27354Y12703D01*
X27299Y12571D01*
X27299Y12429D01*
X27353Y12297D01*
X27454Y12196D01*
X27585Y12142D01*
X27728Y12142D01*
X27860Y12196D01*
X27961Y12297D01*
X28015Y12428D01*
X28015Y12571D01*
X28015Y346D01*
X27258Y346D01*
X27258Y11002D01*
X27199Y11145D01*
X27090Y11254D01*
X26947Y11313D01*
X26793Y11314D01*
X26650Y11255D01*
X26541Y11146D01*
X26482Y11003D01*
X26482Y10938D01*
X26470Y10934D01*
X26369Y10833D01*
X26315Y10701D01*
X26314Y10559D01*
X26369Y10427D01*
X26470Y10326D01*
X26601Y10272D01*
X26744Y10271D01*
X26875Y10326D01*
X26976Y10427D01*
X27031Y10558D01*
X27031Y10572D01*
X27089Y10596D01*
X27198Y10705D01*
X27257Y10848D01*
X27258Y11002D01*
X27258Y346D01*
X26036Y346D01*
X26036Y10620D01*
X25968Y10784D01*
X25842Y10910D01*
X25678Y10978D01*
X25500Y10979D01*
X25336Y10911D01*
X25210Y10785D01*
X25142Y10621D01*
X25141Y10443D01*
X25209Y10279D01*
X25335Y10153D01*
X25499Y10085D01*
X25677Y10084D01*
X25841Y10152D01*
X25967Y10278D01*
X26035Y10442D01*
X26036Y10620D01*
X26036Y346D01*
X24866Y346D01*
X24866Y6468D01*
X24834Y6545D01*
X24866Y6621D01*
X24866Y6764D01*
X24811Y6895D01*
X24719Y6988D01*
X24811Y7080D01*
X24866Y7212D01*
X24866Y7354D01*
X24834Y7431D01*
X24866Y7507D01*
X24866Y7650D01*
X24834Y7726D01*
X24866Y7802D01*
X24866Y7945D01*
X24811Y8077D01*
X24767Y8121D01*
X24767Y9520D01*
X24713Y9651D01*
X24612Y9752D01*
X24481Y9807D01*
X24403Y9807D01*
X24403Y15825D01*
X24344Y15967D01*
X24305Y16007D01*
X24305Y16809D01*
X24246Y16952D01*
X24137Y17061D01*
X24085Y17083D01*
X24122Y17120D01*
X24177Y17251D01*
X24177Y17394D01*
X24122Y17525D01*
X24022Y17626D01*
X23890Y17681D01*
X23748Y17681D01*
X23616Y17627D01*
X23515Y17526D01*
X23460Y17394D01*
X23460Y17386D01*
X23452Y17386D01*
X23321Y17331D01*
X23220Y17231D01*
X23165Y17099D01*
X23165Y16957D01*
X23219Y16825D01*
X23320Y16724D01*
X23452Y16669D01*
X23529Y16669D01*
X23529Y16655D01*
X23588Y16513D01*
X23697Y16403D01*
X23839Y16344D01*
X23994Y16344D01*
X24136Y16403D01*
X24246Y16512D01*
X24305Y16655D01*
X24305Y16809D01*
X24305Y16007D01*
X24235Y16077D01*
X24093Y16136D01*
X23938Y16136D01*
X23796Y16077D01*
X23687Y15968D01*
X23627Y15825D01*
X23627Y15671D01*
X23686Y15528D01*
X23795Y15419D01*
X23938Y15360D01*
X24092Y15360D01*
X24235Y15419D01*
X24344Y15528D01*
X24403Y15670D01*
X24403Y15825D01*
X24403Y9807D01*
X24338Y9807D01*
X24206Y9752D01*
X24105Y9652D01*
X24051Y9520D01*
X24051Y9400D01*
X24010Y9359D01*
X24010Y14939D01*
X23951Y15082D01*
X23842Y15191D01*
X23699Y15250D01*
X23676Y15250D01*
X23630Y15360D01*
X23530Y15461D01*
X23398Y15516D01*
X23255Y15516D01*
X23124Y15461D01*
X23023Y15361D01*
X22968Y15229D01*
X22968Y15086D01*
X23022Y14955D01*
X23115Y14862D01*
X23023Y14770D01*
X22968Y14638D01*
X22968Y14496D01*
X23022Y14364D01*
X23123Y14263D01*
X23255Y14209D01*
X23397Y14209D01*
X23529Y14263D01*
X23630Y14364D01*
X23676Y14474D01*
X23698Y14474D01*
X23841Y14533D01*
X23950Y14642D01*
X24010Y14785D01*
X24010Y14939D01*
X24010Y9359D01*
X24007Y9357D01*
X23952Y9225D01*
X23952Y9082D01*
X24007Y8951D01*
X24107Y8850D01*
X24239Y8795D01*
X24382Y8795D01*
X24513Y8850D01*
X24614Y8950D01*
X24669Y9082D01*
X24669Y9202D01*
X24713Y9245D01*
X24767Y9377D01*
X24767Y9520D01*
X24767Y8121D01*
X24711Y8177D01*
X24579Y8232D01*
X24437Y8232D01*
X24305Y8178D01*
X24204Y8077D01*
X24149Y7945D01*
X24149Y7803D01*
X24181Y7726D01*
X24149Y7650D01*
X24149Y7508D01*
X24181Y7431D01*
X24149Y7355D01*
X24149Y7212D01*
X24204Y7081D01*
X24296Y6988D01*
X24204Y6896D01*
X24149Y6764D01*
X24149Y6622D01*
X24181Y6545D01*
X24149Y6469D01*
X24149Y6327D01*
X24204Y6195D01*
X24304Y6094D01*
X24436Y6039D01*
X24578Y6039D01*
X24710Y6094D01*
X24811Y6194D01*
X24866Y6326D01*
X24866Y6468D01*
X24866Y346D01*
X24403Y346D01*
X24403Y1947D01*
X24344Y2089D01*
X24235Y2199D01*
X24177Y2223D01*
X24177Y3122D01*
X24122Y3254D01*
X24078Y3298D01*
X24078Y6468D01*
X24047Y6545D01*
X24078Y6621D01*
X24078Y6764D01*
X24078Y8634D01*
X24024Y8766D01*
X23923Y8866D01*
X23882Y8884D01*
X23882Y13063D01*
X23827Y13195D01*
X23726Y13296D01*
X23595Y13350D01*
X23452Y13350D01*
X23321Y13296D01*
X23220Y13195D01*
X23165Y13064D01*
X23165Y12957D01*
X23058Y12957D01*
X22927Y12902D01*
X22826Y12802D01*
X22799Y12737D01*
X22799Y14835D01*
X22744Y14966D01*
X22644Y15067D01*
X22512Y15122D01*
X22370Y15122D01*
X22238Y15068D01*
X22137Y14967D01*
X22082Y14835D01*
X22082Y14693D01*
X22137Y14561D01*
X22237Y14460D01*
X22369Y14405D01*
X22511Y14405D01*
X22643Y14460D01*
X22744Y14560D01*
X22799Y14692D01*
X22799Y14835D01*
X22799Y12737D01*
X22771Y12670D01*
X22771Y12527D01*
X22823Y12402D01*
X22771Y12277D01*
X22771Y12134D01*
X22825Y12002D01*
X22926Y11902D01*
X23057Y11847D01*
X23200Y11847D01*
X23332Y11901D01*
X23433Y12002D01*
X23487Y12133D01*
X23487Y12276D01*
X23436Y12401D01*
X23488Y12527D01*
X23488Y12634D01*
X23594Y12634D01*
X23726Y12688D01*
X23827Y12789D01*
X23881Y12920D01*
X23882Y13063D01*
X23882Y8884D01*
X23792Y8921D01*
X23649Y8921D01*
X23517Y8867D01*
X23417Y8766D01*
X23362Y8634D01*
X23362Y8492D01*
X23416Y8360D01*
X23517Y8259D01*
X23648Y8205D01*
X23791Y8205D01*
X23923Y8259D01*
X24024Y8360D01*
X24078Y8491D01*
X24078Y8634D01*
X24078Y6764D01*
X24024Y6895D01*
X23923Y6996D01*
X23792Y7051D01*
X23649Y7051D01*
X23517Y6997D01*
X23417Y6896D01*
X23362Y6764D01*
X23362Y6622D01*
X23393Y6545D01*
X23362Y6469D01*
X23362Y6327D01*
X23416Y6195D01*
X23517Y6094D01*
X23648Y6039D01*
X23791Y6039D01*
X23923Y6094D01*
X24024Y6194D01*
X24078Y6326D01*
X24078Y6468D01*
X24078Y3298D01*
X24022Y3355D01*
X23890Y3409D01*
X23748Y3409D01*
X23621Y3357D01*
X23496Y3409D01*
X23354Y3409D01*
X23222Y3355D01*
X23192Y3325D01*
X23193Y3417D01*
X23161Y3494D01*
X23192Y3570D01*
X23193Y3712D01*
X23138Y3844D01*
X23045Y3937D01*
X23138Y4029D01*
X23192Y4161D01*
X23193Y4303D01*
X23138Y4435D01*
X23037Y4536D01*
X22996Y4553D01*
X22996Y5878D01*
X22941Y6010D01*
X22897Y6054D01*
X22897Y6173D01*
X22843Y6305D01*
X22799Y6349D01*
X22799Y6468D01*
X22744Y6600D01*
X22700Y6644D01*
X22700Y6764D01*
X22646Y6895D01*
X22545Y6996D01*
X22414Y7051D01*
X22271Y7051D01*
X22208Y7025D01*
X22208Y11094D01*
X22154Y11226D01*
X22053Y11327D01*
X21922Y11382D01*
X21913Y11382D01*
X21913Y12177D01*
X21913Y12178D01*
X21913Y15425D01*
X21858Y15557D01*
X21844Y15571D01*
X21844Y18285D01*
X21785Y18428D01*
X21676Y18537D01*
X21534Y18596D01*
X21379Y18597D01*
X21237Y18538D01*
X21128Y18429D01*
X21068Y18286D01*
X21068Y18132D01*
X21127Y17989D01*
X21236Y17880D01*
X21379Y17821D01*
X21533Y17820D01*
X21676Y17879D01*
X21785Y17988D01*
X21844Y18131D01*
X21844Y18285D01*
X21844Y15571D01*
X21758Y15658D01*
X21626Y15713D01*
X21484Y15713D01*
X21352Y15658D01*
X21251Y15558D01*
X21196Y15426D01*
X21196Y15284D01*
X21251Y15152D01*
X21351Y15051D01*
X21483Y14996D01*
X21625Y14996D01*
X21757Y15051D01*
X21858Y15151D01*
X21913Y15283D01*
X21913Y15425D01*
X21913Y12178D01*
X21859Y12309D01*
X21758Y12410D01*
X21626Y12464D01*
X21484Y12465D01*
X21352Y12410D01*
X21251Y12309D01*
X21196Y12178D01*
X21196Y12035D01*
X21251Y11904D01*
X21351Y11803D01*
X21483Y11748D01*
X21626Y11748D01*
X21757Y11802D01*
X21858Y11903D01*
X21913Y12035D01*
X21913Y12177D01*
X21913Y11382D01*
X21779Y11382D01*
X21647Y11327D01*
X21546Y11227D01*
X21492Y11095D01*
X21492Y10953D01*
X21546Y10821D01*
X21647Y10720D01*
X21778Y10665D01*
X21921Y10665D01*
X22053Y10720D01*
X22154Y10820D01*
X22208Y10952D01*
X22208Y11094D01*
X22208Y7025D01*
X22139Y6997D01*
X22039Y6896D01*
X21984Y6764D01*
X21984Y6622D01*
X22038Y6490D01*
X22082Y6446D01*
X22082Y6327D01*
X22137Y6195D01*
X22181Y6151D01*
X22181Y6031D01*
X22235Y5900D01*
X22279Y5855D01*
X22279Y5736D01*
X22333Y5604D01*
X22434Y5503D01*
X22566Y5449D01*
X22708Y5449D01*
X22840Y5503D01*
X22941Y5604D01*
X22996Y5735D01*
X22996Y5878D01*
X22996Y4553D01*
X22906Y4591D01*
X22763Y4591D01*
X22632Y4536D01*
X22531Y4436D01*
X22476Y4304D01*
X22476Y4162D01*
X22530Y4030D01*
X22623Y3937D01*
X22531Y3845D01*
X22476Y3713D01*
X22476Y3571D01*
X22508Y3494D01*
X22476Y3418D01*
X22476Y3276D01*
X22530Y3144D01*
X22631Y3043D01*
X22763Y2988D01*
X22905Y2988D01*
X23037Y3043D01*
X23067Y3072D01*
X23066Y2980D01*
X23121Y2848D01*
X23222Y2748D01*
X23353Y2693D01*
X23496Y2693D01*
X23622Y2745D01*
X23747Y2693D01*
X23889Y2693D01*
X24021Y2747D01*
X24122Y2848D01*
X24177Y2980D01*
X24177Y3122D01*
X24177Y2223D01*
X24093Y2258D01*
X23938Y2258D01*
X23796Y2199D01*
X23687Y2090D01*
X23627Y1947D01*
X23627Y1793D01*
X23686Y1650D01*
X23795Y1541D01*
X23938Y1482D01*
X24092Y1482D01*
X24235Y1541D01*
X24344Y1650D01*
X24403Y1792D01*
X24403Y1947D01*
X24403Y346D01*
X24177Y346D01*
X24180Y348D01*
X24245Y505D01*
X24246Y675D01*
X24181Y832D01*
X24061Y952D01*
X23904Y1017D01*
X23734Y1018D01*
X23577Y953D01*
X23457Y833D01*
X23392Y676D01*
X23391Y506D01*
X23456Y349D01*
X23460Y346D01*
X22995Y346D01*
X22998Y348D01*
X23063Y505D01*
X23064Y675D01*
X22999Y832D01*
X22879Y952D01*
X22722Y1017D01*
X22552Y1018D01*
X22395Y953D01*
X22275Y833D01*
X22210Y676D01*
X22209Y506D01*
X22274Y349D01*
X22278Y346D01*
X21815Y346D01*
X21815Y3417D01*
X21783Y3495D01*
X21814Y3570D01*
X21814Y3712D01*
X21782Y3788D01*
X21814Y3865D01*
X21815Y4008D01*
X21783Y4085D01*
X21814Y4161D01*
X21815Y4303D01*
X21760Y4435D01*
X21659Y4536D01*
X21528Y4590D01*
X21519Y4590D01*
X21519Y5878D01*
X21488Y5955D01*
X21519Y6031D01*
X21519Y6173D01*
X21488Y6250D01*
X21519Y6326D01*
X21519Y6468D01*
X21488Y6545D01*
X21519Y6621D01*
X21519Y6764D01*
X21488Y6840D01*
X21519Y6917D01*
X21519Y7059D01*
X21488Y7136D01*
X21519Y7212D01*
X21519Y7354D01*
X21488Y7431D01*
X21519Y7507D01*
X21519Y7650D01*
X21488Y7726D01*
X21519Y7802D01*
X21519Y7945D01*
X21465Y8077D01*
X21364Y8177D01*
X21266Y8218D01*
X21364Y8259D01*
X21465Y8359D01*
X21519Y8491D01*
X21519Y8633D01*
X21465Y8765D01*
X21364Y8866D01*
X21233Y8921D01*
X21090Y8921D01*
X20958Y8866D01*
X20857Y8766D01*
X20803Y8634D01*
X20803Y8492D01*
X20857Y8360D01*
X20958Y8259D01*
X21056Y8218D01*
X20958Y8178D01*
X20857Y8077D01*
X20803Y7945D01*
X20803Y7803D01*
X20834Y7726D01*
X20803Y7650D01*
X20803Y7508D01*
X20834Y7431D01*
X20803Y7355D01*
X20803Y7212D01*
X20834Y7136D01*
X20803Y7060D01*
X20803Y6917D01*
X20834Y6840D01*
X20803Y6764D01*
X20803Y6622D01*
X20834Y6545D01*
X20803Y6469D01*
X20803Y6327D01*
X20834Y6250D01*
X20803Y6174D01*
X20803Y6031D01*
X20831Y5963D01*
X20746Y5998D01*
X20592Y5998D01*
X20565Y5987D01*
X20565Y10214D01*
X20506Y10357D01*
X20437Y10426D01*
X20437Y16311D01*
X20383Y16443D01*
X20282Y16544D01*
X20150Y16599D01*
X20008Y16599D01*
X19876Y16544D01*
X19775Y16444D01*
X19758Y16402D01*
X19713Y16402D01*
X19581Y16347D01*
X19480Y16247D01*
X19463Y16205D01*
X19417Y16205D01*
X19285Y16150D01*
X19184Y16050D01*
X19129Y15918D01*
X19129Y15872D01*
X19088Y15855D01*
X18987Y15755D01*
X18933Y15623D01*
X18933Y15481D01*
X18987Y15349D01*
X19088Y15248D01*
X19219Y15193D01*
X19362Y15193D01*
X19494Y15248D01*
X19594Y15348D01*
X19649Y15480D01*
X19649Y15526D01*
X19690Y15543D01*
X19791Y15643D01*
X19808Y15685D01*
X19854Y15685D01*
X19986Y15740D01*
X20087Y15840D01*
X20104Y15882D01*
X20150Y15882D01*
X20281Y15936D01*
X20382Y16037D01*
X20437Y16169D01*
X20437Y16311D01*
X20437Y10426D01*
X20397Y10466D01*
X20254Y10525D01*
X20100Y10526D01*
X19957Y10467D01*
X19848Y10358D01*
X19846Y10354D01*
X19846Y14244D01*
X19792Y14376D01*
X19691Y14477D01*
X19559Y14531D01*
X19551Y14531D01*
X19551Y14539D01*
X19496Y14671D01*
X19396Y14772D01*
X19264Y14827D01*
X19122Y14827D01*
X18990Y14772D01*
X18889Y14672D01*
X18834Y14540D01*
X18834Y14397D01*
X18889Y14266D01*
X18989Y14165D01*
X19121Y14110D01*
X19129Y14110D01*
X19129Y14102D01*
X19184Y13970D01*
X19285Y13870D01*
X19416Y13815D01*
X19559Y13815D01*
X19690Y13869D01*
X19791Y13970D01*
X19846Y14102D01*
X19846Y14244D01*
X19846Y10354D01*
X19836Y10328D01*
X19707Y10329D01*
X19564Y10270D01*
X19455Y10161D01*
X19396Y10018D01*
X19395Y9888D01*
X19367Y9877D01*
X19258Y9768D01*
X19205Y9639D01*
X19116Y9640D01*
X18973Y9581D01*
X18960Y9568D01*
X18960Y11685D01*
X18906Y11817D01*
X18805Y11918D01*
X18674Y11972D01*
X18531Y11972D01*
X18399Y11918D01*
X18298Y11817D01*
X18244Y11686D01*
X18244Y11543D01*
X18298Y11411D01*
X18399Y11311D01*
X18530Y11256D01*
X18673Y11256D01*
X18805Y11310D01*
X18905Y11411D01*
X18960Y11542D01*
X18960Y11685D01*
X18960Y9568D01*
X18864Y9472D01*
X18805Y9329D01*
X18804Y9175D01*
X18863Y9032D01*
X18972Y8923D01*
X19115Y8864D01*
X19269Y8863D01*
X19412Y8922D01*
X19521Y9031D01*
X19574Y9160D01*
X19634Y9159D01*
X19553Y9078D01*
X19494Y8936D01*
X19493Y8781D01*
X19552Y8639D01*
X19661Y8529D01*
X19804Y8470D01*
X19958Y8470D01*
X20101Y8529D01*
X20210Y8638D01*
X20269Y8781D01*
X20270Y8935D01*
X20211Y9078D01*
X20102Y9187D01*
X19959Y9246D01*
X19834Y9246D01*
X19915Y9327D01*
X19974Y9470D01*
X19975Y9600D01*
X20003Y9611D01*
X20112Y9720D01*
X20124Y9750D01*
X20253Y9749D01*
X20396Y9808D01*
X20505Y9917D01*
X20564Y10060D01*
X20565Y10214D01*
X20565Y5987D01*
X20449Y5939D01*
X20340Y5830D01*
X20281Y5688D01*
X20281Y5533D01*
X20340Y5391D01*
X20449Y5281D01*
X20591Y5222D01*
X20746Y5222D01*
X20888Y5281D01*
X20998Y5390D01*
X21032Y5473D01*
X21089Y5449D01*
X21232Y5449D01*
X21364Y5503D01*
X21465Y5604D01*
X21519Y5735D01*
X21519Y5878D01*
X21519Y4590D01*
X21385Y4591D01*
X21254Y4536D01*
X21153Y4435D01*
X21098Y4304D01*
X21098Y4161D01*
X21130Y4085D01*
X21098Y4008D01*
X21098Y3866D01*
X21129Y3790D01*
X21097Y3713D01*
X21097Y3571D01*
X21129Y3493D01*
X21098Y3418D01*
X21098Y3275D01*
X21152Y3144D01*
X21253Y3043D01*
X21385Y2988D01*
X21527Y2988D01*
X21659Y3042D01*
X21760Y3143D01*
X21814Y3275D01*
X21815Y3417D01*
X21815Y346D01*
X19777Y346D01*
X19777Y4407D01*
X19718Y4550D01*
X19609Y4659D01*
X19467Y4719D01*
X19313Y4719D01*
X19170Y4660D01*
X19061Y4551D01*
X19001Y4408D01*
X19001Y4254D01*
X19060Y4111D01*
X19169Y4002D01*
X19312Y3943D01*
X19466Y3943D01*
X19609Y4001D01*
X19718Y4111D01*
X19777Y4253D01*
X19777Y4407D01*
X19777Y346D01*
X19059Y346D01*
X19059Y2531D01*
X19004Y2663D01*
X18904Y2764D01*
X18793Y2810D01*
X18793Y5392D01*
X18734Y5534D01*
X18625Y5644D01*
X18483Y5703D01*
X18328Y5703D01*
X18186Y5644D01*
X18076Y5535D01*
X18017Y5392D01*
X18017Y5238D01*
X18076Y5095D01*
X18185Y4986D01*
X18328Y4927D01*
X18482Y4927D01*
X18625Y4986D01*
X18734Y5095D01*
X18793Y5237D01*
X18793Y5392D01*
X18793Y2810D01*
X18772Y2819D01*
X18629Y2819D01*
X18498Y2764D01*
X18397Y2664D01*
X18370Y2598D01*
X18370Y3811D01*
X18315Y3943D01*
X18215Y4044D01*
X18083Y4098D01*
X17940Y4098D01*
X17887Y4076D01*
X17878Y4085D01*
X17878Y13654D01*
X17823Y13785D01*
X17722Y13886D01*
X17591Y13941D01*
X17582Y13941D01*
X17582Y13949D01*
X17528Y14081D01*
X17427Y14181D01*
X17296Y14236D01*
X17153Y14236D01*
X17021Y14182D01*
X16920Y14081D01*
X16866Y13949D01*
X16866Y13807D01*
X16879Y13774D01*
X16852Y13774D01*
X16709Y13715D01*
X16600Y13606D01*
X16541Y13463D01*
X16541Y13309D01*
X16600Y13166D01*
X16709Y13057D01*
X16851Y12998D01*
X17006Y12998D01*
X17148Y13057D01*
X17257Y13166D01*
X17308Y13287D01*
X17316Y13279D01*
X17448Y13224D01*
X17590Y13224D01*
X17722Y13279D01*
X17823Y13379D01*
X17877Y13511D01*
X17878Y13654D01*
X17878Y4085D01*
X17821Y4142D01*
X17689Y4197D01*
X17582Y4197D01*
X17582Y11094D01*
X17528Y11226D01*
X17427Y11327D01*
X17296Y11382D01*
X17153Y11382D01*
X17076Y11350D01*
X17000Y11382D01*
X16858Y11382D01*
X16726Y11327D01*
X16682Y11283D01*
X16562Y11283D01*
X16431Y11229D01*
X16330Y11128D01*
X16313Y11087D01*
X16267Y11087D01*
X16144Y11036D01*
X16049Y11130D01*
X15918Y11185D01*
X15775Y11185D01*
X15643Y11131D01*
X15542Y11030D01*
X15488Y10898D01*
X15488Y10778D01*
X15444Y10735D01*
X15389Y10603D01*
X15389Y10460D01*
X15444Y10329D01*
X15544Y10228D01*
X15676Y10173D01*
X15819Y10173D01*
X15950Y10227D01*
X16051Y10328D01*
X16104Y10456D01*
X16135Y10425D01*
X16267Y10370D01*
X16409Y10370D01*
X16541Y10424D01*
X16642Y10525D01*
X16659Y10567D01*
X16704Y10567D01*
X16836Y10621D01*
X16880Y10665D01*
X17000Y10665D01*
X17076Y10697D01*
X17152Y10665D01*
X17295Y10665D01*
X17427Y10720D01*
X17528Y10820D01*
X17582Y10952D01*
X17582Y11094D01*
X17582Y4197D01*
X17547Y4197D01*
X17415Y4142D01*
X17314Y4042D01*
X17259Y3910D01*
X17259Y3768D01*
X17314Y3636D01*
X17414Y3535D01*
X17546Y3480D01*
X17689Y3480D01*
X17742Y3502D01*
X17808Y3437D01*
X17940Y3382D01*
X18082Y3382D01*
X18214Y3436D01*
X18315Y3537D01*
X18370Y3668D01*
X18370Y3811D01*
X18370Y2598D01*
X18342Y2532D01*
X18342Y2390D01*
X18396Y2258D01*
X18497Y2157D01*
X18629Y2102D01*
X18771Y2102D01*
X18903Y2157D01*
X19004Y2257D01*
X19059Y2389D01*
X19059Y2531D01*
X19059Y346D01*
X16303Y346D01*
X16303Y3909D01*
X16248Y4041D01*
X16148Y4142D01*
X16016Y4197D01*
X15874Y4197D01*
X15840Y4183D01*
X15840Y9722D01*
X15781Y9865D01*
X15672Y9974D01*
X15530Y10034D01*
X15375Y10034D01*
X15233Y9975D01*
X15124Y9866D01*
X15064Y9723D01*
X15064Y9569D01*
X15123Y9426D01*
X15232Y9317D01*
X15375Y9258D01*
X15529Y9258D01*
X15672Y9316D01*
X15781Y9425D01*
X15840Y9568D01*
X15840Y9722D01*
X15840Y4183D01*
X15811Y4171D01*
X15811Y4795D01*
X15756Y4927D01*
X15656Y5028D01*
X15524Y5083D01*
X15381Y5083D01*
X15250Y5028D01*
X15220Y4999D01*
X15220Y8831D01*
X15166Y8962D01*
X15065Y9063D01*
X14933Y9118D01*
X14791Y9118D01*
X14728Y9092D01*
X14728Y11291D01*
X14674Y11423D01*
X14630Y11467D01*
X14630Y13654D01*
X14598Y13730D01*
X14629Y13806D01*
X14630Y13949D01*
X14598Y14026D01*
X14629Y14102D01*
X14630Y14244D01*
X14598Y14321D01*
X14629Y14397D01*
X14630Y14539D01*
X14598Y14616D01*
X14629Y14692D01*
X14630Y14835D01*
X14598Y14911D01*
X14629Y14987D01*
X14630Y15130D01*
X14598Y15207D01*
X14629Y15283D01*
X14630Y15425D01*
X14575Y15557D01*
X14474Y15658D01*
X14343Y15712D01*
X14200Y15713D01*
X14069Y15658D01*
X13968Y15557D01*
X13913Y15426D01*
X13913Y15283D01*
X13945Y15207D01*
X13913Y15131D01*
X13913Y14988D01*
X13945Y14911D01*
X13913Y14835D01*
X13913Y14693D01*
X13945Y14616D01*
X13913Y14540D01*
X13913Y14397D01*
X13945Y14321D01*
X13913Y14245D01*
X13913Y14102D01*
X13945Y14025D01*
X13913Y13949D01*
X13913Y13807D01*
X13945Y13730D01*
X13913Y13654D01*
X13913Y13512D01*
X13967Y13380D01*
X14068Y13279D01*
X14200Y13224D01*
X14342Y13224D01*
X14474Y13279D01*
X14575Y13379D01*
X14629Y13511D01*
X14630Y13654D01*
X14630Y11467D01*
X14573Y11524D01*
X14441Y11579D01*
X14299Y11579D01*
X14167Y11524D01*
X14066Y11424D01*
X14011Y11292D01*
X14011Y11149D01*
X14066Y11018D01*
X14166Y10917D01*
X14298Y10862D01*
X14441Y10862D01*
X14572Y10916D01*
X14673Y11017D01*
X14728Y11149D01*
X14728Y11291D01*
X14728Y9092D01*
X14665Y9066D01*
X14540Y9118D01*
X14397Y9118D01*
X14265Y9064D01*
X14236Y9034D01*
X14236Y10307D01*
X14181Y10439D01*
X14081Y10540D01*
X13949Y10594D01*
X13807Y10594D01*
X13675Y10540D01*
X13574Y10439D01*
X13519Y10308D01*
X13519Y10165D01*
X13574Y10033D01*
X13674Y9933D01*
X13806Y9878D01*
X13948Y9878D01*
X14080Y9932D01*
X14181Y10033D01*
X14236Y10165D01*
X14236Y10307D01*
X14236Y9034D01*
X14234Y9032D01*
X14181Y9159D01*
X14081Y9260D01*
X13949Y9315D01*
X13807Y9315D01*
X13675Y9260D01*
X13574Y9160D01*
X13519Y9028D01*
X13519Y8886D01*
X13571Y8760D01*
X13519Y8634D01*
X13519Y8492D01*
X13571Y8366D01*
X13519Y8241D01*
X13519Y8098D01*
X13574Y7967D01*
X13674Y7866D01*
X13806Y7811D01*
X13948Y7811D01*
X14080Y7865D01*
X14181Y7966D01*
X14236Y8098D01*
X14236Y8240D01*
X14184Y8366D01*
X14234Y8487D01*
X14265Y8456D01*
X14397Y8402D01*
X14539Y8401D01*
X14665Y8453D01*
X14790Y8402D01*
X14933Y8401D01*
X15064Y8456D01*
X15165Y8557D01*
X15220Y8688D01*
X15220Y8831D01*
X15220Y4999D01*
X15149Y4928D01*
X15094Y4796D01*
X15094Y4653D01*
X15148Y4522D01*
X15249Y4421D01*
X15381Y4366D01*
X15523Y4366D01*
X15655Y4420D01*
X15756Y4521D01*
X15811Y4653D01*
X15811Y4795D01*
X15811Y4171D01*
X15742Y4142D01*
X15641Y4042D01*
X15586Y3910D01*
X15586Y3768D01*
X15641Y3636D01*
X15741Y3535D01*
X15873Y3480D01*
X16015Y3480D01*
X16147Y3535D01*
X16248Y3635D01*
X16303Y3767D01*
X16303Y3909D01*
X16303Y346D01*
X14925Y346D01*
X14925Y5287D01*
X14870Y5419D01*
X14770Y5520D01*
X14638Y5575D01*
X14496Y5575D01*
X14364Y5520D01*
X14263Y5420D01*
X14222Y5322D01*
X14196Y5348D01*
X14137Y5373D01*
X14137Y7256D01*
X14083Y7388D01*
X13982Y7488D01*
X13851Y7543D01*
X13708Y7543D01*
X13576Y7489D01*
X13545Y7457D01*
X13492Y7584D01*
X13448Y7629D01*
X13448Y9421D01*
X13394Y9553D01*
X13350Y9597D01*
X13350Y16114D01*
X13295Y16246D01*
X13195Y16347D01*
X13063Y16402D01*
X13018Y16402D01*
X13000Y16443D01*
X12900Y16544D01*
X12768Y16599D01*
X12737Y16599D01*
X12801Y16625D01*
X12902Y16726D01*
X12956Y16857D01*
X12956Y17000D01*
X12902Y17132D01*
X12801Y17233D01*
X12670Y17287D01*
X12527Y17287D01*
X12494Y17274D01*
X12494Y18187D01*
X12435Y18330D01*
X12326Y18439D01*
X12183Y18498D01*
X12029Y18498D01*
X11886Y18439D01*
X11777Y18330D01*
X11718Y18188D01*
X11718Y18033D01*
X11777Y17891D01*
X11886Y17781D01*
X12028Y17722D01*
X12183Y17722D01*
X12325Y17781D01*
X12435Y17890D01*
X12494Y18033D01*
X12494Y18187D01*
X12494Y17274D01*
X12395Y17233D01*
X12294Y17132D01*
X12240Y17001D01*
X12240Y16858D01*
X12294Y16726D01*
X12395Y16625D01*
X12526Y16571D01*
X12558Y16571D01*
X12494Y16544D01*
X12393Y16444D01*
X12375Y16401D01*
X12374Y16401D01*
X12232Y16402D01*
X12199Y16388D01*
X12199Y16711D01*
X12140Y16853D01*
X12031Y16962D01*
X11888Y17022D01*
X11734Y17022D01*
X11591Y16963D01*
X11482Y16854D01*
X11480Y16849D01*
X11480Y17099D01*
X11426Y17230D01*
X11325Y17331D01*
X11193Y17386D01*
X11051Y17386D01*
X10919Y17332D01*
X10818Y17231D01*
X10763Y17099D01*
X10763Y16957D01*
X10818Y16825D01*
X10918Y16724D01*
X11050Y16670D01*
X11193Y16669D01*
X11324Y16724D01*
X11425Y16825D01*
X11480Y16956D01*
X11480Y17099D01*
X11480Y16849D01*
X11423Y16711D01*
X11423Y16557D01*
X11481Y16414D01*
X11591Y16305D01*
X11733Y16246D01*
X11887Y16246D01*
X12030Y16305D01*
X12139Y16414D01*
X12199Y16556D01*
X12199Y16711D01*
X12199Y16388D01*
X12100Y16347D01*
X11999Y16246D01*
X11945Y16115D01*
X11944Y15995D01*
X11901Y15951D01*
X11846Y15820D01*
X11846Y15677D01*
X11900Y15545D01*
X12001Y15444D01*
X12133Y15390D01*
X12275Y15390D01*
X12407Y15444D01*
X12508Y15545D01*
X12563Y15676D01*
X12563Y15796D01*
X12606Y15840D01*
X12624Y15883D01*
X12625Y15882D01*
X12670Y15882D01*
X12688Y15841D01*
X12788Y15740D01*
X12920Y15685D01*
X13062Y15685D01*
X13194Y15740D01*
X13295Y15840D01*
X13350Y15972D01*
X13350Y16114D01*
X13350Y9597D01*
X13293Y9654D01*
X13162Y9709D01*
X13055Y9709D01*
X13055Y12768D01*
X13000Y12899D01*
X12900Y13000D01*
X12768Y13055D01*
X12625Y13055D01*
X12494Y13001D01*
X12393Y12900D01*
X12338Y12768D01*
X12338Y12626D01*
X12393Y12494D01*
X12493Y12393D01*
X12625Y12339D01*
X12767Y12338D01*
X12899Y12393D01*
X13000Y12494D01*
X13055Y12625D01*
X13055Y12768D01*
X13055Y9709D01*
X13019Y9709D01*
X12887Y9654D01*
X12787Y9554D01*
X12732Y9422D01*
X12732Y9279D01*
X12786Y9148D01*
X12887Y9047D01*
X13019Y8992D01*
X13161Y8992D01*
X13293Y9046D01*
X13394Y9147D01*
X13448Y9279D01*
X13448Y9421D01*
X13448Y7629D01*
X13392Y7685D01*
X13350Y7703D01*
X13350Y7748D01*
X13318Y7825D01*
X13350Y7901D01*
X13350Y8043D01*
X13296Y8175D01*
X13195Y8276D01*
X13063Y8331D01*
X12921Y8331D01*
X12789Y8276D01*
X12688Y8176D01*
X12633Y8044D01*
X12633Y7901D01*
X12665Y7825D01*
X12633Y7749D01*
X12633Y7703D01*
X12592Y7686D01*
X12491Y7585D01*
X12437Y7453D01*
X12437Y7311D01*
X12491Y7179D01*
X12592Y7078D01*
X12723Y7024D01*
X12866Y7023D01*
X12992Y7076D01*
X13117Y7024D01*
X13260Y7023D01*
X13391Y7078D01*
X13423Y7109D01*
X13475Y6982D01*
X13576Y6881D01*
X13708Y6827D01*
X13850Y6827D01*
X13982Y6881D01*
X14083Y6982D01*
X14137Y7113D01*
X14137Y7256D01*
X14137Y5373D01*
X14053Y5408D01*
X13899Y5408D01*
X13756Y5349D01*
X13647Y5240D01*
X13588Y5097D01*
X13588Y4943D01*
X13647Y4800D01*
X13756Y4691D01*
X13898Y4632D01*
X14053Y4632D01*
X14195Y4690D01*
X14305Y4800D01*
X14355Y4921D01*
X14363Y4913D01*
X14495Y4858D01*
X14637Y4858D01*
X14769Y4913D01*
X14870Y5013D01*
X14925Y5145D01*
X14925Y5287D01*
X14925Y346D01*
X12696Y346D01*
X12563Y345D01*
X12563Y6468D01*
X12508Y6600D01*
X12408Y6701D01*
X12276Y6756D01*
X12133Y6756D01*
X12002Y6701D01*
X11972Y6672D01*
X11972Y11685D01*
X11918Y11817D01*
X11817Y11918D01*
X11775Y11935D01*
X11775Y11936D01*
X11775Y12079D01*
X11721Y12210D01*
X11620Y12311D01*
X11488Y12366D01*
X11346Y12366D01*
X11214Y12312D01*
X11113Y12211D01*
X11059Y12079D01*
X11059Y11937D01*
X11113Y11805D01*
X11214Y11704D01*
X11256Y11687D01*
X11256Y11686D01*
X11255Y11543D01*
X11310Y11411D01*
X11411Y11311D01*
X11542Y11256D01*
X11685Y11256D01*
X11816Y11310D01*
X11917Y11411D01*
X11972Y11542D01*
X11972Y11685D01*
X11972Y6672D01*
X11901Y6601D01*
X11846Y6469D01*
X11846Y6327D01*
X11900Y6195D01*
X12001Y6094D01*
X12133Y6039D01*
X12275Y6039D01*
X12407Y6094D01*
X12508Y6194D01*
X12563Y6326D01*
X12563Y6468D01*
X12563Y345D01*
X11805Y345D01*
X11805Y5687D01*
X11775Y5759D01*
X11775Y6468D01*
X11721Y6600D01*
X11620Y6701D01*
X11488Y6756D01*
X11346Y6756D01*
X11344Y6755D01*
X11327Y6797D01*
X11226Y6898D01*
X11168Y6922D01*
X11228Y6982D01*
X11283Y7113D01*
X11283Y7256D01*
X11239Y7363D01*
X11345Y7319D01*
X11488Y7319D01*
X11620Y7373D01*
X11720Y7474D01*
X11775Y7605D01*
X11775Y7748D01*
X11775Y9717D01*
X11721Y9848D01*
X11620Y9949D01*
X11488Y10004D01*
X11356Y10004D01*
X11381Y10066D01*
X11382Y10209D01*
X11327Y10340D01*
X11283Y10385D01*
X11283Y10504D01*
X11229Y10636D01*
X11185Y10680D01*
X11185Y10799D01*
X11130Y10931D01*
X11030Y11032D01*
X10898Y11086D01*
X10767Y11087D01*
X10832Y11113D01*
X10933Y11214D01*
X10988Y11346D01*
X10988Y11488D01*
X10988Y12768D01*
X10933Y12899D01*
X10833Y13000D01*
X10701Y13055D01*
X10559Y13055D01*
X10427Y13001D01*
X10326Y12900D01*
X10271Y12768D01*
X10271Y12626D01*
X10326Y12494D01*
X10426Y12393D01*
X10558Y12339D01*
X10700Y12338D01*
X10832Y12393D01*
X10933Y12494D01*
X10988Y12625D01*
X10988Y12768D01*
X10988Y11488D01*
X10933Y11620D01*
X10833Y11721D01*
X10701Y11775D01*
X10559Y11776D01*
X10427Y11721D01*
X10326Y11620D01*
X10271Y11489D01*
X10271Y11346D01*
X10297Y11283D01*
X10165Y11283D01*
X10132Y11270D01*
X10132Y15332D01*
X10132Y16827D01*
X10073Y16970D01*
X9964Y17079D01*
X9821Y17138D01*
X9667Y17139D01*
X9524Y17080D01*
X9415Y16971D01*
X9356Y16828D01*
X9355Y16674D01*
X9414Y16531D01*
X9523Y16422D01*
X9666Y16363D01*
X9820Y16362D01*
X9963Y16421D01*
X10072Y16530D01*
X10131Y16673D01*
X10132Y16827D01*
X10132Y15332D01*
X10073Y15475D01*
X9964Y15584D01*
X9821Y15643D01*
X9667Y15644D01*
X9524Y15585D01*
X9415Y15476D01*
X9356Y15333D01*
X9355Y15179D01*
X9414Y15036D01*
X9523Y14927D01*
X9666Y14868D01*
X9820Y14867D01*
X9963Y14926D01*
X10072Y15035D01*
X10131Y15178D01*
X10132Y15332D01*
X10132Y11270D01*
X10033Y11229D01*
X9932Y11128D01*
X9878Y10997D01*
X9877Y10854D01*
X9932Y10722D01*
X10033Y10622D01*
X10164Y10567D01*
X10307Y10567D01*
X10438Y10621D01*
X10470Y10653D01*
X10522Y10526D01*
X10567Y10481D01*
X10566Y10362D01*
X10621Y10230D01*
X10665Y10186D01*
X10665Y10067D01*
X10719Y9935D01*
X10820Y9834D01*
X10952Y9779D01*
X11085Y9779D01*
X11059Y9717D01*
X11059Y9575D01*
X11113Y9443D01*
X11214Y9342D01*
X11345Y9287D01*
X11488Y9287D01*
X11620Y9342D01*
X11720Y9442D01*
X11775Y9574D01*
X11775Y9717D01*
X11775Y7748D01*
X11721Y7880D01*
X11677Y7924D01*
X11677Y8831D01*
X11622Y8962D01*
X11522Y9063D01*
X11390Y9118D01*
X11248Y9118D01*
X11116Y9064D01*
X11015Y8963D01*
X10960Y8831D01*
X10960Y8689D01*
X11015Y8557D01*
X11115Y8456D01*
X11247Y8402D01*
X11389Y8401D01*
X11521Y8456D01*
X11622Y8557D01*
X11677Y8688D01*
X11677Y8831D01*
X11677Y7924D01*
X11620Y7981D01*
X11488Y8035D01*
X11346Y8035D01*
X11214Y7981D01*
X11113Y7880D01*
X11059Y7749D01*
X11059Y7606D01*
X11103Y7499D01*
X10996Y7543D01*
X10854Y7543D01*
X10791Y7517D01*
X10791Y7945D01*
X10737Y8077D01*
X10636Y8177D01*
X10504Y8232D01*
X10362Y8232D01*
X10230Y8178D01*
X10129Y8077D01*
X10074Y7945D01*
X10074Y7803D01*
X10129Y7671D01*
X10229Y7570D01*
X10361Y7516D01*
X10504Y7516D01*
X10635Y7570D01*
X10736Y7671D01*
X10791Y7802D01*
X10791Y7945D01*
X10791Y7517D01*
X10722Y7489D01*
X10621Y7388D01*
X10567Y7257D01*
X10566Y7114D01*
X10621Y6982D01*
X10722Y6881D01*
X10779Y6857D01*
X10720Y6798D01*
X10665Y6666D01*
X10665Y6523D01*
X10719Y6392D01*
X10820Y6291D01*
X10952Y6236D01*
X11094Y6236D01*
X11096Y6237D01*
X11113Y6195D01*
X11214Y6094D01*
X11345Y6039D01*
X11488Y6039D01*
X11620Y6094D01*
X11720Y6194D01*
X11775Y6326D01*
X11775Y6468D01*
X11775Y5759D01*
X11746Y5830D01*
X11637Y5939D01*
X11494Y5998D01*
X11340Y5998D01*
X11197Y5939D01*
X11088Y5830D01*
X11029Y5688D01*
X11029Y5533D01*
X11088Y5391D01*
X11120Y5359D01*
X11002Y5408D01*
X10848Y5408D01*
X10705Y5349D01*
X10596Y5240D01*
X10537Y5097D01*
X10537Y4943D01*
X10596Y4800D01*
X10705Y4691D01*
X10847Y4632D01*
X11002Y4632D01*
X11144Y4690D01*
X11254Y4800D01*
X11313Y4942D01*
X11313Y5096D01*
X11254Y5239D01*
X11222Y5271D01*
X11339Y5222D01*
X11494Y5222D01*
X11636Y5281D01*
X11746Y5390D01*
X11805Y5533D01*
X11805Y5687D01*
X11805Y345D01*
X11580Y345D01*
X11622Y387D01*
X11677Y519D01*
X11677Y661D01*
X11622Y793D01*
X11522Y894D01*
X11390Y949D01*
X11248Y949D01*
X11116Y894D01*
X11057Y835D01*
X11057Y1857D01*
X10992Y2014D01*
X10872Y2134D01*
X10715Y2199D01*
X10545Y2200D01*
X10496Y2179D01*
X10496Y3713D01*
X10441Y3844D01*
X10341Y3945D01*
X10209Y4000D01*
X10066Y4000D01*
X9935Y3946D01*
X9834Y3845D01*
X9779Y3713D01*
X9779Y3571D01*
X9833Y3439D01*
X9934Y3338D01*
X10066Y3283D01*
X10208Y3283D01*
X10340Y3338D01*
X10441Y3438D01*
X10496Y3570D01*
X10496Y3713D01*
X10496Y2179D01*
X10388Y2135D01*
X10268Y2015D01*
X10203Y1858D01*
X10202Y1688D01*
X10267Y1531D01*
X10387Y1411D01*
X10544Y1346D01*
X10714Y1345D01*
X10871Y1410D01*
X10991Y1530D01*
X11056Y1687D01*
X11057Y1857D01*
X11057Y835D01*
X11015Y794D01*
X11011Y785D01*
X10992Y832D01*
X10872Y952D01*
X10715Y1017D01*
X10545Y1018D01*
X10388Y953D01*
X10268Y833D01*
X10203Y676D01*
X10202Y506D01*
X10267Y349D01*
X10271Y345D01*
X9345Y345D01*
X9345Y14939D01*
X9286Y15082D01*
X9177Y15191D01*
X9034Y15250D01*
X8880Y15251D01*
X8737Y15192D01*
X8628Y15083D01*
X8569Y14940D01*
X8568Y14786D01*
X8627Y14643D01*
X8736Y14534D01*
X8879Y14475D01*
X9033Y14474D01*
X9176Y14533D01*
X9285Y14642D01*
X9344Y14785D01*
X9345Y14939D01*
X9345Y345D01*
X8163Y345D01*
X8163Y13266D01*
X8104Y13408D01*
X7995Y13518D01*
X7853Y13577D01*
X7698Y13577D01*
X7556Y13518D01*
X7446Y13409D01*
X7387Y13266D01*
X7387Y13112D01*
X7446Y12969D01*
X7555Y12860D01*
X7698Y12801D01*
X7852Y12801D01*
X7995Y12860D01*
X8104Y12969D01*
X8163Y13111D01*
X8163Y13266D01*
X8163Y345D01*
X7740Y345D01*
X7743Y348D01*
X7808Y505D01*
X7809Y675D01*
X7744Y832D01*
X7647Y929D01*
X7699Y950D01*
X7809Y1059D01*
X7868Y1202D01*
X7868Y1356D01*
X7809Y1499D01*
X7753Y1555D01*
X7808Y1687D01*
X7809Y1857D01*
X7744Y2014D01*
X7624Y2134D01*
X7474Y2196D01*
X7474Y8837D01*
X7474Y8837D01*
X7474Y10018D01*
X7415Y10160D01*
X7306Y10270D01*
X7164Y10329D01*
X7009Y10329D01*
X6867Y10270D01*
X6757Y10161D01*
X6698Y10018D01*
X6698Y9864D01*
X6757Y9721D01*
X6866Y9612D01*
X7009Y9553D01*
X7163Y9553D01*
X7306Y9612D01*
X7415Y9721D01*
X7474Y9863D01*
X7474Y10018D01*
X7474Y8837D01*
X7415Y8979D01*
X7306Y9089D01*
X7164Y9148D01*
X7009Y9148D01*
X6867Y9089D01*
X6757Y8980D01*
X6698Y8837D01*
X6698Y8683D01*
X6757Y8540D01*
X6866Y8431D01*
X7009Y8372D01*
X7163Y8372D01*
X7306Y8431D01*
X7415Y8540D01*
X7474Y8682D01*
X7474Y8837D01*
X7474Y2196D01*
X7467Y2199D01*
X7297Y2200D01*
X7140Y2135D01*
X7041Y2036D01*
X7041Y2340D01*
X6982Y2483D01*
X6873Y2592D01*
X6730Y2651D01*
X6576Y2652D01*
X6433Y2593D01*
X6324Y2484D01*
X6265Y2341D01*
X6264Y2187D01*
X6323Y2044D01*
X6432Y1935D01*
X6575Y1876D01*
X6729Y1875D01*
X6872Y1934D01*
X6981Y2043D01*
X7040Y2186D01*
X7041Y2340D01*
X7041Y2036D01*
X7020Y2015D01*
X6955Y1858D01*
X6954Y1688D01*
X7019Y1531D01*
X7122Y1428D01*
X7092Y1357D01*
X7092Y1203D01*
X7151Y1060D01*
X7223Y987D01*
X7140Y953D01*
X7051Y864D01*
X7051Y1055D01*
X6996Y1187D01*
X6896Y1288D01*
X6764Y1342D01*
X6622Y1342D01*
X6490Y1288D01*
X6389Y1187D01*
X6334Y1056D01*
X6334Y913D01*
X6389Y781D01*
X6489Y681D01*
X6621Y626D01*
X6763Y626D01*
X6895Y680D01*
X6996Y781D01*
X7051Y913D01*
X7051Y1055D01*
X7051Y864D01*
X7020Y833D01*
X6955Y676D01*
X6954Y506D01*
X7019Y349D01*
X7023Y345D01*
X5758Y345D01*
X5759Y2952D01*
X5759Y4441D01*
X5773Y4406D01*
X5882Y4297D01*
X6024Y4238D01*
X6179Y4238D01*
X6321Y4297D01*
X6431Y4406D01*
X6490Y4548D01*
X6490Y4703D01*
X6431Y4845D01*
X6322Y4955D01*
X6179Y5014D01*
X6025Y5014D01*
X5882Y4955D01*
X5773Y4846D01*
X5744Y4775D01*
X5112Y4775D01*
X5112Y7459D01*
X5053Y7601D01*
X5014Y7641D01*
X5014Y12478D01*
X4955Y12621D01*
X4846Y12730D01*
X4703Y12789D01*
X4549Y12790D01*
X4406Y12731D01*
X4297Y12622D01*
X4238Y12479D01*
X4237Y12325D01*
X4296Y12182D01*
X4405Y12073D01*
X4548Y12014D01*
X4702Y12013D01*
X4845Y12072D01*
X4954Y12181D01*
X5013Y12324D01*
X5014Y12478D01*
X5014Y7641D01*
X4944Y7711D01*
X4802Y7770D01*
X4647Y7770D01*
X4504Y7711D01*
X4395Y7602D01*
X4336Y7459D01*
X4336Y7305D01*
X4395Y7162D01*
X4504Y7053D01*
X4646Y6994D01*
X4801Y6994D01*
X4943Y7053D01*
X5053Y7162D01*
X5112Y7304D01*
X5112Y7459D01*
X5112Y4775D01*
X3593Y4775D01*
X3593Y8727D01*
X4676Y9219D01*
X4676Y10961D01*
X3593Y11354D01*
X3593Y12354D01*
X1231Y12354D01*
X1231Y13082D01*
X1256Y13057D01*
X1398Y12998D01*
X1553Y12998D01*
X1695Y13057D01*
X1805Y13166D01*
X1864Y13308D01*
X1864Y13463D01*
X1805Y13605D01*
X1696Y13714D01*
X1553Y13774D01*
X1399Y13774D01*
X1256Y13715D01*
X1231Y13689D01*
X1231Y15555D01*
X1267Y15591D01*
X1335Y15757D01*
X1336Y15936D01*
X1267Y16101D01*
X1231Y16138D01*
X1231Y16933D01*
X1267Y16969D01*
X1335Y17135D01*
X1336Y17314D01*
X1271Y17470D01*
X7334Y17470D01*
X7334Y19340D01*
X9816Y19340D01*
X9815Y19183D01*
X9899Y18980D01*
X10054Y18826D01*
X10256Y18742D01*
X10474Y18741D01*
X10677Y18825D01*
X10831Y18980D01*
X10915Y19182D01*
X10916Y19340D01*
X20974Y19340D01*
X20973Y19183D01*
X21057Y18980D01*
X21212Y18826D01*
X21414Y18742D01*
X21632Y18741D01*
X21835Y18825D01*
X21989Y18980D01*
X22073Y19182D01*
X22074Y19340D01*
X24911Y19340D01*
X24910Y19183D01*
X24994Y18980D01*
X25149Y18826D01*
X25351Y18742D01*
X25569Y18741D01*
X25772Y18825D01*
X25926Y18980D01*
X26010Y19182D01*
X26011Y19340D01*
X27301Y19340D01*
X27253Y19291D01*
X27215Y19199D01*
X27215Y19100D01*
X27215Y18912D01*
X27277Y18850D01*
X27765Y18850D01*
X27765Y18857D01*
X27865Y18857D01*
X27865Y18850D01*
X27872Y18850D01*
X27872Y18750D01*
X27865Y18750D01*
X27865Y18262D01*
X27927Y18200D01*
X28214Y18200D01*
X28306Y18238D01*
X28376Y18308D01*
X28396Y18354D01*
X28418Y18332D01*
X28463Y18377D01*
X28497Y18277D01*
X28721Y18195D01*
X28959Y18205D01*
X29132Y18277D01*
X29166Y18377D01*
X28815Y18729D01*
X28809Y18723D01*
X28738Y18794D01*
X28744Y18800D01*
X28738Y18805D01*
X28809Y18876D01*
X28815Y18870D01*
X29166Y19222D01*
X29132Y19322D01*
X29085Y19340D01*
X29550Y19340D01*
X29475Y19308D01*
X29306Y19140D01*
X29302Y19129D01*
X29237Y19151D01*
X28885Y18800D01*
X29237Y18448D01*
X29302Y18470D01*
X29306Y18460D01*
X29474Y18291D01*
X29695Y18200D01*
X29933Y18199D01*
X30154Y18291D01*
X30315Y18451D01*
X30474Y18291D01*
X30695Y18200D01*
X30933Y18199D01*
X31154Y18291D01*
X31315Y18451D01*
X31474Y18291D01*
X31695Y18200D01*
X31933Y18199D01*
X32154Y18291D01*
X32315Y18451D01*
X32474Y18291D01*
X32695Y18200D01*
X32933Y18199D01*
X33154Y18291D01*
X33323Y18459D01*
X33414Y18680D01*
X33415Y18918D01*
X33323Y19139D01*
X33155Y19308D01*
X33079Y19340D01*
X36298Y19340D01*
X39025Y16613D01*
X39025Y13591D01*
X38999Y13616D01*
X38857Y13675D01*
X38702Y13675D01*
X38560Y13616D01*
X38450Y13507D01*
X38391Y13365D01*
X38391Y13210D01*
X38450Y13068D01*
X38559Y12959D01*
X38702Y12899D01*
X38856Y12899D01*
X38999Y12958D01*
X39025Y12984D01*
X39025Y3072D01*
G54D10*
G36*
X6938Y17865D02*
X2425Y17865D01*
X2454Y17934D01*
X2455Y18089D01*
X2396Y18231D01*
X2287Y18340D01*
X2144Y18400D01*
X1990Y18400D01*
X1847Y18341D01*
X1738Y18232D01*
X1679Y18089D01*
X1678Y17935D01*
X1708Y17865D01*
X836Y17865D01*
X836Y17675D01*
X796Y17675D01*
X631Y17606D01*
X504Y17480D01*
X436Y17314D01*
X435Y17135D01*
X504Y16970D01*
X630Y16843D01*
X796Y16775D01*
X836Y16775D01*
X836Y16297D01*
X796Y16297D01*
X631Y16228D01*
X504Y16102D01*
X436Y15936D01*
X435Y15757D01*
X504Y15592D01*
X630Y15465D01*
X796Y15397D01*
X836Y15397D01*
X836Y11958D01*
X3198Y11958D01*
X3198Y10990D01*
X4182Y10596D01*
X4182Y9581D01*
X3198Y9187D01*
X3198Y4380D01*
X5363Y4380D01*
X5363Y346D01*
X2553Y346D01*
X2553Y1848D01*
X2494Y1991D01*
X2385Y2100D01*
X2242Y2159D01*
X2088Y2160D01*
X1962Y2108D01*
X1962Y6376D01*
X1904Y6519D01*
X1794Y6628D01*
X1652Y6687D01*
X1498Y6687D01*
X1355Y6628D01*
X1246Y6519D01*
X1186Y6377D01*
X1186Y6222D01*
X1245Y6080D01*
X1354Y5970D01*
X1497Y5911D01*
X1651Y5911D01*
X1794Y5970D01*
X1903Y6079D01*
X1962Y6222D01*
X1962Y6376D01*
X1962Y2108D01*
X1945Y2101D01*
X1836Y1992D01*
X1777Y1849D01*
X1777Y1695D01*
X1836Y1552D01*
X1945Y1443D01*
X2087Y1384D01*
X2242Y1383D01*
X2384Y1442D01*
X2494Y1551D01*
X2553Y1694D01*
X2553Y1848D01*
X2553Y346D01*
X1336Y346D01*
X1336Y2550D01*
X1336Y3928D01*
X1267Y4093D01*
X1141Y4220D01*
X975Y4288D01*
X796Y4289D01*
X631Y4220D01*
X504Y4094D01*
X436Y3928D01*
X435Y3749D01*
X504Y3584D01*
X630Y3457D01*
X796Y3389D01*
X975Y3388D01*
X1140Y3457D01*
X1267Y3583D01*
X1335Y3749D01*
X1336Y3928D01*
X1336Y2550D01*
X1267Y2715D01*
X1141Y2842D01*
X975Y2910D01*
X796Y2911D01*
X631Y2842D01*
X504Y2716D01*
X436Y2550D01*
X435Y2371D01*
X504Y2206D01*
X630Y2079D01*
X796Y2011D01*
X975Y2010D01*
X1140Y2079D01*
X1267Y2205D01*
X1335Y2371D01*
X1336Y2550D01*
X1336Y346D01*
X1103Y346D01*
X345Y1103D01*
X345Y18483D01*
X1201Y19340D01*
X5879Y19340D01*
X5878Y19183D01*
X5962Y18980D01*
X6117Y18826D01*
X6319Y18742D01*
X6537Y18741D01*
X6740Y18825D01*
X6894Y18980D01*
X6938Y19083D01*
X6938Y17865D01*
X6938Y17865D01*
G37*
G54D23*
X6938Y17865D02*
X2425Y17865D01*
X2454Y17934D01*
X2455Y18089D01*
X2396Y18231D01*
X2287Y18340D01*
X2144Y18400D01*
X1990Y18400D01*
X1847Y18341D01*
X1738Y18232D01*
X1679Y18089D01*
X1678Y17935D01*
X1708Y17865D01*
X836Y17865D01*
X836Y17675D01*
X796Y17675D01*
X631Y17606D01*
X504Y17480D01*
X436Y17314D01*
X435Y17135D01*
X504Y16970D01*
X630Y16843D01*
X796Y16775D01*
X836Y16775D01*
X836Y16297D01*
X796Y16297D01*
X631Y16228D01*
X504Y16102D01*
X436Y15936D01*
X435Y15757D01*
X504Y15592D01*
X630Y15465D01*
X796Y15397D01*
X836Y15397D01*
X836Y11958D01*
X3198Y11958D01*
X3198Y10990D01*
X4182Y10596D01*
X4182Y9581D01*
X3198Y9187D01*
X3198Y4380D01*
X5363Y4380D01*
X5363Y346D01*
X2553Y346D01*
X2553Y1848D01*
X2494Y1991D01*
X2385Y2100D01*
X2242Y2159D01*
X2088Y2160D01*
X1962Y2108D01*
X1962Y6376D01*
X1904Y6519D01*
X1794Y6628D01*
X1652Y6687D01*
X1498Y6687D01*
X1355Y6628D01*
X1246Y6519D01*
X1186Y6377D01*
X1186Y6222D01*
X1245Y6080D01*
X1354Y5970D01*
X1497Y5911D01*
X1651Y5911D01*
X1794Y5970D01*
X1903Y6079D01*
X1962Y6222D01*
X1962Y6376D01*
X1962Y2108D01*
X1945Y2101D01*
X1836Y1992D01*
X1777Y1849D01*
X1777Y1695D01*
X1836Y1552D01*
X1945Y1443D01*
X2087Y1384D01*
X2242Y1383D01*
X2384Y1442D01*
X2494Y1551D01*
X2553Y1694D01*
X2553Y1848D01*
X2553Y346D01*
X1336Y346D01*
X1336Y2550D01*
X1336Y3928D01*
X1267Y4093D01*
X1141Y4220D01*
X975Y4288D01*
X796Y4289D01*
X631Y4220D01*
X504Y4094D01*
X436Y3928D01*
X435Y3749D01*
X504Y3584D01*
X630Y3457D01*
X796Y3389D01*
X975Y3388D01*
X1140Y3457D01*
X1267Y3583D01*
X1335Y3749D01*
X1336Y3928D01*
X1336Y2550D01*
X1267Y2715D01*
X1141Y2842D01*
X975Y2910D01*
X796Y2911D01*
X631Y2842D01*
X504Y2716D01*
X436Y2550D01*
X435Y2371D01*
X504Y2206D01*
X630Y2079D01*
X796Y2011D01*
X975Y2010D01*
X1140Y2079D01*
X1267Y2205D01*
X1335Y2371D01*
X1336Y2550D01*
X1336Y346D01*
X1103Y346D01*
X345Y1103D01*
X345Y18483D01*
X1201Y19340D01*
X5879Y19340D01*
X5878Y19183D01*
X5962Y18980D01*
X6117Y18826D01*
X6319Y18742D01*
X6537Y18741D01*
X6740Y18825D01*
X6894Y18980D01*
X6938Y19083D01*
X6938Y17865D01*
M02*
