G04 (created by PCBNEW-RS274X (2012-jan-04)-testing) date Wed 23 May 2012 23:15:24 BST*
G01*
G70*
G90*
%MOIN*%
G04 Gerber Fmt 3.4, Leading zero omitted, Abs format*
%FSLAX34Y34*%
G04 APERTURE LIST*
%ADD10C,0.006000*%
%ADD11C,0.015000*%
%ADD12R,0.020000X0.030000*%
%ADD13R,0.030000X0.020000*%
%ADD14R,0.028000X0.039000*%
%ADD15R,0.039000X0.028000*%
%ADD16R,0.060000X0.080000*%
%ADD17R,0.035000X0.055000*%
%ADD18R,0.055000X0.035000*%
%ADD19R,0.045000X0.070000*%
%ADD20R,0.040000X0.070000*%
%ADD21R,0.035000X0.070000*%
%ADD22C,0.039400*%
%ADD23C,0.060000*%
%ADD24R,0.050000X0.100000*%
%ADD25R,0.054300X0.017700*%
%ADD26R,0.074800X0.046300*%
%ADD27R,0.074800X0.093500*%
%ADD28R,0.082700X0.058100*%
%ADD29R,0.011800X0.047000*%
%ADD30R,0.047000X0.011800*%
%ADD31C,0.070000*%
%ADD32R,0.070000X0.070000*%
%ADD33R,0.080700X0.218500*%
%ADD34R,0.218500X0.080700*%
%ADD35R,0.011800X0.043300*%
%ADD36R,0.090600X0.122000*%
%ADD37O,0.039400X0.017700*%
%ADD38R,0.078700X0.100400*%
%ADD39R,0.100400X0.078700*%
%ADD40C,0.040000*%
%ADD41C,0.029500*%
%ADD42C,0.035400*%
%ADD43C,0.027600*%
%ADD44C,0.035000*%
%ADD45C,0.008000*%
%ADD46C,0.011800*%
%ADD47C,0.019700*%
%ADD48C,0.015700*%
%ADD49C,0.010000*%
G04 APERTURE END LIST*
G54D10*
G54D11*
X39369Y16733D02*
X39370Y16733D01*
X36417Y19685D02*
X39369Y16733D01*
X00984Y19685D02*
X00000Y18701D01*
X36417Y19685D02*
X00984Y19685D01*
X36417Y00000D02*
X39370Y02953D01*
X00000Y00984D02*
X00000Y00985D01*
X00984Y00000D02*
X00000Y00984D01*
X36417Y00000D02*
X00984Y00000D01*
X00000Y18701D02*
X00000Y00985D01*
X39370Y16733D02*
X39370Y02953D01*
G54D12*
X35056Y17120D03*
X35806Y17120D03*
X35056Y18120D03*
X35431Y17120D03*
X35806Y18120D03*
X09861Y17315D03*
X10611Y17315D03*
X09861Y18315D03*
X10236Y17315D03*
X10611Y18315D03*
X09725Y14477D03*
X08975Y14477D03*
X09725Y13477D03*
X09350Y14477D03*
X08975Y13477D03*
G54D13*
X31799Y15177D03*
X31799Y15927D03*
X30799Y15177D03*
X31799Y15552D03*
X30799Y15927D03*
G54D14*
X23917Y18287D03*
X23543Y17343D03*
X24291Y17343D03*
G54D15*
X36930Y06496D03*
X37874Y06122D03*
X37874Y06870D03*
X36930Y04922D03*
X37874Y04548D03*
X37874Y05296D03*
G54D16*
X28484Y12500D03*
X29784Y12500D03*
X29784Y11319D03*
X28484Y11319D03*
G54D17*
X07462Y13583D03*
X06712Y13583D03*
X36497Y10138D03*
X35747Y10138D03*
G54D18*
X27658Y12519D03*
X27658Y13269D03*
X26870Y12519D03*
X26870Y13269D03*
G54D17*
X02381Y05709D03*
X03131Y05709D03*
X36497Y07776D03*
X35747Y07776D03*
X35747Y08563D03*
X36497Y08563D03*
G54D18*
X33858Y11043D03*
X33858Y11793D03*
G54D17*
X36497Y09351D03*
X35747Y09351D03*
X03722Y00591D03*
X02972Y00591D03*
X36497Y10926D03*
X35747Y10926D03*
G54D18*
X38681Y06084D03*
X38681Y05334D03*
G54D17*
X37617Y07579D03*
X38367Y07579D03*
G54D18*
X36221Y06281D03*
X36221Y05531D03*
X08366Y09173D03*
X08366Y09923D03*
G54D17*
X28168Y14370D03*
X28918Y14370D03*
G54D18*
X08366Y08348D03*
X08366Y07598D03*
G54D17*
X06712Y12796D03*
X07462Y12796D03*
G54D18*
X01969Y12618D03*
X01969Y13368D03*
X08563Y05887D03*
X08563Y05137D03*
X07776Y05887D03*
X07776Y05137D03*
G54D17*
X16456Y02363D03*
X17206Y02363D03*
X01200Y08367D03*
X01950Y08367D03*
G54D18*
X11221Y10710D03*
X11221Y09960D03*
G54D17*
X02344Y00591D03*
X01594Y00591D03*
G54D18*
X06201Y02344D03*
X06201Y01594D03*
G54D17*
X05099Y00591D03*
X04349Y00591D03*
G54D18*
X11713Y18781D03*
X11713Y18031D03*
X22441Y18486D03*
X22441Y17736D03*
X11221Y08582D03*
X11221Y09332D03*
G54D10*
G36*
X36322Y02469D02*
X35933Y02858D01*
X36180Y03105D01*
X36569Y02716D01*
X36322Y02469D01*
X36322Y02469D01*
G37*
G36*
X36852Y02999D02*
X36463Y03388D01*
X36710Y03635D01*
X37099Y03246D01*
X36852Y02999D01*
X36852Y02999D01*
G37*
G54D18*
X25295Y13269D03*
X25295Y12519D03*
X26083Y13269D03*
X26083Y12519D03*
G54D17*
X34430Y18307D03*
X33680Y18307D03*
X34430Y17520D03*
X33680Y17520D03*
X11141Y16930D03*
X11891Y16930D03*
X02086Y19095D03*
X02836Y19095D03*
G54D18*
X07973Y17145D03*
X07973Y17895D03*
G54D17*
X06121Y17028D03*
X06871Y17028D03*
X36338Y14370D03*
X37088Y14370D03*
X37481Y15256D03*
X36731Y15256D03*
X13405Y02363D03*
X14155Y02363D03*
G54D18*
X16339Y17539D03*
X16339Y18289D03*
X15551Y17539D03*
X15551Y18289D03*
X14764Y17539D03*
X14764Y18289D03*
X13976Y17539D03*
X13976Y18289D03*
X13189Y17539D03*
X13189Y18289D03*
G54D17*
X30826Y16536D03*
X31576Y16536D03*
X12814Y00591D03*
X13564Y00591D03*
X21044Y00985D03*
X20294Y00985D03*
X37617Y03741D03*
X38367Y03741D03*
X31674Y14469D03*
X30924Y14469D03*
X12814Y04134D03*
X13564Y04134D03*
G54D18*
X17323Y18289D03*
X17323Y17539D03*
G54D17*
X35806Y16439D03*
X35056Y16439D03*
X03464Y19095D03*
X04214Y19095D03*
X07659Y18603D03*
X06909Y18603D03*
X35806Y18801D03*
X35056Y18801D03*
X06871Y17815D03*
X06121Y17815D03*
G54D18*
X04921Y13564D03*
X04921Y12814D03*
G54D17*
X07462Y12008D03*
X06712Y12008D03*
G54D10*
G36*
X06882Y05909D02*
X06493Y05520D01*
X06246Y05767D01*
X06635Y06156D01*
X06882Y05909D01*
X06882Y05909D01*
G37*
G36*
X06352Y06439D02*
X05963Y06050D01*
X05716Y06297D01*
X06105Y06686D01*
X06352Y06439D01*
X06352Y06439D01*
G37*
G54D18*
X04036Y05925D03*
X04036Y06675D03*
X07579Y10710D03*
X07579Y09960D03*
X07579Y09135D03*
X07579Y08385D03*
X04823Y05925D03*
X04823Y06675D03*
X03051Y12814D03*
X03051Y13564D03*
X03839Y12814D03*
X03839Y13564D03*
X36221Y04706D03*
X36221Y03956D03*
G54D17*
X07499Y03445D03*
X08249Y03445D03*
X01003Y05709D03*
X01753Y05709D03*
X01950Y09056D03*
X01200Y09056D03*
X01298Y10926D03*
X02048Y10926D03*
X01200Y09744D03*
X01950Y09744D03*
G54D18*
X10433Y13602D03*
X10433Y14352D03*
X09154Y18781D03*
X09154Y18031D03*
X08268Y14352D03*
X08268Y13602D03*
X09154Y16751D03*
X09154Y17501D03*
G54D17*
X21536Y17815D03*
X20786Y17815D03*
G54D18*
X20079Y17539D03*
X20079Y18289D03*
X19095Y18289D03*
X19095Y17539D03*
X18307Y18289D03*
X18307Y17539D03*
G54D19*
X33809Y10217D03*
X32825Y10217D03*
X31840Y10217D03*
X30856Y10217D03*
X29872Y10217D03*
X28888Y10217D03*
X27903Y10217D03*
X26919Y10217D03*
G54D20*
X26279Y10217D03*
G54D21*
X25768Y10217D03*
X25295Y10217D03*
G54D22*
X25589Y09154D03*
G54D23*
X33858Y09154D03*
G54D24*
X24606Y00599D03*
X24606Y09599D03*
X35630Y00599D03*
X34764Y09599D03*
G54D25*
X37752Y10355D03*
X37752Y09587D03*
X37752Y10099D03*
X37752Y09843D03*
G54D26*
X38799Y09513D03*
G54D27*
X38799Y10990D03*
X38799Y08696D03*
G54D26*
X38799Y10173D03*
G54D25*
X37752Y09331D03*
G54D28*
X37894Y08873D03*
X37894Y10813D03*
G54D29*
X15846Y04725D03*
X16042Y04725D03*
X16239Y04725D03*
X16436Y04725D03*
X16633Y04725D03*
X16830Y04725D03*
X17027Y04725D03*
X17224Y04725D03*
X17420Y04725D03*
X17617Y04725D03*
X17814Y04725D03*
X18011Y04725D03*
X18208Y04725D03*
X18405Y04725D03*
X18602Y04725D03*
X18798Y04725D03*
X18798Y09253D03*
X18602Y09253D03*
X18405Y09253D03*
X18208Y09253D03*
X18011Y09253D03*
X17814Y09253D03*
X17617Y09253D03*
X17420Y09253D03*
X17224Y09253D03*
X17027Y09253D03*
X16830Y09253D03*
X16633Y09253D03*
X16436Y09253D03*
X16239Y09253D03*
X16042Y09253D03*
X15846Y09253D03*
G54D30*
X19586Y05513D03*
X19586Y05709D03*
X19586Y05906D03*
X19586Y06103D03*
X19586Y06300D03*
X19586Y06497D03*
X19586Y06694D03*
X19586Y06891D03*
X19586Y07087D03*
X19586Y07284D03*
X19586Y07481D03*
X19586Y07678D03*
X19586Y07875D03*
X19586Y08072D03*
X19586Y08269D03*
X19586Y08465D03*
X15058Y08465D03*
X15058Y08269D03*
X15058Y08072D03*
X15058Y07875D03*
X15058Y07678D03*
X15058Y07481D03*
X15058Y07284D03*
X15058Y07087D03*
X15058Y06891D03*
X15058Y06694D03*
X15058Y06497D03*
X15058Y06300D03*
X15058Y06103D03*
X15058Y05906D03*
X15058Y05709D03*
X15058Y05513D03*
G54D29*
X03838Y08072D03*
X04035Y08072D03*
X04232Y08072D03*
X04429Y08072D03*
X04626Y08072D03*
X04823Y08072D03*
X05019Y08072D03*
X05216Y08072D03*
X05413Y08072D03*
X05610Y08072D03*
X05807Y08072D03*
X06004Y08072D03*
X06004Y11418D03*
X05807Y11418D03*
X05610Y11418D03*
X05413Y11418D03*
X05216Y11418D03*
X05019Y11418D03*
X04823Y11418D03*
X04626Y11418D03*
X04429Y11418D03*
X04232Y11418D03*
X04035Y11418D03*
X03838Y11418D03*
G54D30*
X06594Y08662D03*
X06594Y08859D03*
X06594Y09056D03*
X06594Y09253D03*
X06594Y09450D03*
X06594Y09647D03*
X06594Y09843D03*
X06594Y10040D03*
X06594Y10237D03*
X06594Y10434D03*
X06594Y10631D03*
X06594Y10828D03*
X03248Y10828D03*
X03248Y10631D03*
X03248Y10434D03*
X03248Y10237D03*
X03248Y10040D03*
X03248Y09843D03*
X03248Y09647D03*
X03248Y09450D03*
X03248Y09253D03*
X03248Y09056D03*
X03248Y08859D03*
X03248Y08662D03*
G54D31*
X35933Y15552D03*
X34933Y15552D03*
G54D32*
X07244Y02067D03*
G54D31*
X08244Y02067D03*
X09244Y02067D03*
X10244Y02067D03*
X11244Y02067D03*
X12244Y02067D03*
G54D33*
X09744Y07766D03*
X09744Y11526D03*
G54D34*
X18809Y00985D03*
X15049Y00985D03*
G54D23*
X21524Y19292D03*
X25461Y19292D03*
X10366Y19292D03*
X06429Y19292D03*
G54D35*
X16734Y12107D03*
X16930Y12107D03*
X17324Y12107D03*
X17521Y12107D03*
X17718Y12107D03*
X17915Y12107D03*
X18112Y12107D03*
X18309Y12107D03*
X18505Y12107D03*
X18702Y12107D03*
X18899Y12107D03*
X19096Y12107D03*
X19293Y12107D03*
X19490Y12107D03*
X16537Y12107D03*
X14174Y12107D03*
X14371Y12107D03*
X14568Y12107D03*
X14765Y12107D03*
X14962Y12107D03*
X15159Y12107D03*
X15355Y12107D03*
X15552Y12107D03*
X15749Y12107D03*
X15946Y12107D03*
X16143Y12107D03*
X17127Y12107D03*
X16340Y12107D03*
G54D36*
X20147Y12776D03*
X13517Y12776D03*
G54D10*
G36*
X20367Y04236D02*
X19978Y03847D01*
X19731Y04094D01*
X20120Y04483D01*
X20367Y04236D01*
X20367Y04236D01*
G37*
G36*
X19837Y04766D02*
X19448Y04377D01*
X19201Y04624D01*
X19590Y05013D01*
X19837Y04766D01*
X19837Y04766D01*
G37*
G36*
X20765Y09737D02*
X21154Y09348D01*
X20907Y09101D01*
X20518Y09490D01*
X20765Y09737D01*
X20765Y09737D01*
G37*
G36*
X20235Y09207D02*
X20624Y08818D01*
X20377Y08571D01*
X19988Y08960D01*
X20235Y09207D01*
X20235Y09207D01*
G37*
G54D17*
X14290Y09252D03*
X15040Y09252D03*
X12912Y05611D03*
X13662Y05611D03*
G54D10*
G36*
X21646Y04925D02*
X21257Y04536D01*
X21010Y04783D01*
X21399Y05172D01*
X21646Y04925D01*
X21646Y04925D01*
G37*
G36*
X21116Y05455D02*
X20727Y05066D01*
X20480Y05313D01*
X20869Y05702D01*
X21116Y05455D01*
X21116Y05455D01*
G37*
G54D17*
X14094Y04528D03*
X14844Y04528D03*
G54D15*
X33445Y15552D03*
X32501Y15926D03*
X32501Y15178D03*
G54D17*
X32598Y14469D03*
X33348Y14469D03*
G54D15*
X33051Y17815D03*
X32107Y18189D03*
X32107Y17441D03*
G54D18*
X09350Y05887D03*
X09350Y05137D03*
X10138Y05887D03*
X10138Y05137D03*
G54D17*
X32105Y18898D03*
X32855Y18898D03*
G54D37*
X15453Y03405D03*
X15453Y03091D03*
G54D38*
X01358Y01565D03*
X01358Y04735D03*
G54D39*
X05098Y03150D03*
G54D38*
X05098Y04538D03*
X05098Y01762D03*
G54D40*
X00886Y03839D03*
X00886Y02461D03*
G54D38*
X01358Y14951D03*
X01358Y18121D03*
G54D39*
X05098Y16536D03*
G54D38*
X05098Y17924D03*
X05098Y15148D03*
G54D40*
X00886Y17225D03*
X00886Y15847D03*
G54D41*
X07480Y00394D03*
X10433Y00394D03*
G54D10*
G36*
X37478Y03033D02*
X37950Y02561D01*
X37728Y02339D01*
X37256Y02811D01*
X37478Y03033D01*
X37478Y03033D01*
G37*
G36*
X36532Y02087D02*
X37004Y01615D01*
X36782Y01393D01*
X36310Y01865D01*
X36532Y02087D01*
X36532Y02087D01*
G37*
G54D41*
X37130Y02213D03*
G54D42*
X22637Y00591D03*
X23819Y00591D03*
G54D43*
X25295Y14961D03*
X27953Y05414D03*
X25000Y01575D03*
X23130Y14961D03*
X17028Y15256D03*
X14272Y15256D03*
X09941Y00985D03*
X27953Y08170D03*
X12599Y04823D03*
X27461Y01575D03*
X33880Y02963D03*
X21260Y10040D03*
X31880Y02963D03*
X24606Y11319D03*
X07382Y14469D03*
X06201Y03839D03*
X30880Y02963D03*
X09843Y02855D03*
X27953Y03741D03*
X27880Y02713D03*
X29880Y02963D03*
X06595Y15256D03*
X06791Y00985D03*
X32880Y02963D03*
X06693Y04922D03*
X08957Y14863D03*
X10236Y16831D03*
X10138Y14863D03*
X12362Y13622D03*
X11122Y14863D03*
X26083Y16930D03*
X26969Y16044D03*
X21358Y07382D03*
X24410Y06989D03*
X14370Y06201D03*
X24410Y06398D03*
X13189Y10827D03*
X12008Y10335D03*
X12008Y11221D03*
X13189Y11221D03*
X36811Y04036D03*
X21063Y08268D03*
X25099Y07874D03*
X34941Y03839D03*
X33465Y06989D03*
X33465Y06201D03*
X26280Y07678D03*
X13091Y07382D03*
X25099Y02756D03*
X23917Y18898D03*
X27067Y05709D03*
X30413Y06004D03*
X20768Y03347D03*
X23032Y03347D03*
X24606Y05709D03*
X21457Y02363D03*
X18012Y02461D03*
X15945Y02461D03*
X28642Y01575D03*
X14665Y01969D03*
X22638Y02166D03*
X22933Y04036D03*
X21358Y03937D03*
X19193Y13485D03*
X16536Y11418D03*
X18996Y13189D03*
X16240Y11615D03*
X13386Y13682D03*
X17421Y13682D03*
X16831Y11221D03*
X19488Y13682D03*
X17618Y13977D03*
X13976Y13977D03*
X15945Y03839D03*
X25984Y07874D03*
X26083Y09252D03*
X17126Y02953D03*
X19193Y09252D03*
X24705Y08367D03*
X19784Y09941D03*
X26870Y10926D03*
X31890Y11122D03*
X20177Y10138D03*
X24705Y08760D03*
X19587Y09548D03*
X25099Y08859D03*
X21358Y08563D03*
X35138Y10630D03*
X15748Y10532D03*
X15453Y10729D03*
X35138Y11024D03*
X14173Y05906D03*
X26575Y05512D03*
X26673Y15748D03*
X11319Y15256D03*
X09744Y16751D03*
X09744Y15256D03*
X26870Y06004D03*
X23327Y03937D03*
X24410Y06004D03*
X28937Y07284D03*
X28937Y06004D03*
X20965Y03642D03*
X11713Y01083D03*
X12402Y06693D03*
X11811Y06693D03*
X09547Y01280D03*
X23130Y05611D03*
X20079Y16241D03*
X21358Y05611D03*
X12697Y16241D03*
X21555Y15355D03*
X12599Y14272D03*
X22933Y04430D03*
X21654Y04233D03*
X23130Y06300D03*
X12697Y15748D03*
X21752Y06201D03*
X19488Y15847D03*
X21654Y06595D03*
X19291Y15552D03*
X22933Y06595D03*
X12992Y15453D03*
X11516Y07185D03*
X12697Y07382D03*
X12992Y16044D03*
X21555Y05906D03*
X19784Y16044D03*
X22933Y05906D03*
X36614Y17914D03*
X37303Y08170D03*
X37008Y17914D03*
X36516Y18307D03*
X35433Y17638D03*
X30856Y12559D03*
X21752Y04626D03*
X08760Y03445D03*
X20079Y18800D03*
X11910Y17520D03*
X13189Y04725D03*
X05413Y05611D03*
X35138Y11713D03*
X12795Y01182D03*
X18406Y03937D03*
X29134Y13091D03*
X13878Y08957D03*
X08169Y04725D03*
X36380Y00963D03*
X11221Y17520D03*
X08957Y04725D03*
X09744Y04725D03*
X37599Y14370D03*
X34744Y08760D03*
X07973Y12993D03*
X16339Y18800D03*
X24606Y12894D03*
X32185Y16536D03*
X15551Y18800D03*
X24606Y13386D03*
X21457Y00591D03*
X06890Y05512D03*
X05315Y13977D03*
X14370Y05512D03*
X15551Y09744D03*
X33957Y13780D03*
X14764Y18800D03*
X20473Y04626D03*
X03937Y14075D03*
X38681Y04725D03*
X24803Y18209D03*
X13976Y18800D03*
X35039Y17619D03*
X12500Y05611D03*
X25295Y00689D03*
X20177Y05315D03*
X04429Y08662D03*
X12992Y02461D03*
X12402Y04036D03*
X37303Y12304D03*
X37303Y11811D03*
X06004Y09351D03*
X11221Y09646D03*
X36516Y07185D03*
X11024Y14272D03*
X34449Y16437D03*
X08169Y10926D03*
X33465Y18996D03*
X37992Y03052D03*
X13189Y18800D03*
X16831Y12993D03*
X20177Y08367D03*
X04232Y01280D03*
X01280Y11516D03*
X00591Y05709D03*
X02756Y08268D03*
X04724Y19095D03*
X00787Y09056D03*
X02559Y10926D03*
G54D44*
X03838Y10138D03*
G54D43*
X06102Y18603D03*
X04331Y03150D03*
X29823Y14370D03*
X31102Y13091D03*
X32579Y10926D03*
X24095Y03229D03*
X32382Y03347D03*
X14469Y10729D03*
X13287Y08367D03*
X11969Y13229D03*
X11614Y14567D03*
X11969Y11811D03*
X07677Y14961D03*
X31201Y06300D03*
X32185Y03839D03*
X14469Y08563D03*
X27559Y06300D03*
X32776Y06103D03*
X14764Y10433D03*
X36122Y11615D03*
X33760Y03445D03*
X21063Y07579D03*
X26969Y07579D03*
X32284Y07874D03*
X13681Y06989D03*
X19882Y01772D03*
X34547Y01969D03*
X36614Y11516D03*
X37205Y06989D03*
X11122Y08071D03*
X07776Y04331D03*
X06988Y04331D03*
X06102Y05020D03*
X21260Y07973D03*
X30413Y03741D03*
X29232Y01575D03*
X13287Y07087D03*
X30906Y06004D03*
X20177Y01575D03*
X31299Y07874D03*
X33465Y12599D03*
G54D45*
X05019Y08072D02*
X05019Y08563D01*
X04823Y10927D02*
X04823Y11418D01*
X04823Y12206D02*
X04921Y12304D01*
X06594Y11890D02*
X06712Y12008D01*
X09725Y13269D02*
X09646Y13190D01*
X05019Y08563D02*
X05019Y10828D01*
X04724Y08563D02*
X05019Y08563D01*
X10433Y13602D02*
X09850Y13602D01*
X04626Y08072D02*
X04626Y07677D01*
X05019Y08072D02*
X05019Y07383D01*
X04823Y11418D02*
X04823Y12206D01*
X05019Y10828D02*
X04922Y10828D01*
X09646Y13190D02*
X08564Y13190D01*
X04036Y07087D02*
X04036Y06675D01*
X06594Y10828D02*
X06594Y11319D01*
X06594Y10828D02*
X05019Y10828D01*
X09725Y13477D02*
X09725Y13269D01*
X07874Y11319D02*
X06594Y11319D01*
X04921Y12304D02*
X04921Y12814D01*
X04626Y07677D02*
X04036Y07087D01*
X08564Y13190D02*
X08169Y12795D01*
X06594Y11319D02*
X06594Y11890D01*
X04626Y08465D02*
X04724Y08563D01*
X09850Y13602D02*
X09725Y13477D01*
X05019Y07383D02*
X06034Y06368D01*
X04922Y10828D02*
X04823Y10927D01*
X08169Y11614D02*
X07874Y11319D01*
X04626Y08072D02*
X04626Y08465D01*
X08169Y12795D02*
X08169Y11614D01*
X01950Y09744D02*
X02461Y09744D01*
X03641Y10630D02*
X03640Y10631D01*
X02343Y10631D02*
X02048Y10926D01*
X03740Y10630D02*
X04133Y10630D01*
X03641Y10630D02*
X03740Y10630D01*
X01181Y12500D02*
X02263Y11418D01*
X03248Y09253D02*
X02560Y09253D01*
X02264Y08564D02*
X02067Y08367D01*
X02067Y08367D02*
X01950Y08367D01*
X04132Y09548D02*
X03740Y09548D01*
X03248Y10631D02*
X02343Y10631D01*
X02558Y09647D02*
X03248Y09647D01*
X03543Y11122D02*
X03052Y11122D01*
X04133Y10630D02*
X04231Y10532D01*
X07480Y16634D02*
X05709Y14863D01*
X02560Y09253D02*
X02264Y08957D01*
X02461Y09744D02*
X02558Y09647D01*
X03739Y09548D02*
X03640Y09647D01*
X03740Y09351D02*
X03740Y09548D01*
X05512Y14469D02*
X02854Y14469D01*
X08366Y16634D02*
X07480Y16634D01*
X03640Y09647D02*
X03248Y09647D01*
X03642Y09253D02*
X03740Y09351D01*
X02263Y13878D02*
X02854Y14469D01*
X03740Y10925D02*
X03543Y11122D01*
X04231Y10532D02*
X04231Y09647D01*
X04231Y09647D02*
X04132Y09548D01*
X09395Y18781D02*
X09861Y18315D01*
X03740Y10925D02*
X03740Y10630D01*
X02264Y08957D02*
X02264Y08564D01*
X09154Y18781D02*
X08741Y18781D01*
X05709Y14863D02*
X05709Y14666D01*
X09154Y18781D02*
X09395Y18781D01*
X08741Y18781D02*
X08563Y18603D01*
X02756Y11418D02*
X03052Y11122D01*
X03740Y09548D02*
X03739Y09548D01*
X08563Y16831D02*
X08366Y16634D01*
X05709Y14666D02*
X05512Y14469D01*
X01575Y13878D02*
X01181Y13484D01*
X01181Y13484D02*
X01181Y12500D01*
X02263Y11418D02*
X02756Y11418D01*
X08563Y18603D02*
X08563Y16831D01*
X03248Y09253D02*
X03642Y09253D01*
X03640Y10631D02*
X03248Y10631D01*
X01575Y13878D02*
X02263Y13878D01*
G54D46*
X16929Y14764D02*
X16929Y15157D01*
G54D47*
X28642Y13485D02*
X30413Y13485D01*
X04940Y06675D02*
X06693Y04922D01*
X24213Y13879D02*
X24213Y12008D01*
G54D46*
X16929Y15157D02*
X17028Y15256D01*
G54D47*
X25295Y14961D02*
X26870Y16536D01*
G54D46*
X15041Y04725D02*
X14844Y04528D01*
G54D47*
X22441Y15650D02*
X23130Y14961D01*
G54D46*
X04823Y08072D02*
X04823Y06675D01*
G54D47*
X28484Y12954D02*
X28484Y12500D01*
G54D46*
X08661Y12500D02*
X08957Y12796D01*
G54D47*
X28169Y13269D02*
X28426Y13269D01*
G54D46*
X06693Y02658D02*
X06693Y01083D01*
X15041Y09253D02*
X15040Y09252D01*
X15846Y05512D02*
X15845Y05513D01*
G54D47*
X30413Y09744D02*
X28839Y08170D01*
X12895Y05119D02*
X12599Y04823D01*
X35532Y05512D02*
X35532Y06005D01*
G54D46*
X05610Y08957D02*
X05610Y09744D01*
X07462Y09843D02*
X07579Y09960D01*
X15845Y05513D02*
X15058Y05513D01*
G54D47*
X15453Y05119D02*
X14224Y05119D01*
X24213Y12008D02*
X24606Y11615D01*
X30413Y13485D02*
X30413Y09744D01*
X25099Y14765D02*
X24213Y13879D01*
X04823Y06675D02*
X04940Y06675D01*
X28839Y08170D02*
X27953Y08170D01*
X30217Y15354D02*
X30217Y16340D01*
X35532Y05512D02*
X35532Y04232D01*
X27953Y05020D02*
X27953Y05414D01*
X36251Y02787D02*
X35324Y02787D01*
G54D45*
X14371Y12894D02*
X14370Y12894D01*
G54D46*
X05708Y08859D02*
X05610Y08957D01*
X05610Y09744D02*
X05709Y09843D01*
X06594Y08859D02*
X06988Y08859D01*
G54D45*
X14370Y12894D02*
X14174Y12698D01*
G54D47*
X35532Y04232D02*
X35630Y04134D01*
G54D46*
X19882Y08465D02*
X20306Y08889D01*
G54D47*
X36715Y06281D02*
X36930Y06496D01*
G54D46*
X17126Y13584D02*
X16930Y13780D01*
X06594Y08859D02*
X05708Y08859D01*
X07579Y08385D02*
X08329Y08385D01*
X10827Y12796D02*
X11270Y13239D01*
G54D47*
X18798Y08465D02*
X18800Y08465D01*
G54D46*
X12500Y17422D02*
X13288Y16634D01*
X11418Y16339D02*
X12205Y16339D01*
G54D47*
X13662Y05611D02*
X13732Y05611D01*
X30880Y02963D02*
X31880Y02963D01*
G54D46*
X16930Y12501D02*
X17126Y12697D01*
G54D47*
X30413Y16536D02*
X26870Y16536D01*
G54D46*
X07462Y14389D02*
X07382Y14469D01*
G54D47*
X35532Y06005D02*
X35808Y06281D01*
G54D46*
X06890Y02855D02*
X06693Y02658D01*
G54D47*
X36221Y06281D02*
X36715Y06281D01*
X35630Y03445D02*
X35148Y02963D01*
X25000Y01575D02*
X27461Y01575D01*
G54D46*
X15846Y04725D02*
X15041Y04725D01*
G54D47*
X14272Y14764D02*
X14075Y14567D01*
X35324Y02787D02*
X35148Y02963D01*
G54D46*
X07462Y08385D02*
X07579Y08385D01*
G54D47*
X28426Y13269D02*
X28642Y13485D01*
X28169Y13269D02*
X28484Y12954D01*
X20571Y10040D02*
X19291Y08760D01*
X35808Y06281D02*
X36221Y06281D01*
G54D46*
X08329Y08385D02*
X08366Y08348D01*
X15847Y05512D02*
X18208Y05512D01*
G54D47*
X06201Y03839D02*
X06890Y03150D01*
X06890Y03150D02*
X06890Y02855D01*
X18800Y08465D02*
X19095Y08760D01*
X19095Y08760D02*
X19291Y08760D01*
X24606Y11615D02*
X24606Y11319D01*
X25099Y14765D02*
X25295Y14961D01*
G54D46*
X04429Y12402D02*
X04429Y13878D01*
G54D47*
X21536Y17815D02*
X22362Y17815D01*
X14272Y15256D02*
X14272Y15355D01*
G54D46*
X18208Y05512D02*
X18404Y05512D01*
G54D47*
X26870Y13269D02*
X26083Y13269D01*
G54D45*
X14174Y12698D02*
X14174Y12107D01*
G54D46*
X11713Y18031D02*
X12284Y18031D01*
X04429Y13878D02*
X04823Y14272D01*
X16930Y14763D02*
X16929Y14764D01*
G54D47*
X26083Y13269D02*
X25295Y13269D01*
X33858Y11793D02*
X33858Y12796D01*
G54D46*
X14272Y15355D02*
X14272Y15650D01*
X13288Y16634D02*
X14272Y15650D01*
X06693Y01083D02*
X06791Y00985D01*
G54D47*
X14272Y14764D02*
X14272Y15256D01*
X32880Y02963D02*
X33880Y02963D01*
G54D46*
X12500Y16634D02*
X13288Y16634D01*
G54D47*
X11270Y13436D02*
X12500Y14666D01*
G54D46*
X15846Y09253D02*
X15041Y09253D01*
G54D47*
X33880Y02963D02*
X35148Y02963D01*
X15846Y05512D02*
X15453Y05119D01*
X30217Y16340D02*
X30413Y16536D01*
X30413Y16536D02*
X30826Y16536D01*
G54D46*
X12500Y17815D02*
X12284Y18031D01*
G54D47*
X27880Y02713D02*
X28130Y02963D01*
G54D46*
X08661Y11023D02*
X08661Y12500D01*
X08957Y12796D02*
X10827Y12796D01*
X06791Y00985D02*
X09941Y00985D01*
G54D47*
X19519Y04695D02*
X18553Y05661D01*
G54D46*
X04626Y12205D02*
X04429Y12402D01*
X07579Y09960D02*
X07598Y09960D01*
X05709Y09843D02*
X06594Y09843D01*
G54D47*
X14174Y14666D02*
X14272Y14764D01*
G54D46*
X06595Y15256D02*
X06595Y15257D01*
X11418Y16339D02*
X07677Y16339D01*
G54D47*
X14224Y05119D02*
X12895Y05119D01*
X29880Y02963D02*
X30880Y02963D01*
G54D46*
X18404Y05512D02*
X18553Y05661D01*
G54D47*
X12500Y14666D02*
X14174Y14666D01*
G54D46*
X06595Y15257D02*
X07677Y16339D01*
G54D45*
X14371Y14271D02*
X14075Y14567D01*
G54D47*
X27953Y05020D02*
X27953Y03741D01*
X21260Y10040D02*
X20571Y10040D01*
G54D46*
X18553Y05661D02*
X18798Y05906D01*
X18798Y05906D02*
X18798Y08465D01*
G54D47*
X27658Y13269D02*
X28169Y13269D01*
X11270Y13239D02*
X11270Y13436D01*
G54D46*
X18553Y05660D02*
X18553Y05661D01*
G54D45*
X14371Y12107D02*
X14371Y12894D01*
G54D46*
X07598Y09960D02*
X08661Y11023D01*
X06988Y08859D02*
X07462Y08385D01*
X16930Y13780D02*
X16930Y14763D01*
G54D47*
X26870Y13269D02*
X27658Y13269D01*
X22441Y17736D02*
X22441Y15650D01*
G54D46*
X18208Y04725D02*
X18208Y05512D01*
G54D47*
X30799Y15177D02*
X30394Y15177D01*
G54D46*
X07462Y13583D02*
X07462Y14389D01*
G54D47*
X15847Y05512D02*
X15846Y05512D01*
G54D46*
X15846Y08760D02*
X15846Y09253D01*
X12205Y16339D02*
X12500Y16634D01*
G54D47*
X22362Y17815D02*
X22441Y17736D01*
X30413Y13485D02*
X33169Y13485D01*
X33169Y13485D02*
X33858Y12796D01*
G54D46*
X19586Y05906D02*
X20276Y05906D01*
X17126Y12697D02*
X17126Y13584D01*
X16930Y12107D02*
X16930Y12501D01*
X15846Y04725D02*
X15846Y05512D01*
X18798Y08465D02*
X16141Y08465D01*
X12500Y17422D02*
X12500Y17815D01*
X20276Y05906D02*
X20798Y05384D01*
X05610Y14272D02*
X06595Y15257D01*
X04626Y11418D02*
X04626Y12205D01*
G54D47*
X30394Y15177D02*
X30217Y15354D01*
X13732Y05611D02*
X14224Y05119D01*
X09843Y02855D02*
X06890Y02855D01*
G54D46*
X18798Y05906D02*
X19586Y05906D01*
G54D45*
X14371Y12894D02*
X14371Y14271D01*
G54D47*
X25295Y13269D02*
X25295Y14961D01*
X29880Y02963D02*
X28130Y02963D01*
G54D46*
X04823Y14272D02*
X05610Y14272D01*
G54D47*
X35630Y04134D02*
X35630Y03445D01*
X31880Y02963D02*
X32880Y02963D01*
G54D46*
X19586Y08465D02*
X19882Y08465D01*
X16141Y08465D02*
X15846Y08760D01*
X06594Y09843D02*
X07462Y09843D01*
X18798Y08465D02*
X19586Y08465D01*
X25461Y19292D02*
X23247Y19292D01*
X23247Y19292D02*
X22441Y18486D01*
X11202Y19292D02*
X11713Y18781D01*
X10366Y19292D02*
X11202Y19292D01*
G54D45*
X13976Y06891D02*
X15058Y06891D01*
X12894Y06693D02*
X12303Y07284D01*
X10611Y17315D02*
X10611Y17206D01*
X12500Y12698D02*
X12500Y13484D01*
X10827Y16930D02*
X11141Y16930D01*
X12500Y13484D02*
X12362Y13622D01*
X10138Y14863D02*
X11122Y14863D01*
X08957Y14863D02*
X08975Y14845D01*
X12303Y09744D02*
X12303Y07284D01*
X10611Y17146D02*
X10827Y16930D01*
X12500Y12698D02*
X12500Y12698D01*
X12500Y09941D02*
X12500Y12698D01*
X10611Y17315D02*
X10611Y17146D01*
X08975Y14845D02*
X08975Y14477D01*
X13976Y06889D02*
X13780Y06693D01*
X12500Y09941D02*
X12303Y09744D01*
X13976Y06891D02*
X13976Y06889D01*
X10611Y17206D02*
X10236Y16831D01*
X13780Y06693D02*
X12894Y06693D01*
X24311Y07088D02*
X24311Y07284D01*
X26083Y16930D02*
X26181Y16832D01*
X26181Y16831D02*
X27027Y17677D01*
X27461Y15552D02*
X26969Y16044D01*
X27461Y15552D02*
X27461Y14567D01*
X27658Y14370D02*
X28168Y14370D01*
X27461Y14567D02*
X27658Y14370D01*
X21260Y07284D02*
X21358Y07382D01*
X19586Y07284D02*
X21260Y07284D01*
X32107Y18896D02*
X32105Y18898D01*
X23228Y13878D02*
X26181Y16831D01*
X28051Y17677D02*
X31358Y17677D01*
X24016Y11418D02*
X23228Y12206D01*
X31870Y18189D02*
X32107Y18189D01*
X31870Y18189D02*
X31358Y17677D01*
X27027Y17677D02*
X28051Y17677D01*
X32107Y18189D02*
X32107Y18896D01*
X24016Y07579D02*
X24016Y11418D01*
X23228Y12206D02*
X23228Y13878D01*
X24311Y07284D02*
X24016Y07579D01*
X26181Y16831D02*
X26181Y16832D01*
X24410Y06989D02*
X24311Y07088D01*
X23425Y13780D02*
X27165Y17520D01*
X14468Y06103D02*
X14370Y06201D01*
X27165Y17520D02*
X31398Y17520D01*
X34842Y17028D02*
X31890Y17028D01*
X24705Y06693D02*
X24410Y06398D01*
X24213Y07678D02*
X24213Y11516D01*
X14468Y06103D02*
X15058Y06103D01*
X24213Y11516D02*
X23425Y12304D01*
X31890Y17028D02*
X31398Y17520D01*
X24705Y07186D02*
X24213Y07678D01*
X35056Y17120D02*
X34934Y17120D01*
X24705Y07186D02*
X24705Y06693D01*
X34934Y17120D02*
X34842Y17028D01*
X23425Y12304D02*
X23425Y13780D01*
X10244Y02468D02*
X10244Y02067D01*
X11516Y03740D02*
X10244Y02468D01*
X16830Y09942D02*
X15748Y11024D01*
X13386Y11024D02*
X13189Y10827D01*
X15748Y11024D02*
X13386Y11024D01*
X16830Y09253D02*
X16830Y09942D01*
X12008Y10335D02*
X11910Y10237D01*
X11910Y07185D02*
X11909Y07185D01*
X11909Y07185D02*
X11516Y06792D01*
X11910Y10237D02*
X11910Y07185D01*
X11516Y06792D02*
X11516Y03740D01*
X12106Y09843D02*
X12106Y06496D01*
X17027Y09253D02*
X17027Y10041D01*
X16141Y10926D02*
X15846Y11221D01*
X16142Y10926D02*
X16141Y10926D01*
X11910Y04234D02*
X11910Y03248D01*
X12008Y04332D02*
X11910Y04234D01*
X12303Y10532D02*
X12303Y10040D01*
X12303Y10040D02*
X12106Y09843D01*
X12008Y10827D02*
X12303Y10532D01*
X12008Y06398D02*
X12008Y04332D01*
X12106Y06496D02*
X12008Y06398D01*
X11244Y02582D02*
X11244Y02067D01*
X17027Y10041D02*
X16142Y10926D01*
X11910Y03248D02*
X11244Y02582D01*
X15846Y11221D02*
X13189Y11221D01*
X12008Y11221D02*
X12008Y10827D01*
X36731Y03956D02*
X36221Y03956D01*
X19586Y07875D02*
X20670Y07875D01*
X20670Y07875D02*
X21063Y08268D01*
X29135Y06989D02*
X29331Y07185D01*
X28543Y07284D02*
X28838Y06989D01*
X33269Y07185D02*
X33465Y06989D01*
X36811Y04036D02*
X36731Y03956D01*
X25395Y08170D02*
X26378Y08170D01*
X29331Y07185D02*
X33269Y07185D01*
X34941Y04725D02*
X34941Y03839D01*
X26378Y08170D02*
X26575Y07973D01*
X26575Y07579D02*
X26870Y07284D01*
X28838Y06989D02*
X29135Y06989D01*
X25099Y07874D02*
X25395Y08170D01*
X26575Y07973D02*
X26575Y07579D01*
X33465Y06201D02*
X34941Y04725D01*
X26870Y07284D02*
X28543Y07284D01*
X13190Y07481D02*
X13091Y07382D01*
X26181Y05413D02*
X26181Y05414D01*
X26181Y07382D02*
X26181Y07579D01*
X15058Y07481D02*
X13190Y07481D01*
X25099Y04331D02*
X26181Y05413D01*
X26181Y07579D02*
X26280Y07678D01*
X26181Y07382D02*
X26181Y05414D01*
X25099Y02756D02*
X25099Y04331D01*
G54D46*
X23917Y18898D02*
X23917Y18287D01*
G54D45*
X30118Y05709D02*
X30413Y06004D01*
X27067Y05709D02*
X30118Y05709D01*
X18405Y04725D02*
X18405Y04331D01*
X20669Y03248D02*
X20768Y03347D01*
X23130Y03347D02*
X23622Y03839D01*
X18406Y04331D02*
X19489Y03248D01*
X23622Y03839D02*
X23622Y04823D01*
X24508Y05709D02*
X24606Y05709D01*
X23622Y04823D02*
X24508Y05709D01*
X23032Y03347D02*
X23130Y03347D01*
X19489Y03248D02*
X20669Y03248D01*
X18405Y04331D02*
X18406Y04331D01*
X36781Y03317D02*
X37106Y03642D01*
X22638Y02166D02*
X24370Y02166D01*
X35040Y01280D02*
X28937Y01280D01*
X37106Y03642D02*
X37518Y03642D01*
X36781Y02529D02*
X36781Y03317D01*
X17027Y04725D02*
X17027Y03643D01*
X28937Y01280D02*
X28642Y01575D01*
X15945Y02461D02*
X15453Y01969D01*
X36657Y02405D02*
X36781Y02529D01*
X24666Y01870D02*
X28347Y01870D01*
X18012Y02461D02*
X17914Y02559D01*
X37518Y03642D02*
X37617Y03741D01*
X17914Y02559D02*
X17914Y02756D01*
X21358Y02264D02*
X21457Y02363D01*
X18012Y02461D02*
X18209Y02264D01*
X36657Y01740D02*
X36657Y02405D01*
X15453Y01969D02*
X14665Y01969D01*
X35500Y01740D02*
X35040Y01280D01*
X17027Y03643D02*
X17914Y02756D01*
X36657Y01740D02*
X35500Y01740D01*
X24370Y02166D02*
X24666Y01870D01*
X28347Y01870D02*
X28642Y01575D01*
X18209Y02264D02*
X21358Y02264D01*
X20570Y03937D02*
X20275Y03642D01*
X23819Y11320D02*
X23032Y12107D01*
X18798Y04725D02*
X18798Y04628D01*
X23032Y12107D02*
X23032Y13978D01*
X24114Y05906D02*
X23228Y05020D01*
X23032Y13978D02*
X23721Y14667D01*
X21358Y03937D02*
X20570Y03937D01*
X24114Y07186D02*
X23819Y07481D01*
X23032Y04036D02*
X22933Y04036D01*
X19784Y03642D02*
X20275Y03642D01*
X18798Y04628D02*
X19784Y03642D01*
X23228Y04232D02*
X23032Y04036D01*
X23543Y17343D02*
X23721Y17165D01*
X23228Y05020D02*
X23228Y04232D01*
X24114Y05906D02*
X24114Y07186D01*
X23721Y14667D02*
X23721Y17165D01*
X23819Y07481D02*
X23819Y11320D01*
X17420Y10238D02*
X16536Y11122D01*
X19193Y13485D02*
X19293Y13385D01*
X17420Y09253D02*
X17420Y10238D01*
X19293Y13385D02*
X19293Y12107D01*
X16536Y11122D02*
X16536Y11418D01*
X22047Y11320D02*
X22638Y10729D01*
X21161Y02461D02*
X22638Y03938D01*
X18505Y11811D02*
X18898Y11418D01*
X18504Y02461D02*
X21161Y02461D01*
X18505Y12107D02*
X18505Y11811D01*
X18898Y11418D02*
X21949Y11418D01*
X22638Y03938D02*
X22638Y10729D01*
X17224Y03741D02*
X17224Y04725D01*
X17224Y03741D02*
X18504Y02461D01*
X21949Y11418D02*
X22047Y11320D01*
X22441Y10630D02*
X21850Y11221D01*
X17420Y03841D02*
X18406Y02855D01*
X18406Y02855D02*
X18406Y02854D01*
X18602Y02658D02*
X21063Y02658D01*
X22441Y04036D02*
X22441Y10630D01*
X18406Y02854D02*
X18602Y02658D01*
X21063Y02658D02*
X22441Y04036D01*
X17420Y04725D02*
X17420Y03841D01*
X18799Y11221D02*
X18309Y11711D01*
X18309Y11711D02*
X18309Y12107D01*
X21850Y11221D02*
X18799Y11221D01*
X21752Y11024D02*
X18701Y11024D01*
X17617Y03939D02*
X18701Y02855D01*
X18112Y11613D02*
X18112Y12107D01*
X18701Y02855D02*
X20965Y02855D01*
X20965Y02855D02*
X22244Y04134D01*
X22244Y10532D02*
X21752Y11024D01*
X17617Y04725D02*
X17617Y03939D01*
X18701Y11024D02*
X18112Y11613D01*
X22244Y04134D02*
X22244Y10532D01*
X18602Y03248D02*
X18603Y03248D01*
X17814Y04036D02*
X17814Y04725D01*
X18603Y03248D02*
X18799Y03052D01*
X18602Y10827D02*
X21653Y10827D01*
X22047Y04233D02*
X22047Y10433D01*
X17915Y12107D02*
X17915Y11514D01*
X18799Y03052D02*
X20866Y03052D01*
X17915Y11514D02*
X18602Y10827D01*
X17814Y04036D02*
X18602Y03248D01*
X20866Y03052D02*
X22047Y04233D01*
X21653Y10827D02*
X22047Y10433D01*
X21850Y10335D02*
X21555Y10630D01*
X17718Y11417D02*
X17718Y12107D01*
X21556Y06891D02*
X21850Y07185D01*
X21555Y10630D02*
X18505Y10630D01*
X19586Y06891D02*
X21556Y06891D01*
X21850Y07185D02*
X21850Y10335D01*
X18505Y10630D02*
X17718Y11417D01*
X21654Y07284D02*
X21654Y10236D01*
X17521Y11318D02*
X18406Y10433D01*
X18406Y10433D02*
X21457Y10433D01*
X21457Y07087D02*
X21654Y07284D01*
X21654Y10236D02*
X21457Y10433D01*
X19586Y07087D02*
X21457Y07087D01*
X17521Y12107D02*
X17521Y11318D01*
X17324Y12107D02*
X17324Y11219D01*
X18011Y09253D02*
X18011Y10532D01*
X17324Y11219D02*
X18011Y10532D01*
X17127Y11121D02*
X17127Y12107D01*
X17814Y10434D02*
X17127Y11121D01*
X17814Y09253D02*
X17814Y10434D01*
X16240Y11615D02*
X16240Y11122D01*
X17224Y10138D02*
X17224Y09253D01*
X17224Y10138D02*
X16240Y11122D01*
X19096Y12107D02*
X19096Y13089D01*
X19096Y13089D02*
X18996Y13189D01*
X18702Y12107D02*
X18702Y12499D01*
X13189Y08072D02*
X13188Y08072D01*
X13188Y08072D02*
X12697Y08563D01*
X18702Y12499D02*
X17520Y13681D01*
X12894Y13485D02*
X13091Y13682D01*
X17422Y13681D02*
X17520Y13681D01*
X12894Y09745D02*
X12697Y09548D01*
X13189Y08072D02*
X13484Y08072D01*
X17421Y13682D02*
X17422Y13681D01*
X12697Y08859D02*
X12697Y09548D01*
X12697Y08859D02*
X12697Y08563D01*
X13386Y13682D02*
X13091Y13682D01*
X12894Y13485D02*
X12894Y09745D01*
X15058Y08072D02*
X13484Y08072D01*
X19488Y13682D02*
X19490Y13680D01*
X16831Y11221D02*
X16831Y11122D01*
X17617Y10337D02*
X17617Y09253D01*
X17617Y10337D02*
X16832Y11122D01*
X16832Y11122D02*
X16831Y11122D01*
X19490Y13680D02*
X19490Y12107D01*
X12697Y13583D02*
X13091Y13977D01*
X13091Y13977D02*
X13976Y13977D01*
X12697Y09842D02*
X12500Y09645D01*
X13385Y07875D02*
X13091Y07875D01*
X12500Y08760D02*
X12500Y09645D01*
X12500Y08465D02*
X13090Y07875D01*
X18899Y12598D02*
X18899Y12107D01*
X13090Y07875D02*
X13091Y07874D01*
X15058Y07875D02*
X13385Y07875D01*
X18898Y12697D02*
X18898Y12599D01*
X12500Y08465D02*
X12500Y08760D01*
X12697Y09842D02*
X12697Y13583D01*
X13091Y07874D02*
X13091Y07875D01*
X17618Y13977D02*
X18898Y12697D01*
X18898Y12599D02*
X18899Y12598D01*
X25768Y09666D02*
X26083Y09351D01*
X17618Y02461D02*
X18012Y02067D01*
X22540Y03052D02*
X21555Y02067D01*
X25768Y11103D02*
X26083Y11418D01*
X23524Y03052D02*
X25886Y05414D01*
X16042Y04725D02*
X16042Y03936D01*
X17618Y02658D02*
X17618Y02461D01*
X18012Y02067D02*
X21555Y02067D01*
X17323Y02953D02*
X17618Y02658D01*
X17126Y02953D02*
X17323Y02953D01*
X16042Y03936D02*
X15945Y03839D01*
X23524Y03052D02*
X22540Y03052D01*
X25984Y07874D02*
X25984Y05512D01*
X25984Y05512D02*
X25886Y05414D01*
X26083Y11418D02*
X26083Y12519D01*
X25768Y10217D02*
X25768Y11103D01*
X26083Y09351D02*
X26083Y09252D01*
X25768Y10217D02*
X25768Y09666D01*
X24705Y08367D02*
X26673Y08367D01*
X19192Y09253D02*
X18798Y09253D01*
X32776Y10168D02*
X32825Y10217D01*
X31791Y08760D02*
X31791Y08759D01*
X30807Y07776D02*
X27264Y07776D01*
X32776Y09745D02*
X32776Y10168D01*
X32776Y09745D02*
X31791Y08760D01*
X19192Y09253D02*
X19193Y09252D01*
X31103Y08071D02*
X31102Y08071D01*
X27264Y07776D02*
X26673Y08367D01*
X31102Y08071D02*
X30807Y07776D01*
X31103Y08071D02*
X31791Y08759D01*
X18405Y09646D02*
X18405Y09253D01*
X18405Y09646D02*
X18406Y09646D01*
X26870Y11023D02*
X27658Y11811D01*
X27658Y11811D02*
X27658Y12519D01*
X26870Y10926D02*
X26870Y10266D01*
X18701Y09941D02*
X19784Y09941D01*
X26919Y10217D02*
X26870Y10266D01*
X26870Y10926D02*
X26870Y11023D01*
X18406Y09646D02*
X18701Y09941D01*
X18208Y09744D02*
X18602Y10138D01*
X31890Y11122D02*
X31840Y11072D01*
X19587Y10237D02*
X20078Y10237D01*
X18602Y10138D02*
X19488Y10138D01*
X20078Y10237D02*
X20177Y10138D01*
X31840Y10217D02*
X31840Y11072D01*
X18208Y09253D02*
X18208Y09744D01*
X19488Y10138D02*
X19587Y10237D01*
G54D47*
X29784Y11319D02*
X29784Y10305D01*
X29784Y10305D02*
X29872Y10217D01*
X29784Y12500D02*
X29784Y11319D01*
G54D45*
X28888Y09301D02*
X28888Y10217D01*
X19391Y09744D02*
X18799Y09744D01*
X24705Y08760D02*
X24902Y08563D01*
X18602Y09253D02*
X18602Y09547D01*
X19587Y09548D02*
X19391Y09744D01*
X24902Y08563D02*
X28150Y08563D01*
X28150Y08563D02*
X28888Y09301D01*
X18799Y09744D02*
X18602Y09547D01*
X25099Y09449D02*
X25099Y08859D01*
X25295Y09645D02*
X25099Y09449D01*
X20965Y08563D02*
X21358Y08563D01*
X25295Y09645D02*
X25295Y10217D01*
X25295Y10217D02*
X25295Y12519D01*
X19586Y08072D02*
X20474Y08072D01*
X20474Y08072D02*
X20965Y08563D01*
X16633Y09253D02*
X16633Y09844D01*
X16633Y09844D02*
X15945Y10532D01*
X15945Y10532D02*
X15748Y10532D01*
X35236Y10532D02*
X35236Y09862D01*
X35236Y09862D02*
X35747Y09351D01*
X35138Y10630D02*
X35236Y10532D01*
X16240Y09941D02*
X16240Y09942D01*
X15453Y10433D02*
X15453Y10729D01*
X15649Y10237D02*
X15453Y10433D01*
X16240Y09942D02*
X15945Y10237D01*
X16436Y09745D02*
X16240Y09941D01*
X16436Y09253D02*
X16436Y09745D01*
X35236Y10926D02*
X35138Y11024D01*
X35747Y10926D02*
X35747Y10138D01*
X15945Y10237D02*
X15649Y10237D01*
X35747Y10926D02*
X35236Y10926D01*
X15058Y05906D02*
X14173Y05906D01*
X26969Y06595D02*
X34566Y06595D01*
X26575Y05512D02*
X26575Y06201D01*
X26575Y06201D02*
X26969Y06595D01*
X35747Y08563D02*
X35747Y07776D01*
X35747Y07776D02*
X34566Y06595D01*
G54D47*
X33071Y15059D02*
X34351Y15059D01*
X35145Y14764D02*
X35933Y15552D01*
X32598Y14469D02*
X32598Y15081D01*
X09744Y15256D02*
X11319Y15256D01*
X32598Y15081D02*
X32501Y15178D01*
X27461Y13878D02*
X27165Y14174D01*
X08759Y15256D02*
X09744Y15256D01*
X27165Y15256D02*
X27165Y14568D01*
X35933Y16312D02*
X35806Y16439D01*
X30513Y13878D02*
X27461Y13878D01*
X31674Y15052D02*
X31799Y15177D01*
X09744Y16751D02*
X09762Y16751D01*
X09744Y16751D02*
X09154Y16751D01*
X32952Y15178D02*
X33071Y15059D01*
X34646Y14764D02*
X35145Y14764D01*
X31674Y14469D02*
X31674Y14253D01*
X26673Y15748D02*
X27165Y15256D01*
X31674Y14469D02*
X31674Y15052D01*
X09861Y16850D02*
X09762Y16751D01*
X09725Y14477D02*
X09725Y15256D01*
X09861Y17315D02*
X09861Y16850D01*
X34351Y15059D02*
X34646Y14764D01*
X31799Y15177D02*
X32500Y15177D01*
X08268Y14352D02*
X08268Y14765D01*
X35933Y15552D02*
X35933Y16312D01*
X37481Y15866D02*
X37481Y15256D01*
X36908Y16439D02*
X37481Y15866D01*
X08268Y14765D02*
X08759Y15256D01*
X27165Y14174D02*
X27165Y14568D01*
X31674Y14253D02*
X31299Y13878D01*
X09744Y15256D02*
X09725Y15256D01*
X35806Y16439D02*
X36908Y16439D01*
X31299Y13878D02*
X30513Y13878D01*
X32501Y15178D02*
X32952Y15178D01*
X32500Y15177D02*
X32501Y15178D01*
G54D45*
X24410Y05906D02*
X24410Y06004D01*
X34350Y11811D02*
X36338Y13799D01*
X34350Y11418D02*
X34350Y11811D01*
X20669Y03642D02*
X20965Y03642D01*
X20472Y03445D02*
X20669Y03642D01*
X26870Y06004D02*
X28937Y06004D01*
X36338Y14370D02*
X36338Y13799D01*
X34350Y11418D02*
X34350Y08465D01*
X33267Y07382D02*
X29035Y07382D01*
X18602Y04430D02*
X19587Y03445D01*
X36731Y15256D02*
X36731Y14763D01*
X23425Y04035D02*
X23425Y04921D01*
X36731Y14763D02*
X36338Y14370D01*
X18602Y04725D02*
X18602Y04430D01*
X19587Y03445D02*
X20472Y03445D01*
X23327Y03937D02*
X23425Y04035D01*
X34350Y08465D02*
X33267Y07382D01*
X29035Y07382D02*
X28937Y07284D01*
X23425Y04921D02*
X24410Y05906D01*
X15058Y06300D02*
X14665Y06300D01*
X15058Y06497D02*
X14468Y06497D01*
X14665Y06300D02*
X14468Y06497D01*
X14468Y06497D02*
X14173Y06497D01*
X11755Y01125D02*
X11755Y02700D01*
X12402Y06300D02*
X13976Y06300D01*
X12402Y06300D02*
X12205Y06103D01*
X12106Y04134D02*
X12205Y04233D01*
X11713Y01083D02*
X11755Y01125D01*
X11755Y02700D02*
X12106Y03051D01*
X13976Y06300D02*
X14173Y06497D01*
X12106Y03051D02*
X12106Y04134D01*
X12205Y06103D02*
X12205Y04233D01*
X13878Y06496D02*
X12599Y06496D01*
X15058Y06694D02*
X14075Y06694D01*
X14075Y06693D02*
X13878Y06496D01*
X12599Y06496D02*
X12402Y06693D01*
X14075Y06694D02*
X14075Y06693D01*
X10728Y01574D02*
X10532Y01378D01*
X11713Y03544D02*
X10728Y02559D01*
X11713Y04331D02*
X11713Y03544D01*
X09645Y01378D02*
X09547Y01280D01*
X10728Y02559D02*
X10728Y01574D01*
X10532Y01378D02*
X09645Y01378D01*
X11811Y06693D02*
X11811Y04429D01*
X11811Y04429D02*
X11713Y04331D01*
X23130Y05611D02*
X23326Y05807D01*
X22638Y11910D02*
X23425Y11123D01*
X08661Y12993D02*
X10729Y12993D01*
X12402Y14961D02*
X11024Y13583D01*
X07284Y11122D02*
X07972Y11122D01*
X07972Y11122D02*
X08366Y11516D01*
X12795Y16339D02*
X13287Y16339D01*
X13583Y16043D02*
X13583Y15257D01*
X13287Y16339D02*
X13583Y16043D01*
X12697Y16241D02*
X12795Y16339D01*
X13287Y14961D02*
X12402Y14961D01*
X22638Y13878D02*
X22638Y11910D01*
X23425Y07284D02*
X23425Y11123D01*
X08366Y11516D02*
X08366Y12698D01*
X13583Y15257D02*
X13287Y14961D01*
X22638Y13878D02*
X20374Y16142D01*
X23721Y06201D02*
X23721Y06988D01*
X06890Y10631D02*
X07087Y10828D01*
X20178Y16142D02*
X20079Y16241D01*
X07087Y10828D02*
X07087Y10925D01*
X23327Y05807D02*
X23721Y06201D01*
X21162Y05807D02*
X21358Y05611D01*
X10729Y12993D02*
X11024Y13288D01*
X23721Y06988D02*
X23425Y07284D01*
X06594Y10631D02*
X06890Y10631D01*
X23326Y05807D02*
X23327Y05807D01*
X07087Y10925D02*
X07284Y11122D01*
X11024Y13583D02*
X11024Y13288D01*
X20374Y16142D02*
X20178Y16142D01*
X20865Y06103D02*
X21161Y05807D01*
X08366Y12698D02*
X08661Y12993D01*
X20865Y06103D02*
X19586Y06103D01*
X21161Y05807D02*
X21162Y05807D01*
X21259Y04233D02*
X21654Y04233D01*
X23917Y07087D02*
X23917Y06004D01*
X07677Y04036D02*
X07185Y04528D01*
X22835Y12008D02*
X23622Y11221D01*
X21850Y14962D02*
X21556Y15256D01*
X23622Y07382D02*
X23622Y11221D01*
X22835Y13976D02*
X22835Y12008D01*
X21555Y15355D02*
X21556Y15354D01*
X23917Y07087D02*
X23622Y07382D01*
X05217Y07481D02*
X05808Y06890D01*
X11713Y12697D02*
X11713Y13386D01*
X06201Y06890D02*
X07185Y05906D01*
X11713Y08268D02*
X11712Y08268D01*
X22835Y13976D02*
X21850Y14961D01*
X11713Y12697D02*
X11713Y08268D01*
X21556Y15256D02*
X21556Y15354D01*
X20078Y04922D02*
X20570Y04922D01*
X11713Y13386D02*
X12599Y14272D01*
X22933Y04430D02*
X22933Y05020D01*
X11024Y04233D02*
X10827Y04036D01*
X05216Y08072D02*
X05216Y07481D01*
X10827Y04036D02*
X07677Y04036D01*
X19586Y05414D02*
X19586Y05513D01*
X11024Y07580D02*
X11024Y04233D01*
X05216Y07481D02*
X05217Y07481D01*
X05808Y06890D02*
X06201Y06890D01*
X11712Y08268D02*
X11024Y07580D01*
X21850Y14961D02*
X21850Y14962D01*
X07185Y05906D02*
X07185Y04528D01*
X20570Y04922D02*
X21259Y04233D01*
X22933Y05020D02*
X23917Y06004D01*
X19586Y05414D02*
X20078Y04922D01*
X21556Y14370D02*
X21555Y14370D01*
X05414Y13682D02*
X07874Y16142D01*
X21555Y06201D02*
X21752Y06201D01*
X21260Y06496D02*
X21555Y06201D01*
X21555Y14370D02*
X20177Y15748D01*
X05019Y11910D02*
X05413Y12304D01*
X05413Y12304D02*
X05413Y13682D01*
X07874Y16142D02*
X11910Y16142D01*
X23228Y06890D02*
X23032Y07086D01*
X23032Y07086D02*
X23032Y10925D01*
X05413Y13682D02*
X05414Y13682D01*
X23228Y06398D02*
X23228Y06890D01*
X22244Y13682D02*
X22244Y11713D01*
X12697Y15748D02*
X12304Y15748D01*
X23130Y06300D02*
X23228Y06398D01*
X22244Y13682D02*
X21556Y14370D01*
X22244Y11713D02*
X23032Y10925D01*
X20177Y15748D02*
X19587Y15748D01*
X12304Y15748D02*
X11910Y16142D01*
X05019Y11910D02*
X05019Y11418D01*
X19586Y06497D02*
X21260Y06497D01*
X21260Y06497D02*
X21260Y06496D01*
X19587Y15748D02*
X19488Y15847D01*
X07677Y15650D02*
X07678Y15650D01*
X21654Y06595D02*
X21555Y06595D01*
X05610Y12795D02*
X05611Y12796D01*
X22835Y06693D02*
X22835Y10827D01*
X05216Y11812D02*
X05610Y12206D01*
X05610Y13583D02*
X05611Y13583D01*
X21456Y14175D02*
X20079Y15552D01*
X07973Y15945D02*
X11812Y15945D01*
X22835Y10827D02*
X22047Y11615D01*
X20079Y15552D02*
X19291Y15552D01*
X12304Y15453D02*
X12992Y15453D01*
X21555Y06595D02*
X21456Y06694D01*
X05610Y12795D02*
X05610Y12206D01*
X07677Y15650D02*
X05610Y13583D01*
X21456Y14174D02*
X21456Y14175D01*
X05216Y11418D02*
X05216Y11812D01*
X22047Y11615D02*
X22047Y13583D01*
X22933Y06595D02*
X22835Y06693D01*
X07678Y15650D02*
X07973Y15945D01*
X22047Y13583D02*
X21456Y14174D01*
X19586Y06694D02*
X21456Y06694D01*
X05611Y12796D02*
X05611Y13583D01*
X12304Y15453D02*
X11812Y15945D01*
X11221Y04135D02*
X10925Y03839D01*
X03740Y07185D02*
X04232Y07677D01*
X11221Y06890D02*
X11516Y07185D01*
X03543Y06989D02*
X03543Y05611D01*
X15058Y07678D02*
X12992Y07678D01*
X07284Y03445D02*
X06890Y03839D01*
X06890Y03839D02*
X05512Y05217D01*
X12697Y07382D02*
X12992Y07677D01*
X12992Y07677D02*
X12992Y07678D01*
X04232Y07677D02*
X04232Y08072D01*
X11221Y06792D02*
X11221Y04135D01*
X11221Y06792D02*
X11221Y06890D01*
X10925Y03839D02*
X06890Y03839D01*
X03739Y07185D02*
X03543Y06989D01*
X03543Y05611D02*
X03937Y05217D01*
X07499Y03445D02*
X07284Y03445D01*
X03740Y07185D02*
X03739Y07185D01*
X03937Y05217D02*
X05512Y05217D01*
X23524Y06890D02*
X23228Y07186D01*
X23130Y05906D02*
X23524Y06300D01*
X07775Y15453D02*
X07776Y15453D01*
X22933Y05906D02*
X23130Y05906D01*
X21457Y05906D02*
X21555Y05906D01*
X21063Y06300D02*
X21457Y05906D01*
X22441Y11811D02*
X23228Y11024D01*
X20276Y15945D02*
X19883Y15945D01*
X13189Y15158D02*
X12303Y15158D01*
X22441Y13780D02*
X22441Y11811D01*
X05413Y11418D02*
X05413Y11714D01*
X13386Y15355D02*
X13386Y15650D01*
X13189Y15158D02*
X13386Y15355D01*
X23524Y06300D02*
X23524Y06890D01*
X05413Y11714D02*
X05807Y12108D01*
X23228Y07186D02*
X23228Y11024D01*
X22441Y13780D02*
X20276Y15945D01*
X12303Y15158D02*
X11713Y15748D01*
X05807Y12108D02*
X05807Y13485D01*
X19586Y06300D02*
X21063Y06300D01*
X19883Y15945D02*
X19784Y16044D01*
X07776Y15453D02*
X08071Y15748D01*
X08071Y15748D02*
X11713Y15748D01*
X05807Y13485D02*
X07775Y15453D01*
X12992Y16044D02*
X13386Y15650D01*
G54D48*
X37303Y08170D02*
X37617Y07856D01*
X37008Y08465D02*
X37303Y08170D01*
X37008Y09056D02*
X37008Y08662D01*
X35806Y18120D02*
X35806Y18801D01*
X37752Y09331D02*
X37283Y09331D01*
X37008Y08662D02*
X37008Y08465D01*
X37008Y08662D02*
X36596Y08662D01*
X37617Y07856D02*
X37617Y07579D01*
X36596Y08662D02*
X36497Y08563D01*
X37283Y09331D02*
X37008Y09056D01*
G54D47*
X31299Y15552D02*
X31299Y16259D01*
G54D46*
X21328Y04854D02*
X21524Y04854D01*
X34764Y11339D02*
X35138Y11713D01*
G54D47*
X13878Y04725D02*
X13189Y04725D01*
X13090Y02363D02*
X12992Y02461D01*
X30856Y10217D02*
X30856Y12559D01*
G54D46*
X34764Y09599D02*
X34764Y11339D01*
X09154Y17815D02*
X10138Y17815D01*
G54D47*
X14173Y09252D02*
X13878Y08957D01*
X27903Y10217D02*
X27903Y10738D01*
G54D46*
X21524Y04854D02*
X21752Y04626D01*
G54D47*
X11221Y09332D02*
X11221Y09646D01*
G54D46*
X06594Y09253D02*
X06102Y09253D01*
G54D47*
X27903Y10738D02*
X28484Y11319D01*
X35236Y17619D02*
X35039Y17619D01*
G54D46*
X08563Y05137D02*
X08957Y05137D01*
G54D47*
X31299Y15552D02*
X31299Y15059D01*
X36016Y00599D02*
X36380Y00963D01*
G54D46*
X08169Y05137D02*
X08169Y04725D01*
X37626Y02686D02*
X37603Y02686D01*
X18011Y04725D02*
X18011Y04332D01*
G54D47*
X14094Y04528D02*
X14075Y04528D01*
G54D46*
X08957Y05137D02*
X08957Y04725D01*
X33367Y18898D02*
X33465Y18996D01*
X07462Y10710D02*
X07579Y10710D01*
G54D47*
X12814Y00591D02*
X12814Y01163D01*
G54D46*
X20079Y05709D02*
X20177Y05611D01*
X20177Y05611D02*
X20177Y05315D01*
X19586Y05709D02*
X20079Y05709D01*
X18011Y04332D02*
X18406Y03937D01*
X08249Y03445D02*
X08760Y03445D01*
X04429Y08072D02*
X04429Y08662D01*
X02559Y13484D02*
X02639Y13564D01*
G54D47*
X30924Y14684D02*
X30924Y14469D01*
X20079Y18800D02*
X20079Y18289D01*
X14290Y09252D02*
X14173Y09252D01*
X24606Y12304D02*
X24606Y13386D01*
X28838Y11319D02*
X29134Y11615D01*
X35431Y17402D02*
X35431Y17636D01*
G54D46*
X10138Y17815D02*
X10926Y17815D01*
G54D47*
X07462Y12796D02*
X07659Y12993D01*
X29134Y11615D02*
X29134Y13091D01*
X08544Y13878D02*
X08268Y13602D01*
G54D46*
X07579Y09135D02*
X07204Y09135D01*
G54D47*
X20786Y17815D02*
X20786Y18093D01*
X13976Y18289D02*
X13976Y18800D01*
G54D46*
X38681Y05334D02*
X38681Y04725D01*
X10138Y17815D02*
X10236Y17717D01*
X34764Y09599D02*
X34764Y08780D01*
G54D47*
X33348Y14469D02*
X33348Y14389D01*
G54D46*
X10944Y14352D02*
X11024Y14272D01*
X09744Y05137D02*
X09744Y04725D01*
X01969Y13368D02*
X02443Y13368D01*
X04035Y11418D02*
X04035Y11761D01*
G54D47*
X13189Y18289D02*
X13189Y18800D01*
G54D46*
X07204Y09135D02*
X07086Y09253D01*
G54D47*
X35431Y17636D02*
X35433Y17638D01*
G54D46*
X34764Y08780D02*
X34744Y08760D01*
X07776Y05137D02*
X08169Y05137D01*
X08169Y05137D02*
X08563Y05137D01*
X12814Y04134D02*
X12500Y04134D01*
G54D47*
X09350Y14477D02*
X09350Y14075D01*
X11221Y09646D02*
X11221Y09960D01*
G54D46*
X08957Y05137D02*
X09350Y05137D01*
G54D47*
X33348Y14389D02*
X33957Y13780D01*
X31299Y16259D02*
X31576Y16536D01*
G54D46*
X10926Y17815D02*
X11221Y17520D01*
G54D47*
X13405Y02363D02*
X13090Y02363D01*
G54D46*
X06594Y10237D02*
X06594Y10434D01*
X35431Y17120D02*
X35431Y16814D01*
X37283Y10355D02*
X37303Y10375D01*
G54D47*
X31299Y15059D02*
X30924Y14684D01*
G54D46*
X07953Y10710D02*
X08169Y10926D01*
G54D47*
X07659Y12993D02*
X07973Y12993D01*
X24606Y09599D02*
X24606Y10532D01*
G54D46*
X10236Y17717D02*
X10236Y17315D01*
G54D47*
X08956Y14075D02*
X08759Y13878D01*
G54D46*
X02559Y12402D02*
X02559Y13484D01*
G54D47*
X05099Y05925D02*
X05413Y05611D01*
G54D46*
X15058Y05709D02*
X14567Y05709D01*
X09154Y17501D02*
X09154Y17815D01*
G54D47*
X03839Y13564D02*
X03839Y13977D01*
X35630Y00599D02*
X36016Y00599D01*
G54D46*
X35431Y16814D02*
X35056Y16439D01*
G54D47*
X20049Y04165D02*
X20049Y04202D01*
X06564Y05838D02*
X06890Y05512D01*
G54D46*
X16734Y12896D02*
X16831Y12993D01*
X16042Y09253D02*
X16042Y09597D01*
X37874Y05296D02*
X38643Y05296D01*
X21063Y00985D02*
X21457Y00591D01*
G54D47*
X14075Y04528D02*
X13878Y04725D01*
X09350Y14075D02*
X08956Y14075D01*
G54D46*
X06989Y10237D02*
X07462Y10710D01*
X06594Y10040D02*
X06594Y10237D01*
X07086Y09253D02*
X06594Y09253D01*
X36497Y07204D02*
X36516Y07185D01*
G54D47*
X24606Y00599D02*
X25205Y00599D01*
G54D46*
X12500Y04134D02*
X12402Y04036D01*
X12912Y05611D02*
X12500Y05611D01*
X16042Y09597D02*
X15895Y09744D01*
X09744Y05137D02*
X09350Y05137D01*
G54D47*
X03839Y13564D02*
X03051Y13564D01*
X24606Y10532D02*
X25000Y10926D01*
G54D46*
X16734Y12107D02*
X16734Y12896D01*
G54D47*
X04921Y13583D02*
X05315Y13977D01*
G54D46*
X31576Y16536D02*
X32185Y16536D01*
G54D47*
X35431Y17424D02*
X35236Y17619D01*
G54D46*
X24291Y17343D02*
X24291Y17697D01*
G54D47*
X04921Y13564D02*
X04921Y13583D01*
G54D46*
X32855Y18898D02*
X33367Y18898D01*
X25205Y00599D02*
X25295Y00689D01*
G54D47*
X35431Y17120D02*
X35431Y17402D01*
G54D46*
X21044Y00985D02*
X21063Y00985D01*
G54D47*
X28484Y11319D02*
X28838Y11319D01*
X10058Y13977D02*
X10433Y14352D01*
G54D46*
X37088Y14370D02*
X37599Y14370D01*
G54D47*
X35431Y17402D02*
X35431Y17424D01*
G54D46*
X20079Y08269D02*
X20177Y08367D01*
X06594Y10237D02*
X06989Y10237D01*
G54D47*
X20786Y18093D02*
X20079Y18800D01*
G54D46*
X10138Y05137D02*
X09744Y05137D01*
G54D47*
X09350Y14075D02*
X09448Y13977D01*
G54D46*
X14567Y05709D02*
X14370Y05512D01*
G54D47*
X25000Y10926D02*
X25000Y11910D01*
G54D46*
X37626Y02686D02*
X37992Y03052D01*
G54D47*
X20049Y04202D02*
X20473Y04626D01*
G54D46*
X10433Y14352D02*
X10944Y14352D01*
G54D47*
X15551Y18289D02*
X15551Y18800D01*
X31799Y15552D02*
X31299Y15552D01*
G54D46*
X20473Y08367D02*
X20177Y08367D01*
X02639Y13564D02*
X03051Y13564D01*
X20473Y08367D02*
X20836Y08730D01*
X11891Y16930D02*
X11891Y17501D01*
G54D47*
X25000Y11910D02*
X24606Y12304D01*
G54D46*
X15895Y09744D02*
X15551Y09744D01*
X03788Y12008D02*
X02953Y12008D01*
X02953Y12008D02*
X02559Y12402D01*
G54D47*
X16339Y18289D02*
X16339Y18800D01*
X14764Y18289D02*
X14764Y18800D01*
X04823Y05925D02*
X05099Y05925D01*
G54D46*
X24291Y17697D02*
X24803Y18209D01*
X37752Y10355D02*
X37283Y10355D01*
X35056Y16439D02*
X34451Y16439D01*
X11891Y17501D02*
X11910Y17520D01*
G54D47*
X03839Y13977D02*
X03937Y14075D01*
G54D46*
X20836Y09419D02*
X20836Y08730D01*
X38643Y05296D02*
X38681Y05334D01*
X37303Y10375D02*
X37303Y11811D01*
G54D47*
X12814Y01163D02*
X12795Y01182D01*
G54D46*
X09154Y17815D02*
X09154Y18031D01*
X20079Y08269D02*
X19586Y08269D01*
X36497Y07776D02*
X36497Y07204D01*
X38367Y03741D02*
X38367Y03427D01*
X34451Y16439D02*
X34449Y16437D01*
X02443Y13368D02*
X02559Y13484D01*
X04035Y11761D02*
X03788Y12008D01*
X06102Y09253D02*
X06004Y09351D01*
G54D47*
X07462Y12008D02*
X07462Y12796D01*
X04036Y05925D02*
X04823Y05925D01*
G54D46*
X07579Y10710D02*
X07953Y10710D01*
G54D47*
X08759Y13878D02*
X08544Y13878D01*
G54D46*
X38367Y03427D02*
X37992Y03052D01*
G54D47*
X09448Y13977D02*
X10058Y13977D01*
X05099Y00591D02*
X05099Y00610D01*
G54D45*
X03739Y10237D02*
X03838Y10138D01*
X03740Y10040D02*
X03838Y10138D01*
X03248Y10237D02*
X03739Y10237D01*
G54D47*
X00787Y09056D02*
X00787Y08564D01*
X00983Y09744D02*
X00787Y09548D01*
X00984Y08367D02*
X01200Y08367D01*
X00787Y08564D02*
X00984Y08367D01*
X00787Y09548D02*
X00787Y09056D01*
X05099Y00610D02*
X04429Y01280D01*
X01298Y11498D02*
X01280Y11516D01*
X06102Y18603D02*
X06121Y18584D01*
X01003Y05709D02*
X00591Y05709D01*
X04429Y01280D02*
X04232Y01280D01*
X01200Y09744D02*
X00983Y09744D01*
G54D45*
X03740Y10040D02*
X03248Y10040D01*
X03248Y08859D02*
X02855Y08859D01*
G54D47*
X01298Y10926D02*
X01298Y11498D01*
X05098Y03150D02*
X04331Y03150D01*
G54D45*
X02657Y10828D02*
X02559Y10926D01*
G54D47*
X06121Y18584D02*
X06121Y17815D01*
X06909Y18603D02*
X06102Y18603D01*
X04214Y19095D02*
X04724Y19095D01*
G54D45*
X02756Y08760D02*
X02756Y08268D01*
X02855Y08859D02*
X02756Y08760D01*
G54D47*
X00787Y09056D02*
X01200Y09056D01*
G54D45*
X03248Y10828D02*
X02657Y10828D01*
X13189Y17028D02*
X13189Y17539D01*
X14568Y15649D02*
X13189Y17028D01*
X14568Y12107D02*
X14568Y15649D01*
X13976Y16536D02*
X14765Y15747D01*
X13976Y17539D02*
X13976Y16536D01*
X14765Y15747D02*
X14765Y12107D01*
X14962Y12107D02*
X14962Y15845D01*
X14962Y15845D02*
X14764Y16043D01*
X14764Y16043D02*
X14764Y17539D01*
X15551Y17539D02*
X15551Y16240D01*
X15551Y16240D02*
X15159Y15848D01*
X15159Y15848D02*
X15159Y12107D01*
X03464Y19095D02*
X02836Y19095D01*
X01594Y01329D02*
X01358Y01565D01*
X01594Y00591D02*
X01594Y01329D01*
X06201Y01594D02*
X05266Y01594D01*
X05266Y01594D02*
X05098Y01762D01*
X02972Y00591D02*
X02344Y00591D01*
X07480Y17224D02*
X07284Y17028D01*
X07284Y17815D02*
X07480Y17619D01*
X07480Y17619D02*
X07480Y17224D01*
X06871Y17815D02*
X07284Y17815D01*
X07284Y17028D02*
X06871Y17028D01*
X07973Y17895D02*
X07973Y18289D01*
X07973Y18289D02*
X07659Y18603D01*
X16537Y15160D02*
X18307Y16930D01*
X19470Y16930D02*
X20079Y17539D01*
X16537Y12107D02*
X16537Y15160D01*
X18307Y16930D02*
X19470Y16930D01*
X19409Y18289D02*
X19587Y18111D01*
X19587Y17323D02*
X19390Y17126D01*
X18208Y17126D02*
X16340Y15258D01*
X19390Y17126D02*
X18208Y17126D01*
X19095Y18289D02*
X19409Y18289D01*
X19587Y18111D02*
X19587Y17323D01*
X16340Y15258D02*
X16340Y12107D01*
X18307Y17520D02*
X18307Y17539D01*
X18307Y17539D02*
X19095Y17539D01*
X16143Y15356D02*
X18307Y17520D01*
X16143Y12107D02*
X16143Y15356D01*
X17815Y17323D02*
X15946Y15454D01*
X17993Y18289D02*
X17815Y18111D01*
X18307Y18289D02*
X17993Y18289D01*
X17815Y18111D02*
X17815Y17323D01*
X15946Y15454D02*
X15946Y12107D01*
X15749Y15552D02*
X17323Y17126D01*
X17323Y17126D02*
X17323Y17539D01*
X15749Y12107D02*
X15749Y15552D01*
X17009Y18289D02*
X16831Y18111D01*
X17323Y18289D02*
X17009Y18289D01*
X15552Y15651D02*
X15552Y12107D01*
X16831Y18111D02*
X16831Y16930D01*
X16831Y16930D02*
X15552Y15651D01*
X16339Y16733D02*
X16339Y17539D01*
X15355Y12107D02*
X15355Y15749D01*
X15355Y15749D02*
X16339Y16733D01*
X04528Y02559D02*
X05986Y02559D01*
X05986Y02559D02*
X06201Y02344D01*
X03131Y03956D02*
X04528Y02559D01*
X03131Y05709D02*
X03131Y03956D01*
X32579Y10926D02*
X32579Y12008D01*
X32283Y12304D02*
X31889Y12304D01*
X32579Y12008D02*
X32283Y12304D01*
X28918Y14370D02*
X29823Y14370D01*
X31889Y12304D02*
X31102Y13091D01*
X31799Y15927D02*
X32500Y15927D01*
X32500Y15927D02*
X32501Y15926D01*
X24252Y03229D02*
X25020Y02461D01*
X11614Y14567D02*
X11614Y15355D01*
X24095Y03229D02*
X24252Y03229D01*
X08169Y15551D02*
X11418Y15551D01*
X13287Y08367D02*
X13287Y09843D01*
X28150Y03347D02*
X32185Y03347D01*
X27264Y02461D02*
X28150Y03347D01*
X32382Y03347D02*
X32185Y03347D01*
X25020Y02461D02*
X27264Y02461D01*
X14173Y10729D02*
X13287Y09843D01*
X15551Y10040D02*
X14961Y10630D01*
X14862Y10729D02*
X14469Y10729D01*
X07677Y15059D02*
X08169Y15551D01*
X14961Y10630D02*
X14862Y10729D01*
X14469Y10729D02*
X14173Y10729D01*
X11969Y11811D02*
X11969Y13229D01*
X16142Y09744D02*
X16142Y09745D01*
X16239Y09647D02*
X16239Y09253D01*
X16142Y09745D02*
X15847Y10040D01*
X16239Y09647D02*
X16142Y09744D01*
X15551Y10040D02*
X15847Y10040D01*
X11614Y15355D02*
X11418Y15551D01*
X07677Y15059D02*
X07677Y14961D01*
X14567Y08465D02*
X14469Y08563D01*
X32185Y03839D02*
X33169Y04823D01*
X31201Y06300D02*
X27559Y06300D01*
X33169Y05710D02*
X32776Y06103D01*
X33169Y04823D02*
X33169Y05710D01*
X15058Y08465D02*
X14567Y08465D01*
X36122Y07087D02*
X35236Y06201D01*
X35236Y04036D02*
X35335Y03937D01*
X35236Y06201D02*
X35236Y04036D01*
X33760Y03445D02*
X35236Y03445D01*
X35236Y03445D02*
X35335Y03544D01*
X13484Y09744D02*
X14173Y10433D01*
X14173Y10433D02*
X14764Y10433D01*
X13484Y09646D02*
X13484Y09744D01*
X13484Y09646D02*
X13484Y09448D01*
X13484Y08563D02*
X13484Y09448D01*
X15058Y08269D02*
X13778Y08269D01*
X13778Y08269D02*
X13484Y08563D01*
X35335Y03937D02*
X35335Y03544D01*
X36122Y07087D02*
X36122Y11615D01*
X26969Y07579D02*
X31989Y07579D01*
X20965Y07481D02*
X21063Y07579D01*
X31989Y07579D02*
X32284Y07874D01*
X19586Y07481D02*
X20965Y07481D01*
X24312Y02854D02*
X24902Y02264D01*
X34547Y01969D02*
X34252Y02264D01*
X21654Y01871D02*
X22638Y02855D01*
X23721Y02854D02*
X24312Y02854D01*
X22638Y02855D02*
X23721Y02855D01*
X21654Y01870D02*
X21654Y01871D01*
X19882Y01772D02*
X19980Y01870D01*
X24902Y02264D02*
X34252Y02264D01*
X19980Y01870D02*
X21654Y01870D01*
X13681Y06989D02*
X13779Y07087D01*
X23721Y02855D02*
X23721Y02854D01*
X13779Y07087D02*
X15058Y07087D01*
X34430Y17520D02*
X34430Y18307D01*
X34617Y18120D02*
X34430Y18307D01*
X35056Y18120D02*
X34617Y18120D01*
X37146Y09587D02*
X36910Y09351D01*
X37752Y09587D02*
X37146Y09587D01*
X36910Y09351D02*
X36497Y09351D01*
X36910Y10138D02*
X36497Y10138D01*
X37752Y09843D02*
X37205Y09843D01*
X37205Y09843D02*
X36910Y10138D01*
X37324Y06870D02*
X37205Y06989D01*
X37874Y06870D02*
X37324Y06870D01*
X36497Y11399D02*
X36614Y11516D01*
X36497Y11399D02*
X36497Y10926D01*
X33346Y17520D02*
X33051Y17815D01*
X33680Y17520D02*
X33346Y17520D01*
X36221Y04706D02*
X36239Y04706D01*
X36239Y04706D02*
X36515Y04430D01*
X36221Y05531D02*
X36221Y04706D01*
X37756Y04430D02*
X37874Y04548D01*
X36515Y04430D02*
X37756Y04430D01*
X33809Y10217D02*
X33809Y10994D01*
X33809Y10994D02*
X33858Y11043D01*
X26870Y11516D02*
X26280Y10926D01*
X26280Y10926D02*
X26280Y10218D01*
X26280Y10218D02*
X26279Y10217D01*
X26870Y12519D02*
X26870Y11516D01*
X16239Y04725D02*
X16239Y03641D01*
X14724Y04134D02*
X15453Y03405D01*
X13564Y04134D02*
X14724Y04134D01*
X16239Y03641D02*
X16003Y03405D01*
X16003Y03405D02*
X15453Y03405D01*
X03248Y07874D02*
X02381Y07007D01*
X02381Y07007D02*
X02381Y05709D01*
X02381Y05709D02*
X01753Y05709D01*
X03248Y08662D02*
X03248Y07874D01*
X03051Y11418D02*
X01969Y12500D01*
X01969Y12500D02*
X01969Y12618D01*
X03838Y11418D02*
X03051Y11418D01*
X06299Y12008D02*
X06299Y12383D01*
X06299Y12383D02*
X06712Y12796D01*
X06004Y11713D02*
X06299Y12008D01*
X06004Y11418D02*
X06004Y11713D01*
X03248Y09450D02*
X02462Y09450D01*
X02068Y09056D02*
X01950Y09056D01*
X02462Y09450D02*
X02068Y09056D01*
X03051Y12814D02*
X03051Y12600D01*
X03839Y12205D02*
X04232Y11812D01*
X03446Y12205D02*
X03839Y12205D01*
X04232Y11418D02*
X04232Y11812D01*
X03051Y12600D02*
X03446Y12205D01*
X06102Y12107D02*
X06102Y12973D01*
X06102Y12973D02*
X06712Y13583D01*
X05807Y11418D02*
X05807Y11812D01*
X05807Y11812D02*
X06102Y12107D01*
X04429Y11418D02*
X04429Y11910D01*
X04429Y11910D02*
X03839Y12500D01*
X03839Y12500D02*
X03839Y12814D01*
X07658Y07598D02*
X06594Y08662D01*
X08366Y07598D02*
X07658Y07598D01*
X10138Y05887D02*
X10138Y06103D01*
X09252Y06300D02*
X08760Y06792D01*
X09941Y06300D02*
X09252Y06300D01*
X10138Y06103D02*
X09941Y06300D01*
X07481Y06792D02*
X06595Y07678D01*
X06004Y07874D02*
X06004Y08072D01*
X06200Y07678D02*
X06004Y07874D01*
X06595Y07678D02*
X06200Y07678D01*
X08760Y06792D02*
X07481Y06792D01*
X05807Y07776D02*
X06102Y07481D01*
X08642Y06595D02*
X09350Y05887D01*
X05807Y08072D02*
X05807Y07776D01*
X06102Y07481D02*
X06496Y07481D01*
X07382Y06595D02*
X08642Y06595D01*
X06496Y07481D02*
X07382Y06595D01*
X06398Y07284D02*
X07284Y06398D01*
X06004Y07284D02*
X06398Y07284D01*
X05610Y07678D02*
X06004Y07284D01*
X05610Y08072D02*
X05610Y07678D01*
X07284Y06398D02*
X08052Y06398D01*
X08052Y06398D02*
X08563Y05887D01*
X05413Y07580D02*
X05906Y07087D01*
X05906Y07087D02*
X06299Y07087D01*
X06299Y07087D02*
X07499Y05887D01*
X05413Y08072D02*
X05413Y07580D01*
X07499Y05887D02*
X07776Y05887D01*
X14155Y02363D02*
X14725Y02363D01*
X14725Y02363D02*
X15453Y03091D01*
X16436Y04725D02*
X16436Y03543D01*
X15984Y03091D02*
X15453Y03091D01*
X16436Y03543D02*
X15984Y03091D01*
X16830Y04725D02*
X16830Y02739D01*
X16830Y02739D02*
X17206Y02363D01*
X20294Y00985D02*
X18809Y00985D01*
X17431Y02363D02*
X18809Y00985D01*
X17206Y02363D02*
X17431Y02363D01*
X38367Y07579D02*
X38367Y06398D01*
X38367Y06398D02*
X38681Y06084D01*
X37874Y06122D02*
X38643Y06122D01*
X38643Y06122D02*
X38681Y06084D01*
X37421Y06122D02*
X36930Y05631D01*
X36930Y05631D02*
X36930Y04922D01*
X37874Y06122D02*
X37421Y06122D01*
X10827Y07776D02*
X10827Y04332D01*
X06988Y04331D02*
X06791Y04331D01*
X11122Y08071D02*
X10827Y07776D01*
X07874Y04233D02*
X07776Y04331D01*
X10728Y04233D02*
X07874Y04233D01*
X10827Y04332D02*
X10728Y04233D01*
X21064Y07973D02*
X21260Y07973D01*
X06791Y04331D02*
X06102Y05020D01*
X20769Y07678D02*
X21064Y07973D01*
X19586Y07678D02*
X20769Y07678D01*
X05590Y17028D02*
X05098Y16536D01*
X06121Y17028D02*
X05590Y17028D01*
X03248Y09843D02*
X02953Y09843D01*
X02658Y10138D02*
X01083Y10138D01*
X00689Y13780D02*
X00689Y10532D01*
X01870Y14272D02*
X01181Y14272D01*
X04134Y16536D02*
X05098Y16536D01*
X01181Y14272D02*
X00689Y13780D01*
X01083Y10138D02*
X00689Y10532D01*
X01870Y14272D02*
X04134Y16536D01*
X02953Y09843D02*
X02658Y10138D01*
X03722Y00591D02*
X04349Y00591D01*
X02756Y04035D02*
X03543Y03248D01*
X03543Y03248D02*
X03543Y00770D01*
X02756Y06694D02*
X02756Y04035D01*
X03838Y07776D02*
X02756Y06694D01*
X03543Y00770D02*
X03722Y00591D01*
X03838Y08072D02*
X03838Y07776D01*
X03248Y09056D02*
X02658Y09056D01*
X02461Y08170D02*
X02165Y07874D01*
X02461Y08859D02*
X02461Y08170D01*
X02658Y09056D02*
X02461Y08859D01*
X02086Y19095D02*
X02086Y18849D01*
X00487Y14080D02*
X01358Y14951D01*
X01358Y14951D02*
X01358Y18121D01*
X00984Y07875D02*
X00487Y08372D01*
X02086Y18849D02*
X01358Y18121D01*
X00984Y07874D02*
X00984Y07875D01*
X02165Y07874D02*
X00984Y07874D01*
X00487Y14080D02*
X00487Y08372D01*
X03041Y15148D02*
X05098Y15148D01*
X07357Y16831D02*
X07659Y16831D01*
X01281Y14076D02*
X00886Y13681D01*
X01969Y14076D02*
X03041Y15148D01*
X02658Y10434D02*
X02559Y10335D01*
X03248Y10434D02*
X02658Y10434D01*
X01181Y10335D02*
X00886Y10630D01*
X07659Y16831D02*
X07973Y17145D01*
X02559Y10335D02*
X01181Y10335D01*
X07357Y16831D02*
X05674Y15148D01*
X01969Y14076D02*
X01281Y14076D01*
X00886Y10630D02*
X00886Y13681D01*
X05098Y15148D02*
X05674Y15148D01*
X22736Y02658D02*
X21752Y01674D01*
X23543Y02658D02*
X22736Y02658D01*
X24192Y02658D02*
X24783Y02067D01*
X13484Y07284D02*
X13287Y07087D01*
X23543Y02658D02*
X24192Y02658D01*
X30906Y06004D02*
X30906Y04234D01*
X29035Y01575D02*
X29232Y01575D01*
X28543Y02067D02*
X29035Y01575D01*
X20276Y01674D02*
X20177Y01575D01*
X21752Y01674D02*
X20276Y01674D01*
X30906Y04234D02*
X30413Y03741D01*
X31299Y07874D02*
X33366Y09941D01*
X33465Y12599D02*
X33366Y12500D01*
X33366Y12500D02*
X33366Y09941D01*
X24783Y02067D02*
X28543Y02067D01*
X13484Y07284D02*
X15058Y07284D01*
X16633Y04725D02*
X16633Y02540D01*
X13958Y00985D02*
X13564Y00591D01*
X16456Y02363D02*
X16427Y02363D01*
X16427Y02363D02*
X15049Y00985D01*
X15049Y00985D02*
X13958Y00985D01*
X16633Y02540D02*
X16456Y02363D01*
X08366Y09923D02*
X08366Y10148D01*
X08366Y10148D02*
X09744Y11526D01*
X06594Y09647D02*
X08090Y09647D01*
X10405Y11526D02*
X11221Y10710D01*
X09744Y11526D02*
X10405Y11526D01*
X08090Y09647D02*
X08366Y09923D01*
X09744Y07766D02*
X10405Y07766D01*
X10405Y07766D02*
X11221Y08582D01*
X08366Y09173D02*
X08366Y09144D01*
X08366Y09144D02*
X09744Y07766D01*
X06594Y09450D02*
X08089Y09450D01*
X08089Y09450D02*
X08366Y09173D01*
G54D10*
G36*
X18945Y05366D02*
X15699Y05366D01*
X15699Y08612D01*
X18945Y08612D01*
X18945Y05366D01*
X18945Y05366D01*
G37*
G54D49*
X18945Y05366D02*
X15699Y05366D01*
X15699Y08612D01*
X18945Y08612D01*
X18945Y05366D01*
G54D10*
G36*
X39025Y14027D02*
X37906Y14027D01*
X37906Y15144D01*
X37906Y15368D01*
X37905Y15482D01*
X37905Y15581D01*
X37867Y15672D01*
X37797Y15742D01*
X37705Y15780D01*
X37593Y15781D01*
X37531Y15719D01*
X37531Y15306D01*
X37844Y15306D01*
X37906Y15368D01*
X37906Y15144D01*
X37844Y15206D01*
X37531Y15206D01*
X37531Y14793D01*
X37593Y14731D01*
X37705Y14732D01*
X37797Y14770D01*
X37867Y14840D01*
X37905Y14931D01*
X37905Y15030D01*
X37906Y15144D01*
X37906Y14027D01*
X37374Y14027D01*
X37392Y14069D01*
X37392Y14120D01*
X37392Y14182D01*
X37410Y14182D01*
X37448Y14144D01*
X37546Y14103D01*
X37652Y14103D01*
X37750Y14144D01*
X37825Y14219D01*
X37866Y14317D01*
X37866Y14423D01*
X37825Y14521D01*
X37750Y14596D01*
X37652Y14637D01*
X37546Y14637D01*
X37448Y14596D01*
X37410Y14558D01*
X37392Y14558D01*
X37392Y14670D01*
X37373Y14717D01*
X37359Y14732D01*
X37369Y14731D01*
X37431Y14793D01*
X37431Y15206D01*
X37431Y15306D01*
X37431Y15719D01*
X37369Y15781D01*
X37257Y15780D01*
X37165Y15742D01*
X37095Y15672D01*
X37057Y15581D01*
X37057Y15482D01*
X37056Y15368D01*
X37118Y15306D01*
X37431Y15306D01*
X37431Y15206D01*
X37118Y15206D01*
X37056Y15144D01*
X37057Y15030D01*
X37057Y14931D01*
X37095Y14840D01*
X37161Y14774D01*
X36900Y14774D01*
X36900Y14852D01*
X36931Y14852D01*
X36978Y14871D01*
X37015Y14907D01*
X37035Y14955D01*
X37035Y15006D01*
X37035Y15556D01*
X37016Y15603D01*
X36980Y15640D01*
X36932Y15660D01*
X36881Y15660D01*
X36531Y15660D01*
X36516Y15655D01*
X36515Y15696D01*
X36446Y15862D01*
X36347Y15895D01*
X36004Y15552D01*
X36347Y15209D01*
X36427Y15236D01*
X36427Y14956D01*
X36446Y14909D01*
X36482Y14872D01*
X36530Y14852D01*
X36562Y14852D01*
X36562Y14834D01*
X36502Y14774D01*
X36488Y14774D01*
X36276Y14774D01*
X36138Y14774D01*
X36091Y14755D01*
X36054Y14719D01*
X36034Y14671D01*
X36034Y14620D01*
X36034Y14070D01*
X36051Y14027D01*
X35582Y14027D01*
X35582Y15060D01*
X35607Y15086D01*
X35623Y15039D01*
X35842Y14959D01*
X36077Y14970D01*
X36243Y15039D01*
X36276Y15138D01*
X35968Y15446D01*
X35933Y15481D01*
X35862Y15552D01*
X35933Y15623D01*
X35968Y15658D01*
X36276Y15966D01*
X36243Y16065D01*
X36213Y16076D01*
X36230Y16114D01*
X36230Y16213D01*
X36231Y16327D01*
X36231Y16551D01*
X36230Y16665D01*
X36230Y16764D01*
X36192Y16855D01*
X36146Y16901D01*
X36155Y16921D01*
X36156Y17008D01*
X36094Y17070D01*
X35856Y17070D01*
X35856Y16902D01*
X35856Y16782D01*
X35856Y16489D01*
X36169Y16489D01*
X36231Y16551D01*
X36231Y16327D01*
X36169Y16389D01*
X35906Y16389D01*
X35856Y16389D01*
X35756Y16389D01*
X35756Y16489D01*
X35756Y16539D01*
X35756Y16782D01*
X35756Y16788D01*
X35779Y16810D01*
X35778Y17170D01*
X35856Y17170D01*
X35906Y17170D01*
X36094Y17170D01*
X36156Y17232D01*
X36155Y17273D01*
X38365Y17273D01*
X39025Y16613D01*
X39025Y14027D01*
X39025Y14027D01*
G37*
G54D49*
X39025Y14027D02*
X37906Y14027D01*
X37906Y15144D01*
X37906Y15368D01*
X37905Y15482D01*
X37905Y15581D01*
X37867Y15672D01*
X37797Y15742D01*
X37705Y15780D01*
X37593Y15781D01*
X37531Y15719D01*
X37531Y15306D01*
X37844Y15306D01*
X37906Y15368D01*
X37906Y15144D01*
X37844Y15206D01*
X37531Y15206D01*
X37531Y14793D01*
X37593Y14731D01*
X37705Y14732D01*
X37797Y14770D01*
X37867Y14840D01*
X37905Y14931D01*
X37905Y15030D01*
X37906Y15144D01*
X37906Y14027D01*
X37374Y14027D01*
X37392Y14069D01*
X37392Y14120D01*
X37392Y14182D01*
X37410Y14182D01*
X37448Y14144D01*
X37546Y14103D01*
X37652Y14103D01*
X37750Y14144D01*
X37825Y14219D01*
X37866Y14317D01*
X37866Y14423D01*
X37825Y14521D01*
X37750Y14596D01*
X37652Y14637D01*
X37546Y14637D01*
X37448Y14596D01*
X37410Y14558D01*
X37392Y14558D01*
X37392Y14670D01*
X37373Y14717D01*
X37359Y14732D01*
X37369Y14731D01*
X37431Y14793D01*
X37431Y15206D01*
X37431Y15306D01*
X37431Y15719D01*
X37369Y15781D01*
X37257Y15780D01*
X37165Y15742D01*
X37095Y15672D01*
X37057Y15581D01*
X37057Y15482D01*
X37056Y15368D01*
X37118Y15306D01*
X37431Y15306D01*
X37431Y15206D01*
X37118Y15206D01*
X37056Y15144D01*
X37057Y15030D01*
X37057Y14931D01*
X37095Y14840D01*
X37161Y14774D01*
X36900Y14774D01*
X36900Y14852D01*
X36931Y14852D01*
X36978Y14871D01*
X37015Y14907D01*
X37035Y14955D01*
X37035Y15006D01*
X37035Y15556D01*
X37016Y15603D01*
X36980Y15640D01*
X36932Y15660D01*
X36881Y15660D01*
X36531Y15660D01*
X36516Y15655D01*
X36515Y15696D01*
X36446Y15862D01*
X36347Y15895D01*
X36004Y15552D01*
X36347Y15209D01*
X36427Y15236D01*
X36427Y14956D01*
X36446Y14909D01*
X36482Y14872D01*
X36530Y14852D01*
X36562Y14852D01*
X36562Y14834D01*
X36502Y14774D01*
X36488Y14774D01*
X36276Y14774D01*
X36138Y14774D01*
X36091Y14755D01*
X36054Y14719D01*
X36034Y14671D01*
X36034Y14620D01*
X36034Y14070D01*
X36051Y14027D01*
X35582Y14027D01*
X35582Y15060D01*
X35607Y15086D01*
X35623Y15039D01*
X35842Y14959D01*
X36077Y14970D01*
X36243Y15039D01*
X36276Y15138D01*
X35968Y15446D01*
X35933Y15481D01*
X35862Y15552D01*
X35933Y15623D01*
X35968Y15658D01*
X36276Y15966D01*
X36243Y16065D01*
X36213Y16076D01*
X36230Y16114D01*
X36230Y16213D01*
X36231Y16327D01*
X36231Y16551D01*
X36230Y16665D01*
X36230Y16764D01*
X36192Y16855D01*
X36146Y16901D01*
X36155Y16921D01*
X36156Y17008D01*
X36094Y17070D01*
X35856Y17070D01*
X35856Y16902D01*
X35856Y16782D01*
X35856Y16489D01*
X36169Y16489D01*
X36231Y16551D01*
X36231Y16327D01*
X36169Y16389D01*
X35906Y16389D01*
X35856Y16389D01*
X35756Y16389D01*
X35756Y16489D01*
X35756Y16539D01*
X35756Y16782D01*
X35756Y16788D01*
X35779Y16810D01*
X35778Y17170D01*
X35856Y17170D01*
X35906Y17170D01*
X36094Y17170D01*
X36156Y17232D01*
X36155Y17273D01*
X38365Y17273D01*
X39025Y16613D01*
X39025Y14027D01*
G54D10*
G36*
X30974Y14419D02*
X30874Y14419D01*
X30874Y14519D01*
X30974Y14519D01*
X30974Y14419D01*
X30974Y14419D01*
G37*
G54D49*
X30974Y14419D02*
X30874Y14419D01*
X30874Y14519D01*
X30974Y14519D01*
X30974Y14419D01*
G54D10*
G36*
X32220Y15552D02*
X32165Y15529D01*
X32161Y15525D01*
X32001Y15525D01*
X31999Y15526D01*
X31900Y15526D01*
X31600Y15526D01*
X31541Y15502D01*
X31461Y15502D01*
X31400Y15441D01*
X31400Y15402D01*
X31415Y15365D01*
X31400Y15327D01*
X31400Y15257D01*
X31352Y15186D01*
X31326Y15052D01*
X31326Y14923D01*
X31299Y14896D01*
X31240Y14955D01*
X31178Y14981D01*
X31198Y15027D01*
X31198Y15126D01*
X31198Y15326D01*
X31160Y15418D01*
X31090Y15488D01*
X30999Y15526D01*
X30900Y15526D01*
X30660Y15526D01*
X30660Y15578D01*
X30698Y15578D01*
X30998Y15578D01*
X31090Y15616D01*
X31160Y15686D01*
X31198Y15777D01*
X31198Y15876D01*
X31198Y16076D01*
X31189Y16098D01*
X31201Y16109D01*
X31260Y16050D01*
X31352Y16012D01*
X31400Y16012D01*
X31400Y15978D01*
X31400Y15778D01*
X31415Y15740D01*
X31400Y15702D01*
X31400Y15663D01*
X31461Y15602D01*
X31541Y15602D01*
X31599Y15578D01*
X31698Y15578D01*
X31998Y15578D01*
X32056Y15602D01*
X32137Y15602D01*
X32137Y15603D01*
X32165Y15575D01*
X32220Y15552D01*
X32220Y15552D01*
G37*
G54D49*
X32220Y15552D02*
X32165Y15529D01*
X32161Y15525D01*
X32001Y15525D01*
X31999Y15526D01*
X31900Y15526D01*
X31600Y15526D01*
X31541Y15502D01*
X31461Y15502D01*
X31400Y15441D01*
X31400Y15402D01*
X31415Y15365D01*
X31400Y15327D01*
X31400Y15257D01*
X31352Y15186D01*
X31326Y15052D01*
X31326Y14923D01*
X31299Y14896D01*
X31240Y14955D01*
X31178Y14981D01*
X31198Y15027D01*
X31198Y15126D01*
X31198Y15326D01*
X31160Y15418D01*
X31090Y15488D01*
X30999Y15526D01*
X30900Y15526D01*
X30660Y15526D01*
X30660Y15578D01*
X30698Y15578D01*
X30998Y15578D01*
X31090Y15616D01*
X31160Y15686D01*
X31198Y15777D01*
X31198Y15876D01*
X31198Y16076D01*
X31189Y16098D01*
X31201Y16109D01*
X31260Y16050D01*
X31352Y16012D01*
X31400Y16012D01*
X31400Y15978D01*
X31400Y15778D01*
X31415Y15740D01*
X31400Y15702D01*
X31400Y15663D01*
X31461Y15602D01*
X31541Y15602D01*
X31599Y15578D01*
X31698Y15578D01*
X31998Y15578D01*
X32056Y15602D01*
X32137Y15602D01*
X32137Y15603D01*
X32165Y15575D01*
X32220Y15552D01*
G54D10*
G36*
X35106Y16389D02*
X35006Y16389D01*
X34956Y16389D01*
X34693Y16389D01*
X34631Y16327D01*
X34632Y16213D01*
X34632Y16114D01*
X34648Y16076D01*
X34623Y16065D01*
X34590Y15966D01*
X34898Y15658D01*
X34933Y15623D01*
X35004Y15552D01*
X34933Y15481D01*
X34862Y15552D01*
X34827Y15587D01*
X34519Y15895D01*
X34420Y15862D01*
X34340Y15643D01*
X34351Y15408D01*
X34351Y15407D01*
X33889Y15407D01*
X33890Y15440D01*
X33890Y15664D01*
X33889Y15741D01*
X33851Y15833D01*
X33781Y15903D01*
X33690Y15941D01*
X33591Y15941D01*
X33557Y15942D01*
X33495Y15880D01*
X33495Y15602D01*
X33828Y15602D01*
X33890Y15664D01*
X33890Y15440D01*
X33828Y15502D01*
X33545Y15502D01*
X33495Y15502D01*
X33395Y15502D01*
X33395Y15602D01*
X33395Y15880D01*
X33333Y15942D01*
X33299Y15941D01*
X33200Y15941D01*
X33109Y15903D01*
X33039Y15833D01*
X33001Y15741D01*
X33000Y15664D01*
X33062Y15602D01*
X33395Y15602D01*
X33395Y15502D01*
X33345Y15502D01*
X33075Y15502D01*
X32952Y15526D01*
X32840Y15526D01*
X32837Y15529D01*
X32781Y15553D01*
X32837Y15575D01*
X32907Y15645D01*
X32945Y15736D01*
X32945Y15835D01*
X32945Y16115D01*
X32907Y16207D01*
X32837Y16277D01*
X32746Y16315D01*
X32647Y16315D01*
X32257Y16315D01*
X32165Y16277D01*
X32108Y16220D01*
X32090Y16238D01*
X32000Y16276D01*
X32000Y16310D01*
X32001Y16424D01*
X31939Y16486D01*
X31676Y16486D01*
X31626Y16486D01*
X31526Y16486D01*
X31526Y16586D01*
X31626Y16586D01*
X31676Y16586D01*
X31939Y16586D01*
X32001Y16648D01*
X32000Y16738D01*
X34632Y16738D01*
X34632Y16665D01*
X34631Y16551D01*
X34693Y16489D01*
X34956Y16489D01*
X35006Y16489D01*
X35106Y16489D01*
X35106Y16389D01*
X35106Y16389D01*
G37*
G54D49*
X35106Y16389D02*
X35006Y16389D01*
X34956Y16389D01*
X34693Y16389D01*
X34631Y16327D01*
X34632Y16213D01*
X34632Y16114D01*
X34648Y16076D01*
X34623Y16065D01*
X34590Y15966D01*
X34898Y15658D01*
X34933Y15623D01*
X35004Y15552D01*
X34933Y15481D01*
X34862Y15552D01*
X34827Y15587D01*
X34519Y15895D01*
X34420Y15862D01*
X34340Y15643D01*
X34351Y15408D01*
X34351Y15407D01*
X33889Y15407D01*
X33890Y15440D01*
X33890Y15664D01*
X33889Y15741D01*
X33851Y15833D01*
X33781Y15903D01*
X33690Y15941D01*
X33591Y15941D01*
X33557Y15942D01*
X33495Y15880D01*
X33495Y15602D01*
X33828Y15602D01*
X33890Y15664D01*
X33890Y15440D01*
X33828Y15502D01*
X33545Y15502D01*
X33495Y15502D01*
X33395Y15502D01*
X33395Y15602D01*
X33395Y15880D01*
X33333Y15942D01*
X33299Y15941D01*
X33200Y15941D01*
X33109Y15903D01*
X33039Y15833D01*
X33001Y15741D01*
X33000Y15664D01*
X33062Y15602D01*
X33395Y15602D01*
X33395Y15502D01*
X33345Y15502D01*
X33075Y15502D01*
X32952Y15526D01*
X32840Y15526D01*
X32837Y15529D01*
X32781Y15553D01*
X32837Y15575D01*
X32907Y15645D01*
X32945Y15736D01*
X32945Y15835D01*
X32945Y16115D01*
X32907Y16207D01*
X32837Y16277D01*
X32746Y16315D01*
X32647Y16315D01*
X32257Y16315D01*
X32165Y16277D01*
X32108Y16220D01*
X32090Y16238D01*
X32000Y16276D01*
X32000Y16310D01*
X32001Y16424D01*
X31939Y16486D01*
X31676Y16486D01*
X31626Y16486D01*
X31526Y16486D01*
X31526Y16586D01*
X31626Y16586D01*
X31676Y16586D01*
X31939Y16586D01*
X32001Y16648D01*
X32000Y16738D01*
X34632Y16738D01*
X34632Y16665D01*
X34631Y16551D01*
X34693Y16489D01*
X34956Y16489D01*
X35006Y16489D01*
X35106Y16489D01*
X35106Y16389D01*
G54D10*
G36*
X35186Y14125D02*
X33764Y14125D01*
X33772Y14144D01*
X33772Y14243D01*
X33773Y14357D01*
X33711Y14419D01*
X33448Y14419D01*
X33398Y14419D01*
X33298Y14419D01*
X33298Y14519D01*
X33398Y14519D01*
X33448Y14519D01*
X33711Y14519D01*
X33773Y14581D01*
X33772Y14695D01*
X33772Y14711D01*
X34207Y14711D01*
X34400Y14518D01*
X34512Y14442D01*
X34513Y14442D01*
X34646Y14416D01*
X35145Y14416D01*
X35186Y14424D01*
X35186Y14125D01*
X35186Y14125D01*
G37*
G54D49*
X35186Y14125D02*
X33764Y14125D01*
X33772Y14144D01*
X33772Y14243D01*
X33773Y14357D01*
X33711Y14419D01*
X33448Y14419D01*
X33398Y14419D01*
X33298Y14419D01*
X33298Y14519D01*
X33398Y14519D01*
X33448Y14519D01*
X33711Y14519D01*
X33773Y14581D01*
X33772Y14695D01*
X33772Y14711D01*
X34207Y14711D01*
X34400Y14518D01*
X34512Y14442D01*
X34513Y14442D01*
X34646Y14416D01*
X35145Y14416D01*
X35186Y14424D01*
X35186Y14125D01*
G54D10*
G36*
X35383Y19276D02*
X35372Y19287D01*
X35280Y19325D01*
X35168Y19326D01*
X35106Y19264D01*
X35106Y18901D01*
X35106Y18851D01*
X35106Y18751D01*
X35006Y18751D01*
X35006Y18851D01*
X35006Y18901D01*
X35006Y19264D01*
X34944Y19326D01*
X34832Y19325D01*
X34740Y19287D01*
X34670Y19217D01*
X34632Y19126D01*
X34632Y19027D01*
X34631Y18913D01*
X34643Y18901D01*
X34631Y18901D01*
X34631Y18831D01*
X34556Y18831D01*
X34206Y18831D01*
X34114Y18793D01*
X34055Y18734D01*
X33996Y18793D01*
X33904Y18831D01*
X33792Y18832D01*
X33730Y18770D01*
X33730Y18407D01*
X33730Y18357D01*
X33730Y18257D01*
X33630Y18257D01*
X33630Y18357D01*
X33630Y18770D01*
X33568Y18832D01*
X33456Y18831D01*
X33364Y18793D01*
X33294Y18723D01*
X33279Y18688D01*
X33280Y18786D01*
X33218Y18848D01*
X32905Y18848D01*
X32905Y18435D01*
X32967Y18373D01*
X33079Y18374D01*
X33171Y18412D01*
X33241Y18482D01*
X33255Y18518D01*
X33255Y18419D01*
X33317Y18357D01*
X33630Y18357D01*
X33630Y18257D01*
X33580Y18257D01*
X33317Y18257D01*
X33264Y18204D01*
X33197Y18204D01*
X32807Y18204D01*
X32715Y18166D01*
X32645Y18096D01*
X32607Y18005D01*
X32607Y17906D01*
X32607Y17626D01*
X32645Y17534D01*
X32715Y17464D01*
X32806Y17426D01*
X32905Y17426D01*
X33030Y17426D01*
X33138Y17318D01*
X32551Y17318D01*
X32552Y17329D01*
X32490Y17391D01*
X32207Y17391D01*
X32157Y17391D01*
X32057Y17391D01*
X32057Y17491D01*
X32157Y17491D01*
X32207Y17491D01*
X32490Y17491D01*
X32552Y17553D01*
X32551Y17630D01*
X32513Y17722D01*
X32443Y17792D01*
X32387Y17816D01*
X32443Y17838D01*
X32513Y17908D01*
X32551Y17999D01*
X32551Y18098D01*
X32551Y18378D01*
X32535Y18416D01*
X32539Y18412D01*
X32631Y18374D01*
X32743Y18373D01*
X32805Y18435D01*
X32805Y18798D01*
X32805Y18848D01*
X32805Y18948D01*
X32905Y18948D01*
X32955Y18948D01*
X33218Y18948D01*
X33280Y19010D01*
X33279Y19124D01*
X33279Y19223D01*
X33241Y19314D01*
X33215Y19340D01*
X35383Y19340D01*
X35383Y19276D01*
X35383Y19276D01*
G37*
G54D49*
X35383Y19276D02*
X35372Y19287D01*
X35280Y19325D01*
X35168Y19326D01*
X35106Y19264D01*
X35106Y18901D01*
X35106Y18851D01*
X35106Y18751D01*
X35006Y18751D01*
X35006Y18851D01*
X35006Y18901D01*
X35006Y19264D01*
X34944Y19326D01*
X34832Y19325D01*
X34740Y19287D01*
X34670Y19217D01*
X34632Y19126D01*
X34632Y19027D01*
X34631Y18913D01*
X34643Y18901D01*
X34631Y18901D01*
X34631Y18831D01*
X34556Y18831D01*
X34206Y18831D01*
X34114Y18793D01*
X34055Y18734D01*
X33996Y18793D01*
X33904Y18831D01*
X33792Y18832D01*
X33730Y18770D01*
X33730Y18407D01*
X33730Y18357D01*
X33730Y18257D01*
X33630Y18257D01*
X33630Y18357D01*
X33630Y18770D01*
X33568Y18832D01*
X33456Y18831D01*
X33364Y18793D01*
X33294Y18723D01*
X33279Y18688D01*
X33280Y18786D01*
X33218Y18848D01*
X32905Y18848D01*
X32905Y18435D01*
X32967Y18373D01*
X33079Y18374D01*
X33171Y18412D01*
X33241Y18482D01*
X33255Y18518D01*
X33255Y18419D01*
X33317Y18357D01*
X33630Y18357D01*
X33630Y18257D01*
X33580Y18257D01*
X33317Y18257D01*
X33264Y18204D01*
X33197Y18204D01*
X32807Y18204D01*
X32715Y18166D01*
X32645Y18096D01*
X32607Y18005D01*
X32607Y17906D01*
X32607Y17626D01*
X32645Y17534D01*
X32715Y17464D01*
X32806Y17426D01*
X32905Y17426D01*
X33030Y17426D01*
X33138Y17318D01*
X32551Y17318D01*
X32552Y17329D01*
X32490Y17391D01*
X32207Y17391D01*
X32157Y17391D01*
X32057Y17391D01*
X32057Y17491D01*
X32157Y17491D01*
X32207Y17491D01*
X32490Y17491D01*
X32552Y17553D01*
X32551Y17630D01*
X32513Y17722D01*
X32443Y17792D01*
X32387Y17816D01*
X32443Y17838D01*
X32513Y17908D01*
X32551Y17999D01*
X32551Y18098D01*
X32551Y18378D01*
X32535Y18416D01*
X32539Y18412D01*
X32631Y18374D01*
X32743Y18373D01*
X32805Y18435D01*
X32805Y18798D01*
X32805Y18848D01*
X32805Y18948D01*
X32905Y18948D01*
X32955Y18948D01*
X33218Y18948D01*
X33280Y19010D01*
X33279Y19124D01*
X33279Y19223D01*
X33241Y19314D01*
X33215Y19340D01*
X35383Y19340D01*
X35383Y19276D01*
G54D10*
G36*
X35383Y17520D02*
X35331Y17520D01*
X35331Y17508D01*
X35320Y17519D01*
X35281Y17519D01*
X35243Y17504D01*
X35206Y17519D01*
X35107Y17519D01*
X34907Y17519D01*
X34854Y17498D01*
X34854Y17743D01*
X34906Y17721D01*
X35005Y17721D01*
X35205Y17721D01*
X35297Y17759D01*
X35367Y17829D01*
X35383Y17868D01*
X35383Y17520D01*
X35383Y17520D01*
G37*
G54D49*
X35383Y17520D02*
X35331Y17520D01*
X35331Y17508D01*
X35320Y17519D01*
X35281Y17519D01*
X35243Y17504D01*
X35206Y17519D01*
X35107Y17519D01*
X34907Y17519D01*
X34854Y17498D01*
X34854Y17743D01*
X34906Y17721D01*
X35005Y17721D01*
X35205Y17721D01*
X35297Y17759D01*
X35367Y17829D01*
X35383Y17868D01*
X35383Y17520D01*
G54D10*
G36*
X37970Y17669D02*
X36231Y17669D01*
X36231Y18689D01*
X36231Y18913D01*
X36230Y19027D01*
X36230Y19126D01*
X36192Y19217D01*
X36122Y19287D01*
X36030Y19325D01*
X35918Y19326D01*
X35856Y19264D01*
X35856Y18851D01*
X36169Y18851D01*
X36231Y18913D01*
X36231Y18689D01*
X36169Y18751D01*
X35856Y18751D01*
X35856Y18458D01*
X35856Y18338D01*
X35856Y18170D01*
X36094Y18170D01*
X36156Y18232D01*
X36155Y18319D01*
X36146Y18340D01*
X36192Y18385D01*
X36230Y18476D01*
X36230Y18575D01*
X36231Y18689D01*
X36231Y17669D01*
X36156Y17669D01*
X35820Y17669D01*
X35820Y17715D01*
X35817Y17720D01*
X35906Y17720D01*
X35906Y17732D01*
X35917Y17721D01*
X35956Y17721D01*
X36047Y17759D01*
X36117Y17829D01*
X36155Y17921D01*
X36156Y18008D01*
X36094Y18070D01*
X35906Y18070D01*
X35856Y18070D01*
X35778Y18070D01*
X35778Y19340D01*
X36298Y19340D01*
X37970Y17669D01*
X37970Y17669D01*
G37*
G54D49*
X37970Y17669D02*
X36231Y17669D01*
X36231Y18689D01*
X36231Y18913D01*
X36230Y19027D01*
X36230Y19126D01*
X36192Y19217D01*
X36122Y19287D01*
X36030Y19325D01*
X35918Y19326D01*
X35856Y19264D01*
X35856Y18851D01*
X36169Y18851D01*
X36231Y18913D01*
X36231Y18689D01*
X36169Y18751D01*
X35856Y18751D01*
X35856Y18458D01*
X35856Y18338D01*
X35856Y18170D01*
X36094Y18170D01*
X36156Y18232D01*
X36155Y18319D01*
X36146Y18340D01*
X36192Y18385D01*
X36230Y18476D01*
X36230Y18575D01*
X36231Y18689D01*
X36231Y17669D01*
X36156Y17669D01*
X35820Y17669D01*
X35820Y17715D01*
X35817Y17720D01*
X35906Y17720D01*
X35906Y17732D01*
X35917Y17721D01*
X35956Y17721D01*
X36047Y17759D01*
X36117Y17829D01*
X36155Y17921D01*
X36156Y18008D01*
X36094Y18070D01*
X35906Y18070D01*
X35856Y18070D01*
X35778Y18070D01*
X35778Y19340D01*
X36298Y19340D01*
X37970Y17669D01*
G54D10*
G36*
X25005Y10789D02*
X24979Y10778D01*
X24909Y10708D01*
X24871Y10617D01*
X24871Y10518D01*
X24871Y10349D01*
X24718Y10349D01*
X24656Y10287D01*
X24656Y09699D01*
X24656Y09649D01*
X24656Y09549D01*
X24556Y09549D01*
X24556Y09649D01*
X24556Y09699D01*
X24556Y10287D01*
X24503Y10340D01*
X24503Y10943D01*
X24529Y10932D01*
X24683Y10932D01*
X24825Y10991D01*
X24934Y11100D01*
X24993Y11242D01*
X24993Y11396D01*
X24954Y11490D01*
X24954Y11615D01*
X24953Y11616D01*
X24928Y11748D01*
X24927Y11749D01*
X24902Y11786D01*
X24852Y11861D01*
X24852Y11862D01*
X24561Y12153D01*
X24561Y13533D01*
X24787Y13533D01*
X24771Y13494D01*
X24771Y13395D01*
X24771Y13045D01*
X24809Y12953D01*
X24868Y12894D01*
X24809Y12835D01*
X24771Y12744D01*
X24771Y12645D01*
X24771Y12295D01*
X24809Y12203D01*
X24879Y12133D01*
X24970Y12095D01*
X25005Y12095D01*
X25005Y10789D01*
X25005Y10789D01*
G37*
G54D49*
X25005Y10789D02*
X24979Y10778D01*
X24909Y10708D01*
X24871Y10617D01*
X24871Y10518D01*
X24871Y10349D01*
X24718Y10349D01*
X24656Y10287D01*
X24656Y09699D01*
X24656Y09649D01*
X24656Y09549D01*
X24556Y09549D01*
X24556Y09649D01*
X24556Y09699D01*
X24556Y10287D01*
X24503Y10340D01*
X24503Y10943D01*
X24529Y10932D01*
X24683Y10932D01*
X24825Y10991D01*
X24934Y11100D01*
X24993Y11242D01*
X24993Y11396D01*
X24954Y11490D01*
X24954Y11615D01*
X24953Y11616D01*
X24928Y11748D01*
X24927Y11749D01*
X24902Y11786D01*
X24852Y11861D01*
X24852Y11862D01*
X24561Y12153D01*
X24561Y13533D01*
X24787Y13533D01*
X24771Y13494D01*
X24771Y13395D01*
X24771Y13045D01*
X24809Y12953D01*
X24868Y12894D01*
X24809Y12835D01*
X24771Y12744D01*
X24771Y12645D01*
X24771Y12295D01*
X24809Y12203D01*
X24879Y12133D01*
X24970Y12095D01*
X25005Y12095D01*
X25005Y10789D01*
G54D10*
G36*
X29795Y09618D02*
X28695Y08518D01*
X28515Y08518D01*
X29093Y09095D01*
X29093Y09096D01*
X29156Y09189D01*
X29156Y09190D01*
X29159Y09208D01*
X29177Y09301D01*
X29178Y09301D01*
X29178Y09625D01*
X29254Y09656D01*
X29324Y09726D01*
X29362Y09817D01*
X29362Y09916D01*
X29362Y10616D01*
X29324Y10708D01*
X29254Y10778D01*
X29163Y10816D01*
X29064Y10816D01*
X29010Y10816D01*
X29033Y10869D01*
X29033Y10968D01*
X29034Y11207D01*
X28972Y11269D01*
X28584Y11269D01*
X28534Y11269D01*
X28434Y11269D01*
X28384Y11269D01*
X27996Y11269D01*
X27934Y11207D01*
X27935Y10968D01*
X27935Y10869D01*
X27973Y10778D01*
X27974Y10777D01*
X27953Y10755D01*
X27953Y10267D01*
X28316Y10267D01*
X28378Y10329D01*
X28377Y10518D01*
X28377Y10617D01*
X28355Y10670D01*
X28372Y10669D01*
X28384Y10681D01*
X28384Y10669D01*
X28434Y10669D01*
X28434Y10665D01*
X28414Y10617D01*
X28414Y10518D01*
X28414Y09818D01*
X28452Y09726D01*
X28522Y09656D01*
X28598Y09625D01*
X28598Y09422D01*
X28378Y09202D01*
X28378Y10105D01*
X28316Y10167D01*
X27953Y10167D01*
X27953Y09679D01*
X28015Y09617D01*
X28177Y09618D01*
X28269Y09656D01*
X28339Y09726D01*
X28377Y09817D01*
X28377Y09916D01*
X28378Y10105D01*
X28378Y09202D01*
X28029Y08853D01*
X27853Y08853D01*
X27853Y09679D01*
X27853Y10167D01*
X27853Y10267D01*
X27853Y10755D01*
X27791Y10817D01*
X27629Y10816D01*
X27537Y10778D01*
X27467Y10708D01*
X27429Y10617D01*
X27429Y10518D01*
X27428Y10329D01*
X27490Y10267D01*
X27853Y10267D01*
X27853Y10167D01*
X27490Y10167D01*
X27428Y10105D01*
X27429Y09916D01*
X27429Y09817D01*
X27467Y09726D01*
X27537Y09656D01*
X27629Y09618D01*
X27791Y09617D01*
X27853Y09679D01*
X27853Y08853D01*
X25918Y08853D01*
X25952Y08888D01*
X26006Y08865D01*
X26160Y08865D01*
X26302Y08924D01*
X26411Y09033D01*
X26470Y09175D01*
X26470Y09329D01*
X26411Y09471D01*
X26302Y09580D01*
X26236Y09608D01*
X26226Y09618D01*
X26528Y09618D01*
X26586Y09643D01*
X26644Y09618D01*
X26743Y09618D01*
X27193Y09618D01*
X27285Y09656D01*
X27355Y09726D01*
X27393Y09817D01*
X27393Y09916D01*
X27393Y10616D01*
X27355Y10708D01*
X27285Y10778D01*
X27236Y10799D01*
X27257Y10849D01*
X27257Y11000D01*
X27863Y11606D01*
X27926Y11700D01*
X27935Y11746D01*
X27935Y11670D01*
X27934Y11431D01*
X27996Y11369D01*
X28384Y11369D01*
X28434Y11369D01*
X28534Y11369D01*
X28584Y11369D01*
X28972Y11369D01*
X29034Y11431D01*
X29033Y11670D01*
X29033Y11769D01*
X28995Y11860D01*
X28945Y11910D01*
X28995Y11959D01*
X29033Y12050D01*
X29033Y12149D01*
X29033Y12949D01*
X28995Y13041D01*
X28925Y13111D01*
X28862Y13137D01*
X29405Y13137D01*
X29343Y13111D01*
X29273Y13041D01*
X29235Y12950D01*
X29235Y12851D01*
X29235Y12051D01*
X29273Y11959D01*
X29322Y11910D01*
X29273Y11860D01*
X29235Y11769D01*
X29235Y11670D01*
X29235Y10870D01*
X29273Y10778D01*
X29343Y10708D01*
X29422Y10675D01*
X29398Y10617D01*
X29398Y10518D01*
X29398Y09818D01*
X29436Y09726D01*
X29506Y09656D01*
X29597Y09618D01*
X29696Y09618D01*
X29795Y09618D01*
X29795Y09618D01*
G37*
G54D49*
X29795Y09618D02*
X28695Y08518D01*
X28515Y08518D01*
X29093Y09095D01*
X29093Y09096D01*
X29156Y09189D01*
X29156Y09190D01*
X29159Y09208D01*
X29177Y09301D01*
X29178Y09301D01*
X29178Y09625D01*
X29254Y09656D01*
X29324Y09726D01*
X29362Y09817D01*
X29362Y09916D01*
X29362Y10616D01*
X29324Y10708D01*
X29254Y10778D01*
X29163Y10816D01*
X29064Y10816D01*
X29010Y10816D01*
X29033Y10869D01*
X29033Y10968D01*
X29034Y11207D01*
X28972Y11269D01*
X28584Y11269D01*
X28534Y11269D01*
X28434Y11269D01*
X28384Y11269D01*
X27996Y11269D01*
X27934Y11207D01*
X27935Y10968D01*
X27935Y10869D01*
X27973Y10778D01*
X27974Y10777D01*
X27953Y10755D01*
X27953Y10267D01*
X28316Y10267D01*
X28378Y10329D01*
X28377Y10518D01*
X28377Y10617D01*
X28355Y10670D01*
X28372Y10669D01*
X28384Y10681D01*
X28384Y10669D01*
X28434Y10669D01*
X28434Y10665D01*
X28414Y10617D01*
X28414Y10518D01*
X28414Y09818D01*
X28452Y09726D01*
X28522Y09656D01*
X28598Y09625D01*
X28598Y09422D01*
X28378Y09202D01*
X28378Y10105D01*
X28316Y10167D01*
X27953Y10167D01*
X27953Y09679D01*
X28015Y09617D01*
X28177Y09618D01*
X28269Y09656D01*
X28339Y09726D01*
X28377Y09817D01*
X28377Y09916D01*
X28378Y10105D01*
X28378Y09202D01*
X28029Y08853D01*
X27853Y08853D01*
X27853Y09679D01*
X27853Y10167D01*
X27853Y10267D01*
X27853Y10755D01*
X27791Y10817D01*
X27629Y10816D01*
X27537Y10778D01*
X27467Y10708D01*
X27429Y10617D01*
X27429Y10518D01*
X27428Y10329D01*
X27490Y10267D01*
X27853Y10267D01*
X27853Y10167D01*
X27490Y10167D01*
X27428Y10105D01*
X27429Y09916D01*
X27429Y09817D01*
X27467Y09726D01*
X27537Y09656D01*
X27629Y09618D01*
X27791Y09617D01*
X27853Y09679D01*
X27853Y08853D01*
X25918Y08853D01*
X25952Y08888D01*
X26006Y08865D01*
X26160Y08865D01*
X26302Y08924D01*
X26411Y09033D01*
X26470Y09175D01*
X26470Y09329D01*
X26411Y09471D01*
X26302Y09580D01*
X26236Y09608D01*
X26226Y09618D01*
X26528Y09618D01*
X26586Y09643D01*
X26644Y09618D01*
X26743Y09618D01*
X27193Y09618D01*
X27285Y09656D01*
X27355Y09726D01*
X27393Y09817D01*
X27393Y09916D01*
X27393Y10616D01*
X27355Y10708D01*
X27285Y10778D01*
X27236Y10799D01*
X27257Y10849D01*
X27257Y11000D01*
X27863Y11606D01*
X27926Y11700D01*
X27935Y11746D01*
X27935Y11670D01*
X27934Y11431D01*
X27996Y11369D01*
X28384Y11369D01*
X28434Y11369D01*
X28534Y11369D01*
X28584Y11369D01*
X28972Y11369D01*
X29034Y11431D01*
X29033Y11670D01*
X29033Y11769D01*
X28995Y11860D01*
X28945Y11910D01*
X28995Y11959D01*
X29033Y12050D01*
X29033Y12149D01*
X29033Y12949D01*
X28995Y13041D01*
X28925Y13111D01*
X28862Y13137D01*
X29405Y13137D01*
X29343Y13111D01*
X29273Y13041D01*
X29235Y12950D01*
X29235Y12851D01*
X29235Y12051D01*
X29273Y11959D01*
X29322Y11910D01*
X29273Y11860D01*
X29235Y11769D01*
X29235Y11670D01*
X29235Y10870D01*
X29273Y10778D01*
X29343Y10708D01*
X29422Y10675D01*
X29398Y10617D01*
X29398Y10518D01*
X29398Y09818D01*
X29436Y09726D01*
X29506Y09656D01*
X29597Y09618D01*
X29696Y09618D01*
X29795Y09618D01*
G54D10*
G36*
X32376Y09756D02*
X31586Y08965D01*
X31583Y08962D01*
X31331Y08710D01*
X31331Y10105D01*
X31331Y10329D01*
X31330Y10518D01*
X31330Y10617D01*
X31292Y10708D01*
X31222Y10778D01*
X31130Y10816D01*
X30968Y10817D01*
X30906Y10755D01*
X30906Y10267D01*
X31269Y10267D01*
X31331Y10329D01*
X31331Y10105D01*
X31269Y10167D01*
X30906Y10167D01*
X30906Y09679D01*
X30968Y09617D01*
X31130Y09618D01*
X31222Y09656D01*
X31292Y09726D01*
X31330Y09817D01*
X31330Y09916D01*
X31331Y10105D01*
X31331Y08710D01*
X30900Y08279D01*
X30897Y08276D01*
X30687Y08066D01*
X29227Y08066D01*
X30658Y09497D01*
X30658Y09498D01*
X30659Y09498D01*
X30734Y09610D01*
X30735Y09611D01*
X30736Y09618D01*
X30744Y09617D01*
X30806Y09679D01*
X30806Y10117D01*
X30806Y10167D01*
X30806Y10267D01*
X30806Y10317D01*
X30806Y10755D01*
X30761Y10800D01*
X30761Y12904D01*
X30774Y12872D01*
X30883Y12763D01*
X31025Y12704D01*
X31079Y12704D01*
X31683Y12100D01*
X31684Y12099D01*
X31777Y12037D01*
X31778Y12036D01*
X31888Y12015D01*
X31889Y12014D01*
X32163Y12014D01*
X32289Y11888D01*
X32289Y11183D01*
X32277Y11171D01*
X32277Y11199D01*
X32218Y11341D01*
X32109Y11450D01*
X31967Y11509D01*
X31813Y11509D01*
X31671Y11450D01*
X31562Y11341D01*
X31503Y11199D01*
X31503Y11045D01*
X31550Y10932D01*
X31550Y10810D01*
X31474Y10778D01*
X31404Y10708D01*
X31366Y10617D01*
X31366Y10518D01*
X31366Y09818D01*
X31404Y09726D01*
X31474Y09656D01*
X31565Y09618D01*
X31664Y09618D01*
X32114Y09618D01*
X32206Y09656D01*
X32276Y09726D01*
X32314Y09817D01*
X32314Y09916D01*
X32314Y10616D01*
X32294Y10664D01*
X32351Y10607D01*
X32351Y10518D01*
X32351Y09818D01*
X32376Y09756D01*
X32376Y09756D01*
G37*
G54D49*
X32376Y09756D02*
X31586Y08965D01*
X31583Y08962D01*
X31331Y08710D01*
X31331Y10105D01*
X31331Y10329D01*
X31330Y10518D01*
X31330Y10617D01*
X31292Y10708D01*
X31222Y10778D01*
X31130Y10816D01*
X30968Y10817D01*
X30906Y10755D01*
X30906Y10267D01*
X31269Y10267D01*
X31331Y10329D01*
X31331Y10105D01*
X31269Y10167D01*
X30906Y10167D01*
X30906Y09679D01*
X30968Y09617D01*
X31130Y09618D01*
X31222Y09656D01*
X31292Y09726D01*
X31330Y09817D01*
X31330Y09916D01*
X31331Y10105D01*
X31331Y08710D01*
X30900Y08279D01*
X30897Y08276D01*
X30687Y08066D01*
X29227Y08066D01*
X30658Y09497D01*
X30658Y09498D01*
X30659Y09498D01*
X30734Y09610D01*
X30735Y09611D01*
X30736Y09618D01*
X30744Y09617D01*
X30806Y09679D01*
X30806Y10117D01*
X30806Y10167D01*
X30806Y10267D01*
X30806Y10317D01*
X30806Y10755D01*
X30761Y10800D01*
X30761Y12904D01*
X30774Y12872D01*
X30883Y12763D01*
X31025Y12704D01*
X31079Y12704D01*
X31683Y12100D01*
X31684Y12099D01*
X31777Y12037D01*
X31778Y12036D01*
X31888Y12015D01*
X31889Y12014D01*
X32163Y12014D01*
X32289Y11888D01*
X32289Y11183D01*
X32277Y11171D01*
X32277Y11199D01*
X32218Y11341D01*
X32109Y11450D01*
X31967Y11509D01*
X31813Y11509D01*
X31671Y11450D01*
X31562Y11341D01*
X31503Y11199D01*
X31503Y11045D01*
X31550Y10932D01*
X31550Y10810D01*
X31474Y10778D01*
X31404Y10708D01*
X31366Y10617D01*
X31366Y10518D01*
X31366Y09818D01*
X31404Y09726D01*
X31474Y09656D01*
X31565Y09618D01*
X31664Y09618D01*
X32114Y09618D01*
X32206Y09656D01*
X32276Y09726D01*
X32314Y09817D01*
X32314Y09916D01*
X32314Y10616D01*
X32294Y10664D01*
X32351Y10607D01*
X32351Y10518D01*
X32351Y09818D01*
X32376Y09756D01*
G54D10*
G36*
X37193Y07376D02*
X37128Y07376D01*
X36986Y07317D01*
X36922Y07253D01*
X36922Y07664D01*
X36860Y07726D01*
X36547Y07726D01*
X36547Y07313D01*
X36609Y07251D01*
X36721Y07252D01*
X36813Y07290D01*
X36883Y07360D01*
X36921Y07451D01*
X36921Y07550D01*
X36922Y07664D01*
X36922Y07253D01*
X36877Y07208D01*
X36818Y07066D01*
X36818Y06912D01*
X36829Y06885D01*
X36686Y06885D01*
X36594Y06847D01*
X36524Y06777D01*
X36493Y06705D01*
X36447Y06705D01*
X36150Y06705D01*
X36326Y06881D01*
X36326Y06882D01*
X36327Y06882D01*
X36389Y06975D01*
X36390Y06976D01*
X36411Y07086D01*
X36412Y07087D01*
X36412Y07278D01*
X36447Y07313D01*
X36447Y07676D01*
X36447Y07726D01*
X36447Y07826D01*
X36547Y07826D01*
X36597Y07826D01*
X36860Y07826D01*
X36922Y07888D01*
X36921Y08002D01*
X36921Y08081D01*
X36975Y07951D01*
X37084Y07842D01*
X37193Y07797D01*
X37193Y07376D01*
X37193Y07376D01*
G37*
G54D49*
X37193Y07376D02*
X37128Y07376D01*
X36986Y07317D01*
X36922Y07253D01*
X36922Y07664D01*
X36860Y07726D01*
X36547Y07726D01*
X36547Y07313D01*
X36609Y07251D01*
X36721Y07252D01*
X36813Y07290D01*
X36883Y07360D01*
X36921Y07451D01*
X36921Y07550D01*
X36922Y07664D01*
X36922Y07253D01*
X36877Y07208D01*
X36818Y07066D01*
X36818Y06912D01*
X36829Y06885D01*
X36686Y06885D01*
X36594Y06847D01*
X36524Y06777D01*
X36493Y06705D01*
X36447Y06705D01*
X36150Y06705D01*
X36326Y06881D01*
X36326Y06882D01*
X36327Y06882D01*
X36389Y06975D01*
X36390Y06976D01*
X36411Y07086D01*
X36412Y07087D01*
X36412Y07278D01*
X36447Y07313D01*
X36447Y07676D01*
X36447Y07726D01*
X36447Y07826D01*
X36547Y07826D01*
X36597Y07826D01*
X36860Y07826D01*
X36922Y07888D01*
X36921Y08002D01*
X36921Y08081D01*
X36975Y07951D01*
X37084Y07842D01*
X37193Y07797D01*
X37193Y07376D01*
G54D10*
G36*
X39025Y11706D02*
X38376Y11706D01*
X38284Y11668D01*
X38214Y11598D01*
X38176Y11507D01*
X38176Y11408D01*
X38176Y11352D01*
X37432Y11352D01*
X37340Y11314D01*
X37270Y11244D01*
X37232Y11153D01*
X37232Y11054D01*
X37232Y10493D01*
X37232Y10474D01*
X37232Y10460D01*
X37241Y10451D01*
X37270Y10382D01*
X37297Y10355D01*
X37270Y10328D01*
X37241Y10260D01*
X37232Y10250D01*
X37232Y10237D01*
X37232Y10226D01*
X37115Y10343D01*
X37021Y10406D01*
X36921Y10426D01*
X36921Y10462D01*
X36892Y10532D01*
X36921Y10601D01*
X36921Y10700D01*
X36921Y11250D01*
X36913Y11269D01*
X36942Y11297D01*
X37001Y11439D01*
X37001Y11593D01*
X36942Y11735D01*
X36833Y11844D01*
X36691Y11903D01*
X36537Y11903D01*
X36426Y11858D01*
X36341Y11943D01*
X36199Y12002D01*
X36045Y12002D01*
X35903Y11943D01*
X35794Y11834D01*
X35735Y11692D01*
X35735Y11538D01*
X35771Y11450D01*
X35523Y11450D01*
X35431Y11412D01*
X35364Y11345D01*
X35357Y11352D01*
X35215Y11411D01*
X35061Y11411D01*
X34919Y11352D01*
X34810Y11243D01*
X34751Y11101D01*
X34751Y10947D01*
X34800Y10827D01*
X34751Y10707D01*
X34751Y10553D01*
X34810Y10411D01*
X34874Y10347D01*
X34814Y10287D01*
X34814Y09699D01*
X34814Y09649D01*
X34814Y09549D01*
X34814Y09499D01*
X34814Y08911D01*
X34876Y08849D01*
X35063Y08850D01*
X35155Y08888D01*
X35225Y08958D01*
X35263Y09049D01*
X35263Y09148D01*
X35263Y09424D01*
X35323Y09365D01*
X35323Y09027D01*
X35351Y08958D01*
X35323Y08888D01*
X35323Y08789D01*
X35323Y08239D01*
X35351Y08170D01*
X35323Y08101D01*
X35323Y08002D01*
X35323Y07762D01*
X34446Y06885D01*
X33840Y06885D01*
X33852Y06912D01*
X33852Y07066D01*
X33793Y07208D01*
X33684Y07317D01*
X33633Y07339D01*
X34555Y08260D01*
X34618Y08354D01*
X34639Y08465D01*
X34640Y08465D01*
X34640Y08850D01*
X34652Y08849D01*
X34714Y08911D01*
X34714Y09499D01*
X34714Y09549D01*
X34714Y09649D01*
X34714Y09699D01*
X34714Y10287D01*
X34652Y10349D01*
X34640Y10349D01*
X34640Y11418D01*
X34640Y11691D01*
X36482Y13533D01*
X39025Y13533D01*
X39025Y11706D01*
X39025Y11706D01*
G37*
G54D49*
X39025Y11706D02*
X38376Y11706D01*
X38284Y11668D01*
X38214Y11598D01*
X38176Y11507D01*
X38176Y11408D01*
X38176Y11352D01*
X37432Y11352D01*
X37340Y11314D01*
X37270Y11244D01*
X37232Y11153D01*
X37232Y11054D01*
X37232Y10493D01*
X37232Y10474D01*
X37232Y10460D01*
X37241Y10451D01*
X37270Y10382D01*
X37297Y10355D01*
X37270Y10328D01*
X37241Y10260D01*
X37232Y10250D01*
X37232Y10237D01*
X37232Y10226D01*
X37115Y10343D01*
X37021Y10406D01*
X36921Y10426D01*
X36921Y10462D01*
X36892Y10532D01*
X36921Y10601D01*
X36921Y10700D01*
X36921Y11250D01*
X36913Y11269D01*
X36942Y11297D01*
X37001Y11439D01*
X37001Y11593D01*
X36942Y11735D01*
X36833Y11844D01*
X36691Y11903D01*
X36537Y11903D01*
X36426Y11858D01*
X36341Y11943D01*
X36199Y12002D01*
X36045Y12002D01*
X35903Y11943D01*
X35794Y11834D01*
X35735Y11692D01*
X35735Y11538D01*
X35771Y11450D01*
X35523Y11450D01*
X35431Y11412D01*
X35364Y11345D01*
X35357Y11352D01*
X35215Y11411D01*
X35061Y11411D01*
X34919Y11352D01*
X34810Y11243D01*
X34751Y11101D01*
X34751Y10947D01*
X34800Y10827D01*
X34751Y10707D01*
X34751Y10553D01*
X34810Y10411D01*
X34874Y10347D01*
X34814Y10287D01*
X34814Y09699D01*
X34814Y09649D01*
X34814Y09549D01*
X34814Y09499D01*
X34814Y08911D01*
X34876Y08849D01*
X35063Y08850D01*
X35155Y08888D01*
X35225Y08958D01*
X35263Y09049D01*
X35263Y09148D01*
X35263Y09424D01*
X35323Y09365D01*
X35323Y09027D01*
X35351Y08958D01*
X35323Y08888D01*
X35323Y08789D01*
X35323Y08239D01*
X35351Y08170D01*
X35323Y08101D01*
X35323Y08002D01*
X35323Y07762D01*
X34446Y06885D01*
X33840Y06885D01*
X33852Y06912D01*
X33852Y07066D01*
X33793Y07208D01*
X33684Y07317D01*
X33633Y07339D01*
X34555Y08260D01*
X34618Y08354D01*
X34639Y08465D01*
X34640Y08465D01*
X34640Y08850D01*
X34652Y08849D01*
X34714Y08911D01*
X34714Y09499D01*
X34714Y09549D01*
X34714Y09649D01*
X34714Y09699D01*
X34714Y10287D01*
X34652Y10349D01*
X34640Y10349D01*
X34640Y11418D01*
X34640Y11691D01*
X36482Y13533D01*
X39025Y13533D01*
X39025Y11706D01*
G54D10*
G36*
X39025Y03073D02*
X38792Y02840D01*
X38792Y03629D01*
X38792Y03853D01*
X38791Y03967D01*
X38791Y04066D01*
X38753Y04157D01*
X38683Y04227D01*
X38591Y04265D01*
X38479Y04266D01*
X38417Y04204D01*
X38417Y03791D01*
X38730Y03791D01*
X38792Y03853D01*
X38792Y03629D01*
X38730Y03691D01*
X38417Y03691D01*
X38417Y03278D01*
X38479Y03216D01*
X38591Y03217D01*
X38683Y03255D01*
X38753Y03325D01*
X38791Y03416D01*
X38791Y03515D01*
X38792Y03629D01*
X38792Y02840D01*
X38199Y02247D01*
X38199Y02511D01*
X38199Y02610D01*
X38162Y02702D01*
X38092Y02772D01*
X37970Y02895D01*
X37882Y02895D01*
X37674Y02686D01*
X38007Y02352D01*
X38095Y02352D01*
X38161Y02419D01*
X38199Y02511D01*
X38199Y02247D01*
X36298Y00346D01*
X36129Y00346D01*
X36130Y00487D01*
X36130Y00711D01*
X36129Y01050D01*
X36129Y01149D01*
X36091Y01240D01*
X36021Y01310D01*
X35929Y01348D01*
X35742Y01349D01*
X35680Y01287D01*
X35680Y00649D01*
X36068Y00649D01*
X36130Y00711D01*
X36130Y00487D01*
X36068Y00549D01*
X35730Y00549D01*
X35680Y00549D01*
X35580Y00549D01*
X35530Y00549D01*
X35192Y00549D01*
X35130Y00487D01*
X35130Y00346D01*
X25105Y00346D01*
X25106Y00487D01*
X25044Y00549D01*
X24706Y00549D01*
X24656Y00549D01*
X24556Y00549D01*
X24556Y00649D01*
X24556Y00699D01*
X24556Y01287D01*
X24494Y01349D01*
X24307Y01348D01*
X24215Y01310D01*
X24145Y01240D01*
X24107Y01149D01*
X24107Y01050D01*
X24106Y00908D01*
X24062Y00952D01*
X23967Y00992D01*
X23967Y01876D01*
X24250Y01876D01*
X24461Y01665D01*
X24555Y01602D01*
X24613Y01591D01*
X24613Y01498D01*
X24672Y01356D01*
X24698Y01330D01*
X24656Y01287D01*
X24656Y00649D01*
X25044Y00649D01*
X25106Y00711D01*
X25105Y01050D01*
X25105Y01149D01*
X25086Y01193D01*
X25170Y01227D01*
X27290Y01227D01*
X27384Y01188D01*
X27538Y01188D01*
X27680Y01247D01*
X27789Y01356D01*
X27848Y01498D01*
X27848Y01580D01*
X28227Y01580D01*
X28255Y01552D01*
X28255Y01498D01*
X28314Y01356D01*
X28423Y01247D01*
X28565Y01188D01*
X28619Y01188D01*
X28732Y01075D01*
X28826Y01012D01*
X28937Y00990D01*
X35040Y00990D01*
X35130Y01009D01*
X35130Y00711D01*
X35192Y00649D01*
X35580Y00649D01*
X35580Y01287D01*
X35518Y01349D01*
X35620Y01450D01*
X36372Y01450D01*
X36641Y01182D01*
X36733Y01144D01*
X36832Y01144D01*
X36923Y01181D01*
X36993Y01251D01*
X37215Y01473D01*
X37253Y01565D01*
X37253Y01664D01*
X37216Y01756D01*
X37155Y01817D01*
X37208Y01817D01*
X37354Y01877D01*
X37465Y01988D01*
X37526Y02134D01*
X37526Y02188D01*
X37587Y02127D01*
X37679Y02090D01*
X37778Y02090D01*
X37870Y02128D01*
X37937Y02194D01*
X37937Y02282D01*
X37638Y02580D01*
X37603Y02615D01*
X37532Y02686D01*
X37603Y02757D01*
X37638Y02792D01*
X37812Y02965D01*
X37812Y03053D01*
X37689Y03175D01*
X37647Y03217D01*
X37841Y03217D01*
X37933Y03255D01*
X37992Y03314D01*
X38051Y03255D01*
X38143Y03217D01*
X38255Y03216D01*
X38317Y03278D01*
X38317Y03641D01*
X38317Y03691D01*
X38317Y03791D01*
X38317Y03841D01*
X38317Y04204D01*
X38267Y04254D01*
X38280Y04267D01*
X38318Y04358D01*
X38318Y04457D01*
X38318Y04737D01*
X38280Y04829D01*
X38210Y04899D01*
X38154Y04922D01*
X38210Y04945D01*
X38239Y04974D01*
X38265Y04948D01*
X38356Y04910D01*
X38455Y04910D01*
X38569Y04909D01*
X38631Y04971D01*
X38631Y05284D01*
X38218Y05284D01*
X38180Y05246D01*
X37974Y05246D01*
X37924Y05246D01*
X37824Y05246D01*
X37824Y05346D01*
X37824Y05624D01*
X37762Y05686D01*
X37728Y05685D01*
X37629Y05685D01*
X37538Y05647D01*
X37468Y05577D01*
X37430Y05485D01*
X37429Y05408D01*
X37491Y05346D01*
X37824Y05346D01*
X37824Y05246D01*
X37774Y05246D01*
X37491Y05246D01*
X37429Y05184D01*
X37430Y05107D01*
X37468Y05015D01*
X37538Y04945D01*
X37593Y04922D01*
X37538Y04899D01*
X37468Y04829D01*
X37430Y04738D01*
X37430Y04720D01*
X37368Y04720D01*
X37374Y04732D01*
X37374Y04831D01*
X37374Y05111D01*
X37336Y05203D01*
X37266Y05273D01*
X37220Y05293D01*
X37220Y05511D01*
X37509Y05800D01*
X37538Y05771D01*
X37629Y05733D01*
X37728Y05733D01*
X38118Y05733D01*
X38197Y05766D01*
X38254Y05709D01*
X38197Y05653D01*
X38119Y05685D01*
X38020Y05685D01*
X37986Y05686D01*
X37924Y05624D01*
X37924Y05346D01*
X38257Y05346D01*
X38295Y05384D01*
X38581Y05384D01*
X38631Y05384D01*
X38731Y05384D01*
X38731Y05284D01*
X38731Y05234D01*
X38731Y04971D01*
X38793Y04909D01*
X38907Y04910D01*
X39006Y04910D01*
X39025Y04918D01*
X39025Y03073D01*
X39025Y03073D01*
G37*
G54D49*
X39025Y03073D02*
X38792Y02840D01*
X38792Y03629D01*
X38792Y03853D01*
X38791Y03967D01*
X38791Y04066D01*
X38753Y04157D01*
X38683Y04227D01*
X38591Y04265D01*
X38479Y04266D01*
X38417Y04204D01*
X38417Y03791D01*
X38730Y03791D01*
X38792Y03853D01*
X38792Y03629D01*
X38730Y03691D01*
X38417Y03691D01*
X38417Y03278D01*
X38479Y03216D01*
X38591Y03217D01*
X38683Y03255D01*
X38753Y03325D01*
X38791Y03416D01*
X38791Y03515D01*
X38792Y03629D01*
X38792Y02840D01*
X38199Y02247D01*
X38199Y02511D01*
X38199Y02610D01*
X38162Y02702D01*
X38092Y02772D01*
X37970Y02895D01*
X37882Y02895D01*
X37674Y02686D01*
X38007Y02352D01*
X38095Y02352D01*
X38161Y02419D01*
X38199Y02511D01*
X38199Y02247D01*
X36298Y00346D01*
X36129Y00346D01*
X36130Y00487D01*
X36130Y00711D01*
X36129Y01050D01*
X36129Y01149D01*
X36091Y01240D01*
X36021Y01310D01*
X35929Y01348D01*
X35742Y01349D01*
X35680Y01287D01*
X35680Y00649D01*
X36068Y00649D01*
X36130Y00711D01*
X36130Y00487D01*
X36068Y00549D01*
X35730Y00549D01*
X35680Y00549D01*
X35580Y00549D01*
X35530Y00549D01*
X35192Y00549D01*
X35130Y00487D01*
X35130Y00346D01*
X25105Y00346D01*
X25106Y00487D01*
X25044Y00549D01*
X24706Y00549D01*
X24656Y00549D01*
X24556Y00549D01*
X24556Y00649D01*
X24556Y00699D01*
X24556Y01287D01*
X24494Y01349D01*
X24307Y01348D01*
X24215Y01310D01*
X24145Y01240D01*
X24107Y01149D01*
X24107Y01050D01*
X24106Y00908D01*
X24062Y00952D01*
X23967Y00992D01*
X23967Y01876D01*
X24250Y01876D01*
X24461Y01665D01*
X24555Y01602D01*
X24613Y01591D01*
X24613Y01498D01*
X24672Y01356D01*
X24698Y01330D01*
X24656Y01287D01*
X24656Y00649D01*
X25044Y00649D01*
X25106Y00711D01*
X25105Y01050D01*
X25105Y01149D01*
X25086Y01193D01*
X25170Y01227D01*
X27290Y01227D01*
X27384Y01188D01*
X27538Y01188D01*
X27680Y01247D01*
X27789Y01356D01*
X27848Y01498D01*
X27848Y01580D01*
X28227Y01580D01*
X28255Y01552D01*
X28255Y01498D01*
X28314Y01356D01*
X28423Y01247D01*
X28565Y01188D01*
X28619Y01188D01*
X28732Y01075D01*
X28826Y01012D01*
X28937Y00990D01*
X35040Y00990D01*
X35130Y01009D01*
X35130Y00711D01*
X35192Y00649D01*
X35580Y00649D01*
X35580Y01287D01*
X35518Y01349D01*
X35620Y01450D01*
X36372Y01450D01*
X36641Y01182D01*
X36733Y01144D01*
X36832Y01144D01*
X36923Y01181D01*
X36993Y01251D01*
X37215Y01473D01*
X37253Y01565D01*
X37253Y01664D01*
X37216Y01756D01*
X37155Y01817D01*
X37208Y01817D01*
X37354Y01877D01*
X37465Y01988D01*
X37526Y02134D01*
X37526Y02188D01*
X37587Y02127D01*
X37679Y02090D01*
X37778Y02090D01*
X37870Y02128D01*
X37937Y02194D01*
X37937Y02282D01*
X37638Y02580D01*
X37603Y02615D01*
X37532Y02686D01*
X37603Y02757D01*
X37638Y02792D01*
X37812Y02965D01*
X37812Y03053D01*
X37689Y03175D01*
X37647Y03217D01*
X37841Y03217D01*
X37933Y03255D01*
X37992Y03314D01*
X38051Y03255D01*
X38143Y03217D01*
X38255Y03216D01*
X38317Y03278D01*
X38317Y03641D01*
X38317Y03691D01*
X38317Y03791D01*
X38317Y03841D01*
X38317Y04204D01*
X38267Y04254D01*
X38280Y04267D01*
X38318Y04358D01*
X38318Y04457D01*
X38318Y04737D01*
X38280Y04829D01*
X38210Y04899D01*
X38154Y04922D01*
X38210Y04945D01*
X38239Y04974D01*
X38265Y04948D01*
X38356Y04910D01*
X38455Y04910D01*
X38569Y04909D01*
X38631Y04971D01*
X38631Y05284D01*
X38218Y05284D01*
X38180Y05246D01*
X37974Y05246D01*
X37924Y05246D01*
X37824Y05246D01*
X37824Y05346D01*
X37824Y05624D01*
X37762Y05686D01*
X37728Y05685D01*
X37629Y05685D01*
X37538Y05647D01*
X37468Y05577D01*
X37430Y05485D01*
X37429Y05408D01*
X37491Y05346D01*
X37824Y05346D01*
X37824Y05246D01*
X37774Y05246D01*
X37491Y05246D01*
X37429Y05184D01*
X37430Y05107D01*
X37468Y05015D01*
X37538Y04945D01*
X37593Y04922D01*
X37538Y04899D01*
X37468Y04829D01*
X37430Y04738D01*
X37430Y04720D01*
X37368Y04720D01*
X37374Y04732D01*
X37374Y04831D01*
X37374Y05111D01*
X37336Y05203D01*
X37266Y05273D01*
X37220Y05293D01*
X37220Y05511D01*
X37509Y05800D01*
X37538Y05771D01*
X37629Y05733D01*
X37728Y05733D01*
X38118Y05733D01*
X38197Y05766D01*
X38254Y05709D01*
X38197Y05653D01*
X38119Y05685D01*
X38020Y05685D01*
X37986Y05686D01*
X37924Y05624D01*
X37924Y05346D01*
X38257Y05346D01*
X38295Y05384D01*
X38581Y05384D01*
X38631Y05384D01*
X38731Y05384D01*
X38731Y05284D01*
X38731Y05234D01*
X38731Y04971D01*
X38793Y04909D01*
X38907Y04910D01*
X39006Y04910D01*
X39025Y04918D01*
X39025Y03073D01*
M02*
