<?xml version="1.0" standalone="no"?>
 <!DOCTYPE svg PUBLIC "-//W3C//DTD SVG 1.1//EN" 
 "http://www.w3.org/Graphics/SVG/1.1/DTD/svg11.dtd"> 
<svg xmlns="http://www.w3.org/2000/svg" version="1.1" 
    width="29.7002cm" height="21.0007cm" viewBox="0 0 116930 82680 ">
<title>SVG Picture created as oggbox-B_SilkS.svg date 2013/08/02 22:59:18 </title>
  <desc>Picture generated by PCBNEW </desc>
<g style="fill:#000000; fill-opacity:1;stroke:#000000; stroke-opacity:1;
stroke-linecap:round; stroke-linejoin:round; "
 transform="translate(0 0) scale(1 1)">
</g>
<g style="fill:#000000; fill-opacity:0.0; 
stroke:#000000; stroke-width:120; stroke-opacity:1; 
stroke-linecap:round; stroke-linejoin:round;">
<path d="M66163 35716
L66191 35688
L66277 35660
L66334 35660
L66420 35688
L66477 35745
L66506 35801
L66534 35913
L66534 35998
L66506 36110
L66477 36167
L66420 36223
L66334 36251
L66277 36251
L66191 36223
L66163 36195
" />
<path d="M65820 35660
L65877 35688
L65906 35716
L65934 35773
L65934 35942
L65906 35998
L65877 36026
L65820 36054
L65734 36054
L65677 36026
L65649 35998
L65620 35942
L65620 35773
L65649 35716
L65677 35688
L65734 35660
L65820 35660
" />
<path d="M65363 36054
L65363 35463
" />
<path d="M65363 36026
L65306 36054
L65191 36054
L65134 36026
L65106 35998
L65077 35942
L65077 35773
L65106 35716
L65134 35688
L65191 35660
L65306 35660
L65363 35688
" />
<path d="M64877 36054
L64734 35660
" />
<path d="M64591 36054
L64734 35660
L64791 35519
L64820 35491
L64877 35463
" />
<path d="M64363 35660
L64363 36054
" />
<path d="M64363 35942
L64334 35998
L64306 36026
L64249 36054
L64191 36054
" />
<path d="M63991 35660
L63991 36054
" />
<path d="M63991 36251
L64020 36223
L63991 36195
L63963 36223
L63991 36251
L63991 36195
" />
<path d="M63449 36054
L63449 35576
L63477 35519
L63506 35491
L63563 35463
L63649 35463
L63706 35491
" />
<path d="M63449 35688
L63506 35660
L63620 35660
L63677 35688
L63706 35716
L63734 35773
L63734 35942
L63706 35998
L63677 36026
L63620 36054
L63506 36054
L63449 36026
" />
<path d="M63163 35660
L63163 36251
" />
<path d="M62906 35660
L62906 35970
L62934 36026
L62991 36054
L63077 36054
L63134 36026
L63163 35998
" />
<path d="M62706 36054
L62477 36054
" />
<path d="M62620 36251
L62620 35745
L62591 35688
L62534 35660
L62477 35660
" />
<path d="M61849 36195
L61820 36223
L61763 36251
L61620 36251
L61563 36223
L61534 36195
L61506 36139
L61506 36082
L61534 35998
L61877 35660
L61506 35660
" />
<path d="M61134 36251
L61077 36251
L61020 36223
L60991 36195
L60963 36139
L60934 36026
L60934 35885
L60963 35773
L60991 35716
L61020 35688
L61077 35660
L61134 35660
L61191 35688
L61220 35716
L61249 35773
L61277 35885
L61277 36026
L61249 36139
L61220 36195
L61191 36223
L61134 36251
" />
<path d="M60363 35660
L60706 35660
" />
<path d="M60534 35660
L60534 36251
L60591 36167
L60648 36110
L60706 36082
" />
<path d="M60163 36251
L59791 36251
L59991 36026
L59906 36026
L59848 35998
L59820 35970
L59791 35913
L59791 35773
L59820 35716
L59848 35688
L59906 35660
L60077 35660
L60134 35688
L60163 35716
" />
<path d="M59077 35660
L59077 36251
L58734 35660
L58734 36251
" />
<path d="M58191 35660
L58191 35970
L58220 36026
L58277 36054
L58391 36054
L58448 36026
" />
<path d="M58191 35688
L58248 35660
L58391 35660
L58448 35688
L58477 35745
L58477 35801
L58448 35857
L58391 35885
L58248 35885
L58191 35913
" />
<path d="M57991 36054
L57763 36054
" />
<path d="M57906 36251
L57906 35745
L57877 35688
L57820 35660
L57763 35660
" />
<path d="M57563 35660
L57563 36251
" />
<path d="M57306 35660
L57306 35970
L57334 36026
L57391 36054
L57477 36054
L57534 36026
L57563 35998
" />
<path d="M56763 35660
L56763 35970
L56791 36026
L56848 36054
L56963 36054
L57020 36026
" />
<path d="M56763 35688
L56820 35660
L56963 35660
L57020 35688
L57048 35745
L57048 35801
L57020 35857
L56963 35885
L56820 35885
L56763 35913
" />
<path d="M56477 36054
L56477 35660
" />
<path d="M56477 35998
L56448 36026
L56391 36054
L56306 36054
L56248 36026
L56220 35970
L56220 35660
" />
<path d="M55477 35660
L55477 36251
L55334 36251
L55248 36223
L55191 36167
L55163 36110
L55134 35998
L55134 35913
L55163 35801
L55191 35745
L55248 35688
L55334 35660
L55477 35660
" />
<path d="M54620 36054
L54620 35660
" />
<path d="M54877 36054
L54877 35745
L54848 35688
L54791 35660
L54706 35660
L54648 35688
L54620 35716
" />
<path d="M54334 35660
L54334 36054
" />
<path d="M54334 35998
L54306 36026
L54249 36054
L54163 36054
L54106 36026
L54077 35970
L54077 35660
" />
<path d="M54077 35970
L54049 36026
L53991 36054
L53906 36054
L53849 36026
L53820 35970
L53820 35660
" />
<path d="M53449 35660
L53506 35688
L53534 35716
L53563 35773
L53563 35942
L53534 35998
L53506 36026
L53449 36054
L53363 36054
L53306 36026
L53277 35998
L53249 35942
L53249 35773
L53277 35716
L53306 35688
L53363 35660
L53449 35660
" />
<path d="M52991 36054
L52991 35660
" />
<path d="M52991 35998
L52963 36026
L52906 36054
L52820 36054
L52763 36026
L52734 35970
L52734 35660
" />
<path d="M52534 36054
L52306 36054
" />
<path d="M52449 36251
L52449 35745
L52420 35688
L52363 35660
L52306 35660
" />
<path d="M59678 34775
L59564 34775
L59507 34747
L59450 34691
L59421 34578
L59421 34381
L59450 34269
L59507 34212
L59564 34184
L59678 34184
L59735 34212
L59793 34269
L59821 34381
L59821 34578
L59793 34691
L59735 34747
L59678 34775
" />
<path d="M58907 34578
L58907 34100
L58935 34043
L58964 34015
L59021 33987
L59107 33987
L59164 34015
" />
<path d="M58907 34212
L58964 34184
L59078 34184
L59135 34212
L59164 34240
L59193 34297
L59193 34466
L59164 34522
L59135 34550
L59078 34578
L58964 34578
L58907 34550
" />
<path d="M58364 34578
L58364 34100
L58393 34043
L58421 34015
L58478 33987
L58564 33987
L58621 34015
" />
<path d="M58364 34212
L58421 34184
L58535 34184
L58593 34212
L58621 34240
L58650 34297
L58650 34466
L58621 34522
L58593 34550
L58535 34578
L58421 34578
L58364 34550
" />
<path d="M57878 34494
L57793 34466
L57764 34437
L57735 34381
L57735 34297
L57764 34240
L57793 34212
L57850 34184
L58078 34184
L58078 34775
L57878 34775
L57821 34747
L57793 34719
L57764 34663
L57764 34606
L57793 34550
L57821 34522
L57878 34494
L58078 34494
" />
<path d="M57393 34184
L57450 34212
L57478 34240
L57507 34297
L57507 34466
L57478 34522
L57450 34550
L57393 34578
L57307 34578
L57250 34550
L57221 34522
L57193 34466
L57193 34297
L57221 34240
L57250 34212
L57307 34184
L57393 34184
" />
<path d="M56993 34184
L56678 34578
" />
<path d="M56993 34578
L56678 34184
" />
<path d="M55993 34184
L55993 34578
" />
<path d="M55993 34466
L55964 34522
L55935 34550
L55878 34578
L55821 34578
" />
<path d="M55393 34212
L55450 34184
L55564 34184
L55621 34212
L55650 34269
L55650 34494
L55621 34550
L55564 34578
L55450 34578
L55393 34550
L55364 34494
L55364 34437
L55650 34381
" />
<path d="M55164 34578
L55021 34184
L54878 34578
" />
<path d="M54650 34240
L54621 34212
L54650 34184
L54678 34212
L54650 34240
L54650 34184
" />
<path d="M53564 34240
L53593 34212
L53678 34184
L53735 34184
L53821 34212
L53878 34269
L53907 34325
L53935 34437
L53935 34522
L53907 34634
L53878 34691
L53821 34747
L53735 34775
L53678 34775
L53593 34747
L53564 34719
" />
</g>
<g style="fill:#000000; fill-opacity:0.0; 
stroke:#000000; stroke-width:150; stroke-opacity:1; 
stroke-linecap:round; stroke-linejoin:round;">
<path d="M78739 50200
L78740 50200
" />
<path d="M75787 53152
L78739 50200
" />
<path d="M40354 53152
L39370 52168
" />
<path d="M75787 53152
L40354 53152
" />
<path d="M75787 33467
L78740 36420
" />
<path d="M39370 34451
L39370 34452
" />
<path d="M40354 33467
L39370 34451
" />
<path d="M75787 33467
L40354 33467
" />
<path d="M39370 52168
L39370 34452
" />
<path d="M78740 50200
L78740 36420
" />
<path d="M61417 53153
L64370 53153
" />
<path d="M50394 53153
L60433 53153
" />
<path d="M49016 53153
L49213 53153
" />
<path d="M46457 53153
L49016 53153
" />
<path d="M66142 53153
L66142 36617
" />
<path d="M66142 36617
L44488 36617
" />
<path d="M44488 36617
L44488 53153
" />
<path d="M44488 53153
L45276 53153
" />
<path d="M66142 53153
L65354 53153
" />
</g>
<g style="fill:#000000; fill-opacity:0.0; 
stroke:#000000; stroke-width:50; stroke-opacity:1; 
stroke-linecap:round; stroke-linejoin:round;">
<path d="M73173 50091
L73873 50091
" />
<path d="M73873 50091
L73873 51291
" />
<path d="M73873 51291
L73173 51291
" />
<path d="M73173 51291
L73173 50091
" />
<circle cx="74700" cy="50041.8" r="50" /> 
<path d="M74700 50491
L74700 50091
" />
<path d="M74700 50091
L75300 50091
" />
<path d="M75300 50091
L75300 50491
" />
<path d="M75300 50891
L75300 51291
" />
<path d="M75300 51291
L74700 51291
" />
<path d="M74700 51291
L74700 50891
" />
<circle cx="71944.1" cy="50041.8" r="50" /> 
<path d="M71944 50491
L71944 50091
" />
<path d="M71944 50091
L72544 50091
" />
<path d="M72544 50091
L72544 50491
" />
<path d="M72544 50891
L72544 51291
" />
<path d="M72544 51291
L71944 51291
" />
<path d="M71944 51291
L71944 50891
" />
</g>
<g style="fill:#000000; fill-opacity:0.0; 
stroke:#000000; stroke-width:150; stroke-opacity:1; 
stroke-linecap:round; stroke-linejoin:round;">
<path d="M40551 36912
L40551 37896
" />
<path d="M42913 36912
L42913 37896
" />
<path d="M42027 38684
L41437 38684
" />
<path d="M42027 36124
L41437 36124
" />
<path d="M68406 44491
L69390 44491
" />
<path d="M68406 42129
L69390 42129
" />
<path d="M70178 43015
L70178 43605
" />
<path d="M67618 43015
L67618 43605
" />
<path d="M76280 44491
L77264 44491
" />
<path d="M76280 42129
L77264 42129
" />
<path d="M78052 43015
L78052 43605
" />
<path d="M75492 43015
L75492 43605
" />
<path d="M72343 48428
L73327 48428
" />
<path d="M72343 46066
L73327 46066
" />
<path d="M74115 46952
L74115 47542
" />
<path d="M71555 46952
L71555 47542
" />
<path d="M72343 40554
L73327 40554
" />
<path d="M72343 38192
L73327 38192
" />
<path d="M74115 39078
L74115 39668
" />
<path d="M71555 39078
L71555 39668
" />
<path d="M40551 48723
L40551 49707
" />
<path d="M42913 48723
L42913 49707
" />
<path d="M42027 50495
L41437 50495
" />
<path d="M42027 47935
L41437 47935
" />
<path d="M63582 33467
L61614 33467
" />
<path d="M50000 33468
L50000 33665
" />
<path d="M49213 33468
L50787 33468
" />
<path d="M49213 35850
L50787 35850
" />
<path d="M46752 33468
L46752 33665
" />
<path d="M45965 33468
L47539 33468
" />
<path d="M45965 35850
L47539 35850
" />
<path d="M70078 49254
L70551 49254
" />
<path d="M70078 50160
L70551 50160
" />
<path d="M68700 47975
L69173 47975
" />
<path d="M68700 48880
L69173 48880
" />
<path d="M68956 50002
L68956 50475
" />
<path d="M68051 50002
L68051 50475
" />
</g>
<g style="fill:#000000; fill-opacity:0.0; 
stroke:#000000; stroke-width:50; stroke-opacity:1; 
stroke-linecap:round; stroke-linejoin:round;">
<path d="M73767 51441
L73767 51741
" />
<path d="M73505 51470
L73517 51456
L73553 51441
L73577 51441
L73612 51456
L73636 51484
L73648 51513
L73660 51570
L73660 51613
L73648 51670
L73636 51699
L73612 51727
L73577 51741
L73553 51741
L73517 51727
L73505 51713
" />
<path d="M73410 51713
L73398 51727
L73374 51741
L73315 51741
L73291 51727
L73279 51713
L73267 51684
L73267 51656
L73279 51613
L73422 51441
L73267 51441
" />
</g>
<g style="fill:#000000; fill-opacity:0.0; 
stroke:#000000; stroke-width:43.3071; stroke-opacity:1; 
stroke-linecap:round; stroke-linejoin:round;">
<path d="M73845 43046
L73569 43046
L73569 43004
L73582 42979
L73608 42962
L73635 42954
L73687 42945
L73727 42945
L73779 42954
L73805 42962
L73832 42979
L73845 43004
L73845 43046
" />
<path d="M73845 42777
L73845 42878
" />
<path d="M73845 42827
L73569 42827
L73608 42844
L73635 42861
L73648 42878
" />
</g>
<g style="fill:#000000; fill-opacity:0.0; 
stroke:#000000; stroke-width:50; stroke-opacity:1; 
stroke-linecap:round; stroke-linejoin:round;">
<path d="M75091 49866
L75103 49878
L75115 49914
L75115 49937
L75103 49973
L75079 49997
L75055 50009
L75007 50021
L74972 50021
L74924 50009
L74900 49997
L74877 49973
L74865 49937
L74865 49914
L74877 49878
L74888 49866
" />
<path d="M74888 49771
L74877 49759
L74865 49735
L74865 49676
L74877 49652
L74888 49640
L74912 49628
L74936 49628
L74972 49640
L75115 49783
L75115 49628
" />
<path d="M74888 49533
L74877 49521
L74865 49497
L74865 49437
L74877 49414
L74888 49402
L74912 49390
L74936 49390
L74972 49402
L75115 49545
L75115 49390
" />
<path d="M71743 50852
L71755 50864
L71767 50900
L71767 50923
L71755 50959
L71731 50983
L71707 50995
L71660 51007
L71624 51007
L71576 50995
L71552 50983
L71529 50959
L71517 50923
L71517 50900
L71529 50864
L71540 50852
" />
<path d="M71767 50614
L71767 50757
" />
<path d="M71767 50685
L71517 50685
L71552 50709
L71576 50733
L71588 50757
" />
<path d="M71767 50495
L71767 50447
L71755 50423
L71743 50412
L71707 50388
L71660 50376
L71564 50376
L71540 50388
L71529 50400
L71517 50423
L71517 50471
L71529 50495
L71540 50507
L71564 50519
L71624 50519
L71648 50507
L71660 50495
L71671 50471
L71671 50423
L71660 50400
L71648 50388
L71624 50376
" />
</g>
<g style="fill:#000000; fill-opacity:0.0; 
stroke:#000000; stroke-width:120; stroke-opacity:1; 
stroke-linecap:round; stroke-linejoin:round;">
<path d="M42532 34504
L42446 34475
L42303 34475
L42246 34504
L42217 34532
L42189 34589
L42189 34647
L42217 34704
L42246 34732
L42303 34761
L42417 34789
L42474 34818
L42503 34847
L42532 34904
L42532 34961
L42503 35018
L42474 35047
L42417 35075
L42274 35075
L42189 35047
" />
<path d="M41989 35075
L41846 34475
L41732 34904
L41617 34475
L41474 35075
" />
<path d="M40989 34875
L40989 34475
" />
<path d="M41132 35104
L41274 34675
L40903 34675
" />
<path d="M43676 37717
L43076 37717
L43505 37517
L43076 37317
L43676 37317
" />
<path d="M43362 37031
L43362 36831
" />
<path d="M43676 36745
L43676 37031
L43076 37031
L43076 36745
" />
<path d="M43676 36488
L43076 36488
L43676 36145
L43076 36145
" />
<path d="M43076 35859
L43562 35859
L43619 35831
L43648 35802
L43676 35745
L43676 35631
L43648 35574
L43619 35545
L43562 35517
L43076 35517
" />
<path d="M67171 46757
L67200 46672
L67200 46529
L67171 46472
L67143 46443
L67086 46414
L67029 46414
L66971 46443
L66943 46472
L66914 46529
L66886 46643
L66857 46700
L66829 46729
L66771 46757
L66714 46757
L66657 46729
L66629 46700
L66600 46643
L66600 46500
L66629 46414
" />
<path d="M66600 46214
L67200 46072
L66771 45957
L67200 45843
L66600 45700
" />
<path d="M67200 45157
L67200 45500
" />
<path d="M67200 45329
L66600 45329
L66686 45386
L66743 45443
L66771 45500
" />
<path d="M66600 44786
L66600 44729
L66629 44671
L66657 44643
L66714 44614
L66829 44586
L66971 44586
L67086 44614
L67143 44643
L67171 44671
L67200 44729
L67200 44786
L67171 44843
L67143 44871
L67086 44900
L66971 44929
L66829 44929
L66714 44900
L66657 44871
L66629 44843
L66600 44786
" />
<path d="M67486 45553
L67972 45553
L68029 45524
L68057 45496
L68086 45439
L68086 45324
L68057 45267
L68029 45239
L67972 45210
L67486 45210
" />
<path d="M68086 44924
L67486 44924
L67486 44696
L67515 44639
L67543 44610
L67600 44582
L67686 44582
L67743 44610
L67772 44639
L67800 44696
L67800 44924
" />
<path d="M77604 41846
L77633 41760
L77633 41617
L77604 41560
L77576 41531
L77519 41503
L77462 41503
L77404 41531
L77376 41560
L77347 41617
L77319 41731
L77290 41788
L77262 41817
L77204 41846
L77147 41846
L77090 41817
L77062 41788
L77033 41731
L77033 41588
L77062 41503
" />
<path d="M77033 41303
L77633 41160
L77204 41046
L77633 40931
L77033 40788
" />
<path d="M77033 40617
L77033 40217
L77633 40474
" />
<path d="M78519 41879
L77919 41879
L77919 41736
L77948 41650
L78005 41593
L78062 41565
L78176 41536
L78262 41536
L78376 41565
L78433 41593
L78490 41650
L78519 41736
L78519 41879
" />
<path d="M77919 41165
L77919 41050
L77948 40993
L78005 40936
L78119 40908
L78319 40908
L78433 40936
L78490 40993
L78519 41050
L78519 41165
L78490 41222
L78433 41279
L78319 41308
L78119 41308
L78005 41279
L77948 41222
L77919 41165
" />
<path d="M77919 40708
L78519 40565
L78090 40451
L78519 40336
L77919 40193
" />
<path d="M78519 39965
L77919 39965
L78519 39622
L77919 39622
" />
<path d="M75209 48578
L75123 48550
L74980 48550
L74923 48578
L74895 48607
L74866 48664
L74866 48721
L74895 48778
L74923 48807
L74980 48836
L75095 48864
L75152 48893
L75180 48921
L75209 48978
L75209 49036
L75180 49093
L75152 49121
L75095 49150
L74952 49150
L74866 49121
" />
<path d="M74666 49150
L74523 48550
L74409 48978
L74295 48550
L74152 49150
" />
<path d="M73838 48893
L73895 48921
L73923 48950
L73952 49007
L73952 49036
L73923 49093
L73895 49121
L73838 49150
L73723 49150
L73666 49121
L73638 49093
L73609 49036
L73609 49007
L73638 48950
L73666 48921
L73723 48893
L73838 48893
L73895 48864
L73923 48836
L73952 48778
L73952 48664
L73923 48607
L73895 48578
L73838 48550
L73723 48550
L73666 48578
L73638 48607
L73609 48664
L73609 48778
L73638 48836
L73666 48864
L73723 48893
" />
<path d="M72815 48550
L73101 48550
L73101 49150
" />
<path d="M72615 48864
L72415 48864
" />
<path d="M72329 48550
L72615 48550
L72615 49150
L72329 49150
" />
<path d="M71872 48864
L72072 48864
" />
<path d="M72072 48550
L72072 49150
L71786 49150
" />
<path d="M71644 49150
L71301 49150
" />
<path d="M71472 48550
L71472 49150
" />
<path d="M73536 36669
L73450 36640
L73307 36640
L73250 36669
L73221 36697
L73193 36755
L73193 36812
L73221 36869
L73250 36897
L73307 36926
L73421 36955
L73479 36983
L73507 37012
L73536 37069
L73536 37126
L73507 37183
L73479 37212
L73421 37240
L73279 37240
L73193 37212
" />
<path d="M72993 37240
L72850 36640
L72736 37069
L72621 36640
L72479 37240
" />
<path d="M72221 36640
L72107 36640
L72050 36669
L72021 36697
L71964 36783
L71936 36897
L71936 37126
L71964 37183
L71993 37212
L72050 37240
L72164 37240
L72221 37212
L72250 37183
L72279 37126
L72279 36983
L72250 36926
L72221 36897
L72164 36869
L72050 36869
L71993 36897
L71964 36926
L71936 36983
" />
<path d="M73536 37428
L73736 37713
" />
<path d="M73879 37428
L73879 38028
L73650 38028
L73593 37999
L73564 37971
L73536 37913
L73536 37828
L73564 37771
L73593 37742
L73650 37713
L73879 37713
" />
<path d="M73279 37428
L73279 38028
" />
<path d="M72679 37999
L72736 38028
L72821 38028
L72907 37999
L72964 37942
L72993 37885
L73021 37771
L73021 37685
L72993 37571
L72964 37513
L72907 37456
L72821 37428
L72764 37428
L72679 37456
L72650 37485
L72650 37685
L72764 37685
" />
<path d="M72393 37428
L72393 38028
" />
<path d="M72393 37742
L72050 37742
" />
<path d="M72050 37428
L72050 38028
" />
<path d="M71850 38028
L71507 38028
" />
<path d="M71679 37428
L71679 38028
" />
<path d="M40400 48637
L40428 48551
L40428 48408
L40400 48351
L40371 48323
L40314 48294
L40257 48294
L40200 48323
L40171 48351
L40143 48408
L40114 48523
L40086 48580
L40057 48608
L40000 48637
L39943 48637
L39886 48608
L39857 48580
L39828 48523
L39828 48380
L39857 48294
" />
<path d="M39828 48094
L40428 47951
L40000 47837
L40428 47723
L39828 47580
" />
<path d="M39828 47066
L39828 47351
L40114 47380
L40086 47351
L40057 47294
L40057 47151
L40086 47094
L40114 47066
L40171 47037
L40314 47037
L40371 47066
L40400 47094
L40428 47151
L40428 47294
L40400 47351
L40371 47380
" />
<path d="M43746 50378
L43775 50293
L43775 50150
L43746 50093
L43718 50064
L43661 50036
L43603 50036
L43546 50064
L43518 50093
L43489 50150
L43461 50264
L43432 50321
L43403 50350
L43346 50378
L43289 50378
L43232 50350
L43203 50321
L43175 50264
L43175 50121
L43203 50036
" />
<path d="M43461 49778
L43461 49578
" />
<path d="M43775 49493
L43775 49778
L43175 49778
L43175 49493
" />
<path d="M43175 49321
L43175 48978
" />
<path d="M43775 49150
L43175 49150
" />
</g>
<g style="fill:#000000; fill-opacity:0.0; 
stroke:#000000; stroke-width:50; stroke-opacity:1; 
stroke-linecap:round; stroke-linejoin:round;">
<path d="M60483 33838
L60440 33823
L60369 33823
L60340 33838
L60326 33852
L60312 33880
L60312 33909
L60326 33938
L60340 33952
L60369 33966
L60426 33980
L60455 33995
L60469 34009
L60483 34038
L60483 34066
L60469 34095
L60455 34109
L60426 34123
L60355 34123
L60312 34109
" />
<path d="M60212 34123
L60140 33823
L60083 34038
L60026 33823
L59955 34123
" />
<path d="M59683 33823
L59855 33823
" />
<path d="M59769 33823
L59769 34123
L59798 34080
L59826 34052
L59855 34038
" />
<path d="M59398 33823
L59569 33823
" />
<path d="M59483 33823
L59483 34123
L59512 34080
L59540 34052
L59569 34038
" />
<path d="M50399 36003
L50357 35989
L50285 35989
L50257 36003
L50242 36017
L50228 36046
L50228 36075
L50242 36103
L50257 36117
L50285 36132
L50342 36146
L50371 36160
L50385 36175
L50399 36203
L50399 36232
L50385 36260
L50371 36275
L50342 36289
L50271 36289
L50228 36275
" />
<path d="M50128 36289
L50057 35989
L49999 36203
L49942 35989
L49871 36289
" />
<path d="M49771 36260
L49757 36275
L49728 36289
L49657 36289
L49628 36275
L49614 36260
L49600 36232
L49600 36203
L49614 36160
L49785 35989
L49600 35989
" />
<path d="M51804 35547
L52104 35447
L51804 35347
" />
<path d="M51804 35189
L51804 35132
L51819 35104
L51847 35075
L51904 35061
L52004 35061
L52061 35075
L52090 35104
L52104 35132
L52104 35189
L52090 35218
L52061 35246
L52004 35261
L51904 35261
L51847 35246
L51819 35218
L51804 35189
" />
<path d="M52104 34789
L52104 34932
L51804 34932
" />
<path d="M52133 34761
L52133 34532
" />
<path d="M52104 34461
L51804 34461
L51804 34389
L51819 34347
L51847 34318
L51876 34304
L51933 34289
L51976 34289
L52033 34304
L52061 34318
L52090 34347
L52104 34389
L52104 34461
" />
<path d="M52104 34161
L51804 34161
L52104 33989
L51804 33989
" />
<path d="M47151 36003
L47109 35989
L47037 35989
L47009 36003
L46994 36017
L46980 36046
L46980 36075
L46994 36103
L47009 36117
L47037 36132
L47094 36146
L47123 36160
L47137 36175
L47151 36203
L47151 36232
L47137 36260
L47123 36275
L47094 36289
L47023 36289
L46980 36275
" />
<path d="M46880 36289
L46809 35989
L46751 36203
L46694 35989
L46623 36289
" />
<path d="M46352 35989
L46523 35989
" />
<path d="M46437 35989
L46437 36289
L46466 36246
L46494 36217
L46523 36203
" />
<path d="M44717 35449
L45017 35349
L44717 35249
" />
<path d="M44717 35091
L44717 35034
L44732 35006
L44760 34977
L44817 34963
L44917 34963
L44974 34977
L45003 35006
L45017 35034
L45017 35091
L45003 35120
L44974 35148
L44917 35163
L44817 35163
L44760 35148
L44732 35120
L44717 35091
" />
<path d="M45017 34691
L45017 34834
L44717 34834
" />
<path d="M45046 34663
L45046 34434
" />
<path d="M44717 34363
L44960 34363
L44989 34349
L45003 34334
L45017 34306
L45017 34249
L45003 34220
L44989 34206
L44960 34191
L44717 34191
" />
<path d="M45017 34048
L44717 34048
L44717 33934
L44732 33906
L44746 33891
L44774 33877
L44817 33877
L44846 33891
L44860 33906
L44874 33934
L44874 34048
" />
</g>
<g style="fill:#000000; fill-opacity:0.0; 
stroke:#000000; stroke-width:45; stroke-opacity:1; 
stroke-linecap:round; stroke-linejoin:round;">
<path d="M41847 40060
L41856 40046
L41882 40033
L41899 40033
L41925 40046
L41942 40073
L41950 40100
L41959 40153
L41959 40193
L41950 40246
L41942 40273
L41925 40300
L41899 40313
L41882 40313
L41856 40300
L41847 40286
" />
<path d="M41693 40220
L41693 40033
" />
<path d="M41736 40326
L41779 40126
L41667 40126
" />
<path d="M41513 40313
L41599 40313
L41607 40180
L41599 40193
L41582 40206
L41539 40206
L41522 40193
L41513 40180
L41505 40153
L41505 40086
L41513 40060
L41522 40046
L41539 40033
L41582 40033
L41599 40046
L41607 40060
" />
<path d="M72048 43425
L72062 43434
L72075 43459
L72075 43477
L72062 43502
L72035 43519
L72008 43528
L71955 43537
L71915 43537
L71862 43528
L71835 43519
L71808 43502
L71795 43477
L71795 43459
L71808 43434
L71822 43425
" />
<path d="M71888 43271
L72075 43271
" />
<path d="M71782 43314
L71982 43357
L71982 43245
" />
<path d="M71795 43099
L71795 43134
L71808 43151
L71822 43159
L71862 43177
L71915 43185
L72022 43185
L72048 43177
L72062 43168
L72075 43151
L72075 43117
L72062 43099
L72048 43091
L72022 43082
L71955 43082
L71928 43091
L71915 43099
L71902 43117
L71902 43151
L71915 43168
L71928 43177
L71955 43185
" />
<path d="M74509 44213
L74522 44221
L74536 44247
L74536 44264
L74522 44290
L74496 44307
L74469 44315
L74416 44324
L74376 44324
L74322 44315
L74296 44307
L74269 44290
L74256 44264
L74256 44247
L74269 44221
L74282 44213
" />
<path d="M74256 44050
L74256 44135
L74389 44144
L74376 44135
L74362 44118
L74362 44075
L74376 44058
L74389 44050
L74416 44041
L74482 44041
L74509 44050
L74522 44058
L74536 44075
L74536 44118
L74522 44135
L74509 44144
" />
<path d="M74256 43887
L74256 43921
L74269 43938
L74282 43947
L74322 43964
L74376 43973
L74482 43973
L74509 43964
L74522 43955
L74536 43938
L74536 43904
L74522 43887
L74509 43878
L74482 43870
L74416 43870
L74389 43878
L74376 43887
L74362 43904
L74362 43938
L74376 43955
L74389 43964
L74416 43973
" />
<path d="M75788 47362
L75802 47371
L75815 47396
L75815 47414
L75802 47439
L75775 47456
L75748 47465
L75695 47474
L75655 47474
L75602 47465
L75575 47456
L75548 47439
L75535 47414
L75535 47396
L75548 47371
L75562 47362
" />
<path d="M75535 47199
L75535 47285
L75668 47294
L75655 47285
L75642 47268
L75642 47225
L75655 47208
L75668 47199
L75695 47191
L75762 47191
L75788 47199
L75802 47208
L75815 47225
L75815 47268
L75802 47285
L75788 47294
" />
<path d="M75535 47131
L75535 47011
L75815 47088
" />
<path d="M70080 39587
L70093 39595
L70106 39621
L70106 39638
L70093 39664
L70066 39681
L70040 39689
L69986 39698
L69946 39698
L69893 39689
L69866 39681
L69840 39664
L69826 39638
L69826 39621
L69840 39595
L69853 39587
" />
<path d="M69826 39424
L69826 39509
L69960 39518
L69946 39509
L69933 39492
L69933 39449
L69946 39432
L69960 39424
L69986 39415
L70053 39415
L70080 39424
L70093 39432
L70106 39449
L70106 39492
L70093 39509
L70080 39518
" />
<path d="M69946 39312
L69933 39329
L69920 39338
L69893 39347
L69880 39347
L69853 39338
L69840 39329
L69826 39312
L69826 39278
L69840 39261
L69853 39252
L69880 39244
L69893 39244
L69920 39252
L69933 39261
L69946 39278
L69946 39312
L69960 39329
L69973 39338
L70000 39347
L70053 39347
L70080 39338
L70093 39329
L70106 39312
L70106 39278
L70093 39261
L70080 39252
L70053 39244
L70000 39244
L69973 39252
L69960 39261
L69946 39278
" />
<path d="M41847 46261
L41856 46247
L41882 46234
L41899 46234
L41925 46247
L41942 46274
L41950 46301
L41959 46354
L41959 46394
L41950 46447
L41942 46474
L41925 46501
L41899 46514
L41882 46514
L41856 46501
L41847 46487
" />
<path d="M41685 46514
L41770 46514
L41779 46381
L41770 46394
L41753 46407
L41710 46407
L41693 46394
L41685 46381
L41676 46354
L41676 46287
L41685 46261
L41693 46247
L41710 46234
L41753 46234
L41770 46247
L41779 46261
" />
<path d="M41590 46234
L41556 46234
L41539 46247
L41530 46261
L41513 46301
L41505 46354
L41505 46461
L41513 46487
L41522 46501
L41539 46514
L41573 46514
L41590 46501
L41599 46487
L41607 46461
L41607 46394
L41599 46367
L41590 46354
L41573 46341
L41539 46341
L41522 46354
L41513 46367
L41505 46394
" />
</g>
<g style="fill:#000000; fill-opacity:0.0; 
stroke:#000000; stroke-width:120; stroke-opacity:1; 
stroke-linecap:round; stroke-linejoin:round;">
<path d="M70332 48394
L70389 48423
L70447 48480
L70532 48566
L70589 48594
L70647 48594
" />
<path d="M70618 48451
L70675 48480
L70732 48537
L70761 48651
L70761 48851
L70732 48966
L70675 49023
L70618 49051
L70504 49051
L70447 49023
L70389 48966
L70361 48851
L70361 48651
L70389 48537
L70447 48480
L70504 48451
L70618 48451
" />
<path d="M69847 48851
L69847 48451
" />
<path d="M69989 49080
L70132 48651
L69761 48651
" />
<path d="M69151 47115
L69208 47143
L69265 47200
L69351 47286
L69408 47315
L69465 47315
" />
<path d="M69437 47172
L69494 47200
L69551 47258
L69580 47372
L69580 47572
L69551 47686
L69494 47743
L69437 47772
L69323 47772
L69265 47743
L69208 47686
L69180 47572
L69180 47372
L69208 47258
L69265 47200
L69323 47172
L69437 47172
" />
<path d="M68637 47772
L68923 47772
L68951 47486
L68923 47515
L68865 47543
L68723 47543
L68665 47515
L68637 47486
L68608 47429
L68608 47286
L68637 47229
L68665 47200
L68723 47172
L68865 47172
L68923 47200
L68951 47229
" />
</g>
<g style="fill:#000000; fill-opacity:0.0; 
stroke:#000000; stroke-width:44.2913; stroke-opacity:1; 
stroke-linecap:round; stroke-linejoin:round;">
<path d="M67867 50216
L67854 50233
L67828 50250
L67788 50275
L67775 50292
L67775 50309
" />
<path d="M67841 50300
L67828 50317
L67801 50334
L67749 50343
L67657 50343
L67604 50334
L67578 50317
L67565 50300
L67565 50267
L67578 50250
L67604 50233
L67657 50224
L67749 50224
L67801 50233
L67828 50250
L67841 50267
L67841 50300
" />
<path d="M67565 50073
L67565 50106
L67578 50123
L67591 50132
L67631 50149
L67683 50157
L67788 50157
L67814 50149
L67828 50140
L67841 50123
L67841 50090
L67828 50073
L67814 50064
L67788 50056
L67723 50056
L67696 50064
L67683 50073
L67670 50090
L67670 50123
L67683 50140
L67696 50149
L67723 50157
" />
</g>
<g style="fill:#000000; fill-opacity:0.0; 
stroke:#000000; stroke-width:45; stroke-opacity:1; 
stroke-linecap:round; stroke-linejoin:round;">
<path d="M73059 41765
L72926 41825
" />
<path d="M73059 41867
L72779 41867
L72779 41799
L72793 41782
L72806 41773
L72833 41765
L72873 41765
L72899 41773
L72913 41782
L72926 41799
L72926 41867
" />
<path d="M72806 41696
L72793 41687
L72779 41670
L72779 41627
L72793 41610
L72806 41602
L72833 41593
L72859 41593
L72899 41602
L73059 41705
L73059 41593
" />
<path d="M71583 42244
L71450 42304
" />
<path d="M71583 42347
L71303 42347
L71303 42278
L71316 42261
L71330 42253
L71356 42244
L71396 42244
L71423 42253
L71436 42261
L71450 42278
L71450 42347
" />
<path d="M71583 42073
L71583 42175
" />
<path d="M71583 42124
L71303 42124
L71343 42141
L71370 42158
L71383 42175
" />
<path d="M71583 41901
L71583 42004
" />
<path d="M71583 41953
L71303 41953
L71343 41970
L71370 41987
L71383 42004
" />
<path d="M68324 51352
L68384 51485
" />
<path d="M68427 51352
L68427 51632
L68358 51632
L68341 51619
L68332 51605
L68324 51579
L68324 51539
L68332 51512
L68341 51499
L68358 51485
L68427 51485
" />
<path d="M68255 51605
L68247 51619
L68230 51632
L68187 51632
L68170 51619
L68161 51605
L68152 51579
L68152 51552
L68161 51512
L68264 51352
L68152 51352
" />
<path d="M68092 51632
L67972 51632
L68050 51352
" />
<path d="M66946 50565
L67006 50698
" />
<path d="M67049 50565
L67049 50845
L66980 50845
L66963 50831
L66954 50818
L66946 50791
L66946 50751
L66954 50725
L66963 50711
L66980 50698
L67049 50698
" />
<path d="M66877 50818
L66869 50831
L66852 50845
L66809 50845
L66792 50831
L66783 50818
L66774 50791
L66774 50765
L66783 50725
L66886 50565
L66774 50565
" />
<path d="M66672 50725
L66689 50738
L66697 50751
L66706 50778
L66706 50791
L66697 50818
L66689 50831
L66672 50845
L66637 50845
L66620 50831
L66612 50818
L66603 50791
L66603 50778
L66612 50751
L66620 50738
L66637 50725
L66672 50725
L66689 50711
L66697 50698
L66706 50671
L66706 50618
L66697 50591
L66689 50578
L66672 50565
L66637 50565
L66620 50578
L66612 50591
L66603 50618
L66603 50671
L66612 50698
L66620 50711
L66637 50725
" />
<path d="M43619 37868
L43679 38001
" />
<path d="M43722 37868
L43722 38148
L43653 38148
L43636 38134
L43628 38121
L43619 38094
L43619 38054
L43628 38028
L43636 38014
L43653 38001
L43722 38001
" />
<path d="M43559 38148
L43448 38148
L43508 38041
L43482 38041
L43465 38028
L43456 38014
L43448 37988
L43448 37921
L43456 37894
L43465 37881
L43482 37868
L43533 37868
L43551 37881
L43559 37894
" />
<path d="M43379 38121
L43371 38134
L43353 38148
L43311 38148
L43293 38134
L43285 38121
L43276 38094
L43276 38068
L43285 38028
L43388 37868
L43276 37868
" />
<path d="M67646 48740
L67513 48800
" />
<path d="M67646 48843
L67366 48843
L67366 48774
L67379 48757
L67393 48749
L67419 48740
L67459 48740
L67486 48749
L67499 48757
L67513 48774
L67513 48843
" />
<path d="M67366 48680
L67366 48569
L67473 48629
L67473 48603
L67486 48586
L67499 48577
L67526 48569
L67593 48569
L67619 48577
L67633 48586
L67646 48603
L67646 48654
L67633 48672
L67619 48680
" />
<path d="M67366 48509
L67366 48397
L67473 48457
L67473 48432
L67486 48414
L67499 48406
L67526 48397
L67593 48397
L67619 48406
L67633 48414
L67646 48432
L67646 48483
L67633 48500
L67619 48509
" />
<path d="M74634 41752
L74501 41812
" />
<path d="M74634 41855
L74354 41855
L74354 41786
L74367 41769
L74381 41760
L74407 41752
L74447 41752
L74474 41760
L74487 41769
L74501 41786
L74501 41855
" />
<path d="M74354 41692
L74354 41580
L74461 41640
L74461 41615
L74474 41598
L74487 41589
L74514 41580
L74581 41580
L74607 41589
L74621 41598
L74634 41615
L74634 41666
L74621 41683
L74607 41692
" />
<path d="M74447 41426
L74634 41426
" />
<path d="M74341 41469
L74541 41512
L74541 41400
" />
<path d="M69603 50958
L69663 51092
" />
<path d="M69706 50958
L69706 51238
L69638 51238
L69621 51225
L69612 51212
L69603 51185
L69603 51145
L69612 51118
L69621 51105
L69638 51092
L69706 51092
" />
<path d="M69543 51238
L69432 51238
L69492 51132
L69466 51132
L69449 51118
L69441 51105
L69432 51078
L69432 51012
L69441 50985
L69449 50972
L69466 50958
L69518 50958
L69535 50972
L69543 50985
" />
<path d="M69269 51238
L69355 51238
L69363 51105
L69355 51118
L69338 51132
L69295 51132
L69278 51118
L69269 51105
L69261 51078
L69261 51012
L69269 50985
L69278 50972
L69295 50958
L69338 50958
L69355 50972
L69363 50985
" />
<path d="M69603 50368
L69663 50501
" />
<path d="M69706 50368
L69706 50648
L69638 50648
L69621 50634
L69612 50621
L69603 50594
L69603 50554
L69612 50528
L69621 50514
L69638 50501
L69706 50501
" />
<path d="M69543 50648
L69432 50648
L69492 50541
L69466 50541
L69449 50528
L69441 50514
L69432 50488
L69432 50421
L69441 50394
L69449 50381
L69466 50368
L69518 50368
L69535 50381
L69543 50394
" />
<path d="M69278 50648
L69312 50648
L69329 50634
L69338 50621
L69355 50581
L69363 50528
L69363 50421
L69355 50394
L69346 50381
L69329 50368
L69295 50368
L69278 50381
L69269 50394
L69261 50421
L69261 50488
L69269 50514
L69278 50528
L69295 50541
L69329 50541
L69346 50528
L69355 50514
L69363 50488
" />
<path d="M42832 40624
L42892 40757
" />
<path d="M42935 40624
L42935 40904
L42866 40904
L42849 40890
L42840 40877
L42832 40850
L42832 40810
L42840 40784
L42849 40770
L42866 40757
L42935 40757
" />
<path d="M42772 40904
L42660 40904
L42720 40797
L42695 40797
L42677 40784
L42669 40770
L42660 40744
L42660 40677
L42669 40650
L42677 40637
L42695 40624
L42746 40624
L42763 40637
L42772 40650
" />
<path d="M42575 40624
L42540 40624
L42523 40637
L42515 40650
L42497 40690
L42489 40744
L42489 40850
L42497 40877
L42506 40890
L42523 40904
L42557 40904
L42575 40890
L42583 40877
L42592 40850
L42592 40784
L42583 40757
L42575 40744
L42557 40730
L42523 40730
L42506 40744
L42497 40757
L42489 40784
" />
<path d="M75323 45492
L75190 45552
" />
<path d="M75323 45595
L75043 45595
L75043 45526
L75056 45509
L75070 45501
L75096 45492
L75136 45492
L75163 45501
L75176 45509
L75190 45526
L75190 45595
" />
<path d="M75136 45338
L75323 45338
" />
<path d="M75030 45381
L75230 45423
L75230 45312
" />
<path d="M75136 45166
L75323 45166
" />
<path d="M75030 45209
L75230 45252
L75230 45141
" />
<path d="M69407 39246
L69467 39379
" />
<path d="M69509 39246
L69509 39526
L69441 39526
L69424 39512
L69415 39499
L69407 39472
L69407 39432
L69415 39406
L69424 39392
L69441 39379
L69509 39379
" />
<path d="M69252 39432
L69252 39246
" />
<path d="M69295 39539
L69338 39339
L69227 39339
" />
<path d="M69132 39406
L69149 39419
L69158 39432
L69167 39459
L69167 39472
L69158 39499
L69149 39512
L69132 39526
L69098 39526
L69081 39512
L69072 39499
L69064 39472
L69064 39459
L69072 39432
L69081 39419
L69098 39406
L69132 39406
L69149 39392
L69158 39379
L69167 39352
L69167 39299
L69158 39272
L69149 39259
L69132 39246
L69098 39246
L69081 39259
L69072 39272
L69064 39299
L69064 39352
L69072 39379
L69081 39392
L69098 39406
" />
<path d="M43619 39443
L43679 39576
" />
<path d="M43722 39443
L43722 39723
L43653 39723
L43636 39709
L43628 39696
L43619 39669
L43619 39629
L43628 39603
L43636 39589
L43653 39576
L43722 39576
" />
<path d="M43465 39629
L43465 39443
" />
<path d="M43508 39736
L43551 39536
L43439 39536
" />
<path d="M43362 39443
L43328 39443
L43311 39456
L43302 39469
L43285 39509
L43276 39563
L43276 39669
L43285 39696
L43293 39709
L43311 39723
L43345 39723
L43362 39709
L43371 39696
L43379 39669
L43379 39603
L43371 39576
L43362 39563
L43345 39549
L43311 39549
L43293 39563
L43285 39576
L43276 39603
" />
<path d="M76209 41752
L76076 41812
" />
<path d="M76209 41855
L75929 41855
L75929 41786
L75942 41769
L75956 41760
L75982 41752
L76022 41752
L76049 41760
L76062 41769
L76076 41786
L76076 41855
" />
<path d="M75929 41589
L75929 41675
L76062 41683
L76049 41675
L76036 41658
L76036 41615
L76049 41598
L76062 41589
L76089 41580
L76156 41580
L76182 41589
L76196 41598
L76209 41615
L76209 41658
L76196 41675
L76182 41683
" />
<path d="M75929 41469
L75929 41452
L75942 41435
L75956 41426
L75982 41418
L76036 41409
L76102 41409
L76156 41418
L76182 41426
L76196 41435
L76209 41452
L76209 41469
L76196 41486
L76182 41495
L76156 41503
L76102 41512
L76036 41512
L75982 41503
L75956 41495
L75942 41486
L75929 41469
" />
<path d="M76406 46279
L76272 46339
" />
<path d="M76406 46382
L76126 46382
L76126 46314
L76139 46297
L76152 46288
L76179 46279
L76219 46279
L76246 46288
L76259 46297
L76272 46314
L76272 46382
" />
<path d="M76126 46117
L76126 46202
L76259 46211
L76246 46202
L76232 46185
L76232 46142
L76246 46125
L76259 46117
L76286 46108
L76352 46108
L76379 46117
L76392 46125
L76406 46142
L76406 46185
L76392 46202
L76379 46211
" />
<path d="M76406 45937
L76406 46039
" />
<path d="M76406 45988
L76126 45988
L76166 46005
L76192 46022
L76206 46039
" />
<path d="M69603 37868
L69663 38001
" />
<path d="M69706 37868
L69706 38148
L69638 38148
L69621 38134
L69612 38121
L69603 38094
L69603 38054
L69612 38028
L69621 38014
L69638 38001
L69706 38001
" />
<path d="M69441 38148
L69526 38148
L69535 38014
L69526 38028
L69509 38041
L69466 38041
L69449 38028
L69441 38014
L69432 37988
L69432 37921
L69441 37894
L69449 37881
L69466 37868
L69509 37868
L69526 37881
L69535 37894
" />
<path d="M69363 38121
L69355 38134
L69338 38148
L69295 38148
L69278 38134
L69269 38121
L69261 38094
L69261 38068
L69269 38028
L69372 37868
L69261 37868
" />
<path d="M70402 41161
L70268 41221
" />
<path d="M70402 41264
L70122 41264
L70122 41196
L70135 41178
L70148 41170
L70175 41161
L70215 41161
L70242 41170
L70255 41178
L70268 41196
L70268 41264
" />
<path d="M70122 40998
L70122 41084
L70255 41093
L70242 41084
L70228 41067
L70228 41024
L70242 41007
L70255 40998
L70282 40990
L70348 40990
L70375 40998
L70388 41007
L70402 41024
L70402 41067
L70388 41084
L70375 41093
" />
<path d="M70122 40836
L70122 40870
L70135 40887
L70148 40896
L70188 40913
L70242 40921
L70348 40921
L70375 40913
L70388 40904
L70402 40887
L70402 40853
L70388 40836
L70375 40827
L70348 40818
L70282 40818
L70255 40827
L70242 40836
L70228 40853
L70228 40887
L70242 40904
L70255 40913
L70282 40921
" />
<path d="M68532 41260
L68398 41320
" />
<path d="M68532 41363
L68252 41363
L68252 41294
L68265 41277
L68278 41268
L68305 41260
L68345 41260
L68372 41268
L68385 41277
L68398 41294
L68398 41363
" />
<path d="M68252 41097
L68252 41183
L68385 41191
L68372 41183
L68358 41165
L68358 41123
L68372 41105
L68385 41097
L68412 41088
L68478 41088
L68505 41097
L68518 41105
L68532 41123
L68532 41165
L68518 41183
L68505 41191
" />
<path d="M68252 41028
L68252 40908
L68532 40985
" />
<path d="M69407 48990
L69467 49123
" />
<path d="M69509 48990
L69509 49270
L69441 49270
L69424 49257
L69415 49243
L69407 49217
L69407 49177
L69415 49150
L69424 49137
L69441 49123
L69509 49123
" />
<path d="M69244 49270
L69329 49270
L69338 49137
L69329 49150
L69312 49163
L69269 49163
L69252 49150
L69244 49137
L69235 49110
L69235 49043
L69244 49017
L69252 49003
L69269 48990
L69312 48990
L69329 49003
L69338 49017
" />
<path d="M69132 49150
L69149 49163
L69158 49177
L69167 49203
L69167 49217
L69158 49243
L69149 49257
L69132 49270
L69098 49270
L69081 49257
L69072 49243
L69064 49217
L69064 49203
L69072 49177
L69081 49163
L69098 49150
L69132 49150
L69149 49137
L69158 49123
L69167 49097
L69167 49043
L69158 49017
L69149 49003
L69132 48990
L69098 48990
L69081 49003
L69072 49017
L69064 49043
L69064 49097
L69072 49123
L69081 49137
L69098 49150
" />
<path d="M43521 47809
L43581 47942
" />
<path d="M43624 47809
L43624 48089
L43555 48089
L43538 48075
L43529 48062
L43521 48035
L43521 47995
L43529 47969
L43538 47955
L43555 47942
L43624 47942
" />
<path d="M43358 48089
L43444 48089
L43452 47955
L43444 47969
L43426 47982
L43384 47982
L43366 47969
L43358 47955
L43349 47929
L43349 47862
L43358 47835
L43366 47822
L43384 47809
L43426 47809
L43444 47822
L43452 47835
" />
<path d="M43264 47809
L43229 47809
L43212 47822
L43204 47835
L43186 47875
L43178 47929
L43178 48035
L43186 48062
L43195 48075
L43212 48089
L43246 48089
L43264 48075
L43272 48062
L43281 48035
L43281 47969
L43272 47942
L43264 47929
L43246 47915
L43212 47915
L43195 47929
L43186 47942
L43178 47969
" />
<path d="M43521 46431
L43581 46564
" />
<path d="M43624 46431
L43624 46711
L43555 46711
L43538 46697
L43529 46684
L43521 46657
L43521 46617
L43529 46591
L43538 46577
L43555 46564
L43624 46564
" />
<path d="M43366 46711
L43401 46711
L43418 46697
L43426 46684
L43444 46644
L43452 46591
L43452 46484
L43444 46457
L43435 46444
L43418 46431
L43384 46431
L43366 46444
L43358 46457
L43349 46484
L43349 46551
L43358 46577
L43366 46591
L43384 46604
L43418 46604
L43435 46591
L43444 46577
L43452 46551
" />
<path d="M43281 46684
L43272 46697
L43255 46711
L43212 46711
L43195 46697
L43186 46684
L43178 46657
L43178 46631
L43186 46591
L43289 46431
L43178 46431
" />
<path d="M71572 49679
L71632 49812
" />
<path d="M71675 49679
L71675 49959
L71606 49959
L71589 49945
L71580 49932
L71572 49905
L71572 49865
L71580 49839
L71589 49825
L71606 49812
L71675 49812
" />
<path d="M71418 49959
L71452 49959
L71469 49945
L71478 49932
L71495 49892
L71503 49839
L71503 49732
L71495 49705
L71486 49692
L71469 49679
L71435 49679
L71418 49692
L71409 49705
L71400 49732
L71400 49799
L71409 49825
L71418 49839
L71435 49852
L71469 49852
L71486 49839
L71495 49825
L71503 49799
" />
<path d="M71238 49959
L71323 49959
L71332 49825
L71323 49839
L71306 49852
L71263 49852
L71246 49839
L71238 49825
L71229 49799
L71229 49732
L71238 49705
L71246 49692
L71263 49679
L71306 49679
L71323 49692
L71332 49705
" />
</g> 
</svg>
