<?xml version="1.0" standalone="no"?>
 <!DOCTYPE svg PUBLIC "-//W3C//DTD SVG 1.1//EN" 
 "http://www.w3.org/Graphics/SVG/1.1/DTD/svg11.dtd"> 
<svg xmlns="http://www.w3.org/2000/svg" version="1.1" 
    width="29.7002cm" height="21.0007cm" viewBox="0 0 116930 82680 ">
<title>SVG Picture created as oggbox-B_Cu.svg date 2013/08/02 22:26:13 </title>
  <desc>Picture generated by PCBNEW </desc>
<g style="fill:#000000; fill-opacity:1;stroke:#000000; stroke-opacity:1;
stroke-linecap:round; stroke-linejoin:round; "
 transform="translate(0 0) scale(1 1)">
</g>
<g style="fill:#000000; fill-opacity:0.0; 
stroke:#000000; stroke-width:150; stroke-opacity:1; 
stroke-linecap:round; stroke-linejoin:round;">
<path d="M78739 50200
L78740 50200
" />
<path d="M75787 53152
L78739 50200
" />
<path d="M40354 53152
L39370 52168
" />
<path d="M75787 53152
L40354 53152
" />
<path d="M75787 33467
L78740 36420
" />
<path d="M39370 34451
L39370 34452
" />
<path d="M40354 33467
L39370 34451
" />
<path d="M75787 33467
L40354 33467
" />
<path d="M39370 52168
L39370 34452
" />
<path d="M78740 50200
L78740 36420
" />
</g>
<g style="fill:#000000; fill-opacity:0.0; 
stroke:#000000; stroke-width:59.0551; stroke-opacity:1; 
stroke-linecap:round; stroke-linejoin:round;">
</g>
<g style="fill:#000000; fill-opacity:1.0; 
stroke:#000000; stroke-width:59.0551; stroke-opacity:1; 
stroke-linecap:round; stroke-linejoin:round;">
<circle cx="60894" cy="52759" r="270.472" /> 
<circle cx="64831" cy="52759" r="270.472" /> 
<circle cx="49736" cy="52759" r="270.472" /> 
<circle cx="45799" cy="52759" r="270.472" /> 
<circle cx="64959" cy="43999" r="167.472" /> 
<circle cx="73228" cy="43999" r="270.472" /> 
<polyline style="fill-rule:evenodd;"
points="74144,51137
74144,50996
73903,50996
73903,51137
74144,51137
" /> 
<polyline style="fill-rule:evenodd;"
points="74144,50387
74144,50246
73903,50246
73903,50387
74144,50387
" /> 
<polyline style="fill-rule:evenodd;"
points="73144,51137
73144,50996
72903,50996
72903,51137
73144,51137
" /> 
<polyline style="fill-rule:evenodd;"
points="74144,50762
74144,50621
73903,50621
73903,50762
74144,50762
" /> 
<polyline style="fill-rule:evenodd;"
points="73144,50387
73144,50246
72903,50246
72903,50387
73144,50387
" /> 
<polyline style="fill-rule:evenodd;"
points="73472,43199
73141,43199
73141,43420
73472,43420
73472,43199
" /> 
<polyline style="fill-rule:evenodd;"
points="72528,42825
72197,42825
72197,43046
72528,43046
72528,42825
" /> 
<polyline style="fill-rule:evenodd;"
points="72528,43573
72197,43573
72197,43794
72528,43794
72528,43573
" /> 
<polyline style="fill-rule:evenodd;"
points="75245,50171
74754,50171
74754,50462
75245,50462
75245,50171
" /> 
<polyline style="fill-rule:evenodd;"
points="75245,50921
74754,50921
74754,51212
75245,51212
75245,50921
" /> 
<polyline style="fill-rule:evenodd;"
points="72489,50171
71998,50171
71998,50462
72489,50462
72489,50171
" /> 
<polyline style="fill-rule:evenodd;"
points="72489,50921
71998,50921
71998,51212
72489,51212
72489,50921
" /> 
<polyline style="fill-rule:evenodd;"
points="66864,51946
66864,52587
67505,52587
67505,51946
66864,51946
" /> 
<circle cx="68185" cy="52267" r="320.472" /> 
<circle cx="69185" cy="52267" r="320.472" /> 
<circle cx="70185" cy="52267" r="320.472" /> 
<circle cx="71185" cy="52267" r="320.472" /> 
<circle cx="72185" cy="52267" r="320.472" /> 
<polyline style="fill-rule:evenodd;"
points="42764,35464
42273,35464
42273,36665
42764,36665
42764,35464
" /> 
<polyline style="fill-rule:evenodd;"
points="42764,38142
42273,38142
42273,39343
42764,39343
42764,38142
" /> 
<polyline style="fill-rule:evenodd;"
points="41190,38142
40699,38142
40699,39343
41190,39343
41190,38142
" /> 
<polyline style="fill-rule:evenodd;"
points="41190,35464
40699,35464
40699,36665
41190,36665
41190,35464
" /> 
<polyline style="fill-rule:evenodd;"
points="66958,42277
66958,42768
68159,42768
68159,42277
66958,42277
" /> 
<polyline style="fill-rule:evenodd;"
points="69636,42277
69636,42768
70837,42768
70837,42277
69636,42277
" /> 
<polyline style="fill-rule:evenodd;"
points="69636,43851
69636,44342
70837,44342
70837,43851
69636,43851
" /> 
<polyline style="fill-rule:evenodd;"
points="66958,43851
66958,44342
68159,44342
68159,43851
66958,43851
" /> 
<polyline style="fill-rule:evenodd;"
points="74832,42277
74832,42768
76033,42768
76033,42277
74832,42277
" /> 
<polyline style="fill-rule:evenodd;"
points="77510,42277
77510,42768
78711,42768
78711,42277
77510,42277
" /> 
<polyline style="fill-rule:evenodd;"
points="77510,43851
77510,44342
78711,44342
78711,43851
77510,43851
" /> 
<polyline style="fill-rule:evenodd;"
points="74832,43851
74832,44342
76033,44342
76033,43851
74832,43851
" /> 
<polyline style="fill-rule:evenodd;"
points="70895,46214
70895,46705
72096,46705
72096,46214
70895,46214
" /> 
<polyline style="fill-rule:evenodd;"
points="73573,46214
73573,46705
74774,46705
74774,46214
73573,46214
" /> 
<polyline style="fill-rule:evenodd;"
points="73573,47788
73573,48279
74774,48279
74774,47788
73573,47788
" /> 
<polyline style="fill-rule:evenodd;"
points="70895,47788
70895,48279
72096,48279
72096,47788
70895,47788
" /> 
<polyline style="fill-rule:evenodd;"
points="70895,38340
70895,38831
72096,38831
72096,38340
70895,38340
" /> 
<polyline style="fill-rule:evenodd;"
points="73573,38340
73573,38831
74774,38831
74774,38340
73573,38340
" /> 
<polyline style="fill-rule:evenodd;"
points="73573,39914
73573,40405
74774,40405
74774,39914
73573,39914
" /> 
<polyline style="fill-rule:evenodd;"
points="70895,39914
70895,40405
72096,40405
72096,39914
70895,39914
" /> 
<polyline style="fill-rule:evenodd;"
points="42764,47275
42273,47275
42273,48476
42764,48476
42764,47275
" /> 
<polyline style="fill-rule:evenodd;"
points="42764,49953
42273,49953
42273,51154
42764,51154
42764,49953
" /> 
<polyline style="fill-rule:evenodd;"
points="41190,49953
40699,49953
40699,51154
41190,51154
41190,49953
" /> 
<polyline style="fill-rule:evenodd;"
points="41190,47275
40699,47275
40699,48476
41190,48476
41190,47275
" /> 
<circle cx="40256" cy="37306" r="170.472" /> 
<circle cx="40256" cy="35928" r="170.472" /> 
<circle cx="40256" cy="50692" r="170.472" /> 
<circle cx="40256" cy="49314" r="170.472" /> 
<circle cx="62007" cy="34058" r="147.472" /> 
<circle cx="63189" cy="34058" r="147.472" /> 
<polyline style="fill-rule:evenodd;"
points="64202,33752
64202,33497
63867,33497
63867,33752
64202,33752
" /> 
<polyline style="fill-rule:evenodd;"
points="64202,34618
64202,34363
63867,34363
63867,34618
64202,34618
" /> 
<polyline style="fill-rule:evenodd;"
points="61328,34618
61328,34363
60993,34363
60993,34618
61328,34618
" /> 
<polyline style="fill-rule:evenodd;"
points="61328,33752
61328,33497
60993,33497
60993,33752
61328,33752
" /> 
<polyline style="fill-rule:evenodd;"
points="63592,35012
63592,34481
63375,34481
63375,35012
63592,35012
" /> 
<polyline style="fill-rule:evenodd;"
points="62411,35012
62411,34481
62194,34481
62194,35012
62411,35012
" /> 
<polyline style="fill-rule:evenodd;"
points="61820,35012
61820,34481
61603,34481
61603,35012
61820,35012
" /> 
<circle cx="76378" cy="37503" r="147.472" /> 
<circle cx="77560" cy="37503" r="147.472" /> 
<polyline style="fill-rule:evenodd;"
points="48592,35563
49123,35563
49123,35072
48592,35072
48592,35563
" /> 
<polyline style="fill-rule:evenodd;"
points="48592,34225
49123,34225
49123,33734
48592,33734
48592,34225
" /> 
<polyline style="fill-rule:evenodd;"
points="50876,35563
51407,35563
51407,35072
50876,35072
50876,35563
" /> 
<polyline style="fill-rule:evenodd;"
points="50876,34225
51407,34225
51407,33734
50876,33734
50876,34225
" /> 
<circle cx="50000" cy="35240" r="147.472" /> 
<circle cx="50000" cy="34058" r="147.472" /> 
<polyline style="fill-rule:evenodd;"
points="45344,35563
45875,35563
45875,35072
45344,35072
45344,35563
" /> 
<polyline style="fill-rule:evenodd;"
points="45344,34225
45875,34225
45875,33734
45344,33734
45344,34225
" /> 
<polyline style="fill-rule:evenodd;"
points="47628,35563
48159,35563
48159,35072
47628,35072
47628,35563
" /> 
<polyline style="fill-rule:evenodd;"
points="47628,34225
48159,34225
48159,33734
47628,33734
47628,34225
" /> 
<circle cx="46752" cy="35240" r="147.472" /> 
<circle cx="46752" cy="34058" r="147.472" /> 
<polyline style="fill-rule:evenodd;"
points="41348,39619
41348,39914
41525,39914
41525,39619
41348,39619
" /> 
<polyline style="fill-rule:evenodd;"
points="41938,39619
41938,39914
42115,39914
42115,39619
41938,39619
" /> 
<polyline style="fill-rule:evenodd;"
points="71309,43693
71604,43693
71604,43516
71309,43516
71309,43693
" /> 
<polyline style="fill-rule:evenodd;"
points="71309,43103
71604,43103
71604,42926
71309,42926
71309,43103
" /> 
<polyline style="fill-rule:evenodd;"
points="74261,43693
74556,43693
74556,43516
74261,43516
74261,43693
" /> 
<polyline style="fill-rule:evenodd;"
points="74261,43103
74556,43103
74556,42926
74261,42926
74261,43103
" /> 
<polyline style="fill-rule:evenodd;"
points="75049,47630
75344,47630
75344,47453
75049,47453
75049,47630
" /> 
<polyline style="fill-rule:evenodd;"
points="75049,47040
75344,47040
75344,46863
75049,46863
75049,47040
" /> 
<polyline style="fill-rule:evenodd;"
points="70226,39657
70521,39657
70521,39481
70226,39481
70226,39657
" /> 
<polyline style="fill-rule:evenodd;"
points="70226,39067
70521,39067
70521,38891
70226,38891
70226,39067
" /> 
<polyline style="fill-rule:evenodd;"
points="41348,46705
41348,47000
41525,47000
41525,46705
41348,46705
" /> 
<polyline style="fill-rule:evenodd;"
points="41938,46705
41938,47000
42115,47000
42115,46705
41938,46705
" /> 
<polyline style="fill-rule:evenodd;"
points="76151,48162
75619,48162
75619,48694
76151,48694
76151,48162
" /> 
<circle cx="75885.8" cy="49412.3" r="265.972" /> 
<circle cx="75885.8" cy="50396.3" r="265.972" /> 
<polyline style="fill-rule:evenodd;"
points="70718,49796
70718,49618
70561,49618
70561,49796
70718,49796
" /> 
<polyline style="fill-rule:evenodd;"
points="69990,50052
69990,49874
69832,49874
69832,50052
69990,50052
" /> 
<polyline style="fill-rule:evenodd;"
points="69990,49540
69990,49363
69832,49363
69832,49540
69990,49540
" /> 
<polyline style="fill-rule:evenodd;"
points="69340,48516
69340,48339
69183,48339
69183,48516
69340,48516
" /> 
<polyline style="fill-rule:evenodd;"
points="68612,48772
68612,48595
68454,48595
68454,48772
68612,48772
" /> 
<polyline style="fill-rule:evenodd;"
points="68612,48260
68612,48083
68454,48083
68454,48260
68612,48260
" /> 
<polyline style="fill-rule:evenodd;"
points="68415,50642
68592,50642
68592,50485
68415,50485
68415,50642
" /> 
<polyline style="fill-rule:evenodd;"
points="68159,49914
68336,49914
68336,49756
68159,49756
68159,49914
" /> 
<polyline style="fill-rule:evenodd;"
points="68671,49914
68848,49914
68848,49756
68671,49756
68671,49914
" /> 
<polyline style="fill-rule:evenodd;"
points="72588,41351
72293,41351
72293,41528
72588,41528
72588,41351
" /> 
<polyline style="fill-rule:evenodd;"
points="72588,41941
72293,41941
72293,42118
72588,42118
72588,41941
" /> 
<polyline style="fill-rule:evenodd;"
points="71997,41745
71702,41745
71702,41922
71997,41922
71997,41745
" /> 
<polyline style="fill-rule:evenodd;"
points="71997,42335
71702,42335
71702,42512
71997,42512
71997,42335
" /> 
<polyline style="fill-rule:evenodd;"
points="68592,51232
68592,50938
68415,50938
68415,51232
68592,51232
" /> 
<polyline style="fill-rule:evenodd;"
points="68002,51232
68002,50938
67825,50938
67825,51232
68002,51232
" /> 
<polyline style="fill-rule:evenodd;"
points="67214,51232
67214,50938
67037,50938
67037,51232
67214,51232
" /> 
<polyline style="fill-rule:evenodd;"
points="66624,51232
66624,50938
66447,50938
66447,51232
66624,51232
" /> 
<polyline style="fill-rule:evenodd;"
points="43887,38634
43887,38339
43710,38339
43710,38634
43887,38634
" /> 
<polyline style="fill-rule:evenodd;"
points="43297,38634
43297,38339
43120,38339
43120,38634
43297,38634
" /> 
<polyline style="fill-rule:evenodd;"
points="68159,48044
67864,48044
67864,48221
68159,48221
68159,48044
" /> 
<polyline style="fill-rule:evenodd;"
points="68159,48634
67864,48634
67864,48811
68159,48811
68159,48634
" /> 
<polyline style="fill-rule:evenodd;"
points="75147,41253
74852,41253
74852,41430
75147,41430
75147,41253
" /> 
<polyline style="fill-rule:evenodd;"
points="75147,41843
74852,41843
74852,42020
75147,42020
75147,41843
" /> 
<polyline style="fill-rule:evenodd;"
points="70659,51232
70659,50938
70482,50938
70482,51232
70659,51232
" /> 
<polyline style="fill-rule:evenodd;"
points="70069,51232
70069,50938
69892,50938
69892,51232
70069,51232
" /> 
<polyline style="fill-rule:evenodd;"
points="69892,50347
69892,50642
70069,50642
70069,50347
69892,50347
" /> 
<polyline style="fill-rule:evenodd;"
points="70482,50347
70482,50642
70659,50642
70659,50347
70482,50347
" /> 
<polyline style="fill-rule:evenodd;"
points="42333,40209
42333,40504
42510,40504
42510,40209
42333,40209
" /> 
<polyline style="fill-rule:evenodd;"
points="42923,40209
42923,40504
43100,40504
43100,40209
42923,40209
" /> 
<polyline style="fill-rule:evenodd;"
points="75344,45780
75049,45780
75049,45957
75344,45957
75344,45780
" /> 
<polyline style="fill-rule:evenodd;"
points="75344,46370
75049,46370
75049,46547
75344,46547
75344,46370
" /> 
<polyline style="fill-rule:evenodd;"
points="69104,38831
69104,39126
69281,39126
69281,38831
69104,38831
" /> 
<polyline style="fill-rule:evenodd;"
points="69694,38831
69694,39126
69871,39126
69871,38831
69694,38831
" /> 
<polyline style="fill-rule:evenodd;"
points="43887,39323
43887,39028
43710,39028
43710,39323
43887,39323
" /> 
<polyline style="fill-rule:evenodd;"
points="43297,39323
43297,39028
43120,39028
43120,39323
43297,39323
" /> 
<polyline style="fill-rule:evenodd;"
points="75443,42020
75738,42020
75738,41843
75443,41843
75443,42020
" /> 
<polyline style="fill-rule:evenodd;"
points="75443,41430
75738,41430
75738,41253
75443,41253
75443,41430
" /> 
<polyline style="fill-rule:evenodd;"
points="75639,46547
75934,46547
75934,46370
75639,46370
75639,46547
" /> 
<polyline style="fill-rule:evenodd;"
points="75639,45957
75934,45957
75934,45780
75639,45780
75639,45957
" /> 
<polyline style="fill-rule:evenodd;"
points="69871,38536
69871,38241
69694,38241
69694,38536
69871,38536
" /> 
<polyline style="fill-rule:evenodd;"
points="69281,38536
69281,38241
69104,38241
69104,38536
69281,38536
" /> 
<polyline style="fill-rule:evenodd;"
points="69635,41429
69930,41429
69930,41252
69635,41252
69635,41429
" /> 
<polyline style="fill-rule:evenodd;"
points="69635,40839
69930,40839
69930,40662
69635,40662
69635,40839
" /> 
<polyline style="fill-rule:evenodd;"
points="69045,40662
68750,40662
68750,40839
69045,40839
69045,40662
" /> 
<polyline style="fill-rule:evenodd;"
points="69045,41252
68750,41252
68750,41429
69045,41429
69045,41252
" /> 
<polyline style="fill-rule:evenodd;"
points="68120,49166
68120,49461
68297,49461
68297,49166
68120,49166
" /> 
<polyline style="fill-rule:evenodd;"
points="68710,49166
68710,49461
68887,49461
68887,49166
68710,49166
" /> 
<polyline style="fill-rule:evenodd;"
points="43788,48477
43788,48182
43612,48182
43612,48477
43788,48477
" /> 
<polyline style="fill-rule:evenodd;"
points="43198,48477
43198,48182
43022,48182
43022,48477
43198,48477
" /> 
<polyline style="fill-rule:evenodd;"
points="43022,46902
43022,47197
43198,47197
43198,46902
43022,46902
" /> 
<polyline style="fill-rule:evenodd;"
points="43612,46902
43612,47197
43788,47197
43788,46902
43612,46902
" /> 
<polyline style="fill-rule:evenodd;"
points="71840,49559
71840,49264
71663,49264
71663,49559
71840,49559
" /> 
<polyline style="fill-rule:evenodd;"
points="71250,49559
71250,49264
71073,49264
71073,49559
71250,49559
" /> 
</g>
<g style="fill:#000000; fill-opacity:1.0; 
stroke:#000000; stroke-width:0; stroke-opacity:1; 
stroke-linecap:round; stroke-linejoin:round;">
</g>
<g style="fill:#000000; fill-opacity:1.0; 
stroke:#000000; stroke-width:59.0551; stroke-opacity:1; 
stroke-linecap:round; stroke-linejoin:round;">
<polyline style="fill-rule:evenodd;"
points="40682,42967
40092,43077
40092,43541
40682,43651
40682,42967
" /> 
</g>
<g style="fill:#000000; fill-opacity:1.0; 
stroke:#000000; stroke-width:0; stroke-opacity:1; 
stroke-linecap:round; stroke-linejoin:round;">
</g>
<g style="fill:#000000; fill-opacity:1.0; 
stroke:#000000; stroke-width:59.0551; stroke-opacity:1; 
stroke-linecap:round; stroke-linejoin:round;">
<polyline style="fill-rule:evenodd;"
points="41318,42117
40824,41778
40495,42106
40835,42601
41318,42117
" /> 
</g>
<g style="fill:#000000; fill-opacity:1.0; 
stroke:#000000; stroke-width:0; stroke-opacity:1; 
stroke-linecap:round; stroke-linejoin:round;">
</g>
<g style="fill:#000000; fill-opacity:1.0; 
stroke:#000000; stroke-width:59.0551; stroke-opacity:1; 
stroke-linecap:round; stroke-linejoin:round;">
<polyline style="fill-rule:evenodd;"
points="42369,41964
42259,41374
41795,41374
41685,41964
42369,41964
" /> 
</g>
<g style="fill:#000000; fill-opacity:1.0; 
stroke:#000000; stroke-width:0; stroke-opacity:1; 
stroke-linecap:round; stroke-linejoin:round;">
</g>
<g style="fill:#000000; fill-opacity:1.0; 
stroke:#000000; stroke-width:59.0551; stroke-opacity:1; 
stroke-linecap:round; stroke-linejoin:round;">
<polyline style="fill-rule:evenodd;"
points="43219,42601
43559,42106
43231,41778
42736,42117
43219,42601
" /> 
</g>
<g style="fill:#000000; fill-opacity:1.0; 
stroke:#000000; stroke-width:0; stroke-opacity:1; 
stroke-linecap:round; stroke-linejoin:round;">
</g>
<g style="fill:#000000; fill-opacity:1.0; 
stroke:#000000; stroke-width:59.0551; stroke-opacity:1; 
stroke-linecap:round; stroke-linejoin:round;">
<polyline style="fill-rule:evenodd;"
points="40835,44018
40495,44513
40824,44841
41318,44502
40835,44018
" /> 
</g>
<g style="fill:#000000; fill-opacity:1.0; 
stroke:#000000; stroke-width:0; stroke-opacity:1; 
stroke-linecap:round; stroke-linejoin:round;">
</g>
<g style="fill:#000000; fill-opacity:1.0; 
stroke:#000000; stroke-width:59.0551; stroke-opacity:1; 
stroke-linecap:round; stroke-linejoin:round;">
<polyline style="fill-rule:evenodd;"
points="41685,44654
41795,45244
42259,45244
42369,44654
41685,44654
" /> 
</g>
<g style="fill:#000000; fill-opacity:1.0; 
stroke:#000000; stroke-width:0; stroke-opacity:1; 
stroke-linecap:round; stroke-linejoin:round;">
</g>
<g style="fill:#000000; fill-opacity:1.0; 
stroke:#000000; stroke-width:59.0551; stroke-opacity:1; 
stroke-linecap:round; stroke-linejoin:round;">
<polyline style="fill-rule:evenodd;"
points="42736,44502
43231,44841
43559,44513
43219,44018
42736,44502
" /> 
</g>
<g style="fill:#000000; fill-opacity:1.0; 
stroke:#000000; stroke-width:0; stroke-opacity:1; 
stroke-linecap:round; stroke-linejoin:round;">
</g>
<g style="fill:#000000; fill-opacity:1.0; 
stroke:#000000; stroke-width:59.0551; stroke-opacity:1; 
stroke-linecap:round; stroke-linejoin:round;">
<polyline style="fill-rule:evenodd;"
points="41535,43178
40633,43015
40633,43604
41535,43441
41535,43178
" /> 
</g>
<g style="fill:#000000; fill-opacity:1.0; 
stroke:#000000; stroke-width:0; stroke-opacity:1; 
stroke-linecap:round; stroke-linejoin:round;">
</g>
<g style="fill:#000000; fill-opacity:1.0; 
stroke:#000000; stroke-width:59.0551; stroke-opacity:1; 
stroke-linecap:round; stroke-linejoin:round;">
<polyline style="fill-rule:evenodd;"
points="41522,43375
40627,43570
40852,44114
41623,43618
41522,43375
" /> 
</g>
<g style="fill:#000000; fill-opacity:1.0; 
stroke:#000000; stroke-width:0; stroke-opacity:1; 
stroke-linecap:round; stroke-linejoin:round;">
</g>
<g style="fill:#000000; fill-opacity:1.0; 
stroke:#000000; stroke-width:59.0551; stroke-opacity:1; 
stroke-linecap:round; stroke-linejoin:round;">
<polyline style="fill-rule:evenodd;"
points="41623,43001
40852,42505
40627,43049
41522,43244
41623,43001
" /> 
</g>
<g style="fill:#000000; fill-opacity:1.0; 
stroke:#000000; stroke-width:0; stroke-opacity:1; 
stroke-linecap:round; stroke-linejoin:round;">
</g>
<g style="fill:#000000; fill-opacity:1.0; 
stroke:#000000; stroke-width:59.0551; stroke-opacity:1; 
stroke-linecap:round; stroke-linejoin:round;">
<polyline style="fill-rule:evenodd;"
points="41773,42869
41250,42116
40834,42533
41587,43055
41773,42869
" /> 
</g>
<g style="fill:#000000; fill-opacity:1.0; 
stroke:#000000; stroke-width:0; stroke-opacity:1; 
stroke-linecap:round; stroke-linejoin:round;">
</g>
<g style="fill:#000000; fill-opacity:1.0; 
stroke:#000000; stroke-width:59.0551; stroke-opacity:1; 
stroke-linecap:round; stroke-linejoin:round;">
<polyline style="fill-rule:evenodd;"
points="41587,43564
40834,44086
41250,44503
41773,43750
41587,43564
" /> 
</g>
<g style="fill:#000000; fill-opacity:1.0; 
stroke:#000000; stroke-width:0; stroke-opacity:1; 
stroke-linecap:round; stroke-linejoin:round;">
</g>
<g style="fill:#000000; fill-opacity:1.0; 
stroke:#000000; stroke-width:59.0551; stroke-opacity:1; 
stroke-linecap:round; stroke-linejoin:round;">
<polyline style="fill-rule:evenodd;"
points="41961,42805
41767,41909
41222,42134
41718,42905
41961,42805
" /> 
</g>
<g style="fill:#000000; fill-opacity:1.0; 
stroke:#000000; stroke-width:0; stroke-opacity:1; 
stroke-linecap:round; stroke-linejoin:round;">
</g>
<g style="fill:#000000; fill-opacity:1.0; 
stroke:#000000; stroke-width:59.0551; stroke-opacity:1; 
stroke-linecap:round; stroke-linejoin:round;">
<polyline style="fill-rule:evenodd;"
points="41718,43713
41222,44484
41767,44710
41961,43814
41718,43713
" /> 
</g>
<g style="fill:#000000; fill-opacity:1.0; 
stroke:#000000; stroke-width:0; stroke-opacity:1; 
stroke-linecap:round; stroke-linejoin:round;">
</g>
<g style="fill:#000000; fill-opacity:1.0; 
stroke:#000000; stroke-width:59.0551; stroke-opacity:1; 
stroke-linecap:round; stroke-linejoin:round;">
<polyline style="fill-rule:evenodd;"
points="42159,42817
42322,41915
41733,41915
41896,42817
42159,42817
" /> 
</g>
<g style="fill:#000000; fill-opacity:1.0; 
stroke:#000000; stroke-width:0; stroke-opacity:1; 
stroke-linecap:round; stroke-linejoin:round;">
</g>
<g style="fill:#000000; fill-opacity:1.0; 
stroke:#000000; stroke-width:59.0551; stroke-opacity:1; 
stroke-linecap:round; stroke-linejoin:round;">
<polyline style="fill-rule:evenodd;"
points="41896,43801
41733,44703
42322,44703
42159,43801
41896,43801
" /> 
</g>
<g style="fill:#000000; fill-opacity:1.0; 
stroke:#000000; stroke-width:0; stroke-opacity:1; 
stroke-linecap:round; stroke-linejoin:round;">
</g>
<g style="fill:#000000; fill-opacity:1.0; 
stroke:#000000; stroke-width:59.0551; stroke-opacity:1; 
stroke-linecap:round; stroke-linejoin:round;">
<polyline style="fill-rule:evenodd;"
points="42093,43814
42288,44710
42832,44484
42336,43713
42093,43814
" /> 
</g>
<g style="fill:#000000; fill-opacity:1.0; 
stroke:#000000; stroke-width:0; stroke-opacity:1; 
stroke-linecap:round; stroke-linejoin:round;">
</g>
<g style="fill:#000000; fill-opacity:1.0; 
stroke:#000000; stroke-width:59.0551; stroke-opacity:1; 
stroke-linecap:round; stroke-linejoin:round;">
<polyline style="fill-rule:evenodd;"
points="42336,42905
42832,42134
42288,41909
42093,42805
42336,42905
" /> 
</g>
<g style="fill:#000000; fill-opacity:1.0; 
stroke:#000000; stroke-width:0; stroke-opacity:1; 
stroke-linecap:round; stroke-linejoin:round;">
</g>
<g style="fill:#000000; fill-opacity:1.0; 
stroke:#000000; stroke-width:59.0551; stroke-opacity:1; 
stroke-linecap:round; stroke-linejoin:round;">
<polyline style="fill-rule:evenodd;"
points="42467,43055
43220,42533
42804,42116
42281,42869
42467,43055
" /> 
</g>
<g style="fill:#000000; fill-opacity:1.0; 
stroke:#000000; stroke-width:0; stroke-opacity:1; 
stroke-linecap:round; stroke-linejoin:round;">
</g>
<g style="fill:#000000; fill-opacity:1.0; 
stroke:#000000; stroke-width:59.0551; stroke-opacity:1; 
stroke-linecap:round; stroke-linejoin:round;">
<polyline style="fill-rule:evenodd;"
points="42281,43750
42804,44503
43220,44086
42467,43564
42281,43750
" /> 
</g>
<g style="fill:#000000; fill-opacity:1.0; 
stroke:#000000; stroke-width:0; stroke-opacity:1; 
stroke-linecap:round; stroke-linejoin:round;">
</g>
<g style="fill:#000000; fill-opacity:1.0; 
stroke:#000000; stroke-width:59.0551; stroke-opacity:1; 
stroke-linecap:round; stroke-linejoin:round;">
<polyline style="fill-rule:evenodd;"
points="42400,43637
43104,44205
43268,43960
42472,43528
42400,43637
" /> 
</g>
<g style="fill:#000000; fill-opacity:1.0; 
stroke:#000000; stroke-width:0; stroke-opacity:1; 
stroke-linecap:round; stroke-linejoin:round;">
</g>
<g style="fill:#000000; fill-opacity:1.0; 
stroke:#000000; stroke-width:59.0551; stroke-opacity:1; 
stroke-linecap:round; stroke-linejoin:round;">
<polyline style="fill-rule:evenodd;"
points="42472,43091
43268,42659
43104,42413
42400,42982
42472,43091
" /> 
<circle cx="50295.3" cy="38487.1" r="108.472" /> 
<circle cx="45472.4" cy="38093.4" r="108.472" /> 
<circle cx="46023" cy="35731" r="108.472" /> 
<circle cx="43996.1" cy="45869" r="108.472" /> 
<circle cx="47145.7" cy="46656.4" r="108.472" /> 
<circle cx="75492.1" cy="47542.2" r="108.472" /> 
<circle cx="76476.4" cy="45180" r="108.472" /> 
<circle cx="77952.8" cy="45278.4" r="108.472" /> 
<circle cx="67224.4" cy="47246.9" r="108.472" /> 
<circle cx="70669.3" cy="48034.3" r="108.472" /> 
<circle cx="63287.4" cy="50199.7" r="108.472" /> 
<circle cx="63385.8" cy="49215.4" r="108.472" /> 
<circle cx="60826.8" cy="51676.1" r="108.472" /> 
<circle cx="65748" cy="51971.3" r="108.472" /> 
<circle cx="65846.5" cy="46853.2" r="108.472" /> 
<circle cx="65255.9" cy="46853.2" r="108.472" /> 
<circle cx="66437" cy="46853.2" r="108.472" /> 
<circle cx="64665.4" cy="46853.2" r="108.472" /> 
<circle cx="41437" cy="51479.2" r="108.472" /> 
<circle cx="46456.7" cy="43408.3" r="108.472" /> 
<circle cx="46456.7" cy="42227.3" r="108.472" /> 
<circle cx="44094.5" cy="40849.3" r="108.472" /> 
<circle cx="74212.6" cy="40750.9" r="108.472" /> 
<circle cx="41535.4" cy="35239.1" r="108.472" /> 
<circle cx="40944.9" cy="39766.6" r="108.472" /> 
<circle cx="70866.1" cy="39569.5" r="108.472" /> 
<circle cx="51476.4" cy="51577.6" r="108.472" /> 
<circle cx="56299.2" cy="46853.2" r="108.472" /> 
<circle cx="40846.5" cy="46853.2" r="108.472" /> 
<circle cx="73425" cy="47345" r="108.472" /> 
<circle cx="63385.8" cy="35337.5" r="108.472" /> 
<circle cx="53346.5" cy="38487.1" r="108.472" /> 
<circle cx="50787.4" cy="39077.6" r="108.472" /> 
<circle cx="54822.8" cy="38191.8" r="78.7402" /> 
<circle cx="46850.4" cy="34746.9" r="108.472" /> 
<circle cx="54822.8" cy="43113.1" r="108.472" /> 
<circle cx="58759.8" cy="37798.1" r="108.472" /> 
<circle cx="60039.4" cy="39077.6" r="108.472" /> 
<circle cx="65255.9" cy="48034.3" r="108.472" /> 
<circle cx="59252" cy="42325.7" r="108.472" /> 
<circle cx="75885.8" cy="34845.4" r="108.472" /> 
<circle cx="57775.6" cy="38782.4" r="108.472" /> 
<circle cx="53937" cy="38683.9" r="78.7402" /> 
<circle cx="78149.6" cy="46754.8" r="108.472" /> 
<circle cx="76968.5" cy="41735.1" r="108.472" /> 
<circle cx="67815" cy="49313.9" r="108.472" /> 
<circle cx="62992.1" cy="48329.6" r="108.472" /> 
<circle cx="51181.1" cy="50101.3" r="108.472" /> 
<circle cx="49114" cy="50218" r="108.472" /> 
<circle cx="49114" cy="48723" r="108.472" /> 
<circle cx="53740.2" cy="44687.9" r="78.7402" /> 
<circle cx="50000" cy="44884.7" r="78.7402" /> 
<circle cx="50000" cy="46164.3" r="78.7402" /> 
<circle cx="63189" cy="50790.2" r="78.7402" /> 
<circle cx="51968.5" cy="50396.5" r="78.7402" /> 
<circle cx="50492.1" cy="50495.2" r="78.7402" /> 
<circle cx="48327" cy="48330" r="108.472" /> 
<circle cx="52460.6" cy="42817.8" r="78.7402" /> 
<circle cx="52066.9" cy="46164.3" r="78.7402" /> 
<circle cx="53248" cy="42030.4" r="78.7402" /> 
<circle cx="50689" cy="42227.2" r="78.7402" /> 
<circle cx="53248" cy="41636.7" r="78.7402" /> 
<circle cx="62696.9" cy="48624.9" r="78.7402" /> 
<circle cx="62893.7" cy="50495" r="78.7402" /> 
<circle cx="53641.7" cy="48526.5" r="78.7402" /> 
<circle cx="50787.4" cy="43113.1" r="78.7402" /> 
<circle cx="50787.4" cy="45475.3" r="78.7402" /> 
<circle cx="74015.7" cy="49904.4" r="78.7402" /> 
<circle cx="74015.7" cy="51479.2" r="78.7402" /> 
<circle cx="53248" cy="42424.1" r="78.7402" /> 
<circle cx="55708.7" cy="44195.7" r="78.7402" /> 
<circle cx="62499.6" cy="45672.6" r="78.7402" /> 
<circle cx="56003.9" cy="44392.6" r="78.7402" /> 
<circle cx="62499.9" cy="46065.9" r="78.7402" /> 
<circle cx="72736.2" cy="37502.8" r="78.7402" /> 
<circle cx="72736.2" cy="38487.1" r="78.7402" /> 
<circle cx="73031.5" cy="42719.4" r="78.7402" /> 
<circle cx="74704.7" cy="45869" r="78.7402" /> 
<circle cx="72440.9" cy="46065.8" r="78.7402" /> 
<circle cx="60826.8" cy="37404.4" r="78.7402" /> 
<circle cx="66929.1" cy="40455.6" r="78.7402" /> 
<circle cx="74507.9" cy="41341.4" r="78.7402" /> 
<circle cx="60531.5" cy="40750.9" r="78.7402" /> 
<circle cx="52559.1" cy="40849.3" r="78.7402" /> 
<circle cx="66043.3" cy="44097.3" r="78.7402" /> 
<circle cx="64173.2" cy="36813.9" r="78.7402" /> 
<circle cx="60925.2" cy="45573.7" r="78.7402" /> 
<circle cx="57381.9" cy="37207.6" r="78.7402" /> 
<circle cx="63582.7" cy="39865" r="78.7402" /> 
<circle cx="65157.5" cy="39865" r="78.7402" /> 
<circle cx="62204.7" cy="36814" r="78.7402" /> 
<circle cx="60826.8" cy="36813.9" r="78.7402" /> 
<circle cx="69783" cy="39865" r="108.472" /> 
<circle cx="67027.6" cy="45967.4" r="78.7402" /> 
<circle cx="61614.2" cy="44491" r="78.7402" /> 
<circle cx="66732.3" cy="47443.8" r="78.7402" /> 
<circle cx="60531.5" cy="40455.6" r="78.7402" /> 
<circle cx="58070.9" cy="35928" r="78.7402" /> 
<circle cx="49507.9" cy="37109.1" r="78.7402" /> 
<circle cx="50984.3" cy="45081.6" r="78.7402" /> 
<circle cx="57972.4" cy="45081.6" r="78.7402" /> 
<circle cx="61811" cy="48231.2" r="78.7402" /> 
<circle cx="53641.7" cy="48231.2" r="78.7402" /> 
<circle cx="58563" cy="47935.9" r="78.7402" /> 
<circle cx="53641.7" cy="47935.9" r="78.7402" /> 
<circle cx="56594.5" cy="47345.4" r="78.7402" /> 
<circle cx="53641.7" cy="47345.4" r="78.7402" /> 
<circle cx="53641.7" cy="47640.6" r="78.7402" /> 
<circle cx="58858.3" cy="47640.6" r="78.7402" /> 
<circle cx="50295.3" cy="40652.4" r="78.7402" /> 
<circle cx="52165.4" cy="40849.3" r="78.7402" /> 
<circle cx="56889.8" cy="47050.1" r="78.7402" /> 
<circle cx="53641.7" cy="47050.1" r="78.7402" /> 
<circle cx="62795.3" cy="36518.6" r="78.7402" /> 
<circle cx="55315" cy="37306" r="108.472" /> 
<circle cx="65452.8" cy="42620.9" r="78.7402" /> 
<circle cx="58563" cy="42719" r="108.472" /> 
<circle cx="66240" cy="44393" r="108.472" /> 
<circle cx="59154" cy="43408" r="108.472" /> 
<circle cx="71260" cy="44196" r="108.472" /> 
<circle cx="59547" cy="43605" r="108.472" /> 
<circle cx="68208.7" cy="43408.3" r="78.7402" /> 
<circle cx="58957" cy="43015" r="108.472" /> 
<circle cx="60728" cy="42030" r="108.472" /> 
<circle cx="63878" cy="42030" r="108.472" /> 
<circle cx="56988.2" cy="37306" r="78.7402" /> 
<circle cx="50295.3" cy="43900.5" r="78.7402" /> 
<circle cx="54232.3" cy="42227.2" r="78.7402" /> 
<circle cx="50393.7" cy="43605.2" r="78.7402" /> 
<circle cx="53838.6" cy="42227.2" r="78.7402" /> 
<circle cx="50196.9" cy="44195.7" r="78.7402" /> 
<circle cx="53248" cy="43703.6" r="78.7402" /> 
<circle cx="74704.7" cy="44983.1" r="78.7402" /> 
<circle cx="55216.5" cy="44294.2" r="78.7402" /> 
<circle cx="55118.1" cy="43998.9" r="78.7402" /> 
<circle cx="75098.4" cy="44983.1" r="78.7402" /> 
<circle cx="63582.7" cy="40160.3" r="78.7402" /> 
<circle cx="65157.5" cy="40160.3" r="78.7402" /> 
<circle cx="63189" cy="46853.2" r="78.7402" /> 
<circle cx="56594.5" cy="44491" r="78.7402" /> 
<circle cx="62204.7" cy="37109" r="78.7402" /> 
<circle cx="60826" cy="37109" r="78.7402" /> 
<circle cx="62696.9" cy="48034.3" r="78.7402" /> 
<circle cx="50689" cy="34058" r="78.7402" /> 
<circle cx="50787.4" cy="39865" r="78.7402" /> 
<circle cx="51574.8" cy="39865" r="78.7402" /> 
<circle cx="50787.4" cy="41144.6" r="78.7402" /> 
<circle cx="52362.2" cy="41144.6" r="78.7402" /> 
<circle cx="52362.2" cy="41439.8" r="78.7402" /> 
<circle cx="49803.1" cy="41341.4" r="78.7402" /> 
<circle cx="62204.7" cy="39274.5" r="78.7402" /> 
<circle cx="60531.5" cy="39274.5" r="78.7402" /> 
<circle cx="52067" cy="49708" r="78.7402" /> 
<circle cx="59449" cy="49708" r="108.472" /> 
<circle cx="56299.2" cy="44491" r="78.7402" /> 
<circle cx="49606.3" cy="44392.6" r="78.7402" /> 
<circle cx="62204.7" cy="39865" r="78.7402" /> 
<circle cx="60531.5" cy="39865" r="78.7402" /> 
<circle cx="51673.2" cy="49510.7" r="78.7402" /> 
<circle cx="58858" cy="49314" r="108.472" /> 
<circle cx="62204.7" cy="40160.3" r="78.7402" /> 
<circle cx="60531.5" cy="40160.3" r="78.7402" /> 
<circle cx="51574.8" cy="49215.4" r="78.7402" /> 
<circle cx="58661" cy="49019" r="108.472" /> 
<circle cx="60925" cy="48822" r="108.472" /> 
<circle cx="60826.8" cy="37699.7" r="78.7402" /> 
<circle cx="62204.7" cy="37700" r="78.7402" /> 
<circle cx="53641.7" cy="48821.7" r="78.7402" /> 
<circle cx="62204.7" cy="39569.8" r="78.7402" /> 
<circle cx="60531.5" cy="39569.8" r="78.7402" /> 
<circle cx="52362" cy="49511" r="78.7402" /> 
<circle cx="59154" cy="49511" r="108.472" /> 
<circle cx="46063" cy="34451.7" r="78.7402" /> 
<circle cx="49704.7" cy="34845.4" r="108.472" /> 
<circle cx="52165.4" cy="34353.2" r="108.472" /> 
<circle cx="51279.5" cy="38487.1" r="108.472" /> 
<circle cx="47933.1" cy="38979.2" r="108.472" /> 
<circle cx="47933.1" cy="39569.8" r="108.472" /> 
<circle cx="47933.1" cy="40160.3" r="108.472" /> 
<circle cx="47933.1" cy="40750.9" r="108.472" /> 
<circle cx="55216.5" cy="43211.5" r="108.472" /> 
<circle cx="48326.8" cy="41046.1" r="108.472" /> 
<circle cx="48917.3" cy="44983.1" r="108.472" /> 
<circle cx="46063" cy="38093.4" r="108.472" /> 
<circle cx="45964.6" cy="39077.6" r="108.472" /> 
<circle cx="53543.3" cy="37502.8" r="108.472" /> 
<circle cx="63681.1" cy="45573.7" r="108.472" /> 
<circle cx="43700.8" cy="47542.2" r="108.472" /> 
<circle cx="68405.5" cy="40750.9" r="108.472" /> 
<circle cx="68897.6" cy="38388.7" r="108.472" /> 
<circle cx="61023.6" cy="38093.4" r="108.472" /> 
<circle cx="59645.7" cy="39077.6" r="108.472" /> 
<circle cx="44291.3" cy="47345.4" r="108.472" /> 
<circle cx="43110.2" cy="47542.2" r="108.472" /> 
<circle cx="43110.2" cy="45475.3" r="108.472" /> 
<circle cx="47145.7" cy="46065.8" r="108.472" /> 
<circle cx="76574.8" cy="45869" r="108.472" /> 
<circle cx="67519.7" cy="48132.8" r="108.472" /> 
<circle cx="65846.5" cy="51085.5" r="108.472" /> 
<circle cx="69586.6" cy="50002.8" r="108.472" /> 
<circle cx="71555.1" cy="50987.1" r="108.472" /> 
<circle cx="75000" cy="51577.6" r="108.472" /> 
<circle cx="67224.4" cy="50495" r="108.472" /> 
<circle cx="69488.2" cy="49412.3" r="108.472" /> 
<circle cx="67322.8" cy="49412.3" r="108.472" /> 
<circle cx="65649.6" cy="48329.6" r="108.472" /> 
<circle cx="63385.8" cy="48329.6" r="108.472" /> 
<circle cx="65059.1" cy="49412.3" r="108.472" /> 
<circle cx="64960.6" cy="50495" r="108.472" /> 
<circle cx="62401.6" cy="51577.6" r="108.472" /> 
<circle cx="60728.3" cy="34058" r="108.472" /> 
<circle cx="64665" cy="34255" r="108.472" /> 
<circle cx="43208.7" cy="39766.6" r="108.472" /> 
<circle cx="47342.5" cy="44097.3" r="108.472" /> 
<circle cx="61712.6" cy="42325.7" r="108.472" /> 
<circle cx="44192.9" cy="38979.2" r="108.472" /> 
<circle cx="57185" cy="38782.4" r="108.472" /> 
<circle cx="59940.9" cy="37798.1" r="108.472" /> 
<circle cx="53543.3" cy="39077.6" r="108.472" /> 
<circle cx="51673.2" cy="39077.6" r="108.472" /> 
<circle cx="75393.7" cy="40947.7" r="108.472" /> 
<circle cx="60236.2" cy="51676.1" r="108.472" /> 
<circle cx="59448.8" cy="52168.2" r="108.472" /> 
<circle cx="55708.7" cy="52168.2" r="108.472" /> 
<circle cx="55118.1" cy="52168.2" r="108.472" /> 
<circle cx="54527.6" cy="52168.2" r="108.472" /> 
<circle cx="53937" cy="52168.2" r="108.472" /> 
<circle cx="53346.5" cy="52168.2" r="108.472" /> 
<circle cx="53740.2" cy="43113.1" r="108.472" /> 
<circle cx="51476.4" cy="51085.5" r="108.472" /> 
<circle cx="74015.7" cy="43309.9" r="108.472" /> 
<circle cx="49901.6" cy="48231.2" r="108.472" /> 
<circle cx="51771.7" cy="37502.8" r="108.472" /> 
<circle cx="56200.8" cy="46459.5" r="108.472" /> 
<circle cx="53641.7" cy="46361.1" r="108.472" /> 
<circle cx="58366.1" cy="34353.2" r="108.472" /> 
<circle cx="54232.3" cy="34746.9" r="108.472" /> 
<circle cx="63681" cy="37897" r="108.472" /> 
<circle cx="70177" cy="47149" r="108.472" /> 
<circle cx="75000" cy="34550" r="108.472" /> 
<circle cx="75689" cy="36814" r="108.472" /> 
<circle cx="60630" cy="47149" r="108.472" /> 
<circle cx="77362" cy="45574" r="108.472" /> 
<circle cx="76300" cy="39273" r="108.472" /> 
<circle cx="68504" cy="46656" r="108.472" /> 
<circle cx="50591" cy="50987" r="108.472" /> 
<circle cx="68504" cy="47149" r="108.472" /> 
<circle cx="59547" cy="41834" r="108.472" /> 
<circle cx="43799" cy="42129" r="108.472" /> 
<circle cx="45374" cy="42818" r="108.472" /> 
<circle cx="76969" cy="45180" r="108.472" /> 
<circle cx="41141.7" cy="44589.4" r="108.472" /> 
<circle cx="42126" cy="44491" r="108.472" /> 
<circle cx="42126" cy="41735" r="108.472" /> 
<circle cx="44389.8" cy="34451.7" r="108.472" /> 
<circle cx="45177.2" cy="52266.6" r="108.472" /> 
<circle cx="39961" cy="39176" r="108.472" /> 
<circle cx="40255.9" cy="42620.9" r="108.472" /> 
<circle cx="41732.3" cy="40849.3" r="108.472" /> 
<circle cx="44094" cy="52562" r="108.472" /> 
<circle cx="43701" cy="36617" r="108.472" /> 
<circle cx="43208" cy="43605" r="145.472" /> 
<circle cx="53149.6" cy="40652.4" r="78.7402" /> 
<circle cx="50393.7" cy="40061.9" r="78.7402" /> 
<circle cx="71654" cy="41341" r="78.7402" /> 
<circle cx="65551.2" cy="41341.4" r="78.7402" /> 
<circle cx="60531.5" cy="41341.4" r="78.7402" /> 
<circle cx="60531.5" cy="41046.1" r="78.7402" /> 
<circle cx="71358.3" cy="41735.1" r="78.7402" /> 
<circle cx="66240.2" cy="41341.4" r="78.7402" /> 
</g>
<g style="fill:#000000; fill-opacity:1.0; 
stroke:#000000; stroke-width:197; stroke-opacity:1; 
stroke-linecap:round; stroke-linejoin:round;">
<path d="M75196 47541
L75491 47541
" />
<path d="M75491 47541
L75492 47542
" />
<path d="M78111 44097
L78111 45120
" />
<path d="M78111 45120
L77952 45278
" />
<path d="M75433 44097
L78111 44097
" />
<path d="M71496 48034
L70669 48034
" />
<path d="M70669 48034
L70669 48034
" />
<path d="M40945 50554
L40945 50987
" />
<path d="M40945 50987
L41437 51479
" />
<path d="M74174 40160
L74174 40712
" />
<path d="M74174 40712
L74212 40750
" />
<path d="M40945 36065
L40945 35829
" />
<path d="M40945 35829
L41535 35239
" />
<path d="M40945 38743
L40945 39766
" />
<path d="M40945 39766
L40944 39766
" />
<path d="M40945 47876
L40945 46951
" />
<path d="M40945 46951
L40846 46853
" />
<path d="M75433 44097
L74901 44097
" />
<path d="M74901 44097
L74409 43604
" />
<path d="M73425 47345
L73485 47345
" />
<path d="M73485 47345
L74174 48034
" />
<path d="M75196 47541
L75196 47739
" />
<path d="M75196 47739
L74901 48034
" />
<path d="M74901 48034
L74174 48034
" />
<path d="M40945 47876
L40945 47345
" />
<path d="M40945 47345
L41437 46853
" />
<path d="M41437 39766
L41437 39235
" />
<path d="M41437 39235
L40945 38743
" />
<path d="M70374 39569
L70866 39569
" />
<path d="M70866 39569
L70905 39569
" />
<path d="M70905 39569
L71496 40160
" />
<path d="M49370 35830
L48858 35318
" />
<path d="M50787 35830
L49370 35830
" />
<path d="M51142 35318
L51142 35475
" />
<path d="M51142 35475
L50787 35830
" />
<path d="M47894 35318
L47894 35376
" />
<path d="M47894 35376
L47539 35731
" />
<path d="M47539 35731
L46023 35731
" />
<path d="M48858 35318
L47894 35318
" />
<path d="M46023 35731
L45610 35318
" />
<path d="M63484 34747
L63484 35239
" />
<path d="M63484 35239
L63385 35337
" />
<path d="M50787 39077
L51181 39077
" />
<path d="M53248 38388
L53346 38487
" />
<path d="M51870 38388
L53248 38388
" />
<path d="M51181 39077
L51870 38388
" />
<path d="M63484 34747
L63484 34747
" />
<path d="M75885 34550
L75885 34845
" />
<path d="M75393 34057
L75885 34550
" />
<path d="M74015 34057
L75393 34057
" />
<path d="M72933 35140
L74015 34057
" />
<path d="M63877 35140
L72933 35140
" />
<path d="M63484 34747
L63877 35140
" />
<path d="M78149 46754
L78346 46951
" />
<path d="M73247 50316
L73023 50316
" />
<path d="M73523 50593
L73247 50316
" />
<path d="M73523 51872
L73523 50593
" />
<path d="M74015 52365
L73523 51872
" />
<path d="M75885 52365
L74015 52365
" />
<path d="M78346 49904
L75885 52365
" />
<path d="M78346 46951
L78346 49904
" />
<path d="M71751 49412
L71850 49412
" />
<path d="M72244 49805
L72244 50316
" />
<path d="M71850 49412
L72244 49805
" />
<path d="M73023 50316
L72244 50316
" />
<path d="M68208 49313
L67814 49313
" />
<path d="M68248 49835
L68248 49352
" />
<path d="M68248 49352
L68208 49313
" />
<path d="M75000 50316
L74023 50316
" />
<path d="M75885 50396
L75079 50396
" />
<path d="M75079 50396
L75000 50316
" />
<path d="M62992 48329
L62992 49904
" />
<path d="M62795 50101
L62795 50101
" />
<path d="M62992 49904
L62795 50101
" />
<path d="M62795 50101
L51181 50101
" />
<path d="M51181 50101
L51181 50101
" />
<path d="M49114 50218
L49114 48723
" />
</g>
<g style="fill:#000000; fill-opacity:1.0; 
stroke:#000000; stroke-width:78.7402; stroke-opacity:1; 
stroke-linecap:round; stroke-linejoin:round;">
<path d="M49606 48329
L49606 46558
" />
<path d="M49606 46558
L50000 46164
" />
<path d="M49606 48428
L49606 48329
" />
<path d="M49605 48330
L49507 48330
" />
<path d="M49606 48329
L49605 48330
" />
<path d="M50492 50495
L50492 50494
" />
<path d="M50492 50494
L49606 49608
" />
<path d="M53740 44687
L50885 44687
" />
<path d="M50885 44687
L50688 44884
" />
<path d="M50688 44884
L50000 44884
" />
<path d="M62500 50790
L62106 50396
" />
<path d="M62106 50396
L51968 50396
" />
<path d="M63188 50790
L62500 50790
" />
</g>
<g style="fill:#000000; fill-opacity:1.0; 
stroke:#000000; stroke-width:80; stroke-opacity:1; 
stroke-linecap:round; stroke-linejoin:round;">
<path d="M48327 48330
L49507 48330
" />
<path d="M49606 49608
L49606 48428
" />
</g>
<g style="fill:#000000; fill-opacity:1.0; 
stroke:#000000; stroke-width:78.7402; stroke-opacity:1; 
stroke-linecap:round; stroke-linejoin:round;">
<path d="M52460 45770
L52066 46164
" />
<path d="M53248 42030
L52460 42817
" />
<path d="M60433 47739
L63779 47739
" />
<path d="M67322 46853
L68208 47739
" />
<path d="M66929 46853
L67322 46853
" />
<path d="M66633 47148
L66929 46853
" />
<path d="M64370 47148
L66633 47148
" />
<path d="M63779 47739
L64370 47148
" />
<path d="M69911 49451
L69911 48162
" />
<path d="M69488 47739
L68208 47739
" />
<path d="M69911 48162
L69488 47739
" />
<path d="M71161 49412
L71062 49412
" />
<path d="M71062 49412
L70866 49215
" />
<path d="M70866 49215
L70147 49215
" />
<path d="M70147 49215
L69911 49451
" />
<path d="M58464 45770
L60433 47739
" />
<path d="M52460 45770
L58464 45770
" />
<path d="M50688 42227
L50787 42128
" />
<path d="M53248 41636
L52755 42128
" />
<path d="M52755 42128
L50787 42128
" />
<path d="M69586 51085
L69980 51085
" />
<path d="M62893 50494
L63287 50494
" />
<path d="M53641 48526
L62598 48526
" />
<path d="M62598 48526
L62696 48624
" />
<path d="M63287 50494
L64271 51479
" />
<path d="M64271 51479
L69192 51479
" />
<path d="M69192 51479
L69586 51085
" />
<path d="M52559 43113
L50787 43113
" />
<path d="M50787 45475
L58464 45475
" />
<path d="M58464 45475
L60531 47542
" />
<path d="M68405 47542
L69586 47542
" />
<path d="M60531 47542
L63484 47542
" />
<path d="M70866 48821
L72933 48821
" />
<path d="M72933 48821
L74015 49904
" />
<path d="M74015 51479
L74023 51471
" />
<path d="M74023 51471
L74023 51066
" />
<path d="M70866 48821
L69586 47542
" />
<path d="M63877 47148
L63976 47148
" />
<path d="M63976 47148
L64566 46557
" />
<path d="M64566 46557
L67421 46557
" />
<path d="M67421 46557
L68405 47542
" />
<path d="M63484 47542
L63877 47148
" />
<path d="M53248 42424
L52559 43113
" />
<path d="M55905 43998
L55905 43999
" />
<path d="M55708 44195
L55905 43998
" />
</g>
<g style="fill:#000000; fill-opacity:1.0; 
stroke:#000000; stroke-width:80; stroke-opacity:1; 
stroke-linecap:round; stroke-linejoin:round;">
<path d="M55905 43999
L58169 43999
" />
<path d="M59055 44885
L61712 44885
" />
<path d="M58169 43999
L59055 44885
" />
<path d="M61712 44885
L62499 45672
" />
</g>
<g style="fill:#000000; fill-opacity:1.0; 
stroke:#000000; stroke-width:78.7402; stroke-opacity:1; 
stroke-linecap:round; stroke-linejoin:round;">
<path d="M56200 44195
L56200 44196
" />
<path d="M56003 44392
L56200 44195
" />
</g>
<g style="fill:#000000; fill-opacity:1.0; 
stroke:#000000; stroke-width:80; stroke-opacity:1; 
stroke-linecap:round; stroke-linejoin:round;">
<path d="M58071 44196
L58957 45082
" />
<path d="M61516 45082
L62499 46065
" />
<path d="M56200 44196
L58071 44196
" />
<path d="M58957 45082
L61516 45082
" />
</g>
<g style="fill:#000000; fill-opacity:1.0; 
stroke:#000000; stroke-width:78.7402; stroke-opacity:1; 
stroke-linecap:round; stroke-linejoin:round;">
<path d="M72637 37404
L72736 37502
" />
<path d="M60826 37404
L72637 37404
" />
<path d="M72736 38487
L72933 38683
" />
<path d="M72933 38683
L72933 42620
" />
<path d="M72933 42620
L73031 42719
" />
<path d="M74704 45868
L74606 45967
" />
<path d="M74606 45967
L72539 45967
" />
<path d="M72539 45967
L72440 46065
" />
<path d="M60531 40750
L66633 40750
" />
<path d="M66633 40750
L66929 40455
" />
<path d="M74508 41341
L75000 41341
" />
<path d="M74507 41341
L74508 41341
" />
<path d="M62303 35632
L62303 36223
" />
<path d="M62303 36223
L62303 36223
" />
<path d="M59350 36223
L62303 36223
" />
<path d="M62303 36223
L62893 36223
" />
<path d="M59350 36223
L55610 36223
" />
<path d="M62303 34747
L62303 35632
" />
<path d="M52559 40849
L52657 40947
" />
<path d="M55019 36813
L55610 36223
" />
<path d="M52657 40947
L53740 40947
" />
<path d="M53740 40947
L54035 40652
" />
<path d="M54035 40652
L54035 39372
" />
<path d="M54035 39372
L55118 38290
" />
<path d="M55118 38290
L55118 37699
" />
<path d="M55118 37699
L55019 37601
" />
<path d="M55019 37601
L55019 36813
" />
<path d="M63484 36813
L64173 36813
" />
<path d="M62893 36223
L63484 36813
" />
<path d="M66043 44097
L66043 44097
" />
<path d="M66043 44097
L67559 44097
" />
</g>
<g style="fill:#000000; fill-opacity:1.0; 
stroke:#000000; stroke-width:80; stroke-opacity:1; 
stroke-linecap:round; stroke-linejoin:round;">
<path d="M71457 43685
L70649 43685
" />
<path d="M70649 43685
L70237 44097
" />
<path d="M70237 44097
L67559 44097
" />
</g>
<g style="fill:#000000; fill-opacity:1.0; 
stroke:#000000; stroke-width:118; stroke-opacity:1; 
stroke-linecap:round; stroke-linejoin:round;">
<path d="M48819 52759
L49410 52168
" />
<path d="M50591 52759
L60894 52759
" />
<path d="M49410 52168
L50000 52168
" />
<path d="M45799 52759
L48819 52759
" />
<path d="M50000 52168
L50591 52759
" />
</g>
<g style="fill:#000000; fill-opacity:1.0; 
stroke:#000000; stroke-width:78.7402; stroke-opacity:1; 
stroke-linecap:round; stroke-linejoin:round;">
<path d="M63582 46951
L63287 47246
" />
<path d="M63582 46557
L63582 46951
" />
<path d="M63877 46262
L63582 46557
" />
<path d="M60925 45573
L61318 45573
" />
<path d="M61318 45573
L62992 47246
" />
<path d="M62992 47246
L63287 47246
" />
<path d="M70472 45770
L74311 45770
" />
<path d="M63877 46262
L69980 46262
" />
<path d="M69980 46262
L70472 45770
" />
<path d="M74901 45573
L75196 45869
" />
<path d="M74507 45573
L74901 45573
" />
<path d="M74311 45770
L74507 45573
" />
<path d="M53051 41144
L53838 41144
" />
<path d="M54232 40750
L54232 39471
" />
<path d="M53838 41144
L54232 40750
" />
<path d="M48129 41735
L44881 38487
" />
<path d="M52460 41735
L48129 41735
" />
<path d="M53051 41144
L52460 41735
" />
<path d="M57381 37207
L57381 37109
" />
<path d="M57381 37109
L57185 36912
" />
<path d="M55905 37502
L55905 37798
" />
<path d="M56496 36912
L55905 37502
" />
<path d="M57185 36912
L56496 36912
" />
<path d="M55905 37798
L54232 39471
" />
<path d="M44881 38487
L43798 38487
" />
<path d="M65157 39865
L63582 39865
" />
<path d="M60826 36814
L62204 36814
" />
<path d="M60826 36813
L60826 36814
" />
</g>
<g style="fill:#000000; fill-opacity:1.0; 
stroke:#000000; stroke-width:80; stroke-opacity:1; 
stroke-linecap:round; stroke-linejoin:round;">
<path d="M69783 39865
L69783 40671
" />
</g>
<g style="fill:#000000; fill-opacity:1.0; 
stroke:#000000; stroke-width:78.7402; stroke-opacity:1; 
stroke-linecap:round; stroke-linejoin:round;">
<path d="M64173 45573
L66633 45573
" />
<path d="M66633 45573
L67027 45967
" />
<path d="M61614 44491
L63090 44491
" />
<path d="M63090 44491
L64173 45573
" />
<path d="M67617 47739
L68011 48133
" />
<path d="M67027 47739
L67617 47739
" />
<path d="M66732 47443
L67027 47739
" />
<path d="M68533 48172
L68050 48172
" />
<path d="M68050 48172
L68011 48133
" />
<path d="M60531 40455
L66437 40455
" />
<path d="M66437 40455
L67913 38979
" />
<path d="M67913 38979
L69193 38979
" />
<path d="M57972 36026
L58070 35928
" />
<path d="M57972 36026
L53937 36026
" />
<path d="M52854 37109
L53937 36026
" />
<path d="M49507 37109
L52854 37109
" />
<path d="M57972 45081
L50984 45081
" />
<path d="M53641 48231
L61811 48231
" />
<path d="M53641 47935
L58562 47935
" />
<path d="M53641 47345
L53740 47345
" />
<path d="M56496 47443
L56594 47345
" />
<path d="M53838 47443
L56496 47443
" />
<path d="M53740 47345
L53838 47443
" />
<path d="M58858 47640
L53641 47640
" />
<path d="M50492 40849
L50295 40652
" />
<path d="M52165 40849
L50492 40849
" />
<path d="M53641 47050
L53740 47050
" />
<path d="M56299 47246
L56496 47050
" />
<path d="M53937 47246
L56299 47246
" />
<path d="M53740 47050
L53937 47246
" />
<path d="M56496 47050
L56889 47050
" />
<path d="M59547 36420
L62696 36420
" />
<path d="M62696 36420
L62795 36518
" />
<path d="M56496 36420
L59547 36420
" />
</g>
<g style="fill:#000000; fill-opacity:1.0; 
stroke:#000000; stroke-width:80; stroke-opacity:1; 
stroke-linecap:round; stroke-linejoin:round;">
<path d="M56201 36420
L56496 36420
" />
<path d="M55315 37306
L56201 36420
" />
</g>
<g style="fill:#000000; fill-opacity:1.0; 
stroke:#000000; stroke-width:78.7402; stroke-opacity:1; 
stroke-linecap:round; stroke-linejoin:round;">
<path d="M64960 42620
L65452 42620
" />
<path d="M58563 42719
L64862 42719
" />
<path d="M64862 42719
L64960 42620
" />
<path d="M59154 43408
L59154 43407
" />
<path d="M61023 43113
L61516 43606
" />
<path d="M59448 43113
L61023 43113
" />
<path d="M59154 43407
L59448 43113
" />
</g>
<g style="fill:#000000; fill-opacity:1.0; 
stroke:#000000; stroke-width:80; stroke-opacity:1; 
stroke-linecap:round; stroke-linejoin:round;">
<path d="M63485 43606
L64272 44393
" />
<path d="M63485 43606
L61516 43606
" />
<path d="M64272 44393
L66240 44393
" />
</g>
<g style="fill:#000000; fill-opacity:1.0; 
stroke:#000000; stroke-width:78.7402; stroke-opacity:1; 
stroke-linecap:round; stroke-linejoin:round;">
<path d="M60866 43309
L61339 43782
" />
</g>
<g style="fill:#000000; fill-opacity:1.0; 
stroke:#000000; stroke-width:80; stroke-opacity:1; 
stroke-linecap:round; stroke-linejoin:round;">
<path d="M64566 44983
L71063 44983
" />
<path d="M71260 44786
L71260 44196
" />
<path d="M71063 44983
L71260 44786
" />
<path d="M64566 44983
L63365 43782
" />
<path d="M61339 43782
L63365 43782
" />
</g>
<g style="fill:#000000; fill-opacity:1.0; 
stroke:#000000; stroke-width:78.7402; stroke-opacity:1; 
stroke-linecap:round; stroke-linejoin:round;">
<path d="M59842 43309
L60866 43309
" />
</g>
<g style="fill:#000000; fill-opacity:1.0; 
stroke:#000000; stroke-width:80; stroke-opacity:1; 
stroke-linecap:round; stroke-linejoin:round;">
<path d="M59547 43605
L59842 43309
" />
</g>
<g style="fill:#000000; fill-opacity:1.0; 
stroke:#000000; stroke-width:78.7402; stroke-opacity:1; 
stroke-linecap:round; stroke-linejoin:round;">
<path d="M65059 42916
L66043 42916
" />
<path d="M66535 43408
L68208 43408
" />
<path d="M66043 42916
L66535 43408
" />
<path d="M59054 42916
L65058 42916
" />
<path d="M65058 42916
L65059 42916
" />
</g>
<g style="fill:#000000; fill-opacity:1.0; 
stroke:#000000; stroke-width:80; stroke-opacity:1; 
stroke-linecap:round; stroke-linejoin:round;">
<path d="M58957 43015
L58957 43014
" />
<path d="M58957 43014
L59054 42916
" />
<path d="M60728 42030
L63878 42030
" />
</g>
<g style="fill:#000000; fill-opacity:1.0; 
stroke:#000000; stroke-width:78.7402; stroke-opacity:1; 
stroke-linecap:round; stroke-linejoin:round;">
<path d="M53149 41341
L53937 41341
" />
<path d="M54429 40849
L54429 39569
" />
<path d="M53937 41341
L54429 40849
" />
<path d="M46555 46853
L46555 45475
" />
<path d="M56496 37502
L56791 37502
" />
<path d="M54429 39569
L56496 37502
" />
<path d="M52559 41931
L53149 41341
" />
<path d="M50098 41931
L52559 41931
" />
<path d="M46555 45475
L50098 41931
" />
<path d="M56988 37305
L56791 37502
" />
<path d="M43700 48329
L45078 48329
" />
<path d="M45078 48329
L46555 46853
" />
<path d="M52559 43900
L50295 43900
" />
<path d="M54232 42227
L52559 43900
" />
<path d="M50885 43605
L50393 43605
" />
<path d="M50984 43506
L50885 43605
" />
<path d="M52559 43506
L50984 43506
" />
<path d="M53838 42227
L52559 43506
" />
<path d="M53248 43703
L52755 44195
" />
<path d="M52755 44195
L50196 44195
" />
<path d="M63188 43998
L58759 43998
" />
<path d="M55118 43605
L54822 43900
" />
<path d="M58366 43605
L55118 43605
" />
<path d="M58759 43998
L58366 43605
" />
<path d="M74704 44983
L74507 45180
" />
<path d="M63188 43998
L64370 45180
" />
<path d="M74507 45180
L64370 45180
" />
<path d="M64370 45180
L64370 45180
" />
<path d="M54822 43900
L54822 44097
" />
<path d="M54822 44097
L55019 44294
" />
<path d="M55019 44294
L55216 44294
" />
<path d="M58661 44195
L63090 44195
" />
<path d="M58267 43802
L58661 44195
" />
<path d="M55314 43802
L58267 43802
" />
<path d="M55118 43998
L55314 43802
" />
<path d="M64271 45376
L74310 45376
" />
<path d="M74310 45376
L74311 45377
" />
<path d="M63090 44195
L64271 45376
" />
<path d="M74311 45377
L74704 45377
" />
<path d="M74704 45377
L75098 44983
" />
<path d="M65157 40160
L63582 40160
" />
<path d="M63188 46853
L62893 46853
" />
<path d="M56594 44491
L58070 44491
" />
<path d="M61318 45278
L62893 46853
" />
<path d="M58858 45278
L61318 45278
" />
<path d="M58070 44491
L58858 45278
" />
<path d="M60826 37109
L62204 37109
" />
<path d="M67125 50888
L66535 50298
" />
<path d="M66535 50298
L66535 49805
" />
<path d="M66535 49805
L64622 47892
" />
<path d="M64622 47892
L62838 47892
" />
<path d="M62838 47892
L62696 48034
" />
<path d="M67125 51085
L67125 50888
" />
<path d="M67913 51085
L67125 51085
" />
<path d="M48858 33980
L48858 33998
" />
<path d="M50295 34451
L50688 34057
" />
<path d="M49901 34451
L50295 34451
" />
<path d="M49803 34353
L49901 34451
" />
<path d="M49212 34353
L49803 34353
" />
<path d="M48858 33998
L49212 34353
" />
<path d="M50766 33980
L51142 33980
" />
<path d="M50688 34057
L50766 33980
" />
<path d="M51574 39865
L50787 39865
" />
<path d="M52362 41144
L50787 41144
" />
<path d="M49901 41439
L52362 41439
" />
<path d="M49901 41439
L49803 41341
" />
<path d="M60531 39274
L62204 39274
" />
</g>
<g style="fill:#000000; fill-opacity:1.0; 
stroke:#000000; stroke-width:80; stroke-opacity:1; 
stroke-linecap:round; stroke-linejoin:round;">
<path d="M59351 49806
L52165 49806
" />
<path d="M52165 49806
L52067 49708
" />
<path d="M59449 49708
L59351 49806
" />
</g>
<g style="fill:#000000; fill-opacity:1.0; 
stroke:#000000; stroke-width:78.7402; stroke-opacity:1; 
stroke-linecap:round; stroke-linejoin:round;">
<path d="M49606 44392
L49704 44491
" />
<path d="M53248 44491
L53346 44392
" />
<path d="M49704 44491
L53248 44491
" />
<path d="M53346 44392
L54625 44392
" />
<path d="M56102 44687
L54921 44687
" />
<path d="M54921 44687
L54625 44392
" />
<path d="M56299 44491
L56102 44687
" />
<path d="M60531 39865
L62204 39865
" />
<path d="M52657 49412
L52657 49411
" />
<path d="M51968 49215
L51673 49510
" />
<path d="M52461 49215
L51968 49215
" />
<path d="M52657 49411
L52461 49215
" />
</g>
<g style="fill:#000000; fill-opacity:1.0; 
stroke:#000000; stroke-width:80; stroke-opacity:1; 
stroke-linecap:round; stroke-linejoin:round;">
<path d="M58858 49314
L58760 49412
" />
<path d="M58760 49412
L52657 49412
" />
</g>
<g style="fill:#000000; fill-opacity:1.0; 
stroke:#000000; stroke-width:78.7402; stroke-opacity:1; 
stroke-linecap:round; stroke-linejoin:round;">
<path d="M60531 40160
L62204 40160
" />
<path d="M52559 49018
L51771 49018
" />
<path d="M51771 49018
L51574 49215
" />
</g>
<g style="fill:#000000; fill-opacity:1.0; 
stroke:#000000; stroke-width:80; stroke-opacity:1; 
stroke-linecap:round; stroke-linejoin:round;">
<path d="M58661 49019
L58465 49215
" />
<path d="M52756 49215
L58465 49215
" />
<path d="M52559 49018
L52756 49215
" />
<path d="M62106 37700
L62204 37700
" />
</g>
<g style="fill:#000000; fill-opacity:1.0; 
stroke:#000000; stroke-width:78.7402; stroke-opacity:1; 
stroke-linecap:round; stroke-linejoin:round;">
<path d="M60826 37699
L60827 37700
" />
<path d="M60827 37700
L62106 37700
" />
</g>
<g style="fill:#000000; fill-opacity:1.0; 
stroke:#000000; stroke-width:80; stroke-opacity:1; 
stroke-linecap:round; stroke-linejoin:round;">
<path d="M58858 48822
L58759 48723
" />
<path d="M58759 48723
L58564 48723
" />
<path d="M60925 48822
L58858 48822
" />
<path d="M58564 48723
L58464 48822
" />
</g>
<g style="fill:#000000; fill-opacity:1.0; 
stroke:#000000; stroke-width:78.7402; stroke-opacity:1; 
stroke-linecap:round; stroke-linejoin:round;">
<path d="M53641 48821
L53642 48822
" />
<path d="M53642 48822
L58464 48822
" />
<path d="M60531 39569
L62204 39569
" />
</g>
<g style="fill:#000000; fill-opacity:1.0; 
stroke:#000000; stroke-width:80; stroke-opacity:1; 
stroke-linecap:round; stroke-linejoin:round;">
<path d="M59154 49511
L59056 49609
" />
<path d="M52460 49609
L52362 49511
" />
<path d="M59056 49609
L52460 49609
" />
</g>
<g style="fill:#000000; fill-opacity:1.0; 
stroke:#000000; stroke-width:78.7402; stroke-opacity:1; 
stroke-linecap:round; stroke-linejoin:round;">
<path d="M45610 33980
L45610 33998
" />
<path d="M45610 33998
L46062 34451
" />
<path d="M47422 34451
L47894 33980
" />
<path d="M46062 34451
L47422 34451
" />
</g>
<g style="fill:#000000; fill-opacity:1.0; 
stroke:#000000; stroke-width:197; stroke-opacity:1; 
stroke-linecap:round; stroke-linejoin:round;">
<path d="M43700 47050
L43700 47541
" />
<path d="M43700 47541
L43700 47542
" />
<path d="M68898 40751
L68405 40751
" />
<path d="M68405 40751
L68405 40750
" />
<path d="M69193 38388
L68897 38388
" />
<path d="M75787 45869
L76574 45869
" />
<path d="M76574 45869
L76574 45868
" />
<path d="M68011 48723
L67716 48723
" />
<path d="M67519 48526
L67519 48132
" />
<path d="M67716 48723
L67519 48526
" />
<path d="M68011 48723
L68494 48723
" />
<path d="M68494 48723
L68533 48683
" />
<path d="M66535 51085
L65846 51085
" />
<path d="M69911 49963
L69625 49963
" />
<path d="M69625 49963
L69586 50002
" />
<path d="M72244 51066
L71634 51066
" />
<path d="M71634 51066
L71555 50987
" />
<path d="M75000 51066
L75000 51577
" />
<path d="M74023 50691
L74311 50691
" />
<path d="M74686 51066
L75000 51066
" />
<path d="M74311 50691
L74686 51066
" />
<path d="M61161 34057
L60728 34057
" />
<path d="M64035 34057
L64467 34057
" />
<path d="M64467 34057
L64665 34255
" />
<path d="M43012 40357
L43012 39963
" />
<path d="M43012 39963
L43208 39766
" />
<path d="M43798 39176
L43996 39176
" />
<path d="M43996 39176
L44192 38979
" />
<path d="M75590 41341
L75590 41144
" />
<path d="M75590 41144
L75393 40947
" />
<path d="M74015 43310
L73307 43310
" />
<path d="M74015 43309
L74015 43310
" />
<path d="M61161 34491
L61161 34057
" />
<path d="M61161 34057
L61161 33625
" />
<path d="M68504 46656
L68504 47149
" />
</g>
<g style="fill:#000000; fill-opacity:1.0; 
stroke:#000000; stroke-width:157; stroke-opacity:1; 
stroke-linecap:round; stroke-linejoin:round;">
<path d="M76969 45180
L77362 45573
" />
</g>
<g style="fill:#000000; fill-opacity:1.0; 
stroke:#000000; stroke-width:197; stroke-opacity:1; 
stroke-linecap:round; stroke-linejoin:round;">
<path d="M64035 33625
L64035 34057
" />
<path d="M64035 34057
L64035 34491
" />
<path d="M61417 34747
L61161 34491
" />
</g>
<g style="fill:#000000; fill-opacity:1.0; 
stroke:#000000; stroke-width:157; stroke-opacity:1; 
stroke-linecap:round; stroke-linejoin:round;">
<path d="M77362 45573
L77362 45574
" />
</g>
<g style="fill:#000000; fill-opacity:1.0; 
stroke:#000000; stroke-width:197; stroke-opacity:1; 
stroke-linecap:round; stroke-linejoin:round;">
<path d="M61712 34747
L61417 34747
" />
<path d="M41156 43669
L41156 43381
" />
<path d="M41156 43381
L41084 43309
" />
<path d="M42693 42643
L42693 42668
" />
<path d="M42693 42668
L42811 42786
" />
<path d="M41361 43975
L41361 43874
" />
<path d="M41361 43874
L41156 43669
" />
<path d="M42693 42643
L43186 42150
" />
<path d="M42387 42438
L42488 42438
" />
<path d="M42488 42438
L42693 42643
" />
<path d="M42027 42366
L42315 42366
" />
<path d="M42315 42366
L42387 42438
" />
<path d="M41667 42438
L41955 42438
" />
<path d="M41955 42438
L42027 42366
" />
<path d="M41361 42643
L41462 42643
" />
<path d="M41462 42643
L41667 42438
" />
<path d="M41361 42643
L40868 42150
" />
<path d="M41156 42949
L41156 42848
" />
<path d="M41156 42848
L41361 42643
" />
<path d="M41084 43309
L41084 43021
" />
<path d="M41084 43021
L41156 42949
" />
</g>
<g style="fill:#000000; fill-opacity:1.0; 
stroke:#000000; stroke-width:78.7402; stroke-opacity:1; 
stroke-linecap:round; stroke-linejoin:round;">
<path d="M40387 43309
L41084 43309
" />
<path d="M41667 44180
L41566 44180
" />
<path d="M41566 44180
L41361 43975
" />
<path d="M42027 44252
L41739 44252
" />
<path d="M41739 44252
L41667 44180
" />
<path d="M42387 44180
L42099 44180
" />
<path d="M42099 44180
L42027 44252
" />
<path d="M42693 43975
L42693 43950
" />
<path d="M42693 43950
L42811 43832
" />
<path d="M42693 43975
L42592 43975
" />
<path d="M42592 43975
L42387 44180
" />
<path d="M42693 43975
L43186 44468
" />
<path d="M42027 44252
L42027 44949
" />
<path d="M41361 43975
L40868 44468
" />
</g>
<g style="fill:#000000; fill-opacity:1.0; 
stroke:#000000; stroke-width:197; stroke-opacity:1; 
stroke-linecap:round; stroke-linejoin:round;">
<path d="M42422 40357
L42224 40357
" />
<path d="M42224 40357
L41732 40849
" />
</g>
<g style="fill:#000000; fill-opacity:1.0; 
stroke:#000000; stroke-width:78.7402; stroke-opacity:1; 
stroke-linecap:round; stroke-linejoin:round;">
<path d="M53051 40554
L50688 40554
" />
<path d="M53149 40652
L53051 40554
" />
<path d="M50688 40554
L50590 40455
" />
<path d="M50590 40455
L50590 40258
" />
<path d="M50590 40258
L50393 40061
" />
<path d="M72441 41440
L71753 41440
" />
<path d="M71753 41440
L71653 41340
" />
<path d="M60531 41341
L65551 41341
" />
<path d="M68503 51085
L68503 50564
" />
<path d="M68503 50564
L68503 50563
" />
</g>
<g style="fill:#000000; fill-opacity:1.0; 
stroke:#000000; stroke-width:80; stroke-opacity:1; 
stroke-linecap:round; stroke-linejoin:round;">
<path d="M70237 41697
L70237 42523
" />
<path d="M70649 42935
L70237 42523
" />
<path d="M69961 41421
L70237 41697
" />
<path d="M69783 41421
L68898 41421
" />
<path d="M71457 42935
L70649 42935
" />
<path d="M69783 41421
L69961 41421
" />
</g>
<g style="fill:#000000; fill-opacity:1.0; 
stroke:#000000; stroke-width:78.7402; stroke-opacity:1; 
stroke-linecap:round; stroke-linejoin:round;">
<path d="M68798 49313
L68996 49313
" />
<path d="M69261 49048
L69261 48428
" />
<path d="M68996 49313
L69261 49048
" />
<path d="M68759 49835
L68759 49352
" />
<path d="M68759 49352
L68798 49313
" />
<path d="M70570 50494
L70570 49776
" />
<path d="M70570 49776
L70639 49707
" />
<path d="M42519 38743
L42519 36065
" />
<path d="M42519 38743
L42519 38783
" />
<path d="M42027 39274
L42027 39766
" />
<path d="M42519 38783
L42027 39274
" />
<path d="M43208 39176
L43208 38487
" />
<path d="M42519 38743
L42953 38743
" />
<path d="M42953 38743
L43208 38487
" />
<path d="M42519 50554
L42519 47876
" />
<path d="M42519 47876
L42519 47344
" />
<path d="M42519 47344
L42027 46853
" />
<path d="M43110 48329
L42972 48329
" />
<path d="M42972 48329
L42519 47876
" />
<path d="M43110 47050
L42913 47050
" />
<path d="M42519 47444
L42519 47876
" />
<path d="M42913 47050
L42519 47444
" />
<path d="M69783 38388
L69783 38979
" />
<path d="M71496 38586
L70767 38586
" />
<path d="M70767 38586
L70374 38979
" />
<path d="M74174 38586
L73917 38586
" />
<path d="M71988 38093
L71496 38586
" />
<path d="M73425 38093
L71988 38093
" />
<path d="M73917 38586
L73425 38093
" />
<path d="M70374 38979
L69783 38979
" />
<path d="M69783 38979
L69783 38979
" />
<path d="M75433 42523
L78111 42523
" />
<path d="M75433 42523
L75433 42364
" />
<path d="M75433 42364
L75000 41931
" />
<path d="M75433 42523
L75433 42089
" />
<path d="M75433 42089
L75590 41931
" />
<path d="M74409 43014
L74409 42817
" />
<path d="M74704 42523
L75433 42523
" />
<path d="M74409 42817
L74704 42523
" />
<path d="M74174 46460
L71496 46460
" />
<path d="M75196 46459
L74174 46459
" />
<path d="M74174 46459
L74174 46460
" />
<path d="M75196 46951
L75196 46459
" />
<path d="M75787 46459
L75196 46459
" />
<path d="M70570 51085
L70570 51085
" />
<path d="M72611 51479
L73023 51066
" />
<path d="M70964 51479
L72611 51479
" />
<path d="M70570 51085
L70964 51479
" />
<path d="M69980 50494
L69980 50495
" />
<path d="M69980 50495
L70570 51085
" />
</g>
<g style="fill:#000000; fill-opacity:1.0; 
stroke:#000000; stroke-width:80; stroke-opacity:1; 
stroke-linecap:round; stroke-linejoin:round;">
<path d="M72736 43507
L72736 42405
" />
<path d="M72736 42405
L72441 42110
" />
<path d="M72363 43684
L72559 43684
" />
<path d="M72559 43684
L72736 43507
" />
</g>
<g style="fill:#000000; fill-opacity:1.0; 
stroke:#000000; stroke-width:78.7402; stroke-opacity:1; 
stroke-linecap:round; stroke-linejoin:round;">
<path d="M71850 42423
L71850 42423
" />
<path d="M71850 42423
L72363 42936
" />
<path d="M60531 41046
L65748 41046
" />
<path d="M65748 41046
L66043 41341
" />
<path d="M66043 41341
L66240 41341
" />
<path d="M71456 41833
L71850 41833
" />
<path d="M71358 41735
L71456 41833
" />
</g>
<g style="fill:#000000; fill-opacity:1.0; 
stroke:#000000; stroke-width:59.0551; stroke-opacity:1; 
stroke-linecap:round; stroke-linejoin:round;">
<polyline style="fill-rule:evenodd;"
points="51722,33813
50358,33813
50361,33815
50426,33972
50427,34142
50362,34299
50242,34419
50085,34484
49915,34485
49758,34420
49638,34300
49573,34143
49572,33973
49637,33816
49641,33813
48574,33813
48574,34500
49524,34500
49627,34457
49781,34457
49884,34500
51722,34500
51722,33813
" /> 
</g>
<g style="fill:#000000; fill-opacity:0.0; 
stroke:#000000; stroke-width:100; stroke-opacity:1; 
stroke-linecap:round; stroke-linejoin:round;">
<polyline fill="none;"
points="51722,33813
50358,33813
50361,33815
50426,33972
50427,34142
50362,34299
50242,34419
50085,34484
49915,34485
49758,34420
49638,34300
49573,34143
49572,33973
49637,33816
49641,33813
48574,33813
48574,34500
49524,34500
49627,34457
49781,34457
49884,34500
51722,34500
51722,33813
" /> 
</g>
<g style="fill:#000000; fill-opacity:1.0; 
stroke:#000000; stroke-width:59.0551; stroke-opacity:1; 
stroke-linecap:round; stroke-linejoin:round;">
<polyline style="fill-rule:evenodd;"
points="46593,34454
46510,34420
46390,34300
46325,34143
46324,33973
46389,33816
46393,33813
45129,33813
45129,34500
46548,34500
46593,34454
" /> 
</g>
<g style="fill:#000000; fill-opacity:0.0; 
stroke:#000000; stroke-width:100; stroke-opacity:1; 
stroke-linecap:round; stroke-linejoin:round;">
<polyline fill="none;"
points="46593,34454
46510,34420
46390,34300
46325,34143
46324,33973
46389,33816
46393,33813
45129,33813
45129,34500
46548,34500
46593,34454
" /> 
</g>
<g style="fill:#000000; fill-opacity:1.0; 
stroke:#000000; stroke-width:59.0551; stroke-opacity:1; 
stroke-linecap:round; stroke-linejoin:round;">
<polyline style="fill-rule:evenodd;"
points="48178,33813
47110,33813
47113,33815
47178,33972
47179,34142
47114,34299
47017,34396
47069,34417
47152,34500
48178,34500
48178,33813
" /> 
</g>
<g style="fill:#000000; fill-opacity:0.0; 
stroke:#000000; stroke-width:100; stroke-opacity:1; 
stroke-linecap:round; stroke-linejoin:round;">
<polyline fill="none;"
points="48178,33813
47110,33813
47113,33815
47178,33972
47179,34142
47114,34299
47017,34396
47069,34417
47152,34500
48178,34500
48178,33813
" /> 
</g>
<g style="fill:#000000; fill-opacity:1.0; 
stroke:#000000; stroke-width:59.0551; stroke-opacity:1; 
stroke-linecap:round; stroke-linejoin:round;">
<polyline style="fill-rule:evenodd;"
points="51722,34895
50258,34895
50361,34997
50426,35154
50427,35324
50362,35481
50242,35601
50085,35666
49915,35667
49758,35602
49638,35482
49573,35325
49572,35210
49485,35174
49375,35065
49316,34922
49316,34895
47209,34895
47179,34966
47123,35022
47178,35154
47179,35324
47114,35481
46994,35601
46837,35666
46667,35667
46510,35602
46390,35482
46325,35325
46324,35155
46389,34998
46492,34895
46491,34895
45129,34895
45129,36075
51722,36075
51722,34895
" /> 
</g>
<g style="fill:#000000; fill-opacity:0.0; 
stroke:#000000; stroke-width:100; stroke-opacity:1; 
stroke-linecap:round; stroke-linejoin:round;">
<polyline fill="none;"
points="51722,34895
50258,34895
50361,34997
50426,35154
50427,35324
50362,35481
50242,35601
50085,35666
49915,35667
49758,35602
49638,35482
49573,35325
49572,35210
49485,35174
49375,35065
49316,34922
49316,34895
47209,34895
47179,34966
47123,35022
47178,35154
47179,35324
47114,35481
46994,35601
46837,35666
46667,35667
46510,35602
46390,35482
46325,35325
46324,35155
46389,34998
46492,34895
46491,34895
45129,34895
45129,36075
51722,36075
51722,34895
" /> 
</g>
<g style="fill:#000000; fill-opacity:1.0; 
stroke:#000000; stroke-width:59.0551; stroke-opacity:1; 
stroke-linecap:round; stroke-linejoin:round;">
<polyline style="fill-rule:evenodd;"
points="62013,35244
61953,35184
61915,35092
61915,34992
61915,34482
61765,34420
61645,34300
61580,34143
61579,33973
61644,33816
61648,33812
59301,33812
59301,35933
59350,35933
62013,35933
62013,35632
62013,35244
" /> 
</g>
<g style="fill:#000000; fill-opacity:0.0; 
stroke:#000000; stroke-width:100; stroke-opacity:1; 
stroke-linecap:round; stroke-linejoin:round;">
<polyline fill="none;"
points="62013,35244
61953,35184
61915,35092
61915,34992
61915,34482
61765,34420
61645,34300
61580,34143
61579,33973
61644,33816
61648,33812
59301,33812
59301,35933
59350,35933
62013,35933
62013,35632
62013,35244
" /> 
</g>
<g style="fill:#000000; fill-opacity:1.0; 
stroke:#000000; stroke-width:59.0551; stroke-opacity:1; 
stroke-linecap:round; stroke-linejoin:round;">
<polyline style="fill-rule:evenodd;"
points="66583,33812
63547,33812
63550,33815
63615,33972
63616,34142
63591,34201
63671,34201
63763,34239
63833,34309
63872,34401
63872,34501
63872,34641
64022,34792
66583,34792
66583,33812
" /> 
</g>
<g style="fill:#000000; fill-opacity:0.0; 
stroke:#000000; stroke-width:100; stroke-opacity:1; 
stroke-linecap:round; stroke-linejoin:round;">
<polyline fill="none;"
points="66583,33812
63547,33812
63550,33815
63615,33972
63616,34142
63591,34201
63671,34201
63763,34239
63833,34309
63872,34401
63872,34501
63872,34641
64022,34792
66583,34792
66583,33812
" /> 
</g>
<g style="fill:#FFFFFF; fill-opacity:0.0; 
stroke:#FFFFFF; stroke-width:59.0551; stroke-opacity:1; 
stroke-linecap:round; stroke-linejoin:round;">
</g>
<g style="fill:#FFFFFF; fill-opacity:1.0; 
stroke:#FFFFFF; stroke-width:59.0551; stroke-opacity:1; 
stroke-linecap:round; stroke-linejoin:round;">
<circle cx="50295.3" cy="38487.1" r="68.9724" /> 
<circle cx="45472.4" cy="38093.4" r="68.9724" /> 
<circle cx="46023" cy="35731" r="68.9724" /> 
<circle cx="43996.1" cy="45869" r="68.9724" /> 
<circle cx="47145.7" cy="46656.4" r="68.9724" /> 
<circle cx="75492.1" cy="47542.2" r="68.9724" /> 
<circle cx="76476.4" cy="45180" r="68.9724" /> 
<circle cx="77952.8" cy="45278.4" r="68.9724" /> 
<circle cx="67224.4" cy="47246.9" r="68.9724" /> 
<circle cx="70669.3" cy="48034.3" r="68.9724" /> 
<circle cx="63287.4" cy="50199.7" r="68.9724" /> 
<circle cx="63385.8" cy="49215.4" r="68.9724" /> 
<circle cx="60826.8" cy="51676.1" r="68.9724" /> 
<circle cx="65748" cy="51971.3" r="68.9724" /> 
<circle cx="65846.5" cy="46853.2" r="68.9724" /> 
<circle cx="65255.9" cy="46853.2" r="68.9724" /> 
<circle cx="66437" cy="46853.2" r="68.9724" /> 
<circle cx="64665.4" cy="46853.2" r="68.9724" /> 
<circle cx="41437" cy="51479.2" r="68.9724" /> 
<circle cx="46456.7" cy="43408.3" r="68.9724" /> 
<circle cx="46456.7" cy="42227.3" r="68.9724" /> 
<circle cx="44094.5" cy="40849.3" r="68.9724" /> 
<circle cx="74212.6" cy="40750.9" r="68.9724" /> 
<circle cx="41535.4" cy="35239.1" r="68.9724" /> 
<circle cx="40944.9" cy="39766.6" r="68.9724" /> 
<circle cx="70866.1" cy="39569.5" r="68.9724" /> 
<circle cx="51476.4" cy="51577.6" r="68.9724" /> 
<circle cx="56299.2" cy="46853.2" r="68.9724" /> 
<circle cx="40846.5" cy="46853.2" r="68.9724" /> 
<circle cx="73425" cy="47345" r="68.9724" /> 
<circle cx="63385.8" cy="35337.5" r="68.9724" /> 
<circle cx="53346.5" cy="38487.1" r="68.9724" /> 
<circle cx="50787.4" cy="39077.6" r="68.9724" /> 
<circle cx="54822.8" cy="38191.8" r="68.9724" /> 
<circle cx="46850.4" cy="34746.9" r="68.9724" /> 
<circle cx="54822.8" cy="43113.1" r="68.9724" /> 
<circle cx="58759.8" cy="37798.1" r="68.9724" /> 
<circle cx="60039.4" cy="39077.6" r="68.9724" /> 
<circle cx="65255.9" cy="48034.3" r="68.9724" /> 
<circle cx="59252" cy="42325.7" r="68.9724" /> 
<circle cx="75885.8" cy="34845.4" r="68.9724" /> 
<circle cx="57775.6" cy="38782.4" r="68.9724" /> 
<circle cx="53937" cy="38683.9" r="68.9724" /> 
<circle cx="78149.6" cy="46754.8" r="68.9724" /> 
<circle cx="76968.5" cy="41735.1" r="68.9724" /> 
<circle cx="67815" cy="49313.9" r="68.9724" /> 
<circle cx="62992.1" cy="48329.6" r="68.9724" /> 
<circle cx="51181.1" cy="50101.3" r="68.9724" /> 
<circle cx="49114" cy="50218" r="68.9724" /> 
<circle cx="49114" cy="48723" r="68.9724" /> 
<circle cx="53740.2" cy="44687.9" r="29.5276" /> 
<circle cx="50000" cy="44884.7" r="29.5276" /> 
<circle cx="50000" cy="46164.3" r="29.5276" /> 
<circle cx="63189" cy="50790.2" r="29.5276" /> 
<circle cx="51968.5" cy="50396.5" r="29.5276" /> 
<circle cx="50492.1" cy="50495.2" r="29.5276" /> 
<circle cx="48327" cy="48330" r="29.5276" /> 
<circle cx="52460.6" cy="42817.8" r="29.5276" /> 
<circle cx="52066.9" cy="46164.3" r="29.5276" /> 
<circle cx="53248" cy="42030.4" r="29.5276" /> 
<circle cx="50689" cy="42227.2" r="29.5276" /> 
<circle cx="53248" cy="41636.7" r="29.5276" /> 
<circle cx="62696.9" cy="48624.9" r="29.5276" /> 
<circle cx="62893.7" cy="50495" r="29.5276" /> 
<circle cx="53641.7" cy="48526.5" r="29.5276" /> 
<circle cx="50787.4" cy="43113.1" r="29.5276" /> 
<circle cx="50787.4" cy="45475.3" r="29.5276" /> 
<circle cx="74015.7" cy="49904.4" r="29.5276" /> 
<circle cx="74015.7" cy="51479.2" r="29.5276" /> 
<circle cx="53248" cy="42424.1" r="29.5276" /> 
<circle cx="55708.7" cy="44195.7" r="29.5276" /> 
<circle cx="62499.6" cy="45672.6" r="29.5276" /> 
<circle cx="56003.9" cy="44392.6" r="29.5276" /> 
<circle cx="62499.9" cy="46065.9" r="29.5276" /> 
<circle cx="72736.2" cy="37502.8" r="29.5276" /> 
<circle cx="72736.2" cy="38487.1" r="29.5276" /> 
<circle cx="73031.5" cy="42719.4" r="29.5276" /> 
<circle cx="74704.7" cy="45869" r="29.5276" /> 
<circle cx="72440.9" cy="46065.8" r="29.5276" /> 
<circle cx="60826.8" cy="37404.4" r="29.5276" /> 
<circle cx="66929.1" cy="40455.6" r="29.5276" /> 
<circle cx="74507.9" cy="41341.4" r="29.5276" /> 
<circle cx="60531.5" cy="40750.9" r="29.5276" /> 
<circle cx="52559.1" cy="40849.3" r="29.5276" /> 
<circle cx="66043.3" cy="44097.3" r="29.5276" /> 
<circle cx="64173.2" cy="36813.9" r="29.5276" /> 
<circle cx="60925.2" cy="45573.7" r="29.5276" /> 
<circle cx="57381.9" cy="37207.6" r="29.5276" /> 
<circle cx="63582.7" cy="39865" r="29.5276" /> 
<circle cx="65157.5" cy="39865" r="29.5276" /> 
<circle cx="62204.7" cy="36814" r="29.5276" /> 
<circle cx="60826.8" cy="36813.9" r="29.5276" /> 
<circle cx="69783" cy="39865" r="29.5276" /> 
<circle cx="67027.6" cy="45967.4" r="29.5276" /> 
<circle cx="61614.2" cy="44491" r="29.5276" /> 
<circle cx="66732.3" cy="47443.8" r="29.5276" /> 
<circle cx="60531.5" cy="40455.6" r="29.5276" /> 
<circle cx="58070.9" cy="35928" r="29.5276" /> 
<circle cx="49507.9" cy="37109.1" r="29.5276" /> 
<circle cx="50984.3" cy="45081.6" r="29.5276" /> 
<circle cx="57972.4" cy="45081.6" r="29.5276" /> 
<circle cx="61811" cy="48231.2" r="29.5276" /> 
<circle cx="53641.7" cy="48231.2" r="29.5276" /> 
<circle cx="58563" cy="47935.9" r="29.5276" /> 
<circle cx="53641.7" cy="47935.9" r="29.5276" /> 
<circle cx="56594.5" cy="47345.4" r="29.5276" /> 
<circle cx="53641.7" cy="47345.4" r="29.5276" /> 
<circle cx="53641.7" cy="47640.6" r="29.5276" /> 
<circle cx="58858.3" cy="47640.6" r="29.5276" /> 
<circle cx="50295.3" cy="40652.4" r="29.5276" /> 
<circle cx="52165.4" cy="40849.3" r="29.5276" /> 
<circle cx="56889.8" cy="47050.1" r="29.5276" /> 
<circle cx="53641.7" cy="47050.1" r="29.5276" /> 
<circle cx="62795.3" cy="36518.6" r="29.5276" /> 
<circle cx="55315" cy="37306" r="29.5276" /> 
<circle cx="65452.8" cy="42620.9" r="29.5276" /> 
<circle cx="58563" cy="42719" r="29.5276" /> 
<circle cx="66240" cy="44393" r="29.5276" /> 
<circle cx="59154" cy="43408" r="29.5276" /> 
<circle cx="71260" cy="44196" r="29.5276" /> 
<circle cx="59547" cy="43605" r="29.5276" /> 
<circle cx="68208.7" cy="43408.3" r="29.5276" /> 
<circle cx="58957" cy="43015" r="29.5276" /> 
<circle cx="60728" cy="42030" r="29.5276" /> 
<circle cx="63878" cy="42030" r="29.5276" /> 
<circle cx="56988.2" cy="37306" r="29.5276" /> 
<circle cx="50295.3" cy="43900.5" r="29.5276" /> 
<circle cx="54232.3" cy="42227.2" r="29.5276" /> 
<circle cx="50393.7" cy="43605.2" r="29.5276" /> 
<circle cx="53838.6" cy="42227.2" r="29.5276" /> 
<circle cx="50196.9" cy="44195.7" r="29.5276" /> 
<circle cx="53248" cy="43703.6" r="29.5276" /> 
<circle cx="74704.7" cy="44983.1" r="29.5276" /> 
<circle cx="55216.5" cy="44294.2" r="29.5276" /> 
<circle cx="55118.1" cy="43998.9" r="29.5276" /> 
<circle cx="75098.4" cy="44983.1" r="29.5276" /> 
<circle cx="63582.7" cy="40160.3" r="29.5276" /> 
<circle cx="65157.5" cy="40160.3" r="29.5276" /> 
<circle cx="63189" cy="46853.2" r="29.5276" /> 
<circle cx="56594.5" cy="44491" r="29.5276" /> 
<circle cx="62204.7" cy="37109" r="29.5276" /> 
<circle cx="60826" cy="37109" r="29.5276" /> 
<circle cx="62696.9" cy="48034.3" r="29.5276" /> 
<circle cx="50689" cy="34058" r="29.5276" /> 
<circle cx="50787.4" cy="39865" r="29.5276" /> 
<circle cx="51574.8" cy="39865" r="29.5276" /> 
<circle cx="50787.4" cy="41144.6" r="29.5276" /> 
<circle cx="52362.2" cy="41144.6" r="29.5276" /> 
<circle cx="52362.2" cy="41439.8" r="29.5276" /> 
<circle cx="49803.1" cy="41341.4" r="29.5276" /> 
<circle cx="62204.7" cy="39274.5" r="29.5276" /> 
<circle cx="60531.5" cy="39274.5" r="29.5276" /> 
<circle cx="52067" cy="49708" r="29.5276" /> 
<circle cx="59449" cy="49708" r="29.5276" /> 
<circle cx="56299.2" cy="44491" r="29.5276" /> 
<circle cx="49606.3" cy="44392.6" r="29.5276" /> 
<circle cx="62204.7" cy="39865" r="29.5276" /> 
<circle cx="60531.5" cy="39865" r="29.5276" /> 
<circle cx="51673.2" cy="49510.7" r="29.5276" /> 
<circle cx="58858" cy="49314" r="29.5276" /> 
<circle cx="62204.7" cy="40160.3" r="29.5276" /> 
<circle cx="60531.5" cy="40160.3" r="29.5276" /> 
<circle cx="51574.8" cy="49215.4" r="29.5276" /> 
<circle cx="58661" cy="49019" r="29.5276" /> 
<circle cx="60925" cy="48822" r="29.5276" /> 
<circle cx="60826.8" cy="37699.7" r="29.5276" /> 
<circle cx="62204.7" cy="37700" r="29.5276" /> 
<circle cx="53641.7" cy="48821.7" r="29.5276" /> 
<circle cx="62204.7" cy="39569.8" r="29.5276" /> 
<circle cx="60531.5" cy="39569.8" r="29.5276" /> 
<circle cx="52362" cy="49511" r="29.5276" /> 
<circle cx="59154" cy="49511" r="29.5276" /> 
<circle cx="46063" cy="34451.7" r="29.5276" /> 
<circle cx="49704.7" cy="34845.4" r="68.9724" /> 
<circle cx="52165.4" cy="34353.2" r="68.9724" /> 
<circle cx="51279.5" cy="38487.1" r="68.9724" /> 
<circle cx="47933.1" cy="38979.2" r="68.9724" /> 
<circle cx="47933.1" cy="39569.8" r="68.9724" /> 
<circle cx="47933.1" cy="40160.3" r="68.9724" /> 
<circle cx="47933.1" cy="40750.9" r="68.9724" /> 
<circle cx="55216.5" cy="43211.5" r="68.9724" /> 
<circle cx="48326.8" cy="41046.1" r="68.9724" /> 
<circle cx="48917.3" cy="44983.1" r="68.9724" /> 
<circle cx="46063" cy="38093.4" r="68.9724" /> 
<circle cx="45964.6" cy="39077.6" r="68.9724" /> 
<circle cx="53543.3" cy="37502.8" r="68.9724" /> 
<circle cx="63681.1" cy="45573.7" r="68.9724" /> 
<circle cx="43700.8" cy="47542.2" r="68.9724" /> 
<circle cx="68405.5" cy="40750.9" r="68.9724" /> 
<circle cx="68897.6" cy="38388.7" r="68.9724" /> 
<circle cx="61023.6" cy="38093.4" r="68.9724" /> 
<circle cx="59645.7" cy="39077.6" r="68.9724" /> 
<circle cx="44291.3" cy="47345.4" r="68.9724" /> 
<circle cx="43110.2" cy="47542.2" r="68.9724" /> 
<circle cx="43110.2" cy="45475.3" r="68.9724" /> 
<circle cx="47145.7" cy="46065.8" r="68.9724" /> 
<circle cx="76574.8" cy="45869" r="68.9724" /> 
<circle cx="67519.7" cy="48132.8" r="68.9724" /> 
<circle cx="65846.5" cy="51085.5" r="68.9724" /> 
<circle cx="69586.6" cy="50002.8" r="68.9724" /> 
<circle cx="71555.1" cy="50987.1" r="68.9724" /> 
<circle cx="75000" cy="51577.6" r="68.9724" /> 
<circle cx="67224.4" cy="50495" r="68.9724" /> 
<circle cx="69488.2" cy="49412.3" r="68.9724" /> 
<circle cx="67322.8" cy="49412.3" r="68.9724" /> 
<circle cx="65649.6" cy="48329.6" r="68.9724" /> 
<circle cx="63385.8" cy="48329.6" r="68.9724" /> 
<circle cx="65059.1" cy="49412.3" r="68.9724" /> 
<circle cx="64960.6" cy="50495" r="68.9724" /> 
<circle cx="62401.6" cy="51577.6" r="68.9724" /> 
<circle cx="60728.3" cy="34058" r="68.9724" /> 
<circle cx="64665" cy="34255" r="68.9724" /> 
<circle cx="43208.7" cy="39766.6" r="68.9724" /> 
<circle cx="47342.5" cy="44097.3" r="68.9724" /> 
<circle cx="61712.6" cy="42325.7" r="68.9724" /> 
<circle cx="44192.9" cy="38979.2" r="68.9724" /> 
<circle cx="57185" cy="38782.4" r="68.9724" /> 
<circle cx="59940.9" cy="37798.1" r="68.9724" /> 
<circle cx="53543.3" cy="39077.6" r="68.9724" /> 
<circle cx="51673.2" cy="39077.6" r="68.9724" /> 
<circle cx="75393.7" cy="40947.7" r="68.9724" /> 
<circle cx="60236.2" cy="51676.1" r="68.9724" /> 
<circle cx="59448.8" cy="52168.2" r="68.9724" /> 
<circle cx="55708.7" cy="52168.2" r="68.9724" /> 
<circle cx="55118.1" cy="52168.2" r="68.9724" /> 
<circle cx="54527.6" cy="52168.2" r="68.9724" /> 
<circle cx="53937" cy="52168.2" r="68.9724" /> 
<circle cx="53346.5" cy="52168.2" r="68.9724" /> 
<circle cx="53740.2" cy="43113.1" r="68.9724" /> 
<circle cx="51476.4" cy="51085.5" r="68.9724" /> 
<circle cx="74015.7" cy="43309.9" r="68.9724" /> 
<circle cx="49901.6" cy="48231.2" r="68.9724" /> 
<circle cx="51771.7" cy="37502.8" r="68.9724" /> 
<circle cx="56200.8" cy="46459.5" r="68.9724" /> 
<circle cx="53641.7" cy="46361.1" r="68.9724" /> 
<circle cx="58366.1" cy="34353.2" r="68.9724" /> 
<circle cx="54232.3" cy="34746.9" r="68.9724" /> 
<circle cx="63681" cy="37897" r="68.9724" /> 
<circle cx="70177" cy="47149" r="68.9724" /> 
<circle cx="75000" cy="34550" r="68.9724" /> 
<circle cx="75689" cy="36814" r="68.9724" /> 
<circle cx="60630" cy="47149" r="68.9724" /> 
<circle cx="77362" cy="45574" r="68.9724" /> 
<circle cx="76300" cy="39273" r="68.9724" /> 
<circle cx="68504" cy="46656" r="68.9724" /> 
<circle cx="50591" cy="50987" r="68.9724" /> 
<circle cx="68504" cy="47149" r="68.9724" /> 
<circle cx="59547" cy="41834" r="68.9724" /> 
<circle cx="43799" cy="42129" r="68.9724" /> 
<circle cx="45374" cy="42818" r="68.9724" /> 
<circle cx="76969" cy="45180" r="68.9724" /> 
<circle cx="41141.7" cy="44589.4" r="68.9724" /> 
<circle cx="42126" cy="44491" r="68.9724" /> 
<circle cx="42126" cy="41735" r="68.9724" /> 
<circle cx="44389.8" cy="34451.7" r="68.9724" /> 
<circle cx="45177.2" cy="52266.6" r="68.9724" /> 
<circle cx="39961" cy="39176" r="68.9724" /> 
<circle cx="40255.9" cy="42620.9" r="68.9724" /> 
<circle cx="41732.3" cy="40849.3" r="68.9724" /> 
<circle cx="44094" cy="52562" r="68.9724" /> 
<circle cx="43701" cy="36617" r="68.9724" /> 
<circle cx="43208" cy="43605" r="68.9724" /> 
<circle cx="53149.6" cy="40652.4" r="29.5276" /> 
<circle cx="50393.7" cy="40061.9" r="29.5276" /> 
<circle cx="71654" cy="41341" r="29.5276" /> 
<circle cx="65551.2" cy="41341.4" r="29.5276" /> 
<circle cx="60531.5" cy="41341.4" r="29.5276" /> 
<circle cx="60531.5" cy="41046.1" r="29.5276" /> 
<circle cx="71358.3" cy="41735.1" r="29.5276" /> 
<circle cx="66240.2" cy="41341.4" r="29.5276" /> 
<circle cx="60894" cy="52759" r="127.972" /> 
<circle cx="64831" cy="52759" r="127.972" /> 
<circle cx="49736" cy="52759" r="127.972" /> 
<circle cx="45799" cy="52759" r="127.972" /> 
<circle cx="64959" cy="43999" r="167.472" /> 
<circle cx="73228" cy="43999" r="270.472" /> 
<circle cx="67185" cy="52267" r="170.472" /> 
<circle cx="68185" cy="52267" r="170.472" /> 
<circle cx="69185" cy="52267" r="170.472" /> 
<circle cx="70185" cy="52267" r="170.472" /> 
<circle cx="71185" cy="52267" r="170.472" /> 
<circle cx="72185" cy="52267" r="170.472" /> 
<circle cx="40256" cy="37306" r="170.472" /> 
<circle cx="40256" cy="35928" r="170.472" /> 
<circle cx="40256" cy="50692" r="170.472" /> 
<circle cx="40256" cy="49314" r="170.472" /> 
<circle cx="62007" cy="34058" r="147.472" /> 
<circle cx="63189" cy="34058" r="147.472" /> 
<circle cx="76378" cy="37503" r="147.472" /> 
<circle cx="77560" cy="37503" r="147.472" /> 
<circle cx="50000" cy="35240" r="147.472" /> 
<circle cx="50000" cy="34058" r="147.472" /> 
<circle cx="46752" cy="35240" r="147.472" /> 
<circle cx="46752" cy="34058" r="147.472" /> 
<circle cx="75885.8" cy="48428.3" r="147.472" /> 
<circle cx="75885.8" cy="49412.3" r="147.472" /> 
<circle cx="75885.8" cy="50396.3" r="147.472" /> 
</g> 
</svg>
