<?xml version="1.0" standalone="no"?>
 <!DOCTYPE svg PUBLIC "-//W3C//DTD SVG 1.1//EN" 
 "http://www.w3.org/Graphics/SVG/1.1/DTD/svg11.dtd"> 
<svg xmlns="http://www.w3.org/2000/svg" version="1.1" 
    width="29.7002cm" height="21.0007cm" viewBox="0 0 116930 82680 ">
<title>SVG Picture created as oggbox-B_Mask.svg date 2013/08/02 22:02:59 </title>
  <desc>Picture generated by PCBNEW </desc>
<g style="fill:#000000; fill-opacity:1;stroke:#000000; stroke-opacity:1;
stroke-linecap:round; stroke-linejoin:round; "
 transform="translate(0 0) scale(1 1)">
</g>
<g style="fill:#000000; fill-opacity:0.0; 
stroke:#000000; stroke-width:150; stroke-opacity:1; 
stroke-linecap:round; stroke-linejoin:round;">
<path d="M78739 50200
L78740 50200
" />
<path d="M75787 53152
L78739 50200
" />
<path d="M40354 53152
L39370 52168
" />
<path d="M75787 53152
L40354 53152
" />
<path d="M75787 33467
L78740 36420
" />
<path d="M39370 34451
L39370 34452
" />
<path d="M40354 33467
L39370 34451
" />
<path d="M75787 33467
L40354 33467
" />
<path d="M39370 52168
L39370 34452
" />
<path d="M78740 50200
L78740 36420
" />
</g>
<g style="fill:#000000; fill-opacity:0.0; 
stroke:#000000; stroke-width:59.0551; stroke-opacity:1; 
stroke-linecap:round; stroke-linejoin:round;">
</g>
<g style="fill:#000000; fill-opacity:1.0; 
stroke:#000000; stroke-width:59.0551; stroke-opacity:1; 
stroke-linecap:round; stroke-linejoin:round;">
<circle cx="60894" cy="52759" r="370.472" /> 
<circle cx="64831" cy="52759" r="370.472" /> 
<circle cx="49736" cy="52759" r="370.472" /> 
<circle cx="45799" cy="52759" r="370.472" /> 
<circle cx="64959" cy="43999" r="267.472" /> 
<circle cx="73228" cy="43999" r="370.472" /> 
<polyline style="fill-rule:evenodd;"
points="74244,51237
74244,50896
73803,50896
73803,51237
74244,51237
" /> 
<polyline style="fill-rule:evenodd;"
points="74244,50487
74244,50146
73803,50146
73803,50487
74244,50487
" /> 
<polyline style="fill-rule:evenodd;"
points="73244,51237
73244,50896
72803,50896
72803,51237
73244,51237
" /> 
<polyline style="fill-rule:evenodd;"
points="74244,50862
74244,50521
73803,50521
73803,50862
74244,50862
" /> 
<polyline style="fill-rule:evenodd;"
points="73244,50487
73244,50146
72803,50146
72803,50487
73244,50487
" /> 
<polyline style="fill-rule:evenodd;"
points="73572,43099
73041,43099
73041,43520
73572,43520
73572,43099
" /> 
<polyline style="fill-rule:evenodd;"
points="72628,42725
72097,42725
72097,43146
72628,43146
72628,42725
" /> 
<polyline style="fill-rule:evenodd;"
points="72628,43473
72097,43473
72097,43894
72628,43894
72628,43473
" /> 
<polyline style="fill-rule:evenodd;"
points="75345,50071
74654,50071
74654,50562
75345,50562
75345,50071
" /> 
<polyline style="fill-rule:evenodd;"
points="75345,50821
74654,50821
74654,51312
75345,51312
75345,50821
" /> 
<polyline style="fill-rule:evenodd;"
points="72589,50071
71898,50071
71898,50562
72589,50562
72589,50071
" /> 
<polyline style="fill-rule:evenodd;"
points="72589,50821
71898,50821
71898,51312
72589,51312
72589,50821
" /> 
<polyline style="fill-rule:evenodd;"
points="66764,51846
66764,52687
67605,52687
67605,51846
66764,51846
" /> 
<circle cx="68185" cy="52267" r="420.472" /> 
<circle cx="69185" cy="52267" r="420.472" /> 
<circle cx="70185" cy="52267" r="420.472" /> 
<circle cx="71185" cy="52267" r="420.472" /> 
<circle cx="72185" cy="52267" r="420.472" /> 
<polyline style="fill-rule:evenodd;"
points="42864,35364
42173,35364
42173,36765
42864,36765
42864,35364
" /> 
<polyline style="fill-rule:evenodd;"
points="42864,38042
42173,38042
42173,39443
42864,39443
42864,38042
" /> 
<polyline style="fill-rule:evenodd;"
points="41290,38042
40599,38042
40599,39443
41290,39443
41290,38042
" /> 
<polyline style="fill-rule:evenodd;"
points="41290,35364
40599,35364
40599,36765
41290,36765
41290,35364
" /> 
<polyline style="fill-rule:evenodd;"
points="66858,42177
66858,42868
68259,42868
68259,42177
66858,42177
" /> 
<polyline style="fill-rule:evenodd;"
points="69536,42177
69536,42868
70937,42868
70937,42177
69536,42177
" /> 
<polyline style="fill-rule:evenodd;"
points="69536,43751
69536,44442
70937,44442
70937,43751
69536,43751
" /> 
<polyline style="fill-rule:evenodd;"
points="66858,43751
66858,44442
68259,44442
68259,43751
66858,43751
" /> 
<polyline style="fill-rule:evenodd;"
points="74732,42177
74732,42868
76133,42868
76133,42177
74732,42177
" /> 
<polyline style="fill-rule:evenodd;"
points="77410,42177
77410,42868
78811,42868
78811,42177
77410,42177
" /> 
<polyline style="fill-rule:evenodd;"
points="77410,43751
77410,44442
78811,44442
78811,43751
77410,43751
" /> 
<polyline style="fill-rule:evenodd;"
points="74732,43751
74732,44442
76133,44442
76133,43751
74732,43751
" /> 
<polyline style="fill-rule:evenodd;"
points="70795,46114
70795,46805
72196,46805
72196,46114
70795,46114
" /> 
<polyline style="fill-rule:evenodd;"
points="73473,46114
73473,46805
74874,46805
74874,46114
73473,46114
" /> 
<polyline style="fill-rule:evenodd;"
points="73473,47688
73473,48379
74874,48379
74874,47688
73473,47688
" /> 
<polyline style="fill-rule:evenodd;"
points="70795,47688
70795,48379
72196,48379
72196,47688
70795,47688
" /> 
<polyline style="fill-rule:evenodd;"
points="70795,38240
70795,38931
72196,38931
72196,38240
70795,38240
" /> 
<polyline style="fill-rule:evenodd;"
points="73473,38240
73473,38931
74874,38931
74874,38240
73473,38240
" /> 
<polyline style="fill-rule:evenodd;"
points="73473,39814
73473,40505
74874,40505
74874,39814
73473,39814
" /> 
<polyline style="fill-rule:evenodd;"
points="70795,39814
70795,40505
72196,40505
72196,39814
70795,39814
" /> 
<polyline style="fill-rule:evenodd;"
points="42864,47175
42173,47175
42173,48576
42864,48576
42864,47175
" /> 
<polyline style="fill-rule:evenodd;"
points="42864,49853
42173,49853
42173,51254
42864,51254
42864,49853
" /> 
<polyline style="fill-rule:evenodd;"
points="41290,49853
40599,49853
40599,51254
41290,51254
41290,49853
" /> 
<polyline style="fill-rule:evenodd;"
points="41290,47175
40599,47175
40599,48576
41290,48576
41290,47175
" /> 
<circle cx="40256" cy="37306" r="270.472" /> 
<circle cx="40256" cy="35928" r="270.472" /> 
<circle cx="40256" cy="50692" r="270.472" /> 
<circle cx="40256" cy="49314" r="270.472" /> 
<circle cx="62007" cy="34058" r="247.472" /> 
<circle cx="63189" cy="34058" r="247.472" /> 
<polyline style="fill-rule:evenodd;"
points="64302,33852
64302,33397
63767,33397
63767,33852
64302,33852
" /> 
<polyline style="fill-rule:evenodd;"
points="64302,34718
64302,34263
63767,34263
63767,34718
64302,34718
" /> 
<polyline style="fill-rule:evenodd;"
points="61428,34718
61428,34263
60893,34263
60893,34718
61428,34718
" /> 
<polyline style="fill-rule:evenodd;"
points="61428,33852
61428,33397
60893,33397
60893,33852
61428,33852
" /> 
<polyline style="fill-rule:evenodd;"
points="63692,35112
63692,34381
63275,34381
63275,35112
63692,35112
" /> 
<polyline style="fill-rule:evenodd;"
points="62511,35112
62511,34381
62094,34381
62094,35112
62511,35112
" /> 
<polyline style="fill-rule:evenodd;"
points="61920,35112
61920,34381
61503,34381
61503,35112
61920,35112
" /> 
<circle cx="76378" cy="37503" r="151.472" /> 
<circle cx="77560" cy="37503" r="151.472" /> 
<polyline style="fill-rule:evenodd;"
points="48492,35663
49223,35663
49223,34972
48492,34972
48492,35663
" /> 
<polyline style="fill-rule:evenodd;"
points="48492,34325
49223,34325
49223,33634
48492,33634
48492,34325
" /> 
<polyline style="fill-rule:evenodd;"
points="50776,35663
51507,35663
51507,34972
50776,34972
50776,35663
" /> 
<polyline style="fill-rule:evenodd;"
points="50776,34325
51507,34325
51507,33634
50776,33634
50776,34325
" /> 
<circle cx="50000" cy="35240" r="151.472" /> 
<circle cx="50000" cy="34058" r="151.472" /> 
<polyline style="fill-rule:evenodd;"
points="45244,35663
45975,35663
45975,34972
45244,34972
45244,35663
" /> 
<polyline style="fill-rule:evenodd;"
points="45244,34325
45975,34325
45975,33634
45244,33634
45244,34325
" /> 
<polyline style="fill-rule:evenodd;"
points="47528,35663
48259,35663
48259,34972
47528,34972
47528,35663
" /> 
<polyline style="fill-rule:evenodd;"
points="47528,34325
48259,34325
48259,33634
47528,33634
47528,34325
" /> 
<circle cx="46752" cy="35240" r="151.472" /> 
<circle cx="46752" cy="34058" r="151.472" /> 
<polyline style="fill-rule:evenodd;"
points="41248,39519
41248,40014
41625,40014
41625,39519
41248,39519
" /> 
<polyline style="fill-rule:evenodd;"
points="41838,39519
41838,40014
42215,40014
42215,39519
41838,39519
" /> 
<polyline style="fill-rule:evenodd;"
points="71209,43793
71704,43793
71704,43416
71209,43416
71209,43793
" /> 
<polyline style="fill-rule:evenodd;"
points="71209,43203
71704,43203
71704,42826
71209,42826
71209,43203
" /> 
<polyline style="fill-rule:evenodd;"
points="74161,43793
74656,43793
74656,43416
74161,43416
74161,43793
" /> 
<polyline style="fill-rule:evenodd;"
points="74161,43203
74656,43203
74656,42826
74161,42826
74161,43203
" /> 
<polyline style="fill-rule:evenodd;"
points="74949,47730
75444,47730
75444,47353
74949,47353
74949,47730
" /> 
<polyline style="fill-rule:evenodd;"
points="74949,47140
75444,47140
75444,46763
74949,46763
74949,47140
" /> 
<polyline style="fill-rule:evenodd;"
points="70126,39757
70621,39757
70621,39381
70126,39381
70126,39757
" /> 
<polyline style="fill-rule:evenodd;"
points="70126,39167
70621,39167
70621,38791
70126,38791
70126,39167
" /> 
<polyline style="fill-rule:evenodd;"
points="41248,46605
41248,47100
41625,47100
41625,46605
41248,46605
" /> 
<polyline style="fill-rule:evenodd;"
points="41838,46605
41838,47100
42215,47100
42215,46605
41838,46605
" /> 
<polyline style="fill-rule:evenodd;"
points="76251,48062
75519,48062
75519,48794
76251,48794
76251,48062
" /> 
<circle cx="75885.8" cy="49412.3" r="365.972" /> 
<circle cx="75885.8" cy="50396.3" r="365.972" /> 
<polyline style="fill-rule:evenodd;"
points="70818,49896
70818,49518
70461,49518
70461,49896
70818,49896
" /> 
<polyline style="fill-rule:evenodd;"
points="70090,50152
70090,49774
69732,49774
69732,50152
70090,50152
" /> 
<polyline style="fill-rule:evenodd;"
points="70090,49640
70090,49263
69732,49263
69732,49640
70090,49640
" /> 
<polyline style="fill-rule:evenodd;"
points="69440,48616
69440,48239
69083,48239
69083,48616
69440,48616
" /> 
<polyline style="fill-rule:evenodd;"
points="68712,48872
68712,48495
68354,48495
68354,48872
68712,48872
" /> 
<polyline style="fill-rule:evenodd;"
points="68712,48360
68712,47983
68354,47983
68354,48360
68712,48360
" /> 
<polyline style="fill-rule:evenodd;"
points="68315,50742
68692,50742
68692,50385
68315,50385
68315,50742
" /> 
<polyline style="fill-rule:evenodd;"
points="68059,50014
68436,50014
68436,49656
68059,49656
68059,50014
" /> 
<polyline style="fill-rule:evenodd;"
points="68571,50014
68948,50014
68948,49656
68571,49656
68571,50014
" /> 
<polyline style="fill-rule:evenodd;"
points="72688,41251
72193,41251
72193,41628
72688,41628
72688,41251
" /> 
<polyline style="fill-rule:evenodd;"
points="72688,41841
72193,41841
72193,42218
72688,42218
72688,41841
" /> 
<polyline style="fill-rule:evenodd;"
points="72097,41645
71602,41645
71602,42022
72097,42022
72097,41645
" /> 
<polyline style="fill-rule:evenodd;"
points="72097,42235
71602,42235
71602,42612
72097,42612
72097,42235
" /> 
<polyline style="fill-rule:evenodd;"
points="68692,51332
68692,50838
68315,50838
68315,51332
68692,51332
" /> 
<polyline style="fill-rule:evenodd;"
points="68102,51332
68102,50838
67725,50838
67725,51332
68102,51332
" /> 
<polyline style="fill-rule:evenodd;"
points="67314,51332
67314,50838
66937,50838
66937,51332
67314,51332
" /> 
<polyline style="fill-rule:evenodd;"
points="66724,51332
66724,50838
66347,50838
66347,51332
66724,51332
" /> 
<polyline style="fill-rule:evenodd;"
points="43987,38734
43987,38239
43610,38239
43610,38734
43987,38734
" /> 
<polyline style="fill-rule:evenodd;"
points="43397,38734
43397,38239
43020,38239
43020,38734
43397,38734
" /> 
<polyline style="fill-rule:evenodd;"
points="68259,47944
67764,47944
67764,48321
68259,48321
68259,47944
" /> 
<polyline style="fill-rule:evenodd;"
points="68259,48534
67764,48534
67764,48911
68259,48911
68259,48534
" /> 
<polyline style="fill-rule:evenodd;"
points="75247,41153
74752,41153
74752,41530
75247,41530
75247,41153
" /> 
<polyline style="fill-rule:evenodd;"
points="75247,41743
74752,41743
74752,42120
75247,42120
75247,41743
" /> 
<polyline style="fill-rule:evenodd;"
points="70759,51332
70759,50838
70382,50838
70382,51332
70759,51332
" /> 
<polyline style="fill-rule:evenodd;"
points="70169,51332
70169,50838
69792,50838
69792,51332
70169,51332
" /> 
<polyline style="fill-rule:evenodd;"
points="69792,50247
69792,50742
70169,50742
70169,50247
69792,50247
" /> 
<polyline style="fill-rule:evenodd;"
points="70382,50247
70382,50742
70759,50742
70759,50247
70382,50247
" /> 
<polyline style="fill-rule:evenodd;"
points="42233,40109
42233,40604
42610,40604
42610,40109
42233,40109
" /> 
<polyline style="fill-rule:evenodd;"
points="42823,40109
42823,40604
43200,40604
43200,40109
42823,40109
" /> 
<polyline style="fill-rule:evenodd;"
points="75444,45680
74949,45680
74949,46057
75444,46057
75444,45680
" /> 
<polyline style="fill-rule:evenodd;"
points="75444,46270
74949,46270
74949,46647
75444,46647
75444,46270
" /> 
<polyline style="fill-rule:evenodd;"
points="69004,38731
69004,39226
69381,39226
69381,38731
69004,38731
" /> 
<polyline style="fill-rule:evenodd;"
points="69594,38731
69594,39226
69971,39226
69971,38731
69594,38731
" /> 
<polyline style="fill-rule:evenodd;"
points="43987,39423
43987,38928
43610,38928
43610,39423
43987,39423
" /> 
<polyline style="fill-rule:evenodd;"
points="43397,39423
43397,38928
43020,38928
43020,39423
43397,39423
" /> 
<polyline style="fill-rule:evenodd;"
points="75343,42120
75838,42120
75838,41743
75343,41743
75343,42120
" /> 
<polyline style="fill-rule:evenodd;"
points="75343,41530
75838,41530
75838,41153
75343,41153
75343,41530
" /> 
<polyline style="fill-rule:evenodd;"
points="75539,46647
76034,46647
76034,46270
75539,46270
75539,46647
" /> 
<polyline style="fill-rule:evenodd;"
points="75539,46057
76034,46057
76034,45680
75539,45680
75539,46057
" /> 
<polyline style="fill-rule:evenodd;"
points="69971,38636
69971,38141
69594,38141
69594,38636
69971,38636
" /> 
<polyline style="fill-rule:evenodd;"
points="69381,38636
69381,38141
69004,38141
69004,38636
69381,38636
" /> 
<polyline style="fill-rule:evenodd;"
points="69535,41529
70030,41529
70030,41152
69535,41152
69535,41529
" /> 
<polyline style="fill-rule:evenodd;"
points="69535,40939
70030,40939
70030,40562
69535,40562
69535,40939
" /> 
<polyline style="fill-rule:evenodd;"
points="69145,40562
68650,40562
68650,40939
69145,40939
69145,40562
" /> 
<polyline style="fill-rule:evenodd;"
points="69145,41152
68650,41152
68650,41529
69145,41529
69145,41152
" /> 
<polyline style="fill-rule:evenodd;"
points="68020,49066
68020,49561
68397,49561
68397,49066
68020,49066
" /> 
<polyline style="fill-rule:evenodd;"
points="68610,49066
68610,49561
68987,49561
68987,49066
68610,49066
" /> 
<polyline style="fill-rule:evenodd;"
points="43888,48577
43888,48082
43512,48082
43512,48577
43888,48577
" /> 
<polyline style="fill-rule:evenodd;"
points="43298,48577
43298,48082
42922,48082
42922,48577
43298,48577
" /> 
<polyline style="fill-rule:evenodd;"
points="42922,46802
42922,47297
43298,47297
43298,46802
42922,46802
" /> 
<polyline style="fill-rule:evenodd;"
points="43512,46802
43512,47297
43888,47297
43888,46802
43512,46802
" /> 
<polyline style="fill-rule:evenodd;"
points="71940,49659
71940,49164
71563,49164
71563,49659
71940,49659
" /> 
<polyline style="fill-rule:evenodd;"
points="71350,49659
71350,49164
70973,49164
70973,49659
71350,49659
" /> 
</g>
<g style="fill:#000000; fill-opacity:1.0; 
stroke:#000000; stroke-width:0; stroke-opacity:1; 
stroke-linecap:round; stroke-linejoin:round;">
</g>
<g style="fill:#000000; fill-opacity:1.0; 
stroke:#000000; stroke-width:59.0551; stroke-opacity:1; 
stroke-linecap:round; stroke-linejoin:round;">
<polyline style="fill-rule:evenodd;"
points="40782,42867
39992,42977
39992,43641
40782,43751
40782,42867
" /> 
</g>
<g style="fill:#000000; fill-opacity:1.0; 
stroke:#000000; stroke-width:0; stroke-opacity:1; 
stroke-linecap:round; stroke-linejoin:round;">
</g>
<g style="fill:#000000; fill-opacity:1.0; 
stroke:#000000; stroke-width:59.0551; stroke-opacity:1; 
stroke-linecap:round; stroke-linejoin:round;">
<polyline style="fill-rule:evenodd;"
points="41460,42117
40824,41636
40354,42106
40835,42742
41460,42117
" /> 
</g>
<g style="fill:#000000; fill-opacity:1.0; 
stroke:#000000; stroke-width:0; stroke-opacity:1; 
stroke-linecap:round; stroke-linejoin:round;">
</g>
<g style="fill:#000000; fill-opacity:1.0; 
stroke:#000000; stroke-width:59.0551; stroke-opacity:1; 
stroke-linecap:round; stroke-linejoin:round;">
<polyline style="fill-rule:evenodd;"
points="42469,42064
42359,41274
41695,41274
41585,42064
42469,42064
" /> 
</g>
<g style="fill:#000000; fill-opacity:1.0; 
stroke:#000000; stroke-width:0; stroke-opacity:1; 
stroke-linecap:round; stroke-linejoin:round;">
</g>
<g style="fill:#000000; fill-opacity:1.0; 
stroke:#000000; stroke-width:59.0551; stroke-opacity:1; 
stroke-linecap:round; stroke-linejoin:round;">
<polyline style="fill-rule:evenodd;"
points="43219,42742
43700,42106
43231,41636
42594,42117
43219,42742
" /> 
</g>
<g style="fill:#000000; fill-opacity:1.0; 
stroke:#000000; stroke-width:0; stroke-opacity:1; 
stroke-linecap:round; stroke-linejoin:round;">
</g>
<g style="fill:#000000; fill-opacity:1.0; 
stroke:#000000; stroke-width:59.0551; stroke-opacity:1; 
stroke-linecap:round; stroke-linejoin:round;">
<polyline style="fill-rule:evenodd;"
points="40835,43877
40354,44513
40824,44982
41460,44502
40835,43877
" /> 
</g>
<g style="fill:#000000; fill-opacity:1.0; 
stroke:#000000; stroke-width:0; stroke-opacity:1; 
stroke-linecap:round; stroke-linejoin:round;">
</g>
<g style="fill:#000000; fill-opacity:1.0; 
stroke:#000000; stroke-width:59.0551; stroke-opacity:1; 
stroke-linecap:round; stroke-linejoin:round;">
<polyline style="fill-rule:evenodd;"
points="41585,44554
41695,45344
42359,45344
42469,44554
41585,44554
" /> 
</g>
<g style="fill:#000000; fill-opacity:1.0; 
stroke:#000000; stroke-width:0; stroke-opacity:1; 
stroke-linecap:round; stroke-linejoin:round;">
</g>
<g style="fill:#000000; fill-opacity:1.0; 
stroke:#000000; stroke-width:59.0551; stroke-opacity:1; 
stroke-linecap:round; stroke-linejoin:round;">
<polyline style="fill-rule:evenodd;"
points="42594,44502
43231,44982
43700,44513
43219,43877
42594,44502
" /> 
</g>
<g style="fill:#000000; fill-opacity:1.0; 
stroke:#000000; stroke-width:0; stroke-opacity:1; 
stroke-linecap:round; stroke-linejoin:round;">
</g>
<g style="fill:#000000; fill-opacity:1.0; 
stroke:#000000; stroke-width:59.0551; stroke-opacity:1; 
stroke-linecap:round; stroke-linejoin:round;">
<polyline style="fill-rule:evenodd;"
points="41635,43078
40533,42915
40533,43704
41635,43541
41635,43078
" /> 
</g>
<g style="fill:#000000; fill-opacity:1.0; 
stroke:#000000; stroke-width:0; stroke-opacity:1; 
stroke-linecap:round; stroke-linejoin:round;">
</g>
<g style="fill:#000000; fill-opacity:1.0; 
stroke:#000000; stroke-width:59.0551; stroke-opacity:1; 
stroke-linecap:round; stroke-linejoin:round;">
<polyline style="fill-rule:evenodd;"
points="41577,43245
40496,43516
40798,44245
41754,43672
41577,43245
" /> 
</g>
<g style="fill:#000000; fill-opacity:1.0; 
stroke:#000000; stroke-width:0; stroke-opacity:1; 
stroke-linecap:round; stroke-linejoin:round;">
</g>
<g style="fill:#000000; fill-opacity:1.0; 
stroke:#000000; stroke-width:59.0551; stroke-opacity:1; 
stroke-linecap:round; stroke-linejoin:round;">
<polyline style="fill-rule:evenodd;"
points="41754,42946
40798,42374
40496,43103
41577,43374
41754,42946
" /> 
</g>
<g style="fill:#000000; fill-opacity:1.0; 
stroke:#000000; stroke-width:0; stroke-opacity:1; 
stroke-linecap:round; stroke-linejoin:round;">
</g>
<g style="fill:#000000; fill-opacity:1.0; 
stroke:#000000; stroke-width:59.0551; stroke-opacity:1; 
stroke-linecap:round; stroke-linejoin:round;">
<polyline style="fill-rule:evenodd;"
points="41914,42869
41250,41975
40692,42533
41587,43197
41914,42869
" /> 
</g>
<g style="fill:#000000; fill-opacity:1.0; 
stroke:#000000; stroke-width:0; stroke-opacity:1; 
stroke-linecap:round; stroke-linejoin:round;">
</g>
<g style="fill:#000000; fill-opacity:1.0; 
stroke:#000000; stroke-width:59.0551; stroke-opacity:1; 
stroke-linecap:round; stroke-linejoin:round;">
<polyline style="fill-rule:evenodd;"
points="41587,43422
40692,44086
41250,44644
41914,43750
41587,43422
" /> 
</g>
<g style="fill:#000000; fill-opacity:1.0; 
stroke:#000000; stroke-width:0; stroke-opacity:1; 
stroke-linecap:round; stroke-linejoin:round;">
</g>
<g style="fill:#000000; fill-opacity:1.0; 
stroke:#000000; stroke-width:59.0551; stroke-opacity:1; 
stroke-linecap:round; stroke-linejoin:round;">
<polyline style="fill-rule:evenodd;"
points="42092,42859
41821,41778
41092,42080
41664,43036
42092,42859
" /> 
</g>
<g style="fill:#000000; fill-opacity:1.0; 
stroke:#000000; stroke-width:0; stroke-opacity:1; 
stroke-linecap:round; stroke-linejoin:round;">
</g>
<g style="fill:#000000; fill-opacity:1.0; 
stroke:#000000; stroke-width:59.0551; stroke-opacity:1; 
stroke-linecap:round; stroke-linejoin:round;">
<polyline style="fill-rule:evenodd;"
points="41664,43583
41092,44539
41821,44840
42092,43760
41664,43583
" /> 
</g>
<g style="fill:#000000; fill-opacity:1.0; 
stroke:#000000; stroke-width:0; stroke-opacity:1; 
stroke-linecap:round; stroke-linejoin:round;">
</g>
<g style="fill:#000000; fill-opacity:1.0; 
stroke:#000000; stroke-width:59.0551; stroke-opacity:1; 
stroke-linecap:round; stroke-linejoin:round;">
<polyline style="fill-rule:evenodd;"
points="42259,42917
42422,41815
41633,41815
41796,42917
42259,42917
" /> 
</g>
<g style="fill:#000000; fill-opacity:1.0; 
stroke:#000000; stroke-width:0; stroke-opacity:1; 
stroke-linecap:round; stroke-linejoin:round;">
</g>
<g style="fill:#000000; fill-opacity:1.0; 
stroke:#000000; stroke-width:59.0551; stroke-opacity:1; 
stroke-linecap:round; stroke-linejoin:round;">
<polyline style="fill-rule:evenodd;"
points="41796,43701
41633,44803
42422,44803
42259,43701
41796,43701
" /> 
</g>
<g style="fill:#000000; fill-opacity:1.0; 
stroke:#000000; stroke-width:0; stroke-opacity:1; 
stroke-linecap:round; stroke-linejoin:round;">
</g>
<g style="fill:#000000; fill-opacity:1.0; 
stroke:#000000; stroke-width:59.0551; stroke-opacity:1; 
stroke-linecap:round; stroke-linejoin:round;">
<polyline style="fill-rule:evenodd;"
points="41962,43760
42233,44840
42962,44539
42390,43583
41962,43760
" /> 
</g>
<g style="fill:#000000; fill-opacity:1.0; 
stroke:#000000; stroke-width:0; stroke-opacity:1; 
stroke-linecap:round; stroke-linejoin:round;">
</g>
<g style="fill:#000000; fill-opacity:1.0; 
stroke:#000000; stroke-width:59.0551; stroke-opacity:1; 
stroke-linecap:round; stroke-linejoin:round;">
<polyline style="fill-rule:evenodd;"
points="42390,43036
42962,42080
42233,41778
41962,42859
42390,43036
" /> 
</g>
<g style="fill:#000000; fill-opacity:1.0; 
stroke:#000000; stroke-width:0; stroke-opacity:1; 
stroke-linecap:round; stroke-linejoin:round;">
</g>
<g style="fill:#000000; fill-opacity:1.0; 
stroke:#000000; stroke-width:59.0551; stroke-opacity:1; 
stroke-linecap:round; stroke-linejoin:round;">
<polyline style="fill-rule:evenodd;"
points="42467,43197
43362,42533
42804,41975
42140,42869
42467,43197
" /> 
</g>
<g style="fill:#000000; fill-opacity:1.0; 
stroke:#000000; stroke-width:0; stroke-opacity:1; 
stroke-linecap:round; stroke-linejoin:round;">
</g>
<g style="fill:#000000; fill-opacity:1.0; 
stroke:#000000; stroke-width:59.0551; stroke-opacity:1; 
stroke-linecap:round; stroke-linejoin:round;">
<polyline style="fill-rule:evenodd;"
points="42140,43750
42804,44644
43362,44086
42467,43422
42140,43750
" /> 
</g>
<g style="fill:#000000; fill-opacity:1.0; 
stroke:#000000; stroke-width:0; stroke-opacity:1; 
stroke-linecap:round; stroke-linejoin:round;">
</g>
<g style="fill:#000000; fill-opacity:1.0; 
stroke:#000000; stroke-width:59.0551; stroke-opacity:1; 
stroke-linecap:round; stroke-linejoin:round;">
<polyline style="fill-rule:evenodd;"
points="42261,43664
43132,44344
43407,43932
42444,43389
42261,43664
" /> 
</g>
<g style="fill:#000000; fill-opacity:1.0; 
stroke:#000000; stroke-width:0; stroke-opacity:1; 
stroke-linecap:round; stroke-linejoin:round;">
</g>
<g style="fill:#000000; fill-opacity:1.0; 
stroke:#000000; stroke-width:59.0551; stroke-opacity:1; 
stroke-linecap:round; stroke-linejoin:round;">
<polyline style="fill-rule:evenodd;"
points="42444,43230
43407,42687
43132,42275
42261,42954
42444,43230
" /> 
</g> 
</svg>
