<?xml version="1.0" standalone="no"?>
 <!DOCTYPE svg PUBLIC "-//W3C//DTD SVG 1.1//EN" 
 "http://www.w3.org/Graphics/SVG/1.1/DTD/svg11.dtd"> 
<svg xmlns="http://www.w3.org/2000/svg" version="1.1" 
    width="29.7002cm" height="21.0007cm" viewBox="0 0 116930 82680 ">
<title>SVG Picture created as oggbox-F_SilkS.svg date 2013/08/02 22:59:26 </title>
  <desc>Picture generated by PCBNEW </desc>
<g style="fill:#000000; fill-opacity:1;stroke:#000000; stroke-opacity:1;
stroke-linecap:round; stroke-linejoin:round; "
 transform="translate(0 0) scale(1 1)">
</g>
<g style="fill:#000000; fill-opacity:0.0; 
stroke:#000000; stroke-width:150; stroke-opacity:1; 
stroke-linecap:round; stroke-linejoin:round;">
<path d="M78739 32480
L78740 32480
" />
<path d="M75787 29528
L78739 32480
" />
<path d="M40354 29528
L39370 30512
" />
<path d="M75787 29528
L40354 29528
" />
<path d="M75787 49213
L78740 46260
" />
<path d="M39370 48229
L39370 48228
" />
<path d="M40354 49213
L39370 48229
" />
<path d="M75787 49213
L40354 49213
" />
<path d="M39370 30512
L39370 48228
" />
<path d="M78740 32480
L78740 46260
" />
<path d="M74901 43208
L74901 40748
" />
<path d="M74901 40748
L74114 39862
" />
<path d="M74901 46358
L74901 44685
" />
<path d="M64075 43208
L64075 39075
" />
<path d="M64075 46358
L64075 44685
" />
<path d="M74914 40801
L74134 39862
" />
</g>
<g style="fill:#000000; fill-opacity:0.0; 
stroke:#000000; stroke-width:50; stroke-opacity:1; 
stroke-linecap:round; stroke-linejoin:round;">
<path d="M48120 35586
L48120 34886
" />
<path d="M48120 34886
L49320 34886
" />
<path d="M49320 34886
L49320 35586
" />
<path d="M49320 35586
L48120 35586
" />
<path d="M50206 31047
L50206 31747
" />
<path d="M50206 31747
L49006 31747
" />
<path d="M49006 31747
L49006 31047
" />
<path d="M49006 31047
L50206 31047
" />
<path d="M63823 32667
L64523 32667
" />
<path d="M64523 32667
L64523 33867
" />
<path d="M64523 33867
L63823 33867
" />
<path d="M63823 33867
L63823 32667
" />
<path d="M67504 35180
L67504 36080
" />
<path d="M67504 36080
L68154 36080
" />
<path d="M68854 35180
L69504 35180
" />
<path d="M69504 35180
L69504 36080
" />
<path d="M69504 36080
L68854 36080
" />
<path d="M68154 35180
L67504 35180
" />
<path d="M69504 37064
L69504 36164
" />
<path d="M69504 36164
L68854 36164
" />
<path d="M68154 37064
L67504 37064
" />
<path d="M67504 37064
L67504 36164
" />
<path d="M67504 36164
L68154 36164
" />
<path d="M68854 37064
L69504 37064
" />
<circle cx="63523.2" cy="32485" r="50" /> 
<path d="M63973 32485
L63573 32485
" />
<path d="M63573 32485
L63573 31885
" />
<path d="M63573 31885
L63973 31885
" />
<path d="M64373 31885
L64773 31885
" />
<path d="M64773 31885
L64773 32485
" />
<path d="M64773 32485
L64373 32485
" />
<circle cx="64823.2" cy="34050.4" r="50" /> 
<path d="M64373 34050
L64773 34050
" />
<path d="M64773 34050
L64773 34650
" />
<path d="M64773 34650
L64373 34650
" />
<path d="M63973 34650
L63573 34650
" />
<path d="M63573 34650
L63573 34050
" />
<path d="M63573 34050
L63973 34050
" />
<circle cx="56393" cy="30649" r="50" /> 
<path d="M56393 31099
L56393 30699
" />
<path d="M56393 30699
L56993 30699
" />
<path d="M56993 30699
L56993 31099
" />
<path d="M56993 31499
L56993 31899
" />
<path d="M56993 31899
L56393 31899
" />
<path d="M56393 31899
L56393 31499
" />
<circle cx="48223.6" cy="30157.1" r="50" /> 
<path d="M48223 30607
L48223 30207
" />
<path d="M48223 30207
L48823 30207
" />
<path d="M48823 30207
L48823 30607
" />
<path d="M48823 31007
L48823 31407
" />
<path d="M48823 31407
L48223 31407
" />
<path d="M48223 31407
L48223 31007
" />
<circle cx="50103.1" cy="35886.2" r="50" /> 
<path d="M50103 35436
L50103 35836
" />
<path d="M50103 35836
L49503 35836
" />
<path d="M49503 35836
L49503 35436
" />
<path d="M49503 35036
L49503 34636
" />
<path d="M49503 34636
L50103 34636
" />
<path d="M50103 34636
L50103 35036
" />
<circle cx="59749" cy="31949" r="50" /> 
<path d="M59749 31499
L59749 31899
" />
<path d="M59749 31899
L59149 31899
" />
<path d="M59149 31899
L59149 31499
" />
<path d="M59149 31099
L59149 30699
" />
<path d="M59149 30699
L59749 30699
" />
<path d="M59749 30699
L59749 31099
" />
<circle cx="58165" cy="30649" r="50" /> 
<path d="M58165 31099
L58165 30699
" />
<path d="M58165 30699
L58765 30699
" />
<path d="M58765 30699
L58765 31099
" />
<path d="M58765 31499
L58765 31899
" />
<path d="M58765 31899
L58165 31899
" />
<path d="M58165 31899
L58165 31499
" />
<circle cx="57377" cy="30649" r="50" /> 
<path d="M57377 31099
L57377 30699
" />
<path d="M57377 30699
L57977 30699
" />
<path d="M57977 30699
L57977 31099
" />
<path d="M57977 31499
L57977 31899
" />
<path d="M57977 31899
L57377 31899
" />
<path d="M57377 31899
L57377 31499
" />
</g>
<g style="fill:#000000; fill-opacity:0.0; 
stroke:#000000; stroke-width:150; stroke-opacity:1; 
stroke-linecap:round; stroke-linejoin:round;">
<path d="M78740 41120
L78740 37620
" />
<circle cx="54792" cy="44924" r="200" /> 
<circle cx="42791" cy="41668" r="223.607" /> 
<path d="M66685 29913
L72685 29913
" />
<path d="M72685 29913
L72685 30913
" />
<path d="M72685 30913
L66685 30913
" />
<path d="M66685 30913
L66685 29913
" />
<path d="M52265 35630
L52265 35433
" />
<path d="M52265 35433
L60139 35433
" />
<path d="M60139 35433
L60139 35630
" />
<circle cx="54547.5" cy="46555.1" r="79" /> 
<path d="M51082 47185
L51082 45925
" />
<path d="M53287 45925
L52027 45925
" />
<path d="M53287 47185
L52066 47185
" />
<path d="M54232 47185
L54232 45925
" />
</g>
<g style="fill:#000000; fill-opacity:0.0; 
stroke:#000000; stroke-width:50; stroke-opacity:1; 
stroke-linecap:round; stroke-linejoin:round;">
<circle cx="51865.4" cy="43346.1" r="50" /> 
<path d="M51865 43796
L51865 43396
" />
<path d="M51865 43396
L52465 43396
" />
<path d="M52465 43396
L52465 43796
" />
<path d="M52465 44196
L52465 44596
" />
<path d="M52465 44596
L51865 44596
" />
<path d="M51865 44596
L51865 44196
" />
</g>
<g style="fill:#000000; fill-opacity:0.0; 
stroke:#000000; stroke-width:150; stroke-opacity:1; 
stroke-linecap:round; stroke-linejoin:round;">
<path d="M78150 45177
L77953 45177
" />
<path d="M78150 44390
L78150 45964
" />
<path d="M75768 44390
L75768 45964
" />
</g>
<g style="fill:#000000; fill-opacity:0.0; 
stroke:#000000; stroke-width:50; stroke-opacity:1; 
stroke-linecap:round; stroke-linejoin:round;">
<circle cx="67087" cy="34050.4" r="50" /> 
<path d="M66637 34050
L67037 34050
" />
<path d="M67037 34050
L67037 34650
" />
<path d="M67037 34650
L66637 34650
" />
<path d="M66237 34650
L65837 34650
" />
<path d="M65837 34650
L65837 34050
" />
<path d="M65837 34050
L66237 34050
" />
<circle cx="65787" cy="32485" r="50" /> 
<path d="M66237 32485
L65837 32485
" />
<path d="M65837 32485
L65837 31885
" />
<path d="M65837 31885
L66237 31885
" />
<path d="M66637 31885
L67037 31885
" />
<path d="M67037 31885
L67037 32485
" />
<path d="M67037 32485
L66637 32485
" />
<path d="M66087 32667
L66787 32667
" />
<path d="M66787 32667
L66787 33867
" />
<path d="M66787 33867
L66087 33867
" />
<path d="M66087 33867
L66087 32667
" />
</g>
<g style="fill:#000000; fill-opacity:0.0; 
stroke:#000000; stroke-width:150; stroke-opacity:1; 
stroke-linecap:round; stroke-linejoin:round;">
<path d="M75885 35216
L76791 35216
" />
<path d="M76791 35216
L76791 31318
" />
<path d="M76791 31318
L75885 31318
" />
<path d="M72263 35216
L75885 35216
" />
<path d="M72263 35216
L72263 31318
" />
<path d="M72263 31318
L75885 31318
" />
<path d="M76082 35472
L76555 35472
" />
<path d="M76082 36377
L76555 36377
" />
<path d="M75590 37244
L76062 37244
" />
<path d="M75590 38149
L76062 38149
" />
<path d="M61358 30905
L61358 30433
" />
<path d="M62263 30905
L62263 30433
" />
</g>
<g style="fill:#000000; fill-opacity:0.0; 
stroke:#000000; stroke-width:59.0551; stroke-opacity:1; 
stroke-linecap:round; stroke-linejoin:round;">
<circle cx="49606.3" cy="41043.3" r="98.4252" /> 
</g>
<g style="fill:#000000; fill-opacity:0.0; 
stroke:#000000; stroke-width:150; stroke-opacity:1; 
stroke-linecap:round; stroke-linejoin:round;">
<path d="M45826 48346
L47007 48346
" />
<path d="M50826 48346
L49645 48346
" />
<path d="M50826 46141
L49645 46141
" />
<path d="M45826 46141
L47007 46141
" />
<path d="M45826 46141
L45826 48346
" />
<path d="M50826 48346
L50826 46141
" />
</g>
<g style="fill:#000000; fill-opacity:0.0; 
stroke:#000000; stroke-width:120; stroke-opacity:1; 
stroke-linecap:round; stroke-linejoin:round;">
<path d="M67524 48598
L67524 47998
" />
<path d="M68152 48541
L68124 48569
L68038 48598
L67981 48598
L67895 48569
L67838 48512
L67810 48455
L67781 48341
L67781 48255
L67810 48141
L67838 48084
L67895 48027
L67981 47998
L68038 47998
L68124 48027
L68152 48055
" />
<path d="M68352 47998
L68724 47998
L68524 48227
L68610 48227
L68667 48255
L68695 48284
L68724 48341
L68724 48484
L68695 48541
L68667 48569
L68610 48598
L68438 48598
L68381 48569
L68352 48541
" />
<path d="M70386 48569
L70472 48598
L70615 48598
L70672 48569
L70701 48541
L70729 48484
L70729 48427
L70701 48369
L70672 48341
L70615 48312
L70501 48284
L70444 48255
L70415 48227
L70386 48169
L70386 48112
L70415 48055
L70444 48027
L70501 47998
L70644 47998
L70729 48027
" />
<path d="M70986 48598
L70986 47998
L71129 47998
L71215 48027
L71272 48084
L71301 48141
L71329 48255
L71329 48341
L71301 48455
L71272 48512
L71215 48569
L71129 48598
L70986 48598
" />
<path d="M71444 48655
L71901 48655
" />
<path d="M72386 48541
L72358 48569
L72272 48598
L72215 48598
L72129 48569
L72072 48512
L72044 48455
L72015 48341
L72015 48255
L72044 48141
L72072 48084
L72129 48027
L72215 47998
L72272 47998
L72358 48027
L72386 48055
" />
<path d="M72615 48427
L72901 48427
" />
<path d="M72558 48598
L72758 47998
L72958 48598
" />
<path d="M73501 48598
L73301 48312
" />
<path d="M73158 48598
L73158 47998
L73386 47998
L73444 48027
L73472 48055
L73501 48112
L73501 48198
L73472 48255
L73444 48284
L73386 48312
L73158 48312
" />
<path d="M73758 48598
L73758 47998
L73901 47998
L73986 48027
L74044 48084
L74072 48141
L74101 48255
L74101 48341
L74072 48455
L74044 48512
L73986 48569
L73901 48598
L73758 48598
" />
</g>
<g style="fill:#000000; fill-opacity:0.0; 
stroke:#000000; stroke-width:50; stroke-opacity:1; 
stroke-linecap:round; stroke-linejoin:round;">
<path d="M48476 36356
L48476 36056
" />
<path d="M48738 36327
L48726 36341
L48690 36356
L48666 36356
L48631 36341
L48607 36313
L48595 36284
L48583 36227
L48583 36184
L48595 36127
L48607 36099
L48631 36070
L48666 36056
L48690 36056
L48726 36070
L48738 36084
" />
<path d="M48821 36056
L48988 36056
L48881 36356
" />
<path d="M49362 30549
L49362 30249
" />
<path d="M49624 30520
L49612 30535
L49576 30549
L49552 30549
L49517 30535
L49493 30506
L49481 30477
L49469 30420
L49469 30377
L49481 30320
L49493 30292
L49517 30263
L49552 30249
L49576 30249
L49612 30263
L49624 30277
" />
<path d="M49767 30377
L49743 30363
L49731 30349
L49719 30320
L49719 30306
L49731 30277
L49743 30263
L49767 30249
L49814 30249
L49838 30263
L49850 30277
L49862 30306
L49862 30320
L49850 30349
L49838 30363
L49814 30377
L49767 30377
L49743 30392
L49731 30406
L49719 30435
L49719 30492
L49731 30520
L49743 30535
L49767 30549
L49814 30549
L49838 30535
L49850 30520
L49862 30492
L49862 30435
L49850 30406
L49838 30392
L49814 30377
" />
<path d="M63226 33314
L62926 33314
" />
<path d="M63197 33053
L63211 33064
L63226 33100
L63226 33124
L63211 33160
L63183 33183
L63154 33195
L63097 33207
L63054 33207
L62997 33195
L62969 33183
L62940 33160
L62926 33124
L62926 33100
L62940 33064
L62954 33053
" />
<path d="M63026 32838
L63226 32838
" />
<path d="M62911 32898
L63126 32957
L63126 32803
" />
<path d="M69733 35765
L69590 35765
L69590 35465
" />
<path d="M69990 35765
L69818 35765
" />
<path d="M69904 35765
L69904 35465
L69875 35508
L69847 35537
L69818 35551
" />
<path d="M69787 36721
L69772 36735
L69730 36749
L69701 36749
L69658 36735
L69630 36706
L69615 36678
L69601 36621
L69601 36578
L69615 36521
L69630 36492
L69658 36464
L69701 36449
L69730 36449
L69772 36464
L69787 36478
" />
<path d="M69901 36478
L69915 36464
L69944 36449
L70015 36449
L70044 36464
L70058 36478
L70072 36506
L70072 36535
L70058 36578
L69887 36749
L70072 36749
" />
<path d="M70172 36449
L70358 36449
L70258 36564
L70301 36564
L70330 36578
L70344 36592
L70358 36621
L70358 36692
L70344 36721
L70330 36735
L70301 36749
L70215 36749
L70187 36735
L70172 36721
" />
<path d="M64012 31683
L64000 31695
L63964 31707
L63941 31707
L63905 31695
L63881 31671
L63869 31648
L63857 31600
L63857 31564
L63869 31517
L63881 31493
L63905 31469
L63941 31457
L63964 31457
L64000 31469
L64012 31481
" />
<path d="M64095 31457
L64250 31457
L64167 31552
L64202 31552
L64226 31564
L64238 31576
L64250 31600
L64250 31659
L64238 31683
L64226 31695
L64202 31707
L64131 31707
L64107 31695
L64095 31683
" />
<path d="M64405 31457
L64429 31457
L64452 31469
L64464 31481
L64476 31505
L64488 31552
L64488 31612
L64476 31659
L64464 31683
L64452 31695
L64429 31707
L64405 31707
L64381 31695
L64369 31683
L64357 31659
L64345 31612
L64345 31552
L64357 31505
L64369 31481
L64381 31469
L64405 31457
" />
<path d="M64012 35030
L64000 35042
L63964 35054
L63941 35054
L63905 35042
L63881 35018
L63869 34994
L63857 34947
L63857 34911
L63869 34864
L63881 34840
L63905 34816
L63941 34804
L63964 34804
L64000 34816
L64012 34828
" />
<path d="M64107 34828
L64119 34816
L64143 34804
L64202 34804
L64226 34816
L64238 34828
L64250 34852
L64250 34875
L64238 34911
L64095 35054
L64250 35054
" />
<path d="M64464 34804
L64417 34804
L64393 34816
L64381 34828
L64357 34864
L64345 34911
L64345 35006
L64357 35030
L64369 35042
L64393 35054
L64441 35054
L64464 35042
L64476 35030
L64488 35006
L64488 34947
L64476 34923
L64464 34911
L64441 34899
L64393 34899
L64369 34911
L64357 34923
L64345 34947
" />
<path d="M56782 30475
L56794 30487
L56806 30523
L56806 30547
L56794 30582
L56770 30606
L56746 30618
L56698 30630
L56663 30630
L56615 30618
L56591 30606
L56568 30582
L56556 30547
L56556 30523
L56568 30487
L56579 30475
" />
<path d="M56556 30392
L56556 30237
L56651 30320
L56651 30285
L56663 30261
L56675 30249
L56698 30237
L56758 30237
L56782 30249
L56794 30261
L56806 30285
L56806 30356
L56794 30380
L56782 30392
" />
<path d="M56556 30154
L56556 29987
L56806 30094
" />
<path d="M48021 30672
L48033 30684
L48045 30720
L48045 30744
L48033 30779
L48010 30803
L47986 30815
L47938 30827
L47902 30827
L47855 30815
L47831 30803
L47807 30779
L47795 30744
L47795 30720
L47807 30684
L47819 30672
" />
<path d="M47879 30458
L48045 30458
" />
<path d="M47783 30518
L47962 30577
L47962 30422
" />
<path d="M47902 30291
L47890 30315
L47879 30327
L47855 30339
L47843 30339
L47819 30327
L47807 30315
L47795 30291
L47795 30244
L47807 30220
L47819 30208
L47843 30196
L47855 30196
L47879 30208
L47890 30220
L47902 30244
L47902 30291
L47914 30315
L47926 30327
L47950 30339
L47998 30339
L48021 30327
L48033 30315
L48045 30291
L48045 30244
L48033 30220
L48021 30208
L47998 30196
L47950 30196
L47926 30208
L47914 30220
L47902 30244
" />
<path d="M49642 36112
L49630 36124
L49594 36136
L49571 36136
L49535 36124
L49511 36100
L49499 36076
L49487 36029
L49487 35993
L49499 35945
L49511 35922
L49535 35898
L49571 35886
L49594 35886
L49630 35898
L49642 35910
" />
<path d="M49856 35969
L49856 36136
" />
<path d="M49797 35874
L49737 36052
L49892 36052
" />
<path d="M49963 35886
L50130 35886
L50023 36136
" />
<path d="M59288 32274
L59276 32286
L59240 32298
L59216 32298
L59181 32286
L59157 32262
L59145 32238
L59133 32190
L59133 32155
L59145 32107
L59157 32083
L59181 32060
L59216 32048
L59240 32048
L59276 32060
L59288 32071
" />
<path d="M59502 32131
L59502 32298
" />
<path d="M59443 32036
L59383 32214
L59538 32214
" />
<path d="M59764 32298
L59621 32298
" />
<path d="M59693 32298
L59693 32048
L59669 32083
L59645 32107
L59621 32119
" />
<path d="M58554 30475
L58566 30487
L58578 30523
L58578 30547
L58566 30582
L58542 30606
L58518 30618
L58470 30630
L58435 30630
L58387 30618
L58363 30606
L58340 30582
L58328 30547
L58328 30523
L58340 30487
L58351 30475
" />
<path d="M58411 30261
L58578 30261
" />
<path d="M58316 30320
L58494 30380
L58494 30225
" />
<path d="M58328 30082
L58328 30059
L58340 30035
L58351 30023
L58375 30011
L58423 29999
L58482 29999
L58530 30011
L58554 30023
L58566 30035
L58578 30059
L58578 30082
L58566 30106
L58554 30118
L58530 30130
L58482 30142
L58423 30142
L58375 30130
L58351 30118
L58340 30106
L58328 30082
" />
<path d="M57766 30475
L57778 30487
L57790 30523
L57790 30547
L57778 30582
L57754 30606
L57730 30618
L57682 30630
L57647 30630
L57599 30618
L57575 30606
L57552 30582
L57540 30547
L57540 30523
L57552 30487
L57563 30475
" />
<path d="M57540 30392
L57540 30237
L57635 30320
L57635 30285
L57647 30261
L57659 30249
L57682 30237
L57742 30237
L57766 30249
L57778 30261
L57790 30285
L57790 30356
L57778 30380
L57766 30392
" />
<path d="M57790 30118
L57790 30070
L57778 30047
L57766 30035
L57730 30011
L57682 29999
L57587 29999
L57563 30011
L57552 30023
L57540 30047
L57540 30094
L57552 30118
L57563 30130
L57587 30142
L57647 30142
L57671 30130
L57682 30118
L57694 30094
L57694 30047
L57682 30023
L57671 30011
L57647 29999
" />
</g>
<g style="fill:#000000; fill-opacity:0.0; 
stroke:#000000; stroke-width:120; stroke-opacity:1; 
stroke-linecap:round; stroke-linejoin:round;">
<path d="M77510 37574
L77510 36974
L77738 36974
L77795 37003
L77824 37031
L77853 37088
L77853 37174
L77824 37231
L77795 37260
L77738 37288
L77510 37288
" />
<path d="M78081 37031
L78110 37003
L78167 36974
L78310 36974
L78367 37003
L78395 37031
L78424 37088
L78424 37145
L78395 37231
L78053 37574
L78424 37574
" />
<path d="M56106 39395
L56106 38795
" />
<path d="M56734 39338
L56706 39366
L56620 39395
L56563 39395
L56477 39366
L56420 39309
L56392 39252
L56363 39138
L56363 39052
L56392 38938
L56420 38881
L56477 38824
L56563 38795
L56620 38795
L56706 38824
L56734 38852
" />
<path d="M57277 38795
L56992 38795
L56963 39081
L56992 39052
L57049 39024
L57192 39024
L57249 39052
L57277 39081
L57306 39138
L57306 39281
L57277 39338
L57249 39366
L57192 39395
L57049 39395
L56992 39366
L56963 39338
" />
<path d="M41343 37869
L41343 37269
" />
<path d="M41971 37812
L41943 37841
L41857 37869
L41800 37869
L41714 37841
L41657 37784
L41629 37726
L41600 37612
L41600 37526
L41629 37412
L41657 37355
L41714 37298
L41800 37269
L41857 37269
L41943 37298
L41971 37326
" />
<path d="M42543 37869
L42200 37869
" />
<path d="M42371 37869
L42371 37269
L42314 37355
L42257 37412
L42200 37441
" />
<path d="M67568 31767
L67568 31167
L67797 31167
L67854 31196
L67883 31224
L67911 31281
L67911 31367
L67883 31424
L67854 31453
L67797 31481
L67568 31481
" />
<path d="M68111 31167
L68511 31167
L68254 31767
" />
<path d="M56545 38165
L56545 37565
L56773 37565
L56830 37594
L56859 37622
L56888 37679
L56888 37765
L56859 37822
L56830 37851
L56773 37879
L56545 37879
" />
<path d="M57402 37565
L57288 37565
L57230 37594
L57202 37622
L57145 37708
L57116 37822
L57116 38051
L57145 38108
L57173 38136
L57230 38165
L57345 38165
L57402 38136
L57430 38108
L57459 38051
L57459 37908
L57430 37851
L57402 37822
L57345 37794
L57230 37794
L57173 37822
L57145 37851
L57116 37908
" />
</g>
<g style="fill:#000000; fill-opacity:0.0; 
stroke:#000000; stroke-width:50; stroke-opacity:1; 
stroke-linecap:round; stroke-linejoin:round;">
<path d="M68358 32395
L68358 32145
" />
<path d="M68620 32372
L68608 32383
L68572 32395
L68548 32395
L68513 32383
L68489 32360
L68477 32336
L68465 32288
L68465 32252
L68477 32205
L68489 32181
L68513 32157
L68548 32145
L68572 32145
L68608 32157
L68620 32169
" />
<path d="M68739 32395
L68786 32395
L68810 32383
L68822 32372
L68846 32336
L68858 32288
L68858 32193
L68846 32169
L68834 32157
L68810 32145
L68763 32145
L68739 32157
L68727 32169
L68715 32193
L68715 32252
L68727 32276
L68739 32288
L68763 32300
L68810 32300
L68834 32288
L68846 32276
L68858 32252
" />
</g>
<g style="fill:#000000; fill-opacity:0.0; 
stroke:#000000; stroke-width:120; stroke-opacity:1; 
stroke-linecap:round; stroke-linejoin:round;">
<path d="M40330 43159
L39730 43159
L39730 42930
L39759 42873
L39787 42845
L39844 42816
L39930 42816
L39987 42845
L40016 42873
L40044 42930
L40044 43159
" />
<path d="M40330 42530
L40330 42416
L40301 42359
L40273 42330
L40187 42273
L40073 42245
L39844 42245
L39787 42273
L39759 42302
L39730 42359
L39730 42473
L39759 42530
L39787 42559
L39844 42587
L39987 42587
L40044 42559
L40073 42530
L40101 42473
L40101 42359
L40073 42302
L40044 42273
L39987 42245
" />
</g>
<g style="fill:#000000; fill-opacity:0.0; 
stroke:#000000; stroke-width:50; stroke-opacity:1; 
stroke-linecap:round; stroke-linejoin:round;">
<path d="M40074 44320
L40074 44439
L39824 44439
" />
<path d="M40074 44236
L39824 44236
" />
<path d="M40074 44117
L39824 44117
L40074 43974
L39824 43974
" />
<path d="M39943 43855
L39943 43772
" />
<path d="M40074 43736
L40074 43855
L39824 43855
L39824 43736
" />
</g>
<g style="fill:#000000; fill-opacity:0.0; 
stroke:#000000; stroke-width:120; stroke-opacity:1; 
stroke-linecap:round; stroke-linejoin:round;">
<path d="M45137 33932
L45137 33332
L45366 33332
L45423 33361
L45451 33389
L45480 33446
L45480 33532
L45451 33589
L45423 33618
L45366 33646
L45137 33646
" />
<path d="M46051 33932
L45708 33932
" />
<path d="M45880 33932
L45880 33332
L45823 33418
L45766 33475
L45708 33503
" />
<path d="M46423 33332
L46480 33332
L46537 33361
L46566 33389
L46594 33446
L46623 33561
L46623 33703
L46594 33818
L46566 33875
L46537 33903
L46480 33932
L46423 33932
L46366 33903
L46337 33875
L46308 33818
L46280 33703
L46280 33561
L46308 33446
L46337 33389
L46366 33361
L46423 33332
" />
</g>
<g style="fill:#000000; fill-opacity:0.0; 
stroke:#000000; stroke-width:50; stroke-opacity:1; 
stroke-linecap:round; stroke-linejoin:round;">
<path d="M40270 36418
L40020 36418
L40020 36323
L40032 36299
L40043 36287
L40067 36275
L40103 36275
L40127 36287
L40139 36299
L40151 36323
L40151 36418
" />
<path d="M40270 36168
L40020 36168
" />
<path d="M40139 36168
L40139 36025
" />
<path d="M40270 36025
L40020 36025
" />
<path d="M40020 35858
L40020 35811
L40032 35787
L40055 35763
L40103 35751
L40186 35751
L40234 35763
L40258 35787
L40270 35811
L40270 35858
L40258 35882
L40234 35906
L40186 35918
L40103 35918
L40055 35906
L40032 35882
L40020 35858
" />
<path d="M40270 35644
L40020 35644
L40270 35501
L40020 35501
" />
<path d="M40139 35382
L40139 35299
" />
<path d="M40270 35263
L40270 35382
L40020 35382
L40020 35263
" />
<path d="M40258 35168
L40270 35132
L40270 35073
L40258 35049
L40246 35037
L40222 35025
L40198 35025
L40174 35037
L40162 35049
L40151 35073
L40139 35120
L40127 35144
L40115 35156
L40091 35168
L40067 35168
L40043 35156
L40032 35144
L40020 35120
L40020 35061
L40032 35025
" />
</g>
<g style="fill:#000000; fill-opacity:0.0; 
stroke:#000000; stroke-width:120; stroke-opacity:1; 
stroke-linecap:round; stroke-linejoin:round;">
<path d="M52959 47801
L53359 48401
" />
<path d="M53359 47801
L52959 48401
" />
<path d="M53559 47858
L53587 47829
L53644 47801
L53787 47801
L53844 47829
L53873 47858
L53902 47915
L53902 47972
L53873 48058
L53530 48401
L53902 48401
" />
</g>
<g style="fill:#000000; fill-opacity:0.0; 
stroke:#000000; stroke-width:50; stroke-opacity:1; 
stroke-linecap:round; stroke-linejoin:round;">
<path d="M52254 43074
L52266 43086
L52278 43121
L52278 43145
L52266 43181
L52242 43205
L52218 43216
L52171 43228
L52135 43228
L52087 43216
L52064 43205
L52040 43181
L52028 43145
L52028 43121
L52040 43086
L52052 43074
" />
<path d="M52028 42990
L52028 42836
L52123 42919
L52123 42883
L52135 42859
L52147 42847
L52171 42836
L52230 42836
L52254 42847
L52266 42859
L52278 42883
L52278 42955
L52266 42978
L52254 42990
" />
<path d="M52135 42693
L52123 42716
L52111 42728
L52087 42740
L52076 42740
L52052 42728
L52040 42716
L52028 42693
L52028 42645
L52040 42621
L52052 42609
L52076 42597
L52087 42597
L52111 42609
L52123 42621
L52135 42645
L52135 42693
L52147 42716
L52159 42728
L52183 42740
L52230 42740
L52254 42728
L52266 42716
L52278 42693
L52278 42645
L52266 42621
L52254 42609
L52230 42597
L52183 42597
L52159 42609
L52147 42621
L52135 42645
" />
<path d="M75515 45576
L75529 45534
L75529 45462
L75515 45434
L75501 45419
L75472 45405
L75444 45405
L75415 45419
L75401 45434
L75386 45462
L75372 45519
L75358 45548
L75344 45562
L75315 45576
L75286 45576
L75258 45562
L75244 45548
L75229 45519
L75229 45448
L75244 45405
" />
<path d="M75229 45305
L75529 45234
L75315 45176
L75529 45119
L75229 45048
" />
<path d="M75229 44962
L75229 44777
L75344 44877
L75344 44834
L75358 44805
L75372 44791
L75401 44777
L75472 44777
L75501 44791
L75515 44805
L75529 44834
L75529 44919
L75515 44948
L75501 44962
" />
<path d="M78285 43447
L78142 43547
" />
<path d="M78285 43618
L77985 43618
L77985 43504
L77999 43476
L78013 43461
L78042 43447
L78085 43447
L78113 43461
L78128 43476
L78142 43504
L78142 43618
" />
<path d="M78128 43318
L78128 43218
" />
<path d="M78285 43176
L78285 43318
L77985 43318
L77985 43176
" />
<path d="M78271 43061
L78285 43018
L78285 42947
L78271 42918
L78256 42904
L78228 42890
L78199 42890
L78171 42904
L78156 42918
L78142 42947
L78128 43004
L78113 43033
L78099 43047
L78071 43061
L78042 43061
L78013 43047
L77999 43033
L77985 43004
L77985 42933
L77999 42890
" />
<path d="M78128 42761
L78128 42661
" />
<path d="M78285 42618
L78285 42761
L77985 42761
L77985 42618
" />
<path d="M77985 42533
L77985 42361
" />
<path d="M78285 42447
L77985 42447
" />
</g>
<g style="fill:#000000; fill-opacity:0.0; 
stroke:#000000; stroke-width:45; stroke-opacity:1; 
stroke-linecap:round; stroke-linejoin:round;">
<path d="M48592 41832
L48583 41845
L48557 41858
L48540 41858
L48514 41845
L48497 41818
L48489 41792
L48480 41738
L48480 41698
L48489 41645
L48497 41618
L48514 41592
L48540 41578
L48557 41578
L48583 41592
L48592 41605
" />
<path d="M48763 41858
L48660 41858
" />
<path d="M48712 41858
L48712 41578
L48694 41618
L48677 41645
L48660 41658
" />
<path d="M47903 38190
L47894 38203
L47868 38217
L47851 38217
L47825 38203
L47808 38177
L47800 38150
L47791 38097
L47791 38057
L47800 38003
L47808 37977
L47825 37950
L47851 37937
L47868 37937
L47894 37950
L47903 37963
" />
<path d="M47971 37963
L47980 37950
L47997 37937
L48040 37937
L48057 37950
L48065 37963
L48074 37990
L48074 38017
L48065 38057
L47963 38217
L48074 38217
" />
<path d="M40619 48722
L40611 48735
L40585 48748
L40568 48748
L40542 48735
L40525 48708
L40516 48682
L40508 48628
L40508 48588
L40516 48535
L40525 48508
L40542 48482
L40568 48468
L40585 48468
L40611 48482
L40619 48495
" />
<path d="M40679 48468
L40791 48468
L40731 48575
L40756 48575
L40773 48588
L40782 48602
L40791 48628
L40791 48695
L40782 48722
L40773 48735
L40756 48748
L40705 48748
L40688 48735
L40679 48722
" />
<path d="M45474 46585
L45487 46593
L45500 46619
L45500 46636
L45487 46662
L45460 46679
L45434 46687
L45380 46696
L45340 46696
L45287 46687
L45260 46679
L45234 46662
L45220 46636
L45220 46619
L45234 46593
L45247 46585
" />
<path d="M45314 46430
L45500 46430
" />
<path d="M45207 46473
L45407 46516
L45407 46405
" />
<path d="M44753 48722
L44744 48735
L44719 48748
L44702 48748
L44676 48735
L44659 48708
L44650 48682
L44642 48628
L44642 48588
L44650 48535
L44659 48508
L44676 48482
L44702 48468
L44719 48468
L44744 48482
L44753 48495
" />
<path d="M44916 48468
L44830 48468
L44822 48602
L44830 48588
L44847 48575
L44890 48575
L44907 48588
L44916 48602
L44924 48628
L44924 48695
L44916 48722
L44907 48735
L44890 48748
L44847 48748
L44830 48735
L44822 48722
" />
<path d="M40521 43210
L40512 43223
L40486 43236
L40469 43236
L40444 43223
L40426 43196
L40418 43170
L40409 43116
L40409 43076
L40418 43023
L40426 42996
L40444 42970
L40469 42956
L40486 42956
L40512 42970
L40521 42983
" />
<path d="M40675 42956
L40641 42956
L40624 42970
L40615 42983
L40598 43023
L40589 43076
L40589 43183
L40598 43210
L40606 43223
L40624 43236
L40658 43236
L40675 43223
L40684 43210
L40692 43183
L40692 43116
L40684 43090
L40675 43076
L40658 43063
L40624 43063
L40606 43076
L40598 43090
L40589 43116
" />
<path d="M40029 40159
L40020 40172
L39994 40185
L39977 40185
L39951 40172
L39934 40145
L39926 40119
L39917 40065
L39917 40025
L39926 39972
L39934 39945
L39951 39919
L39977 39905
L39994 39905
L40020 39919
L40029 39932
" />
<path d="M40089 39905
L40209 39905
L40131 40185
" />
<path d="M40718 38584
L40709 38597
L40683 38610
L40666 38610
L40640 38597
L40623 38570
L40615 38544
L40606 38490
L40606 38450
L40615 38397
L40623 38370
L40640 38344
L40666 38330
L40683 38330
L40709 38344
L40718 38357
" />
<path d="M40820 38450
L40803 38437
L40795 38424
L40786 38397
L40786 38384
L40795 38357
L40803 38344
L40820 38330
L40855 38330
L40872 38344
L40880 38357
L40889 38384
L40889 38397
L40880 38424
L40872 38437
L40855 38450
L40820 38450
L40803 38464
L40795 38477
L40786 38504
L40786 38557
L40795 38584
L40803 38597
L40820 38610
L40855 38610
L40872 38597
L40880 38584
L40889 38557
L40889 38504
L40880 38477
L40872 38464
L40855 38450
" />
<path d="M40029 39568
L40020 39581
L39994 39595
L39977 39595
L39951 39581
L39934 39555
L39926 39528
L39917 39475
L39917 39435
L39926 39381
L39934 39355
L39951 39328
L39977 39315
L39994 39315
L40020 39328
L40029 39341
" />
<path d="M40114 39595
L40149 39595
L40166 39581
L40174 39568
L40191 39528
L40200 39475
L40200 39368
L40191 39341
L40183 39328
L40166 39315
L40131 39315
L40114 39328
L40106 39341
L40097 39368
L40097 39435
L40106 39461
L40114 39475
L40131 39488
L40166 39488
L40183 39475
L40191 39461
L40200 39435
" />
<path d="M40041 40749
L40033 40762
L40007 40776
L39990 40776
L39964 40762
L39947 40736
L39938 40709
L39930 40656
L39930 40616
L39938 40562
L39947 40536
L39964 40509
L39990 40496
L40007 40496
L40033 40509
L40041 40522
" />
<path d="M40213 40776
L40110 40776
" />
<path d="M40161 40776
L40161 40496
L40144 40536
L40127 40562
L40110 40576
" />
<path d="M40324 40496
L40341 40496
L40358 40509
L40367 40522
L40376 40549
L40384 40602
L40384 40669
L40376 40722
L40367 40749
L40358 40762
L40341 40776
L40324 40776
L40307 40762
L40298 40749
L40290 40722
L40281 40669
L40281 40602
L40290 40549
L40298 40522
L40307 40509
L40324 40496
" />
<path d="M44292 43422
L44306 43431
L44319 43457
L44319 43474
L44306 43499
L44279 43517
L44252 43525
L44199 43534
L44159 43534
L44106 43525
L44079 43517
L44052 43499
L44039 43474
L44039 43457
L44052 43431
L44066 43422
" />
<path d="M44319 43251
L44319 43354
" />
<path d="M44319 43302
L44039 43302
L44079 43319
L44106 43337
L44119 43354
" />
<path d="M44319 43079
L44319 43182
" />
<path d="M44319 43131
L44039 43131
L44079 43148
L44106 43165
L44119 43182
" />
<path d="M46833 41241
L46824 41255
L46798 41268
L46781 41268
L46755 41255
L46738 41228
L46730 41201
L46721 41148
L46721 41108
L46730 41055
L46738 41028
L46755 41001
L46781 40988
L46798 40988
L46824 41001
L46833 41015
" />
<path d="M47004 41268
L46901 41268
" />
<path d="M46953 41268
L46953 40988
L46935 41028
L46918 41055
L46901 41068
" />
<path d="M47073 41015
L47081 41001
L47098 40988
L47141 40988
L47158 41001
L47167 41015
L47175 41041
L47175 41068
L47167 41108
L47064 41268
L47175 41268
" />
<path d="M46833 38288
L46824 38302
L46798 38315
L46781 38315
L46755 38302
L46738 38275
L46730 38248
L46721 38195
L46721 38155
L46730 38102
L46738 38075
L46755 38048
L46781 38035
L46798 38035
L46824 38048
L46833 38062
" />
<path d="M47004 38315
L46901 38315
" />
<path d="M46953 38315
L46953 38035
L46935 38075
L46918 38102
L46901 38115
" />
<path d="M47064 38035
L47175 38035
L47115 38142
L47141 38142
L47158 38155
L47167 38168
L47175 38195
L47175 38262
L47167 38288
L47158 38302
L47141 38315
L47090 38315
L47073 38302
L47064 38288
" />
<path d="M43702 43422
L43715 43431
L43729 43457
L43729 43474
L43715 43499
L43689 43517
L43662 43525
L43609 43534
L43569 43534
L43515 43525
L43489 43517
L43462 43499
L43449 43474
L43449 43457
L43462 43431
L43475 43422
" />
<path d="M43729 43251
L43729 43354
" />
<path d="M43729 43302
L43449 43302
L43489 43319
L43515 43337
L43529 43354
" />
<path d="M43542 43097
L43729 43097
" />
<path d="M43435 43139
L43635 43182
L43635 43071
" />
<path d="M45418 42606
L45402 42610
L45375 42601
L45363 42589
L45354 42561
L45361 42530
L45373 42505
L45405 42462
L45433 42433
L45477 42402
L45502 42389
L45533 42382
L45561 42391
L45573 42403
L45581 42431
L45578 42446
" />
<path d="M45520 42747
L45447 42674
" />
<path d="M45484 42710
L45682 42512
L45641 42528
L45610 42535
L45589 42532
" />
<path d="M45833 42664
L45773 42603
L45672 42691
L45688 42688
L45709 42691
L45740 42721
L45742 42743
L45739 42758
L45726 42783
L45679 42830
L45654 42843
L45639 42846
L45617 42844
L45587 42813
L45584 42792
L45588 42776
" />
<path d="M45553 37304
L45545 37318
L45519 37331
L45502 37331
L45476 37318
L45459 37291
L45450 37264
L45442 37211
L45442 37171
L45450 37118
L45459 37091
L45476 37064
L45502 37051
L45519 37051
L45545 37064
L45553 37078
" />
<path d="M45725 37331
L45622 37331
" />
<path d="M45673 37331
L45673 37051
L45656 37091
L45639 37118
L45622 37131
" />
<path d="M45879 37051
L45845 37051
L45827 37064
L45819 37078
L45802 37118
L45793 37171
L45793 37278
L45802 37304
L45810 37318
L45827 37331
L45862 37331
L45879 37318
L45887 37304
L45896 37278
L45896 37211
L45887 37184
L45879 37171
L45862 37158
L45827 37158
L45810 37171
L45802 37184
L45793 37211
" />
<path d="M44391 37025
L44404 37033
L44418 37059
L44418 37076
L44404 37102
L44378 37119
L44351 37128
L44298 37136
L44258 37136
L44204 37128
L44178 37119
L44151 37102
L44138 37076
L44138 37059
L44151 37033
L44164 37025
" />
<path d="M44418 36853
L44418 36956
" />
<path d="M44418 36905
L44138 36905
L44178 36922
L44204 36939
L44218 36956
" />
<path d="M44138 36793
L44138 36673
L44418 36750
" />
<path d="M46340 31202
L46332 31215
L46306 31229
L46289 31229
L46263 31215
L46246 31189
L46238 31162
L46229 31109
L46229 31069
L46238 31015
L46246 30989
L46263 30962
L46289 30949
L46306 30949
L46332 30962
L46340 30975
" />
<path d="M46512 31229
L46409 31229
" />
<path d="M46460 31229
L46460 30949
L46443 30989
L46426 31015
L46409 31029
" />
<path d="M46615 31069
L46598 31055
L46589 31042
L46580 31015
L46580 31002
L46589 30975
L46598 30962
L46615 30949
L46649 30949
L46666 30962
L46675 30975
L46683 31002
L46683 31015
L46675 31042
L46666 31055
L46649 31069
L46615 31069
L46598 31082
L46589 31095
L46580 31122
L46580 31175
L46589 31202
L46598 31215
L46615 31229
L46649 31229
L46666 31215
L46675 31202
L46683 31175
L46683 31122
L46675 31095
L46666 31082
L46649 31069
" />
<path d="M46340 30808
L46332 30821
L46306 30835
L46289 30835
L46263 30821
L46246 30795
L46238 30768
L46229 30715
L46229 30675
L46238 30621
L46246 30595
L46263 30568
L46289 30555
L46306 30555
L46332 30568
L46340 30581
" />
<path d="M46409 30581
L46418 30568
L46435 30555
L46478 30555
L46495 30568
L46503 30581
L46512 30608
L46512 30635
L46503 30675
L46400 30835
L46512 30835
" />
<path d="M46623 30555
L46640 30555
L46658 30568
L46666 30581
L46675 30608
L46683 30661
L46683 30728
L46675 30781
L46666 30808
L46658 30821
L46640 30835
L46623 30835
L46606 30821
L46598 30808
L46589 30781
L46580 30728
L46580 30661
L46589 30608
L46598 30581
L46606 30568
L46623 30555
" />
<path d="M42619 30233
L42633 30242
L42646 30268
L42646 30285
L42633 30310
L42606 30328
L42579 30336
L42526 30345
L42486 30345
L42433 30336
L42406 30328
L42379 30310
L42366 30285
L42366 30268
L42379 30242
L42393 30233
" />
<path d="M42393 30165
L42379 30156
L42366 30139
L42366 30096
L42379 30079
L42393 30070
L42419 30062
L42446 30062
L42486 30070
L42646 30173
L42646 30062
" />
<path d="M42646 29890
L42646 29993
" />
<path d="M42646 29942
L42366 29942
L42406 29959
L42433 29976
L42446 29993
" />
<path d="M52443 48525
L52434 48538
L52409 48551
L52391 48551
L52366 48538
L52349 48511
L52340 48485
L52331 48431
L52331 48391
L52340 48338
L52349 48311
L52366 48285
L52391 48271
L52409 48271
L52434 48285
L52443 48298
" />
<path d="M52511 48298
L52520 48285
L52537 48271
L52580 48271
L52597 48285
L52606 48298
L52614 48325
L52614 48351
L52606 48391
L52503 48551
L52614 48551
" />
<path d="M52769 48365
L52769 48551
" />
<path d="M52726 48258
L52683 48458
L52794 48458
" />
<path d="M52837 44883
L52828 44896
L52802 44910
L52785 44910
L52759 44896
L52742 44870
L52734 44843
L52725 44790
L52725 44750
L52734 44696
L52742 44670
L52759 44643
L52785 44630
L52802 44630
L52828 44643
L52837 44656
" />
<path d="M52905 44656
L52914 44643
L52931 44630
L52974 44630
L52991 44643
L52999 44656
L53008 44683
L53008 44710
L52999 44750
L52897 44910
L53008 44910
" />
<path d="M53171 44630
L53085 44630
L53077 44763
L53085 44750
L53102 44736
L53145 44736
L53162 44750
L53171 44763
L53179 44790
L53179 44856
L53171 44883
L53162 44896
L53145 44910
L53102 44910
L53085 44896
L53077 44883
" />
<path d="M76951 42718
L76942 42731
L76916 42744
L76899 42744
L76874 42731
L76856 42704
L76848 42678
L76839 42624
L76839 42584
L76848 42531
L76856 42504
L76874 42478
L76899 42464
L76916 42464
L76942 42478
L76951 42491
" />
<path d="M77019 42491
L77028 42478
L77045 42464
L77088 42464
L77105 42478
L77114 42491
L77122 42518
L77122 42544
L77114 42584
L77011 42744
L77122 42744
" />
<path d="M77182 42464
L77302 42464
L77225 42744
" />
<path d="M58564 47950
L58577 47958
L58591 47984
L58591 48001
L58577 48027
L58551 48044
L58524 48053
L58471 48061
L58431 48061
L58377 48053
L58351 48044
L58324 48027
L58311 48001
L58311 47984
L58324 47958
L58337 47950
" />
<path d="M58337 47881
L58324 47873
L58311 47856
L58311 47813
L58324 47796
L58337 47787
L58364 47778
L58391 47778
L58431 47787
L58591 47890
L58591 47778
" />
<path d="M58431 47676
L58417 47693
L58404 47701
L58377 47710
L58364 47710
L58337 47701
L58324 47693
L58311 47676
L58311 47641
L58324 47624
L58337 47616
L58364 47607
L58377 47607
L58404 47616
L58417 47624
L58431 47641
L58431 47676
L58444 47693
L58457 47701
L58484 47710
L58537 47710
L58564 47701
L58577 47693
L58591 47676
L58591 47641
L58577 47624
L58564 47616
L58537 47607
L58484 47607
L58457 47616
L58444 47624
L58431 47641
" />
<path d="M54233 48540
L54247 48549
L54260 48575
L54260 48592
L54247 48618
L54220 48635
L54193 48643
L54140 48652
L54100 48652
L54047 48643
L54020 48635
L53993 48618
L53980 48592
L53980 48575
L53993 48549
L54007 48540
" />
<path d="M54007 48472
L53993 48463
L53980 48446
L53980 48403
L53993 48386
L54007 48378
L54033 48369
L54060 48369
L54100 48378
L54260 48480
L54260 48369
" />
<path d="M54260 48283
L54260 48249
L54247 48232
L54233 48223
L54193 48206
L54140 48198
L54033 48198
L54007 48206
L53993 48215
L53980 48232
L53980 48266
L53993 48283
L54007 48292
L54033 48300
L54100 48300
L54127 48292
L54140 48283
L54153 48266
L54153 48232
L54140 48215
L54127 48206
L54100 48198
" />
<path d="M60120 44686
L60111 44699
L60086 44713
L60069 44713
L60043 44699
L60026 44673
L60017 44646
L60009 44593
L60009 44553
L60017 44499
L60026 44473
L60043 44446
L60069 44433
L60086 44433
L60111 44446
L60120 44459
" />
<path d="M60180 44433
L60291 44433
L60231 44539
L60257 44539
L60274 44553
L60283 44566
L60291 44593
L60291 44659
L60283 44686
L60274 44699
L60257 44713
L60206 44713
L60189 44699
L60180 44686
" />
<path d="M60463 44713
L60360 44713
" />
<path d="M60411 44713
L60411 44433
L60394 44473
L60377 44499
L60360 44513
" />
<path d="M53446 32005
L53459 32014
L53473 32039
L53473 32056
L53459 32082
L53433 32099
L53406 32108
L53353 32116
L53313 32116
L53259 32108
L53233 32099
L53206 32082
L53193 32056
L53193 32039
L53206 32014
L53219 32005
" />
<path d="M53193 31945
L53193 31834
L53299 31894
L53299 31868
L53313 31851
L53326 31842
L53353 31834
L53419 31834
L53446 31842
L53459 31851
L53473 31868
L53473 31919
L53459 31936
L53446 31945
" />
<path d="M53219 31765
L53206 31756
L53193 31739
L53193 31696
L53206 31679
L53219 31671
L53246 31662
L53273 31662
L53313 31671
L53473 31774
L53473 31662
" />
<path d="M54037 32005
L54050 32014
L54063 32039
L54063 32056
L54050 32082
L54023 32099
L53997 32108
L53943 32116
L53903 32116
L53850 32108
L53823 32099
L53797 32082
L53783 32056
L53783 32039
L53797 32014
L53810 32005
" />
<path d="M53783 31945
L53783 31834
L53890 31894
L53890 31868
L53903 31851
L53917 31842
L53943 31834
L54010 31834
L54037 31842
L54050 31851
L54063 31868
L54063 31919
L54050 31936
L54037 31945
" />
<path d="M53783 31774
L53783 31662
L53890 31722
L53890 31696
L53903 31679
L53917 31671
L53943 31662
L54010 31662
L54037 31671
L54050 31679
L54063 31696
L54063 31748
L54050 31765
L54037 31774
" />
<path d="M54627 32005
L54640 32014
L54654 32039
L54654 32056
L54640 32082
L54614 32099
L54587 32108
L54534 32116
L54494 32116
L54440 32108
L54414 32099
L54387 32082
L54374 32056
L54374 32039
L54387 32014
L54400 32005
" />
<path d="M54374 31945
L54374 31834
L54480 31894
L54480 31868
L54494 31851
L54507 31842
L54534 31834
L54600 31834
L54627 31842
L54640 31851
L54654 31868
L54654 31919
L54640 31936
L54627 31945
" />
<path d="M54467 31679
L54654 31679
" />
<path d="M54360 31722
L54560 31765
L54560 31654
" />
<path d="M55218 32005
L55231 32014
L55244 32039
L55244 32056
L55231 32082
L55204 32099
L55178 32108
L55124 32116
L55084 32116
L55031 32108
L55004 32099
L54978 32082
L54964 32056
L54964 32039
L54978 32014
L54991 32005
" />
<path d="M54964 31945
L54964 31834
L55071 31894
L55071 31868
L55084 31851
L55098 31842
L55124 31834
L55191 31834
L55218 31842
L55231 31851
L55244 31868
L55244 31919
L55231 31936
L55218 31945
" />
<path d="M54964 31671
L54964 31756
L55098 31765
L55084 31756
L55071 31739
L55071 31696
L55084 31679
L55098 31671
L55124 31662
L55191 31662
L55218 31671
L55231 31679
L55244 31696
L55244 31739
L55231 31756
L55218 31765
" />
<path d="M55808 32005
L55821 32014
L55835 32039
L55835 32056
L55821 32082
L55795 32099
L55768 32108
L55715 32116
L55675 32116
L55621 32108
L55595 32099
L55568 32082
L55555 32056
L55555 32039
L55568 32014
L55581 32005
" />
<path d="M55555 31945
L55555 31834
L55661 31894
L55661 31868
L55675 31851
L55688 31842
L55715 31834
L55781 31834
L55808 31842
L55821 31851
L55835 31868
L55835 31919
L55821 31936
L55808 31945
" />
<path d="M55555 31679
L55555 31714
L55568 31731
L55581 31739
L55621 31756
L55675 31765
L55781 31765
L55808 31756
L55821 31748
L55835 31731
L55835 31696
L55821 31679
L55808 31671
L55781 31662
L55715 31662
L55688 31671
L55675 31679
L55661 31696
L55661 31731
L55675 31748
L55688 31756
L55715 31765
" />
<path d="M60415 31989
L60407 32003
L60381 32016
L60364 32016
L60338 32003
L60321 31976
L60312 31949
L60304 31896
L60304 31856
L60312 31803
L60321 31776
L60338 31749
L60364 31736
L60381 31736
L60407 31749
L60415 31763
" />
<path d="M60570 31829
L60570 32016
" />
<path d="M60527 31723
L60484 31923
L60595 31923
" />
<path d="M60655 31763
L60664 31749
L60681 31736
L60724 31736
L60741 31749
L60750 31763
L60758 31789
L60758 31816
L60750 31856
L60647 32016
L60758 32016
" />
<path d="M47344 35155
L47357 35163
L47370 35189
L47370 35206
L47357 35232
L47330 35249
L47304 35257
L47250 35266
L47210 35266
L47157 35257
L47130 35249
L47104 35232
L47090 35206
L47090 35189
L47104 35163
L47117 35155
" />
<path d="M47184 35000
L47370 35000
" />
<path d="M47077 35043
L47277 35086
L47277 34975
" />
<path d="M47090 34923
L47090 34812
L47197 34872
L47197 34846
L47210 34829
L47224 34820
L47250 34812
L47317 34812
L47344 34820
L47357 34829
L47370 34846
L47370 34897
L47357 34915
L47344 34923
" />
<path d="M48229 32103
L48243 32112
L48256 32138
L48256 32155
L48243 32181
L48216 32198
L48189 32206
L48136 32215
L48096 32215
L48043 32206
L48016 32198
L47989 32181
L47976 32155
L47976 32138
L47989 32112
L48003 32103
" />
<path d="M48069 31949
L48256 31949
" />
<path d="M47963 31992
L48163 32035
L48163 31923
" />
<path d="M48069 31778
L48256 31778
" />
<path d="M47963 31821
L48163 31863
L48163 31752
" />
<path d="M60120 45277
L60111 45290
L60086 45303
L60069 45303
L60043 45290
L60026 45263
L60017 45237
L60009 45183
L60009 45143
L60017 45090
L60026 45063
L60043 45037
L60069 45023
L60086 45023
L60111 45037
L60120 45050
" />
<path d="M60274 45117
L60274 45303
" />
<path d="M60231 45010
L60189 45210
L60300 45210
" />
<path d="M60377 45303
L60411 45303
L60429 45290
L60437 45277
L60454 45237
L60463 45183
L60463 45077
L60454 45050
L60446 45037
L60429 45023
L60394 45023
L60377 45037
L60369 45050
L60360 45077
L60360 45143
L60369 45170
L60377 45183
L60394 45197
L60429 45197
L60446 45183
L60454 45170
L60463 45143
" />
<path d="M59634 39916
L59637 39931
L59629 39959
L59617 39971
L59589 39980
L59558 39973
L59533 39960
L59489 39929
L59461 39900
L59429 39857
L59417 39832
L59410 39801
L59419 39773
L59431 39761
L59458 39752
L59474 39756
" />
<path d="M59570 39622
L59509 39682
L59598 39782
L59594 39767
L59597 39745
L59627 39715
L59649 39712
L59664 39716
L59689 39729
L59736 39776
L59749 39801
L59753 39816
L59750 39838
L59720 39868
L59698 39871
L59683 39867
" />
<path d="M59655 39537
L59667 39525
L59689 39522
L59704 39525
L59729 39538
L59773 39570
L59820 39617
L59852 39661
L59864 39685
L59868 39701
L59865 39723
L59853 39735
L59831 39737
L59816 39734
L59791 39721
L59747 39690
L59700 39642
L59668 39599
L59656 39574
L59652 39558
L59655 39537
" />
<path d="M54018 39568
L54009 39581
L53983 39595
L53966 39595
L53941 39581
L53923 39555
L53915 39528
L53906 39475
L53906 39435
L53915 39381
L53923 39355
L53941 39328
L53966 39315
L53983 39315
L54009 39328
L54018 39341
" />
<path d="M54181 39315
L54095 39315
L54086 39448
L54095 39435
L54112 39421
L54155 39421
L54172 39435
L54181 39448
L54189 39475
L54189 39541
L54181 39568
L54172 39581
L54155 39595
L54112 39595
L54095 39581
L54086 39568
" />
<path d="M54361 39595
L54258 39595
" />
<path d="M54309 39595
L54309 39315
L54292 39355
L54275 39381
L54258 39395
" />
<path d="M52954 43324
L52967 43332
L52980 43358
L52980 43375
L52967 43401
L52940 43418
L52914 43427
L52860 43435
L52820 43435
L52767 43427
L52740 43418
L52714 43401
L52700 43375
L52700 43358
L52714 43332
L52727 43324
" />
<path d="M52700 43161
L52700 43247
L52834 43255
L52820 43247
L52807 43230
L52807 43187
L52820 43170
L52834 43161
L52860 43152
L52927 43152
L52954 43161
L52967 43170
L52980 43187
L52980 43230
L52967 43247
L52954 43255
" />
<path d="M52727 43084
L52714 43075
L52700 43058
L52700 43015
L52714 42998
L52727 42990
L52754 42981
L52780 42981
L52820 42990
L52980 43092
L52980 42981
" />
<path d="M60674 43788
L60658 43791
L60631 43782
L60619 43770
L60610 43742
L60616 43712
L60629 43687
L60661 43643
L60689 43615
L60733 43583
L60758 43570
L60789 43563
L60817 43572
L60829 43584
L60837 43612
L60834 43627
" />
<path d="M60968 43724
L60907 43663
L60807 43751
L60823 43748
L60844 43751
L60874 43781
L60877 43802
L60874 43818
L60861 43843
L60814 43890
L60789 43903
L60773 43906
L60752 43903
L60722 43873
L60719 43852
L60722 43836
" />
<path d="M61017 43772
L61095 43851
L60977 43884
L60996 43902
L60998 43924
L60995 43939
L60982 43964
L60935 44011
L60910 44024
L60895 44027
L60873 44025
L60837 43988
L60834 43967
L60837 43951
" />
<path d="M53821 45277
L53812 45290
L53787 45303
L53769 45303
L53744 45290
L53727 45263
L53718 45237
L53709 45183
L53709 45143
L53718 45090
L53727 45063
L53744 45037
L53769 45023
L53787 45023
L53812 45037
L53821 45050
" />
<path d="M53984 45023
L53898 45023
L53889 45157
L53898 45143
L53915 45130
L53958 45130
L53975 45143
L53984 45157
L53992 45183
L53992 45250
L53984 45277
L53975 45290
L53958 45303
L53915 45303
L53898 45290
L53889 45277
" />
<path d="M54147 45117
L54147 45303
" />
<path d="M54104 45010
L54061 45210
L54172 45210
" />
<path d="M68111 34367
L68125 34376
L68138 34401
L68138 34419
L68125 34444
L68098 34461
L68071 34470
L68018 34479
L67978 34479
L67925 34470
L67898 34461
L67871 34444
L67858 34419
L67858 34401
L67871 34376
L67885 34367
" />
<path d="M67858 34204
L67858 34290
L67991 34299
L67978 34290
L67965 34273
L67965 34230
L67978 34213
L67991 34204
L68018 34196
L68085 34196
L68111 34204
L68125 34213
L68138 34230
L68138 34273
L68125 34290
L68111 34299
" />
<path d="M67858 34033
L67858 34119
L67991 34127
L67978 34119
L67965 34101
L67965 34059
L67978 34041
L67991 34033
L68018 34024
L68085 34024
L68111 34033
L68125 34041
L68138 34059
L68138 34101
L68125 34119
L68111 34127
" />
<path d="M45769 44308
L45782 44317
L45795 44342
L45795 44360
L45782 44385
L45755 44402
L45729 44411
L45675 44420
L45635 44420
L45582 44411
L45555 44402
L45529 44385
L45515 44360
L45515 44342
L45529 44317
L45542 44308
" />
<path d="M45515 44154
L45515 44188
L45529 44205
L45542 44214
L45582 44231
L45635 44240
L45742 44240
L45769 44231
L45782 44222
L45795 44205
L45795 44171
L45782 44154
L45769 44145
L45742 44137
L45675 44137
L45649 44145
L45635 44154
L45622 44171
L45622 44205
L45635 44222
L45649 44231
L45675 44240
" />
<path d="M45515 44025
L45515 44008
L45529 43991
L45542 43982
L45569 43974
L45622 43965
L45689 43965
L45742 43974
L45769 43982
L45782 43991
L45795 44008
L45795 44025
L45782 44042
L45769 44051
L45742 44060
L45689 44068
L45622 44068
L45569 44060
L45542 44051
L45529 44042
L45515 44025
" />
<path d="M50100 45785
L50113 45793
L50126 45819
L50126 45836
L50113 45862
L50086 45879
L50060 45887
L50006 45896
L49966 45896
L49913 45887
L49886 45879
L49860 45862
L49846 45836
L49846 45819
L49860 45793
L49873 45785
" />
<path d="M49846 45630
L49846 45665
L49860 45682
L49873 45690
L49913 45707
L49966 45716
L50073 45716
L50100 45707
L50113 45699
L50126 45682
L50126 45647
L50113 45630
L50100 45622
L50073 45613
L50006 45613
L49980 45622
L49966 45630
L49953 45647
L49953 45682
L49966 45699
L49980 45707
L50006 45716
" />
<path d="M50126 45442
L50126 45545
" />
<path d="M50126 45493
L49846 45493
L49886 45510
L49913 45527
L49926 45545
" />
</g>
<g style="fill:#000000; fill-opacity:0.0; 
stroke:#000000; stroke-width:50; stroke-opacity:1; 
stroke-linecap:round; stroke-linejoin:round;">
<path d="M66276 34931
L66264 34943
L66228 34955
L66204 34955
L66169 34943
L66145 34919
L66133 34896
L66121 34848
L66121 34812
L66133 34765
L66145 34741
L66169 34717
L66204 34705
L66228 34705
L66264 34717
L66276 34729
" />
<path d="M66490 34705
L66442 34705
L66419 34717
L66407 34729
L66383 34765
L66371 34812
L66371 34907
L66383 34931
L66395 34943
L66419 34955
L66466 34955
L66490 34943
L66502 34931
L66514 34907
L66514 34848
L66502 34824
L66490 34812
L66466 34800
L66419 34800
L66395 34812
L66383 34824
L66371 34848
" />
<path d="M66609 34729
L66621 34717
L66645 34705
L66704 34705
L66728 34717
L66740 34729
L66752 34753
L66752 34777
L66740 34812
L66597 34955
L66752 34955
" />
<path d="M66276 31683
L66264 31695
L66228 31707
L66204 31707
L66169 31695
L66145 31671
L66133 31648
L66121 31600
L66121 31564
L66133 31517
L66145 31493
L66169 31469
L66204 31457
L66228 31457
L66264 31469
L66276 31481
" />
<path d="M66490 31457
L66442 31457
L66419 31469
L66407 31481
L66383 31517
L66371 31564
L66371 31659
L66383 31683
L66395 31695
L66419 31707
L66466 31707
L66490 31695
L66502 31683
L66514 31659
L66514 31600
L66502 31576
L66490 31564
L66466 31552
L66419 31552
L66395 31564
L66383 31576
L66371 31600
" />
<path d="M66597 31457
L66752 31457
L66669 31552
L66704 31552
L66728 31564
L66740 31576
L66752 31600
L66752 31659
L66740 31683
L66728 31695
L66704 31707
L66633 31707
L66609 31695
L66597 31683
" />
<path d="M65588 33511
L65288 33511
" />
<path d="M65559 33249
L65574 33261
L65588 33297
L65588 33321
L65574 33357
L65545 33380
L65517 33392
L65459 33404
L65417 33404
L65359 33392
L65331 33380
L65302 33357
L65288 33321
L65288 33297
L65302 33261
L65317 33249
" />
<path d="M65288 33035
L65288 33083
L65302 33107
L65317 33118
L65359 33142
L65417 33154
L65531 33154
L65559 33142
L65574 33130
L65588 33107
L65588 33059
L65574 33035
L65559 33023
L65531 33011
L65459 33011
L65431 33023
L65417 33035
L65402 33059
L65402 33107
L65417 33130
L65431 33142
L65459 33154
" />
</g>
<g style="fill:#000000; fill-opacity:0.0; 
stroke:#000000; stroke-width:120; stroke-opacity:1; 
stroke-linecap:round; stroke-linejoin:round;">
<path d="M77732 33710
L77132 33710
L77132 33482
L77160 33424
L77189 33396
L77246 33367
L77332 33367
L77389 33396
L77417 33424
L77446 33482
L77446 33710
" />
<path d="M77732 32796
L77732 33139
" />
<path d="M77732 32967
L77132 32967
L77217 33024
L77275 33082
L77303 33139
" />
<path d="M77501 35466
L77444 35437
L77387 35380
L77301 35294
L77244 35266
L77187 35266
" />
<path d="M77216 35409
L77159 35380
L77101 35323
L77073 35209
L77073 35009
L77101 34894
L77159 34837
L77216 34809
L77330 34809
L77387 34837
L77444 34894
L77473 35009
L77473 35209
L77444 35323
L77387 35380
L77330 35409
L77216 35409
" />
<path d="M78044 35409
L77701 35409
" />
<path d="M77873 35409
L77873 34809
L77816 34894
L77759 34952
L77701 34980
" />
<path d="M74647 37631
L74590 37603
L74533 37546
L74447 37460
L74390 37431
L74333 37431
" />
<path d="M74361 37574
L74304 37546
L74247 37488
L74219 37374
L74219 37174
L74247 37060
L74304 37003
L74361 36974
L74476 36974
L74533 37003
L74590 37060
L74619 37174
L74619 37374
L74590 37488
L74533 37546
L74476 37574
L74361 37574
" />
<path d="M74847 37031
L74876 37003
L74933 36974
L75076 36974
L75133 37003
L75161 37031
L75190 37088
L75190 37146
L75161 37231
L74819 37574
L75190 37574
" />
<path d="M63222 30765
L63193 30822
L63136 30880
L63050 30965
L63022 31022
L63022 31080
" />
<path d="M63165 31051
L63136 31108
L63079 31165
L62965 31194
L62765 31194
L62650 31165
L62593 31108
L62565 31051
L62565 30937
L62593 30880
L62650 30822
L62765 30794
L62965 30794
L63079 30822
L63136 30880
L63165 30937
L63165 31051
" />
<path d="M62565 30594
L62565 30222
L62793 30422
L62793 30337
L62822 30280
L62850 30251
L62907 30222
L63050 30222
L63107 30251
L63136 30280
L63165 30337
L63165 30508
L63136 30565
L63107 30594
" />
</g>
<g style="fill:#000000; fill-opacity:0.0; 
stroke:#000000; stroke-width:45; stroke-opacity:1; 
stroke-linecap:round; stroke-linejoin:round;">
<path d="M44950 43433
L44890 43300
" />
<path d="M44847 43433
L44847 43153
L44916 43153
L44933 43167
L44941 43180
L44950 43207
L44950 43247
L44941 43273
L44933 43287
L44916 43300
L44847 43300
" />
<path d="M45121 43433
L45018 43433
" />
<path d="M45070 43433
L45070 43153
L45053 43193
L45036 43220
L45018 43233
" />
<path d="M75520 36053
L75387 36113
" />
<path d="M75520 36156
L75240 36156
L75240 36087
L75253 36070
L75267 36062
L75293 36053
L75333 36053
L75360 36062
L75373 36070
L75387 36087
L75387 36156
" />
<path d="M75240 35993
L75240 35882
L75347 35942
L75347 35916
L75360 35899
L75373 35890
L75400 35882
L75467 35882
L75493 35890
L75507 35899
L75520 35916
L75520 35967
L75507 35985
L75493 35993
" />
<path d="M43729 36841
L43595 36901
" />
<path d="M43729 36943
L43449 36943
L43449 36875
L43462 36858
L43475 36849
L43502 36841
L43542 36841
L43569 36849
L43582 36858
L43595 36875
L43595 36943
" />
<path d="M43542 36686
L43729 36686
" />
<path d="M43435 36729
L43635 36772
L43635 36661
" />
<path d="M43138 36841
L43005 36901
" />
<path d="M43138 36943
L42858 36943
L42858 36875
L42871 36858
L42885 36849
L42911 36841
L42951 36841
L42978 36849
L42991 36858
L43005 36875
L43005 36943
" />
<path d="M42858 36678
L42858 36763
L42991 36772
L42978 36763
L42965 36746
L42965 36703
L42978 36686
L42991 36678
L43018 36669
L43085 36669
L43111 36678
L43125 36686
L43138 36703
L43138 36746
L43125 36763
L43111 36772
" />
<path d="M46426 43827
L46366 43694
" />
<path d="M46323 43827
L46323 43547
L46392 43547
L46409 43560
L46418 43574
L46426 43600
L46426 43640
L46418 43667
L46409 43680
L46392 43694
L46323 43694
" />
<path d="M46580 43547
L46546 43547
L46529 43560
L46520 43574
L46503 43614
L46495 43667
L46495 43774
L46503 43800
L46512 43814
L46529 43827
L46563 43827
L46580 43814
L46589 43800
L46598 43774
L46598 43707
L46589 43680
L46580 43667
L46563 43654
L46529 43654
L46512 43667
L46503 43680
L46495 43707
" />
<path d="M46426 43236
L46366 43103
" />
<path d="M46323 43236
L46323 42956
L46392 42956
L46409 42970
L46418 42983
L46426 43010
L46426 43050
L46418 43076
L46409 43090
L46392 43103
L46323 43103
" />
<path d="M46486 42956
L46606 42956
L46529 43236
" />
<path d="M42547 36841
L42414 36901
" />
<path d="M42547 36943
L42267 36943
L42267 36875
L42281 36858
L42294 36849
L42321 36841
L42361 36841
L42387 36849
L42401 36858
L42414 36875
L42414 36943
" />
<path d="M42387 36738
L42374 36755
L42361 36763
L42334 36772
L42321 36772
L42294 36763
L42281 36755
L42267 36738
L42267 36703
L42281 36686
L42294 36678
L42321 36669
L42334 36669
L42361 36678
L42374 36686
L42387 36703
L42387 36738
L42401 36755
L42414 36763
L42441 36772
L42494 36772
L42521 36763
L42534 36755
L42547 36738
L42547 36703
L42534 36686
L42521 36678
L42494 36669
L42441 36669
L42414 36678
L42401 36686
L42387 36703
" />
<path d="M45639 36740
L45579 36607
" />
<path d="M45536 36740
L45536 36460
L45605 36460
L45622 36474
L45630 36487
L45639 36514
L45639 36554
L45630 36580
L45622 36594
L45605 36607
L45536 36607
" />
<path d="M45725 36740
L45759 36740
L45776 36727
L45785 36714
L45802 36674
L45810 36620
L45810 36514
L45802 36487
L45793 36474
L45776 36460
L45742 36460
L45725 36474
L45716 36487
L45707 36514
L45707 36580
L45716 36607
L45725 36620
L45742 36634
L45776 36634
L45793 36620
L45802 36607
L45810 36580
" />
<path d="M47423 40480
L47363 40347
" />
<path d="M47320 40480
L47320 40200
L47389 40200
L47406 40214
L47415 40227
L47423 40254
L47423 40294
L47415 40320
L47406 40334
L47389 40347
L47320 40347
" />
<path d="M47595 40480
L47492 40480
" />
<path d="M47543 40480
L47543 40200
L47526 40240
L47509 40267
L47492 40280
" />
<path d="M47706 40200
L47723 40200
L47740 40214
L47749 40227
L47757 40254
L47766 40307
L47766 40374
L47757 40427
L47749 40454
L47740 40467
L47723 40480
L47706 40480
L47689 40467
L47680 40454
L47672 40427
L47663 40374
L47663 40307
L47672 40254
L47680 40227
L47689 40214
L47706 40200
" />
<path d="M47423 39103
L47363 38969
" />
<path d="M47320 39103
L47320 38823
L47389 38823
L47406 38836
L47415 38849
L47423 38876
L47423 38916
L47415 38943
L47406 38956
L47389 38969
L47320 38969
" />
<path d="M47595 39103
L47492 39103
" />
<path d="M47543 39103
L47543 38823
L47526 38863
L47509 38889
L47492 38903
" />
<path d="M47663 38849
L47672 38836
L47689 38823
L47732 38823
L47749 38836
L47757 38849
L47766 38876
L47766 38903
L47757 38943
L47655 39103
L47766 39103
" />
<path d="M73847 36139
L73713 36199
" />
<path d="M73847 36242
L73567 36242
L73567 36173
L73580 36156
L73593 36147
L73620 36139
L73660 36139
L73687 36147
L73700 36156
L73713 36173
L73713 36242
" />
<path d="M73847 35967
L73847 36070
" />
<path d="M73847 36019
L73567 36019
L73607 36036
L73633 36053
L73647 36070
" />
<path d="M73567 35907
L73567 35796
L73673 35856
L73673 35830
L73687 35813
L73700 35805
L73727 35796
L73793 35796
L73820 35805
L73833 35813
L73847 35830
L73847 35882
L73833 35899
L73820 35907
" />
<path d="M77344 36543
L77284 36410
" />
<path d="M77242 36543
L77242 36263
L77310 36263
L77327 36277
L77336 36290
L77344 36317
L77344 36357
L77336 36383
L77327 36397
L77310 36410
L77242 36410
" />
<path d="M77516 36543
L77413 36543
" />
<path d="M77464 36543
L77464 36263
L77447 36303
L77430 36330
L77413 36343
" />
<path d="M77670 36357
L77670 36543
" />
<path d="M77627 36250
L77584 36450
L77696 36450
" />
<path d="M76557 36937
L76497 36804
" />
<path d="M76454 36937
L76454 36657
L76523 36657
L76540 36671
L76548 36684
L76557 36711
L76557 36751
L76548 36777
L76540 36791
L76523 36804
L76454 36804
" />
<path d="M76728 36937
L76626 36937
" />
<path d="M76677 36937
L76677 36657
L76660 36697
L76643 36724
L76626 36737
" />
<path d="M76891 36657
L76806 36657
L76797 36791
L76806 36777
L76823 36764
L76866 36764
L76883 36777
L76891 36791
L76900 36817
L76900 36884
L76891 36911
L76883 36924
L76866 36937
L76823 36937
L76806 36924
L76797 36911
" />
<path d="M74884 38709
L74824 38576
" />
<path d="M74781 38709
L74781 38429
L74850 38429
L74867 38442
L74875 38456
L74884 38482
L74884 38522
L74875 38549
L74867 38562
L74850 38576
L74781 38576
" />
<path d="M75055 38709
L74952 38709
" />
<path d="M75004 38709
L75004 38429
L74987 38469
L74970 38496
L74952 38509
" />
<path d="M75210 38429
L75175 38429
L75158 38442
L75150 38456
L75132 38496
L75124 38549
L75124 38656
L75132 38682
L75141 38696
L75158 38709
L75192 38709
L75210 38696
L75218 38682
L75227 38656
L75227 38589
L75218 38562
L75210 38549
L75192 38536
L75158 38536
L75141 38549
L75132 38562
L75124 38589
" />
<path d="M43532 48737
L43398 48797
" />
<path d="M43532 48840
L43252 48840
L43252 48772
L43265 48754
L43278 48746
L43305 48737
L43345 48737
L43372 48746
L43385 48754
L43398 48772
L43398 48840
" />
<path d="M43532 48566
L43532 48669
" />
<path d="M43532 48617
L43252 48617
L43292 48634
L43318 48652
L43332 48669
" />
<path d="M43252 48506
L43252 48386
L43532 48463
" />
<path d="M42010 43236
L41950 43103
" />
<path d="M41907 43236
L41907 42956
L41975 42956
L41993 42970
L42001 42983
L42010 43010
L42010 43050
L42001 43076
L41993 43090
L41975 43103
L41907 43103
" />
<path d="M42181 43236
L42078 43236
" />
<path d="M42130 43236
L42130 42956
L42113 42996
L42095 43023
L42078 43036
" />
<path d="M42284 43076
L42267 43063
L42258 43050
L42250 43023
L42250 43010
L42258 42983
L42267 42970
L42284 42956
L42318 42956
L42335 42970
L42344 42983
L42353 43010
L42353 43023
L42344 43050
L42335 43063
L42318 43076
L42284 43076
L42267 43090
L42258 43103
L42250 43130
L42250 43183
L42258 43210
L42267 43223
L42284 43236
L42318 43236
L42335 43223
L42344 43210
L42353 43183
L42353 43130
L42344 43103
L42335 43090
L42318 43076
" />
<path d="M76504 41257
L76371 41317
" />
<path d="M76504 41360
L76224 41360
L76224 41291
L76237 41274
L76251 41266
L76277 41257
L76317 41257
L76344 41266
L76357 41274
L76371 41291
L76371 41360
" />
<path d="M76504 41086
L76504 41188
" />
<path d="M76504 41137
L76224 41137
L76264 41154
L76291 41171
L76304 41188
" />
<path d="M76504 41000
L76504 40966
L76491 40948
L76477 40940
L76437 40923
L76384 40914
L76277 40914
L76251 40923
L76237 40931
L76224 40948
L76224 40983
L76237 41000
L76251 41008
L76277 41017
L76344 41017
L76371 41008
L76384 41000
L76397 40983
L76397 40948
L76384 40931
L76371 40923
L76344 40914
" />
<path d="M74884 39890
L74824 39757
" />
<path d="M74781 39890
L74781 39610
L74850 39610
L74867 39623
L74875 39637
L74884 39663
L74884 39703
L74875 39730
L74867 39743
L74850 39757
L74781 39757
" />
<path d="M74952 39637
L74961 39623
L74978 39610
L75021 39610
L75038 39623
L75047 39637
L75055 39663
L75055 39690
L75047 39730
L74944 39890
L75055 39890
" />
<path d="M75167 39610
L75184 39610
L75201 39623
L75210 39637
L75218 39663
L75227 39717
L75227 39783
L75218 39837
L75210 39863
L75201 39877
L75184 39890
L75167 39890
L75150 39877
L75141 39863
L75132 39837
L75124 39783
L75124 39717
L75132 39663
L75141 39637
L75150 39623
L75167 39610
" />
<path d="M74884 39299
L74824 39166
" />
<path d="M74781 39299
L74781 39019
L74850 39019
L74867 39033
L74875 39046
L74884 39073
L74884 39113
L74875 39139
L74867 39153
L74850 39166
L74781 39166
" />
<path d="M74952 39046
L74961 39033
L74978 39019
L75021 39019
L75038 39033
L75047 39046
L75055 39073
L75055 39099
L75047 39139
L74944 39299
L75055 39299
" />
<path d="M75227 39299
L75124 39299
" />
<path d="M75175 39299
L75175 39019
L75158 39059
L75141 39086
L75124 39099
" />
<path d="M76504 42340
L76371 42400
" />
<path d="M76504 42442
L76224 42442
L76224 42374
L76237 42357
L76251 42348
L76277 42340
L76317 42340
L76344 42348
L76357 42357
L76371 42374
L76371 42442
" />
<path d="M76251 42271
L76237 42262
L76224 42245
L76224 42202
L76237 42185
L76251 42177
L76277 42168
L76304 42168
L76344 42177
L76504 42280
L76504 42168
" />
<path d="M76251 42100
L76237 42091
L76224 42074
L76224 42031
L76237 42014
L76251 42005
L76277 41997
L76304 41997
L76344 42005
L76504 42108
L76504 41997
" />
<path d="M65973 35548
L65839 35608
" />
<path d="M65973 35651
L65693 35651
L65693 35583
L65706 35565
L65719 35557
L65746 35548
L65786 35548
L65813 35557
L65826 35565
L65839 35583
L65839 35651
" />
<path d="M65719 35480
L65706 35471
L65693 35454
L65693 35411
L65706 35394
L65719 35385
L65746 35377
L65773 35377
L65813 35385
L65973 35488
L65973 35377
" />
<path d="M65693 35317
L65693 35205
L65799 35265
L65799 35240
L65813 35223
L65826 35214
L65853 35205
L65919 35205
L65946 35214
L65959 35223
L65973 35240
L65973 35291
L65959 35308
L65946 35317
" />
<path d="M66563 35548
L66430 35608
" />
<path d="M66563 35651
L66283 35651
L66283 35583
L66297 35565
L66310 35557
L66337 35548
L66377 35548
L66403 35557
L66417 35565
L66430 35583
L66430 35651
" />
<path d="M66310 35480
L66297 35471
L66283 35454
L66283 35411
L66297 35394
L66310 35385
L66337 35377
L66363 35377
L66403 35385
L66563 35488
L66563 35377
" />
<path d="M66377 35223
L66563 35223
" />
<path d="M66270 35265
L66470 35308
L66470 35197
" />
<path d="M72862 36434
L72729 36494
" />
<path d="M72862 36537
L72582 36537
L72582 36468
L72596 36451
L72609 36443
L72636 36434
L72676 36434
L72702 36443
L72716 36451
L72729 36468
L72729 36537
" />
<path d="M72609 36366
L72596 36357
L72582 36340
L72582 36297
L72596 36280
L72609 36271
L72636 36263
L72662 36263
L72702 36271
L72862 36374
L72862 36263
" />
<path d="M72582 36100
L72582 36186
L72716 36194
L72702 36186
L72689 36168
L72689 36126
L72702 36108
L72716 36100
L72742 36091
L72809 36091
L72836 36100
L72849 36108
L72862 36126
L72862 36168
L72849 36186
L72836 36194
" />
<path d="M45553 36150
L45493 36016
" />
<path d="M45450 36150
L45450 35870
L45519 35870
L45536 35883
L45545 35896
L45553 35923
L45553 35963
L45545 35990
L45536 36003
L45519 36016
L45450 36016
" />
<path d="M45622 35896
L45630 35883
L45647 35870
L45690 35870
L45707 35883
L45716 35896
L45725 35923
L45725 35950
L45716 35990
L45613 36150
L45725 36150
" />
<path d="M45879 35870
L45845 35870
L45827 35883
L45819 35896
L45802 35936
L45793 35990
L45793 36096
L45802 36123
L45810 36136
L45827 36150
L45862 36150
L45879 36136
L45887 36123
L45896 36096
L45896 36030
L45887 36003
L45879 35990
L45862 35976
L45827 35976
L45810 35990
L45802 36003
L45793 36030
" />
<path d="M46340 32606
L46280 32473
" />
<path d="M46238 32606
L46238 32326
L46306 32326
L46323 32340
L46332 32353
L46340 32380
L46340 32420
L46332 32446
L46323 32460
L46306 32473
L46238 32473
" />
<path d="M46409 32353
L46418 32340
L46435 32326
L46478 32326
L46495 32340
L46503 32353
L46512 32380
L46512 32406
L46503 32446
L46400 32606
L46512 32606
" />
<path d="M46598 32606
L46632 32606
L46649 32593
L46658 32580
L46675 32540
L46683 32486
L46683 32380
L46675 32353
L46666 32340
L46649 32326
L46615 32326
L46598 32340
L46589 32353
L46580 32380
L46580 32446
L46589 32473
L46598 32486
L46615 32500
L46649 32500
L46666 32486
L46675 32473
L46683 32446
" />
<path d="M47173 31907
L47040 31967
" />
<path d="M47173 32009
L46893 32009
L46893 31941
L46907 31924
L46920 31915
L46947 31907
L46987 31907
L47013 31915
L47027 31924
L47040 31941
L47040 32009
" />
<path d="M46893 31847
L46893 31735
L47000 31795
L47000 31769
L47013 31752
L47027 31744
L47053 31735
L47120 31735
L47147 31744
L47160 31752
L47173 31769
L47173 31821
L47160 31838
L47147 31847
" />
<path d="M46893 31624
L46893 31607
L46907 31589
L46920 31581
L46947 31572
L47000 31564
L47067 31564
L47120 31572
L47147 31581
L47160 31589
L47173 31607
L47173 31624
L47160 31641
L47147 31649
L47120 31658
L47067 31667
L47000 31667
L46947 31658
L46920 31649
L46907 31641
L46893 31624
" />
<path d="M41268 30233
L41135 30293
" />
<path d="M41268 30336
L40988 30336
L40988 30268
L41001 30250
L41015 30242
L41041 30233
L41081 30233
L41108 30242
L41121 30250
L41135 30268
L41135 30336
" />
<path d="M40988 30173
L40988 30062
L41095 30122
L41095 30096
L41108 30079
L41121 30070
L41148 30062
L41215 30062
L41241 30070
L41255 30079
L41268 30096
L41268 30148
L41255 30165
L41241 30173
" />
<path d="M41268 29890
L41268 29993
" />
<path d="M41268 29942
L40988 29942
L41028 29959
L41055 29976
L41068 29993
" />
<path d="M65382 35548
L65249 35608
" />
<path d="M65382 35651
L65102 35651
L65102 35583
L65115 35565
L65129 35557
L65155 35548
L65195 35548
L65222 35557
L65235 35565
L65249 35583
L65249 35651
" />
<path d="M65102 35488
L65102 35377
L65209 35437
L65209 35411
L65222 35394
L65235 35385
L65262 35377
L65329 35377
L65355 35385
L65369 35394
L65382 35411
L65382 35463
L65369 35480
L65355 35488
" />
<path d="M65102 35317
L65102 35197
L65382 35274
" />
<path d="M64792 35548
L64658 35608
" />
<path d="M64792 35651
L64512 35651
L64512 35583
L64525 35565
L64538 35557
L64565 35548
L64605 35548
L64632 35557
L64645 35565
L64658 35583
L64658 35651
" />
<path d="M64512 35488
L64512 35377
L64618 35437
L64618 35411
L64632 35394
L64645 35385
L64672 35377
L64738 35377
L64765 35385
L64778 35394
L64792 35411
L64792 35463
L64778 35480
L64765 35488
" />
<path d="M64632 35274
L64618 35291
L64605 35300
L64578 35308
L64565 35308
L64538 35300
L64525 35291
L64512 35274
L64512 35240
L64525 35223
L64538 35214
L64565 35205
L64578 35205
L64605 35214
L64618 35223
L64632 35240
L64632 35274
L64645 35291
L64658 35300
L64685 35308
L64738 35308
L64765 35300
L64778 35291
L64792 35274
L64792 35240
L64778 35223
L64765 35214
L64738 35205
L64685 35205
L64658 35214
L64645 35223
L64632 35240
" />
<path d="M46340 42646
L46280 42513
" />
<path d="M46238 42646
L46238 42366
L46306 42366
L46323 42379
L46332 42393
L46340 42419
L46340 42459
L46332 42486
L46323 42499
L46306 42513
L46238 42513
" />
<path d="M46495 42459
L46495 42646
" />
<path d="M46452 42353
L46409 42553
L46520 42553
" />
<path d="M46623 42366
L46640 42366
L46658 42379
L46666 42393
L46675 42419
L46683 42473
L46683 42539
L46675 42593
L46666 42619
L46658 42633
L46640 42646
L46623 42646
L46606 42633
L46598 42619
L46589 42593
L46580 42539
L46580 42473
L46589 42419
L46598 42393
L46606 42379
L46623 42366
" />
<path d="M76065 46977
L76005 46843
" />
<path d="M75962 46977
L75962 46697
L76031 46697
L76048 46710
L76056 46723
L76065 46750
L76065 46790
L76056 46817
L76048 46830
L76031 46843
L75962 46843
" />
<path d="M76219 46790
L76219 46977
" />
<path d="M76176 46683
L76133 46883
L76245 46883
" />
<path d="M76408 46977
L76305 46977
" />
<path d="M76356 46977
L76356 46697
L76339 46737
L76322 46763
L76305 46777
" />
<path d="M56085 46484
L56025 46351
" />
<path d="M55982 46484
L55982 46204
L56050 46204
L56067 46218
L56076 46231
L56085 46258
L56085 46298
L56076 46324
L56067 46338
L56050 46351
L55982 46351
" />
<path d="M56239 46298
L56239 46484
" />
<path d="M56196 46191
L56153 46391
L56265 46391
" />
<path d="M56325 46231
L56333 46218
L56350 46204
L56393 46204
L56410 46218
L56419 46231
L56427 46258
L56427 46284
L56419 46324
L56316 46484
L56427 46484
" />
<path d="M46340 42055
L46280 41922
" />
<path d="M46238 42055
L46238 41775
L46306 41775
L46323 41789
L46332 41802
L46340 41829
L46340 41869
L46332 41895
L46323 41909
L46306 41922
L46238 41922
" />
<path d="M46495 41869
L46495 42055
" />
<path d="M46452 41762
L46409 41962
L46520 41962
" />
<path d="M46572 41775
L46683 41775
L46623 41882
L46649 41882
L46666 41895
L46675 41909
L46683 41935
L46683 42002
L46675 42029
L46666 42042
L46649 42055
L46598 42055
L46580 42042
L46572 42029
" />
<path d="M46340 33000
L46280 32867
" />
<path d="M46238 33000
L46238 32720
L46306 32720
L46323 32734
L46332 32747
L46340 32774
L46340 32814
L46332 32840
L46323 32854
L46306 32867
L46238 32867
" />
<path d="M46495 32814
L46495 33000
" />
<path d="M46452 32707
L46409 32907
L46520 32907
" />
<path d="M46675 32720
L46589 32720
L46580 32854
L46589 32840
L46606 32827
L46649 32827
L46666 32840
L46675 32854
L46683 32880
L46683 32947
L46675 32974
L46666 32987
L46649 33000
L46606 33000
L46589 32987
L46580 32974
" />
<path d="M61301 41563
L61241 41430
" />
<path d="M61198 41563
L61198 41283
L61267 41283
L61284 41297
L61293 41310
L61301 41337
L61301 41377
L61293 41403
L61284 41417
L61267 41430
L61198 41430
" />
<path d="M61455 41377
L61455 41563
" />
<path d="M61413 41270
L61370 41470
L61481 41470
" />
<path d="M61627 41283
L61593 41283
L61575 41297
L61567 41310
L61550 41350
L61541 41403
L61541 41510
L61550 41537
L61558 41550
L61575 41563
L61610 41563
L61627 41550
L61635 41537
L61644 41510
L61644 41443
L61635 41417
L61627 41403
L61610 41390
L61575 41390
L61558 41403
L61550 41417
L61541 41443
" />
<path d="M61695 32213
L61635 32079
" />
<path d="M61592 32213
L61592 31933
L61661 31933
L61678 31946
L61686 31959
L61695 31986
L61695 32026
L61686 32053
L61678 32066
L61661 32079
L61592 32079
" />
<path d="M61849 32026
L61849 32213
" />
<path d="M61806 31919
L61763 32119
L61875 32119
" />
<path d="M61926 31933
L62046 31933
L61969 32213
" />
<path d="M65041 31327
L64981 31194
" />
<path d="M64938 31327
L64938 31047
L65007 31047
L65024 31060
L65033 31074
L65041 31100
L65041 31140
L65033 31167
L65024 31180
L65007 31194
L64938 31194
" />
<path d="M65204 31047
L65118 31047
L65110 31180
L65118 31167
L65136 31154
L65178 31154
L65196 31167
L65204 31180
L65213 31207
L65213 31274
L65204 31300
L65196 31314
L65178 31327
L65136 31327
L65118 31314
L65110 31300
" />
<path d="M65273 31047
L65384 31047
L65324 31154
L65350 31154
L65367 31167
L65376 31180
L65384 31207
L65384 31274
L65376 31300
L65367 31314
L65350 31327
L65298 31327
L65281 31314
L65273 31300
" />
<path d="M50815 30922
L50682 30982
" />
<path d="M50815 31025
L50535 31025
L50535 30957
L50548 30939
L50562 30931
L50588 30922
L50628 30922
L50655 30931
L50668 30939
L50682 30957
L50682 31025
" />
<path d="M50535 30759
L50535 30845
L50668 30854
L50655 30845
L50642 30828
L50642 30785
L50655 30768
L50668 30759
L50695 30751
L50762 30751
L50788 30759
L50802 30768
L50815 30785
L50815 30828
L50802 30845
L50788 30854
" />
<path d="M50628 30597
L50815 30597
" />
<path d="M50522 30639
L50722 30682
L50722 30571
" />
<path d="M61248 36533
L61115 36593
" />
<path d="M61248 36635
L60968 36635
L60968 36567
L60982 36550
L60995 36541
L61022 36533
L61062 36533
L61088 36541
L61102 36550
L61115 36567
L61115 36635
" />
<path d="M60968 36370
L60968 36455
L61102 36464
L61088 36455
L61075 36438
L61075 36395
L61088 36378
L61102 36370
L61128 36361
L61195 36361
L61222 36370
L61235 36378
L61248 36395
L61248 36438
L61235 36455
L61222 36464
" />
<path d="M60968 36198
L60968 36284
L61102 36293
L61088 36284
L61075 36267
L61075 36224
L61088 36207
L61102 36198
L61128 36190
L61195 36190
L61222 36198
L61235 36207
L61248 36224
L61248 36267
L61235 36284
L61222 36293
" />
<path d="M46780 44603
L46646 44663
" />
<path d="M46780 44706
L46500 44706
L46500 44638
L46513 44621
L46526 44612
L46553 44603
L46593 44603
L46620 44612
L46633 44621
L46646 44638
L46646 44706
" />
<path d="M46500 44449
L46500 44483
L46513 44501
L46526 44509
L46566 44526
L46620 44535
L46726 44535
L46753 44526
L46766 44518
L46780 44501
L46780 44466
L46766 44449
L46753 44441
L46726 44432
L46660 44432
L46633 44441
L46620 44449
L46606 44466
L46606 44501
L46620 44518
L46633 44526
L46660 44535
" />
<path d="M46500 44321
L46500 44303
L46513 44286
L46526 44278
L46553 44269
L46606 44261
L46673 44261
L46726 44269
L46753 44278
L46766 44286
L46780 44303
L46780 44321
L46766 44338
L46753 44346
L46726 44355
L46673 44363
L46606 44363
L46553 44355
L46526 44346
L46513 44338
L46500 44321
" />
<path d="M50618 45785
L50485 45845
" />
<path d="M50618 45887
L50338 45887
L50338 45819
L50352 45802
L50365 45793
L50392 45785
L50432 45785
L50458 45793
L50472 45802
L50485 45819
L50485 45887
" />
<path d="M50338 45630
L50338 45665
L50352 45682
L50365 45690
L50405 45707
L50458 45716
L50565 45716
L50592 45707
L50605 45699
L50618 45682
L50618 45647
L50605 45630
L50592 45622
L50565 45613
L50498 45613
L50472 45622
L50458 45630
L50445 45647
L50445 45682
L50458 45699
L50472 45707
L50498 45716
" />
<path d="M50618 45442
L50618 45545
" />
<path d="M50618 45493
L50338 45493
L50378 45510
L50405 45527
L50418 45545
" />
<path d="M46189 44308
L46056 44368
" />
<path d="M46189 44411
L45909 44411
L45909 44342
L45922 44325
L45936 44317
L45962 44308
L46002 44308
L46029 44317
L46042 44325
L46056 44342
L46056 44411
" />
<path d="M45909 44154
L45909 44188
L45922 44205
L45936 44214
L45976 44231
L46029 44240
L46136 44240
L46162 44231
L46176 44222
L46189 44205
L46189 44171
L46176 44154
L46162 44145
L46136 44137
L46069 44137
L46042 44145
L46029 44154
L46016 44171
L46016 44205
L46029 44222
L46042 44231
L46069 44240
" />
<path d="M45909 44077
L45909 43965
L46016 44025
L46016 44000
L46029 43982
L46042 43974
L46069 43965
L46136 43965
L46162 43974
L46176 43982
L46189 44000
L46189 44051
L46176 44068
L46162 44077
" />
<path d="M51110 45785
L50977 45845
" />
<path d="M51110 45887
L50830 45887
L50830 45819
L50844 45802
L50857 45793
L50884 45785
L50924 45785
L50950 45793
L50964 45802
L50977 45819
L50977 45887
" />
<path d="M50830 45630
L50830 45665
L50844 45682
L50857 45690
L50897 45707
L50950 45716
L51057 45716
L51084 45707
L51097 45699
L51110 45682
L51110 45647
L51097 45630
L51084 45622
L51057 45613
L50990 45613
L50964 45622
L50950 45630
L50937 45647
L50937 45682
L50950 45699
L50964 45707
L50990 45716
" />
<path d="M50924 45459
L51110 45459
" />
<path d="M50817 45502
L51017 45545
L51017 45433
" />
<path d="M51701 32103
L51568 32163
" />
<path d="M51701 32206
L51421 32206
L51421 32138
L51434 32121
L51448 32112
L51474 32103
L51514 32103
L51541 32112
L51554 32121
L51568 32138
L51568 32206
" />
<path d="M51421 31949
L51421 31983
L51434 32001
L51448 32009
L51488 32026
L51541 32035
L51648 32035
L51674 32026
L51688 32018
L51701 32001
L51701 31966
L51688 31949
L51674 31941
L51648 31932
L51581 31932
L51554 31941
L51541 31949
L51528 31966
L51528 32001
L51541 32018
L51554 32026
L51581 32035
" />
<path d="M51421 31778
L51421 31812
L51434 31829
L51448 31838
L51488 31855
L51541 31863
L51648 31863
L51674 31855
L51688 31846
L51701 31829
L51701 31795
L51688 31778
L51674 31769
L51648 31761
L51581 31761
L51554 31769
L51541 31778
L51528 31795
L51528 31829
L51541 31846
L51554 31855
L51581 31863
" />
</g>
<g style="fill:#000000; fill-opacity:0.0; 
stroke:#000000; stroke-width:59.0551; stroke-opacity:1; 
stroke-linecap:round; stroke-linejoin:round;">
<path d="M49489 39984
L49882 39721
" />
<path d="M49489 39721
L49882 39984
" />
<path d="M49882 39365
L49882 39590
" />
<path d="M49882 39477
L49489 39477
L49545 39515
L49582 39552
L49601 39590
" />
</g>
<g style="fill:#000000; fill-opacity:0.0; 
stroke:#000000; stroke-width:120; stroke-opacity:1; 
stroke-linecap:round; stroke-linejoin:round;">
<path d="M47883 45645
L47883 45045
L48112 45045
L48169 45074
L48198 45102
L48226 45159
L48226 45245
L48198 45302
L48169 45331
L48112 45359
L47883 45359
" />
<path d="M48426 45045
L48798 45045
L48598 45274
L48683 45274
L48741 45302
L48769 45331
L48798 45388
L48798 45531
L48769 45588
L48741 45616
L48683 45645
L48512 45645
L48455 45616
L48426 45588
" />
<path d="M45643 48598
L45301 48598
" />
<path d="M45472 48598
L45472 47998
L45415 48083
L45358 48141
L45301 48169
" />
</g>
<g style="fill:#000000; fill-opacity:0.0; 
stroke:#000000; stroke-width:45; stroke-opacity:1; 
stroke-linecap:round; stroke-linejoin:round;">
<path d="M50126 43422
L49993 43482
" />
<path d="M50126 43525
L49846 43525
L49846 43457
L49860 43439
L49873 43431
L49900 43422
L49940 43422
L49966 43431
L49980 43439
L49993 43457
L49993 43525
" />
<path d="M49846 43268
L49846 43302
L49860 43319
L49873 43328
L49913 43345
L49966 43354
L50073 43354
L50100 43345
L50113 43337
L50126 43319
L50126 43285
L50113 43268
L50100 43259
L50073 43251
L50006 43251
L49980 43259
L49966 43268
L49953 43285
L49953 43319
L49966 43337
L49980 43345
L50006 43354
" />
<path d="M49846 43191
L49846 43071
L50126 43148
" />
</g>
<g style="fill:#000000; fill-opacity:0.0; 
stroke:#000000; stroke-width:120; stroke-opacity:1; 
stroke-linecap:round; stroke-linejoin:round;">
<path d="M56797 46521
L57197 47121
" />
<path d="M57197 46521
L56797 47121
" />
<path d="M57369 46521
L57740 46521
L57540 46750
L57626 46750
L57683 46778
L57712 46807
L57740 46864
L57740 47007
L57712 47064
L57683 47093
L57626 47121
L57454 47121
L57397 47093
L57369 47064
" />
</g> 
</svg>
