G04 (created by PCBNEW-RS274X (2012-05-21 BZR 3261)-stable) date Wed 26 Sep 2012 20:51:20 BST*
G01*
G70*
G90*
%MOIN*%
G04 Gerber Fmt 3.4, Leading zero omitted, Abs format*
%FSLAX34Y34*%
G04 APERTURE LIST*
%ADD10C,0.006000*%
%ADD11C,0.015000*%
%ADD12R,0.030000X0.020000*%
%ADD13R,0.020000X0.030000*%
%ADD14R,0.028000X0.039000*%
%ADD15R,0.039000X0.028000*%
%ADD16R,0.060000X0.080000*%
%ADD17R,0.035000X0.055000*%
%ADD18R,0.055000X0.035000*%
%ADD19R,0.054300X0.017700*%
%ADD20R,0.074800X0.046300*%
%ADD21R,0.074800X0.093500*%
%ADD22R,0.082700X0.058100*%
%ADD23R,0.011800X0.047000*%
%ADD24R,0.047000X0.011800*%
%ADD25C,0.070000*%
%ADD26R,0.070000X0.070000*%
%ADD27R,0.080700X0.218500*%
%ADD28R,0.218500X0.080700*%
%ADD29C,0.060000*%
%ADD30R,0.011800X0.043300*%
%ADD31R,0.090600X0.122000*%
%ADD32R,0.078700X0.100400*%
%ADD33R,0.100400X0.078700*%
%ADD34C,0.040000*%
%ADD35C,0.035400*%
%ADD36R,0.051200X0.074800*%
%ADD37R,0.045000X0.070000*%
%ADD38R,0.040000X0.070000*%
%ADD39R,0.035000X0.070000*%
%ADD40C,0.039400*%
%ADD41R,0.050000X0.100000*%
%ADD42R,0.055100X0.059100*%
%ADD43C,0.027600*%
%ADD44C,0.035000*%
%ADD45C,0.008000*%
%ADD46C,0.019700*%
%ADD47C,0.011800*%
%ADD48C,0.015700*%
%ADD49C,0.010000*%
G04 APERTURE END LIST*
G54D10*
G54D11*
X39369Y16733D02*
X39370Y16733D01*
X36417Y19685D02*
X39369Y16733D01*
X00984Y19685D02*
X00000Y18701D01*
X36417Y19685D02*
X00984Y19685D01*
X36417Y00000D02*
X39370Y02953D01*
X00000Y00984D02*
X00000Y00985D01*
X00984Y00000D02*
X00000Y00984D01*
X36417Y00000D02*
X00984Y00000D01*
X00000Y18701D02*
X00000Y00985D01*
X39370Y16733D02*
X39370Y02953D01*
G54D12*
X33752Y16616D03*
X33752Y15866D03*
X34752Y16616D03*
X33752Y16241D03*
X34752Y15866D03*
G54D13*
X09861Y17315D03*
X10611Y17315D03*
X09861Y18315D03*
X10236Y17315D03*
X10611Y18315D03*
X09725Y14477D03*
X08975Y14477D03*
X09725Y13477D03*
X09350Y14477D03*
X08975Y13477D03*
G54D12*
X29142Y15373D03*
X29142Y16123D03*
X28142Y15373D03*
X29142Y15748D03*
X28142Y16123D03*
G54D14*
X23917Y18287D03*
X23543Y17343D03*
X24291Y17343D03*
G54D15*
X37422Y14666D03*
X38366Y14292D03*
X38366Y15040D03*
X36536Y13091D03*
X37480Y12717D03*
X37480Y13465D03*
G54D16*
X28484Y13583D03*
X29784Y13583D03*
X29784Y12599D03*
X28484Y12599D03*
G54D17*
X07462Y13583D03*
X06712Y13583D03*
X36497Y10138D03*
X35747Y10138D03*
G54D18*
X27658Y12519D03*
X27658Y13269D03*
X26870Y12519D03*
X26870Y13269D03*
G54D17*
X02381Y05709D03*
X03131Y05709D03*
G54D18*
X36516Y06220D03*
X36516Y06970D03*
X36516Y07696D03*
X36516Y08446D03*
X33858Y12519D03*
X33858Y13269D03*
G54D17*
X36497Y09351D03*
X35747Y09351D03*
X03722Y00591D03*
X02972Y00591D03*
X36497Y10926D03*
X35747Y10926D03*
G54D18*
X38484Y13564D03*
X38484Y12814D03*
X38386Y16517D03*
X38386Y15767D03*
X35433Y13860D03*
X35433Y13110D03*
X08366Y09173D03*
X08366Y09923D03*
X26083Y15041D03*
X26083Y14291D03*
X08366Y08348D03*
X08366Y07598D03*
G54D17*
X06712Y12796D03*
X07462Y12796D03*
G54D18*
X01969Y12618D03*
X01969Y13368D03*
X08563Y05887D03*
X08563Y05137D03*
X07776Y05887D03*
X07776Y05137D03*
G54D17*
X16456Y02363D03*
X17206Y02363D03*
X01200Y08367D03*
X01950Y08367D03*
G54D18*
X11221Y10710D03*
X11221Y09960D03*
G54D17*
X02344Y00591D03*
X01594Y00591D03*
G54D18*
X06201Y02344D03*
X06201Y01594D03*
G54D17*
X05099Y00591D03*
X04349Y00591D03*
G54D18*
X11713Y18781D03*
X11713Y18031D03*
X22441Y18486D03*
X22441Y17736D03*
X11221Y08582D03*
X11221Y09332D03*
G54D17*
X36436Y01870D03*
X37186Y01870D03*
G54D18*
X25295Y13269D03*
X25295Y12519D03*
X26083Y13269D03*
X26083Y12519D03*
G54D17*
X34529Y17323D03*
X33779Y17323D03*
X35255Y17323D03*
X36005Y17323D03*
G54D18*
X08268Y01594D03*
X08268Y02344D03*
G54D17*
X37455Y17413D03*
X36705Y17413D03*
G54D18*
X09449Y01594D03*
X09449Y02344D03*
G54D17*
X02086Y19095D03*
X02836Y19095D03*
G54D18*
X07973Y17145D03*
X07973Y17895D03*
G54D17*
X06023Y17323D03*
X06773Y17323D03*
X35255Y15059D03*
X36005Y15059D03*
X33779Y15059D03*
X34529Y15059D03*
X15729Y02461D03*
X14979Y02461D03*
G54D18*
X16339Y17539D03*
X16339Y18289D03*
X15551Y17539D03*
X15551Y18289D03*
X14764Y17539D03*
X14764Y18289D03*
X13976Y17539D03*
X13976Y18289D03*
X13189Y17539D03*
X13189Y18289D03*
G54D17*
X28267Y16831D03*
X29017Y16831D03*
X12814Y00591D03*
X13564Y00591D03*
X21044Y00985D03*
X20294Y00985D03*
X38269Y06103D03*
X37519Y06103D03*
X12716Y04134D03*
X13466Y04134D03*
G54D18*
X17323Y18289D03*
X17323Y17539D03*
X32874Y15866D03*
X32874Y16616D03*
G54D17*
X03464Y19095D03*
X04214Y19095D03*
X08052Y18603D03*
X07302Y18603D03*
G54D18*
X35532Y15866D03*
X35532Y16616D03*
G54D17*
X06674Y18111D03*
X05924Y18111D03*
G54D18*
X04921Y13564D03*
X04921Y12814D03*
G54D17*
X07462Y12008D03*
X06712Y12008D03*
G54D10*
G36*
X06882Y05909D02*
X06493Y05520D01*
X06246Y05767D01*
X06635Y06156D01*
X06882Y05909D01*
X06882Y05909D01*
G37*
G36*
X06352Y06439D02*
X05963Y06050D01*
X05716Y06297D01*
X06105Y06686D01*
X06352Y06439D01*
X06352Y06439D01*
G37*
G54D18*
X04036Y05925D03*
X04036Y06675D03*
X07579Y10710D03*
X07579Y09960D03*
X07579Y09135D03*
X07579Y08385D03*
X04823Y05925D03*
X04823Y06675D03*
X03051Y12814D03*
X03051Y13564D03*
X03839Y12814D03*
X03839Y13564D03*
X32480Y13564D03*
X32480Y12814D03*
G54D17*
X07499Y03445D03*
X08249Y03445D03*
X01003Y05709D03*
X01753Y05709D03*
X01950Y09056D03*
X01200Y09056D03*
X01298Y10926D03*
X02048Y10926D03*
X01200Y09744D03*
X01950Y09744D03*
G54D18*
X10433Y13602D03*
X10433Y14352D03*
X09154Y18781D03*
X09154Y18031D03*
X08268Y14352D03*
X08268Y13602D03*
X09154Y16751D03*
X09154Y17501D03*
G54D17*
X21536Y17815D03*
X20786Y17815D03*
G54D18*
X20079Y17539D03*
X20079Y18289D03*
X19095Y18289D03*
X19095Y17539D03*
X18307Y18289D03*
X18307Y17539D03*
G54D19*
X37752Y10355D03*
X37752Y09587D03*
X37752Y10099D03*
X37752Y09843D03*
G54D20*
X38799Y09513D03*
G54D21*
X38799Y10990D03*
X38799Y08696D03*
G54D20*
X38799Y10173D03*
G54D19*
X37752Y09331D03*
G54D22*
X37894Y08873D03*
X37894Y10813D03*
G54D23*
X15846Y04725D03*
X16042Y04725D03*
X16239Y04725D03*
X16436Y04725D03*
X16633Y04725D03*
X16830Y04725D03*
X17027Y04725D03*
X17224Y04725D03*
X17420Y04725D03*
X17617Y04725D03*
X17814Y04725D03*
X18011Y04725D03*
X18208Y04725D03*
X18405Y04725D03*
X18602Y04725D03*
X18798Y04725D03*
X18798Y09253D03*
X18602Y09253D03*
X18405Y09253D03*
X18208Y09253D03*
X18011Y09253D03*
X17814Y09253D03*
X17617Y09253D03*
X17420Y09253D03*
X17224Y09253D03*
X17027Y09253D03*
X16830Y09253D03*
X16633Y09253D03*
X16436Y09253D03*
X16239Y09253D03*
X16042Y09253D03*
X15846Y09253D03*
G54D24*
X19586Y05513D03*
X19586Y05709D03*
X19586Y05906D03*
X19586Y06103D03*
X19586Y06300D03*
X19586Y06497D03*
X19586Y06694D03*
X19586Y06891D03*
X19586Y07087D03*
X19586Y07284D03*
X19586Y07481D03*
X19586Y07678D03*
X19586Y07875D03*
X19586Y08072D03*
X19586Y08269D03*
X19586Y08465D03*
X15058Y08465D03*
X15058Y08269D03*
X15058Y08072D03*
X15058Y07875D03*
X15058Y07678D03*
X15058Y07481D03*
X15058Y07284D03*
X15058Y07087D03*
X15058Y06891D03*
X15058Y06694D03*
X15058Y06497D03*
X15058Y06300D03*
X15058Y06103D03*
X15058Y05906D03*
X15058Y05709D03*
X15058Y05513D03*
G54D23*
X03838Y08072D03*
X04035Y08072D03*
X04232Y08072D03*
X04429Y08072D03*
X04626Y08072D03*
X04823Y08072D03*
X05019Y08072D03*
X05216Y08072D03*
X05413Y08072D03*
X05610Y08072D03*
X05807Y08072D03*
X06004Y08072D03*
X06004Y11418D03*
X05807Y11418D03*
X05610Y11418D03*
X05413Y11418D03*
X05216Y11418D03*
X05019Y11418D03*
X04823Y11418D03*
X04626Y11418D03*
X04429Y11418D03*
X04232Y11418D03*
X04035Y11418D03*
X03838Y11418D03*
G54D24*
X06594Y08662D03*
X06594Y08859D03*
X06594Y09056D03*
X06594Y09253D03*
X06594Y09450D03*
X06594Y09647D03*
X06594Y09843D03*
X06594Y10040D03*
X06594Y10237D03*
X06594Y10434D03*
X06594Y10631D03*
X06594Y10828D03*
X03248Y10828D03*
X03248Y10631D03*
X03248Y10434D03*
X03248Y10237D03*
X03248Y10040D03*
X03248Y09843D03*
X03248Y09647D03*
X03248Y09450D03*
X03248Y09253D03*
X03248Y09056D03*
X03248Y08859D03*
X03248Y08662D03*
G54D25*
X31791Y15741D03*
X31791Y16741D03*
G54D26*
X27815Y18800D03*
G54D25*
X28815Y18800D03*
X29815Y18800D03*
X30815Y18800D03*
X31815Y18800D03*
X32815Y18800D03*
G54D27*
X09744Y07766D03*
X09744Y11526D03*
G54D28*
X18809Y00985D03*
X15049Y00985D03*
G54D29*
X21524Y19292D03*
X25461Y19292D03*
X10366Y19292D03*
X06429Y19292D03*
G54D30*
X16734Y12107D03*
X16930Y12107D03*
X17324Y12107D03*
X17521Y12107D03*
X17718Y12107D03*
X17915Y12107D03*
X18112Y12107D03*
X18309Y12107D03*
X18505Y12107D03*
X18702Y12107D03*
X18899Y12107D03*
X19096Y12107D03*
X19293Y12107D03*
X19490Y12107D03*
X16537Y12107D03*
X14174Y12107D03*
X14371Y12107D03*
X14568Y12107D03*
X14765Y12107D03*
X14962Y12107D03*
X15159Y12107D03*
X15355Y12107D03*
X15552Y12107D03*
X15749Y12107D03*
X15946Y12107D03*
X16143Y12107D03*
X17127Y12107D03*
X16340Y12107D03*
G54D31*
X20147Y12776D03*
X13517Y12776D03*
G54D17*
X20454Y03839D03*
X19704Y03839D03*
G54D10*
G36*
X20765Y09737D02*
X21154Y09348D01*
X20907Y09101D01*
X20518Y09490D01*
X20765Y09737D01*
X20765Y09737D01*
G37*
G36*
X20235Y09207D02*
X20624Y08818D01*
X20377Y08571D01*
X19988Y08960D01*
X20235Y09207D01*
X20235Y09207D01*
G37*
G54D17*
X14290Y09252D03*
X15040Y09252D03*
G54D18*
X13386Y05887D03*
X13386Y05137D03*
G54D10*
G36*
X21843Y04925D02*
X21454Y04536D01*
X21207Y04783D01*
X21596Y05172D01*
X21843Y04925D01*
X21843Y04925D01*
G37*
G36*
X21313Y05455D02*
X20924Y05066D01*
X20677Y05313D01*
X21066Y05702D01*
X21313Y05455D01*
X21313Y05455D01*
G37*
G54D17*
X14094Y04528D03*
X14844Y04528D03*
G54D15*
X30787Y15748D03*
X29843Y16122D03*
X29843Y15374D03*
X35905Y18406D03*
X34961Y18780D03*
X34961Y18032D03*
G54D18*
X09350Y05887D03*
X09350Y05137D03*
X10138Y05887D03*
X10138Y05137D03*
X34154Y18781D03*
X34154Y18031D03*
G54D32*
X01358Y01565D03*
X01358Y04735D03*
G54D33*
X05098Y03150D03*
G54D32*
X05098Y04538D03*
X05098Y01762D03*
G54D34*
X00886Y03839D03*
X00886Y02461D03*
G54D32*
X01358Y14951D03*
X01358Y18121D03*
G54D33*
X05098Y16536D03*
G54D32*
X05098Y17924D03*
X05098Y15148D03*
G54D34*
X00886Y17225D03*
X00886Y15847D03*
G54D35*
X22637Y00591D03*
X23819Y00591D03*
G54D14*
X37080Y15691D03*
X37454Y16635D03*
X36706Y16635D03*
G54D17*
X06023Y16634D03*
X06773Y16634D03*
X23542Y16634D03*
X24292Y16634D03*
G54D18*
X21260Y12421D03*
X21260Y13171D03*
G54D36*
X13977Y03288D03*
X13977Y02028D03*
X11811Y02028D03*
X11811Y03288D03*
G54D37*
X33809Y11595D03*
X32825Y11595D03*
X31840Y11595D03*
X30856Y11595D03*
X29872Y11595D03*
X28888Y11595D03*
X27903Y11595D03*
X26919Y11595D03*
G54D38*
X26279Y11595D03*
G54D39*
X25768Y11595D03*
X25295Y11595D03*
G54D40*
X25589Y10532D03*
G54D29*
X33858Y10532D03*
G54D41*
X24606Y01977D03*
X24606Y10977D03*
X35630Y01977D03*
X34764Y10977D03*
X24606Y05284D03*
X35630Y05284D03*
G54D17*
X19507Y04626D03*
X20257Y04626D03*
G54D18*
X12500Y05137D03*
X12500Y05887D03*
G54D42*
X36930Y05178D03*
X38268Y05178D03*
X36930Y02894D03*
X38268Y02894D03*
G54D35*
X37008Y04036D03*
X38190Y04036D03*
X10630Y01773D03*
X10630Y00591D03*
X07382Y01773D03*
X07382Y00591D03*
G54D43*
X21260Y10040D03*
X24213Y12008D03*
X25492Y01575D03*
X17028Y15256D03*
X27880Y02713D03*
X06693Y04922D03*
X12303Y04626D03*
X36024Y13878D03*
X14272Y15256D03*
X29880Y02963D03*
X25295Y14961D03*
X27461Y01575D03*
X27953Y06103D03*
X31880Y02963D03*
X27264Y09351D03*
X27953Y03741D03*
X06693Y15158D03*
X07480Y14272D03*
X30880Y02963D03*
X33880Y02963D03*
X34055Y13878D03*
X22441Y14961D03*
X32880Y02963D03*
X25197Y16241D03*
X21358Y07382D03*
X24410Y06989D03*
X26181Y15552D03*
X25000Y06792D03*
X14370Y06201D03*
X15354Y10729D03*
X23228Y12304D03*
X23327Y12796D03*
X15748Y10926D03*
X24803Y08268D03*
X21063Y08268D03*
X26378Y08465D03*
X13091Y07382D03*
X25099Y03839D03*
X23917Y18898D03*
X22933Y03347D03*
X21555Y03347D03*
X24016Y05414D03*
X26083Y05709D03*
X30413Y06398D03*
X17224Y14272D03*
X34744Y12205D03*
X13681Y14272D03*
X20965Y14272D03*
X21850Y01969D03*
X22933Y02067D03*
X28642Y01575D03*
X23130Y03937D03*
X21555Y03937D03*
X16536Y11418D03*
X19193Y13485D03*
X16240Y11615D03*
X18996Y13189D03*
X13386Y13682D03*
X17421Y13682D03*
X19488Y13682D03*
X16831Y11221D03*
X13976Y13977D03*
X17618Y13977D03*
X15945Y03839D03*
X26083Y09941D03*
X25984Y08465D03*
X17126Y02953D03*
X19193Y09252D03*
X25099Y08760D03*
X26870Y10926D03*
X19784Y09941D03*
X31890Y10729D03*
X20177Y10138D03*
X24803Y09351D03*
X19587Y09548D03*
X21358Y08563D03*
X24508Y08563D03*
X35335Y11811D03*
X14780Y10463D03*
X14480Y10763D03*
X35728Y12008D03*
X14173Y05906D03*
X26083Y06300D03*
X11319Y15256D03*
X09744Y16751D03*
X09744Y15256D03*
X29528Y14961D03*
X26673Y15748D03*
X23721Y05119D03*
X25787Y06004D03*
X23327Y03642D03*
X21752Y03642D03*
X10039Y00788D03*
X07973Y00788D03*
X20079Y16241D03*
X21555Y05807D03*
X12697Y16241D03*
X23130Y05709D03*
X22933Y04233D03*
X21752Y04233D03*
X21555Y15355D03*
X12599Y14272D03*
X21457Y06398D03*
X23130Y06300D03*
X12697Y15748D03*
X19488Y15847D03*
X19291Y15552D03*
X12992Y15453D03*
X21752Y06693D03*
X22933Y06595D03*
X11516Y07185D03*
X12697Y07382D03*
X21752Y06103D03*
X12992Y16044D03*
X22933Y06004D03*
X19784Y16044D03*
X36180Y15863D03*
X37303Y08170D03*
X38189Y17126D03*
X09941Y03347D03*
X18209Y04134D03*
X14567Y03839D03*
X08169Y04725D03*
X11221Y09646D03*
X36122Y16634D03*
X29528Y16831D03*
X36319Y03347D03*
X21260Y13682D03*
X16339Y18800D03*
X36713Y18111D03*
X24311Y04430D03*
X08957Y04725D03*
X06890Y05512D03*
X28642Y16142D03*
X14764Y18800D03*
X28248Y15748D03*
X13878Y08957D03*
X11910Y05807D03*
X13189Y18800D03*
X37992Y12107D03*
X05315Y13977D03*
X20079Y18800D03*
X08760Y03445D03*
X25295Y00788D03*
X36930Y05806D03*
X14370Y05512D03*
X13976Y18800D03*
X12697Y03544D03*
X29134Y13189D03*
X11221Y17520D03*
X21457Y00591D03*
X21525Y04854D03*
X21063Y04134D03*
X20473Y05611D03*
X30807Y13682D03*
X24606Y13288D03*
X34744Y09744D03*
X29134Y13682D03*
X20177Y08367D03*
X15551Y18800D03*
X03937Y14075D03*
X08169Y10926D03*
X37943Y13140D03*
X34252Y16241D03*
X34252Y16634D03*
X33268Y17619D03*
X16831Y12993D03*
X35630Y01083D03*
X04429Y08662D03*
X24803Y18209D03*
X09744Y04725D03*
X12795Y01182D03*
X29528Y15748D03*
X06004Y09351D03*
X11024Y14272D03*
X07973Y12993D03*
X34252Y15847D03*
X15158Y01772D03*
X05413Y05611D03*
X37599Y11713D03*
X01280Y11516D03*
X05807Y18701D03*
X04724Y19095D03*
X02559Y10926D03*
X04232Y01280D03*
X04331Y03150D03*
X02756Y08268D03*
X00787Y09056D03*
G54D44*
X03838Y10138D03*
G54D43*
X00591Y05709D03*
X10236Y16831D03*
X08957Y14863D03*
X27264Y17225D03*
X21063Y07579D03*
X25886Y07579D03*
X32284Y07874D03*
X32284Y10729D03*
X31102Y14567D03*
X31201Y13091D03*
X13189Y10827D03*
X11969Y13229D03*
X07776Y14863D03*
X12205Y10827D03*
X11614Y14567D03*
X32382Y03347D03*
X24311Y03445D03*
X13287Y08367D03*
X33268Y13682D03*
X30906Y06004D03*
X31299Y07874D03*
X30413Y03741D03*
X23819Y02756D03*
X29232Y01575D03*
X13287Y07087D03*
X13681Y06989D03*
X34547Y01969D03*
X24016Y03150D03*
X35236Y12402D03*
X33071Y12599D03*
X14469Y08563D03*
X31201Y06693D03*
X26378Y06693D03*
X32185Y03839D03*
X32776Y06103D03*
X36122Y11615D03*
X14030Y10063D03*
X33760Y03445D03*
X11122Y08071D03*
X07776Y04331D03*
X21260Y07973D03*
X06988Y04331D03*
X06102Y05020D03*
G54D45*
X04823Y10927D02*
X04823Y11418D01*
X08169Y12795D02*
X08169Y11614D01*
X09646Y13190D02*
X08564Y13190D01*
X09725Y13477D02*
X09725Y13269D01*
X05019Y10828D02*
X04922Y10828D01*
X04724Y08563D02*
X05019Y08563D01*
X05019Y07383D02*
X06034Y06368D01*
X08169Y11614D02*
X07874Y11319D01*
X04922Y10828D02*
X04823Y10927D01*
X04823Y12206D02*
X04921Y12304D01*
X07874Y11319D02*
X06594Y11319D01*
X05019Y08072D02*
X05019Y07383D01*
X09850Y13602D02*
X09725Y13477D01*
X04626Y07677D02*
X04036Y07087D01*
X04823Y11418D02*
X04823Y12206D01*
X08564Y13190D02*
X08169Y12795D01*
X04036Y07087D02*
X04036Y06675D01*
X04626Y08072D02*
X04626Y08465D01*
X06594Y10828D02*
X05019Y10828D01*
X04921Y12304D02*
X04921Y12814D01*
X10433Y13602D02*
X09850Y13602D01*
X05019Y08563D02*
X05019Y10828D01*
X04626Y08465D02*
X04724Y08563D01*
X04626Y08072D02*
X04626Y07677D01*
X09725Y13269D02*
X09646Y13190D01*
X06594Y11890D02*
X06712Y12008D01*
X06594Y10828D02*
X06594Y11319D01*
X06594Y11319D02*
X06594Y11890D01*
X05019Y08072D02*
X05019Y08563D01*
X01950Y09744D02*
X02461Y09744D01*
X03740Y09351D02*
X03740Y09548D01*
X01181Y13484D02*
X01181Y12500D01*
X03739Y09548D02*
X03640Y09647D01*
X03543Y11122D02*
X03052Y11122D01*
X05512Y14469D02*
X06496Y15453D01*
X05512Y14469D02*
X02854Y14469D01*
X03740Y10925D02*
X03543Y11122D01*
X03248Y09253D02*
X02560Y09253D01*
X03740Y10630D02*
X04133Y10630D01*
X02343Y10631D02*
X02048Y10926D01*
X09395Y18781D02*
X09861Y18315D01*
X03248Y10631D02*
X02343Y10631D01*
X08366Y16634D02*
X07874Y16634D01*
X03740Y09548D02*
X03739Y09548D01*
X03640Y10631D02*
X03248Y10631D01*
X02558Y09647D02*
X03248Y09647D01*
X03641Y10630D02*
X03740Y10630D01*
X03640Y09647D02*
X03248Y09647D01*
X04231Y09647D02*
X04132Y09548D01*
X03642Y09253D02*
X03740Y09351D01*
X08741Y18781D02*
X08563Y18603D01*
X02263Y13878D02*
X02854Y14469D01*
X06496Y15453D02*
X06693Y15453D01*
X02263Y11418D02*
X02756Y11418D01*
X09154Y18781D02*
X09395Y18781D01*
X02067Y08367D02*
X01950Y08367D01*
X08563Y18603D02*
X08563Y16831D01*
X04133Y10630D02*
X04231Y10532D01*
X09154Y18781D02*
X08741Y18781D01*
X01575Y13878D02*
X01181Y13484D01*
X01181Y12500D02*
X02263Y11418D01*
X06693Y15453D02*
X07874Y16634D01*
X03248Y09253D02*
X03642Y09253D01*
X04231Y10532D02*
X04231Y09647D01*
X02560Y09253D02*
X02264Y08957D01*
X02461Y09744D02*
X02558Y09647D01*
X01575Y13878D02*
X02263Y13878D01*
X02264Y08957D02*
X02264Y08564D01*
X02756Y11418D02*
X03052Y11122D01*
X03740Y10925D02*
X03740Y10630D01*
X08563Y16831D02*
X08366Y16634D01*
X02264Y08564D02*
X02067Y08367D01*
X03641Y10630D02*
X03640Y10631D01*
X04132Y09548D02*
X03740Y09548D01*
G54D46*
X24213Y13879D02*
X25295Y14961D01*
X21260Y10040D02*
X20571Y10040D01*
X18798Y08465D02*
X18800Y08465D01*
X18800Y08465D02*
X19095Y08760D01*
X20571Y10040D02*
X19291Y08760D01*
X12877Y05137D02*
X12895Y05119D01*
X36024Y13860D02*
X35433Y13860D01*
X24213Y13879D02*
X24213Y12008D01*
X26083Y13269D02*
X25295Y13269D01*
X19095Y08760D02*
X19291Y08760D01*
G54D47*
X07579Y08385D02*
X08329Y08385D01*
G54D46*
X12814Y05137D02*
X12303Y04626D01*
X13386Y05137D02*
X15471Y05137D01*
X26673Y16634D02*
X27559Y16634D01*
X25295Y15256D02*
X26673Y16634D01*
X25295Y14961D02*
X25295Y15256D01*
X04823Y06675D02*
X04940Y06675D01*
G54D47*
X08661Y11023D02*
X08661Y12500D01*
X15847Y05512D02*
X18208Y05512D01*
G54D46*
X27559Y15552D02*
X27559Y16634D01*
G54D45*
X14371Y14271D02*
X14075Y14567D01*
G54D47*
X12205Y16339D02*
X12500Y16634D01*
X04429Y13878D02*
X04823Y14272D01*
G54D46*
X31880Y02963D02*
X32880Y02963D01*
G54D47*
X05708Y08859D02*
X05610Y08957D01*
G54D46*
X12877Y05137D02*
X12814Y05137D01*
X15471Y05137D02*
X15846Y05512D01*
X27953Y14075D02*
X27953Y14076D01*
X22362Y17815D02*
X22441Y17736D01*
G54D47*
X07462Y09843D02*
X07579Y09960D01*
G54D46*
X35226Y02963D02*
X35620Y02963D01*
G54D47*
X11713Y18031D02*
X12284Y18031D01*
X12500Y16634D02*
X13288Y16634D01*
X06594Y09843D02*
X07462Y09843D01*
G54D46*
X35620Y02963D02*
X35630Y02953D01*
X36498Y13860D02*
X36024Y13860D01*
G54D47*
X16929Y14764D02*
X16929Y15157D01*
X18553Y05661D02*
X18651Y05759D01*
X18651Y05759D02*
X18798Y05906D01*
G54D46*
X36436Y01870D02*
X36436Y02442D01*
X15453Y05119D02*
X14224Y05119D01*
X14174Y14666D02*
X14272Y14764D01*
X25295Y13269D02*
X25295Y14961D01*
G54D47*
X06349Y14814D02*
X06693Y15158D01*
X12500Y17422D02*
X12500Y17815D01*
G54D46*
X36436Y02442D02*
X35925Y02953D01*
G54D47*
X16929Y15157D02*
X17028Y15256D01*
X18798Y05906D02*
X18798Y08465D01*
G54D46*
X04940Y06675D02*
X06693Y04922D01*
X12500Y05137D02*
X12877Y05137D01*
X27953Y14076D02*
X28051Y14174D01*
G54D47*
X12500Y17422D02*
X13288Y16634D01*
X15845Y05513D02*
X15058Y05513D01*
X18404Y05512D02*
X18553Y05661D01*
X18208Y04725D02*
X18208Y05512D01*
G54D46*
X27953Y05414D02*
X27953Y03741D01*
X11270Y13436D02*
X12500Y14666D01*
G54D45*
X14174Y12698D02*
X14174Y12107D01*
G54D47*
X18798Y05906D02*
X19586Y05906D01*
X18798Y08465D02*
X16141Y08465D01*
G54D46*
X35226Y02963D02*
X33880Y02963D01*
G54D45*
X14371Y12894D02*
X14370Y12894D01*
G54D46*
X27658Y13583D02*
X27658Y13781D01*
X37422Y14666D02*
X37304Y14666D01*
G54D47*
X04823Y08072D02*
X04823Y06675D01*
G54D46*
X30880Y02963D02*
X31880Y02963D01*
X33858Y13780D02*
X33957Y13780D01*
G54D47*
X05610Y08957D02*
X05610Y09744D01*
X07480Y14272D02*
X07462Y14254D01*
G54D45*
X14371Y12894D02*
X14371Y14271D01*
G54D46*
X32880Y02963D02*
X33880Y02963D01*
X11270Y13239D02*
X11270Y13436D01*
X30413Y14174D02*
X33464Y14174D01*
G54D47*
X07579Y09960D02*
X07598Y09960D01*
X15846Y09253D02*
X15041Y09253D01*
G54D45*
X14371Y12107D02*
X14371Y12894D01*
G54D46*
X27658Y13269D02*
X27658Y13583D01*
G54D47*
X10827Y12796D02*
X11270Y13239D01*
X05610Y09744D02*
X05709Y09843D01*
X15041Y04725D02*
X14844Y04528D01*
G54D46*
X27880Y02713D02*
X28130Y02963D01*
G54D47*
X16930Y12107D02*
X16930Y12501D01*
G54D46*
X35925Y02953D02*
X35630Y02953D01*
G54D47*
X06594Y08859D02*
X06988Y08859D01*
G54D46*
X28051Y14174D02*
X30413Y14174D01*
G54D47*
X05709Y09843D02*
X06594Y09843D01*
G54D46*
X14272Y15256D02*
X14272Y15355D01*
G54D47*
X06152Y14814D02*
X06349Y14814D01*
G54D46*
X15846Y05512D02*
X15453Y05119D01*
X15847Y05512D02*
X15846Y05512D01*
G54D47*
X17126Y13584D02*
X16930Y13780D01*
G54D46*
X37304Y14666D02*
X36498Y13860D01*
G54D47*
X12500Y17815D02*
X12284Y18031D01*
G54D46*
X14272Y14764D02*
X14075Y14567D01*
G54D47*
X04626Y12205D02*
X04429Y12402D01*
X15846Y04725D02*
X15846Y05512D01*
X07462Y08385D02*
X07579Y08385D01*
G54D46*
X25492Y01575D02*
X27461Y01575D01*
X22441Y17736D02*
X22441Y14961D01*
G54D47*
X07874Y16339D02*
X12205Y16339D01*
X18553Y05660D02*
X18553Y05661D01*
X19882Y08465D02*
X20306Y08889D01*
G54D46*
X33464Y14174D02*
X33563Y14075D01*
G54D47*
X15846Y05512D02*
X15845Y05513D01*
X04626Y11418D02*
X04626Y12205D01*
X17126Y12697D02*
X17126Y13584D01*
G54D46*
X27264Y09646D02*
X27264Y09351D01*
X30413Y13780D02*
X30413Y14174D01*
X14224Y05119D02*
X12895Y05119D01*
X27953Y05414D02*
X27953Y06103D01*
G54D47*
X15041Y09253D02*
X15040Y09252D01*
G54D46*
X30413Y10728D02*
X29528Y09843D01*
X30413Y10926D02*
X30413Y13780D01*
X30413Y10926D02*
X30413Y10728D01*
X29528Y09843D02*
X27461Y09843D01*
X27461Y09843D02*
X27264Y09646D01*
X27658Y13781D02*
X27952Y14075D01*
G54D47*
X16930Y13780D02*
X16930Y14763D01*
X19507Y04626D02*
X19507Y04036D01*
X19507Y04036D02*
X19704Y03839D01*
X19507Y04626D02*
X19507Y04903D01*
X19507Y04903D02*
X18651Y05759D01*
X19586Y05906D02*
X20670Y05906D01*
X20995Y05581D02*
X20995Y05384D01*
X20670Y05906D02*
X20995Y05581D01*
G54D46*
X33858Y13780D02*
X33858Y13269D01*
X28484Y13583D02*
X27658Y13583D01*
G54D47*
X07462Y14254D02*
X07462Y13583D01*
X04823Y14272D02*
X05610Y14272D01*
X08329Y08385D02*
X08366Y08348D01*
G54D46*
X27756Y16831D02*
X28267Y16831D01*
G54D47*
X07598Y09960D02*
X08661Y11023D01*
X06693Y15158D02*
X07874Y16339D01*
X14272Y15355D02*
X14272Y15650D01*
G54D46*
X26870Y13269D02*
X27658Y13269D01*
G54D47*
X06988Y08859D02*
X07462Y08385D01*
G54D46*
X36024Y13878D02*
X36024Y13860D01*
X28142Y15373D02*
X27738Y15373D01*
G54D47*
X18798Y08465D02*
X19586Y08465D01*
X04429Y12402D02*
X04429Y13878D01*
G54D46*
X26870Y13269D02*
X26083Y13269D01*
G54D47*
X15846Y08760D02*
X15846Y09253D01*
G54D46*
X33957Y13780D02*
X34055Y13878D01*
X21536Y17815D02*
X22362Y17815D01*
X12500Y14666D02*
X14174Y14666D01*
G54D47*
X19586Y08465D02*
X19882Y08465D01*
X08957Y12796D02*
X10827Y12796D01*
X13288Y16634D02*
X14272Y15650D01*
G54D45*
X14370Y12894D02*
X14174Y12698D01*
G54D47*
X15846Y04725D02*
X15041Y04725D01*
G54D46*
X27952Y14075D02*
X27953Y14075D01*
X33563Y14075D02*
X33858Y13780D01*
G54D47*
X16930Y12501D02*
X17126Y12697D01*
G54D46*
X27559Y16634D02*
X27756Y16831D01*
G54D47*
X16141Y08465D02*
X15846Y08760D01*
X08661Y12500D02*
X08957Y12796D01*
X06594Y08859D02*
X05708Y08859D01*
X05610Y14272D02*
X06152Y14814D01*
X18208Y05512D02*
X18404Y05512D01*
G54D46*
X27738Y15373D02*
X27559Y15552D01*
X14272Y14764D02*
X14272Y15256D01*
X29880Y02963D02*
X30880Y02963D01*
X29880Y02963D02*
X28130Y02963D01*
G54D47*
X16930Y14763D02*
X16929Y14764D01*
X25461Y19292D02*
X23247Y19292D01*
X23247Y19292D02*
X22441Y18486D01*
X11202Y19292D02*
X11713Y18781D01*
X10366Y19292D02*
X11202Y19292D01*
G54D45*
X25197Y16241D02*
X25295Y16143D01*
X24016Y11418D02*
X23623Y11811D01*
X32973Y17717D02*
X33563Y18307D01*
X25295Y16143D02*
X25295Y15945D01*
X34155Y18780D02*
X34154Y18781D01*
X24016Y07579D02*
X24016Y11418D01*
X19586Y07284D02*
X21260Y07284D01*
X21260Y07284D02*
X21358Y07382D01*
X24311Y07088D02*
X24311Y07284D01*
X26083Y15454D02*
X26181Y15552D01*
X27027Y17677D02*
X27067Y17717D01*
X33741Y18781D02*
X34154Y18781D01*
X23623Y14273D02*
X25295Y15945D01*
X23623Y11811D02*
X23623Y14273D01*
X24311Y07284D02*
X24016Y07579D01*
X33563Y18307D02*
X33563Y18603D01*
X34961Y18780D02*
X34155Y18780D01*
X24410Y06989D02*
X24311Y07088D01*
X33563Y18603D02*
X33741Y18781D01*
X26083Y15041D02*
X26083Y15454D01*
X25295Y15945D02*
X27027Y17677D01*
X27067Y17717D02*
X32973Y17717D01*
X23819Y11910D02*
X23819Y14174D01*
X27165Y17520D02*
X32776Y17520D01*
X33680Y16616D02*
X32776Y17520D01*
X33752Y16616D02*
X33680Y16616D01*
X25000Y06792D02*
X25000Y06891D01*
X23819Y14174D02*
X27165Y17520D01*
X15058Y06103D02*
X14468Y06103D01*
X24213Y07678D02*
X24213Y07874D01*
X25000Y06891D02*
X24213Y07678D01*
X24213Y11516D02*
X23819Y11910D01*
X24213Y07874D02*
X24213Y11516D01*
X14468Y06103D02*
X14370Y06201D01*
X24705Y15946D02*
X23032Y14273D01*
X23032Y12500D02*
X23032Y14273D01*
X30807Y18800D02*
X30118Y18111D01*
X16142Y10630D02*
X15453Y10630D01*
X26280Y18111D02*
X24705Y16536D01*
X15453Y10630D02*
X15354Y10729D01*
X23228Y12304D02*
X23032Y12500D01*
X16830Y09942D02*
X16142Y10630D01*
X16830Y09253D02*
X16830Y09942D01*
X24705Y16536D02*
X24705Y15946D01*
X30118Y18111D02*
X26280Y18111D01*
X30807Y18800D02*
X30815Y18800D01*
X23425Y14370D02*
X24902Y15847D01*
X17027Y10041D02*
X17027Y09253D01*
X26378Y17914D02*
X30929Y17914D01*
X15847Y10827D02*
X15748Y10926D01*
X23425Y12894D02*
X23425Y14370D01*
X24902Y15847D02*
X24902Y16438D01*
X23327Y12796D02*
X23425Y12894D01*
X31815Y18800D02*
X30929Y17914D01*
X16241Y10827D02*
X15847Y10827D01*
X24902Y16438D02*
X26378Y17914D01*
X17027Y10041D02*
X16241Y10827D01*
X31694Y09056D02*
X31693Y09056D01*
X19586Y07875D02*
X20670Y07875D01*
X25000Y09056D02*
X31694Y09056D01*
X32579Y10827D02*
X32579Y09941D01*
X32382Y12500D02*
X32382Y12716D01*
X31693Y09055D02*
X32382Y09744D01*
X32382Y11024D02*
X32579Y10827D01*
X32579Y09941D02*
X32382Y09744D01*
X32382Y12716D02*
X32480Y12814D01*
X20670Y07875D02*
X21063Y08268D01*
X31693Y09056D02*
X31693Y09055D01*
X24803Y08268D02*
X24803Y08859D01*
X24803Y08859D02*
X25000Y09056D01*
X32382Y11024D02*
X32382Y12500D01*
X25492Y04823D02*
X25492Y07579D01*
X13190Y07481D02*
X13091Y07382D01*
X15058Y07481D02*
X13190Y07481D01*
X25099Y04430D02*
X25099Y04331D01*
X26378Y08465D02*
X25689Y07776D01*
X25492Y07579D02*
X25689Y07776D01*
X25492Y04823D02*
X25099Y04430D01*
X25099Y04331D02*
X25099Y03839D01*
G54D47*
X23917Y18898D02*
X23917Y18287D01*
G54D45*
X21555Y03347D02*
X21063Y02855D01*
X24016Y04725D02*
X24016Y04922D01*
X24016Y04922D02*
X24016Y05414D01*
X24016Y04233D02*
X24016Y03938D01*
X23327Y03347D02*
X22933Y03347D01*
X18405Y04725D02*
X18405Y04331D01*
X24016Y04725D02*
X24016Y04331D01*
X24016Y04331D02*
X24016Y04233D01*
X18701Y03445D02*
X18898Y03248D01*
X18406Y04331D02*
X18504Y04233D01*
X26083Y05709D02*
X26772Y06398D01*
X19291Y02855D02*
X18898Y03248D01*
X18504Y03642D02*
X18701Y03445D01*
X18405Y04331D02*
X18406Y04331D01*
X18504Y04233D02*
X18504Y03642D01*
X21063Y02855D02*
X19291Y02855D01*
X23327Y03347D02*
X23425Y03347D01*
X23425Y03347D02*
X24016Y03938D01*
X26772Y06398D02*
X30413Y06398D01*
G54D46*
X37080Y15691D02*
X37080Y15513D01*
X37080Y15513D02*
X36626Y15059D01*
X36626Y15059D02*
X36005Y15059D01*
G54D45*
X13976Y06891D02*
X15058Y06891D01*
X37455Y17088D02*
X37455Y17413D01*
X12894Y06693D02*
X12303Y07284D01*
X37880Y15763D02*
X37880Y16663D01*
X13976Y06889D02*
X13780Y06693D01*
X34646Y12303D02*
X34646Y13879D01*
X12303Y09744D02*
X12303Y07284D01*
X13976Y06891D02*
X13976Y06889D01*
X37880Y16663D02*
X37455Y17088D01*
X37454Y17087D02*
X37455Y17088D01*
X12500Y09941D02*
X12303Y09744D01*
X12500Y13682D02*
X13090Y14272D01*
X12500Y13682D02*
X12500Y09941D01*
X34744Y12205D02*
X34646Y12303D01*
X13780Y06693D02*
X12894Y06693D01*
X17224Y14272D02*
X20965Y14272D01*
X34646Y13879D02*
X35330Y14563D01*
X35330Y14563D02*
X36680Y14563D01*
X36680Y14563D02*
X37880Y15763D01*
X37454Y16635D02*
X37454Y17087D01*
X13090Y14272D02*
X13681Y14272D01*
X26083Y01870D02*
X28347Y01870D01*
X17027Y03643D02*
X17914Y02756D01*
X17914Y02756D02*
X18406Y02264D01*
X36220Y00689D02*
X34942Y00689D01*
X23130Y02264D02*
X23721Y02264D01*
X28347Y01870D02*
X28642Y01575D01*
X38268Y02894D02*
X38268Y02736D01*
X28642Y01575D02*
X28937Y01280D01*
X18406Y02264D02*
X18406Y02263D01*
X24115Y02658D02*
X25295Y02658D01*
X22933Y02067D02*
X23130Y02264D01*
X26084Y01870D02*
X26083Y01870D01*
X38269Y06103D02*
X38269Y05179D01*
X21751Y01870D02*
X21850Y01969D01*
X18799Y01870D02*
X21751Y01870D01*
X37186Y01655D02*
X36220Y00689D01*
X25295Y02658D02*
X26083Y01870D01*
X38269Y05179D02*
X38268Y05178D01*
X17027Y04725D02*
X17027Y03643D01*
X38268Y02736D02*
X37402Y01870D01*
X37402Y01870D02*
X37186Y01870D01*
X37186Y01870D02*
X37186Y01655D01*
X18406Y02263D02*
X18799Y01870D01*
X34351Y01280D02*
X28937Y01280D01*
X34942Y00689D02*
X34351Y01280D01*
X24115Y02658D02*
X23721Y02264D01*
X18798Y04725D02*
X18798Y04628D01*
X23542Y16222D02*
X23542Y16634D01*
X23130Y03937D02*
X23425Y04232D01*
X23425Y04232D02*
X23425Y05217D01*
X18898Y03839D02*
X19095Y03642D01*
X23543Y16635D02*
X23542Y16634D01*
X23543Y17343D02*
X23543Y16635D01*
X23819Y11320D02*
X22835Y12304D01*
X22835Y12304D02*
X22835Y15515D01*
X23819Y07481D02*
X23819Y11320D01*
X22835Y15515D02*
X23542Y16222D01*
X18798Y04628D02*
X18898Y04528D01*
X24114Y07186D02*
X23819Y07481D01*
X24114Y05906D02*
X24114Y07186D01*
X19095Y03642D02*
X19095Y03641D01*
X20767Y03248D02*
X21456Y03937D01*
X21456Y03937D02*
X21555Y03937D01*
X18898Y04528D02*
X18898Y03839D01*
X19095Y03641D02*
X19488Y03248D01*
X19488Y03248D02*
X20767Y03248D01*
X24114Y05906D02*
X23425Y05217D01*
X19293Y13385D02*
X19293Y12107D01*
X17420Y09253D02*
X17420Y10238D01*
X19193Y13485D02*
X19293Y13385D01*
X17420Y10238D02*
X16536Y11122D01*
X16536Y11122D02*
X16536Y11418D01*
X18504Y02461D02*
X18898Y02067D01*
X18898Y02067D02*
X21555Y02067D01*
X18505Y12107D02*
X18505Y11811D01*
X22638Y03938D02*
X22638Y10729D01*
X22638Y03150D02*
X22638Y03445D01*
X17224Y03741D02*
X18504Y02461D01*
X21949Y11418D02*
X22638Y10729D01*
X21555Y02067D02*
X22638Y03150D01*
X18505Y11811D02*
X18898Y11418D01*
X22638Y03445D02*
X22638Y03938D01*
X18898Y11418D02*
X21949Y11418D01*
X17224Y03741D02*
X17224Y04725D01*
X21358Y02264D02*
X21457Y02264D01*
X17420Y04725D02*
X17420Y03841D01*
X21850Y11221D02*
X18799Y11221D01*
X18406Y02854D02*
X18602Y02658D01*
X18799Y11221D02*
X18309Y11711D01*
X22441Y04036D02*
X22441Y10630D01*
X18996Y02264D02*
X21358Y02264D01*
X18602Y02658D02*
X18996Y02264D01*
X21457Y02264D02*
X22441Y03248D01*
X17420Y03841D02*
X18406Y02855D01*
X22441Y03544D02*
X22441Y04036D01*
X18406Y02855D02*
X18406Y02854D01*
X22441Y03248D02*
X22441Y03544D01*
X22441Y10630D02*
X21850Y11221D01*
X18309Y11711D02*
X18309Y12107D01*
X17617Y03939D02*
X18701Y02855D01*
X18701Y02855D02*
X19095Y02461D01*
X22244Y03642D02*
X22244Y04134D01*
X18701Y11024D02*
X18112Y11613D01*
X18112Y11613D02*
X18112Y12107D01*
X22244Y04134D02*
X22244Y10532D01*
X21752Y11024D02*
X18701Y11024D01*
X22244Y03347D02*
X22244Y03642D01*
X22244Y10532D02*
X21752Y11024D01*
X19095Y02461D02*
X21358Y02461D01*
X21358Y02461D02*
X22244Y03347D01*
X17617Y04725D02*
X17617Y03939D01*
X22047Y03445D02*
X22047Y03741D01*
X21260Y02658D02*
X22047Y03445D01*
X18602Y10827D02*
X21653Y10827D01*
X17915Y12107D02*
X17915Y11514D01*
X17915Y11514D02*
X18602Y10827D01*
X18602Y03248D02*
X18603Y03248D01*
X17814Y04036D02*
X17814Y04725D01*
X18603Y03248D02*
X18799Y03052D01*
X22047Y03741D02*
X22047Y04233D01*
X18799Y03052D02*
X18996Y02855D01*
X21653Y10827D02*
X22047Y10433D01*
X18996Y02855D02*
X19193Y02658D01*
X22047Y04233D02*
X22047Y10433D01*
X19193Y02658D02*
X21260Y02658D01*
X17814Y04036D02*
X18602Y03248D01*
X18505Y10630D02*
X17718Y11417D01*
X21555Y10630D02*
X18505Y10630D01*
X21850Y10335D02*
X21555Y10630D01*
X21556Y06891D02*
X21850Y07185D01*
X19586Y06891D02*
X21556Y06891D01*
X17718Y11417D02*
X17718Y12107D01*
X21850Y07185D02*
X21850Y10335D01*
X17521Y11318D02*
X18406Y10433D01*
X17521Y12107D02*
X17521Y11318D01*
X21457Y07087D02*
X21654Y07284D01*
X21654Y10236D02*
X21457Y10433D01*
X19586Y07087D02*
X21457Y07087D01*
X18406Y10433D02*
X21457Y10433D01*
X21654Y07284D02*
X21654Y10236D01*
X18011Y09253D02*
X18011Y10532D01*
X17324Y12107D02*
X17324Y11219D01*
X17324Y11219D02*
X18011Y10532D01*
X17814Y09253D02*
X17814Y10434D01*
X17814Y10434D02*
X17127Y11121D01*
X17127Y11121D02*
X17127Y12107D01*
X17224Y10138D02*
X16240Y11122D01*
X19096Y13089D02*
X18996Y13189D01*
X19096Y12107D02*
X19096Y13089D01*
X17224Y10138D02*
X17224Y09253D01*
X16240Y11615D02*
X16240Y11122D01*
X18702Y12499D02*
X17520Y13681D01*
X17421Y13682D02*
X17422Y13681D01*
X12894Y13485D02*
X12894Y09745D01*
X12894Y09745D02*
X12697Y09548D01*
X13386Y13682D02*
X13091Y13682D01*
X17422Y13681D02*
X17520Y13681D01*
X13188Y08072D02*
X12697Y08563D01*
X12894Y13485D02*
X13091Y13682D01*
X13188Y08072D02*
X15058Y08072D01*
X12697Y09548D02*
X12697Y08563D01*
X18702Y12107D02*
X18702Y12499D01*
X19488Y13682D02*
X19490Y13680D01*
X19490Y12006D02*
X19685Y11811D01*
X19490Y12107D02*
X19490Y12006D01*
X17617Y10337D02*
X16832Y11122D01*
X19685Y11811D02*
X20964Y11811D01*
X19490Y13680D02*
X19490Y12107D01*
X20964Y11811D02*
X21260Y12107D01*
X16831Y11221D02*
X16831Y11122D01*
X16832Y11122D02*
X16831Y11122D01*
X17617Y10337D02*
X17617Y09253D01*
X21260Y12107D02*
X21260Y12421D01*
X13091Y07874D02*
X13091Y07875D01*
X18898Y12697D02*
X18898Y12599D01*
X18898Y12599D02*
X18899Y12598D01*
X12500Y08465D02*
X13091Y07874D01*
X12697Y09842D02*
X12697Y13583D01*
X18899Y12598D02*
X18899Y12107D01*
X15058Y07875D02*
X13091Y07875D01*
X12697Y13583D02*
X13091Y13977D01*
X12697Y09842D02*
X12500Y09645D01*
X13091Y13977D02*
X13976Y13977D01*
X17618Y13977D02*
X18898Y12697D01*
X12500Y08465D02*
X12500Y09645D01*
X22244Y01870D02*
X23130Y02756D01*
X17323Y02953D02*
X17421Y02953D01*
X25768Y11595D02*
X25768Y12204D01*
X17126Y02953D02*
X17323Y02953D01*
X23130Y02757D02*
X24409Y04036D01*
X23130Y02756D02*
X23130Y02757D01*
X18308Y02067D02*
X18701Y01674D01*
X25768Y11043D02*
X25768Y11595D01*
X17421Y02953D02*
X18307Y02067D01*
X25768Y12204D02*
X26083Y12519D01*
X26083Y09941D02*
X26083Y10728D01*
X25492Y07973D02*
X25295Y07776D01*
X25295Y07776D02*
X25295Y04922D01*
X25984Y08465D02*
X25492Y07973D01*
X16042Y03936D02*
X15945Y03839D01*
X18701Y01674D02*
X22048Y01674D01*
X22048Y01674D02*
X22244Y01870D01*
X18307Y02067D02*
X18308Y02067D01*
X16042Y04725D02*
X16042Y03936D01*
X26083Y10728D02*
X25768Y11043D01*
X25295Y04922D02*
X24409Y04036D01*
X32825Y11595D02*
X32825Y09794D01*
X32825Y09794D02*
X32776Y09745D01*
X19192Y09253D02*
X19193Y09252D01*
X32776Y09745D02*
X31791Y08760D01*
X25099Y08760D02*
X31791Y08760D01*
X19192Y09253D02*
X18798Y09253D01*
X26919Y11595D02*
X26919Y11780D01*
X26870Y10926D02*
X26870Y11546D01*
X18405Y09646D02*
X18406Y09646D01*
X18405Y09253D02*
X18405Y09646D01*
X18406Y09646D02*
X18701Y09941D01*
X26919Y11780D02*
X27658Y12519D01*
X26870Y11546D02*
X26919Y11595D01*
X18701Y09941D02*
X19784Y09941D01*
X31890Y10729D02*
X31890Y11545D01*
X18602Y10138D02*
X19488Y10138D01*
X18208Y09253D02*
X18208Y09744D01*
X19488Y10138D02*
X19587Y10237D01*
X20078Y10237D02*
X20177Y10138D01*
X19587Y10237D02*
X20078Y10237D01*
X18208Y09744D02*
X18602Y10138D01*
X31890Y11545D02*
X31840Y11595D01*
G54D46*
X29872Y11595D02*
X29872Y12511D01*
X29872Y12511D02*
X29784Y12599D01*
X29784Y13583D02*
X29784Y12599D01*
G54D45*
X18799Y09744D02*
X18602Y09547D01*
X19391Y09744D02*
X18799Y09744D01*
X24803Y09351D02*
X25985Y09351D01*
X26871Y10237D02*
X25985Y09351D01*
X28888Y10582D02*
X28543Y10237D01*
X18602Y09547D02*
X18602Y09253D01*
X19587Y09548D02*
X19391Y09744D01*
X28888Y11595D02*
X28888Y10582D01*
X28543Y10237D02*
X26871Y10237D01*
X19586Y08072D02*
X20474Y08072D01*
X20965Y08563D02*
X21358Y08563D01*
X20474Y08072D02*
X20965Y08563D01*
X24508Y09744D02*
X25099Y10335D01*
X24508Y08563D02*
X24508Y09744D01*
X25295Y11595D02*
X25295Y12519D01*
X25099Y11399D02*
X25295Y11595D01*
X25099Y10335D02*
X25099Y11399D01*
X16633Y09253D02*
X16633Y09844D01*
X35747Y09351D02*
X35728Y09351D01*
X35728Y09351D02*
X35335Y09744D01*
X16633Y09844D02*
X16072Y10405D01*
X14838Y10405D02*
X14780Y10463D01*
X35335Y09744D02*
X35335Y11811D01*
X16072Y10405D02*
X14838Y10405D01*
X14636Y10207D02*
X14380Y10463D01*
X15975Y10207D02*
X14636Y10207D01*
X35747Y10926D02*
X35747Y10138D01*
X16436Y09253D02*
X16436Y09745D01*
X14380Y10463D02*
X14380Y10663D01*
X14380Y10663D02*
X14480Y10763D01*
X35747Y10926D02*
X35747Y11989D01*
X35747Y11989D02*
X35728Y12008D01*
X16240Y09941D02*
X16240Y09942D01*
X16436Y09745D02*
X16240Y09941D01*
X16240Y09942D02*
X15975Y10207D01*
X26083Y06792D02*
X26280Y06989D01*
X15058Y05906D02*
X14173Y05906D01*
X36516Y07696D02*
X36516Y06970D01*
X27362Y06989D02*
X26280Y06989D01*
X26083Y06792D02*
X26083Y06300D01*
X36497Y06989D02*
X36516Y06970D01*
X27362Y06989D02*
X36497Y06989D01*
G54D46*
X29143Y15374D02*
X29142Y15373D01*
X08759Y15256D02*
X09744Y15256D01*
X29429Y15374D02*
X29143Y15374D01*
X31916Y15866D02*
X31791Y15741D01*
X09744Y15256D02*
X11319Y15256D01*
X29017Y15248D02*
X29017Y14942D01*
X09744Y15256D02*
X09725Y15256D01*
X31791Y15741D02*
X31784Y15741D01*
X33779Y15839D02*
X33752Y15866D01*
X31784Y15741D02*
X31417Y15374D01*
X09861Y17315D02*
X09861Y16850D01*
X09861Y16850D02*
X09762Y16751D01*
X09744Y16751D02*
X09762Y16751D01*
X08268Y14765D02*
X08759Y15256D01*
X32874Y15866D02*
X31916Y15866D01*
X29017Y14942D02*
X28839Y14764D01*
X29017Y15248D02*
X29142Y15373D01*
X28839Y14764D02*
X27067Y14764D01*
X08268Y14352D02*
X08268Y14765D01*
X33752Y15866D02*
X32874Y15866D01*
X33779Y15059D02*
X33779Y15839D01*
X29843Y15374D02*
X29429Y15374D01*
X31417Y15374D02*
X29843Y15374D01*
X29429Y15060D02*
X29528Y14961D01*
X26673Y15158D02*
X26673Y15748D01*
X09744Y16751D02*
X09154Y16751D01*
X09725Y14477D02*
X09725Y15256D01*
X29429Y15374D02*
X29429Y15060D01*
X27067Y14764D02*
X26673Y15158D01*
G54D45*
X18602Y04430D02*
X18602Y04725D01*
X18997Y03445D02*
X19390Y03052D01*
X18602Y04430D02*
X18701Y04331D01*
X23721Y04922D02*
X23721Y04331D01*
X21752Y03642D02*
X21456Y03642D01*
X19390Y03052D02*
X20965Y03052D01*
X35255Y15059D02*
X34529Y15059D01*
X34529Y14077D02*
X34350Y13898D01*
X34350Y08465D02*
X33267Y07382D01*
X34350Y08465D02*
X34350Y13898D01*
X18898Y03543D02*
X18996Y03445D01*
X18701Y03740D02*
X18898Y03543D01*
X18701Y04331D02*
X18701Y03740D01*
X23327Y03642D02*
X23721Y04036D01*
X33169Y07284D02*
X33267Y07382D01*
X28937Y07284D02*
X33169Y07284D01*
X25787Y07087D02*
X25787Y06004D01*
X28937Y07284D02*
X27264Y07284D01*
X25787Y07087D02*
X25984Y07284D01*
X27264Y07284D02*
X25984Y07284D01*
X34529Y15059D02*
X34529Y14077D01*
X23721Y04036D02*
X23721Y04331D01*
X21260Y03347D02*
X21260Y03446D01*
X21260Y03446D02*
X21456Y03642D01*
X18996Y03445D02*
X18997Y03445D01*
X23721Y04922D02*
X23721Y05119D01*
X20965Y03052D02*
X21260Y03347D01*
X13976Y06300D02*
X11811Y06300D01*
X09665Y01594D02*
X10335Y02264D01*
X10039Y00788D02*
X10039Y01182D01*
X14665Y06300D02*
X14468Y06497D01*
X11614Y06103D02*
X11614Y03937D01*
X09627Y01594D02*
X09449Y01594D01*
X14468Y06497D02*
X14173Y06497D01*
X11811Y06300D02*
X11614Y06103D01*
X13976Y06300D02*
X14173Y06497D01*
X11614Y03937D02*
X10335Y02658D01*
X10039Y01182D02*
X09627Y01594D01*
X09449Y01594D02*
X09665Y01594D01*
X10335Y02658D02*
X10335Y02264D01*
X15058Y06497D02*
X14468Y06497D01*
X15058Y06300D02*
X14665Y06300D01*
X14075Y06694D02*
X14075Y06693D01*
X11614Y06496D02*
X11614Y06497D01*
X11024Y03642D02*
X09449Y03642D01*
X08582Y01594D02*
X08268Y01594D01*
X08268Y01594D02*
X08268Y01083D01*
X09055Y03248D02*
X09449Y03642D01*
X11417Y04035D02*
X11024Y03642D01*
X11614Y06497D02*
X11417Y06300D01*
X14075Y06693D02*
X13878Y06496D01*
X11417Y06300D02*
X11417Y04035D01*
X08268Y01083D02*
X07973Y00788D01*
X08858Y02658D02*
X08858Y01870D01*
X09055Y02855D02*
X09055Y03248D01*
X09055Y02855D02*
X08858Y02658D01*
X13878Y06496D02*
X11614Y06496D01*
X15058Y06694D02*
X14075Y06694D01*
X08858Y01870D02*
X08582Y01594D01*
X21457Y05905D02*
X21555Y05807D01*
X21063Y05905D02*
X21457Y05905D01*
X12697Y16241D02*
X12795Y16339D01*
X23721Y06201D02*
X23721Y06988D01*
X07087Y10828D02*
X07087Y10925D01*
X06594Y10631D02*
X06890Y10631D01*
X22441Y12107D02*
X22441Y14075D01*
X10729Y12993D02*
X11024Y13288D01*
X23425Y07284D02*
X23425Y11123D01*
X20374Y16142D02*
X20178Y16142D01*
X07284Y11122D02*
X07972Y11122D01*
X20865Y06103D02*
X19586Y06103D01*
X12402Y14961D02*
X11024Y13583D01*
X23326Y05807D02*
X23327Y05807D01*
X20865Y06103D02*
X21063Y05905D01*
X13583Y16043D02*
X13583Y15257D01*
X20178Y16142D02*
X20079Y16241D01*
X13287Y16339D02*
X13583Y16043D01*
X12795Y16339D02*
X13287Y16339D01*
X11024Y13583D02*
X11024Y13288D01*
X08661Y12993D02*
X10729Y12993D01*
X13583Y15257D02*
X13287Y14961D01*
X07087Y10925D02*
X07284Y11122D01*
X22441Y14075D02*
X20374Y16142D01*
X22441Y12107D02*
X23425Y11123D01*
X08366Y12698D02*
X08661Y12993D01*
X23130Y05709D02*
X23228Y05709D01*
X06890Y10631D02*
X07087Y10828D01*
X23228Y05709D02*
X23326Y05807D01*
X08366Y11516D02*
X08366Y12698D01*
X23721Y06988D02*
X23425Y07284D01*
X07972Y11122D02*
X08366Y11516D01*
X23327Y05807D02*
X23721Y06201D01*
X13287Y14961D02*
X12402Y14961D01*
X07185Y05906D02*
X07185Y04528D01*
X23917Y07087D02*
X23917Y06004D01*
X21556Y15256D02*
X21556Y15354D01*
X23130Y04528D02*
X23130Y05217D01*
X23917Y07087D02*
X23622Y07382D01*
X21850Y14962D02*
X21556Y15256D01*
X11713Y08268D02*
X11712Y08268D01*
X22638Y12205D02*
X23622Y11221D01*
X05216Y08072D02*
X05216Y07481D01*
X22638Y14173D02*
X21850Y14961D01*
X21850Y14961D02*
X21850Y14962D01*
X05808Y06890D02*
X06201Y06890D01*
X05216Y07481D02*
X05217Y07481D01*
X07677Y04036D02*
X07185Y04528D01*
X21555Y15355D02*
X21556Y15354D01*
X11712Y08268D02*
X11024Y07580D01*
X11713Y13386D02*
X12599Y14272D01*
X23130Y04528D02*
X23130Y04430D01*
X21654Y04233D02*
X21752Y04233D01*
X19586Y05513D02*
X20177Y05513D01*
X11713Y13386D02*
X11713Y08268D01*
X20177Y05513D02*
X21457Y04233D01*
X21457Y04233D02*
X21654Y04233D01*
X23130Y04430D02*
X22933Y04233D01*
X23130Y05217D02*
X23917Y06004D01*
X23622Y07382D02*
X23622Y11221D01*
X11024Y04233D02*
X10827Y04036D01*
X22638Y12205D02*
X22638Y14173D01*
X06201Y06890D02*
X07185Y05906D01*
X10827Y04036D02*
X07677Y04036D01*
X05217Y07481D02*
X05808Y06890D01*
X11024Y07580D02*
X11024Y04233D01*
X19587Y15748D02*
X19488Y15847D01*
X05413Y12304D02*
X05413Y13682D01*
X23228Y06398D02*
X23228Y06890D01*
X08071Y16142D02*
X11910Y16142D01*
X23032Y07086D02*
X23032Y10925D01*
X21260Y06497D02*
X21358Y06497D01*
X23228Y06890D02*
X23032Y07086D01*
X12697Y15748D02*
X12304Y15748D01*
X06447Y14518D02*
X08071Y16142D01*
X23130Y06300D02*
X23228Y06398D01*
X05019Y11910D02*
X05019Y11418D01*
X22047Y11910D02*
X22047Y13879D01*
X06250Y14518D02*
X06447Y14518D01*
X12304Y15748D02*
X11910Y16142D01*
X05019Y11910D02*
X05413Y12304D01*
X05413Y13682D02*
X05414Y13682D01*
X19586Y06497D02*
X21260Y06497D01*
X21556Y14370D02*
X21555Y14370D01*
X22047Y13879D02*
X21556Y14370D01*
X21358Y06497D02*
X21457Y06398D01*
X05414Y13682D02*
X06250Y14518D01*
X21555Y14370D02*
X20177Y15748D01*
X20177Y15748D02*
X19587Y15748D01*
X22047Y11910D02*
X23032Y10925D01*
X22046Y11615D02*
X21850Y11811D01*
X20079Y15552D02*
X19291Y15552D01*
X05611Y12796D02*
X05611Y13583D01*
X05216Y11812D02*
X05610Y12206D01*
X08169Y15945D02*
X11812Y15945D01*
X12304Y15453D02*
X12992Y15453D01*
X19586Y06694D02*
X21456Y06694D01*
X05610Y12795D02*
X05611Y12796D01*
X21456Y14174D02*
X21456Y14175D01*
X21456Y14175D02*
X20079Y15552D01*
X12304Y15453D02*
X11812Y15945D01*
X22835Y10827D02*
X22047Y11615D01*
X05610Y13583D02*
X05611Y13583D01*
X21850Y11811D02*
X21850Y13780D01*
X22047Y11615D02*
X22046Y11615D01*
X06299Y14272D02*
X06496Y14272D01*
X21752Y06693D02*
X21751Y06694D01*
X21751Y06694D02*
X21456Y06694D01*
X05216Y11418D02*
X05216Y11812D01*
X21850Y13780D02*
X21456Y14174D01*
X22835Y06693D02*
X22835Y10827D01*
X06496Y14272D02*
X08169Y15945D01*
X22933Y06595D02*
X22835Y06693D01*
X06299Y14272D02*
X05610Y13583D01*
X05610Y12795D02*
X05610Y12206D01*
X06890Y03839D02*
X05512Y05217D01*
X04232Y07677D02*
X04232Y08072D01*
X03937Y05217D02*
X05512Y05217D01*
X15058Y07678D02*
X12992Y07678D01*
X03740Y07185D02*
X04232Y07677D01*
X07499Y03445D02*
X07284Y03445D01*
X10925Y03839D02*
X06890Y03839D01*
X03543Y06989D02*
X03543Y05611D01*
X12697Y07382D02*
X12992Y07677D01*
X11221Y06890D02*
X11221Y04135D01*
X03740Y07185D02*
X03739Y07185D01*
X12992Y07677D02*
X12992Y07678D01*
X07284Y03445D02*
X06890Y03839D01*
X03543Y05611D02*
X03937Y05217D01*
X03739Y07185D02*
X03543Y06989D01*
X11221Y06890D02*
X11516Y07185D01*
X11221Y04135D02*
X10925Y03839D01*
X23524Y06890D02*
X23228Y07186D01*
X13189Y15158D02*
X13386Y15355D01*
X22244Y12008D02*
X22244Y13977D01*
X05413Y11714D02*
X05807Y12108D01*
X06595Y14075D02*
X06397Y14075D01*
X13386Y15355D02*
X13386Y15650D01*
X12303Y15158D02*
X11713Y15748D01*
X22244Y12008D02*
X23228Y11024D01*
X19586Y06300D02*
X21063Y06300D01*
X21063Y06300D02*
X21260Y06103D01*
X21260Y06103D02*
X21752Y06103D01*
X23228Y07186D02*
X23228Y11024D01*
X05807Y13485D02*
X06397Y14075D01*
X22933Y06004D02*
X23228Y06004D01*
X19883Y15945D02*
X19784Y16044D01*
X05807Y12108D02*
X05807Y13485D01*
X23524Y06300D02*
X23524Y06890D01*
X12992Y16044D02*
X13386Y15650D01*
X08268Y15748D02*
X11713Y15748D01*
X22244Y13977D02*
X20276Y15945D01*
X13189Y15158D02*
X12303Y15158D01*
X20276Y15945D02*
X19883Y15945D01*
X23228Y06004D02*
X23524Y06300D01*
X05413Y11418D02*
X05413Y11714D01*
X08268Y15748D02*
X06595Y14075D01*
G54D48*
X37008Y08465D02*
X37303Y08170D01*
X38189Y17126D02*
X38386Y16929D01*
X36180Y15863D02*
X36177Y15866D01*
X37008Y09056D02*
X37008Y08859D01*
X35532Y15866D02*
X34752Y15866D01*
X38386Y16929D02*
X38386Y16517D01*
X37008Y08859D02*
X37008Y08465D01*
X36713Y08859D02*
X36516Y08662D01*
X36516Y08662D02*
X36516Y08446D01*
X37008Y08859D02*
X36713Y08859D01*
X36177Y15866D02*
X35532Y15866D01*
X37752Y09331D02*
X37283Y09331D01*
X37283Y09331D02*
X37008Y09056D01*
G54D46*
X12500Y05887D02*
X11990Y05887D01*
X14094Y04312D02*
X14567Y03839D01*
X38269Y12814D02*
X38484Y12814D01*
X16339Y18289D02*
X16339Y18800D01*
X35630Y05284D02*
X36408Y05284D01*
X13386Y05887D02*
X12500Y05887D01*
G54D47*
X09154Y17815D02*
X09154Y18031D01*
G54D46*
X08268Y02344D02*
X08268Y02461D01*
X36930Y02894D02*
X36772Y02894D01*
G54D48*
X37283Y10355D02*
X37205Y10433D01*
G54D46*
X36930Y05806D02*
X36516Y06220D01*
X28642Y15847D02*
X28642Y16142D01*
G54D47*
X06594Y09253D02*
X06102Y09253D01*
G54D46*
X34252Y16634D02*
X34252Y16241D01*
G54D47*
X01969Y13368D02*
X02443Y13368D01*
G54D46*
X36930Y05178D02*
X36930Y05806D01*
G54D47*
X18011Y04332D02*
X18209Y04134D01*
G54D46*
X28642Y16456D02*
X29017Y16831D01*
G54D47*
X20079Y08269D02*
X20177Y08367D01*
G54D46*
X37943Y13140D02*
X38269Y12814D01*
X37519Y05767D02*
X36930Y05178D01*
X34154Y18031D02*
X34960Y18031D01*
X24606Y04725D02*
X24311Y04430D01*
X14764Y18289D02*
X14764Y18800D01*
X37618Y13465D02*
X37943Y13140D01*
X36705Y18103D02*
X36713Y18111D01*
G54D47*
X06594Y10237D02*
X06989Y10237D01*
G54D46*
X33089Y16616D02*
X32874Y16616D01*
X29134Y13682D02*
X29134Y13189D01*
G54D47*
X08169Y05137D02*
X08169Y04725D01*
G54D46*
X33779Y17619D02*
X33779Y17656D01*
X03839Y13977D02*
X03937Y14075D01*
X12814Y00591D02*
X12814Y01163D01*
G54D47*
X02443Y13368D02*
X02559Y13484D01*
G54D46*
X28741Y15748D02*
X28642Y15847D01*
G54D47*
X14290Y09467D02*
X14290Y09252D01*
G54D46*
X11221Y09646D02*
X11221Y09960D01*
X08956Y14075D02*
X08759Y13878D01*
G54D47*
X09154Y17501D02*
X09154Y17815D01*
G54D46*
X11990Y05887D02*
X11910Y05807D01*
X31791Y16741D02*
X32749Y16741D01*
G54D47*
X20079Y08269D02*
X19586Y08269D01*
X04035Y11418D02*
X04035Y11761D01*
G54D46*
X36772Y02894D02*
X36319Y03347D01*
X04921Y13564D02*
X04921Y13583D01*
X20786Y17815D02*
X20786Y18093D01*
X29017Y16831D02*
X29528Y16831D01*
X21260Y13171D02*
X21260Y13682D01*
X09449Y02344D02*
X09449Y02855D01*
X06564Y05838D02*
X06890Y05512D01*
X28642Y16142D02*
X28642Y16456D01*
X32749Y16741D02*
X32874Y16616D01*
G54D47*
X08563Y05137D02*
X08957Y05137D01*
G54D46*
X07659Y12993D02*
X07973Y12993D01*
X29142Y15748D02*
X28741Y15748D01*
X09350Y14075D02*
X09448Y13977D01*
X13976Y18289D02*
X13976Y18800D01*
G54D47*
X10138Y17815D02*
X10926Y17815D01*
G54D46*
X28642Y15847D02*
X28642Y15748D01*
G54D47*
X10236Y17717D02*
X10236Y17315D01*
G54D46*
X24606Y05284D02*
X24606Y04725D01*
G54D47*
X04429Y08072D02*
X04429Y08662D01*
G54D46*
X36705Y17413D02*
X36705Y18103D01*
G54D47*
X09154Y17815D02*
X10138Y17815D01*
G54D48*
X37205Y11319D02*
X37599Y11713D01*
G54D47*
X20473Y08367D02*
X20177Y08367D01*
G54D46*
X33779Y17323D02*
X33779Y17619D01*
G54D47*
X09744Y05137D02*
X09350Y05137D01*
G54D46*
X15729Y02461D02*
X15729Y02343D01*
X14173Y09252D02*
X13878Y08957D01*
G54D47*
X07579Y09135D02*
X07204Y09135D01*
G54D46*
X03839Y13564D02*
X03051Y13564D01*
G54D47*
X15847Y09744D02*
X14567Y09744D01*
G54D46*
X08544Y13878D02*
X08268Y13602D01*
G54D47*
X07086Y09253D02*
X06594Y09253D01*
G54D46*
X09448Y13977D02*
X10058Y13977D01*
G54D47*
X07776Y05137D02*
X08169Y05137D01*
X07579Y10710D02*
X07953Y10710D01*
G54D46*
X37480Y13465D02*
X37618Y13465D01*
G54D47*
X24291Y17343D02*
X24291Y17697D01*
G54D46*
X36408Y05284D02*
X36930Y05806D01*
X34960Y18031D02*
X34961Y18032D01*
G54D47*
X14567Y09744D02*
X14290Y09467D01*
G54D46*
X12716Y04134D02*
X12716Y03563D01*
X07462Y12008D02*
X07462Y12796D01*
G54D47*
X02639Y13564D02*
X03051Y13564D01*
G54D46*
X29142Y15748D02*
X29528Y15748D01*
G54D47*
X15058Y05709D02*
X14567Y05709D01*
X06989Y10237D02*
X07462Y10710D01*
X16734Y12107D02*
X16734Y12896D01*
X21044Y00985D02*
X21063Y00985D01*
G54D46*
X20079Y18800D02*
X20079Y18289D01*
G54D47*
X18011Y04725D02*
X18011Y04332D01*
G54D46*
X09449Y02855D02*
X09941Y03347D01*
G54D47*
X06102Y09253D02*
X06004Y09351D01*
G54D46*
X10058Y13977D02*
X10433Y14352D01*
X37519Y06103D02*
X37519Y05767D01*
X03839Y13564D02*
X03839Y13977D01*
G54D47*
X16042Y09253D02*
X16042Y09549D01*
G54D46*
X12814Y01163D02*
X12795Y01182D01*
G54D48*
X37205Y10433D02*
X37205Y11319D01*
G54D46*
X27903Y11959D02*
X27903Y11595D01*
G54D47*
X07204Y09135D02*
X07086Y09253D01*
G54D46*
X08759Y13878D02*
X08544Y13878D01*
G54D47*
X10944Y14352D02*
X11024Y14272D01*
G54D46*
X24606Y01977D02*
X24606Y01477D01*
G54D47*
X20836Y09419D02*
X20836Y08730D01*
X02953Y12008D02*
X02559Y12402D01*
X24291Y17697D02*
X24803Y18209D01*
G54D46*
X24292Y16634D02*
X24292Y17342D01*
X33779Y17619D02*
X33268Y17619D01*
G54D47*
X06594Y10237D02*
X06594Y10434D01*
G54D46*
X29528Y15748D02*
X30787Y15748D01*
X05099Y05925D02*
X05413Y05611D01*
X28484Y12540D02*
X27903Y11959D01*
G54D48*
X37752Y10355D02*
X37283Y10355D01*
G54D46*
X28484Y12599D02*
X28839Y12599D01*
X15729Y02343D02*
X15158Y01772D01*
G54D47*
X02559Y12402D02*
X02559Y13484D01*
G54D46*
X09350Y14477D02*
X09350Y14075D01*
G54D47*
X09744Y05137D02*
X09744Y04725D01*
X08169Y05137D02*
X08563Y05137D01*
G54D46*
X20786Y18093D02*
X20079Y18800D01*
G54D47*
X20768Y03839D02*
X21063Y04134D01*
X20257Y04626D02*
X20257Y04036D01*
X19586Y05709D02*
X20375Y05709D01*
X20257Y04036D02*
X20454Y03839D01*
X20454Y03839D02*
X20768Y03839D01*
G54D46*
X07462Y12796D02*
X07659Y12993D01*
G54D47*
X20375Y05709D02*
X20473Y05611D01*
G54D46*
X33464Y16241D02*
X33089Y16616D01*
X30856Y13633D02*
X30807Y13682D01*
X35532Y16616D02*
X36104Y16616D01*
G54D47*
X08957Y05137D02*
X08957Y04725D01*
G54D46*
X30856Y11595D02*
X30856Y13633D01*
X34764Y09764D02*
X34744Y09744D01*
G54D47*
X16042Y09549D02*
X15847Y09744D01*
G54D46*
X34764Y09764D02*
X34764Y10977D01*
G54D48*
X37992Y12107D02*
X37599Y11714D01*
G54D46*
X35630Y01977D02*
X35630Y01083D01*
G54D47*
X10926Y17815D02*
X11221Y17520D01*
G54D46*
X04036Y05925D02*
X04823Y05925D01*
G54D47*
X02559Y13484D02*
X02639Y13564D01*
G54D46*
X33752Y16241D02*
X33464Y16241D01*
X36104Y16616D02*
X36122Y16634D01*
G54D47*
X20473Y08367D02*
X20836Y08730D01*
X04035Y11761D02*
X03788Y12008D01*
X14567Y05709D02*
X14370Y05512D01*
G54D46*
X28839Y12599D02*
X29134Y12894D01*
X11221Y09332D02*
X11221Y09646D01*
X14290Y09252D02*
X14173Y09252D01*
X09350Y14075D02*
X08956Y14075D01*
X24292Y17342D02*
X24291Y17343D01*
X04921Y13583D02*
X05315Y13977D01*
X34252Y16241D02*
X33752Y16241D01*
X14094Y04528D02*
X14094Y04312D01*
G54D47*
X10138Y05137D02*
X09744Y05137D01*
G54D46*
X24606Y01477D02*
X25295Y00788D01*
X24606Y10977D02*
X24606Y13288D01*
G54D48*
X37599Y11714D02*
X37599Y11713D01*
G54D46*
X08760Y02953D02*
X08760Y03445D01*
G54D47*
X21063Y00985D02*
X21457Y00591D01*
G54D46*
X29134Y12894D02*
X29134Y13189D01*
X33779Y17656D02*
X34154Y18031D01*
G54D47*
X06594Y10040D02*
X06594Y10237D01*
X07462Y10710D02*
X07579Y10710D01*
G54D46*
X28484Y12599D02*
X28484Y12540D01*
G54D47*
X16734Y12896D02*
X16831Y12993D01*
G54D46*
X15551Y18289D02*
X15551Y18800D01*
G54D47*
X10138Y17815D02*
X10236Y17717D01*
X08957Y05137D02*
X09350Y05137D01*
X08760Y03445D02*
X08249Y03445D01*
X07953Y10710D02*
X08169Y10926D01*
G54D46*
X08268Y02461D02*
X08760Y02953D01*
X36706Y17412D02*
X36705Y17413D01*
G54D47*
X10433Y14352D02*
X10944Y14352D01*
G54D46*
X04823Y05925D02*
X05099Y05925D01*
X28642Y15748D02*
X28248Y15748D01*
X36706Y16635D02*
X36706Y17412D01*
X12716Y03563D02*
X12697Y03544D01*
X34252Y16241D02*
X34252Y15847D01*
G54D47*
X03788Y12008D02*
X02953Y12008D01*
G54D46*
X13189Y18289D02*
X13189Y18800D01*
X05099Y00610D02*
X04429Y01280D01*
G54D45*
X03739Y10237D02*
X03838Y10138D01*
X03740Y10040D02*
X03248Y10040D01*
X02855Y08859D02*
X02756Y08760D01*
G54D46*
X05905Y18603D02*
X05807Y18701D01*
X00787Y08564D02*
X00984Y08367D01*
X00983Y09744D02*
X00787Y09548D01*
G54D45*
X03248Y10237D02*
X03739Y10237D01*
X03248Y10828D02*
X02657Y10828D01*
X02756Y08760D02*
X02756Y08268D01*
G54D46*
X01298Y10926D02*
X01298Y11498D01*
X00787Y09056D02*
X00787Y08564D01*
G54D45*
X03740Y10040D02*
X03838Y10138D01*
G54D46*
X01003Y05709D02*
X00591Y05709D01*
G54D45*
X03248Y08859D02*
X02855Y08859D01*
G54D46*
X04429Y01280D02*
X04232Y01280D01*
X05905Y18603D02*
X07302Y18603D01*
X01200Y09744D02*
X00983Y09744D01*
X04214Y19095D02*
X04724Y19095D01*
X01298Y11498D02*
X01280Y11516D01*
X05099Y00591D02*
X05099Y00610D01*
G54D45*
X02657Y10828D02*
X02559Y10926D01*
G54D46*
X00787Y09056D02*
X01200Y09056D01*
X00787Y09548D02*
X00787Y09056D01*
X05098Y03150D02*
X04331Y03150D01*
X05924Y18584D02*
X05807Y18701D01*
X00984Y08367D02*
X01200Y08367D01*
X05924Y18111D02*
X05924Y18584D01*
G54D45*
X29724Y17323D02*
X27362Y17323D01*
X27362Y17323D02*
X27264Y17225D01*
X29843Y17204D02*
X29724Y17323D01*
X29843Y16122D02*
X29143Y16122D01*
X08975Y14845D02*
X08975Y14477D01*
X29843Y16122D02*
X29843Y17204D01*
X08957Y14863D02*
X08975Y14845D01*
X10611Y17206D02*
X10236Y16831D01*
X10611Y17315D02*
X10611Y17206D01*
X29143Y16122D02*
X29142Y16123D01*
X19586Y07481D02*
X20965Y07481D01*
X31989Y07579D02*
X32284Y07874D01*
X27559Y07579D02*
X27854Y07579D01*
X20965Y07481D02*
X21063Y07579D01*
X25886Y07579D02*
X27559Y07579D01*
X27854Y07579D02*
X31989Y07579D01*
X32185Y12009D02*
X32087Y12107D01*
X26397Y14291D02*
X26575Y14469D01*
X31004Y14469D02*
X30709Y14469D01*
X31102Y14567D02*
X31004Y14469D01*
X31201Y12992D02*
X31201Y13091D01*
X26575Y14469D02*
X30709Y14469D01*
X32185Y10828D02*
X32185Y12009D01*
X31889Y12304D02*
X31201Y12992D01*
X32087Y12107D02*
X31890Y12304D01*
X32284Y10729D02*
X32185Y10828D01*
X31890Y12304D02*
X31889Y12304D01*
X26083Y14291D02*
X26397Y14291D01*
X02972Y00591D02*
X02344Y00591D01*
X04528Y02559D02*
X05986Y02559D01*
X03131Y03956D02*
X04528Y02559D01*
X05986Y02559D02*
X06201Y02344D01*
X03131Y05709D02*
X03131Y03956D01*
X15749Y12107D02*
X15749Y15552D01*
X17323Y17126D02*
X17323Y17539D01*
X15749Y15552D02*
X17323Y17126D01*
X16831Y18111D02*
X16831Y16930D01*
X17323Y18289D02*
X17009Y18289D01*
X15552Y15651D02*
X15552Y12107D01*
X16831Y16930D02*
X15552Y15651D01*
X17009Y18289D02*
X16831Y18111D01*
X16537Y15160D02*
X18307Y16930D01*
X19470Y16930D02*
X20079Y17539D01*
X16537Y12107D02*
X16537Y15160D01*
X18307Y16930D02*
X19470Y16930D01*
X19390Y17126D02*
X18208Y17126D01*
X19409Y18289D02*
X19587Y18111D01*
X19587Y18111D02*
X19587Y17323D01*
X19587Y17323D02*
X19390Y17126D01*
X18208Y17126D02*
X16340Y15258D01*
X19095Y18289D02*
X19409Y18289D01*
X16340Y15258D02*
X16340Y12107D01*
X17993Y18289D02*
X17815Y18111D01*
X17815Y17323D02*
X15946Y15454D01*
X18307Y18289D02*
X17993Y18289D01*
X17815Y18111D02*
X17815Y17323D01*
X15946Y15454D02*
X15946Y12107D01*
X15355Y15749D02*
X16339Y16733D01*
X15355Y12107D02*
X15355Y15749D01*
X16339Y16733D02*
X16339Y17539D01*
X15551Y17539D02*
X15551Y16240D01*
X15159Y15848D02*
X15159Y12107D01*
X15551Y16240D02*
X15159Y15848D01*
X14764Y16043D02*
X14764Y17539D01*
X14962Y15845D02*
X14764Y16043D01*
X14962Y12107D02*
X14962Y15845D01*
X14765Y15747D02*
X14765Y12107D01*
X13976Y16536D02*
X14765Y15747D01*
X13976Y17539D02*
X13976Y16536D01*
X14568Y12107D02*
X14568Y15649D01*
X14568Y15649D02*
X13189Y17028D01*
X13189Y17028D02*
X13189Y17539D01*
X11614Y14567D02*
X11614Y15355D01*
X16142Y09744D02*
X16142Y09745D01*
X14180Y10363D02*
X13287Y10363D01*
X13287Y10363D02*
X13287Y10729D01*
X16239Y09647D02*
X16142Y09744D01*
X11969Y11063D02*
X11969Y13229D01*
X14533Y10010D02*
X14180Y10363D01*
X13287Y10729D02*
X13189Y10827D01*
X15877Y10010D02*
X14533Y10010D01*
X12205Y10827D02*
X11969Y11063D01*
X08464Y15551D02*
X11418Y15551D01*
X08464Y15551D02*
X07776Y14863D01*
X11614Y15355D02*
X11418Y15551D01*
X16239Y09647D02*
X16239Y09253D01*
X25394Y03445D02*
X26378Y02461D01*
X27264Y02461D02*
X28150Y03347D01*
X28150Y03347D02*
X32382Y03347D01*
X25394Y03445D02*
X24311Y03445D01*
X13287Y08367D02*
X13287Y10313D01*
X26378Y02461D02*
X27264Y02461D01*
X13287Y10313D02*
X13287Y10363D01*
X16142Y09745D02*
X15877Y10010D01*
X13484Y07284D02*
X15058Y07284D01*
X33366Y13387D02*
X33268Y13485D01*
X30906Y06004D02*
X30906Y04234D01*
X30906Y04234D02*
X30413Y03741D01*
X31299Y07874D02*
X33366Y09941D01*
X33268Y13485D02*
X33268Y13682D01*
X33366Y09941D02*
X33366Y13387D01*
X28543Y02067D02*
X29035Y01575D01*
X29035Y01575D02*
X29232Y01575D01*
X13484Y07284D02*
X13287Y07087D01*
X25394Y02855D02*
X26182Y02067D01*
X23918Y02855D02*
X23819Y02756D01*
X23918Y02855D02*
X25394Y02855D01*
X26182Y02067D02*
X28543Y02067D01*
X01870Y14272D02*
X01181Y14272D01*
X02658Y10138D02*
X01083Y10138D01*
X06023Y16634D02*
X06023Y17323D01*
X00689Y13780D02*
X00689Y10532D01*
X01181Y14272D02*
X00689Y13780D01*
X02953Y09843D02*
X02658Y10138D01*
X04134Y16536D02*
X05098Y16536D01*
X05925Y16536D02*
X06023Y16634D01*
X01870Y14272D02*
X04134Y16536D01*
X05098Y16536D02*
X05925Y16536D01*
X01083Y10138D02*
X00689Y10532D01*
X03248Y09843D02*
X02953Y09843D01*
X01594Y00591D02*
X01594Y01329D01*
X01594Y01329D02*
X01358Y01565D01*
X06201Y01594D02*
X05266Y01594D01*
X05266Y01594D02*
X05098Y01762D01*
X14546Y02028D02*
X14979Y02461D01*
X16436Y03346D02*
X16043Y02953D01*
X15158Y02953D02*
X14979Y02774D01*
X13977Y02028D02*
X14546Y02028D01*
X14979Y02774D02*
X14979Y02461D01*
X16436Y04725D02*
X16436Y03346D01*
X16043Y02953D02*
X15158Y02953D01*
X38779Y12402D02*
X38976Y12599D01*
X37795Y12402D02*
X38779Y12402D01*
X38976Y12599D02*
X38976Y14430D01*
X36497Y11104D02*
X37795Y12402D01*
X38976Y14430D02*
X38366Y15040D01*
X36497Y10926D02*
X36497Y11104D01*
X36005Y18306D02*
X35905Y18406D01*
X36005Y17323D02*
X36005Y18306D01*
X37752Y09843D02*
X37205Y09843D01*
X36910Y10138D02*
X36497Y10138D01*
X37205Y09843D02*
X36910Y10138D01*
X37752Y09587D02*
X37146Y09587D01*
X37146Y09587D02*
X36910Y09351D01*
X36910Y09351D02*
X36497Y09351D01*
X33858Y12519D02*
X33858Y11644D01*
X33858Y11644D02*
X33809Y11595D01*
X26279Y11595D02*
X26279Y11928D01*
X26279Y11928D02*
X26870Y12519D01*
X16633Y02540D02*
X16456Y02363D01*
X16456Y02363D02*
X16427Y02363D01*
X16427Y02363D02*
X15049Y00985D01*
X13958Y00985D02*
X13564Y00591D01*
X16633Y04725D02*
X16633Y02540D01*
X15049Y00985D02*
X13958Y00985D01*
X16830Y04725D02*
X16830Y02739D01*
X20294Y00985D02*
X18809Y00985D01*
X16830Y02739D02*
X17206Y02363D01*
X17206Y02363D02*
X17431Y02363D01*
X17431Y02363D02*
X18809Y00985D01*
X03464Y19095D02*
X02836Y19095D01*
X06773Y17323D02*
X06674Y17422D01*
X06674Y17422D02*
X06674Y18111D01*
X06773Y16634D02*
X06773Y17323D01*
X07973Y18524D02*
X08052Y18603D01*
X07973Y17895D02*
X07973Y18524D01*
X02462Y09450D02*
X02068Y09056D01*
X03248Y09450D02*
X02462Y09450D01*
X02068Y09056D02*
X01950Y09056D01*
X06299Y12383D02*
X06712Y12796D01*
X06004Y11713D02*
X06299Y12008D01*
X06004Y11418D02*
X06004Y11713D01*
X06299Y12008D02*
X06299Y12383D01*
X10138Y05887D02*
X10138Y06103D01*
X09252Y06300D02*
X08760Y06792D01*
X06200Y07678D02*
X06004Y07874D01*
X10138Y06103D02*
X09941Y06300D01*
X07481Y06792D02*
X06595Y07678D01*
X06595Y07678D02*
X06200Y07678D01*
X09941Y06300D02*
X09252Y06300D01*
X06004Y07874D02*
X06004Y08072D01*
X08760Y06792D02*
X07481Y06792D01*
X06102Y07481D02*
X06496Y07481D01*
X06496Y07481D02*
X07382Y06595D01*
X05807Y08072D02*
X05807Y07776D01*
X07382Y06595D02*
X08642Y06595D01*
X05807Y07776D02*
X06102Y07481D01*
X08642Y06595D02*
X09350Y05887D01*
X05610Y07678D02*
X06004Y07284D01*
X06398Y07284D02*
X07284Y06398D01*
X05610Y08072D02*
X05610Y07678D01*
X07284Y06398D02*
X08052Y06398D01*
X06004Y07284D02*
X06398Y07284D01*
X08052Y06398D02*
X08563Y05887D01*
X05413Y07580D02*
X05906Y07087D01*
X06299Y07087D02*
X07499Y05887D01*
X05906Y07087D02*
X06299Y07087D01*
X07499Y05887D02*
X07776Y05887D01*
X05413Y08072D02*
X05413Y07580D01*
X01969Y14076D02*
X01281Y14076D01*
X06595Y15650D02*
X07973Y17028D01*
X05697Y15171D02*
X05919Y15171D01*
X06398Y15650D02*
X06595Y15650D01*
X01969Y14076D02*
X03041Y15148D01*
X02658Y10434D02*
X02559Y10335D01*
X01181Y10335D02*
X00886Y10630D01*
X03248Y10434D02*
X02658Y10434D01*
X05098Y15148D02*
X05674Y15148D01*
X03041Y15148D02*
X05098Y15148D01*
X07973Y17028D02*
X07973Y17145D01*
X01281Y14076D02*
X00886Y13681D01*
X02559Y10335D02*
X01181Y10335D01*
X05697Y15171D02*
X05674Y15148D01*
X05919Y15171D02*
X06398Y15650D01*
X00886Y10630D02*
X00886Y13681D01*
X01969Y12500D02*
X01969Y12618D01*
X03051Y11418D02*
X01969Y12500D01*
X03838Y11418D02*
X03051Y11418D01*
X05807Y11418D02*
X05807Y11812D01*
X05807Y11812D02*
X06102Y12107D01*
X06102Y12107D02*
X06102Y12973D01*
X06102Y12973D02*
X06712Y13583D01*
X07658Y07598D02*
X06594Y08662D01*
X08366Y07598D02*
X07658Y07598D01*
X04429Y11418D02*
X04429Y11910D01*
X03839Y12500D02*
X03839Y12814D01*
X04429Y11910D02*
X03839Y12500D01*
X03839Y12205D02*
X04232Y11812D01*
X03051Y12814D02*
X03051Y12600D01*
X04232Y11418D02*
X04232Y11812D01*
X03051Y12600D02*
X03446Y12205D01*
X03446Y12205D02*
X03839Y12205D01*
X02756Y06694D02*
X02756Y04035D01*
X03838Y07776D02*
X02756Y06694D01*
X03543Y00770D02*
X03722Y00591D01*
X03722Y00591D02*
X04349Y00591D01*
X02756Y04035D02*
X03543Y03248D01*
X03838Y08072D02*
X03838Y07776D01*
X03543Y03248D02*
X03543Y00770D01*
X15945Y03150D02*
X14115Y03150D01*
X16239Y04725D02*
X16239Y03444D01*
X14115Y03150D02*
X13977Y03288D01*
X13466Y03799D02*
X13977Y03288D01*
X16239Y03444D02*
X15945Y03150D01*
X13466Y04134D02*
X13466Y03799D01*
X13681Y06989D02*
X13779Y07087D01*
X13779Y07087D02*
X15058Y07087D01*
X25394Y03150D02*
X26280Y02264D01*
X24016Y03150D02*
X25394Y03150D01*
X26280Y02264D02*
X34252Y02264D01*
X34547Y01969D02*
X34252Y02264D01*
X32893Y13564D02*
X32480Y13564D01*
X35944Y12599D02*
X35729Y12599D01*
X37107Y12599D02*
X35944Y12599D01*
X33071Y12599D02*
X33071Y13386D01*
X37225Y12717D02*
X37107Y12599D01*
X35729Y12599D02*
X35532Y12402D01*
X35944Y12599D02*
X35433Y13110D01*
X37480Y12717D02*
X37225Y12717D01*
X33071Y13386D02*
X32893Y13564D01*
X35532Y12402D02*
X35236Y12402D01*
X14567Y08465D02*
X14469Y08563D01*
X33169Y05710D02*
X32776Y06103D01*
X15058Y08465D02*
X14567Y08465D01*
X33169Y04823D02*
X33169Y05710D01*
X27559Y06693D02*
X31201Y06693D01*
X26378Y06693D02*
X27559Y06693D01*
X32185Y03839D02*
X33169Y04823D01*
X13484Y09517D02*
X14030Y10063D01*
X36122Y08963D02*
X36122Y11615D01*
X33760Y03445D02*
X34547Y03445D01*
X36122Y08955D02*
X35980Y08813D01*
X13778Y08269D02*
X13484Y08563D01*
X37106Y06693D02*
X37008Y06595D01*
X36909Y08071D02*
X37106Y07874D01*
X13484Y08563D02*
X13484Y09517D01*
X36122Y08071D02*
X36909Y08071D01*
X34843Y03741D02*
X34547Y03445D01*
X36122Y08963D02*
X36122Y08955D01*
X37008Y06595D02*
X36122Y06595D01*
X36122Y06595D02*
X35827Y06595D01*
X34843Y05611D02*
X34843Y03741D01*
X37106Y07874D02*
X37106Y06693D01*
X35980Y08213D02*
X36122Y08071D01*
X35980Y08813D02*
X35980Y08213D01*
X35827Y06595D02*
X34843Y05611D01*
X15058Y08269D02*
X13778Y08269D01*
X16143Y15356D02*
X18307Y17520D01*
X18307Y17520D02*
X18307Y17539D01*
X16143Y12107D02*
X16143Y15356D01*
X18307Y17539D02*
X19095Y17539D01*
X07874Y04233D02*
X07776Y04331D01*
X06791Y04331D02*
X06102Y05020D01*
X20769Y07678D02*
X21064Y07973D01*
X10728Y04233D02*
X07874Y04233D01*
X06988Y04331D02*
X06791Y04331D01*
X11122Y08071D02*
X10827Y07776D01*
X19586Y07678D02*
X20769Y07678D01*
X21064Y07973D02*
X21260Y07973D01*
X10827Y07776D02*
X10827Y04332D01*
X10827Y04332D02*
X10728Y04233D01*
X02381Y05709D02*
X01753Y05709D01*
X03248Y07874D02*
X02381Y07007D01*
X02381Y07007D02*
X02381Y05709D01*
X03248Y08662D02*
X03248Y07874D01*
X00984Y07875D02*
X00487Y08372D01*
X03248Y09056D02*
X02658Y09056D01*
X02086Y18849D02*
X01358Y18121D01*
X02086Y19095D02*
X02086Y18849D01*
X00487Y14080D02*
X00487Y08372D01*
X00984Y07874D02*
X00984Y07875D01*
X02461Y08859D02*
X02461Y08170D01*
X02658Y09056D02*
X02461Y08859D01*
X02461Y08170D02*
X02165Y07874D01*
X01358Y14951D02*
X01358Y18121D01*
X02165Y07874D02*
X00984Y07874D01*
X00487Y14080D02*
X01358Y14951D01*
X38306Y13564D02*
X37992Y13878D01*
X37992Y13878D02*
X36909Y13878D01*
X36909Y13878D02*
X36536Y13505D01*
X36536Y13505D02*
X36536Y13091D01*
X38484Y13564D02*
X38306Y13564D01*
X37894Y15275D02*
X38386Y15767D01*
X37894Y14666D02*
X37894Y15275D01*
X38268Y14292D02*
X37894Y14666D01*
X38366Y14292D02*
X38366Y13682D01*
X38366Y13682D02*
X38484Y13564D01*
X38366Y14292D02*
X38268Y14292D01*
X35255Y17323D02*
X34529Y17323D01*
X34752Y16616D02*
X34752Y17100D01*
X34752Y17100D02*
X34529Y17323D01*
X08090Y09647D02*
X08366Y09923D01*
X06594Y09647D02*
X08090Y09647D01*
X10405Y11526D02*
X11221Y10710D01*
X09744Y11526D02*
X10405Y11526D01*
X08366Y10148D02*
X09744Y11526D01*
X08366Y09923D02*
X08366Y10148D01*
X09744Y07766D02*
X10405Y07766D01*
X10405Y07766D02*
X11221Y08582D01*
X08366Y09173D02*
X08366Y09144D01*
X08366Y09144D02*
X09744Y07766D01*
X06594Y09450D02*
X08089Y09450D01*
X08089Y09450D02*
X08366Y09173D01*
G54D10*
G36*
X18945Y05366D02*
X15699Y05366D01*
X15699Y08612D01*
X18945Y08612D01*
X18945Y05366D01*
X18945Y05366D01*
G37*
G54D49*
X18945Y05366D02*
X15699Y05366D01*
X15699Y08612D01*
X18945Y08612D01*
X18945Y05366D01*
G54D10*
G36*
X39025Y03073D02*
X38617Y02665D01*
X38617Y03950D01*
X38617Y04120D01*
X38552Y04277D01*
X38433Y04397D01*
X38276Y04463D01*
X38106Y04463D01*
X37949Y04398D01*
X37829Y04279D01*
X37763Y04122D01*
X37763Y03952D01*
X37828Y03795D01*
X37947Y03675D01*
X38104Y03609D01*
X38274Y03609D01*
X38431Y03674D01*
X38551Y03793D01*
X38617Y03950D01*
X38617Y02665D01*
X37747Y01795D01*
X37747Y05462D01*
X37944Y05462D01*
X37944Y06643D01*
X39025Y06643D01*
X39025Y03073D01*
X39025Y03073D01*
G37*
G54D49*
X39025Y03073D02*
X38617Y02665D01*
X38617Y03950D01*
X38617Y04120D01*
X38552Y04277D01*
X38433Y04397D01*
X38276Y04463D01*
X38106Y04463D01*
X37949Y04398D01*
X37829Y04279D01*
X37763Y04122D01*
X37763Y03952D01*
X37828Y03795D01*
X37947Y03675D01*
X38104Y03609D01*
X38274Y03609D01*
X38431Y03674D01*
X38551Y03793D01*
X38617Y03950D01*
X38617Y02665D01*
X37747Y01795D01*
X37747Y05462D01*
X37944Y05462D01*
X37944Y06643D01*
X39025Y06643D01*
X39025Y03073D01*
G54D10*
G36*
X37352Y02511D02*
X36770Y02511D01*
X36758Y02575D01*
X36757Y02576D01*
X36732Y02613D01*
X36682Y02688D01*
X36682Y02689D01*
X36171Y03199D01*
X36059Y03275D01*
X35975Y03292D01*
X35975Y06305D01*
X36122Y06305D01*
X37008Y06305D01*
X37119Y06327D01*
X37213Y06390D01*
X37311Y06488D01*
X37352Y06550D01*
X37352Y04296D01*
X37251Y04397D01*
X37094Y04463D01*
X36924Y04463D01*
X36767Y04398D01*
X36647Y04279D01*
X36581Y04122D01*
X36581Y03952D01*
X36646Y03795D01*
X36765Y03675D01*
X36922Y03609D01*
X37092Y03609D01*
X37249Y03674D01*
X37352Y03777D01*
X37352Y02511D01*
X37352Y02511D01*
G37*
G54D49*
X37352Y02511D02*
X36770Y02511D01*
X36758Y02575D01*
X36757Y02576D01*
X36732Y02613D01*
X36682Y02688D01*
X36682Y02689D01*
X36171Y03199D01*
X36059Y03275D01*
X35975Y03292D01*
X35975Y06305D01*
X36122Y06305D01*
X37008Y06305D01*
X37119Y06327D01*
X37213Y06390D01*
X37311Y06488D01*
X37352Y06550D01*
X37352Y04296D01*
X37251Y04397D01*
X37094Y04463D01*
X36924Y04463D01*
X36767Y04398D01*
X36647Y04279D01*
X36581Y04122D01*
X36581Y03952D01*
X36646Y03795D01*
X36765Y03675D01*
X36922Y03609D01*
X37092Y03609D01*
X37249Y03674D01*
X37352Y03777D01*
X37352Y02511D01*
G54D10*
G36*
X36715Y15994D02*
X36691Y15936D01*
X36691Y15837D01*
X36691Y15616D01*
X36482Y15407D01*
X36419Y15407D01*
X36391Y15475D01*
X36321Y15545D01*
X36230Y15583D01*
X36131Y15583D01*
X35781Y15583D01*
X35689Y15545D01*
X35630Y15486D01*
X35571Y15545D01*
X35480Y15583D01*
X35381Y15583D01*
X35031Y15583D01*
X34939Y15545D01*
X34892Y15498D01*
X34845Y15545D01*
X34754Y15583D01*
X34655Y15583D01*
X34597Y15583D01*
X34597Y15669D01*
X34639Y15770D01*
X34639Y15924D01*
X34609Y15994D01*
X36715Y15994D01*
X36715Y15994D01*
G37*
G54D49*
X36715Y15994D02*
X36691Y15936D01*
X36691Y15837D01*
X36691Y15616D01*
X36482Y15407D01*
X36419Y15407D01*
X36391Y15475D01*
X36321Y15545D01*
X36230Y15583D01*
X36131Y15583D01*
X35781Y15583D01*
X35689Y15545D01*
X35630Y15486D01*
X35571Y15545D01*
X35480Y15583D01*
X35381Y15583D01*
X35031Y15583D01*
X34939Y15545D01*
X34892Y15498D01*
X34845Y15545D01*
X34754Y15583D01*
X34655Y15583D01*
X34597Y15583D01*
X34597Y15669D01*
X34639Y15770D01*
X34639Y15924D01*
X34609Y15994D01*
X36715Y15994D01*
G54D10*
G36*
X39025Y14792D02*
X38810Y15007D01*
X38810Y15229D01*
X38772Y15321D01*
X38738Y15355D01*
X38802Y15381D01*
X38872Y15451D01*
X38910Y15542D01*
X38910Y15641D01*
X38910Y15991D01*
X38872Y16083D01*
X38802Y16153D01*
X38711Y16191D01*
X38612Y16191D01*
X38170Y16191D01*
X38170Y16663D01*
X38148Y16774D01*
X38085Y16868D01*
X37874Y17079D01*
X37879Y17088D01*
X37879Y17187D01*
X37879Y17273D01*
X38365Y17273D01*
X39025Y16613D01*
X39025Y14792D01*
X39025Y14792D01*
G37*
G54D49*
X39025Y14792D02*
X38810Y15007D01*
X38810Y15229D01*
X38772Y15321D01*
X38738Y15355D01*
X38802Y15381D01*
X38872Y15451D01*
X38910Y15542D01*
X38910Y15641D01*
X38910Y15991D01*
X38872Y16083D01*
X38802Y16153D01*
X38711Y16191D01*
X38612Y16191D01*
X38170Y16191D01*
X38170Y16663D01*
X38148Y16774D01*
X38085Y16868D01*
X37874Y17079D01*
X37879Y17088D01*
X37879Y17187D01*
X37879Y17273D01*
X38365Y17273D01*
X39025Y16613D01*
X39025Y14792D01*
G54D10*
G36*
X33907Y14236D02*
X33898Y14232D01*
X33809Y14321D01*
X33710Y14420D01*
X33598Y14496D01*
X33464Y14522D01*
X31489Y14522D01*
X31489Y14644D01*
X31430Y14786D01*
X31321Y14895D01*
X31179Y14954D01*
X31025Y14954D01*
X30883Y14895D01*
X30774Y14786D01*
X30762Y14759D01*
X30709Y14759D01*
X28987Y14759D01*
X28987Y15399D01*
X29041Y15399D01*
X29341Y15399D01*
X29343Y15400D01*
X29357Y15400D01*
X29451Y15361D01*
X29605Y15361D01*
X29698Y15400D01*
X30448Y15400D01*
X30451Y15397D01*
X30542Y15359D01*
X30641Y15359D01*
X31031Y15359D01*
X31123Y15397D01*
X31193Y15467D01*
X31231Y15558D01*
X31231Y15657D01*
X31231Y15937D01*
X31207Y15994D01*
X33219Y15994D01*
X33330Y15919D01*
X33331Y15919D01*
X33464Y15893D01*
X33549Y15893D01*
X33552Y15892D01*
X33651Y15892D01*
X33865Y15892D01*
X33865Y15770D01*
X33907Y15669D01*
X33907Y14236D01*
X33907Y14236D01*
G37*
G54D49*
X33907Y14236D02*
X33898Y14232D01*
X33809Y14321D01*
X33710Y14420D01*
X33598Y14496D01*
X33464Y14522D01*
X31489Y14522D01*
X31489Y14644D01*
X31430Y14786D01*
X31321Y14895D01*
X31179Y14954D01*
X31025Y14954D01*
X30883Y14895D01*
X30774Y14786D01*
X30762Y14759D01*
X30709Y14759D01*
X28987Y14759D01*
X28987Y15399D01*
X29041Y15399D01*
X29341Y15399D01*
X29343Y15400D01*
X29357Y15400D01*
X29451Y15361D01*
X29605Y15361D01*
X29698Y15400D01*
X30448Y15400D01*
X30451Y15397D01*
X30542Y15359D01*
X30641Y15359D01*
X31031Y15359D01*
X31123Y15397D01*
X31193Y15467D01*
X31231Y15558D01*
X31231Y15657D01*
X31231Y15937D01*
X31207Y15994D01*
X33219Y15994D01*
X33330Y15919D01*
X33331Y15919D01*
X33464Y15893D01*
X33549Y15893D01*
X33552Y15892D01*
X33651Y15892D01*
X33865Y15892D01*
X33865Y15770D01*
X33907Y15669D01*
X33907Y14236D01*
G54D10*
G36*
X28592Y15112D02*
X28483Y15112D01*
X28503Y15132D01*
X28541Y15223D01*
X28541Y15322D01*
X28541Y15522D01*
X28503Y15614D01*
X28433Y15684D01*
X28342Y15722D01*
X28243Y15722D01*
X27943Y15722D01*
X27940Y15721D01*
X27907Y15721D01*
X27907Y15789D01*
X27942Y15774D01*
X28041Y15774D01*
X28341Y15774D01*
X28433Y15812D01*
X28503Y15882D01*
X28541Y15973D01*
X28541Y16072D01*
X28541Y16272D01*
X28521Y16320D01*
X28583Y16345D01*
X28592Y16354D01*
X28592Y15112D01*
X28592Y15112D01*
G37*
G54D49*
X28592Y15112D02*
X28483Y15112D01*
X28503Y15132D01*
X28541Y15223D01*
X28541Y15322D01*
X28541Y15522D01*
X28503Y15614D01*
X28433Y15684D01*
X28342Y15722D01*
X28243Y15722D01*
X27943Y15722D01*
X27940Y15721D01*
X27907Y15721D01*
X27907Y15789D01*
X27942Y15774D01*
X28041Y15774D01*
X28341Y15774D01*
X28433Y15812D01*
X28503Y15882D01*
X28541Y15973D01*
X28541Y16072D01*
X28541Y16272D01*
X28521Y16320D01*
X28583Y16345D01*
X28592Y16354D01*
X28592Y15112D01*
G54D10*
G36*
X29553Y16492D02*
X29507Y16473D01*
X29450Y16417D01*
X29433Y16434D01*
X29342Y16472D01*
X29243Y16472D01*
X28943Y16472D01*
X28851Y16434D01*
X28806Y16389D01*
X28627Y16389D01*
X28653Y16415D01*
X28691Y16506D01*
X28691Y16605D01*
X28691Y17033D01*
X29553Y17033D01*
X29553Y16492D01*
X29553Y16492D01*
G37*
G54D49*
X29553Y16492D02*
X29507Y16473D01*
X29450Y16417D01*
X29433Y16434D01*
X29342Y16472D01*
X29243Y16472D01*
X28943Y16472D01*
X28851Y16434D01*
X28806Y16389D01*
X28627Y16389D01*
X28653Y16415D01*
X28691Y16506D01*
X28691Y16605D01*
X28691Y17033D01*
X29553Y17033D01*
X29553Y16492D01*
G54D10*
G36*
X33385Y16389D02*
X30254Y16389D01*
X30249Y16403D01*
X30179Y16473D01*
X30133Y16493D01*
X30133Y17204D01*
X30127Y17230D01*
X32656Y17230D01*
X33353Y16533D01*
X33353Y16467D01*
X33385Y16389D01*
X33385Y16389D01*
G37*
G54D49*
X33385Y16389D02*
X30254Y16389D01*
X30249Y16403D01*
X30179Y16473D01*
X30133Y16493D01*
X30133Y17204D01*
X30127Y17230D01*
X32656Y17230D01*
X33353Y16533D01*
X33353Y16467D01*
X33385Y16389D01*
G54D10*
G36*
X37352Y17937D02*
X37231Y17937D01*
X37139Y17899D01*
X37069Y17829D01*
X37031Y17738D01*
X37031Y17639D01*
X37031Y17089D01*
X37069Y16997D01*
X37100Y16966D01*
X37065Y16880D01*
X37065Y16781D01*
X37065Y16391D01*
X37065Y16389D01*
X35118Y16389D01*
X35151Y16466D01*
X35151Y16565D01*
X35151Y16765D01*
X35136Y16799D01*
X35479Y16799D01*
X35571Y16837D01*
X35630Y16896D01*
X35689Y16837D01*
X35780Y16799D01*
X35879Y16799D01*
X36229Y16799D01*
X36321Y16837D01*
X36391Y16907D01*
X36429Y16998D01*
X36429Y17097D01*
X36429Y17647D01*
X36391Y17739D01*
X36321Y17809D01*
X36295Y17820D01*
X36295Y18109D01*
X36311Y18125D01*
X36349Y18216D01*
X36349Y18315D01*
X36349Y18595D01*
X36311Y18687D01*
X36241Y18757D01*
X36150Y18795D01*
X36051Y18795D01*
X35661Y18795D01*
X35569Y18757D01*
X35499Y18687D01*
X35461Y18596D01*
X35461Y18497D01*
X35461Y18217D01*
X35499Y18125D01*
X35569Y18055D01*
X35660Y18017D01*
X35715Y18017D01*
X35715Y17820D01*
X35689Y17809D01*
X35630Y17750D01*
X35571Y17809D01*
X35480Y17847D01*
X35381Y17847D01*
X35031Y17847D01*
X34939Y17809D01*
X34892Y17762D01*
X34845Y17809D01*
X34754Y17847D01*
X34655Y17847D01*
X34305Y17847D01*
X34213Y17809D01*
X34143Y17739D01*
X34105Y17648D01*
X34105Y17549D01*
X34105Y16999D01*
X34143Y16907D01*
X34213Y16837D01*
X34304Y16799D01*
X34366Y16799D01*
X34353Y16766D01*
X34353Y16667D01*
X34353Y16467D01*
X34385Y16389D01*
X34118Y16389D01*
X34151Y16466D01*
X34151Y16565D01*
X34151Y16765D01*
X34113Y16857D01*
X34043Y16927D01*
X33952Y16965D01*
X33853Y16965D01*
X33741Y16965D01*
X33186Y17520D01*
X33768Y18102D01*
X33831Y18196D01*
X33853Y18307D01*
X33853Y18357D01*
X33928Y18357D01*
X34478Y18357D01*
X34570Y18395D01*
X34614Y18440D01*
X34625Y18429D01*
X34716Y18391D01*
X34815Y18391D01*
X35205Y18391D01*
X35297Y18429D01*
X35367Y18499D01*
X35405Y18590D01*
X35405Y18689D01*
X35405Y18969D01*
X35367Y19061D01*
X35297Y19131D01*
X35206Y19169D01*
X35107Y19169D01*
X34717Y19169D01*
X34625Y19131D01*
X34615Y19122D01*
X34570Y19167D01*
X34479Y19205D01*
X34380Y19205D01*
X33830Y19205D01*
X33738Y19167D01*
X33668Y19097D01*
X33649Y19053D01*
X33630Y19049D01*
X33598Y19028D01*
X33535Y18986D01*
X33515Y18966D01*
X33515Y19340D01*
X36298Y19340D01*
X37352Y18286D01*
X37352Y17937D01*
X37352Y17937D01*
G37*
G54D49*
X37352Y17937D02*
X37231Y17937D01*
X37139Y17899D01*
X37069Y17829D01*
X37031Y17738D01*
X37031Y17639D01*
X37031Y17089D01*
X37069Y16997D01*
X37100Y16966D01*
X37065Y16880D01*
X37065Y16781D01*
X37065Y16391D01*
X37065Y16389D01*
X35118Y16389D01*
X35151Y16466D01*
X35151Y16565D01*
X35151Y16765D01*
X35136Y16799D01*
X35479Y16799D01*
X35571Y16837D01*
X35630Y16896D01*
X35689Y16837D01*
X35780Y16799D01*
X35879Y16799D01*
X36229Y16799D01*
X36321Y16837D01*
X36391Y16907D01*
X36429Y16998D01*
X36429Y17097D01*
X36429Y17647D01*
X36391Y17739D01*
X36321Y17809D01*
X36295Y17820D01*
X36295Y18109D01*
X36311Y18125D01*
X36349Y18216D01*
X36349Y18315D01*
X36349Y18595D01*
X36311Y18687D01*
X36241Y18757D01*
X36150Y18795D01*
X36051Y18795D01*
X35661Y18795D01*
X35569Y18757D01*
X35499Y18687D01*
X35461Y18596D01*
X35461Y18497D01*
X35461Y18217D01*
X35499Y18125D01*
X35569Y18055D01*
X35660Y18017D01*
X35715Y18017D01*
X35715Y17820D01*
X35689Y17809D01*
X35630Y17750D01*
X35571Y17809D01*
X35480Y17847D01*
X35381Y17847D01*
X35031Y17847D01*
X34939Y17809D01*
X34892Y17762D01*
X34845Y17809D01*
X34754Y17847D01*
X34655Y17847D01*
X34305Y17847D01*
X34213Y17809D01*
X34143Y17739D01*
X34105Y17648D01*
X34105Y17549D01*
X34105Y16999D01*
X34143Y16907D01*
X34213Y16837D01*
X34304Y16799D01*
X34366Y16799D01*
X34353Y16766D01*
X34353Y16667D01*
X34353Y16467D01*
X34385Y16389D01*
X34118Y16389D01*
X34151Y16466D01*
X34151Y16565D01*
X34151Y16765D01*
X34113Y16857D01*
X34043Y16927D01*
X33952Y16965D01*
X33853Y16965D01*
X33741Y16965D01*
X33186Y17520D01*
X33768Y18102D01*
X33831Y18196D01*
X33853Y18307D01*
X33853Y18357D01*
X33928Y18357D01*
X34478Y18357D01*
X34570Y18395D01*
X34614Y18440D01*
X34625Y18429D01*
X34716Y18391D01*
X34815Y18391D01*
X35205Y18391D01*
X35297Y18429D01*
X35367Y18499D01*
X35405Y18590D01*
X35405Y18689D01*
X35405Y18969D01*
X35367Y19061D01*
X35297Y19131D01*
X35206Y19169D01*
X35107Y19169D01*
X34717Y19169D01*
X34625Y19131D01*
X34615Y19122D01*
X34570Y19167D01*
X34479Y19205D01*
X34380Y19205D01*
X33830Y19205D01*
X33738Y19167D01*
X33668Y19097D01*
X33649Y19053D01*
X33630Y19049D01*
X33598Y19028D01*
X33535Y18986D01*
X33515Y18966D01*
X33515Y19340D01*
X36298Y19340D01*
X37352Y18286D01*
X37352Y17937D01*
M02*
