G04 (created by PCBNEW-RS274X (2012-05-21 BZR 3261)-stable) date Wed 26 Sep 2012 20:51:20 BST*
G01*
G70*
G90*
%MOIN*%
G04 Gerber Fmt 3.4, Leading zero omitted, Abs format*
%FSLAX34Y34*%
G04 APERTURE LIST*
%ADD10C,0.006000*%
%ADD11C,0.012000*%
%ADD12C,0.015000*%
%ADD13C,0.005000*%
%ADD14C,0.000100*%
G04 APERTURE END LIST*
G54D10*
G54D11*
X26793Y02279D02*
X26822Y02250D01*
X26908Y02222D01*
X26965Y02222D01*
X27050Y02250D01*
X27108Y02307D01*
X27136Y02363D01*
X27165Y02476D01*
X27165Y02560D01*
X27136Y02673D01*
X27108Y02729D01*
X27050Y02785D01*
X26965Y02813D01*
X26908Y02813D01*
X26822Y02785D01*
X26793Y02757D01*
X26450Y02222D02*
X26508Y02250D01*
X26536Y02279D01*
X26565Y02335D01*
X26565Y02504D01*
X26536Y02560D01*
X26508Y02588D01*
X26450Y02616D01*
X26365Y02616D01*
X26308Y02588D01*
X26279Y02560D01*
X26250Y02504D01*
X26250Y02335D01*
X26279Y02279D01*
X26308Y02250D01*
X26365Y02222D01*
X26450Y02222D01*
X25993Y02616D02*
X25993Y02025D01*
X25993Y02588D02*
X25936Y02616D01*
X25822Y02616D01*
X25765Y02588D01*
X25736Y02560D01*
X25707Y02504D01*
X25707Y02335D01*
X25736Y02279D01*
X25765Y02250D01*
X25822Y02222D01*
X25936Y02222D01*
X25993Y02250D01*
X25507Y02616D02*
X25364Y02222D01*
X25222Y02616D02*
X25364Y02222D01*
X25422Y02082D01*
X25450Y02053D01*
X25507Y02025D01*
X24993Y02222D02*
X24993Y02616D01*
X24993Y02504D02*
X24965Y02560D01*
X24936Y02588D01*
X24879Y02616D01*
X24822Y02616D01*
X24622Y02222D02*
X24622Y02616D01*
X24622Y02813D02*
X24651Y02785D01*
X24622Y02757D01*
X24594Y02785D01*
X24622Y02813D01*
X24622Y02757D01*
X24079Y02616D02*
X24079Y02138D01*
X24108Y02082D01*
X24136Y02053D01*
X24193Y02025D01*
X24279Y02025D01*
X24336Y02053D01*
X24079Y02250D02*
X24136Y02222D01*
X24250Y02222D01*
X24308Y02250D01*
X24336Y02279D01*
X24365Y02335D01*
X24365Y02504D01*
X24336Y02560D01*
X24308Y02588D01*
X24250Y02616D01*
X24136Y02616D01*
X24079Y02588D01*
X23793Y02222D02*
X23793Y02813D01*
X23536Y02222D02*
X23536Y02532D01*
X23565Y02588D01*
X23622Y02616D01*
X23707Y02616D01*
X23765Y02588D01*
X23793Y02560D01*
X23336Y02616D02*
X23107Y02616D01*
X23250Y02813D02*
X23250Y02307D01*
X23222Y02250D01*
X23164Y02222D01*
X23107Y02222D01*
X22479Y02757D02*
X22450Y02785D01*
X22393Y02813D01*
X22250Y02813D01*
X22193Y02785D01*
X22164Y02757D01*
X22136Y02701D01*
X22136Y02644D01*
X22164Y02560D01*
X22507Y02222D01*
X22136Y02222D01*
X21765Y02813D02*
X21708Y02813D01*
X21651Y02785D01*
X21622Y02757D01*
X21593Y02701D01*
X21565Y02588D01*
X21565Y02447D01*
X21593Y02335D01*
X21622Y02279D01*
X21651Y02250D01*
X21708Y02222D01*
X21765Y02222D01*
X21822Y02250D01*
X21851Y02279D01*
X21879Y02335D01*
X21908Y02447D01*
X21908Y02588D01*
X21879Y02701D01*
X21851Y02757D01*
X21822Y02785D01*
X21765Y02813D01*
X20994Y02222D02*
X21337Y02222D01*
X21165Y02222D02*
X21165Y02813D01*
X21222Y02729D01*
X21280Y02673D01*
X21337Y02644D01*
X20766Y02757D02*
X20737Y02785D01*
X20680Y02813D01*
X20537Y02813D01*
X20480Y02785D01*
X20451Y02757D01*
X20423Y02701D01*
X20423Y02644D01*
X20451Y02560D01*
X20794Y02222D01*
X20423Y02222D01*
X19709Y02222D02*
X19709Y02813D01*
X19366Y02222D01*
X19366Y02813D01*
X18823Y02222D02*
X18823Y02532D01*
X18852Y02588D01*
X18909Y02616D01*
X19023Y02616D01*
X19080Y02588D01*
X18823Y02250D02*
X18880Y02222D01*
X19023Y02222D01*
X19080Y02250D01*
X19109Y02307D01*
X19109Y02363D01*
X19080Y02419D01*
X19023Y02447D01*
X18880Y02447D01*
X18823Y02476D01*
X18623Y02616D02*
X18394Y02616D01*
X18537Y02813D02*
X18537Y02307D01*
X18509Y02250D01*
X18451Y02222D01*
X18394Y02222D01*
X18194Y02222D02*
X18194Y02813D01*
X17937Y02222D02*
X17937Y02532D01*
X17966Y02588D01*
X18023Y02616D01*
X18108Y02616D01*
X18166Y02588D01*
X18194Y02560D01*
X17394Y02222D02*
X17394Y02532D01*
X17423Y02588D01*
X17480Y02616D01*
X17594Y02616D01*
X17651Y02588D01*
X17394Y02250D02*
X17451Y02222D01*
X17594Y02222D01*
X17651Y02250D01*
X17680Y02307D01*
X17680Y02363D01*
X17651Y02419D01*
X17594Y02447D01*
X17451Y02447D01*
X17394Y02476D01*
X17108Y02616D02*
X17108Y02222D01*
X17108Y02560D02*
X17080Y02588D01*
X17022Y02616D01*
X16937Y02616D01*
X16880Y02588D01*
X16851Y02532D01*
X16851Y02222D01*
X16108Y02222D02*
X16108Y02813D01*
X15965Y02813D01*
X15880Y02785D01*
X15822Y02729D01*
X15794Y02673D01*
X15765Y02560D01*
X15765Y02476D01*
X15794Y02363D01*
X15822Y02307D01*
X15880Y02250D01*
X15965Y02222D01*
X16108Y02222D01*
X15251Y02616D02*
X15251Y02222D01*
X15508Y02616D02*
X15508Y02307D01*
X15480Y02250D01*
X15422Y02222D01*
X15337Y02222D01*
X15280Y02250D01*
X15251Y02279D01*
X14965Y02222D02*
X14965Y02616D01*
X14965Y02560D02*
X14937Y02588D01*
X14879Y02616D01*
X14794Y02616D01*
X14737Y02588D01*
X14708Y02532D01*
X14708Y02222D01*
X14708Y02532D02*
X14679Y02588D01*
X14622Y02616D01*
X14537Y02616D01*
X14479Y02588D01*
X14451Y02532D01*
X14451Y02222D01*
X14079Y02222D02*
X14137Y02250D01*
X14165Y02279D01*
X14194Y02335D01*
X14194Y02504D01*
X14165Y02560D01*
X14137Y02588D01*
X14079Y02616D01*
X13994Y02616D01*
X13937Y02588D01*
X13908Y02560D01*
X13879Y02504D01*
X13879Y02335D01*
X13908Y02279D01*
X13937Y02250D01*
X13994Y02222D01*
X14079Y02222D01*
X13622Y02616D02*
X13622Y02222D01*
X13622Y02560D02*
X13594Y02588D01*
X13536Y02616D01*
X13451Y02616D01*
X13394Y02588D01*
X13365Y02532D01*
X13365Y02222D01*
X13165Y02616D02*
X12936Y02616D01*
X13079Y02813D02*
X13079Y02307D01*
X13051Y02250D01*
X12993Y02222D01*
X12936Y02222D01*
X20309Y01337D02*
X20195Y01337D01*
X20137Y01309D01*
X20080Y01253D01*
X20052Y01140D01*
X20052Y00943D01*
X20080Y00831D01*
X20137Y00774D01*
X20195Y00746D01*
X20309Y00746D01*
X20366Y00774D01*
X20423Y00831D01*
X20452Y00943D01*
X20452Y01140D01*
X20423Y01253D01*
X20366Y01309D01*
X20309Y01337D01*
X19537Y01140D02*
X19537Y00662D01*
X19566Y00606D01*
X19594Y00577D01*
X19651Y00549D01*
X19737Y00549D01*
X19794Y00577D01*
X19537Y00774D02*
X19594Y00746D01*
X19708Y00746D01*
X19766Y00774D01*
X19794Y00803D01*
X19823Y00859D01*
X19823Y01028D01*
X19794Y01084D01*
X19766Y01112D01*
X19708Y01140D01*
X19594Y01140D01*
X19537Y01112D01*
X18994Y01140D02*
X18994Y00662D01*
X19023Y00606D01*
X19051Y00577D01*
X19108Y00549D01*
X19194Y00549D01*
X19251Y00577D01*
X18994Y00774D02*
X19051Y00746D01*
X19165Y00746D01*
X19223Y00774D01*
X19251Y00803D01*
X19280Y00859D01*
X19280Y01028D01*
X19251Y01084D01*
X19223Y01112D01*
X19165Y01140D01*
X19051Y01140D01*
X18994Y01112D01*
X18508Y01056D02*
X18422Y01028D01*
X18394Y01000D01*
X18365Y00943D01*
X18365Y00859D01*
X18394Y00803D01*
X18422Y00774D01*
X18480Y00746D01*
X18708Y00746D01*
X18708Y01337D01*
X18508Y01337D01*
X18451Y01309D01*
X18422Y01281D01*
X18394Y01225D01*
X18394Y01168D01*
X18422Y01112D01*
X18451Y01084D01*
X18508Y01056D01*
X18708Y01056D01*
X18022Y00746D02*
X18080Y00774D01*
X18108Y00803D01*
X18137Y00859D01*
X18137Y01028D01*
X18108Y01084D01*
X18080Y01112D01*
X18022Y01140D01*
X17937Y01140D01*
X17880Y01112D01*
X17851Y01084D01*
X17822Y01028D01*
X17822Y00859D01*
X17851Y00803D01*
X17880Y00774D01*
X17937Y00746D01*
X18022Y00746D01*
X17622Y00746D02*
X17308Y01140D01*
X17622Y01140D02*
X17308Y00746D01*
X16622Y00746D02*
X16622Y01140D01*
X16622Y01028D02*
X16594Y01084D01*
X16565Y01112D01*
X16508Y01140D01*
X16451Y01140D01*
X16023Y00774D02*
X16080Y00746D01*
X16194Y00746D01*
X16251Y00774D01*
X16280Y00831D01*
X16280Y01056D01*
X16251Y01112D01*
X16194Y01140D01*
X16080Y01140D01*
X16023Y01112D01*
X15994Y01056D01*
X15994Y01000D01*
X16280Y00943D01*
X15794Y01140D02*
X15651Y00746D01*
X15509Y01140D01*
X15280Y00803D02*
X15252Y00774D01*
X15280Y00746D01*
X15309Y00774D01*
X15280Y00803D01*
X15280Y00746D01*
X14337Y01056D02*
X14251Y01028D01*
X14223Y01000D01*
X14194Y00943D01*
X14194Y00859D01*
X14223Y00803D01*
X14251Y00774D01*
X14309Y00746D01*
X14537Y00746D01*
X14537Y01337D01*
X14337Y01337D01*
X14280Y01309D01*
X14251Y01281D01*
X14223Y01225D01*
X14223Y01168D01*
X14251Y01112D01*
X14280Y01084D01*
X14337Y01056D01*
X14537Y01056D01*
G54D12*
X39369Y16733D02*
X39370Y16733D01*
X36417Y19685D02*
X39369Y16733D01*
X00984Y19685D02*
X00000Y18701D01*
X36417Y19685D02*
X00984Y19685D01*
X36417Y00000D02*
X39370Y02953D01*
X00000Y00984D02*
X00000Y00985D01*
X00984Y00000D02*
X00000Y00984D01*
X36417Y00000D02*
X00984Y00000D01*
X00000Y18701D02*
X00000Y00985D01*
X39370Y16733D02*
X39370Y02953D01*
G54D13*
X29278Y06929D02*
X29277Y06920D01*
X29274Y06910D01*
X29269Y06902D01*
X29263Y06894D01*
X29255Y06888D01*
X29247Y06883D01*
X29238Y06881D01*
X29228Y06880D01*
X29219Y06880D01*
X29210Y06883D01*
X29201Y06888D01*
X29194Y06894D01*
X29187Y06901D01*
X29183Y06910D01*
X29180Y06919D01*
X29179Y06929D01*
X29179Y06938D01*
X29182Y06947D01*
X29186Y06956D01*
X29193Y06963D01*
X29200Y06970D01*
X29208Y06974D01*
X29218Y06977D01*
X29227Y06978D01*
X29236Y06978D01*
X29246Y06975D01*
X29254Y06971D01*
X29262Y06965D01*
X29268Y06957D01*
X29273Y06949D01*
X29276Y06940D01*
X29277Y06930D01*
X29278Y06929D01*
X29228Y07379D02*
X29228Y06979D01*
X29228Y06979D02*
X29828Y06979D01*
X29828Y06979D02*
X29828Y07379D01*
X29828Y07779D02*
X29828Y08179D01*
X29828Y08179D02*
X29228Y08179D01*
X29228Y08179D02*
X29228Y07779D01*
X30763Y08229D02*
X30762Y08220D01*
X30759Y08210D01*
X30754Y08202D01*
X30748Y08194D01*
X30740Y08188D01*
X30732Y08183D01*
X30723Y08181D01*
X30713Y08180D01*
X30704Y08180D01*
X30695Y08183D01*
X30686Y08188D01*
X30679Y08194D01*
X30672Y08201D01*
X30668Y08210D01*
X30665Y08219D01*
X30664Y08229D01*
X30664Y08238D01*
X30667Y08247D01*
X30671Y08256D01*
X30678Y08263D01*
X30685Y08270D01*
X30693Y08274D01*
X30703Y08277D01*
X30712Y08278D01*
X30721Y08278D01*
X30731Y08275D01*
X30739Y08271D01*
X30747Y08265D01*
X30753Y08257D01*
X30758Y08249D01*
X30761Y08240D01*
X30762Y08230D01*
X30763Y08229D01*
X30713Y07779D02*
X30713Y08179D01*
X30713Y08179D02*
X30113Y08179D01*
X30113Y08179D02*
X30113Y07779D01*
X30113Y07379D02*
X30113Y06979D01*
X30113Y06979D02*
X30713Y06979D01*
X30713Y06979D02*
X30713Y07379D01*
X30230Y02613D02*
X30229Y02604D01*
X30226Y02594D01*
X30221Y02586D01*
X30215Y02578D01*
X30207Y02572D01*
X30199Y02567D01*
X30190Y02565D01*
X30180Y02564D01*
X30171Y02564D01*
X30162Y02567D01*
X30153Y02572D01*
X30146Y02578D01*
X30139Y02585D01*
X30135Y02594D01*
X30132Y02603D01*
X30131Y02613D01*
X30131Y02622D01*
X30134Y02631D01*
X30138Y02640D01*
X30145Y02647D01*
X30152Y02654D01*
X30160Y02658D01*
X30170Y02661D01*
X30179Y02662D01*
X30188Y02662D01*
X30198Y02659D01*
X30206Y02655D01*
X30214Y02649D01*
X30220Y02641D01*
X30225Y02633D01*
X30228Y02624D01*
X30229Y02614D01*
X30230Y02613D01*
X30180Y02163D02*
X30180Y02563D01*
X30180Y02563D02*
X29580Y02563D01*
X29580Y02563D02*
X29580Y02163D01*
X29580Y01763D02*
X29580Y01363D01*
X29580Y01363D02*
X30180Y01363D01*
X30180Y01363D02*
X30180Y01763D01*
X31230Y02613D02*
X31229Y02604D01*
X31226Y02594D01*
X31221Y02586D01*
X31215Y02578D01*
X31207Y02572D01*
X31199Y02567D01*
X31190Y02565D01*
X31180Y02564D01*
X31171Y02564D01*
X31162Y02567D01*
X31153Y02572D01*
X31146Y02578D01*
X31139Y02585D01*
X31135Y02594D01*
X31132Y02603D01*
X31131Y02613D01*
X31131Y02622D01*
X31134Y02631D01*
X31138Y02640D01*
X31145Y02647D01*
X31152Y02654D01*
X31160Y02658D01*
X31170Y02661D01*
X31179Y02662D01*
X31188Y02662D01*
X31198Y02659D01*
X31206Y02655D01*
X31214Y02649D01*
X31220Y02641D01*
X31225Y02633D01*
X31228Y02624D01*
X31229Y02614D01*
X31230Y02613D01*
X31180Y02163D02*
X31180Y02563D01*
X31180Y02563D02*
X30580Y02563D01*
X30580Y02563D02*
X30580Y02163D01*
X30580Y01763D02*
X30580Y01363D01*
X30580Y01363D02*
X31180Y01363D01*
X31180Y01363D02*
X31180Y01763D01*
X32230Y02613D02*
X32229Y02604D01*
X32226Y02594D01*
X32221Y02586D01*
X32215Y02578D01*
X32207Y02572D01*
X32199Y02567D01*
X32190Y02565D01*
X32180Y02564D01*
X32171Y02564D01*
X32162Y02567D01*
X32153Y02572D01*
X32146Y02578D01*
X32139Y02585D01*
X32135Y02594D01*
X32132Y02603D01*
X32131Y02613D01*
X32131Y02622D01*
X32134Y02631D01*
X32138Y02640D01*
X32145Y02647D01*
X32152Y02654D01*
X32160Y02658D01*
X32170Y02661D01*
X32179Y02662D01*
X32188Y02662D01*
X32198Y02659D01*
X32206Y02655D01*
X32214Y02649D01*
X32220Y02641D01*
X32225Y02633D01*
X32228Y02624D01*
X32229Y02614D01*
X32230Y02613D01*
X32180Y02163D02*
X32180Y02563D01*
X32180Y02563D02*
X31580Y02563D01*
X31580Y02563D02*
X31580Y02163D01*
X31580Y01763D02*
X31580Y01363D01*
X31580Y01363D02*
X32180Y01363D01*
X32180Y01363D02*
X32180Y01763D01*
X33230Y02613D02*
X33229Y02604D01*
X33226Y02594D01*
X33221Y02586D01*
X33215Y02578D01*
X33207Y02572D01*
X33199Y02567D01*
X33190Y02565D01*
X33180Y02564D01*
X33171Y02564D01*
X33162Y02567D01*
X33153Y02572D01*
X33146Y02578D01*
X33139Y02585D01*
X33135Y02594D01*
X33132Y02603D01*
X33131Y02613D01*
X33131Y02622D01*
X33134Y02631D01*
X33138Y02640D01*
X33145Y02647D01*
X33152Y02654D01*
X33160Y02658D01*
X33170Y02661D01*
X33179Y02662D01*
X33188Y02662D01*
X33198Y02659D01*
X33206Y02655D01*
X33214Y02649D01*
X33220Y02641D01*
X33225Y02633D01*
X33228Y02624D01*
X33229Y02614D01*
X33230Y02613D01*
X33180Y02163D02*
X33180Y02563D01*
X33180Y02563D02*
X32580Y02563D01*
X32580Y02563D02*
X32580Y02163D01*
X32580Y01763D02*
X32580Y01363D01*
X32580Y01363D02*
X33180Y01363D01*
X33180Y01363D02*
X33180Y01763D01*
X34230Y02613D02*
X34229Y02604D01*
X34226Y02594D01*
X34221Y02586D01*
X34215Y02578D01*
X34207Y02572D01*
X34199Y02567D01*
X34190Y02565D01*
X34180Y02564D01*
X34171Y02564D01*
X34162Y02567D01*
X34153Y02572D01*
X34146Y02578D01*
X34139Y02585D01*
X34135Y02594D01*
X34132Y02603D01*
X34131Y02613D01*
X34131Y02622D01*
X34134Y02631D01*
X34138Y02640D01*
X34145Y02647D01*
X34152Y02654D01*
X34160Y02658D01*
X34170Y02661D01*
X34179Y02662D01*
X34188Y02662D01*
X34198Y02659D01*
X34206Y02655D01*
X34214Y02649D01*
X34220Y02641D01*
X34225Y02633D01*
X34228Y02624D01*
X34229Y02614D01*
X34230Y02613D01*
X34180Y02163D02*
X34180Y02563D01*
X34180Y02563D02*
X33580Y02563D01*
X33580Y02563D02*
X33580Y02163D01*
X33580Y01763D02*
X33580Y01363D01*
X33580Y01363D02*
X34180Y01363D01*
X34180Y01363D02*
X34180Y01763D01*
X03731Y05615D02*
X03730Y05606D01*
X03727Y05596D01*
X03722Y05588D01*
X03716Y05580D01*
X03708Y05574D01*
X03700Y05569D01*
X03691Y05567D01*
X03681Y05566D01*
X03672Y05566D01*
X03663Y05569D01*
X03654Y05574D01*
X03647Y05580D01*
X03640Y05587D01*
X03636Y05596D01*
X03633Y05605D01*
X03632Y05615D01*
X03632Y05624D01*
X03635Y05633D01*
X03639Y05642D01*
X03646Y05649D01*
X03653Y05656D01*
X03661Y05660D01*
X03671Y05663D01*
X03680Y05664D01*
X03689Y05664D01*
X03699Y05661D01*
X03707Y05657D01*
X03715Y05651D01*
X03721Y05643D01*
X03726Y05635D01*
X03729Y05626D01*
X03730Y05616D01*
X03731Y05615D01*
X04131Y05615D02*
X03731Y05615D01*
X03731Y05615D02*
X03731Y05015D01*
X03731Y05015D02*
X04131Y05015D01*
X04531Y05015D02*
X04931Y05015D01*
X04931Y05015D02*
X04931Y05615D01*
X04931Y05615D02*
X04531Y05615D01*
X29342Y14956D02*
X29341Y14947D01*
X29338Y14937D01*
X29333Y14929D01*
X29327Y14921D01*
X29319Y14915D01*
X29311Y14910D01*
X29302Y14908D01*
X29292Y14907D01*
X29283Y14907D01*
X29274Y14910D01*
X29265Y14915D01*
X29258Y14921D01*
X29251Y14928D01*
X29247Y14937D01*
X29244Y14946D01*
X29243Y14956D01*
X29243Y14965D01*
X29246Y14974D01*
X29250Y14983D01*
X29257Y14990D01*
X29264Y14997D01*
X29272Y15001D01*
X29282Y15004D01*
X29291Y15005D01*
X29300Y15005D01*
X29310Y15002D01*
X29318Y14998D01*
X29326Y14992D01*
X29332Y14984D01*
X29337Y14976D01*
X29340Y14967D01*
X29341Y14957D01*
X29342Y14956D01*
X28842Y14956D02*
X29242Y14956D01*
X29242Y14956D02*
X29242Y15556D01*
X29242Y15556D02*
X28842Y15556D01*
X28442Y15556D02*
X28042Y15556D01*
X28042Y15556D02*
X28042Y14956D01*
X28042Y14956D02*
X28442Y14956D01*
X32821Y07618D02*
X32820Y07609D01*
X32817Y07599D01*
X32812Y07591D01*
X32806Y07583D01*
X32798Y07577D01*
X32790Y07572D01*
X32781Y07570D01*
X32771Y07569D01*
X32762Y07569D01*
X32753Y07572D01*
X32744Y07577D01*
X32737Y07583D01*
X32730Y07590D01*
X32726Y07599D01*
X32723Y07608D01*
X32722Y07618D01*
X32722Y07627D01*
X32725Y07636D01*
X32729Y07645D01*
X32736Y07652D01*
X32743Y07659D01*
X32751Y07663D01*
X32761Y07666D01*
X32770Y07667D01*
X32779Y07667D01*
X32789Y07664D01*
X32797Y07660D01*
X32805Y07654D01*
X32811Y07646D01*
X32816Y07638D01*
X32819Y07629D01*
X32820Y07619D01*
X32821Y07618D01*
X32771Y08068D02*
X32771Y07668D01*
X32771Y07668D02*
X33371Y07668D01*
X33371Y07668D02*
X33371Y08068D01*
X33371Y08468D02*
X33371Y08868D01*
X33371Y08868D02*
X32771Y08868D01*
X32771Y08868D02*
X32771Y08468D01*
X32437Y10493D02*
X32436Y10484D01*
X32433Y10474D01*
X32428Y10466D01*
X32422Y10458D01*
X32414Y10452D01*
X32406Y10447D01*
X32397Y10445D01*
X32387Y10444D01*
X32378Y10444D01*
X32369Y10447D01*
X32360Y10452D01*
X32353Y10458D01*
X32346Y10465D01*
X32342Y10474D01*
X32339Y10483D01*
X32338Y10493D01*
X32338Y10502D01*
X32341Y10511D01*
X32345Y10520D01*
X32352Y10527D01*
X32359Y10534D01*
X32367Y10538D01*
X32377Y10541D01*
X32386Y10542D01*
X32395Y10542D01*
X32405Y10539D01*
X32413Y10535D01*
X32421Y10529D01*
X32427Y10521D01*
X32432Y10513D01*
X32435Y10504D01*
X32436Y10494D01*
X32437Y10493D01*
X32387Y10043D02*
X32387Y10443D01*
X32387Y10443D02*
X31787Y10443D01*
X31787Y10443D02*
X31787Y10043D01*
X31787Y09643D02*
X31787Y09243D01*
X31787Y09243D02*
X32387Y09243D01*
X32387Y09243D02*
X32387Y09643D01*
G54D12*
X22047Y19686D02*
X25000Y19686D01*
X11024Y19686D02*
X21063Y19686D01*
X09646Y19686D02*
X09843Y19686D01*
X07087Y19686D02*
X09646Y19686D01*
X26772Y19686D02*
X26772Y03150D01*
X26772Y03150D02*
X05118Y03150D01*
X05118Y03150D02*
X05118Y19686D01*
X05118Y19686D02*
X05906Y19686D01*
X26772Y19686D02*
X25984Y19686D01*
G54D13*
X02747Y07190D02*
X02746Y07181D01*
X02743Y07171D01*
X02738Y07163D01*
X02732Y07155D01*
X02724Y07149D01*
X02716Y07144D01*
X02707Y07142D01*
X02697Y07141D01*
X02688Y07141D01*
X02679Y07144D01*
X02670Y07149D01*
X02663Y07155D01*
X02656Y07162D01*
X02652Y07171D01*
X02649Y07180D01*
X02648Y07190D01*
X02648Y07199D01*
X02651Y07208D01*
X02655Y07217D01*
X02662Y07224D01*
X02669Y07231D01*
X02677Y07235D01*
X02687Y07238D01*
X02696Y07239D01*
X02705Y07239D01*
X02715Y07236D01*
X02723Y07232D01*
X02731Y07226D01*
X02737Y07218D01*
X02742Y07210D01*
X02745Y07201D01*
X02746Y07191D01*
X02747Y07190D01*
X03147Y07190D02*
X02747Y07190D01*
X02747Y07190D02*
X02747Y06590D01*
X02747Y06590D02*
X03147Y06590D01*
X03547Y06590D02*
X03947Y06590D01*
X03947Y06590D02*
X03947Y07190D01*
X03947Y07190D02*
X03547Y07190D01*
X29813Y15556D02*
X29812Y15547D01*
X29809Y15537D01*
X29804Y15529D01*
X29798Y15521D01*
X29790Y15515D01*
X29782Y15510D01*
X29773Y15508D01*
X29763Y15507D01*
X29754Y15507D01*
X29745Y15510D01*
X29736Y15515D01*
X29729Y15521D01*
X29722Y15528D01*
X29718Y15537D01*
X29715Y15546D01*
X29714Y15556D01*
X29714Y15565D01*
X29717Y15574D01*
X29721Y15583D01*
X29728Y15590D01*
X29735Y15597D01*
X29743Y15601D01*
X29753Y15604D01*
X29762Y15605D01*
X29771Y15605D01*
X29781Y15602D01*
X29789Y15598D01*
X29797Y15592D01*
X29803Y15584D01*
X29808Y15576D01*
X29811Y15567D01*
X29812Y15557D01*
X29813Y15556D01*
X30213Y15556D02*
X29813Y15556D01*
X29813Y15556D02*
X29813Y14956D01*
X29813Y14956D02*
X30213Y14956D01*
X30613Y14956D02*
X31013Y14956D01*
X31013Y14956D02*
X31013Y15556D01*
X31013Y15556D02*
X30613Y15556D01*
G54D12*
X01181Y03445D02*
X01181Y04429D01*
X03543Y03445D02*
X03543Y04429D01*
X02657Y05217D02*
X02067Y05217D01*
X02657Y02657D02*
X02067Y02657D01*
X29036Y11024D02*
X30020Y11024D01*
X29036Y08662D02*
X30020Y08662D01*
X30808Y09548D02*
X30808Y10138D01*
X28248Y09548D02*
X28248Y10138D01*
X36910Y11024D02*
X37894Y11024D01*
X36910Y08662D02*
X37894Y08662D01*
X38682Y09548D02*
X38682Y10138D01*
X36122Y09548D02*
X36122Y10138D01*
X32973Y14961D02*
X33957Y14961D01*
X32973Y12599D02*
X33957Y12599D01*
X34745Y13485D02*
X34745Y14075D01*
X32185Y13485D02*
X32185Y14075D01*
X32973Y07087D02*
X33957Y07087D01*
X32973Y04725D02*
X33957Y04725D01*
X34745Y05611D02*
X34745Y06201D01*
X32185Y05611D02*
X32185Y06201D01*
X03543Y16240D02*
X03543Y15256D01*
X01181Y16240D02*
X01181Y15256D01*
X02067Y14468D02*
X02657Y14468D01*
X02067Y17028D02*
X02657Y17028D01*
X24212Y00000D02*
X22244Y00000D01*
G54D14*
G36*
X04330Y08515D02*
X04318Y08538D01*
X04286Y08589D01*
X04238Y08662D01*
X04180Y08749D01*
X04121Y08836D01*
X04073Y08907D01*
X04041Y08957D01*
X04030Y08978D01*
X04034Y08989D01*
X04054Y09030D01*
X04085Y09090D01*
X04103Y09125D01*
X04126Y09180D01*
X04131Y09207D01*
X04124Y09212D01*
X04082Y09232D01*
X04010Y09263D01*
X03915Y09305D01*
X03804Y09352D01*
X03684Y09403D01*
X03562Y09454D01*
X03445Y09502D01*
X03340Y09545D01*
X03255Y09579D01*
X03196Y09602D01*
X03170Y09610D01*
X03165Y09608D01*
X03138Y09580D01*
X03102Y09532D01*
X03018Y09429D01*
X02890Y09326D01*
X02745Y09264D01*
X02584Y09243D01*
X02434Y09261D01*
X02290Y09320D01*
X02161Y09420D01*
X02065Y09541D01*
X02004Y09683D01*
X01985Y09843D01*
X02002Y09996D01*
X02060Y10142D01*
X02158Y10272D01*
X02221Y10326D01*
X02352Y10401D01*
X02492Y10444D01*
X02528Y10449D01*
X02682Y10442D01*
X02829Y10397D01*
X02961Y10316D01*
X03069Y10203D01*
X03080Y10189D01*
X03119Y10136D01*
X03146Y10101D01*
X03168Y10074D01*
X03640Y10270D01*
X03715Y10301D01*
X03844Y10355D01*
X03955Y10402D01*
X04043Y10440D01*
X04102Y10466D01*
X04126Y10478D01*
X04127Y10479D01*
X04130Y10496D01*
X04117Y10532D01*
X04085Y10598D01*
X04063Y10642D01*
X04039Y10692D01*
X04030Y10714D01*
X04040Y10733D01*
X04071Y10781D01*
X04118Y10851D01*
X04176Y10936D01*
X04230Y11016D01*
X04279Y11090D01*
X04313Y11144D01*
X04327Y11170D01*
X04327Y11174D01*
X04314Y11197D01*
X04279Y11239D01*
X04218Y11304D01*
X04128Y11395D01*
X04115Y11409D01*
X04039Y11483D01*
X03975Y11544D01*
X03930Y11585D01*
X03909Y11599D01*
X03909Y11599D01*
X03883Y11586D01*
X03830Y11552D01*
X03755Y11503D01*
X03667Y11443D01*
X03440Y11287D01*
X03226Y11373D01*
X03161Y11399D01*
X03081Y11433D01*
X03024Y11458D01*
X02999Y11470D01*
X02991Y11494D01*
X02977Y11552D01*
X02959Y11637D01*
X02940Y11739D01*
X02923Y11835D01*
X02906Y11922D01*
X02894Y11986D01*
X02888Y12014D01*
X02884Y12021D01*
X02871Y12026D01*
X02841Y12030D01*
X02788Y12032D01*
X02704Y12033D01*
X02584Y12033D01*
X02571Y12033D01*
X02455Y12032D01*
X02364Y12030D01*
X02303Y12027D01*
X02280Y12023D01*
X02279Y12023D01*
X02273Y11996D01*
X02260Y11934D01*
X02243Y11847D01*
X02223Y11743D01*
X02222Y11736D01*
X02202Y11633D01*
X02184Y11546D01*
X02170Y11485D01*
X02162Y11459D01*
X02154Y11454D01*
X02114Y11433D01*
X02050Y11403D01*
X01971Y11369D01*
X01890Y11335D01*
X01817Y11306D01*
X01762Y11286D01*
X01737Y11280D01*
X01737Y11281D01*
X01712Y11296D01*
X01658Y11332D01*
X01583Y11382D01*
X01495Y11443D01*
X01489Y11447D01*
X01401Y11507D01*
X01327Y11555D01*
X01274Y11587D01*
X01250Y11599D01*
X01249Y11599D01*
X01223Y11579D01*
X01173Y11535D01*
X01106Y11471D01*
X01029Y11394D01*
X01005Y11370D01*
X00922Y11285D01*
X00867Y11225D01*
X00838Y11189D01*
X00832Y11171D01*
X00832Y11170D01*
X00848Y11144D01*
X00884Y11089D01*
X00935Y11014D01*
X00996Y10925D01*
X01000Y10919D01*
X01059Y10831D01*
X01109Y10758D01*
X01143Y10706D01*
X01157Y10684D01*
X01157Y10680D01*
X01146Y10644D01*
X01124Y10582D01*
X01095Y10505D01*
X01062Y10424D01*
X01031Y10351D01*
X01006Y10295D01*
X00991Y10269D01*
X00990Y10269D01*
X00959Y10259D01*
X00893Y10244D01*
X00803Y10226D01*
X00696Y10205D01*
X00678Y10202D01*
X00574Y10182D01*
X00488Y10165D01*
X00428Y10153D01*
X00404Y10147D01*
X00400Y10132D01*
X00396Y10081D01*
X00394Y10003D01*
X00393Y09909D01*
X00394Y09810D01*
X00396Y09713D01*
X00399Y09630D01*
X00403Y09571D01*
X00408Y09547D01*
X00409Y09546D01*
X00442Y09537D01*
X00507Y09522D01*
X00598Y09504D01*
X00706Y09483D01*
X00725Y09479D01*
X00829Y09460D01*
X00914Y09442D01*
X00973Y09430D01*
X00996Y09423D01*
X01001Y09414D01*
X01020Y09371D01*
X01049Y09301D01*
X01084Y09215D01*
X01165Y09014D01*
X00996Y08768D01*
X00981Y08745D01*
X00921Y08657D01*
X00872Y08584D01*
X00840Y08534D01*
X00828Y08513D01*
X00829Y08511D01*
X00850Y08487D01*
X00896Y08438D01*
X00961Y08371D01*
X01038Y08294D01*
X01095Y08237D01*
X01164Y08169D01*
X01210Y08126D01*
X01240Y08103D01*
X01258Y08094D01*
X01270Y08096D01*
X01295Y08112D01*
X01349Y08148D01*
X01424Y08199D01*
X01511Y08259D01*
X01583Y08308D01*
X01666Y08361D01*
X01725Y08396D01*
X01754Y08408D01*
X01766Y08405D01*
X01814Y08388D01*
X01887Y08359D01*
X01973Y08322D01*
X02168Y08236D01*
X02193Y08109D01*
X02207Y08031D01*
X02228Y07923D01*
X02248Y07820D01*
X02279Y07658D01*
X02873Y07652D01*
X02884Y07677D01*
X02890Y07701D01*
X02904Y07761D01*
X02921Y07847D01*
X02940Y07947D01*
X02956Y08033D01*
X02972Y08120D01*
X02984Y08182D01*
X02990Y08210D01*
X02999Y08217D01*
X03041Y08238D01*
X03108Y08269D01*
X03188Y08303D01*
X03271Y08338D01*
X03348Y08368D01*
X03406Y08390D01*
X03437Y08398D01*
X03459Y08386D01*
X03510Y08353D01*
X03583Y08305D01*
X03669Y08247D01*
X03755Y08188D01*
X03828Y08138D01*
X03881Y08104D01*
X03905Y08089D01*
X03922Y08096D01*
X03963Y08131D01*
X04031Y08196D01*
X04126Y08292D01*
X04141Y08308D01*
X04215Y08385D01*
X04275Y08450D01*
X04315Y08495D01*
X04330Y08515D01*
X04330Y08515D01*
G37*
G54D12*
X10630Y00001D02*
X10630Y00198D01*
X09843Y00001D02*
X11417Y00001D01*
X09843Y02383D02*
X11417Y02383D01*
X07382Y00001D02*
X07382Y00198D01*
X06595Y00001D02*
X08169Y00001D01*
X06595Y02383D02*
X08169Y02383D01*
G54D11*
X33806Y11564D02*
X33206Y11564D01*
X33206Y11421D01*
X33234Y11336D01*
X33292Y11278D01*
X33349Y11250D01*
X33463Y11221D01*
X33549Y11221D01*
X33663Y11250D01*
X33720Y11278D01*
X33777Y11336D01*
X33806Y11421D01*
X33806Y11564D01*
X33806Y10650D02*
X33806Y10993D01*
X33806Y10821D02*
X33206Y10821D01*
X33292Y10878D01*
X33349Y10936D01*
X33377Y10993D01*
G54D13*
X29629Y06756D02*
X29510Y06839D01*
X29629Y06898D02*
X29379Y06898D01*
X29379Y06803D01*
X29391Y06779D01*
X29403Y06768D01*
X29427Y06756D01*
X29463Y06756D01*
X29486Y06768D01*
X29498Y06779D01*
X29510Y06803D01*
X29510Y06898D01*
X29379Y06529D02*
X29379Y06648D01*
X29498Y06660D01*
X29486Y06648D01*
X29474Y06625D01*
X29474Y06565D01*
X29486Y06541D01*
X29498Y06529D01*
X29522Y06518D01*
X29582Y06518D01*
X29605Y06529D01*
X29617Y06541D01*
X29629Y06565D01*
X29629Y06625D01*
X29617Y06648D01*
X29605Y06660D01*
X29379Y06434D02*
X29379Y06268D01*
X29629Y06375D01*
X30514Y06756D02*
X30395Y06839D01*
X30514Y06898D02*
X30264Y06898D01*
X30264Y06803D01*
X30276Y06779D01*
X30288Y06768D01*
X30312Y06756D01*
X30348Y06756D01*
X30371Y06768D01*
X30383Y06779D01*
X30395Y06803D01*
X30395Y06898D01*
X30264Y06529D02*
X30264Y06648D01*
X30383Y06660D01*
X30371Y06648D01*
X30359Y06625D01*
X30359Y06565D01*
X30371Y06541D01*
X30383Y06529D01*
X30407Y06518D01*
X30467Y06518D01*
X30490Y06529D01*
X30502Y06541D01*
X30514Y06565D01*
X30514Y06625D01*
X30502Y06648D01*
X30490Y06660D01*
X30264Y06303D02*
X30264Y06351D01*
X30276Y06375D01*
X30288Y06387D01*
X30324Y06410D01*
X30371Y06422D01*
X30467Y06422D01*
X30490Y06410D01*
X30502Y06399D01*
X30514Y06375D01*
X30514Y06327D01*
X30502Y06303D01*
X30490Y06291D01*
X30467Y06280D01*
X30407Y06280D01*
X30383Y06291D01*
X30371Y06303D01*
X30359Y06327D01*
X30359Y06375D01*
X30371Y06399D01*
X30383Y06410D01*
X30407Y06422D01*
X29333Y02524D02*
X29214Y02607D01*
X29333Y02666D02*
X29083Y02666D01*
X29083Y02571D01*
X29095Y02547D01*
X29107Y02536D01*
X29131Y02524D01*
X29167Y02524D01*
X29190Y02536D01*
X29202Y02547D01*
X29214Y02571D01*
X29214Y02666D01*
X29083Y02297D02*
X29083Y02416D01*
X29202Y02428D01*
X29190Y02416D01*
X29178Y02393D01*
X29178Y02333D01*
X29190Y02309D01*
X29202Y02297D01*
X29226Y02286D01*
X29286Y02286D01*
X29309Y02297D01*
X29321Y02309D01*
X29333Y02333D01*
X29333Y02393D01*
X29321Y02416D01*
X29309Y02428D01*
X29107Y02190D02*
X29095Y02178D01*
X29083Y02155D01*
X29083Y02095D01*
X29095Y02071D01*
X29107Y02059D01*
X29131Y02048D01*
X29155Y02048D01*
X29190Y02059D01*
X29333Y02202D01*
X29333Y02048D01*
X31007Y03606D02*
X30888Y03689D01*
X31007Y03748D02*
X30757Y03748D01*
X30757Y03653D01*
X30769Y03629D01*
X30781Y03618D01*
X30805Y03606D01*
X30841Y03606D01*
X30864Y03618D01*
X30876Y03629D01*
X30888Y03653D01*
X30888Y03748D01*
X30757Y03379D02*
X30757Y03498D01*
X30876Y03510D01*
X30864Y03498D01*
X30852Y03475D01*
X30852Y03415D01*
X30864Y03391D01*
X30876Y03379D01*
X30900Y03368D01*
X30960Y03368D01*
X30983Y03379D01*
X30995Y03391D01*
X31007Y03415D01*
X31007Y03475D01*
X30995Y03498D01*
X30983Y03510D01*
X31007Y03130D02*
X31007Y03272D01*
X31007Y03201D02*
X30757Y03201D01*
X30793Y03225D01*
X30817Y03249D01*
X30829Y03272D01*
X31991Y03705D02*
X31872Y03788D01*
X31991Y03847D02*
X31741Y03847D01*
X31741Y03752D01*
X31753Y03728D01*
X31765Y03717D01*
X31789Y03705D01*
X31825Y03705D01*
X31848Y03717D01*
X31860Y03728D01*
X31872Y03752D01*
X31872Y03847D01*
X31741Y03478D02*
X31741Y03597D01*
X31860Y03609D01*
X31848Y03597D01*
X31836Y03574D01*
X31836Y03514D01*
X31848Y03490D01*
X31860Y03478D01*
X31884Y03467D01*
X31944Y03467D01*
X31967Y03478D01*
X31979Y03490D01*
X31991Y03514D01*
X31991Y03574D01*
X31979Y03597D01*
X31967Y03609D01*
X31741Y03312D02*
X31741Y03288D01*
X31753Y03264D01*
X31765Y03252D01*
X31789Y03240D01*
X31836Y03229D01*
X31896Y03229D01*
X31944Y03240D01*
X31967Y03252D01*
X31979Y03264D01*
X31991Y03288D01*
X31991Y03312D01*
X31979Y03336D01*
X31967Y03348D01*
X31944Y03359D01*
X31896Y03371D01*
X31836Y03371D01*
X31789Y03359D01*
X31765Y03348D01*
X31753Y03336D01*
X31741Y03312D01*
X32975Y03705D02*
X32856Y03788D01*
X32975Y03847D02*
X32725Y03847D01*
X32725Y03752D01*
X32737Y03728D01*
X32749Y03717D01*
X32773Y03705D01*
X32809Y03705D01*
X32832Y03717D01*
X32844Y03728D01*
X32856Y03752D01*
X32856Y03847D01*
X32809Y03490D02*
X32975Y03490D01*
X32713Y03550D02*
X32892Y03609D01*
X32892Y03455D01*
X32975Y03348D02*
X32975Y03300D01*
X32963Y03276D01*
X32951Y03264D01*
X32916Y03240D01*
X32868Y03229D01*
X32773Y03229D01*
X32749Y03240D01*
X32737Y03252D01*
X32725Y03276D01*
X32725Y03324D01*
X32737Y03348D01*
X32749Y03359D01*
X32773Y03371D01*
X32832Y03371D01*
X32856Y03359D01*
X32868Y03348D01*
X32880Y03324D01*
X32880Y03276D01*
X32868Y03252D01*
X32856Y03240D01*
X32832Y03229D01*
X34353Y03311D02*
X34234Y03394D01*
X34353Y03453D02*
X34103Y03453D01*
X34103Y03358D01*
X34115Y03334D01*
X34127Y03323D01*
X34151Y03311D01*
X34187Y03311D01*
X34210Y03323D01*
X34222Y03334D01*
X34234Y03358D01*
X34234Y03453D01*
X34187Y03096D02*
X34353Y03096D01*
X34091Y03156D02*
X34270Y03215D01*
X34270Y03061D01*
X34210Y02930D02*
X34198Y02954D01*
X34187Y02965D01*
X34163Y02977D01*
X34151Y02977D01*
X34127Y02965D01*
X34115Y02954D01*
X34103Y02930D01*
X34103Y02882D01*
X34115Y02858D01*
X34127Y02846D01*
X34151Y02835D01*
X34163Y02835D01*
X34187Y02846D01*
X34198Y02858D01*
X34210Y02882D01*
X34210Y02930D01*
X34222Y02954D01*
X34234Y02965D01*
X34258Y02977D01*
X34306Y02977D01*
X34329Y02965D01*
X34341Y02954D01*
X34353Y02930D01*
X34353Y02882D01*
X34341Y02858D01*
X34329Y02846D01*
X34306Y02835D01*
X34258Y02835D01*
X34234Y02846D01*
X34222Y02858D01*
X34210Y02882D01*
X04492Y05805D02*
X04575Y05924D01*
X04634Y05805D02*
X04634Y06055D01*
X04539Y06055D01*
X04515Y06043D01*
X04504Y06031D01*
X04492Y06007D01*
X04492Y05971D01*
X04504Y05948D01*
X04515Y05936D01*
X04539Y05924D01*
X04634Y05924D01*
X04277Y05971D02*
X04277Y05805D01*
X04337Y06067D02*
X04396Y05888D01*
X04242Y05888D01*
X04039Y06055D02*
X04087Y06055D01*
X04111Y06043D01*
X04123Y06031D01*
X04146Y05995D01*
X04158Y05948D01*
X04158Y05852D01*
X04146Y05829D01*
X04135Y05817D01*
X04111Y05805D01*
X04063Y05805D01*
X04039Y05817D01*
X04027Y05829D01*
X04016Y05852D01*
X04016Y05912D01*
X04027Y05936D01*
X04039Y05948D01*
X04063Y05960D01*
X04111Y05960D01*
X04135Y05948D01*
X04146Y05936D01*
X04158Y05912D01*
X28803Y15770D02*
X28815Y15758D01*
X28850Y15746D01*
X28874Y15746D01*
X28910Y15758D01*
X28934Y15782D01*
X28945Y15805D01*
X28957Y15853D01*
X28957Y15889D01*
X28945Y15936D01*
X28934Y15960D01*
X28910Y15984D01*
X28874Y15996D01*
X28850Y15996D01*
X28815Y15984D01*
X28803Y15972D01*
X28707Y15972D02*
X28695Y15984D01*
X28672Y15996D01*
X28612Y15996D01*
X28588Y15984D01*
X28576Y15972D01*
X28565Y15948D01*
X28565Y15924D01*
X28576Y15889D01*
X28719Y15746D01*
X28565Y15746D01*
X28350Y15996D02*
X28398Y15996D01*
X28422Y15984D01*
X28434Y15972D01*
X28457Y15936D01*
X28469Y15889D01*
X28469Y15793D01*
X28457Y15770D01*
X28446Y15758D01*
X28422Y15746D01*
X28374Y15746D01*
X28350Y15758D01*
X28338Y15770D01*
X28327Y15793D01*
X28327Y15853D01*
X28338Y15877D01*
X28350Y15889D01*
X28374Y15901D01*
X28422Y15901D01*
X28446Y15889D01*
X28457Y15877D01*
X28469Y15853D01*
X33861Y08310D02*
X33742Y08393D01*
X33861Y08452D02*
X33611Y08452D01*
X33611Y08357D01*
X33623Y08333D01*
X33635Y08322D01*
X33659Y08310D01*
X33695Y08310D01*
X33718Y08322D01*
X33730Y08333D01*
X33742Y08357D01*
X33742Y08452D01*
X33635Y08214D02*
X33623Y08202D01*
X33611Y08179D01*
X33611Y08119D01*
X33623Y08095D01*
X33635Y08083D01*
X33659Y08072D01*
X33683Y08072D01*
X33718Y08083D01*
X33861Y08226D01*
X33861Y08072D01*
X32164Y08921D02*
X32176Y08933D01*
X32188Y08968D01*
X32188Y08992D01*
X32176Y09028D01*
X32152Y09052D01*
X32129Y09063D01*
X32081Y09075D01*
X32045Y09075D01*
X31998Y09063D01*
X31974Y09052D01*
X31950Y09028D01*
X31938Y08992D01*
X31938Y08968D01*
X31950Y08933D01*
X31962Y08921D01*
X32022Y08706D02*
X32188Y08706D01*
X31926Y08766D02*
X32105Y08825D01*
X32105Y08671D01*
X31938Y08468D02*
X31938Y08516D01*
X31950Y08540D01*
X31962Y08552D01*
X31998Y08575D01*
X32045Y08587D01*
X32141Y08587D01*
X32164Y08575D01*
X32176Y08564D01*
X32188Y08540D01*
X32188Y08492D01*
X32176Y08468D01*
X32164Y08456D01*
X32141Y08445D01*
X32081Y08445D01*
X32057Y08456D01*
X32045Y08468D01*
X32033Y08492D01*
X32033Y08540D01*
X32045Y08564D01*
X32057Y08575D01*
X32081Y08587D01*
X03508Y07380D02*
X03591Y07499D01*
X03650Y07380D02*
X03650Y07630D01*
X03555Y07630D01*
X03531Y07618D01*
X03520Y07606D01*
X03508Y07582D01*
X03508Y07546D01*
X03520Y07523D01*
X03531Y07511D01*
X03555Y07499D01*
X03650Y07499D01*
X03424Y07630D02*
X03270Y07630D01*
X03353Y07535D01*
X03317Y07535D01*
X03293Y07523D01*
X03281Y07511D01*
X03270Y07487D01*
X03270Y07427D01*
X03281Y07404D01*
X03293Y07392D01*
X03317Y07380D01*
X03389Y07380D01*
X03412Y07392D01*
X03424Y07404D01*
X03151Y07380D02*
X03103Y07380D01*
X03079Y07392D01*
X03067Y07404D01*
X03043Y07439D01*
X03032Y07487D01*
X03032Y07582D01*
X03043Y07606D01*
X03055Y07618D01*
X03079Y07630D01*
X03127Y07630D01*
X03151Y07618D01*
X03162Y07606D01*
X03174Y07582D01*
X03174Y07523D01*
X03162Y07499D01*
X03151Y07487D01*
X03127Y07475D01*
X03079Y07475D01*
X03055Y07487D01*
X03043Y07499D01*
X03032Y07523D01*
X30574Y15770D02*
X30586Y15758D01*
X30621Y15746D01*
X30645Y15746D01*
X30681Y15758D01*
X30705Y15782D01*
X30716Y15805D01*
X30728Y15853D01*
X30728Y15889D01*
X30716Y15936D01*
X30705Y15960D01*
X30681Y15984D01*
X30645Y15996D01*
X30621Y15996D01*
X30586Y15984D01*
X30574Y15972D01*
X30347Y15996D02*
X30466Y15996D01*
X30478Y15877D01*
X30466Y15889D01*
X30443Y15901D01*
X30383Y15901D01*
X30359Y15889D01*
X30347Y15877D01*
X30336Y15853D01*
X30336Y15793D01*
X30347Y15770D01*
X30359Y15758D01*
X30383Y15746D01*
X30443Y15746D01*
X30466Y15758D01*
X30478Y15770D01*
X30109Y15996D02*
X30228Y15996D01*
X30240Y15877D01*
X30228Y15889D01*
X30205Y15901D01*
X30145Y15901D01*
X30121Y15889D01*
X30109Y15877D01*
X30098Y15853D01*
X30098Y15793D01*
X30109Y15770D01*
X30121Y15758D01*
X30145Y15746D01*
X30205Y15746D01*
X30228Y15758D01*
X30240Y15770D01*
G54D11*
X03162Y01066D02*
X03076Y01037D01*
X02933Y01037D01*
X02876Y01066D01*
X02847Y01094D01*
X02819Y01151D01*
X02819Y01209D01*
X02847Y01266D01*
X02876Y01294D01*
X02933Y01323D01*
X03047Y01351D01*
X03105Y01380D01*
X03133Y01409D01*
X03162Y01466D01*
X03162Y01523D01*
X03133Y01580D01*
X03105Y01609D01*
X03047Y01637D01*
X02905Y01637D01*
X02819Y01609D01*
X02619Y01637D02*
X02476Y01037D01*
X02362Y01466D01*
X02248Y01037D01*
X02105Y01637D01*
X01619Y01437D02*
X01619Y01037D01*
X01762Y01666D02*
X01905Y01237D01*
X01533Y01237D01*
X04377Y04742D02*
X03777Y04742D01*
X04205Y04542D01*
X03777Y04342D01*
X04377Y04342D01*
X04063Y04056D02*
X04063Y03856D01*
X04377Y03770D02*
X04377Y04056D01*
X03777Y04056D01*
X03777Y03770D01*
X04377Y03513D02*
X03777Y03513D01*
X04377Y03170D01*
X03777Y03170D01*
X03777Y02884D02*
X04263Y02884D01*
X04320Y02856D01*
X04348Y02827D01*
X04377Y02770D01*
X04377Y02656D01*
X04348Y02598D01*
X04320Y02570D01*
X04263Y02541D01*
X03777Y02541D01*
X27773Y13290D02*
X27802Y13204D01*
X27802Y13061D01*
X27773Y13004D01*
X27745Y12975D01*
X27688Y12947D01*
X27630Y12947D01*
X27573Y12975D01*
X27545Y13004D01*
X27516Y13061D01*
X27488Y13175D01*
X27459Y13233D01*
X27430Y13261D01*
X27373Y13290D01*
X27316Y13290D01*
X27259Y13261D01*
X27230Y13233D01*
X27202Y13175D01*
X27202Y13033D01*
X27230Y12947D01*
X27202Y12747D02*
X27802Y12604D01*
X27373Y12490D01*
X27802Y12376D01*
X27202Y12233D01*
X27802Y11690D02*
X27802Y12033D01*
X27802Y11861D02*
X27202Y11861D01*
X27288Y11918D01*
X27345Y11976D01*
X27373Y12033D01*
X27202Y11319D02*
X27202Y11262D01*
X27230Y11205D01*
X27259Y11176D01*
X27316Y11147D01*
X27430Y11119D01*
X27573Y11119D01*
X27688Y11147D01*
X27745Y11176D01*
X27773Y11205D01*
X27802Y11262D01*
X27802Y11319D01*
X27773Y11376D01*
X27745Y11405D01*
X27688Y11433D01*
X27573Y11462D01*
X27430Y11462D01*
X27316Y11433D01*
X27259Y11405D01*
X27230Y11376D01*
X27202Y11319D01*
X28088Y12086D02*
X28574Y12086D01*
X28631Y12058D01*
X28659Y12029D01*
X28688Y11972D01*
X28688Y11858D01*
X28659Y11800D01*
X28631Y11772D01*
X28574Y11743D01*
X28088Y11743D01*
X28688Y11457D02*
X28088Y11457D01*
X28088Y11229D01*
X28116Y11171D01*
X28145Y11143D01*
X28202Y11114D01*
X28288Y11114D01*
X28345Y11143D01*
X28374Y11171D01*
X28402Y11229D01*
X28402Y11457D01*
X38206Y08379D02*
X38235Y08293D01*
X38235Y08150D01*
X38206Y08093D01*
X38178Y08064D01*
X38121Y08036D01*
X38063Y08036D01*
X38006Y08064D01*
X37978Y08093D01*
X37949Y08150D01*
X37921Y08264D01*
X37892Y08322D01*
X37863Y08350D01*
X37806Y08379D01*
X37749Y08379D01*
X37692Y08350D01*
X37663Y08322D01*
X37635Y08264D01*
X37635Y08122D01*
X37663Y08036D01*
X37635Y07836D02*
X38235Y07693D01*
X37806Y07579D01*
X38235Y07465D01*
X37635Y07322D01*
X37635Y07150D02*
X37635Y06750D01*
X38235Y07007D01*
X39121Y08413D02*
X38521Y08413D01*
X38521Y08270D01*
X38549Y08185D01*
X38607Y08127D01*
X38664Y08099D01*
X38778Y08070D01*
X38864Y08070D01*
X38978Y08099D01*
X39035Y08127D01*
X39092Y08185D01*
X39121Y08270D01*
X39121Y08413D01*
X38521Y07699D02*
X38521Y07585D01*
X38549Y07527D01*
X38607Y07470D01*
X38721Y07442D01*
X38921Y07442D01*
X39035Y07470D01*
X39092Y07527D01*
X39121Y07585D01*
X39121Y07699D01*
X39092Y07756D01*
X39035Y07813D01*
X38921Y07842D01*
X38721Y07842D01*
X38607Y07813D01*
X38549Y07756D01*
X38521Y07699D01*
X38521Y07241D02*
X39121Y07098D01*
X38692Y06984D01*
X39121Y06870D01*
X38521Y06727D01*
X39121Y06498D02*
X38521Y06498D01*
X39121Y06155D01*
X38521Y06155D01*
X34072Y16844D02*
X34101Y16758D01*
X34101Y16615D01*
X34072Y16558D01*
X34044Y16529D01*
X33987Y16501D01*
X33929Y16501D01*
X33872Y16529D01*
X33844Y16558D01*
X33815Y16615D01*
X33787Y16729D01*
X33758Y16787D01*
X33729Y16815D01*
X33672Y16844D01*
X33615Y16844D01*
X33558Y16815D01*
X33529Y16787D01*
X33501Y16729D01*
X33501Y16587D01*
X33529Y16501D01*
X33501Y16301D02*
X34101Y16158D01*
X33672Y16044D01*
X34101Y15930D01*
X33501Y15787D01*
X33758Y15472D02*
X33729Y15530D01*
X33701Y15558D01*
X33644Y15587D01*
X33615Y15587D01*
X33558Y15558D01*
X33529Y15530D01*
X33501Y15472D01*
X33501Y15358D01*
X33529Y15301D01*
X33558Y15272D01*
X33615Y15244D01*
X33644Y15244D01*
X33701Y15272D01*
X33729Y15301D01*
X33758Y15358D01*
X33758Y15472D01*
X33787Y15530D01*
X33815Y15558D01*
X33872Y15587D01*
X33987Y15587D01*
X34044Y15558D01*
X34072Y15530D01*
X34101Y15472D01*
X34101Y15358D01*
X34072Y15301D01*
X34044Y15272D01*
X33987Y15244D01*
X33872Y15244D01*
X33815Y15272D01*
X33787Y15301D01*
X33758Y15358D01*
X33216Y16713D02*
X33216Y16999D01*
X32616Y16999D01*
X32902Y16513D02*
X32902Y16313D01*
X33216Y16227D02*
X33216Y16513D01*
X32616Y16513D01*
X32616Y16227D01*
X32902Y15770D02*
X32902Y15970D01*
X33216Y15970D02*
X32616Y15970D01*
X32616Y15684D01*
X32616Y15542D02*
X32616Y15199D01*
X33216Y15370D02*
X32616Y15370D01*
X37222Y06411D02*
X37251Y06325D01*
X37251Y06182D01*
X37222Y06125D01*
X37194Y06096D01*
X37137Y06068D01*
X37079Y06068D01*
X37022Y06096D01*
X36994Y06125D01*
X36965Y06182D01*
X36937Y06296D01*
X36908Y06354D01*
X36879Y06382D01*
X36822Y06411D01*
X36765Y06411D01*
X36708Y06382D01*
X36679Y06354D01*
X36651Y06296D01*
X36651Y06154D01*
X36679Y06068D01*
X36651Y05868D02*
X37251Y05725D01*
X36822Y05611D01*
X37251Y05497D01*
X36651Y05354D01*
X37251Y05097D02*
X37251Y04982D01*
X37222Y04925D01*
X37194Y04897D01*
X37108Y04839D01*
X36994Y04811D01*
X36765Y04811D01*
X36708Y04839D01*
X36679Y04868D01*
X36651Y04925D01*
X36651Y05039D01*
X36679Y05097D01*
X36708Y05125D01*
X36765Y05154D01*
X36908Y05154D01*
X36965Y05125D01*
X36994Y05097D01*
X37022Y05039D01*
X37022Y04925D01*
X36994Y04868D01*
X36965Y04839D01*
X36908Y04811D01*
X36365Y06804D02*
X36079Y07004D01*
X36365Y07147D02*
X35765Y07147D01*
X35765Y06919D01*
X35793Y06861D01*
X35822Y06833D01*
X35879Y06804D01*
X35965Y06804D01*
X36022Y06833D01*
X36051Y06861D01*
X36079Y06919D01*
X36079Y07147D01*
X36365Y06547D02*
X35765Y06547D01*
X35793Y05947D02*
X35765Y06004D01*
X35765Y06090D01*
X35793Y06175D01*
X35851Y06233D01*
X35908Y06261D01*
X36022Y06290D01*
X36108Y06290D01*
X36222Y06261D01*
X36279Y06233D01*
X36336Y06175D01*
X36365Y06090D01*
X36365Y06033D01*
X36336Y05947D01*
X36308Y05918D01*
X36108Y05918D01*
X36108Y06033D01*
X36365Y05661D02*
X35765Y05661D01*
X36051Y05661D02*
X36051Y05318D01*
X36365Y05318D02*
X35765Y05318D01*
X35765Y05118D02*
X35765Y04775D01*
X36365Y04946D02*
X35765Y04946D01*
X04348Y15269D02*
X04377Y15183D01*
X04377Y15040D01*
X04348Y14983D01*
X04320Y14954D01*
X04263Y14926D01*
X04205Y14926D01*
X04148Y14954D01*
X04120Y14983D01*
X04091Y15040D01*
X04063Y15154D01*
X04034Y15212D01*
X04005Y15240D01*
X03948Y15269D01*
X03891Y15269D01*
X03834Y15240D01*
X03805Y15212D01*
X03777Y15154D01*
X03777Y15012D01*
X03805Y14926D01*
X03777Y14726D02*
X04377Y14583D01*
X03948Y14469D01*
X04377Y14355D01*
X03777Y14212D01*
X03777Y13697D02*
X03777Y13983D01*
X04063Y14012D01*
X04034Y13983D01*
X04005Y13926D01*
X04005Y13783D01*
X04034Y13726D01*
X04063Y13697D01*
X04120Y13669D01*
X04263Y13669D01*
X04320Y13697D01*
X04348Y13726D01*
X04377Y13783D01*
X04377Y13926D01*
X04348Y13983D01*
X04320Y14012D01*
X04348Y17797D02*
X04377Y17711D01*
X04377Y17568D01*
X04348Y17511D01*
X04320Y17482D01*
X04263Y17454D01*
X04205Y17454D01*
X04148Y17482D01*
X04120Y17511D01*
X04091Y17568D01*
X04063Y17682D01*
X04034Y17740D01*
X04005Y17768D01*
X03948Y17797D01*
X03891Y17797D01*
X03834Y17768D01*
X03805Y17740D01*
X03777Y17682D01*
X03777Y17540D01*
X03805Y17454D01*
X04063Y17197D02*
X04063Y16997D01*
X04377Y16911D02*
X04377Y17197D01*
X03777Y17197D01*
X03777Y16911D01*
X03777Y16740D02*
X03777Y16397D01*
X04377Y16568D02*
X03777Y16568D01*
X35383Y00446D02*
X35383Y01046D01*
X35155Y01046D01*
X35097Y01018D01*
X35069Y00989D01*
X35040Y00932D01*
X35040Y00846D01*
X35069Y00789D01*
X35097Y00760D01*
X35155Y00732D01*
X35383Y00732D01*
X34697Y00789D02*
X34755Y00818D01*
X34783Y00846D01*
X34812Y00903D01*
X34812Y00932D01*
X34783Y00989D01*
X34755Y01018D01*
X34697Y01046D01*
X34583Y01046D01*
X34526Y01018D01*
X34497Y00989D01*
X34469Y00932D01*
X34469Y00903D01*
X34497Y00846D01*
X34526Y00818D01*
X34583Y00789D01*
X34697Y00789D01*
X34755Y00760D01*
X34783Y00732D01*
X34812Y00675D01*
X34812Y00560D01*
X34783Y00503D01*
X34755Y00475D01*
X34697Y00446D01*
X34583Y00446D01*
X34526Y00475D01*
X34497Y00503D01*
X34469Y00560D01*
X34469Y00675D01*
X34497Y00732D01*
X34526Y00760D01*
X34583Y00789D01*
X28554Y01834D02*
X28554Y01406D01*
X28582Y01320D01*
X28639Y01263D01*
X28725Y01234D01*
X28782Y01234D01*
X28354Y01834D02*
X28011Y01834D01*
X28182Y01234D02*
X28182Y01834D01*
X27840Y01406D02*
X27554Y01406D01*
X27897Y01234D02*
X27697Y01834D01*
X27497Y01234D01*
X26983Y01806D02*
X27040Y01834D01*
X27126Y01834D01*
X27211Y01806D01*
X27269Y01748D01*
X27297Y01691D01*
X27326Y01577D01*
X27326Y01491D01*
X27297Y01377D01*
X27269Y01320D01*
X27211Y01263D01*
X27126Y01234D01*
X27069Y01234D01*
X26983Y01263D01*
X26954Y01291D01*
X26954Y01491D01*
X27069Y01491D01*
G54D13*
X26134Y00484D02*
X26091Y00470D01*
X26020Y00470D01*
X25991Y00484D01*
X25977Y00498D01*
X25962Y00527D01*
X25962Y00555D01*
X25977Y00584D01*
X25991Y00598D01*
X26020Y00612D01*
X26077Y00627D01*
X26105Y00641D01*
X26120Y00655D01*
X26134Y00684D01*
X26134Y00712D01*
X26120Y00741D01*
X26105Y00755D01*
X26077Y00770D01*
X26005Y00770D01*
X25962Y00755D01*
X25862Y00770D02*
X25791Y00470D01*
X25734Y00684D01*
X25676Y00470D01*
X25605Y00770D01*
X25333Y00470D02*
X25505Y00470D01*
X25419Y00470D02*
X25419Y00770D01*
X25448Y00727D01*
X25476Y00698D01*
X25505Y00684D01*
X25047Y00470D02*
X25219Y00470D01*
X25133Y00470D02*
X25133Y00770D01*
X25162Y00727D01*
X25190Y00698D01*
X25219Y00684D01*
X11030Y02551D02*
X10987Y02537D01*
X10916Y02537D01*
X10887Y02551D01*
X10873Y02565D01*
X10858Y02594D01*
X10858Y02622D01*
X10873Y02651D01*
X10887Y02665D01*
X10916Y02679D01*
X10973Y02694D01*
X11001Y02708D01*
X11016Y02722D01*
X11030Y02751D01*
X11030Y02779D01*
X11016Y02808D01*
X11001Y02822D01*
X10973Y02837D01*
X10901Y02837D01*
X10858Y02822D01*
X10758Y02837D02*
X10687Y02537D01*
X10630Y02751D01*
X10572Y02537D01*
X10501Y02837D01*
X10401Y02808D02*
X10387Y02822D01*
X10358Y02837D01*
X10287Y02837D01*
X10258Y02822D01*
X10244Y02808D01*
X10229Y02779D01*
X10229Y02751D01*
X10244Y02708D01*
X10415Y02537D01*
X10229Y02537D01*
X12420Y02079D02*
X12720Y01979D01*
X12420Y01879D01*
X12420Y01722D02*
X12420Y01665D01*
X12435Y01637D01*
X12463Y01608D01*
X12520Y01594D01*
X12620Y01594D01*
X12678Y01608D01*
X12706Y01637D01*
X12720Y01665D01*
X12720Y01722D01*
X12706Y01751D01*
X12678Y01780D01*
X12620Y01794D01*
X12520Y01794D01*
X12463Y01780D01*
X12435Y01751D01*
X12420Y01722D01*
X12720Y01323D02*
X12720Y01466D01*
X12420Y01466D01*
X12749Y01294D02*
X12749Y01065D01*
X12720Y00994D02*
X12420Y00994D01*
X12420Y00922D01*
X12435Y00879D01*
X12463Y00851D01*
X12492Y00836D01*
X12549Y00822D01*
X12592Y00822D01*
X12649Y00836D01*
X12678Y00851D01*
X12706Y00879D01*
X12720Y00922D01*
X12720Y00994D01*
X12720Y00694D02*
X12420Y00694D01*
X12720Y00522D01*
X12420Y00522D01*
X07782Y02551D02*
X07739Y02537D01*
X07668Y02537D01*
X07639Y02551D01*
X07625Y02565D01*
X07610Y02594D01*
X07610Y02622D01*
X07625Y02651D01*
X07639Y02665D01*
X07668Y02679D01*
X07725Y02694D01*
X07753Y02708D01*
X07768Y02722D01*
X07782Y02751D01*
X07782Y02779D01*
X07768Y02808D01*
X07753Y02822D01*
X07725Y02837D01*
X07653Y02837D01*
X07610Y02822D01*
X07510Y02837D02*
X07439Y02537D01*
X07382Y02751D01*
X07324Y02537D01*
X07253Y02837D01*
X06981Y02537D02*
X07153Y02537D01*
X07067Y02537D02*
X07067Y02837D01*
X07096Y02794D01*
X07124Y02765D01*
X07153Y02751D01*
X05333Y01981D02*
X05633Y01881D01*
X05333Y01781D01*
X05333Y01624D02*
X05333Y01567D01*
X05348Y01539D01*
X05376Y01510D01*
X05433Y01496D01*
X05533Y01496D01*
X05591Y01510D01*
X05619Y01539D01*
X05633Y01567D01*
X05633Y01624D01*
X05619Y01653D01*
X05591Y01682D01*
X05533Y01696D01*
X05433Y01696D01*
X05376Y01682D01*
X05348Y01653D01*
X05333Y01624D01*
X05633Y01225D02*
X05633Y01368D01*
X05333Y01368D01*
X05662Y01196D02*
X05662Y00967D01*
X05333Y00896D02*
X05576Y00896D01*
X05605Y00881D01*
X05619Y00867D01*
X05633Y00838D01*
X05633Y00781D01*
X05619Y00753D01*
X05605Y00738D01*
X05576Y00724D01*
X05333Y00724D01*
X05633Y00582D02*
X05333Y00582D01*
X05333Y00467D01*
X05348Y00439D01*
X05362Y00424D01*
X05391Y00410D01*
X05433Y00410D01*
X05462Y00424D01*
X05476Y00439D01*
X05491Y00467D01*
X05491Y00582D01*
M02*
