M48
;DRILL file {Pcbnew (2012-05-21 BZR 3261)-stable} date Wed 26 Sep 2012 20:14:17 BST
;FORMAT={-:-/ absolute / metric / decimal}
FMAT,2
METRIC,TZ
T1C0.500
T2C0.800
T3C0.899
T4C1.001
T5C1.016
T6C1.524
%
G90
G05
M71
T1
X1.501Y14.501
X1.999Y23.002
X3.251Y29.251
X6.500Y27.752
X7.000Y21.001
X9.749Y25.751
X10.000Y35.751
X10.749Y3.251
X11.001Y8.001
X11.250Y22.001
X11.999Y48.501
X13.500Y35.502
X13.749Y14.252
X14.750Y47.501
X15.250Y23.752
X15.499Y12.751
X17.000Y38.501
X17.000Y12.502
X17.501Y14.000
X17.750Y11.001
X18.999Y36.251
X19.751Y37.752
X19.751Y11.001
X20.251Y33.002
X20.251Y2.002
X20.749Y27.752
X20.749Y12.002
X22.250Y8.750
X22.751Y37.752
X22.751Y12.002
X24.750Y42.548
X24.750Y38.750
X24.750Y12.002
X25.250Y8.501
X25.499Y2.002
X25.999Y42.751
X28.001Y36.251
X28.250Y20.500
X28.501Y44.501
X28.501Y24.501
X28.750Y38.750
X29.251Y18.250
X29.500Y37.000
X30.251Y14.750
X30.401Y33.602
X31.001Y27.501
X31.250Y11.750
X32.001Y36.251
X32.250Y41.252
X32.250Y40.000
X32.250Y18.750
X32.250Y9.002
X32.499Y3.002
X33.000Y40.752
X33.000Y39.251
X33.251Y18.750
X33.500Y47.752
X33.500Y27.501
X33.749Y21.252
X33.749Y18.001
X34.000Y34.752
X34.750Y36.251
X34.750Y17.752
X35.250Y22.751
X35.499Y47.752
X35.499Y35.502
X35.636Y25.560
X35.999Y15.001
X36.251Y38.750
X36.500Y15.751
X36.500Y14.000
X36.751Y21.750
X36.779Y27.338
X37.000Y9.751
X37.501Y47.752
X37.541Y26.576
X38.501Y4.501
X38.999Y27.252
X39.500Y47.752
X40.000Y27.752
X40.500Y9.751
X41.250Y29.502
X41.501Y47.752
X42.001Y29.002
X42.751Y33.002
X42.751Y28.501
X43.251Y38.750
X43.500Y7.501
X43.749Y36.251
X44.249Y34.752
X44.750Y35.502
X46.251Y10.500
X48.250Y33.500
X48.750Y34.252
X48.750Y23.500
X48.999Y39.502
X49.500Y40.251
X49.500Y34.752
X49.751Y24.252
X50.251Y40.752
X50.251Y25.250
X51.001Y47.752
X51.001Y41.252
X51.250Y25.751
X51.250Y21.252
X52.001Y14.252
X53.251Y36.251
X53.500Y21.001
X53.500Y19.251
X53.500Y10.500
X54.000Y34.752
X54.000Y25.502
X54.000Y20.251
X54.249Y21.750
X54.249Y18.750
X54.501Y16.251
X54.501Y1.501
X54.674Y12.329
X54.750Y39.002
X54.750Y14.750
X54.750Y10.000
X54.750Y8.501
X55.250Y17.000
X55.250Y15.502
X55.250Y10.752
X55.250Y9.251
X55.499Y5.001
X57.000Y38.001
X58.250Y16.751
X58.250Y15.250
X58.250Y10.752
X58.250Y8.501
X58.250Y5.250
X58.750Y16.002
X58.750Y14.501
X58.750Y10.000
X58.999Y31.252
X59.251Y32.502
X59.251Y9.251
X60.251Y13.002
X60.500Y7.000
X60.749Y48.001
X61.001Y13.752
X61.001Y8.001
X61.501Y30.500
X61.750Y11.252
X61.750Y8.750
X62.001Y17.752
X62.250Y21.750
X62.499Y33.752
X63.000Y46.251
X63.000Y23.752
X63.000Y21.001
X63.500Y17.252
X63.751Y22.250
X63.751Y9.751
X64.000Y41.252
X64.249Y38.001
X64.249Y2.002
X64.750Y4.001
X65.499Y15.250
X65.750Y19.251
X65.999Y21.501
X66.251Y25.250
X66.251Y16.002
X66.251Y14.501
X66.500Y39.502
X67.000Y21.501
X67.000Y17.000
X67.749Y40.000
X68.250Y27.752
X69.251Y43.752
X69.251Y23.752
X69.751Y4.001
X70.815Y6.891
X71.001Y15.502
X71.001Y9.502
X71.750Y40.000
X72.751Y41.001
X72.751Y4.001
X74.000Y34.752
X74.000Y33.500
X74.249Y4.001
X75.001Y42.751
X75.001Y40.000
X75.001Y38.001
X75.895Y7.526
X77.249Y16.251
X77.249Y9.502
X78.250Y34.752
X78.435Y7.526
X78.501Y15.250
X78.999Y37.000
X79.251Y33.251
X79.251Y17.000
X79.499Y20.000
X80.975Y7.526
X81.001Y27.252
X81.750Y9.751
X82.001Y27.252
X82.001Y20.000
X82.250Y8.501
X83.251Y15.502
X83.515Y7.526
X84.000Y32.001
X84.501Y44.752
X84.501Y34.752
X85.750Y8.750
X86.055Y7.526
X86.500Y35.250
X87.000Y42.250
X87.000Y41.252
X87.000Y40.251
X87.749Y5.001
X88.250Y31.001
X88.250Y24.750
X89.499Y31.501
X89.751Y30.000
X90.500Y2.751
X90.749Y30.500
X91.501Y35.250
X91.750Y42.250
X91.750Y29.502
X91.897Y40.292
X92.250Y8.501
X93.251Y46.002
X93.802Y14.747
X94.750Y20.752
X95.501Y29.751
X96.375Y33.376
X96.500Y30.752
X97.000Y43.500
T2
X16.330Y49.002
X26.330Y49.002
X54.671Y49.002
X64.671Y49.002
T3
X18.750Y4.503
X18.750Y1.501
X27.000Y4.503
X27.000Y1.501
X57.498Y1.501
X60.500Y1.501
X94.000Y10.251
X97.003Y10.251
T4
X64.996Y26.751
T5
X2.250Y43.752
X2.250Y40.251
X2.250Y9.751
X2.250Y6.251
X70.650Y47.752
X73.190Y47.752
X75.730Y47.752
X78.270Y47.752
X80.749Y42.522
X80.749Y39.982
X80.810Y47.752
X83.350Y47.752
T6
X85.999Y26.751
T0
M30
